<svg width="236" height="241" viewBox="0 0 236 241" fill="none" xmlns="http://www.w3.org/2000/svg">
<path d="M215.603 181.099C212.741 181.377 209.423 182.793 205.953 184.273C202.546 185.727 199.037 187.231 195.58 187.762C194.377 187.99 189.412 191.909 187.246 198.9C187.056 199.532 186.588 199.987 186.043 200.253C187.575 204.589 191.324 207.876 194.693 209.09C203.28 201.176 210.373 191.706 215.603 181.087V181.099Z" fill="#E8FDF8"/>
<path d="M211.078 125.815C215.637 129.798 220.488 133.439 225.351 133.894C224.718 121.378 221.691 109.266 216.27 97.8752C213.003 97.2557 209.19 100.682 207.544 103.817C206.974 104.904 206.1 107.041 206.759 112.945C207.253 117.408 207.734 121.542 209.33 125.272C209.938 125.208 210.571 125.385 211.065 125.815H211.078Z" fill="#E8FDF8"/>
<path d="M59.7968 71.9947C60.3794 71.9947 60.9746 71.7672 61.4179 71.3247C72.7152 59.9716 86.7988 51.5517 102.174 46.975C108.127 45.1924 114.295 43.9914 120.488 43.3846C127.821 42.6892 135.256 42.8536 142.601 43.8776C143.855 44.0546 144.995 43.1823 145.172 41.9307C145.35 40.6917 144.476 39.5412 143.222 39.3642C135.521 38.3022 127.732 38.1252 120.045 38.8585C113.548 39.4906 107.101 40.7549 100.857 42.6134C84.7598 47.4049 70.0049 56.2168 58.1757 68.1135C57.2891 69.0111 57.2891 70.4523 58.1757 71.3373C58.6189 71.7798 59.2015 71.9947 59.7841 71.9947H59.7968Z" fill="#006D77" stroke="#006D77" stroke-width="2.26" stroke-miterlimit="10"/>
<path d="M36.655 114.55C36.655 113.273 35.6291 112.262 34.3753 112.262C33.2988 112.262 32.3869 113.021 32.1589 114.032C25.915 138.382 29.056 164.021 40.9992 186.247C53.0184 208.599 72.9026 225.451 96.979 233.694C107.592 237.323 118.598 239.13 129.579 239.13C143.283 239.13 156.936 236.324 169.753 230.736C192.664 220.748 210.902 202.77 221.122 180.115C221.122 180.115 221.122 180.115 221.122 180.102C221.135 180.077 221.148 180.052 221.16 180.014C222.402 177.232 223.567 174.312 224.593 171.328C228.519 159.912 230.343 148.053 230.013 136.081C229.646 122.111 226.391 108.608 220.375 95.9279C219.831 94.79 218.475 94.3096 217.336 94.8532C216.196 95.3969 215.714 96.7496 216.259 97.8875C221.68 109.278 224.707 121.39 225.34 133.906C220.477 133.451 215.626 129.81 211.066 125.828C210.572 125.398 209.939 125.221 209.331 125.284C208.774 125.347 208.242 125.6 207.849 126.043C207.026 126.991 207.115 128.432 208.065 129.254C213.384 133.894 219.147 138.116 225.467 138.47C225.505 149.128 223.782 159.672 220.287 169.849C219.489 172.137 218.615 174.375 217.678 176.55C213.308 176.183 208.66 178.168 204.139 180.102C200.998 181.442 197.743 182.833 194.855 183.288C191.537 183.806 185.369 189.496 182.861 197.574C182.494 198.775 183.165 200.052 184.368 200.419C184.596 200.482 184.812 200.52 185.04 200.52C185.382 200.52 185.711 200.419 186.015 200.267C186.572 200.002 187.028 199.547 187.218 198.914C189.384 191.923 194.348 188.004 195.552 187.776C198.996 187.245 202.517 185.741 205.924 184.287C209.382 182.808 212.7 181.392 215.575 181.114C210.357 191.733 203.252 201.203 194.665 209.117C186.863 216.311 177.846 222.24 167.904 226.576C145.866 236.185 121.195 237.196 98.4354 229.396C75.4483 221.532 56.4759 205.438 45.0013 184.097C33.5774 162.87 30.5884 138.369 36.5664 115.119C36.617 114.93 36.6424 114.74 36.6424 114.55H36.655Z" fill="#006D77" stroke="#006D77" stroke-width="2.26" stroke-miterlimit="10"/>
<path d="M150.148 130.936C150.148 130.949 150.161 130.961 150.174 130.987C150.174 130.987 150.161 130.961 150.148 130.949V130.936Z" fill="#E8FDF8"/>
<path d="M141.751 124.853C143.207 125.877 144.791 126.838 146.513 127.736C144.879 126.522 143.258 125.586 141.751 124.853Z" fill="#E8FDF8"/>
<path d="M95.9949 116.686C88.4718 118.38 64.0028 124.941 64.6107 138.178C65.0414 147.559 68.3089 155.6 73.5903 160.252C77.0099 163.274 81.1387 164.677 85.5208 164.348C92.436 163.817 98.7305 165.865 103.252 170.126C107.862 174.475 110.332 180.834 110.205 188.053C110.053 196.41 111.7 207.181 116.791 212.39C118.602 214.248 120.641 215.159 123.035 215.171H123.073C124.846 215.171 126.682 214.071 128.506 211.897C134.94 204.223 138.613 186.372 136.992 177.686C135.421 169.304 139.246 159.797 142.628 151.415C146.871 140.896 149.226 134.322 144.401 131.768C140.753 129.847 137.663 127.71 134.978 125.245C134.155 124.486 134.016 123.272 134.586 122.362C122.3 119.556 110.015 116.761 97.7173 113.955C97.996 115.181 97.2234 116.395 95.9949 116.673V116.686Z" fill="#E8FDF8"/>
<path d="M167.333 45.926C155.795 51.0463 146.22 55.901 138.798 60.3891L119.522 55.7746C116.938 55.1551 114.24 56.0148 112.48 57.9997C110.719 59.9972 110.226 62.7786 111.175 65.2565C111.948 67.2667 113.189 69.0999 114.76 70.5664L121.181 76.559C121.751 77.09 122.181 77.7348 122.46 78.468L123.853 82.0965C124.132 82.8297 124.233 83.5883 124.17 84.3721L123.372 93.1208C123.182 95.2574 123.486 97.4572 124.246 99.4674C125.196 101.945 127.425 103.69 130.059 104.006C132.706 104.322 135.29 103.172 136.797 100.984L148.094 84.7261C156.593 83.1584 166.978 80.4024 179.022 76.5464L185.254 118.697C185.507 120.429 186.52 121.933 188.015 122.844C188.914 123.387 189.94 123.665 190.953 123.665C191.574 123.665 192.194 123.564 192.789 123.362C195.905 122.275 198.223 119.721 198.957 116.51L210.888 65.1301C235.281 54.7885 235.42 43.9411 233.28 38.3531C231.139 32.7651 223.806 24.7623 198.717 33.2708L155.529 2.87803C152.831 0.981639 149.411 0.602362 146.346 1.86662C144.801 2.51139 143.623 3.81358 143.13 5.43183C142.61 7.10065 142.876 8.8959 143.839 10.3624L167.32 45.9513L167.333 45.926ZM147.651 6.41396C147.727 6.1864 147.727 6.21567 148.107 6.05132C149.703 5.3939 151.488 5.58354 152.907 6.5823L197.045 37.6578C197.653 38.0876 198.438 38.1888 199.135 37.9359C215.447 32.2088 226.339 32.9547 229.024 39.9714C231.709 46.988 224.072 54.7885 208.064 61.3753C207.38 61.6534 206.873 62.2476 206.708 62.9682L194.525 115.473C194.132 117.154 192.929 118.494 191.295 119.051C190.915 119.19 190.586 119.063 190.383 118.937C190.054 118.735 189.826 118.406 189.775 118.027L183.151 73.2214C183.05 72.5513 182.67 71.9697 182.087 71.6158C181.72 71.3882 181.302 71.2744 180.884 71.2744C180.644 71.2744 180.403 71.3123 180.175 71.3882C166.788 75.7625 155.415 78.7967 146.359 80.4024C145.764 80.5035 145.232 80.8448 144.89 81.3505L133.048 98.3801C132.491 99.1766 131.579 99.5938 130.604 99.4674C129.628 99.3536 128.843 98.7341 128.489 97.8238C127.969 96.4584 127.754 94.9666 127.893 93.5127L128.691 84.764C128.818 83.3101 128.615 81.8183 128.096 80.4656L126.703 76.8371C126.184 75.4717 125.348 74.2328 124.271 73.234L117.85 67.2414C116.786 66.2427 115.938 64.991 115.418 63.6256C115.064 62.7154 115.241 61.7293 115.9 60.996C116.545 60.2627 117.508 59.9593 118.458 60.1869L138.646 65.0163C139.165 65.1428 139.723 65.0795 140.204 64.8393C140.267 64.814 140.318 64.7761 140.381 64.7382C148.234 59.9214 158.746 54.6241 171.626 48.9982C172.247 48.7327 172.703 48.2017 172.893 47.5569C173.083 46.9121 172.981 46.2168 172.614 45.6605L147.651 7.82128C147.436 7.50521 147.385 7.10065 147.499 6.73402L147.651 6.41396Z" fill="#006D77" stroke="#006D77" stroke-width="2.26" stroke-miterlimit="10"/>
<path d="M39.5065 211.859C38.3287 211.404 37.0115 211.985 36.5556 213.161C36.0996 214.337 36.6822 215.652 37.8601 216.107C40.7224 217.219 43.7494 218.117 46.8523 218.787C47.017 218.825 47.1816 218.838 47.3336 218.838C48.3848 218.838 49.322 218.104 49.5626 217.042C49.8286 215.816 49.0434 214.602 47.8148 214.337C44.9399 213.717 42.1409 212.883 39.5065 211.859Z" fill="#006D77" stroke="#006D77" stroke-width="2.26" stroke-miterlimit="10"/>
<path d="M20.9629 109.264C21.6088 109.264 22.2547 108.986 22.7107 108.455C26.4469 104.043 30.7023 100.2 35.3631 97.0516C36.4016 96.3436 36.6803 94.9276 35.971 93.8909C35.2618 92.8542 33.8433 92.5761 32.8048 93.2841C27.7894 96.6723 23.2172 100.794 19.2151 105.522C18.4045 106.483 18.5311 107.912 19.481 108.733C19.9116 109.087 20.4309 109.264 20.9502 109.264H20.9629Z" fill="#006D77" stroke="#006D77" stroke-width="2.26" stroke-miterlimit="10"/>
<path d="M5.16659 175.873C5.33123 175.873 5.65132 175.84 5.82863 175.802C7.05715 175.512 7.81706 174.298 7.53843 173.072C6.30991 167.787 5.67666 162.237 5.67666 156.598V156.055C5.67666 154.803 4.67611 153.766 3.42227 153.766H3.40959C2.15574 153.766 1.14255 154.778 1.12988 156.029V156.611C1.12988 162.604 1.78847 168.495 3.10564 174.121C3.34628 175.17 4.28349 175.878 5.32203 175.878L5.16659 175.873Z" fill="#006D77" stroke="#006D77" stroke-width="2.26" stroke-miterlimit="10"/>
<path d="M49.9649 89.6941C50.2056 89.6941 50.4336 89.6562 50.6742 89.5803C55.7149 87.9368 61.3889 86.7736 67.5568 86.1036C68.8106 85.9645 69.7099 84.852 69.5832 83.6004C69.4439 82.3487 68.3294 81.4511 67.0755 81.5775C60.6037 82.2729 54.6131 83.5119 49.2684 85.2565C48.0779 85.6485 47.4192 86.9254 47.8119 88.1264C48.1285 89.0872 49.0151 89.6941 49.9776 89.6941H49.9649Z" fill="#006D77" stroke="#006D77" stroke-width="2.26" stroke-miterlimit="10"/>
<path d="M13.5818 188.99C12.9739 187.89 11.5808 187.485 10.4789 188.092C9.37703 188.699 8.97172 190.077 9.57965 191.19C12.6319 196.715 16.4442 201.582 20.9149 205.653C21.3456 206.057 21.9028 206.247 22.4474 206.247C23.068 206.247 23.6759 205.994 24.1319 205.501C24.9805 204.578 24.9171 203.137 23.9926 202.29C19.8891 198.548 16.3935 194.072 13.5692 188.99H13.5818Z" fill="#006D77" stroke="#006D77" stroke-width="2.26" stroke-miterlimit="10"/>
<path d="M4.96849 140.696C5.14581 140.734 5.31046 140.759 5.48777 140.759C6.52631 140.759 7.46353 140.051 7.70416 138.989C9.00867 133.35 10.9337 127.901 13.4161 122.806C13.9607 121.681 13.4921 120.316 12.3649 119.76C11.2251 119.216 9.86989 119.684 9.31262 120.809C6.67828 126.207 4.63919 131.985 3.2587 137.965C2.98006 139.191 3.73998 140.405 4.96849 140.696Z" fill="#006D77" stroke="#006D77" stroke-width="2.26" stroke-miterlimit="10"/>
<path d="M89.6945 85.7494C89.6945 85.7494 89.7958 85.7494 89.8338 85.7494C91.0243 85.7494 92.0375 84.8264 92.1135 83.6128C92.1895 82.3611 91.2396 81.2739 89.9858 81.198C88.4153 81.0969 86.7815 81.021 85.0971 80.9705C85.0717 80.9705 85.0464 80.9705 85.0211 80.9705C83.7926 80.9705 82.7793 81.9439 82.7413 83.1703C82.7033 84.4219 83.6912 85.4839 84.9451 85.5218C86.5789 85.5724 88.162 85.6482 89.6818 85.7494H89.6945Z" fill="#006D77" stroke="#006D77" stroke-width="2.26" stroke-miterlimit="10"/>
<path d="M99.105 86.6346C104.437 87.3046 107.806 88 107.831 88.0126C107.996 88.0506 108.148 88.0632 108.313 88.0632C109.364 88.0632 110.314 87.3299 110.542 86.2553C110.808 85.029 110.022 83.8153 108.781 83.5624C108.642 83.5371 105.21 82.8165 99.6749 82.1212C98.4464 81.9695 97.2812 82.8545 97.1293 84.0934C96.9773 85.345 97.8638 86.4829 99.105 86.6346Z" fill="#006D77" stroke="#006D77" stroke-width="2.26" stroke-miterlimit="10"/>
<path d="M147.376 151.796C147.427 151.682 147.465 151.568 147.515 151.454C147.693 150.999 147.883 150.544 148.06 150.089C148.085 150.013 148.123 149.925 148.149 149.849C148.313 149.432 148.478 149.014 148.63 148.597C148.655 148.534 148.681 148.471 148.706 148.395C148.871 147.952 149.035 147.497 149.2 147.055C149.238 146.954 149.263 146.865 149.301 146.764C149.466 146.309 149.618 145.866 149.77 145.411C149.782 145.361 149.795 145.323 149.82 145.272C149.96 144.855 150.086 144.438 150.213 144.021C150.238 143.945 150.264 143.856 150.289 143.78C150.416 143.35 150.542 142.921 150.656 142.491C150.682 142.402 150.707 142.314 150.72 142.238C150.834 141.808 150.935 141.378 151.036 140.961C151.036 140.961 151.036 140.936 151.036 140.923C151.125 140.493 151.214 140.076 151.277 139.659C151.29 139.57 151.302 139.482 151.315 139.393C151.378 138.989 151.429 138.584 151.48 138.192C151.48 138.129 151.48 138.066 151.492 137.99C151.53 137.623 151.556 137.257 151.556 136.903C151.556 136.852 151.556 136.789 151.556 136.738C151.556 136.359 151.556 135.98 151.53 135.613C151.53 135.537 151.53 135.449 151.518 135.373C151.492 135.006 151.454 134.64 151.391 134.286C151.391 134.248 151.378 134.222 151.366 134.185C151.302 133.856 151.226 133.527 151.138 133.211C151.125 133.148 151.1 133.085 151.087 133.021C150.986 132.693 150.859 132.364 150.72 132.061C150.694 131.997 150.656 131.934 150.631 131.871C150.479 131.568 150.327 131.264 150.137 130.973C150.137 130.961 150.124 130.948 150.112 130.923C149.301 129.671 148.123 128.597 146.477 127.737C144.754 126.827 143.171 125.866 141.715 124.854C140.385 123.919 139.156 122.945 138.004 121.896C137.079 121.049 135.636 121.099 134.787 122.035C134.686 122.136 134.61 122.25 134.534 122.376C133.964 123.287 134.103 124.5 134.926 125.259C137.624 127.724 140.702 129.861 144.349 131.782C149.175 134.324 146.819 140.898 142.576 151.429C139.194 159.811 135.37 169.318 136.94 177.7C138.561 186.398 134.888 204.25 128.454 211.911C126.631 214.086 124.807 215.186 123.021 215.186H122.983C120.589 215.16 118.55 214.25 116.739 212.404C111.66 207.196 110.001 196.411 110.153 188.067C110.28 180.848 107.81 174.489 103.2 170.14C98.6787 165.892 92.3842 163.831 85.469 164.362C81.0869 164.691 76.9581 163.288 73.5385 160.266C68.2698 155.614 64.9895 147.56 64.5589 138.192C63.9509 124.968 88.42 118.394 95.9431 116.7C97.1716 116.422 97.9441 115.208 97.6655 113.982C97.3869 112.755 96.171 111.984 94.9425 112.262C84.1898 114.69 59.2522 122.098 60.0121 138.407C60.4934 149.002 64.3309 158.218 70.5242 163.68C71.6134 164.641 72.7658 165.475 73.9564 166.183C75.1469 166.891 76.4007 167.46 77.6799 167.902C80.2509 168.787 82.9867 169.129 85.8237 168.914C91.4596 168.484 96.513 170.102 100.072 173.452C100.984 174.312 101.794 175.286 102.504 176.348C103.2 177.41 103.783 178.56 104.251 179.799C105.189 182.264 105.645 185.033 105.594 187.991C105.518 192.492 105.834 207.777 113.472 215.59C116.131 218.321 119.323 219.724 122.945 219.75H123.021C126.213 219.75 129.214 218.106 131.937 214.844C133.812 212.607 135.458 209.737 136.839 206.525C137.535 204.92 138.156 203.238 138.713 201.506C139.27 199.774 139.764 197.992 140.17 196.209C140.588 194.426 140.93 192.631 141.196 190.874C141.461 189.117 141.651 187.385 141.753 185.716C141.968 182.391 141.867 179.344 141.398 176.866C140.068 169.786 143.64 160.936 146.781 153.123C146.958 152.693 147.135 152.251 147.313 151.821L147.376 151.796Z" fill="#006D77" stroke="#006D77" stroke-width="2.26" stroke-miterlimit="10"/>
</svg>
