<svg width="290" height="240" viewBox="0 0 290 240" fill="none" xmlns="http://www.w3.org/2000/svg">
<path d="M105.056 25.7136C92.0178 34.0226 81.0813 49.7426 74.0587 69.8257C58.9564 75.1626 46.346 82.7381 37.5112 91.7805C36.3407 92.982 37.1462 95.0308 38.82 95.132H38.8704C39.4367 95.1699 39.9905 94.9549 40.3806 94.5502C48.1709 86.5574 59.2081 79.7661 72.4478 74.7453C70.5097 81.0434 68.9365 87.7083 67.7913 94.6767C67.5899 95.8655 68.4834 96.9784 69.679 97.0543H69.7168C70.7614 97.1175 71.6801 96.3713 71.8437 95.3343C73.1274 87.4553 74.9523 79.9937 77.2553 73.038C91.225 68.384 107.334 65.6522 124.5 65.4625V98.5213C124.5 99.6089 125.344 100.507 126.426 100.57H126.464C127.647 100.646 128.641 99.7101 128.641 98.5213V65.4625C130.252 65.4878 131.85 65.5258 133.436 65.589C134.418 65.627 135.286 64.9567 135.487 63.9955V63.9576C135.764 62.7055 134.845 61.4915 133.562 61.4409C131.926 61.3776 130.29 61.3397 128.628 61.3144V23.4119C132.567 23.6902 136.419 24.664 140.119 26.2827C142.51 27.3198 145.027 25.1445 144.322 22.6278L144.297 22.5393C143.97 21.3758 143.001 20.5032 141.818 20.3261C136.846 19.5799 131.762 19.1626 126.577 19.1626C126.539 19.1626 126.489 19.1626 126.451 19.1626C126.426 19.1626 126.401 19.1626 126.376 19.1626C126.275 19.1626 126.187 19.1626 126.086 19.1626C80.2003 19.3776 41.3497 49.9955 28.4372 91.945C28.0471 93.2096 28.9658 94.4996 30.2747 94.5881C30.2872 94.5881 30.2998 94.5881 30.3124 94.5881C31.2563 94.6514 32.1121 94.0443 32.389 93.1338C42.7592 59.4806 70.5097 33.4661 105.056 25.701V25.7136ZM78.9544 68.2069C88.7708 42.0533 105.459 24.4743 124.5 23.3993V61.3144C108.102 61.4914 92.6219 63.9576 78.9544 68.2069Z" fill="#006D77" stroke="#006D77" stroke-width="2.26" stroke-miterlimit="10"/>
<path d="M195.439 156.366L268.426 146.154C268.464 145.585 268.389 141.69 268.426 141.121C267.344 141.057 266.488 140.16 266.488 139.059V134.317C266.488 131.977 264.6 130.08 262.272 130.08H229.613C228.468 130.08 227.549 129.144 227.549 128.006C227.549 126.868 228.481 125.932 229.613 125.932H259.894V116.864C259.894 116.599 259.68 116.384 259.415 116.384H238.121V120.747C238.121 121.898 237.19 122.821 236.057 122.821C234.924 122.821 233.993 121.885 233.993 120.747V112.223C233.993 111.957 233.779 111.742 233.515 111.742H215.115C214.952 111.742 214.838 111.818 214.763 111.894C214.7 111.957 214.624 112.084 214.624 112.248L214.964 121.758C215.002 122.871 214.159 123.807 213.064 123.896C213.039 124.579 213.001 125.262 212.976 125.945H218.538C221.433 125.945 223.786 128.31 223.786 131.218V139.325C223.786 140.476 222.855 141.399 221.722 141.399C220.59 141.399 219.658 140.463 219.658 139.325V131.218C219.658 130.599 219.155 130.105 218.551 130.105H200.038C199.421 130.105 198.931 130.611 198.931 131.218V144.08H212.586C213.731 144.08 214.65 145.016 214.65 146.154C214.65 147.292 213.718 148.228 212.586 148.228H188.875C189.441 150.188 190.008 152.161 190.574 154.122C190.876 153.818 193.119 163.843 193.119 158.692L195.439 156.366Z" fill="#E8FDF8"/>
<path d="M96.0351 113.677H21.7822C18.3277 113.677 15.5273 116.491 15.5273 119.962V159.307C15.5273 162.778 18.3277 165.592 21.7822 165.592H96.0351C99.4896 165.592 102.29 162.778 102.29 159.307V119.962C102.29 116.491 99.4896 113.677 96.0351 113.677Z" fill="#E8FDF8"/>
<path d="M21.7817 169.464H96.022C101.585 169.464 106.115 164.911 106.115 159.321V119.977C106.115 114.387 101.585 109.834 96.022 109.834H21.7817C18.4215 109.834 15.4388 111.504 13.6013 114.059C12.3931 115.728 11.6758 117.777 11.6758 119.99V159.334C11.6758 161.547 12.3931 163.596 13.6013 165.265C15.4388 167.82 18.4089 169.489 21.7817 169.489V169.464ZM15.5269 119.977C15.5269 116.512 18.3334 113.692 21.7817 113.692H96.022C99.4704 113.692 102.277 116.512 102.277 119.977V159.321C102.277 162.787 99.4704 165.607 96.022 165.607H21.7817C18.3334 165.607 15.5269 162.787 15.5269 159.321V119.977Z" fill="#006D77" stroke="#006D77" stroke-width="2.26" stroke-miterlimit="10"/>
<path d="M58.5394 190.425H115.513C116.582 190.425 117.451 189.553 117.451 188.478V132.25C117.451 130.91 118.533 129.809 119.88 129.809H149.996C150.877 129.809 151.683 130.29 152.111 131.049L167.2 158.1L130.414 158.075C128.992 158.075 127.846 156.911 127.846 155.482V134.982C127.846 134.071 127.318 133.199 126.449 132.92C125.027 132.465 123.706 133.527 123.706 134.893V159.63C123.706 161.06 124.864 162.223 126.273 162.223L167.704 162.248C168.824 162.248 169.843 162.855 170.397 163.829C170.661 164.297 170.787 164.816 170.787 165.347V187.845C170.787 189.186 169.717 190.274 168.383 190.299L161.373 190.425C160.153 190.451 159.108 189.578 158.919 188.364C158.529 185.797 157.623 182.698 155.66 179.663C150.802 172.176 142.936 170.304 140.633 169.912C139.5 169.723 138.443 170.481 138.242 171.607C138.053 172.733 138.808 173.808 139.928 174.01C141.803 174.339 148.247 175.869 152.186 181.939C154.854 186.05 155.106 190.324 155.03 192.499C154.98 193.688 155.949 194.675 157.132 194.662L172.511 194.397C173.845 194.371 174.915 193.284 174.915 191.943V164.082C174.915 163.677 174.814 163.285 174.613 162.931L154.514 126.901C154.087 126.129 153.281 125.661 152.4 125.661H115.739C114.405 125.661 113.31 126.749 113.31 128.102V184.33C113.31 185.405 112.442 186.277 111.372 186.277H58.3002C57.0669 180.966 52.3223 176.995 46.6589 176.995C40.9955 176.995 36.2509 180.966 35.0176 186.277H17.7884L17.587 186.315C16.6809 186.467 15.8754 187.137 15.737 188.048C15.5482 189.325 16.5424 190.425 17.7758 190.425H34.7784C35.3322 195.13 38.5918 199.013 42.9588 200.442C44.1293 200.821 45.3626 201.036 46.6589 201.036C47.9552 201.036 49.1885 200.821 50.359 200.442C54.726 199.013 57.9856 195.13 58.5394 190.425ZM39.0322 190.817C37.7611 185.088 42.7575 180.055 48.4586 181.345C51.3406 181.99 53.6563 184.317 54.2981 187.213C55.5692 192.942 50.5729 197.963 44.8718 196.686C41.9898 196.041 39.6741 193.714 39.0322 190.817Z" fill="#006D77" stroke="#006D77" stroke-width="2.26" stroke-miterlimit="10"/>
<path d="M270.359 146.26L264.96 147.006L188.328 157.692C187.862 157.755 187.472 157.97 187.158 158.274C186.717 158.717 186.466 159.362 186.554 160.032C186.717 161.17 187.749 161.967 188.882 161.802L270.912 150.37C271.957 150.231 272.951 150.635 273.593 151.47C274.235 152.305 274.361 153.38 273.958 154.353L262.392 181.772C261.952 182.821 262.443 184.048 263.487 184.491C263.751 184.605 264.028 184.655 264.293 184.655C265.098 184.655 265.866 184.175 266.193 183.391L277.759 155.972C278.753 153.607 278.426 150.977 276.865 148.941C275.305 146.904 272.876 145.893 270.334 146.247L270.359 146.26Z" fill="#006D77" stroke="#006D77" stroke-width="2.26" stroke-miterlimit="10"/>
<path d="M212.547 148.217C213.692 148.217 214.61 147.281 214.61 146.143C214.61 145.005 213.679 144.069 212.547 144.069H198.892V131.207C198.892 130.588 199.395 130.094 199.999 130.094H218.512C219.129 130.094 219.619 130.6 219.619 131.207V139.314C219.619 140.465 220.551 141.388 221.683 141.388C222.816 141.388 223.747 140.452 223.747 139.314V131.207C223.747 128.299 221.394 125.934 218.499 125.934H199.986C197.092 125.934 194.738 128.299 194.738 131.207V144.069H188.219C187.074 144.069 186.155 145.005 186.155 146.143C186.155 147.281 187.087 148.217 188.219 148.217H212.534H212.547Z" fill="#006D77" stroke="#006D77" stroke-width="2.26" stroke-miterlimit="10"/>
<path d="M214.938 121.734L214.598 112.224C214.598 112.059 214.674 111.933 214.737 111.87C214.8 111.806 214.913 111.718 215.089 111.718H233.489C233.753 111.718 233.967 111.933 233.967 112.198V120.722C233.967 121.873 234.898 122.796 236.031 122.796C237.164 122.796 238.095 121.861 238.095 120.722V116.359H259.389C259.653 116.359 259.867 116.574 259.867 116.84V125.908H229.587C228.442 125.908 227.523 126.843 227.523 127.982C227.523 129.12 228.455 130.056 229.587 130.056H262.246C264.574 130.056 266.462 131.953 266.462 134.292V139.035C266.462 140.135 267.318 141.033 268.4 141.096C268.438 141.096 268.476 141.096 268.526 141.096C269.671 141.096 270.59 140.16 270.59 139.022V134.28C270.59 130.258 267.758 126.881 263.983 126.072V116.814C263.983 114.26 261.906 112.173 259.364 112.173H238.07C238.07 109.606 235.993 107.532 233.451 107.532H215.051C213.793 107.532 212.61 108.038 211.729 108.948C210.848 109.859 210.395 111.06 210.445 112.338L210.785 121.848C210.823 122.973 211.741 123.846 212.849 123.846C212.874 123.846 212.899 123.846 212.924 123.846C212.95 123.846 212.975 123.846 213.013 123.846C214.107 123.758 214.963 122.822 214.913 121.709L214.938 121.734Z" fill="#006D77" stroke="#006D77" stroke-width="2.26" stroke-miterlimit="10"/>
<path d="M265.74 188.094C263.274 189.725 260.996 190.37 258.982 190.029C257.056 189.688 255.899 188.549 254.565 187.234C253.042 185.729 251.318 184.022 248.448 183.946C248.373 183.946 248.31 183.946 248.234 183.946C245.201 183.946 243.351 185.881 241.866 187.436C240.431 188.929 239.475 189.852 237.965 189.915C236.492 189.978 235.536 189.169 234 187.74C232.364 186.21 230.313 184.313 226.978 184.262C226.927 184.262 226.89 184.262 226.852 184.262C223.529 184.262 221.377 186.134 219.641 187.639C217.992 189.068 216.998 189.877 215.538 189.726C214.279 189.599 213.537 188.866 212.341 187.576C211.12 186.26 209.585 184.629 206.992 183.984C202.638 182.896 197.742 185.097 192.041 190.712C191.223 191.509 191.21 192.824 192.003 193.646C192.406 194.063 192.947 194.266 193.476 194.266C194.004 194.266 194.52 194.063 194.923 193.671C198.044 190.611 202.487 187.146 205.986 188.006C207.395 188.36 208.289 189.308 209.321 190.408C210.629 191.8 212.253 193.545 215.097 193.836C218.407 194.177 220.584 192.28 222.334 190.763C224.02 189.296 225.14 188.398 226.839 188.398C226.864 188.398 226.89 188.398 226.915 188.398C228.589 188.423 229.633 189.308 231.194 190.763C232.83 192.28 234.843 194.19 238.141 194.025C241.4 193.886 243.313 191.888 244.849 190.269C246.221 188.828 247.064 188.006 248.335 188.056C249.518 188.094 250.336 188.84 251.67 190.168C253.193 191.66 255.081 193.532 258.277 194.089C261.361 194.632 264.633 193.772 268.018 191.534C268.975 190.902 269.239 189.612 268.61 188.663C267.98 187.702 266.709 187.436 265.753 188.069L265.74 188.094Z" fill="#006D77" stroke="#006D77" stroke-width="2.26" stroke-miterlimit="10"/>
<path d="M156.013 84.3754L157.913 86.7656C158.278 87.2335 158.53 87.7521 158.656 88.3338L160.141 95.0872C160.506 96.7566 161.274 98.3627 162.331 99.7033C163.665 101.385 165.804 102.182 167.893 101.777C169.995 101.385 171.681 99.855 172.311 97.8063L176.854 82.9716C182.769 79.7846 189.804 75.2823 197.796 69.5786L212.382 99.5642C212.999 100.841 214.144 101.765 215.516 102.094C215.881 102.182 216.246 102.22 216.611 102.22C217.076 102.22 217.542 102.144 217.995 102.005C218.473 101.853 218.926 101.613 219.329 101.309C221.444 99.7286 222.576 97.1992 222.362 94.5687L219.052 53.2389C234.834 39.593 232.279 31.3473 229.347 27.6544C226.415 23.9489 219.002 19.5984 202.226 32.0049L162.859 19.5225C160.342 18.7258 157.649 19.2696 155.635 20.9769C154.603 21.8622 154.012 23.1522 154.037 24.5307C154.05 25.9471 154.691 27.275 155.786 28.173L181.611 49.1793C174.312 55.7051 168.359 61.5985 163.929 66.6825L148.525 67.808C146.398 67.9598 144.535 69.2877 143.679 71.248C142.824 73.2082 143.113 75.4846 144.447 77.154C145.517 78.4946 146.889 79.5949 148.437 80.3284L154.654 83.3004C155.182 83.5533 155.648 83.9201 156.013 84.388V84.3754ZM148.814 71.6653L165.011 70.4765C165.464 70.4512 165.892 70.2489 166.22 69.9327C166.257 69.8948 166.295 69.8568 166.333 69.8062C171.04 64.3175 177.609 57.8424 185.878 50.5578C186.306 50.1784 186.545 49.6346 186.532 49.0655C186.532 48.4964 186.255 47.9526 185.815 47.5984L158.215 25.1504C158.014 24.986 157.901 24.7457 157.888 24.4801C157.888 24.2524 157.964 24.0627 158.127 23.9236C159.121 23.0763 160.455 22.8107 161.689 23.2028L201.974 36.0013C202.578 36.191 203.233 36.0772 203.724 35.6852C214.459 27.5533 222.677 25.5045 226.289 30.07C229.901 34.6228 226.075 42.2236 215.768 50.9246C215.289 51.3293 215.038 51.9363 215.088 52.5686L218.486 94.8848C218.587 96.1875 218.033 97.4269 216.988 98.211C216.825 98.3374 216.623 98.3754 216.397 98.3248C216.145 98.2616 215.931 98.0971 215.818 97.8568L200.225 65.8098C199.973 65.2913 199.507 64.9246 198.966 64.7855C198.815 64.7475 198.652 64.7222 198.501 64.7222C198.299 64.7222 198.111 64.7475 197.909 64.8107C197.708 64.874 197.532 64.9625 197.368 65.089C188.432 71.5641 180.68 76.547 174.324 79.911C173.871 80.1513 173.532 80.5687 173.381 81.0619L168.598 96.6681C168.384 97.351 167.843 97.8316 167.151 97.9707C166.446 98.1098 165.766 97.8442 165.326 97.2877C164.621 96.4025 164.13 95.3528 163.891 94.2525L162.406 87.4991C162.154 86.3609 161.638 85.2733 160.909 84.3501L159.008 81.9598C158.278 81.0492 157.347 80.2904 156.29 79.7972L150.073 76.8252C149.066 76.3446 148.147 75.6238 147.455 74.7385C147.014 74.182 146.914 73.4485 147.203 72.8035C147.493 72.1459 148.084 71.7286 148.789 71.678L148.814 71.6653Z" fill="#006D77" stroke="#006D77" stroke-width="2.26" stroke-miterlimit="10"/>
<path d="M201.941 205.169L201.903 205.182C201.312 205.118 200.745 205.333 200.317 205.738C187.317 218.448 170.843 227.592 152.493 231.588C162.096 225.543 170.553 215.489 177.186 202.627C177.664 201.704 177.173 200.578 176.179 200.287H176.154H174.845C174.241 200.287 173.687 200.629 173.41 201.173C163.506 220.307 149.397 232.663 133.666 233.751V200.856C133.83 200.856 133.993 200.882 134.157 200.882C135.453 200.882 136.686 200.667 137.857 200.287C142.74 198.694 146.251 194.027 146.125 188.564C145.974 182.278 140.777 177.017 134.509 176.827C127.751 176.625 122.188 182.101 122.188 188.855C122.188 193.837 125.221 198.112 129.525 199.933V233.763C113.681 232.865 99.4719 220.547 89.4792 201.375C89.1268 200.705 88.4472 200.287 87.7047 200.287C86.1818 200.287 85.2254 201.919 85.9301 203.272C92.4493 215.729 100.718 225.48 110.081 231.449C89.7686 226.884 71.7969 216.007 58.3307 200.983C57.9406 200.54 57.3868 200.3 56.8079 200.3C55.0082 200.3 54.0517 202.437 55.2473 203.778C73.9616 224.67 101.02 237.861 131.099 238C131.199 238 131.287 238 131.388 238C131.413 238 131.438 238 131.464 238C131.501 238 131.552 238 131.589 238C159.415 238 184.674 226.808 203.187 208.685C204.433 207.471 203.678 205.333 201.941 205.169ZM126.53 190.663C125.259 184.934 130.255 179.913 135.956 181.191C138.838 181.836 141.154 184.163 141.796 187.059C143.067 192.788 138.071 197.809 132.37 196.531C129.488 195.886 127.172 193.559 126.53 190.663Z" fill="#006D77" stroke="#006D77" stroke-width="2.26" stroke-miterlimit="10"/>
</svg>
