<svg width="236" height="248" viewBox="0 0 236 248" fill="none" xmlns="http://www.w3.org/2000/svg">
<path d="M74.1694 182.714L85.1724 196.975C89.1383 202.122 95.4002 205.195 101.901 205.195H197.051C203.552 205.195 209.799 202.122 213.779 196.975L224.768 182.714C227.749 178.865 229.315 174.061 229.166 169.183L228.689 152.728C222.039 150.998 214.704 149.327 206.727 147.85C206.847 148.148 206.921 148.477 206.921 148.82C206.921 160.172 202.508 170.839 194.487 178.865L181.889 191.471C181.397 191.963 180.77 192.202 180.129 192.202C179.488 192.202 178.862 191.963 178.37 191.471C177.401 190.501 177.401 188.92 178.37 187.95L190.968 175.344C198.05 168.258 201.942 158.845 201.942 148.82C201.942 148.163 202.21 147.567 202.627 147.119C188.21 144.643 171.87 142.867 153.904 142.584C132.315 142.256 112.904 144.165 96.2053 146.985C96.7122 147.447 97.0253 148.089 97.0253 148.82C97.0253 158.83 100.917 168.258 107.998 175.344L120.597 187.95C121.566 188.92 121.566 190.501 120.597 191.471C120.105 191.963 119.479 192.202 118.837 192.202C118.196 192.202 117.57 191.963 117.078 191.471L104.48 178.865C96.4587 170.839 92.0456 160.172 92.0456 148.82C92.0456 148.402 92.1649 147.999 92.3438 147.656C84.2928 149.118 76.9127 150.774 70.2781 152.475L69.7861 169.183C69.637 174.061 71.2025 178.865 74.1843 182.714H74.1694ZM146.971 148.82C146.971 147.447 148.089 146.328 149.461 146.328C150.833 146.328 151.951 147.447 151.951 148.82V187.234C151.951 188.606 150.833 189.725 149.461 189.725C148.089 189.725 146.971 188.606 146.971 187.234V148.82Z" fill="#E8FDF8"/>
<path d="M232.684 178.373C232.684 178.373 232.684 178.358 232.699 178.343C232.699 178.343 232.699 178.328 232.699 178.312C232.699 178.328 232.699 178.343 232.684 178.358V178.373Z" fill="#E8FDF8"/>
<path d="M149.46 38.1106C158.287 38.1106 165.458 30.9201 165.458 22.1035C165.458 13.287 158.287 6.09644 149.46 6.09644C140.634 6.09644 133.463 13.287 133.463 22.1035C133.463 30.9201 140.634 38.1106 149.46 38.1106Z" fill="#E8FDF8"/>
<path d="M81.2232 200.019C86.1283 206.389 93.8513 210.178 101.887 210.178H197.038C205.074 210.178 212.797 206.374 217.702 200.019L228.69 185.757C230.42 183.519 231.747 181.013 232.671 178.373C232.671 178.358 232.671 178.343 232.686 178.328C233.715 175.359 234.222 172.211 234.117 169.049L231.001 62.28C230.763 54.448 227.08 47.1978 220.893 42.3941L198.589 25.1041C194.041 21.5834 188.361 19.6292 182.591 19.6292C181.219 19.6292 180.101 20.748 180.101 22.1205C180.101 23.4929 181.219 24.6118 182.591 24.6118C187.258 24.6118 191.85 26.1782 195.532 29.0425L217.836 46.3325C222.846 50.2261 225.828 56.089 226.022 62.4291L227.632 117.462L228.661 152.743L229.138 169.198C229.287 174.076 227.721 178.88 224.739 182.729L213.751 196.99C209.771 202.137 203.524 205.21 197.023 205.21H101.872C95.372 205.21 89.1102 202.137 85.1443 196.99L74.1413 182.729C71.1744 178.88 69.6089 174.061 69.7431 169.198L70.2351 152.49L72.874 62.4291C73.0678 56.089 76.0497 50.2261 81.0592 46.3325L103.363 29.0425C107.046 26.1931 111.638 24.6118 116.305 24.6118C117.676 24.6118 118.794 23.4929 118.794 22.1205C118.794 21.4342 118.511 20.8226 118.064 20.3601C117.617 19.8977 116.99 19.6292 116.29 19.6292C110.52 19.6292 104.854 21.5685 100.292 25.1041L77.9879 42.3941C73.7537 45.6761 70.7271 50.1366 69.1318 55.1193C68.4013 57.4167 67.954 59.8185 67.8794 62.28L66.2245 118.909L64.7634 169.034C64.5845 175.061 66.5078 180.998 70.1904 185.757L81.1934 200.019H81.2232Z" fill="#006D77" stroke="#006D77" stroke-width="2.26" stroke-miterlimit="10"/>
<path d="M149.461 43.1094C158.004 43.1094 165.354 37.9776 168.62 30.6379C169.782 28.0272 170.438 25.148 170.438 22.1196C170.438 10.5432 161.031 1.12988 149.446 1.12988C139.353 1.12988 130.899 8.30548 128.901 17.8381C128.618 19.2255 128.454 20.6577 128.454 22.1345C128.454 33.711 137.862 43.1392 149.431 43.1392L149.461 43.1094ZM149.461 6.0976C158.287 6.0976 165.459 13.2881 165.459 22.1047C165.459 30.9213 158.287 38.1118 149.461 38.1118C140.635 38.1118 133.464 30.9213 133.464 22.1047C133.464 13.2881 140.635 6.0976 149.461 6.0976Z" fill="#006D77" stroke="#006D77" stroke-width="2.26" stroke-miterlimit="10"/>
<path d="M149.462 189.739C150.833 189.739 151.951 188.62 151.951 187.247V148.833C151.951 147.461 150.833 146.342 149.462 146.342C148.09 146.342 146.972 147.461 146.972 148.833V187.247C146.972 188.62 148.09 189.739 149.462 189.739Z" fill="#006D77" stroke="#006D77" stroke-width="2.26" stroke-miterlimit="10"/>
<path d="M104.449 178.865L117.047 191.471C117.539 191.963 118.165 192.202 118.807 192.202C119.448 192.202 120.074 191.963 120.566 191.471C121.535 190.501 121.535 188.92 120.566 187.95L107.968 175.344C100.886 168.258 96.9943 158.845 96.9943 148.82C96.9943 148.089 96.6663 147.433 96.1743 146.985C95.727 146.582 95.1456 146.329 94.5045 146.329C93.5503 146.329 92.7303 146.866 92.3128 147.656C92.1339 147.999 92.0146 148.402 92.0146 148.82C92.0146 160.173 96.4278 170.839 104.449 178.865Z" fill="#006D77" stroke="#006D77" stroke-width="2.26" stroke-miterlimit="10"/>
<path d="M190.954 175.344L178.356 187.95C177.387 188.92 177.387 190.501 178.356 191.471C178.848 191.963 179.474 192.202 180.115 192.202C180.756 192.202 181.382 191.963 181.874 191.471L194.473 178.865C202.494 170.839 206.907 160.173 206.907 148.82C206.907 148.477 206.832 148.149 206.713 147.85C206.34 146.955 205.446 146.329 204.417 146.329C203.701 146.329 203.06 146.642 202.613 147.119C202.196 147.567 201.927 148.164 201.927 148.82C201.927 158.83 198.036 168.258 190.954 175.344Z" fill="#006D77" stroke="#006D77" stroke-width="2.26" stroke-miterlimit="10"/>
<path d="M131.165 106.811C136.189 106.423 141.288 106.184 146.328 106.124C167.722 105.841 189.117 108.481 209.856 113.971C210.064 114.031 210.288 114.061 210.497 114.061C211.6 114.061 212.614 113.315 212.897 112.211C212.897 112.196 212.897 112.166 212.897 112.151C213.21 110.838 212.42 109.511 211.123 109.168C208.156 108.377 205.174 107.676 202.192 107.004C183.824 102.887 165.039 100.903 146.253 101.157C141.109 101.231 135.906 101.47 130.762 101.858C129.391 101.962 128.362 103.171 128.466 104.543C128.571 105.915 129.793 106.945 131.135 106.84L131.165 106.811Z" fill="#006D77" stroke="#006D77" stroke-width="2.26" stroke-miterlimit="10"/>
<path d="M113.799 103.783C105.077 105.095 96.3257 106.9 87.7976 109.153C86.4707 109.511 85.6805 110.869 86.0234 112.196C86.3216 113.315 87.3205 114.046 88.4238 114.046C88.6325 114.046 88.8412 114.016 89.0649 113.957C97.414 111.749 105.987 109.974 114.53 108.691C115.887 108.482 116.826 107.214 116.617 105.856C116.408 104.499 115.156 103.559 113.784 103.768L113.799 103.783Z" fill="#006D77" stroke="#006D77" stroke-width="2.26" stroke-miterlimit="10"/>
<path d="M138.563 78.331C138.563 76.9585 137.445 75.8397 136.073 75.8397H95.52C92.9854 75.8397 90.9279 73.781 90.9279 71.2449V65.2926C90.9279 63.9201 89.8097 62.8013 88.4381 62.8013C87.0664 62.8013 85.9482 63.9201 85.9482 65.2926V71.2449C85.9482 76.5259 90.2421 80.8372 95.5349 80.8372H136.088C137.46 80.8372 138.578 79.7184 138.578 78.3459L138.563 78.331Z" fill="#006D77" stroke="#006D77" stroke-width="2.26" stroke-miterlimit="10"/>
<path d="M212.99 65.2767C212.99 63.9043 211.871 62.7854 210.5 62.7854C209.128 62.7854 208.01 63.9043 208.01 65.2767V71.229C208.01 73.7651 205.953 75.8238 203.418 75.8238H162.865C161.493 75.8238 160.375 76.9427 160.375 78.3151C160.375 79.6876 161.493 80.8065 162.865 80.8065H203.418C208.696 80.8065 213.005 76.51 213.005 71.2141V65.2618L212.99 65.2767Z" fill="#006D77" stroke="#006D77" stroke-width="2.26" stroke-miterlimit="10"/>
<path d="M92.7447 246.129C93.5945 246.129 94.4294 245.681 94.8916 244.89L106.864 224.453C107.564 223.259 107.162 221.738 105.969 221.036C104.791 220.335 103.256 220.738 102.555 221.931L90.5829 242.369C89.8821 243.563 90.2847 245.084 91.4774 245.786C91.88 246.024 92.3123 246.129 92.7298 246.129H92.7447Z" fill="#006D77" stroke="#006D77" stroke-width="2.26" stroke-miterlimit="10"/>
<path d="M206.174 246.13C206.606 246.13 207.039 246.025 207.426 245.787C208.619 245.086 209.007 243.564 208.321 242.37L196.349 221.933C195.648 220.739 194.127 220.351 192.935 221.038C191.742 221.739 191.354 223.26 192.04 224.454L204.012 244.892C204.474 245.682 205.309 246.13 206.159 246.13H206.174Z" fill="#006D77" stroke="#006D77" stroke-width="2.26" stroke-miterlimit="10"/>
<path d="M182.946 233.421C182.946 232.048 181.828 230.929 180.456 230.929H118.463C117.092 230.929 115.974 232.048 115.974 233.421C115.974 234.793 117.092 235.912 118.463 235.912H180.456C181.828 235.912 182.946 234.793 182.946 233.421Z" fill="#006D77" stroke="#006D77" stroke-width="2.26" stroke-miterlimit="10"/>
<path d="M34.871 202.002L59.7396 206.447C59.8887 206.477 60.0378 206.492 60.1869 206.492C61.3647 206.492 62.4233 205.642 62.632 204.433C62.8705 203.076 61.976 201.778 60.6193 201.539L35.7507 197.093C32.4706 196.512 30.0852 193.662 30.0852 190.321V178.192C30.0852 176.82 28.967 175.701 27.5953 175.701C26.2237 175.701 25.1055 176.82 25.1055 178.192V190.321C25.1055 196.079 29.2204 200.987 34.871 202.002Z" fill="#006D77" stroke="#006D77" stroke-width="2.26" stroke-miterlimit="10"/>
<path d="M27.5797 160.441C28.9513 160.441 30.0695 159.322 30.0695 157.95V152.4C30.0695 151.028 28.9513 149.909 27.5797 149.909C26.208 149.909 25.0898 151.028 25.0898 152.4V157.95C25.0898 159.322 26.208 160.441 27.5797 160.441Z" fill="#006D77" stroke="#006D77" stroke-width="2.26" stroke-miterlimit="10"/>
<path d="M27.5797 136.094C28.9513 136.094 30.0695 134.975 30.0695 133.603V125.159C30.0695 123.787 28.9513 122.668 27.5797 122.668C26.208 122.668 25.0898 123.787 25.0898 125.159V133.603C25.0898 134.975 26.208 136.094 27.5797 136.094Z" fill="#006D77" stroke="#006D77" stroke-width="2.26" stroke-miterlimit="10"/>
<path d="M27.579 110.077C28.9506 110.077 30.0688 108.958 30.0688 107.586V89.0275C30.0688 86.8644 31.1125 84.8057 32.8419 83.5078L57.9491 64.8155C58.7691 64.2038 59.0971 63.2043 58.8884 62.2645C58.8138 61.9363 58.6796 61.6081 58.456 61.3247C57.636 60.2207 56.0705 59.9969 54.9672 60.8174L29.8601 79.5098C26.8633 81.7326 25.0742 85.298 25.0742 89.0275V107.586C25.0742 108.958 26.1924 110.077 27.5641 110.077H27.579Z" fill="#006D77" stroke="#006D77" stroke-width="2.26" stroke-miterlimit="10"/>
<path d="M9.70269 195.676H3.61972C2.24808 195.676 1.12988 196.795 1.12988 198.167C1.12988 199.54 2.24808 200.659 3.61972 200.659H9.70269C13.9816 200.659 17.4704 197.168 17.4704 192.886V92.6964C17.4704 88.4 13.9816 84.9241 9.70269 84.9241H3.61972C2.24808 84.9241 1.12988 86.0429 1.12988 87.4154C1.12988 88.7879 2.24808 89.9067 3.61972 89.9067H9.70269C11.2383 89.9067 12.4907 91.1598 12.4907 92.6964V192.886C12.4907 194.423 11.2383 195.676 9.70269 195.676Z" fill="#006D77" stroke="#006D77" stroke-width="2.26" stroke-miterlimit="10"/>
<path d="M72.6785 224.977C73.8861 224.977 74.9596 224.082 75.1385 222.844C75.3472 221.486 74.4079 220.218 73.0363 220.009L3.99166 209.79C2.63492 209.596 1.36764 210.536 1.15891 211.894C0.950179 213.251 1.88946 214.519 3.26111 214.728L72.3057 224.947C72.425 224.962 72.5592 224.977 72.6785 224.977Z" fill="#006D77" stroke="#006D77" stroke-width="2.26" stroke-miterlimit="10"/>
</svg>
