<svg width="265" height="200" viewBox="0 0 265 200" fill="none" xmlns="http://www.w3.org/2000/svg">
<path d="M207.045 9.83223V2.81445H203.481C205.631 4.3953 207.045 6.95125 207.045 9.83223Z" fill="#E8FDF8"/>
<path d="M204.483 35.6579C203.069 35.6579 201.921 34.5055 201.921 33.0872V9.83244C201.921 7.86746 200.331 6.28662 198.372 6.28662H149.68C147.722 6.28662 146.146 7.88224 146.146 9.83244V41.8335H167.923C170.721 41.8335 173.209 43.178 174.785 45.2464C175.904 46.709 176.581 48.541 176.581 50.5356V82.5366H234.917V71.5446C233.504 71.5446 232.355 70.3922 232.355 68.9739V50.5208C232.355 48.5558 230.765 46.975 228.821 46.975H188.949C187.83 46.975 186.888 46.251 186.534 45.2464C186.446 44.9804 186.387 44.6997 186.387 44.4042C186.387 42.9859 187.535 41.8335 188.949 41.8335H207.045V33.0872C207.045 34.5055 205.896 35.6579 204.483 35.6579Z" fill="#E8FDF8"/>
<path d="M161.86 82.5348H171.475V50.5337C171.475 48.5688 169.885 46.9879 167.927 46.9879H129.394C128.275 46.9879 127.333 46.264 126.979 45.2593C126.891 44.9934 126.832 44.7127 126.832 44.4172C126.832 42.9989 127.981 41.8465 129.394 41.8465H141.011V9.84541C141.011 6.96443 142.425 4.40848 144.575 2.82764H126.258C126.361 3.10835 126.42 3.40383 126.42 3.71409C126.42 5.13242 125.272 6.28482 123.858 6.28482H88.7709C86.8126 6.28482 85.2224 7.88043 85.2224 9.83064V41.8317H107.014C109.811 41.8317 112.3 43.1762 113.875 45.2446C114.994 46.7072 115.672 48.5392 115.672 50.5337V56.9606C115.672 58.3789 114.523 59.5313 113.11 59.5313C111.696 59.5313 110.548 58.3789 110.548 56.9606V50.5337C110.548 48.5688 108.957 46.9879 107.014 46.9879H58.3218C56.3635 46.9879 54.7881 48.5835 54.7881 50.5337V82.5348H63.755C65.1684 82.5348 66.3169 83.6872 66.3169 85.1055H79.2592C79.2592 83.6872 80.4077 82.5348 81.8212 82.5348H89.7574C91.1709 82.5348 92.3194 83.6872 92.3194 85.1055H102.862C102.862 83.6872 104.01 82.5348 105.424 82.5348H110.562V71.5132C110.562 70.0949 111.711 68.9425 113.124 68.9425C114.538 68.9425 115.686 70.0949 115.686 71.5132V82.5348H123.858C125.272 82.5348 126.42 83.6872 126.42 85.1055H136.786C136.786 83.6872 137.934 82.5348 139.348 82.5348H146.356C147.77 82.5348 148.918 83.6872 148.918 85.1055H159.284C159.284 83.6872 160.432 82.5348 161.846 82.5348H161.86Z" fill="#E8FDF8"/>
<path d="M63.7818 82.537H54.8149V50.5359C54.8149 48.5709 56.4051 46.9901 58.3487 46.9901H107.041C108.999 46.9901 110.574 48.5857 110.574 50.5359V56.9627C110.574 58.381 111.723 59.5334 113.136 59.5334C114.55 59.5334 115.698 58.381 115.698 56.9627V50.5359C115.698 48.5414 115.021 46.7241 113.902 45.2467C112.312 43.1783 109.838 41.8338 107.041 41.8338H85.2493V9.83277C85.2493 7.8678 86.8395 6.28695 88.7978 6.28695H123.885C125.298 6.28695 126.447 5.13456 126.447 3.71623C126.447 3.40597 126.388 3.11048 126.285 2.82977C125.917 1.85467 124.989 1.14551 123.885 1.14551H88.7978C84.0125 1.14551 80.1254 5.04591 80.1254 9.83277V41.8338H58.3487C53.5781 41.8338 49.691 45.7342 49.691 50.5359V82.537H11.6149C7.50695 82.537 3.88486 84.8565 2.13271 88.5796C0.395285 92.3175 0.940086 96.5873 3.57567 99.749L48.7928 154.074C49.2934 154.68 50.0296 154.99 50.7658 154.99C51.3401 154.99 51.9291 154.798 52.4002 154.399C53.4898 153.483 53.637 151.873 52.7241 150.779L7.50696 96.4396C6.13763 94.7996 5.8726 92.6721 6.77076 90.7367C7.66892 88.8012 9.47996 87.6489 11.6002 87.6489H63.7671C65.1806 87.6489 66.329 86.4965 66.329 85.0781C66.329 83.6598 65.1806 82.5074 63.7671 82.5074L63.7818 82.537Z" fill="#006D77" stroke="#006D77" stroke-width="2.26" stroke-miterlimit="10"/>
<path d="M89.7872 82.5376H81.8511C80.4361 82.5376 79.2891 83.6885 79.2891 85.1083C79.2891 86.5281 80.4361 87.679 81.8511 87.679H89.7872C91.2022 87.679 92.3492 86.5281 92.3492 85.1083C92.3492 83.6885 91.2022 82.5376 89.7872 82.5376Z" fill="#006D77" stroke="#006D77" stroke-width="2.26" stroke-miterlimit="10"/>
<path d="M146.37 82.5376H139.362C137.947 82.5376 136.8 83.6885 136.8 85.1083C136.8 86.5281 137.947 87.679 139.362 87.679H146.37C147.785 87.679 148.932 86.5281 148.932 85.1083C148.932 83.6885 147.785 82.5376 146.37 82.5376Z" fill="#006D77" stroke="#006D77" stroke-width="2.26" stroke-miterlimit="10"/>
<path d="M247.419 82.5361H176.597V50.535C176.597 48.5405 175.919 46.7233 174.8 45.2459C173.21 43.1775 170.737 41.833 167.939 41.833H146.162V9.83193C146.162 7.86695 147.753 6.28611 149.696 6.28611H198.388C200.346 6.28611 201.937 7.88172 201.937 9.83193V33.0866C201.937 34.505 203.085 35.6574 204.499 35.6574C205.912 35.6574 207.061 34.505 207.061 33.0866V9.83193C207.061 6.95095 205.647 4.395 203.497 2.81415C202.069 1.76518 200.302 1.12988 198.403 1.12988H149.711C147.797 1.12988 146.045 1.76518 144.616 2.81415C142.467 4.395 141.053 6.95095 141.053 9.83193V41.833H129.436C128.022 41.833 126.874 42.9854 126.874 44.4037C126.874 44.6992 126.933 44.9799 127.021 45.2459C127.375 46.2505 128.317 46.9745 129.436 46.9745H167.969C169.927 46.9745 171.517 48.5701 171.517 50.5203V82.5213H161.902C160.489 82.5213 159.34 83.6737 159.34 85.0921C159.34 86.5104 160.489 87.6628 161.902 87.6628H247.463C250.688 87.6628 253.691 89.1107 255.708 91.6518C257.726 94.193 258.447 97.4581 257.726 100.605L248.405 140.924C245.284 154.457 233.416 163.913 219.576 163.913H213.053C211.64 163.913 210.491 165.065 210.491 166.484C210.491 167.902 211.64 169.054 213.053 169.054H219.576C235.816 169.054 249.73 157.959 253.397 142.076L262.717 101.757C263.807 97.0592 262.717 92.2133 259.728 88.4311C256.739 84.6636 252.278 82.4918 247.478 82.4918L247.419 82.5361Z" fill="#006D77" stroke="#006D77" stroke-width="2.26" stroke-miterlimit="10"/>
<path d="M123.886 82.5372H115.714V71.5156C115.714 70.0972 114.566 68.9448 113.152 68.9448C111.739 68.9448 110.59 70.0972 110.59 71.5156V82.5372H105.452C104.038 82.5372 102.89 83.6895 102.89 85.1079C102.89 86.5262 104.038 87.6786 105.452 87.6786H123.886C125.299 87.6786 126.448 86.5262 126.448 85.1079C126.448 83.6895 125.299 82.5372 123.886 82.5372Z" fill="#006D77" stroke="#006D77" stroke-width="2.26" stroke-miterlimit="10"/>
<path d="M186.401 44.4034C186.401 44.6989 186.46 44.9796 186.549 45.2455C186.902 46.2502 187.844 46.9741 188.963 46.9741H228.836C230.794 46.9741 232.369 48.5697 232.369 50.5199V68.973C232.369 70.3913 233.518 71.5437 234.931 71.5437C236.345 71.5437 237.493 70.3913 237.493 68.973V50.5199C237.493 45.7183 233.606 41.8179 228.836 41.8179H188.963C187.55 41.8179 186.401 42.9703 186.401 44.3886V44.4034Z" fill="#006D77" stroke="#006D77" stroke-width="2.26" stroke-miterlimit="10"/>
<path d="M75.6674 162.966L81.6159 168.078C86.622 172.378 94.0576 172.585 99.2993 168.566L107.412 162.331C110.74 159.775 115.334 159.864 118.558 162.568L125.007 167.96C130.293 172.378 137.92 172.319 143.147 167.842L148.919 162.893C152.188 160.085 156.988 160.012 160.33 162.73L167.545 168.566C170.121 170.649 173.243 171.698 176.364 171.698C179.486 171.698 182.328 170.753 184.831 168.847C185.964 167.99 186.185 166.379 185.331 165.242C184.477 164.104 182.872 163.882 181.739 164.739C178.455 167.221 173.935 167.148 170.74 164.562L163.525 158.726C158.254 154.456 150.701 154.575 145.562 158.992L139.79 163.942C136.477 166.793 131.618 166.823 128.261 164.015L121.812 158.623C116.732 154.383 109.518 154.235 104.276 158.268L96.1631 164.503C92.8355 167.059 88.1091 166.926 84.9288 164.193L78.9803 159.096C77.9054 158.165 76.2858 158.298 75.3729 159.376C74.4453 160.455 74.5778 162.08 75.6526 162.996L75.6674 162.966Z" fill="#006D77" stroke="#006D77" stroke-width="2.26" stroke-miterlimit="10"/>
<path d="M12.1293 168.981L21.1845 162.082C24.4091 159.629 28.8852 159.659 32.0802 162.156L40.149 168.479C42.6815 170.459 45.7293 171.449 48.7919 171.449C52.0017 171.449 55.2262 170.355 57.8029 168.184C58.8925 167.268 59.0397 165.657 58.1269 164.564C57.214 163.471 55.6091 163.323 54.5195 164.239C51.3097 166.928 46.598 167.002 43.2999 164.431L35.2312 158.108C30.2103 154.178 23.1575 154.133 18.0778 157.989L9.02256 164.889C7.88882 165.746 7.68268 167.356 8.53667 168.494C9.39066 169.632 10.9956 169.838 12.1293 168.981Z" fill="#006D77" stroke="#006D77" stroke-width="2.26" stroke-miterlimit="10"/>
<path d="M211.554 191.216L204.339 185.38C199.068 181.11 191.515 181.228 186.376 185.646L180.604 190.595C177.292 193.447 172.447 193.476 169.076 190.669L162.627 185.276C157.547 181.036 150.332 180.888 145.09 184.922C143.971 185.779 143.75 187.404 144.619 188.527C145.488 189.65 147.093 189.871 148.212 189C151.554 186.444 156.133 186.532 159.358 189.221L165.807 194.614C168.428 196.8 171.623 197.894 174.803 197.894C178.057 197.894 181.311 196.756 183.947 194.496L189.719 189.546C192.987 186.739 197.787 186.665 201.13 189.384L208.344 195.219C209.449 196.106 211.054 195.943 211.952 194.835C212.835 193.727 212.673 192.117 211.569 191.216H211.554Z" fill="#006D77" stroke="#006D77" stroke-width="2.26" stroke-miterlimit="10"/>
<path d="M58.8805 184.684L49.8253 191.583C48.6916 192.44 48.4854 194.051 49.3394 195.188C50.1934 196.326 51.7983 196.533 52.932 195.676L61.9872 188.776C65.2118 186.324 69.6879 186.353 72.883 188.85L80.9517 195.174C83.4842 197.153 86.532 198.128 89.5946 198.128C92.8044 198.128 96.029 197.035 98.6057 194.878L104.922 189.589C108.279 186.782 113.138 186.797 116.451 189.663L122.4 194.775C123.474 195.691 125.094 195.572 126.007 194.494C126.935 193.415 126.802 191.79 125.727 190.874L119.779 185.762C114.552 181.271 106.91 181.227 101.624 185.659L95.3075 190.948C92.0977 193.637 87.3713 193.711 84.0879 191.14L76.0192 184.817C70.9983 180.887 63.9455 180.843 58.8658 184.699L58.8805 184.684Z" fill="#006D77" stroke="#006D77" stroke-width="2.26" stroke-miterlimit="10"/>
<path d="M204.486 110.445H77.9633C76.5498 110.445 75.4014 111.597 75.4014 113.016C75.4014 114.434 76.5498 115.586 77.9633 115.586H204.486C205.9 115.586 207.048 114.434 207.048 113.016C207.048 111.597 205.9 110.445 204.486 110.445Z" fill="#006D77" stroke="#006D77" stroke-width="2.26" stroke-miterlimit="10"/>
<path d="M122.633 132.177C121.22 132.177 120.071 133.329 120.071 134.748C120.071 136.166 121.22 137.318 122.633 137.318H159.826C161.239 137.318 162.388 136.166 162.388 134.748C162.388 133.329 161.239 132.177 159.826 132.177H122.633Z" fill="#006D77" stroke="#006D77" stroke-width="2.26" stroke-miterlimit="10"/>
</svg>
