<svg width="231" height="263" viewBox="0 0 231 263" fill="none" xmlns="http://www.w3.org/2000/svg">
<path d="M121.289 7.32031H65.6368C60.7104 7.32031 56.7168 11.3125 56.7168 16.237V28.4856C56.7168 33.4102 60.7104 37.4023 65.6368 37.4023H121.289C126.215 37.4023 130.209 33.4102 130.209 28.4856V16.237C130.209 11.3125 126.215 7.32031 121.289 7.32031Z" fill="#E8FDF8"/>
<path d="M226.735 170.047C226.53 169.965 226.339 169.869 226.134 169.787L226.735 170.101C226.735 170.101 226.735 170.06 226.735 170.033V170.047Z" fill="#E8FDF8"/>
<path d="M174.855 253.272L223.117 227.533V176.367L174.855 202.107V253.272Z" fill="#E8FDF8"/>
<path d="M193.76 158.086L172.395 146.697L124.447 172.273L145.812 183.675L193.76 158.086Z" fill="#E8FDF8"/>
<path d="M198.992 160.873L151.03 186.463L172.395 197.865L220.356 172.275L198.992 160.873Z" fill="#E8FDF8"/>
<path d="M148.273 203.913C148.273 205.265 147.167 206.371 145.815 206.371C144.462 206.371 143.356 205.265 143.356 203.913V187.923L121.69 176.357V227.523L169.939 253.263V202.097L148.273 190.531V203.886V203.913Z" fill="#E8FDF8"/>
<path d="M103.723 218.163C103.723 216.811 102.617 215.705 101.265 215.705H10.5604C8.77092 215.705 7.32294 214.258 7.32294 212.496V37.1657C7.32294 35.3769 8.77092 33.9295 10.5604 33.9295H36.4329C37.7853 33.9295 38.8918 32.8235 38.8918 31.4716C38.8918 30.1198 37.7853 29.0137 36.4329 29.0137H10.5604C6.06619 29.0137 2.40527 32.6732 2.40527 37.1657V212.496C2.40527 216.975 6.06619 220.621 10.5604 220.621H101.265C102.617 220.621 103.723 219.515 103.723 218.163Z" fill="#006D77" stroke="#006D77" stroke-width="4.81" stroke-miterlimit="10"/>
<path d="M182.066 131.153C183.418 131.153 184.525 130.047 184.525 128.695V37.1657C184.525 32.6732 180.864 29.0137 176.369 29.0137H150.497C149.144 29.0137 148.038 30.1198 148.038 31.4716C148.038 32.8235 149.144 33.9295 150.497 33.9295H176.369C178.159 33.9295 179.607 35.3769 179.607 37.1657V128.695C179.607 130.047 180.714 131.153 182.066 131.153Z" fill="#006D77" stroke="#006D77" stroke-width="4.81" stroke-miterlimit="10"/>
<path d="M135.139 28.499V16.2369C135.139 8.61734 128.937 2.4043 121.301 2.4043H65.6357C58.0133 2.4043 51.7979 8.60369 51.7979 16.2369V28.499C51.7979 36.1186 57.9996 42.3316 65.6357 42.3316H121.301C128.924 42.3316 135.139 36.1322 135.139 28.499ZM56.7294 28.499V16.2369C56.7294 11.321 60.7317 7.32012 65.6494 7.32012H121.315C126.233 7.32012 130.235 11.321 130.235 16.2369V28.499C130.235 33.4149 126.233 37.4158 121.315 37.4158H65.6494C60.7317 37.4158 56.7294 33.4149 56.7294 28.499Z" fill="#006D77" stroke="#006D77" stroke-width="4.81" stroke-miterlimit="10"/>
<path d="M69.3024 80.5411C68.3461 79.5853 66.7888 79.5853 65.8189 80.5411L45.5608 100.792L36.2991 91.5334C35.3428 90.5775 33.7857 90.5775 32.8158 91.5334C31.8596 92.4892 31.8596 94.0459 32.8158 95.0155L43.8122 106.008C44.2767 106.472 44.8914 106.731 45.5471 106.731C46.2028 106.731 46.8312 106.472 47.282 106.008L69.275 84.0231C70.2312 83.0673 70.2312 81.5106 69.275 80.5411H69.3024Z" fill="#006D77" stroke="#006D77" stroke-width="4.81" stroke-miterlimit="10"/>
<path d="M154.831 98.2079C154.831 96.8561 153.724 95.75 152.372 95.75H90.2722C88.9199 95.75 87.8135 96.8561 87.8135 98.2079C87.8135 99.5598 88.9199 100.666 90.2722 100.666H152.372C153.724 100.666 154.831 99.5598 154.831 98.2079Z" fill="#006D77" stroke="#006D77" stroke-width="4.81" stroke-miterlimit="10"/>
<path d="M65.8189 142.164L45.5608 162.415L36.2991 153.156C35.3428 152.201 33.7857 152.201 32.8158 153.156C31.8596 154.112 31.8596 155.669 32.8158 156.638L43.8122 167.631C44.2767 168.095 44.8914 168.354 45.5471 168.354C46.2028 168.354 46.8312 168.095 47.282 167.631L69.275 145.646C70.2312 144.69 70.2312 143.134 69.275 142.164C68.3188 141.208 66.7615 141.208 65.7916 142.164H65.8189Z" fill="#006D77" stroke="#006D77" stroke-width="4.81" stroke-miterlimit="10"/>
<path d="M90.2841 157.373C88.9317 157.373 87.8252 158.479 87.8252 159.831C87.8252 161.183 88.9317 162.289 90.2841 162.289H101.267C102.619 162.289 103.726 161.183 103.726 159.831C103.726 158.479 102.619 157.373 101.267 157.373H90.2841Z" fill="#006D77" stroke="#006D77" stroke-width="4.81" stroke-miterlimit="10"/>
<path d="M227.898 171.522C227.857 171.371 227.789 171.235 227.72 171.098C227.693 171.057 227.679 171.016 227.652 170.975C227.543 170.811 227.433 170.661 227.283 170.525C227.256 170.497 227.228 170.484 227.215 170.47C227.092 170.361 226.955 170.252 226.805 170.17C226.778 170.156 226.764 170.129 226.737 170.115L226.136 169.787L200.154 155.927L173.585 141.754C172.861 141.371 171.986 141.371 171.262 141.754L118.096 170.129C118.096 170.129 118.056 170.17 118.028 170.183C117.878 170.265 117.741 170.375 117.618 170.484C117.591 170.511 117.564 170.525 117.55 170.552C117.413 170.689 117.291 170.839 117.181 171.003C117.154 171.044 117.14 171.085 117.113 171.126C117.045 171.262 116.976 171.399 116.935 171.549C116.922 171.603 116.894 171.644 116.894 171.699C116.84 171.89 116.812 172.095 116.812 172.3V229.037C116.812 229.938 117.318 230.784 118.11 231.208L171.276 259.569C171.276 259.569 171.331 259.583 171.358 259.597C171.481 259.651 171.604 259.706 171.74 259.747C171.795 259.76 171.836 259.774 171.891 259.788C172.068 259.829 172.246 259.856 172.437 259.856C172.628 259.856 172.806 259.829 172.984 259.788C173.038 259.788 173.079 259.76 173.134 259.747C173.27 259.706 173.393 259.665 173.516 259.597C173.544 259.597 173.571 259.583 173.598 259.569L226.764 231.208C227.57 230.784 228.062 229.951 228.062 229.037V172.3C228.062 172.095 228.035 171.89 227.98 171.699C227.98 171.644 227.953 171.603 227.939 171.549L227.898 171.522ZM172.396 146.697L193.761 158.099L145.813 183.675L124.449 172.273L172.396 146.697ZM169.937 253.288L121.689 227.548V176.383L143.354 187.949V203.939C143.354 205.29 144.461 206.396 145.813 206.396C147.166 206.396 148.272 205.29 148.272 203.939V190.584L169.937 202.15V253.315V253.288ZM172.396 197.862L151.031 186.46L198.979 160.884L220.344 172.286L172.396 197.862ZM223.103 227.548L174.855 253.288V202.122L223.103 176.383V227.548Z" fill="#006D77" stroke="#006D77" stroke-width="4.81" stroke-miterlimit="10"/>
</svg>
