<svg width="201" height="252" viewBox="0 0 201 252" fill="none" xmlns="http://www.w3.org/2000/svg">
<path d="M129.044 213.945C128.9 213.157 129.175 212.37 129.74 211.819L146.493 195.965C148.502 194.061 149.211 191.371 148.384 188.786C147.517 186.082 145.272 184.218 142.37 183.811L119.223 180.543C118.462 180.438 117.792 179.966 117.451 179.27L107.105 158.901C105.831 156.395 103.337 154.898 100.435 154.898C97.5337 154.898 95.0391 156.395 93.7656 158.901L83.4196 179.27C83.0651 179.953 82.4085 180.425 81.647 180.543L58.4999 183.811C55.5983 184.218 53.3401 186.082 52.4736 188.786C51.6464 191.371 52.3555 194.061 54.3643 195.965L71.1174 211.819C71.6951 212.357 71.9575 213.157 71.8131 213.945L67.8612 236.322C67.3885 238.973 68.4389 241.532 70.6577 243.173C72.9948 244.905 76.0672 245.155 78.6668 243.816L99.3717 233.251C99.7131 233.08 100.081 232.988 100.448 232.988C100.816 232.988 101.184 233.08 101.525 233.251L122.23 243.816C124.83 245.141 127.902 244.892 130.239 243.173C132.458 241.532 133.495 238.973 133.035 236.322L129.084 213.945H129.044Z" fill="#E8FDF8"/>
<path d="M133.92 214.375L149.741 199.4C153.049 196.263 154.257 191.643 152.879 187.352C151.474 182.942 147.692 179.792 143.018 179.136L121.092 176.039L111.298 156.772C109.237 152.703 105.061 150.184 100.414 150.184C95.7657 150.184 91.5905 152.703 89.5292 156.772L79.7347 176.039L57.8087 179.136C53.1346 179.792 49.3534 182.942 47.9485 187.352C46.5831 191.643 47.7778 196.263 51.0865 199.4L66.9073 214.375L63.1786 235.505C62.4039 239.889 64.1764 244.285 67.8133 246.976C71.6077 249.784 76.5706 250.178 80.7851 248.039L100.414 238.025L120.042 248.039C121.841 248.957 123.771 249.404 125.688 249.404C128.274 249.404 130.834 248.59 133.014 246.976C136.651 244.285 138.423 239.889 137.648 235.505L133.92 214.375ZM130.204 243.183C127.867 244.915 124.795 245.165 122.195 243.826L101.49 233.261C101.149 233.09 100.781 232.998 100.414 232.998C100.046 232.998 99.6783 233.09 99.337 233.261L78.6319 243.826C76.0323 245.151 72.96 244.902 70.623 243.183C68.4041 241.542 67.3669 238.983 67.8264 236.332L71.7784 213.955C71.9228 213.167 71.6471 212.38 71.0825 211.829L54.3294 195.974C52.3206 194.071 51.6115 191.381 52.4387 188.795C53.3052 186.092 55.5504 184.228 58.4652 183.821L81.6123 180.553C82.3738 180.448 83.0434 179.976 83.3847 179.28L93.7307 158.911C95.0042 156.405 97.4988 154.908 100.4 154.908C103.302 154.908 105.796 156.405 107.07 158.911L117.416 179.28C117.771 179.963 118.427 180.435 119.189 180.553L142.336 183.821C145.237 184.228 147.496 186.092 148.349 188.795C149.176 191.394 148.467 194.071 146.458 195.974L129.705 211.829C129.128 212.367 128.865 213.167 129.009 213.955L132.961 236.332C133.434 238.983 132.384 241.542 130.165 243.183H130.204Z" fill="#006D77" stroke="#006D77" stroke-width="4.81" stroke-miterlimit="10"/>
<path d="M185.667 166.452L166.617 163.748L158.109 147.028C156.244 143.366 152.502 141.096 148.314 141.096C144.126 141.096 140.384 143.366 138.52 147.028L129.526 164.693C128.935 165.861 129.395 167.279 130.563 167.869C131.732 168.46 133.15 168.001 133.74 166.833L142.734 149.167C143.798 147.067 145.885 145.82 148.314 145.82C150.743 145.82 152.831 147.067 153.894 149.167L162.953 166.99C163.308 167.672 163.964 168.145 164.726 168.263L185.011 171.137C187.44 171.479 189.317 173.027 190.039 175.271C190.735 177.437 190.144 179.668 188.464 181.256L173.798 195.142C173.221 195.693 172.958 196.48 173.102 197.268L176.555 216.876C176.949 219.081 176.083 221.22 174.231 222.585C172.695 223.714 170.135 224.462 167.522 223.136L150.139 214.264C148.971 213.673 147.553 214.133 146.962 215.301C146.371 216.469 146.83 217.886 147.999 218.477L165.382 227.349C166.997 228.176 168.73 228.583 170.463 228.583C172.787 228.583 175.098 227.848 177.054 226.391C180.324 223.963 181.925 220.012 181.216 216.062L177.986 197.714L191.72 184.708C194.7 181.886 195.79 177.726 194.543 173.854C193.269 169.891 189.869 167.069 185.68 166.478L185.667 166.452Z" fill="#006D77" stroke="#006D77" stroke-width="4.81" stroke-miterlimit="10"/>
<path d="M50.7269 214.251L33.3304 223.123C30.7308 224.448 28.1575 223.714 26.6345 222.572C24.7832 221.207 23.9166 219.067 24.3105 216.863L27.7636 197.268C27.8949 196.48 27.6322 195.693 27.0677 195.142L12.4021 181.256C10.7215 179.668 10.1308 177.437 10.8266 175.271C11.5487 173.014 13.4262 171.479 15.8551 171.137L36.127 168.263C36.8885 168.158 37.5581 167.686 37.8994 166.99L46.9587 149.167C48.0222 147.067 50.1098 145.82 52.5387 145.82C54.9677 145.82 57.0552 147.067 58.1187 149.167L67.1123 166.833C67.7031 168.001 69.1343 168.46 70.2897 167.869C71.4582 167.279 71.9176 165.861 71.3268 164.693L62.3332 147.028C60.4688 143.366 56.727 141.096 52.5387 141.096C48.3636 141.096 44.6085 143.366 42.7441 147.028L34.2363 163.748L15.1855 166.452C10.9841 167.043 7.58357 169.864 6.31002 173.828C5.07585 177.7 6.1525 181.86 9.13287 184.682L22.8663 197.688L19.6364 216.036C18.9274 219.986 20.5292 223.95 23.7985 226.365C25.7547 227.808 28.0655 228.556 30.3894 228.556C32.1094 228.556 33.8556 228.15 35.4574 227.323L52.8407 218.451C54.0092 217.86 54.4688 216.429 53.8779 215.275C53.2871 214.106 51.856 213.647 50.7006 214.238L50.7269 214.251Z" fill="#006D77" stroke="#006D77" stroke-width="4.81" stroke-miterlimit="10"/>
<path d="M197.312 147.914C197.299 147.809 197.273 147.691 197.234 147.586C195.08 140.591 191.181 134.37 185.982 129.592C174.165 118.45 157.176 118.397 142.103 119.828C142.09 119.828 142.077 119.828 142.064 119.828C129.63 120.76 117.184 127.335 108.072 132.178C108.006 132.204 107.928 132.243 107.862 132.283C106.326 133.123 104.816 133.661 103.24 133.897C103.162 133.897 103.083 133.91 103.004 133.923C101.573 134.12 100.129 134.081 98.5925 133.832C98.5531 133.832 98.5269 133.832 98.4875 133.818C94.0104 133.097 89.3494 130.629 84.8461 128.227C82.3121 126.889 79.7256 125.524 77.126 124.421C79.9619 121.442 82.4172 117.255 83.9271 112.675C85.6208 107.53 86.0014 102.346 85.1086 97.569C89.8614 99.7476 95.0213 100.942 100.418 100.942C101.717 100.942 102.781 99.8788 102.781 98.5795C102.781 97.2802 101.717 96.2171 100.418 96.2171C94.0366 96.2171 88.0103 94.2878 82.7322 90.8755C82.5222 90.7311 82.299 90.5999 82.0889 90.4555C71.6642 83.4077 64.2723 70.4803 62.9856 55.046C62.9856 55.0067 62.9856 54.9673 62.9856 54.9279C62.8674 53.5498 62.8149 52.0668 62.8149 50.3869C62.8149 46.4234 63.2481 42.4992 64.0753 38.6669C71.257 40.9374 83.1655 41.4886 100.418 41.4886C107.626 41.4886 113.534 41.3705 118.484 41.1211C119.783 41.0555 120.794 39.953 120.729 38.6406C120.663 37.3413 119.547 36.3438 118.247 36.3963C113.376 36.6326 107.547 36.7507 100.418 36.7507C71.2309 36.7507 60.3729 34.7427 60.3729 29.3485C60.3729 23.9544 77.4411 7.11589 100.418 7.11589C123.394 7.11589 140.462 24.1382 140.462 29.3485C140.462 30.4379 140.462 32.4722 135.565 34.0602C134.62 34.2965 133.898 35.097 133.792 36.0945C132.598 46.7514 119.508 53.6417 100.444 53.6417C92.8944 53.6417 85.9752 52.513 80.4215 50.3738C79.2004 49.9013 77.835 50.505 77.3624 51.7255C76.8897 52.9461 77.4935 54.3111 78.7146 54.7835C84.7935 57.1328 92.3036 58.3796 100.431 58.3796C121.241 58.3796 135.854 50.4787 138.256 38.1287C142.917 36.3045 145.189 33.4302 145.189 29.3617C145.189 24.65 139.911 17.996 131.744 12.405C126.282 8.66461 114.952 2.4043 100.431 2.4043C76.3907 2.4043 55.6594 20.4896 55.6594 29.3617C55.6594 32.564 56.9723 34.9396 59.6901 36.6982C58.6529 41.1605 58.0884 45.754 58.0884 50.3869C58.0884 52.1718 58.154 53.7599 58.2722 55.2429C58.2722 55.2823 58.2722 55.3216 58.2722 55.3479C59.6639 72.1864 67.7647 86.3345 79.2529 94.2091C83.9139 105.325 77.6249 118.24 72.0712 122.65C57.6945 118.214 37.2783 116.534 21.6937 124.894C12.5031 129.815 6.41104 137.454 3.58822 147.612C3.56196 147.691 3.54878 147.77 3.53565 147.861C3.53565 147.861 3.07617 150.644 2.43283 154.831C2.23589 156.117 3.11556 157.324 4.40224 157.521C5.68892 157.705 6.89689 156.839 7.09383 155.552C7.65839 151.917 8.07846 149.358 8.17037 148.767C10.6518 139.961 15.9561 133.333 23.9256 129.067C38.5649 121.219 58.1278 123.083 71.6117 127.453C71.7167 127.492 71.8218 127.532 71.9399 127.558C75.3798 128.529 78.8984 130.406 82.6271 132.388C87.4981 134.973 92.5399 137.651 97.8311 138.478C97.8573 138.478 97.8966 138.478 97.9229 138.491C99.9054 138.806 101.783 138.832 103.647 138.583C103.687 138.583 103.726 138.583 103.766 138.583C105.919 138.281 107.954 137.598 109.976 136.496C110.028 136.469 110.068 136.443 110.12 136.43C118.877 131.784 130.852 125.432 142.353 124.553C142.392 124.553 142.432 124.553 142.471 124.553C156.506 123.214 172.275 123.188 182.752 133.07C187.321 137.257 190.735 142.704 192.651 148.833L193.728 155.605C193.912 156.773 194.923 157.6 196.065 157.6C196.183 157.6 196.315 157.6 196.446 157.573C197.733 157.363 198.612 156.156 198.402 154.87L197.299 147.94L197.312 147.914Z" fill="#006D77" stroke="#006D77" stroke-width="4.81" stroke-miterlimit="10"/>
<path d="M141.735 61.5977C141.761 61.4533 141.774 61.2959 141.774 61.1384C141.774 59.8391 140.711 58.7891 139.411 58.7891C138.242 58.7891 137.271 59.6421 137.087 60.7577C134.658 73.5015 127.857 84.3947 118.404 90.6419C118.036 90.8913 117.748 91.2325 117.564 91.6262C116.028 94.9729 115.253 98.6609 115.253 102.559C115.253 105.682 115.752 108.872 116.723 112.061C117.039 113.085 117.971 113.728 118.982 113.728C119.205 113.728 119.441 113.701 119.678 113.623C120.925 113.242 121.634 111.916 121.24 110.67C120.4 107.927 119.979 105.197 119.979 102.546C119.979 99.5533 120.518 96.7447 121.594 94.1723C131.809 87.1639 139.122 75.3257 141.735 61.5714V61.5977Z" fill="#006D77" stroke="#006D77" stroke-width="4.81" stroke-miterlimit="10"/>
</svg>
