<svg width="272" height="252" viewBox="0 0 272 252" fill="none" xmlns="http://www.w3.org/2000/svg">
<path d="M223.252 127.851C221.309 148.523 221.451 172.537 223.609 186.237C224.124 189.48 225.882 192.152 228.283 193.78C228.354 193.823 228.426 193.866 228.497 193.923C230.369 195.109 232.599 195.68 234.928 195.38C257.494 192.466 265.34 183.195 263.911 161.194C263.682 157.58 263.582 153.994 263.511 150.523C262.968 128.123 262.553 110.422 224.467 105.251C224.395 105.251 224.338 105.222 224.267 105.208C224.167 105.194 224.081 105.165 223.981 105.137C223.981 105.137 223.967 105.137 223.952 105.137C222.766 111.394 221.737 118.051 220.951 125.065C222.366 125.208 223.395 126.451 223.266 127.866L223.252 127.851ZM236.715 151.294C236.743 149.894 237.886 148.78 239.287 148.78C239.301 148.78 239.33 148.78 239.344 148.78C240.759 148.809 241.888 149.98 241.859 151.409C241.674 160.337 241.859 168.652 242.417 175.423C242.531 176.837 241.474 178.08 240.059 178.195C239.987 178.195 239.916 178.195 239.844 178.195C238.515 178.195 237.386 177.18 237.286 175.837C236.715 168.88 236.529 160.394 236.715 151.294Z" fill="#E8FDF8"/>
<path d="M239.837 178.206C239.837 178.206 239.98 178.206 240.052 178.206C241.466 178.091 242.524 176.848 242.41 175.434C241.852 168.648 241.666 160.348 241.852 151.42C241.881 150.005 240.752 148.82 239.337 148.791C239.323 148.791 239.294 148.791 239.28 148.791C237.879 148.791 236.736 149.905 236.707 151.305C236.507 160.405 236.707 168.891 237.279 175.848C237.393 177.191 238.508 178.206 239.837 178.206Z" fill="#006D77" stroke="#006D77" stroke-width="4.81" stroke-miterlimit="10"/>
<path d="M93.5096 88.4094C89.0078 88.4094 85.335 92.0808 85.335 96.5809C85.335 101.081 89.0078 104.752 93.5096 104.752C96.4965 104.752 99.2404 103.124 100.684 100.495C101.313 99.338 102.699 98.8809 103.885 99.3523C104.128 98.4666 104.271 97.538 104.271 96.5809C104.271 91.5665 100.741 87.3665 96.0392 86.3379C95.8105 87.5236 94.7672 88.4236 93.5096 88.4236V88.4094Z" fill="#E8FDF8"/>
<path d="M135.794 88.4045C131.292 88.4045 127.619 92.076 127.619 96.576C127.619 101.076 131.292 104.748 135.794 104.748C139.081 104.748 142.039 102.79 143.325 99.7618C143.74 98.7617 144.726 98.1761 145.741 98.1903C145.826 97.6618 145.884 97.1332 145.884 96.576C145.884 91.776 142.668 87.7474 138.281 86.4902C137.995 87.5902 136.994 88.4045 135.808 88.4045H135.794Z" fill="#E8FDF8"/>
<path d="M178.499 88.3995C173.997 88.3995 170.324 92.0709 170.324 96.571C170.324 101.071 173.997 104.742 178.499 104.742C181.786 104.742 184.744 102.785 186.03 99.7567C186.573 98.471 188.031 97.871 189.332 98.371C189.432 97.7852 189.489 97.1995 189.489 96.5852C189.489 91.4852 185.845 87.2423 181.028 86.2852C180.814 87.4995 179.771 88.4137 178.499 88.4137V88.3995Z" fill="#E8FDF8"/>
<path d="M134.181 225.266H157.204C159.591 225.266 161.535 227.209 161.535 229.594V239.723C161.535 242.109 159.591 244.052 157.204 244.052H134.181C131.794 244.052 129.851 242.109 129.851 239.723V229.594C129.851 227.209 131.794 225.266 134.181 225.266Z" fill="#E8FDF8"/>
<path d="M11.5472 125.297C10.5468 129.883 9.53206 134.754 8.53166 139.826C8.27442 143.24 8.18869 146.812 8.10294 150.512C8.01719 153.983 7.93145 157.569 7.70278 161.183C6.27365 183.183 14.1196 192.455 36.6856 195.369C38.3434 195.283 39.8726 195.083 41.316 194.812C44.7173 193.512 47.3612 190.326 48.0043 186.241C51.2913 165.255 49.6478 124.369 44.9174 105.568C24.4665 108.74 15.5487 115.768 11.5614 125.297H11.5472Z" fill="#E8FDF8"/>
<path d="M268.645 150.391C268.102 127.963 267.573 106.762 227.529 100.505C227.672 98.4766 227.772 96.4052 227.772 94.2766C227.772 43.619 186.513 2.4043 135.807 2.4043C85.1012 2.4043 43.8135 43.619 43.8135 94.2766C43.8135 96.4052 43.9136 98.4766 44.0565 100.505C4.04077 106.762 3.4977 127.963 2.96892 150.391C2.88317 153.806 2.79743 157.349 2.56877 160.849C0.968138 185.377 10.972 197.235 36.0247 200.478C36.6679 200.563 37.311 200.606 37.9398 200.606C45.3713 200.606 51.8452 194.963 53.0886 187.035C56.6471 164.32 54.7178 120.863 49.3443 102.205C49.1013 99.6766 48.9727 97.0052 48.9727 94.2766C48.9727 46.4476 87.9308 7.54721 135.821 7.54721C183.711 7.54721 222.641 46.4476 222.641 94.2766C222.641 97.1052 222.512 99.8481 222.255 102.434C222.169 103.277 222.512 104.048 223.084 104.577L223.113 104.605C223.213 104.691 223.327 104.777 223.441 104.848C223.47 104.862 223.499 104.891 223.527 104.905C223.627 104.962 223.727 105.005 223.841 105.048C223.884 105.062 223.927 105.091 223.97 105.105C223.97 105.105 223.984 105.105 223.999 105.105C224.084 105.134 224.184 105.148 224.284 105.177C224.356 105.191 224.413 105.22 224.485 105.22C262.571 110.391 262.985 128.091 263.529 150.491C263.614 153.963 263.7 157.549 263.929 161.163C265.358 183.163 257.512 192.435 234.946 195.349C232.616 195.649 230.387 195.077 228.515 193.892C228.443 193.835 228.372 193.792 228.3 193.749C225.899 192.135 224.142 189.449 223.627 186.206C221.483 172.506 221.326 148.491 223.27 127.82C223.398 126.405 222.369 125.163 220.955 125.02C219.54 124.891 218.282 125.92 218.154 127.334C216.181 148.377 216.338 172.92 218.539 186.992C219.111 190.606 220.769 193.735 223.098 196.077L189.228 228.221C186.627 230.692 183.211 232.049 179.624 232.049H166.69V229.549C166.69 224.321 162.432 220.078 157.215 220.078H134.192C128.961 220.078 124.717 224.321 124.717 229.549V239.678C124.717 244.907 128.961 249.149 134.192 249.149H157.215C162.446 249.149 166.69 244.907 166.69 239.678V237.178H179.624C184.54 237.178 189.214 235.321 192.772 231.935L227.357 199.106C229.301 200.035 231.444 200.549 233.674 200.549C234.303 200.549 234.946 200.506 235.589 200.42C260.642 197.178 270.646 185.335 269.045 160.791C268.816 157.277 268.73 153.749 268.645 150.334V150.391ZM47.9866 186.235C47.3435 190.32 44.6996 193.52 41.2982 194.806C39.8548 195.363 38.2828 195.577 36.6679 195.363C14.1019 192.449 6.25591 183.177 7.68504 161.177C7.91371 157.563 7.99945 153.977 8.0852 150.506C8.17095 146.806 8.27097 143.22 8.51392 139.82C8.89979 134.534 9.70013 129.648 11.5294 125.291C15.5167 115.763 24.4345 108.734 44.8854 105.562C49.6158 124.363 51.2593 165.249 47.9723 186.235H47.9866ZM161.531 239.721C161.531 242.106 159.588 244.049 157.201 244.049H134.178C131.791 244.049 129.847 242.106 129.847 239.721V229.592C129.847 227.206 131.791 225.263 134.178 225.263H157.201C159.588 225.263 161.531 227.206 161.531 229.592V239.721Z" fill="#006D77" stroke="#006D77" stroke-width="4.81" stroke-miterlimit="10"/>
<path d="M71.4389 156.405C70.4528 157.419 70.51 159.019 71.5246 160.019C76.3265 164.705 81.6429 168.862 87.3594 172.405L89.9319 198.448C90.1748 200.876 91.5897 203.034 93.7334 204.205C94.8338 204.805 96.0628 205.119 97.2776 205.119C98.4209 205.119 99.5786 204.848 100.622 204.319L136.393 186.162C160.302 186.005 182.883 176.733 200.018 160.033C201.033 159.047 201.061 157.419 200.061 156.39C199.075 155.376 197.431 155.347 196.417 156.347C180.096 172.262 158.559 181.019 135.764 181.019C135.364 181.019 134.964 181.119 134.592 181.305L98.278 199.748C97.6063 200.091 96.8346 200.076 96.1772 199.719C95.5198 199.362 95.091 198.719 95.0196 197.962L92.3471 170.948C92.3471 170.048 91.9041 169.19 91.1037 168.705C85.3015 165.219 79.9136 161.076 75.0832 156.362C74.0685 155.376 72.4393 155.39 71.4389 156.405Z" fill="#006D77" stroke="#006D77" stroke-width="4.81" stroke-miterlimit="10"/>
<path d="M93.5002 83.2578C86.1544 83.2578 80.1807 89.2293 80.1807 96.5722C80.1807 103.915 86.1544 109.887 93.5002 109.887C98.3735 109.887 102.847 107.229 105.19 102.958C105.876 101.715 105.419 100.144 104.176 99.4723C104.076 99.4151 103.99 99.3865 103.89 99.3437C102.704 98.8723 101.318 99.3437 100.689 100.487C99.2453 103.115 96.5013 104.744 93.5145 104.744C89.0127 104.744 85.3399 101.087 85.3399 96.5722C85.3399 92.0579 89.0127 88.4007 93.5145 88.4007C94.7721 88.4007 95.8011 87.5007 96.0441 86.315C96.0726 86.1578 96.0869 85.9864 96.0869 85.8292C96.0869 84.4149 94.9293 83.2578 93.5145 83.2578H93.5002Z" fill="#006D77" stroke="#006D77" stroke-width="4.81" stroke-miterlimit="10"/>
<path d="M135.793 83.2578C128.447 83.2578 122.474 89.2293 122.474 96.5722C122.474 103.915 128.447 109.887 135.793 109.887C141.152 109.887 145.969 106.701 148.069 101.758C148.627 100.444 148.012 98.9437 146.697 98.3865C146.383 98.2579 146.069 98.1865 145.74 98.1865C144.725 98.1723 143.739 98.7579 143.325 99.7579C142.038 102.787 139.094 104.744 135.793 104.744C131.291 104.744 127.618 101.087 127.618 96.5722C127.618 92.0579 131.291 88.4007 135.793 88.4007C136.979 88.4007 137.98 87.5864 138.266 86.4864C138.323 86.2721 138.366 86.0578 138.366 85.8292C138.366 84.4149 137.208 83.2578 135.793 83.2578Z" fill="#006D77" stroke="#006D77" stroke-width="4.81" stroke-miterlimit="10"/>
<path d="M178.497 83.2643C171.152 83.2643 165.178 89.2358 165.178 96.5787C165.178 103.922 171.152 109.893 178.497 109.893C183.857 109.893 188.673 106.707 190.773 101.764C191.331 100.45 190.716 98.9502 189.402 98.393C189.373 98.393 189.344 98.393 189.33 98.3644C188.044 97.8644 186.572 98.4787 186.029 99.7502C184.743 102.779 181.799 104.736 178.497 104.736C173.995 104.736 170.323 101.079 170.323 96.5644C170.323 92.0501 173.995 88.3929 178.497 88.3929C179.769 88.3929 180.812 87.4643 181.027 86.2643C181.055 86.1215 181.07 85.9786 181.07 85.8215C181.07 84.4072 179.912 83.25 178.497 83.25V83.2643Z" fill="#006D77" stroke="#006D77" stroke-width="4.81" stroke-miterlimit="10"/>
</svg>
