<svg width="236" height="252" viewBox="0 0 236 252" fill="none" xmlns="http://www.w3.org/2000/svg">
<path d="M218.745 153.928C218.66 153.899 218.574 153.885 218.488 153.856C218.089 153.699 217.746 153.457 217.489 153.157C215.434 152.044 213.107 151.402 210.638 151.402C210.31 151.402 209.996 151.402 209.668 151.431L205.557 151.702C197.635 152.23 191.626 159.107 192.154 167.025L195.252 213.039C195.78 220.957 202.645 226.95 210.581 226.436L214.692 226.165C222.613 225.637 228.622 218.76 228.094 210.842L224.997 164.828C224.683 160.263 222.257 156.339 218.745 153.928ZM202.845 176.528C202.845 176.528 202.731 176.528 202.674 176.528C201.332 176.528 200.205 175.486 200.119 174.131L199.962 171.862C199.862 170.45 200.932 169.223 202.36 169.123C203.787 169.023 205 170.093 205.1 171.52L205.257 173.788C205.357 175.201 204.287 176.428 202.859 176.528H202.845Z" fill="#E8FDF8"/>
<path d="M21.4438 222.567L25.5545 222.724C29.394 222.867 33.0479 221.497 35.874 218.872C38.7001 216.247 40.3416 212.694 40.4844 208.87L42.2114 162.786C42.3541 158.962 40.9838 155.295 38.3575 152.47C35.7312 149.645 32.1774 148.004 28.3522 147.862L24.2415 147.705C16.2913 147.419 9.61136 153.612 9.31163 161.544L7.58463 207.629C7.28489 215.562 13.4937 222.253 21.4295 222.553L21.4438 222.567ZM29.7795 169.691C29.8366 168.279 31.0355 167.209 32.4486 167.223C33.8616 167.28 34.9749 168.464 34.9178 169.891L34.8321 172.16C34.775 173.544 33.6475 174.628 32.263 174.628C32.2345 174.628 32.1915 174.628 32.163 174.628C30.7499 174.571 29.6367 173.387 29.6938 171.96L29.7795 169.691Z" fill="#E8FDF8"/>
<path d="M202.342 169.131C200.929 169.231 199.859 170.444 199.944 171.871L200.101 174.139C200.187 175.495 201.315 176.536 202.656 176.536C202.713 176.536 202.77 176.536 202.827 176.536C204.241 176.436 205.311 175.224 205.225 173.797L205.068 171.528C204.968 170.116 203.755 169.032 202.328 169.131H202.342Z" fill="#006D77" stroke="#006D77" stroke-width="4.81" stroke-miterlimit="10"/>
<path d="M21.2452 227.703L25.3558 227.86C25.5985 227.86 25.8554 227.874 26.0981 227.874C31.0223 227.874 35.704 226.034 39.3579 222.652C41.1563 220.983 42.5836 219.042 43.6256 216.917L61.9951 240.872C61.9951 240.872 62.0664 240.972 62.1093 241.015C66.9621 246.479 73.7419 249.404 80.6644 249.404C84.1613 249.404 87.6868 248.662 91.041 247.135L123.484 232.354C135.473 226.904 141.14 213.021 136.387 200.751L129.921 184.029C129.407 182.703 127.923 182.046 126.596 182.56C125.268 183.074 124.612 184.557 125.125 185.884L131.591 202.606C135.359 212.337 130.863 223.351 121.343 227.674L88.9 242.47C80.9927 246.08 71.8009 244.154 65.9917 237.676L45.424 210.881C45.4954 210.296 45.5524 209.697 45.581 209.098L47.308 163.013C47.308 162.785 47.308 162.557 47.308 162.328L82.7055 156.821C84.1043 156.607 85.0606 155.294 84.8465 153.882C84.6324 152.484 83.3192 151.513 81.9061 151.742L46.6515 157.235C45.8379 154.21 44.2965 151.399 42.0841 149.017C38.5301 145.179 33.7058 142.967 28.5103 142.767L24.3996 142.61C13.6234 142.225 4.54558 150.629 4.14593 161.401L2.41893 207.486C2.01928 218.243 10.4405 227.332 21.2025 227.731L21.2452 227.703ZM9.3271 161.558C9.62683 153.625 16.3068 147.433 24.257 147.718L28.3675 147.875C32.1927 148.018 35.7467 149.659 38.373 152.484C40.9992 155.309 42.3696 158.975 42.2268 162.799L40.4997 208.884C40.3569 212.708 38.7155 216.26 35.8894 218.885C33.0634 221.511 29.4095 222.866 25.57 222.738L21.4593 222.581C13.5234 222.281 7.31465 215.59 7.61439 207.657L9.34138 161.572L9.3271 161.558Z" fill="#006D77" stroke="#006D77" stroke-width="4.81" stroke-miterlimit="10"/>
<path d="M32.1627 174.634C32.1627 174.634 32.2342 174.634 32.2627 174.634C33.633 174.634 34.7747 173.549 34.8318 172.165L34.9175 169.897C34.9746 168.484 33.8614 167.286 32.4483 167.229C31.0495 167.214 29.8363 168.284 29.7792 169.697L29.6935 171.966C29.6364 173.378 30.7497 174.577 32.1627 174.634Z" fill="#006D77" stroke="#006D77" stroke-width="4.81" stroke-miterlimit="10"/>
<path d="M10.9103 131.199C12.3091 130.999 13.294 129.686 13.0799 128.288C12.4947 124.265 12.1665 120.113 12.0665 115.918H71.1289C71.2003 122.738 71.4999 129.615 72.0851 136.378C72.1993 137.719 73.3269 138.732 74.6401 138.732C74.7114 138.732 74.7829 138.732 74.8685 138.732C76.2815 138.618 77.3235 137.362 77.2093 135.95C76.6384 129.315 76.3386 122.595 76.2672 115.918H206.41C207.823 115.918 208.979 114.762 208.979 113.35C208.979 111.937 207.823 110.782 206.41 110.782H76.2672C76.4242 94.4737 78.0799 78.6508 81.063 64.4259C93.1381 65.0822 105.427 65.4104 117.888 65.4104C130.348 65.4104 142.623 65.068 154.684 64.4259C156.597 73.5145 158.01 83.3877 158.795 93.8031C158.895 95.1585 160.022 96.1858 161.35 96.1858C161.421 96.1858 161.478 96.1858 161.549 96.1858C162.962 96.0859 164.019 94.8446 163.919 93.4321C163.134 82.9882 161.778 73.172 159.937 64.1263C176.679 63.0848 192.993 61.4297 208.722 59.1326C218.243 74.9983 223.738 93.5605 223.738 113.378C223.738 119.756 223.167 126.119 222.039 132.283C221.097 137.548 219.713 142.727 217.986 147.735C215.316 146.651 212.376 146.108 209.307 146.322L205.197 146.594C197.204 147.136 190.667 152.429 188.112 159.52L171.227 142.684C165.56 136.249 157.41 132.854 148.861 133.339C148.775 133.339 148.689 133.339 148.604 133.367L128.136 136.606C121.656 137.006 115.504 139.688 110.808 144.154L95.2649 158.892C90.7974 163.13 89.9695 169.964 93.2809 175.143C95.7216 178.953 99.8894 181.079 104.171 181.079C106.255 181.079 108.353 180.579 110.28 179.523L129.264 169.208C130.505 168.537 130.976 166.968 130.291 165.727C129.62 164.485 128.05 164.014 126.809 164.699L107.825 175.015C104.271 176.941 99.7894 175.785 97.6198 172.39C95.6359 169.279 96.1356 165.17 98.8189 162.616L114.362 147.878C118.216 144.211 123.269 142.028 128.578 141.728C128.664 141.728 128.75 141.728 128.835 141.7L149.289 138.461C156.254 138.09 162.848 140.886 167.43 146.123C167.473 146.166 167.516 146.208 167.544 146.251L186.984 165.627C186.984 166.197 186.984 166.782 187.013 167.367L190.11 213.381C190.139 213.809 190.21 214.237 190.253 214.665L147.576 222.013C146.177 222.255 145.235 223.582 145.478 224.98C145.692 226.236 146.777 227.106 148.004 227.106C148.147 227.106 148.29 227.106 148.447 227.063L191.595 219.63C192.736 222.326 194.463 224.766 196.747 226.749C200.344 229.903 204.854 231.586 209.579 231.586C210.021 231.586 210.464 231.572 210.906 231.543L215.017 231.272C225.764 230.545 233.929 221.214 233.201 210.47L230.103 164.457C229.718 158.65 226.792 153.599 222.51 150.303C224.48 144.753 226.036 139.003 227.078 133.168C228.262 126.704 228.847 120.027 228.847 113.35C228.847 92.148 222.853 72.316 212.49 55.4373C212.362 55.0806 212.162 54.781 211.905 54.5242C192.251 23.2494 157.467 2.4043 117.874 2.4043C78.2798 2.4043 43.4818 23.2494 23.8276 54.5099C23.5707 54.7667 23.3565 55.0806 23.2281 55.4373C12.8658 72.3017 6.87109 92.1338 6.87109 113.336C6.87109 118.643 7.24224 123.922 7.98444 129.001C8.18427 130.4 9.48301 131.37 10.8961 131.17L10.9103 131.199ZM224.979 164.813L228.077 210.827C228.605 218.745 222.596 225.622 214.674 226.15L210.563 226.421C202.628 226.949 195.762 220.942 195.234 213.024L192.137 167.011C191.609 159.092 197.618 152.215 205.539 151.687L209.65 151.416C209.978 151.387 210.307 151.387 210.621 151.387C213.09 151.387 215.431 152.03 217.472 153.142C217.743 153.442 218.071 153.699 218.471 153.842C218.556 153.87 218.642 153.884 218.728 153.913C222.239 156.324 224.665 160.248 224.979 164.813ZM205.682 54.3387C190.553 56.4788 174.895 58.034 158.823 59.0185C153.385 35.4197 144.522 17.6279 133.802 8.73915C163.662 13.262 189.482 30.3119 205.682 54.3387ZM117.874 7.54066C132.561 7.54066 146.092 28.3001 153.528 59.3466C141.838 59.9601 129.934 60.274 117.874 60.274C105.813 60.274 93.8803 59.9601 82.1763 59.3466C84.4601 49.7302 87.3717 40.9556 90.8258 33.4223C91.411 32.1382 90.8545 30.6115 89.5556 30.0123C88.2711 29.413 86.7438 29.9837 86.1443 31.2821C82.4476 39.3291 79.3788 48.7315 76.9809 59.0327C60.8808 58.0483 45.1945 56.4931 30.0364 54.3529C49.0768 26.1457 81.3342 7.55493 117.859 7.55493L117.874 7.54066ZM27.0248 59.1041C42.7681 61.4012 59.1109 63.0562 75.8818 64.0978C72.9273 78.4939 71.2716 94.4166 71.1146 110.767H12.0808C12.5376 91.9198 17.9185 74.2706 27.0248 59.0898V59.1041Z" fill="#006D77" stroke="#006D77" stroke-width="4.81" stroke-miterlimit="10"/>
</svg>
