<svg width="224" height="257" viewBox="0 0 224 257" fill="none" xmlns="http://www.w3.org/2000/svg">
<path d="M76.8417 65.3181L100.23 57.1905C100.783 57.0008 101.395 57.0008 101.948 57.1905L125.337 65.3181V7.66602H76.8271V65.3181H76.8417Z" fill="#E8FDF8"/>
<path d="M197.171 2.4043H128.011C128.011 2.4043 127.982 2.4043 127.968 2.4043H74.2156C74.2156 2.4043 74.1865 2.4043 74.1719 2.4043H5.0266C3.58486 2.4043 2.40527 3.58623 2.40527 5.03082V188.42C2.40527 189.865 3.58486 191.047 5.0266 191.047H97.4728C98.9146 191.047 100.094 189.865 100.094 188.42C100.094 186.976 98.9146 185.794 97.4728 185.794H7.64798V7.65734H71.5943V69.0012C71.5943 69.8475 72.002 70.65 72.7011 71.1461C73.3855 71.6423 74.2739 71.759 75.0748 71.4818L82.2253 69.0012L101.099 62.4494L119.958 69.0012L127.109 71.4818C127.385 71.5839 127.677 71.6277 127.968 71.6277C128.507 71.6277 129.031 71.4672 129.482 71.1461C130.167 70.65 130.589 69.8621 130.589 69.0012V7.65734H194.55V102.241C194.55 103.686 195.73 104.868 197.171 104.868C198.613 104.868 199.793 103.686 199.793 102.241V5.03082C199.793 3.58623 198.613 2.4043 197.171 2.4043ZM125.346 65.3094L101.958 57.1818C101.405 56.9921 100.793 56.9921 100.24 57.1818L76.8516 65.3094V7.65734H125.361V65.3094H125.346Z" fill="#006D77" stroke="#006D77" stroke-width="4.81" stroke-miterlimit="10"/>
<path d="M73.4754 148.91C73.4754 147.465 72.2958 146.283 70.854 146.283H31.4319C29.9901 146.283 28.8105 147.465 28.8105 148.91C28.8105 150.354 29.9901 151.536 31.4319 151.536H70.854C72.2958 151.536 73.4754 150.354 73.4754 148.91Z" fill="#006D77" stroke="#006D77" stroke-width="4.81" stroke-miterlimit="10"/>
<path d="M31.4133 164.336C29.9716 164.336 28.792 165.518 28.792 166.962C28.792 168.407 29.9716 169.589 31.4133 169.589H53.4472C54.889 169.589 56.0686 168.407 56.0686 166.962C56.0686 165.518 54.889 164.336 53.4472 164.336H31.4133Z" fill="#006D77" stroke="#006D77" stroke-width="4.81" stroke-miterlimit="10"/>
<path d="M206.901 254.404C202.634 254.404 198.454 252.23 196.095 248.304L184.109 228.387C182.376 225.512 181.867 222.127 182.682 218.844C183.498 215.56 185.522 212.803 188.391 211.066L190.328 209.899C196.284 206.309 204.032 208.235 207.614 214.189L219.599 234.107C221.332 236.981 221.842 240.366 221.027 243.65C220.211 246.933 218.187 249.691 215.318 251.427L213.381 252.594C211.357 253.82 209.114 254.404 206.901 254.404ZM196.794 213.342C195.469 213.342 194.187 213.693 193.022 214.393L191.085 215.56C189.41 216.567 188.231 218.187 187.75 220.098C187.284 222.01 187.575 223.994 188.58 225.673L200.566 245.59C202.663 249.063 207.177 250.187 210.658 248.086L212.595 246.918C214.269 245.911 215.449 244.292 215.915 242.38C216.396 240.469 216.09 238.484 215.085 236.806L203.099 216.888C202.095 215.21 200.478 214.028 198.57 213.561C197.973 213.415 197.376 213.342 196.779 213.342H196.794Z" fill="#006D77" stroke="#006D77" stroke-width="4.81" stroke-miterlimit="10"/>
<path d="M156.672 207.507C139.254 207.507 122.245 198.65 112.618 182.643C97.9972 158.347 105.817 126.668 130.065 112.004C154.312 97.339 185.929 105.189 200.565 129.485C215.186 153.78 207.366 185.459 183.118 200.123C174.846 205.128 165.701 207.507 156.672 207.507ZM156.511 109.844C148.225 109.844 140.055 112.106 132.774 116.498C122.23 122.875 114.788 132.987 111.832 144.967C108.876 156.946 110.754 169.364 117.104 179.928C130.24 201.743 158.638 208.776 180.409 195.615C202.181 182.453 209.201 153.999 196.065 132.184C189.701 121.62 179.608 114.163 167.652 111.201C163.953 110.282 160.21 109.83 156.497 109.83L156.511 109.844Z" fill="#006D77" stroke="#006D77" stroke-width="4.81" stroke-miterlimit="10"/>
</svg>
