<svg width="257" height="232" viewBox="0 0 257 232" fill="none" xmlns="http://www.w3.org/2000/svg">
<path d="M115.155 140.667L125.827 149.482L140.675 144.842L145.315 121.644V107.261L149.955 80.351L140.675 55.2969H125.827L111.443 62.7203L108.659 95.1979L115.155 140.667Z" fill="#E8FDF8"/>
<path d="M122.115 170.824L111.443 183.815L115.155 193.559L129.539 198.198L140.675 193.559V180.568L135.107 170.824H122.115Z" fill="#E8FDF8"/>
<path d="M29.034 190.017C28.5876 190.017 28.1411 189.901 27.7379 189.671C26.4994 188.951 26.0673 187.367 26.7874 186.128L28.9764 182.327C29.6965 181.088 31.2807 180.656 32.5192 181.376C33.7578 182.096 34.1898 183.68 33.4697 184.919L31.2807 188.721C30.8054 189.556 29.9269 190.017 29.034 190.017Z" fill="#006D77" stroke="#006D77" stroke-width="4.81" stroke-miterlimit="10"/>
<path d="M41.1747 168.963C40.7282 168.963 40.2818 168.848 39.8785 168.617C38.64 167.897 38.2079 166.313 38.928 165.075L51.3566 143.545C52.0767 142.307 53.6609 141.875 54.8994 142.595C56.138 143.315 56.57 144.899 55.8499 146.138L43.4213 167.667C42.9461 168.502 42.0676 168.963 41.1747 168.963Z" fill="#006D77" stroke="#006D77" stroke-width="4.81" stroke-miterlimit="10"/>
<path d="M221.224 229.39H58.9461C57.5204 229.39 56.3538 228.223 56.3538 226.798C56.3538 225.372 57.5204 224.206 58.9461 224.206H221.209C231.305 224.206 240.349 218.978 245.404 210.237C250.459 201.496 250.459 191.04 245.404 182.299L152.586 21.543C147.531 12.8017 138.486 7.57418 128.391 7.57418C118.295 7.57418 109.251 12.8017 104.196 21.543L11.3919 182.314C6.33692 191.055 6.33692 201.51 11.3919 210.251C16.4469 218.993 25.4911 224.22 35.5867 224.22C37.0124 224.22 38.179 225.386 38.179 226.812C38.179 228.238 37.0124 229.404 35.5867 229.404C23.6189 229.404 12.8897 223.212 6.89859 212.843C0.907502 202.475 0.907502 190.09 6.89859 179.721L99.7172 18.9652C105.708 8.59665 116.423 2.4043 128.405 2.4043C140.387 2.4043 151.102 8.59665 157.093 18.9652L249.912 179.721C255.903 190.09 255.903 202.475 249.912 212.843C243.921 223.212 233.206 229.404 221.224 229.404V229.39Z" fill="#006D77" stroke="#006D77" stroke-width="4.81" stroke-miterlimit="10"/>
<path d="M128.406 155.024C113.947 155.024 106.616 132.141 106.616 86.9942C106.616 55.3701 113.255 52.0723 128.406 52.0723C143.556 52.0723 150.196 55.3701 150.196 86.9942C150.196 102.518 149.303 115.58 147.56 125.804C147.315 127.216 145.962 128.166 144.565 127.921C143.153 127.677 142.203 126.337 142.448 124.926C144.147 114.989 145.011 102.23 145.011 86.9942C145.011 57.2566 139.812 57.2566 128.406 57.2566C117 57.2566 111.801 57.2566 111.801 86.9942C111.801 143.719 123.409 149.839 128.406 149.839C132.006 149.839 135.16 147.002 137.781 141.415C138.386 140.119 139.927 139.557 141.223 140.162C142.52 140.767 143.081 142.308 142.476 143.604C138.055 153.022 132.381 155.009 128.406 155.009V155.024Z" fill="#006D77" stroke="#006D77" stroke-width="4.81" stroke-miterlimit="10"/>
<path d="M128.406 203.944C118.454 203.944 110.36 195.851 110.36 185.9C110.36 175.949 118.454 167.855 128.406 167.855C138.357 167.855 146.451 175.949 146.451 185.9C146.451 195.851 138.357 203.944 128.406 203.944ZM128.406 173.04C121.32 173.04 115.545 178.814 115.545 185.9C115.545 192.985 121.32 198.76 128.406 198.76C135.491 198.76 141.266 192.985 141.266 185.9C141.266 178.814 135.491 173.04 128.406 173.04Z" fill="#006D77" stroke="#006D77" stroke-width="4.81" stroke-miterlimit="10"/>
</svg>
