<svg width="232" height="250" viewBox="0 0 232 250" fill="none" xmlns="http://www.w3.org/2000/svg">
<path d="M180.905 85.9043L160.905 69.4043L164.905 60.9043L160.905 47.4043L152.405 35.9043L155.405 20.4043L160.905 6.9043L177.405 13.4043L193.405 24.4043L220.905 35.9043V44.4043L207.905 66.4043L195.905 93.4043L190.405 91.9043L180.905 85.9043Z" fill="#E8FDF8"/>
<path d="M37.4053 54.4043L11.9053 50.9043L9.90527 42.9043L22.9053 31.9043L44.9053 15.4043L48.9053 28.4043L44.9053 50.9043L37.4053 54.4043Z" fill="#E8FDF8"/>
<path d="M194.98 97.7742C194.449 97.7742 193.933 97.6068 193.5 97.2861L157.584 70.9974C156.733 70.3698 156.356 69.282 156.663 68.2639L161.632 51.3332L149.544 36.6339C149.055 36.0342 148.86 35.2392 149.028 34.4861L155.797 4.36224C155.965 3.60914 156.481 2.96762 157.179 2.64685C157.877 2.31214 158.701 2.32609 159.385 2.67475L225.117 36.0621C226.359 36.6896 226.847 38.1958 226.219 39.437L197.241 96.3935C196.906 97.049 196.306 97.5231 195.58 97.7044C195.384 97.7463 195.189 97.7742 194.994 97.7742H194.98ZM161.967 67.999L194.086 91.4984L220.594 39.4231L159.985 8.64374L154.192 34.4164L166.35 49.1994C166.881 49.8409 167.048 50.7056 166.825 51.5005L161.981 68.0129L161.967 67.999Z" fill="#006D77" stroke="#006D77" stroke-width="4.81" stroke-miterlimit="10"/>
<path d="M77.2517 196.792H4.91791C3.536 196.792 2.40527 195.662 2.40527 194.282V52.3646C2.40527 51.6951 2.67053 51.0536 3.14513 50.5934L46.2075 7.56923C46.6821 7.09506 47.3243 6.83008 47.9803 6.83008H106.579C107.724 6.83008 108.729 7.61107 109.008 8.72677L116.322 37.456L133.854 45.1125C134.622 45.4472 135.166 46.1306 135.32 46.9534L138.824 65.6135C138.852 65.7669 138.866 65.9203 138.866 66.0737V105.946C138.866 106.811 138.419 107.606 137.693 108.066L114.703 122.514L105.658 147.352C105.49 147.813 105.197 148.203 104.82 148.496L83.1143 164.953L79.7503 194.574C79.6107 195.844 78.5359 196.806 77.2517 196.806V196.792ZM7.4302 191.771H75.0185L78.2567 163.307C78.3404 162.624 78.6897 162.01 79.234 161.592L101.205 144.94L110.292 119.99C110.488 119.46 110.837 119.014 111.311 118.721L133.854 104.551V66.2969L130.644 49.1709L113.209 41.5562C112.497 41.2494 111.967 40.6218 111.785 39.8687L104.653 11.8368H49.0552L7.45815 53.3966V191.014L7.4302 191.771Z" fill="#006D77" stroke="#006D77" stroke-width="4.81" stroke-miterlimit="10"/>
<path d="M47.9807 54.8753H4.91827C3.89928 54.8753 2.99175 54.2617 2.60091 53.3273C2.21006 52.3929 2.43359 51.305 3.14549 50.5938L46.2079 7.56963C46.9198 6.84443 48.0085 6.63523 48.9437 7.02573C49.879 7.41622 50.4933 8.32273 50.4933 9.34081V52.365C50.4933 53.7456 49.3626 54.8753 47.9807 54.8753ZM10.9761 49.8546H45.468V15.4074L10.9761 49.8686V49.8546Z" fill="#006D77" stroke="#006D77" stroke-width="4.81" stroke-miterlimit="10"/>
<path d="M118.346 89.8781H37.497C36.1151 89.8781 34.9844 88.7484 34.9844 87.3677C34.9844 85.9871 36.1151 84.8574 37.497 84.8574H118.346C119.728 84.8574 120.858 85.9871 120.858 87.3677C120.858 88.7484 119.728 89.8781 118.346 89.8781Z" fill="#006D77" stroke="#006D77" stroke-width="4.81" stroke-miterlimit="10"/>
<path d="M85.585 136.696H37.4833C36.1014 136.696 34.9707 135.567 34.9707 134.186C34.9707 132.805 36.1014 131.676 37.4833 131.676H85.585C86.9669 131.676 88.0976 132.805 88.0976 134.186C88.0976 135.567 86.9669 136.696 85.585 136.696Z" fill="#006D77" stroke="#006D77" stroke-width="4.81" stroke-miterlimit="10"/>
<path d="M190.683 247.488C190.431 247.488 189.472 247.432 189.22 247.349L91.0627 216.011C90.3787 215.788 89.8206 215.3 89.5275 214.645C89.2343 213.989 89.2343 213.25 89.5275 212.594L102.216 184.423C102.495 183.796 103.025 183.307 103.667 183.084L129.659 173.908L145.907 152.905C146.242 152.458 146.73 152.151 147.26 152.012L173.056 145.36L184.782 108.709C185.005 108.012 185.521 107.44 186.205 107.161C186.889 106.882 187.657 106.91 188.313 107.245L227.984 127.439C229.086 127.997 229.617 129.266 229.24 130.437L192.361 245.745C192.026 246.805 191.035 247.488 189.974 247.488H190.683ZM95.2783 212.078L188.369 241.798L223.838 130.911L188.704 113.032L177.453 148.191C177.188 149.014 176.518 149.641 175.695 149.864L149.382 156.642L133.204 177.548C132.911 177.924 132.506 178.217 132.06 178.384L106.376 187.449L95.5424 211.025L95.2783 212.078Z" fill="#006D77" stroke="#006D77" stroke-width="4.81" stroke-miterlimit="10"/>
<path d="M177.224 196.792C177.015 196.792 176.805 196.764 176.61 196.709L143.849 188.397C142.509 188.062 141.685 186.695 142.034 185.342C142.369 184.004 143.737 183.181 145.091 183.529L177.852 191.841C179.192 192.176 180.016 193.543 179.667 194.896C179.374 196.025 178.355 196.792 177.238 196.792H177.224Z" fill="#006D77" stroke="#006D77" stroke-width="4.81" stroke-miterlimit="10"/>
</svg>
