<svg width="283" height="244" viewBox="0 0 283 244" fill="none" xmlns="http://www.w3.org/2000/svg">
<g clip-path="url(#clip0_2533_3058)">
<path d="M116.817 139.004C116.453 139.004 115.481 138.985 115.117 138.836L1.82 90.7892C1.08248 90.4739 0.513011 89.8618 0.260949 89.1107C0.0088874 88.3595 0.0929079 87.5249 0.49434 86.8386L27.9504 39.6541C28.7253 38.3187 30.4337 37.8735 31.778 38.634C33.113 39.4037 33.5704 41.1008 32.8049 42.4362L6.92658 86.9035L114.874 132.688L127.281 107.408C127.963 106.026 129.634 105.451 131.025 106.128C132.416 106.805 132.995 108.465 132.313 109.847L118.739 137.501C118.254 138.484 117.264 139.068 116.219 139.068L116.817 139.004Z" fill="#006D77" stroke="#006D77" stroke-width="4.81" stroke-miterlimit="10"/>
<path d="M141.5 87.5436C140.389 87.5436 139.334 86.8758 138.895 85.7816C138.326 84.3534 139.026 82.7398 140.464 82.1741L154.178 76.7768C155.615 76.2111 157.24 76.9066 157.809 78.3348C158.379 79.7629 157.679 81.3766 156.241 81.9422L142.527 87.3395C142.191 87.4694 141.836 87.5343 141.491 87.5343L141.5 87.5436Z" fill="#006D77" stroke="#006D77" stroke-width="4.81" stroke-miterlimit="10"/>
<path d="M194.517 66.6864C193.406 66.6864 192.351 66.0187 191.912 64.9244C191.343 63.4963 192.043 61.8826 193.481 61.3169L244.565 41.2209L141.5 5.84174L38.4255 41.2209L67.9634 52.8408C69.4011 53.4065 70.1013 55.0201 69.5318 56.4483C68.9623 57.8764 67.3379 58.5719 65.9002 58.0062L29.3326 43.6227C28.2404 43.1962 27.5402 42.139 27.5682 40.9705C27.5962 39.8113 28.343 38.7819 29.454 38.4017L140.585 0.26825C141.183 0.0642291 141.818 0.0642291 142.415 0.26825L253.546 38.4109C254.657 38.7911 255.404 39.8113 255.432 40.9797C255.46 42.139 254.751 43.1962 253.668 43.632L195.553 66.4917C195.217 66.6215 194.863 66.6864 194.517 66.6864Z" fill="#006D77" stroke="#006D77" stroke-width="4.81" stroke-miterlimit="10"/>
<path d="M141.491 87.552C141.146 87.552 140.809 87.4778 140.464 87.348L93.0018 68.6708C91.5641 68.1051 90.8639 66.4914 91.4334 65.0633C92.0029 63.6352 93.6273 62.9396 95.0649 63.5053L142.527 82.1825C143.965 82.7482 144.665 84.3618 144.096 85.79C143.657 86.8843 142.602 87.552 141.491 87.552Z" fill="#006D77" stroke="#006D77" stroke-width="4.81" stroke-miterlimit="10"/>
<path d="M141.5 243.88C141.145 243.88 140.8 243.815 140.463 243.686L29.3416 199.905C28.2773 199.487 27.5771 198.458 27.5771 197.317V116.497C27.5771 114.958 28.8281 113.715 30.3778 113.715C31.9275 113.715 33.1785 114.958 33.1785 116.497V195.425L141.5 238.103L249.83 195.425V122.274C249.83 120.735 251.081 119.492 252.631 119.492C254.181 119.492 255.432 120.735 255.432 122.274V197.317C255.432 198.458 254.731 199.487 253.667 199.905L142.536 243.686C142.2 243.815 141.854 243.88 141.5 243.88Z" fill="#006D77" stroke="#006D77" stroke-width="4.81" stroke-miterlimit="10"/>
<path d="M166.28 139.041C165.234 139.041 164.736 138.485 164.251 137.493L138.979 85.9773C138.307 84.5956 138.876 82.9263 140.267 82.2586C141.658 81.5909 143.339 82.1566 144.011 83.5384L168.116 132.67L276.063 86.8862L250.194 42.4188C249.42 41.0927 249.877 39.3863 251.221 38.6166C252.556 37.8469 254.274 38.3013 255.049 39.6367L282.505 86.8212C282.906 87.5075 282.99 88.3421 282.738 89.0933C282.486 89.8445 281.917 90.4565 281.179 90.7718L167.873 138.819C167.518 138.967 167.145 139.041 166.771 139.041H166.28Z" fill="#006D77" stroke="#006D77" stroke-width="4.81" stroke-miterlimit="10"/>
<path d="M141.5 243.879C139.95 243.879 138.699 242.637 138.699 241.097V148.397C138.699 146.858 139.95 145.615 141.5 145.615C143.05 145.615 144.301 146.858 144.301 148.397V241.097C144.301 242.637 143.05 243.879 141.5 243.879Z" fill="#006D77" stroke="#006D77" stroke-width="4.81" stroke-miterlimit="10"/>
<path d="M141.5 46.6101C139.95 46.6101 138.699 45.3674 138.699 43.828V2.9032C138.699 1.36377 139.95 0.121094 141.5 0.121094C143.05 0.121094 144.301 1.36377 144.301 2.9032V43.8373C144.301 45.3767 142.95 47.0793 141.5 46.6194V46.6101Z" fill="#006D77" stroke="#006D77" stroke-width="4.81" stroke-miterlimit="10"/>
</g>
<defs>
<clipPath id="clip0_2533_3058">
<rect width="283" height="244" fill="white"/>
</clipPath>
</defs>
</svg>
