<svg width="54" height="49" viewBox="0 0 54 49" fill="none" xmlns="http://www.w3.org/2000/svg">
<path d="M29.5954 1.38824H36.3612C37.1353 1.38824 37.7634 2.01587 37.7634 2.7894V3.24911C37.7634 4.02264 37.1353 4.65027 36.3612 4.65027H29.5954C28.8213 4.65027 28.1932 4.02264 28.1932 3.24911V2.7894C28.1932 2.01587 28.8213 1.38824 29.5954 1.38824Z" fill="#E8FDF8"/>
<path d="M32.9755 8.25916C26.9342 8.25916 21.2924 10.9596 17.4963 15.6696C17.3255 15.8815 17.3586 16.1954 17.5707 16.366C17.7856 16.5367 18.0968 16.5037 18.2676 16.2917C21.8737 11.8157 27.2345 9.25015 32.9727 9.25015C43.3804 9.25015 51.8459 17.7094 51.8459 28.1093C51.8459 38.5092 43.3804 46.9685 32.9727 46.9685C27.656 46.9685 22.5569 44.7085 18.9867 40.7693C18.8021 40.5656 18.488 40.5518 18.2869 40.7335C18.0831 40.9179 18.0693 41.229 18.2511 41.4327C22.0114 45.5811 27.375 47.9595 32.9727 47.9595C43.9258 47.9595 52.8376 39.0543 52.8376 28.1093C52.8376 17.1643 43.9258 8.25916 32.9727 8.25916H32.9755Z" fill="#0E172A" stroke="#0E172A" stroke-width="0.8" stroke-miterlimit="10"/>
<path d="M29.5954 5.64403H36.3612C37.6807 5.64403 38.7551 4.57046 38.7551 3.25188V2.79217C38.7551 1.4736 37.6807 0.400024 36.3612 0.400024H29.5954C28.2758 0.400024 27.2015 1.4736 27.2015 2.79217V3.25188C27.2015 4.57046 28.2758 5.64403 29.5954 5.64403ZM28.1932 2.79217C28.1932 2.01865 28.8213 1.39102 29.5954 1.39102H36.3612C37.1353 1.39102 37.7634 2.01865 37.7634 2.79217V3.25188C37.7634 4.02541 37.1353 4.65304 36.3612 4.65304H29.5954C28.8213 4.65304 28.1932 4.02541 28.1932 3.25188V2.79217Z" fill="#0E172A" stroke="#0E172A" stroke-width="0.8" stroke-miterlimit="10"/>
<path d="M32.9755 43.5523C32.7027 43.5523 32.4796 43.3293 32.4796 43.0568V40.4857C32.4796 40.2132 32.7027 39.9902 32.9755 39.9902C33.2482 39.9902 33.4714 40.2132 33.4714 40.4857V43.0568C33.4714 43.3293 33.2482 43.5523 32.9755 43.5523Z" fill="#0E172A" stroke="#0E172A" stroke-width="0.8" stroke-miterlimit="10"/>
<path d="M32.9755 16.2283C32.7027 16.2283 32.4796 16.0054 32.4796 15.7328V13.1563C32.4796 12.8837 32.7027 12.6608 32.9755 12.6608C33.2482 12.6608 33.4714 12.8837 33.4714 13.1563V15.7328C33.4714 16.0054 33.2482 16.2283 32.9755 16.2283Z" fill="#0E172A" stroke="#0E172A" stroke-width="0.8" stroke-miterlimit="10"/>
<path d="M40.4603 41.5511C40.2895 41.5511 40.1215 41.463 40.0306 41.3033L38.7413 39.0763C38.6036 38.8396 38.6862 38.5368 38.9231 38.3991C39.16 38.2615 39.4631 38.3441 39.6008 38.5808L40.8901 40.8078C41.0278 41.0446 40.9451 41.3474 40.7082 41.485C40.6311 41.529 40.5457 41.5511 40.4603 41.5511Z" fill="#0E172A" stroke="#0E172A" stroke-width="0.8" stroke-miterlimit="10"/>
<path d="M26.7882 17.8855C26.6174 17.8855 26.4493 17.7974 26.3584 17.6378L25.0692 15.4108C24.9314 15.1741 25.0141 14.8713 25.251 14.7336C25.4879 14.596 25.7909 14.6786 25.9287 14.9153L27.2179 17.1423C27.3557 17.379 27.273 17.6818 27.0361 17.8195C26.959 17.8635 26.8736 17.8855 26.7882 17.8855Z" fill="#0E172A" stroke="#0E172A" stroke-width="0.8" stroke-miterlimit="10"/>
<path d="M45.9313 36.0785C45.8459 36.0785 45.7605 36.0565 45.6833 36.0125L43.4575 34.7297C43.2206 34.5921 43.1379 34.2892 43.2757 34.0525C43.4134 33.8158 43.7164 33.7332 43.9533 33.8708L46.1792 35.1536C46.4161 35.2913 46.4988 35.5941 46.361 35.8308C46.2701 35.9905 46.1021 36.0785 45.9313 36.0785Z" fill="#0E172A" stroke="#0E172A" stroke-width="0.8" stroke-miterlimit="10"/>
<path d="M47.9395 28.6048H45.3665C45.0938 28.6048 44.8706 28.3818 44.8706 28.1093C44.8706 27.8368 45.0938 27.6138 45.3665 27.6138H47.9395C48.2122 27.6138 48.4353 27.8368 48.4353 28.1093C48.4353 28.3818 48.2122 28.6048 47.9395 28.6048Z" fill="#0E172A" stroke="#0E172A" stroke-width="0.8" stroke-miterlimit="10"/>
<path d="M43.7081 22.4138C43.5373 22.4138 43.3693 22.3257 43.2784 22.1661C43.1406 21.9293 43.2232 21.6265 43.4602 21.4889L45.686 20.2061C45.923 20.0685 46.226 20.151 46.3637 20.3878C46.5015 20.6245 46.4188 20.9273 46.1819 21.065L43.956 22.3477C43.8789 22.3918 43.7935 22.4138 43.7081 22.4138Z" fill="#0E172A" stroke="#0E172A" stroke-width="0.8" stroke-miterlimit="10"/>
<path d="M39.171 17.8856C39.0856 17.8856 39.0002 17.8636 38.9231 17.8195C38.6861 17.6819 38.6062 17.3791 38.7412 17.1423L40.0305 14.9154C40.1682 14.6786 40.4712 14.5988 40.7082 14.7337C40.9451 14.8713 41.025 15.1741 40.89 15.4109L39.6007 17.6378C39.5098 17.7975 39.3418 17.8856 39.171 17.8856Z" fill="#0E172A" stroke="#0E172A" stroke-width="0.8" stroke-miterlimit="10"/>
<path d="M31.0857 28.1093C31.0857 29.1526 31.9342 30.0004 32.9782 30.0004C34.0223 30.0004 34.8708 29.1526 34.8708 28.1093C34.8708 27.066 34.0223 26.2181 32.9782 26.2181C31.9342 26.2181 31.0857 27.066 31.0857 28.1093Z" fill="#E8FDF8"/>
<path d="M32.9783 26.2154C34.0223 26.2154 34.8708 27.0632 34.8708 28.1065C34.8708 29.1498 34.0223 29.9977 32.9783 29.9977C31.9342 29.9977 31.0857 29.1498 31.0857 28.1065C31.0857 27.0632 31.9342 26.2154 32.9783 26.2154C32.7055 26.2154 32.4824 25.9924 32.4824 25.7199V25.2712C31.127 25.5079 30.094 26.6889 30.094 28.1093C30.094 29.7004 31.3887 30.9914 32.9783 30.9914C34.5678 30.9914 35.8625 29.6976 35.8625 28.1093C35.8625 26.6889 34.8295 25.5079 33.4741 25.2712V25.7199C33.4741 25.9924 33.251 26.2154 32.9783 26.2154Z" fill="#0E172A"/>
<path d="M32.9783 26.2154C34.0223 26.2154 34.8708 27.0632 34.8708 28.1065C34.8708 29.1498 34.0223 29.9977 32.9783 29.9977C31.9342 29.9977 31.0857 29.1498 31.0857 28.1065C31.0857 27.0632 31.9342 26.2154 32.9783 26.2154ZM32.9783 26.2154C32.7055 26.2154 32.4824 25.9924 32.4824 25.7199V25.2712C31.127 25.5079 30.094 26.6889 30.094 28.1093C30.094 29.7004 31.3887 30.9914 32.9783 30.9914C34.5678 30.9914 35.8625 29.6976 35.8625 28.1093C35.8625 26.6889 34.8295 25.5079 33.4741 25.2712V25.7199C33.4741 25.9924 33.251 26.2154 32.9783 26.2154Z" stroke="#0E172A" stroke-width="0.8" stroke-miterlimit="10"/>
<path d="M32.4825 25.7199C32.4825 25.9924 32.7056 26.2154 32.9783 26.2154C33.2511 26.2154 33.4742 25.9924 33.4742 25.7199V20.4401C33.4742 20.1676 33.2511 19.9446 32.9783 19.9446C32.7056 19.9446 32.4825 20.1676 32.4825 20.4401V25.7199Z" fill="#0E172A" stroke="#0E172A" stroke-width="0.8" stroke-miterlimit="10"/>
<path d="M20.0968 28.6048H0.895884C0.623159 28.6048 0.400024 28.3818 0.400024 28.1093C0.400024 27.8367 0.623159 27.6138 0.895884 27.6138H20.0968C20.3695 27.6138 20.5927 27.8367 20.5927 28.1093C20.5927 28.3818 20.3695 28.6048 20.0968 28.6048Z" fill="#0E172A" stroke="#0E172A" stroke-width="0.8" stroke-miterlimit="10"/>
<path d="M27.6974 37.1823H8.49647C8.22375 37.1823 8.00061 36.9594 8.00061 36.6868C8.00061 36.4143 8.22375 36.1913 8.49647 36.1913H27.6974C27.9701 36.1913 28.1933 36.4143 28.1933 36.6868C28.1933 36.9594 27.9701 37.1823 27.6974 37.1823Z" fill="#0E172A" stroke="#0E172A" stroke-width="0.8" stroke-miterlimit="10"/>
<path d="M23.0802 20.5254H3.87928C3.60656 20.5254 3.38342 20.3024 3.38342 20.0299C3.38342 19.7574 3.60656 19.5344 3.87928 19.5344H23.0802C23.3529 19.5344 23.5761 19.7574 23.5761 20.0299C23.5761 20.3024 23.3529 20.5254 23.0802 20.5254Z" fill="#0E172A" stroke="#0E172A" stroke-width="0.8" stroke-miterlimit="10"/>
</svg>
