<svg width="48" height="48" viewBox="0 0 48 48" fill="none" xmlns="http://www.w3.org/2000/svg">
<path d="M13.6702 35.4478C13.5693 35.2568 13.4874 35.0549 13.4274 34.8503C13.4874 35.0549 13.5693 35.2541 13.6702 35.4478Z" fill="#E8FDF8"/>
<path d="M35.483 27.1903L26.5947 36.0752C26.4037 36.2662 26.0926 36.2662 25.8988 36.0752L20.1652 30.3438C19.2564 29.4354 17.7773 29.4354 16.8686 30.3438L14.9528 32.2588C14.0441 33.1672 14.0441 34.6458 14.9528 35.5542L24.5971 45.1947C25.5058 46.1032 26.9849 46.1032 27.8937 45.1947L45.624 27.4713C46.0633 27.0321 46.3062 26.4456 46.3062 25.8236C46.3062 25.2016 46.0633 24.6151 45.624 24.1759L43.7082 22.2609C42.7995 21.3525 41.3204 21.3525 40.4116 22.2609L37.6226 25.0489C37.4315 25.2398 37.1204 25.2398 36.9267 25.0489C36.9239 25.0461 36.9212 25.0407 36.9185 25.0379C36.4354 25.5181 35.9524 26.0009 35.4667 26.481C35.4721 26.4865 35.4776 26.4892 35.483 26.4947C35.6741 26.6856 35.6741 26.9966 35.483 27.1903Z" fill="#E8FDF8"/>
<path d="M42.0599 20.5996C42.9087 20.5996 43.7574 20.9215 44.4014 21.568C44.2486 21.4125 43.3671 20.5478 42.0599 20.5996Z" fill="#E8FDF8"/>
<path d="M20.6128 45.8658C20.4327 45.8713 20.2526 45.874 20.0698 45.874C9.65319 45.874 1.17966 37.4037 1.17966 26.9939C1.17966 16.584 9.65319 8.11103 20.0698 8.11103C27.7328 8.11103 34.5826 12.6831 37.519 19.7594C37.6227 20.0103 37.9092 20.1276 38.1603 20.024C38.4113 19.9203 38.5287 19.6339 38.425 19.3829C35.3358 11.9383 28.1312 7.12897 20.067 7.12897C9.11285 7.1317 0.199951 16.0412 0.199951 26.9966C0.199951 37.952 9.11558 46.8588 20.0725 46.8588C20.2662 46.8588 20.4573 46.8561 20.6483 46.8479C20.9185 46.8397 21.1313 46.6133 21.1232 46.3405C21.115 46.0704 20.8803 45.844 20.6156 45.8658H20.6128Z" fill="#0E172A" stroke="#0E172A" stroke-width="0.4" stroke-miterlimit="10"/>
<path d="M17.9848 11.2018C17.9412 10.9345 17.6874 10.7517 17.4199 10.7953C14.9011 11.2045 12.475 12.222 10.4037 13.7333C10.1854 13.8943 10.1362 14.1998 10.2972 14.4208C10.3928 14.5517 10.5429 14.6226 10.6957 14.6226C10.7966 14.6226 10.8976 14.5926 10.9849 14.5272C12.9334 13.1059 15.2122 12.1484 17.5809 11.7637C17.8484 11.7201 18.0285 11.4719 17.9848 11.2018Z" fill="#0E172A" stroke="#0E172A" stroke-width="0.4" stroke-miterlimit="10"/>
<path d="M7.99666 16.6086C7.78653 16.4367 7.47542 16.4695 7.30622 16.6822C4.94837 19.593 3.6521 23.2539 3.6521 26.9966C3.6521 28.6579 3.90044 30.2974 4.39166 31.8714C4.45715 32.0815 4.65091 32.2152 4.86104 32.2152C4.91017 32.2152 4.95929 32.207 5.00841 32.1933C5.26766 32.1115 5.4123 31.8387 5.33043 31.5795C4.86923 30.101 4.63454 28.5597 4.63454 26.9966C4.63454 23.4803 5.8544 20.0349 8.07034 17.3015C8.24227 17.0914 8.20952 16.7804 7.99666 16.6113V16.6086Z" fill="#0E172A" stroke="#0E172A" stroke-width="0.4" stroke-miterlimit="10"/>
<path d="M16.1673 1.18475H23.975C24.7691 1.18475 25.4131 1.82855 25.4131 2.62238V2.70694C25.4131 3.50078 24.7691 4.14457 23.975 4.14457H16.1673C15.3732 4.14457 14.7291 3.50078 14.7291 2.70694V2.62238C14.7291 1.82855 15.3732 1.18475 16.1673 1.18475Z" fill="#E8FDF8"/>
<path d="M16.1672 5.12396H23.9749C25.3093 5.12396 26.3955 4.03823 26.3955 2.70426V2.6197C26.3955 1.28573 25.3093 0.200012 23.9749 0.200012H16.1672C14.8327 0.200012 13.7466 1.28573 13.7466 2.6197V2.70426C13.7466 4.03823 14.8327 5.12396 16.1672 5.12396ZM14.729 2.6197C14.729 1.82859 15.3731 1.18207 16.1672 1.18207H23.9749C24.7663 1.18207 25.413 1.82587 25.413 2.6197V2.70426C25.413 3.49537 24.769 4.1419 23.9749 4.1419H16.1672C15.3758 4.1419 14.729 3.4981 14.729 2.70426V2.6197Z" fill="#0E172A" stroke="#0E172A" stroke-width="0.4" stroke-miterlimit="10"/>
<path d="M3.3082 11.611C3.40371 11.7174 3.53743 11.7719 3.67115 11.7719C3.7885 11.7719 3.90585 11.731 4.00136 11.6437C4.20331 11.4609 4.21695 11.15 4.03411 10.9508L3.67115 10.5525C3.45283 10.3152 3.34095 10.0042 3.35732 9.6796C3.37369 9.35497 3.51287 9.05762 3.75302 8.84212L5.08477 7.62818C5.57872 7.17807 6.3483 7.21626 6.79858 7.70729L7.32528 8.28562C7.50812 8.48749 7.81923 8.50113 8.01844 8.31835C8.22039 8.13558 8.23403 7.82459 8.05119 7.62545L7.52449 7.0444C6.70852 6.15236 5.31947 6.08689 4.42436 6.89982L3.09261 8.11376C2.6587 8.50658 2.4049 9.04399 2.37488 9.6305C2.34759 10.2197 2.54954 10.7817 2.94251 11.2127L3.30274 11.611H3.3082Z" fill="#0E172A" stroke="#0E172A" stroke-width="0.4" stroke-miterlimit="10"/>
<path d="M36.1053 10.9509C35.9224 11.1527 35.9388 11.461 36.138 11.6438C36.2308 11.7283 36.3509 11.772 36.4682 11.772C36.6019 11.772 36.7357 11.7174 36.8312 11.611L37.1914 11.2127C37.5871 10.779 37.7891 10.217 37.7618 9.63053C37.7345 9.04403 37.4779 8.50389 37.0468 8.1138L35.715 6.89986C34.8199 6.08966 33.4308 6.1524 32.6149 7.04717L32.0882 7.62549C31.9053 7.82736 31.9217 8.13562 32.1209 8.31839C32.3229 8.50117 32.6313 8.4848 32.8141 8.28566L33.3381 7.70733C33.7883 7.21357 34.5579 7.17811 35.0519 7.62549L36.3863 8.84215C36.6238 9.05766 36.7657 9.35501 36.7793 9.67964C36.7957 10.0043 36.6838 10.3152 36.4655 10.5553L36.0821 10.9783L36.1053 10.9509Z" fill="#0E172A" stroke="#0E172A" stroke-width="0.4" stroke-miterlimit="10"/>
<path d="M46.9066 24.2823C46.7566 23.9932 46.5573 23.7231 46.3172 23.4803L44.4014 21.5653C43.7547 20.9188 42.9059 20.5969 42.06 20.5969C41.214 20.5969 40.3625 20.9188 39.7185 21.5653L36.9294 24.3532C36.7411 24.5415 36.7384 24.8443 36.9213 25.0352C36.924 25.038 36.9267 25.0434 36.9294 25.0462C37.1205 25.2371 37.4316 25.2371 37.6253 25.0462L40.4144 22.2582C41.3231 21.3498 42.8022 21.3498 43.711 22.2582L45.6267 24.1732C46.0661 24.6124 46.309 25.1989 46.309 25.8209C46.309 26.4429 46.0661 27.0294 45.6267 27.4686L27.8965 45.192C26.9877 46.1004 25.5086 46.1004 24.5998 45.192L14.9556 35.5515C14.0468 34.6431 14.0468 33.1645 14.9556 32.2561L16.8713 30.3411C17.7801 29.4327 19.2592 29.4327 20.168 30.3411L25.9016 36.0725C26.0926 36.2635 26.4037 36.2635 26.5975 36.0725L35.4858 27.1876C35.6768 26.9966 35.6768 26.6856 35.4858 26.492C35.4803 26.4865 35.4749 26.4838 35.4694 26.4783C35.2757 26.301 34.9782 26.3037 34.7899 26.492L26.2482 35.0304L20.8611 29.6455C19.5703 28.3551 17.4663 28.3551 16.1754 29.6455L14.2597 31.5605C14.0168 31.8033 13.8203 32.0733 13.6702 32.3625C13.5693 32.5535 13.4874 32.7553 13.4273 32.9599C13.3973 33.0636 13.3728 33.1672 13.3509 33.2709C13.31 33.481 13.2909 33.691 13.2909 33.9038C13.2909 34.1166 13.31 34.3266 13.3509 34.5367C13.37 34.6403 13.3973 34.744 13.4273 34.8477C13.4874 35.0523 13.5693 35.2514 13.6702 35.4451C13.8203 35.7342 14.0195 36.0043 14.2597 36.2471L23.904 45.8877C24.3078 46.2914 24.7909 46.5696 25.3039 46.7197C25.6123 46.8097 25.9289 46.8561 26.2482 46.8561C26.461 46.8561 26.6712 46.837 26.8813 46.7961C27.0914 46.7551 27.2961 46.6951 27.4953 46.6133C27.8937 46.4523 28.2676 46.2096 28.5896 45.8877L46.3199 28.1642C46.6419 27.8423 46.8848 27.4686 47.0458 27.0703C47.1277 26.8711 47.1877 26.6665 47.2287 26.4565C47.2887 26.1428 47.3051 25.8236 47.2751 25.5072C47.2341 25.0843 47.1141 24.6697 46.9121 24.2851L46.9066 24.2823Z" fill="#0E172A" stroke="#0E172A" stroke-width="0.4" stroke-miterlimit="10"/>
<path d="M25.1825 14.1211C24.9342 14.0093 24.6216 14.1125 24.5098 14.358L20.5118 23.1993C20.1406 23.0847 19.7449 23.022 19.3356 23.022C17.2752 23.022 15.575 24.566 15.3785 26.612C15.354 26.882 15.5505 27.1221 15.8206 27.1466C16.0881 27.1739 16.331 26.9748 16.3555 26.7047C16.5029 25.1634 17.7828 24.0013 19.3356 24.0013C20.9839 24.0013 22.3238 25.3407 22.3238 26.9884C22.3238 27.2148 22.2965 27.4385 22.2474 27.6513C22.1846 27.9159 22.3457 28.1805 22.6104 28.2433C22.6486 28.2515 22.6868 28.2569 22.725 28.2569C22.946 28.2569 23.148 28.1069 23.2026 27.8804C23.2708 27.5913 23.3063 27.2912 23.3063 26.9884C23.3063 25.559 22.5421 24.3068 21.4042 23.6058L25.4049 14.759C25.5168 14.5108 25.4049 14.2216 25.1593 14.1098L25.1825 14.1211Z" fill="#0E172A" stroke="#0E172A" stroke-width="0.4" stroke-miterlimit="10"/>
</svg>
