<svg width="44" height="44" viewBox="0 0 44 44" fill="none" xmlns="http://www.w3.org/2000/svg">
<path d="M38.4484 19.1061C38.6581 19.0229 38.884 19.0442 39.0724 19.1705C39.2582 19.2969 39.3696 19.4988 39.3723 19.7272H39.3752L39.5871 33.0553C38.5039 33.789 37.3886 34.423 36.2629 34.9928L30.7629 37.4313C30.7682 36.4125 30.7761 35.3963 30.7814 34.3776C30.8053 34.3829 30.8292 34.3854 30.8557 34.3854C31.1159 34.3854 31.3254 34.1703 31.3254 33.9069V22.4791C31.3256 22.1998 31.4935 21.953 31.7482 21.8483L38.4484 19.1061Z" fill="#E8FDF8"/>
<path d="M38.4484 19.1061C38.6581 19.0229 38.884 19.0442 39.0724 19.1705C39.2582 19.2969 39.3696 19.4988 39.3723 19.7272H39.3752L39.5871 33.0553C38.5039 33.789 37.3886 34.423 36.2629 34.9928L30.7629 37.4313C30.7682 36.4125 30.7761 35.3963 30.7814 34.3776C30.8053 34.3829 30.8292 34.3854 30.8557 34.3854C31.1159 34.3854 31.3254 34.1703 31.3254 33.9069V22.4791C31.3256 22.1998 31.4935 21.953 31.7482 21.8483L38.4484 19.1061Z" stroke="#0E172A"/>
<path d="M34.3982 6.33759L12.575 16.2487C12.5697 16.2514 12.5666 16.2565 12.5613 16.2565C12.527 16.2726 12.4927 16.294 12.4636 16.3181L12.4167 16.3649C12.4034 16.3804 12.3907 16.3972 12.3787 16.4147C12.3734 16.4228 12.3674 16.434 12.3621 16.4421C12.3567 16.4527 12.3468 16.4639 12.3416 16.4772C12.331 16.4959 12.3253 16.5171 12.3201 16.5358C12.3174 16.5438 12.3124 16.5494 12.3123 16.5573C12.299 16.5976 12.2937 16.6413 12.2937 16.6843V21.5173L10.3123 19.3268C10.1689 19.1656 9.9351 19.1219 9.7439 19.2214L8.1853 20.0202V14.5173L27.4783 5.7536L27.4753 5.76141C27.6266 5.69151 27.7251 5.55223 27.7517 5.39911C28.5802 5.03085 29.4115 4.66507 30.24 4.2995L34.3982 6.33759Z" fill="#E8FDF8"/>
<path d="M34.3982 6.33759L12.575 16.2487C12.5697 16.2514 12.5666 16.2565 12.5613 16.2565C12.527 16.2726 12.4927 16.294 12.4636 16.3181L12.4167 16.3649C12.4034 16.3804 12.3907 16.3972 12.3787 16.4147C12.3734 16.4228 12.3674 16.434 12.3621 16.4421C12.3567 16.4527 12.3468 16.4639 12.3416 16.4772C12.331 16.4959 12.3253 16.5171 12.3201 16.5358C12.3174 16.5438 12.3124 16.5494 12.3123 16.5573C12.299 16.5976 12.2937 16.6413 12.2937 16.6843V21.5173L10.3123 19.3268C10.1689 19.1656 9.9351 19.1219 9.7439 19.2214L8.1853 20.0202V14.5173L27.4783 5.7536L27.4753 5.76141C27.6266 5.69151 27.7251 5.55223 27.7517 5.39911C28.5802 5.03085 29.4115 4.66507 30.24 4.2995L34.3982 6.33759Z" stroke="#0E172A"/>
<path d="M24.602 40.3667L21.0807 41.9661C20.8258 42.0817 20.5602 42.157 20.2894 42.1946V26.2645C20.2894 25.9984 20.0743 25.7807 19.8114 25.7807C19.5485 25.7807 19.3333 25.9984 19.3333 26.2645V42.1785C19.0678 42.1301 18.8049 42.0495 18.5553 41.9258L2.31384 33.9635C1.59684 33.6113 1.15336 32.8936 1.15336 32.0898V13.028C1.15336 11.8371 1.84646 10.7538 2.91931 10.2645L22.5572 1.35053C23.1096 1.09785 23.7416 1.10591 24.2913 1.37742L30.2424 4.29677L34.401 6.33441L12.5776 16.2457C12.5776 16.2457 12.5696 16.2511 12.5643 16.2538C12.5298 16.2699 12.4979 16.2914 12.4661 16.3156C12.4661 16.3156 12.4607 16.3183 12.4607 16.321C12.4315 16.3479 12.405 16.3801 12.3811 16.4124C12.3758 16.4204 12.3705 16.4285 12.3651 16.4393C12.3572 16.4527 12.3492 16.4634 12.3439 16.4742C12.3359 16.493 12.3306 16.5118 12.3227 16.5333C12.3227 16.5414 12.3173 16.5468 12.3147 16.5548C12.3041 16.5979 12.2961 16.6382 12.2961 16.6812C12.2961 16.6812 12.2961 16.6839 12.2961 16.6866V21.5145L10.3151 19.3237C10.169 19.1624 9.93796 19.1194 9.74676 19.2188L8.18795 20.0172V14.5145L27.478 5.75376C27.6293 5.68387 27.7276 5.54677 27.7541 5.39086C27.7701 5.29946 27.7595 5.20269 27.7196 5.11398C27.6107 4.86935 27.3293 4.76183 27.0876 4.87204L7.71526 13.6704L4.21788 11.9581C3.98153 11.8425 3.69473 11.9419 3.58054 12.1839C3.46636 12.4258 3.56461 12.7134 3.80361 12.829L7.23195 14.5091V20.8075C7.23195 20.9769 7.31692 21.1328 7.46032 21.2188C7.60107 21.3075 7.77899 21.3129 7.9277 21.2376L9.85564 20.2484L12.4236 23.0871C12.5165 23.1893 12.644 23.243 12.7768 23.243C12.8352 23.243 12.8936 23.2323 12.9494 23.2108C13.1326 23.1382 13.2548 22.9581 13.2548 22.7591V17.4581L18.3083 19.9366C18.7996 20.1785 19.328 20.2968 19.8592 20.2968C20.3531 20.2968 20.8497 20.1919 21.3117 19.9823L24.9791 18.3183C25.2207 18.2081 25.327 17.9231 25.2207 17.6785C25.1119 17.4339 24.8304 17.3263 24.5887 17.4339L20.9187 19.0979C20.2177 19.4177 19.4183 19.4043 18.7226 19.0656L13.9054 16.7027L35.527 6.88279L40.3999 9.27258C40.7106 9.42581 40.9868 9.63011 41.2232 9.87473L27.9029 15.9258C27.6612 16.036 27.555 16.321 27.6639 16.5656C27.7435 16.7457 27.9161 16.8505 28.0994 16.8505C28.1658 16.8505 28.2321 16.8371 28.2959 16.8075L41.7861 10.6812C41.98 11.0871 42.0889 11.536 42.0889 11.9984V24.5118C42.0889 24.778 42.304 24.9957 42.5669 24.9957C42.8298 24.9957 43.0449 24.778 43.0449 24.5118V11.9984C43.0449 11.2242 42.8165 10.4769 42.4155 9.84247C42.3969 9.80484 42.3757 9.77258 42.3491 9.74301C41.9667 9.17849 41.4462 8.71075 40.8195 8.40161L24.7082 0.506447C23.9036 0.111286 22.9768 0.0978448 22.1642 0.468813L2.52894 9.3828C1.11353 10.0253 0.200012 11.4581 0.200012 13.028V32.0898C0.200012 33.2511 0.866559 34.329 1.89957 34.8344L18.1383 42.7968C18.6535 43.0522 19.2085 43.1812 19.7662 43.1946C19.7821 43.1946 19.7954 43.2 19.8114 43.2C19.8167 43.2 19.8193 43.2 19.8246 43.2C19.8353 43.2 19.8459 43.2 19.8592 43.2C20.4089 43.2 20.9586 43.0817 21.4737 42.8479L24.995 41.2484C25.2367 41.1382 25.3429 40.8532 25.234 40.6086C25.1251 40.364 24.8436 40.2565 24.602 40.3667Z" fill="#0E172A" stroke="#0E172A" stroke-width="0.4" stroke-miterlimit="10"/>
<path d="M9.38561 33.2081C9.14926 33.0925 8.86246 33.192 8.74827 33.4312C8.63408 33.6731 8.73234 33.9608 8.96868 34.0764L9.91406 34.5414C9.98045 34.5737 10.0522 34.5898 10.1212 34.5898C10.2991 34.5898 10.4691 34.4903 10.5514 34.3183C10.6656 34.0764 10.5673 33.7887 10.331 33.6731L9.38561 33.2081Z" fill="#0E172A" stroke="#0E172A" stroke-width="0.4" stroke-miterlimit="10"/>
<path d="M4.18071 30.6543C3.94437 30.5387 3.65757 30.6382 3.54338 30.8774C3.42919 31.1194 3.52744 31.407 3.76379 31.5226L6.52292 32.8747C6.58931 32.907 6.66101 32.9231 6.73005 32.9231C6.90798 32.9231 7.07793 32.8237 7.16025 32.6516C7.27444 32.4097 7.17619 32.1221 6.93984 32.0065L4.18071 30.6543Z" fill="#0E172A" stroke="#0E172A" stroke-width="0.4" stroke-miterlimit="10"/>
<path d="M43.1936 26.9097C43.1936 26.6463 42.9811 26.4339 42.7235 26.4339C42.4633 26.4339 42.2535 26.6489 42.2535 26.9124C42.2588 28.614 42.2694 30.9473 40.8514 32.1436C40.7398 32.2296 40.6283 32.3102 40.5194 32.3936L40.3176 19.7135C40.3096 19.1731 40.0388 18.6731 39.5953 18.3774C39.1518 18.0791 38.5915 18.0226 38.0976 18.2242L31.3976 20.9662C30.7841 21.2188 30.3885 21.8129 30.3885 22.4823V33.9097C30.3885 34.1463 30.5611 34.3425 30.7841 34.3801C30.808 34.3855 30.8346 34.3882 30.8585 34.3882C31.1187 34.3882 31.3285 34.1758 31.3285 33.9097V22.4823C31.3285 22.2027 31.4932 21.9554 31.7508 21.8506L38.4507 19.1086C38.6605 19.0226 38.8863 19.0468 39.0748 19.1731C39.2633 19.2995 39.3722 19.5011 39.3749 19.7296L39.5873 33.0576C38.5039 33.7887 37.3885 34.4231 36.2626 34.9957C34.6825 35.7968 33.0759 36.4769 31.4985 37.1463C29.8998 37.8237 28.2481 38.5253 26.6547 39.3371C26.421 39.4554 26.3281 39.743 26.4449 39.9769C26.5273 40.1436 26.6946 40.2404 26.8672 40.2404C26.9389 40.2404 27.0106 40.2242 27.0796 40.1893C28.6438 39.3936 30.2822 38.6973 31.8649 38.028C35.0676 36.6705 38.3764 35.2672 41.4436 32.8909C43.2175 31.3963 43.2069 28.8022 43.1989 26.9097H43.1936Z" fill="#0E172A" stroke="#0E172A" stroke-width="0.4" stroke-miterlimit="10"/>
</svg>
