<svg width="48" height="48" viewBox="0 0 48 48" fill="none" xmlns="http://www.w3.org/2000/svg">
<path d="M39.1776 44.4506H40.23C40.5027 44.4506 40.7258 44.2277 40.7258 43.9551C40.7258 43.6826 40.5027 43.4597 40.23 43.4597H39.1776C38.9049 43.4597 38.6818 43.6826 38.6818 43.9551C38.6818 44.2277 38.9049 44.4506 39.1776 44.4506Z" fill="#0E172A" stroke="#0E172A" stroke-width="0.8" stroke-miterlimit="10"/>
<path d="M33.2079 37.021H37.4724C37.7451 37.021 37.9682 36.798 37.9682 36.5255C37.9682 36.2529 37.7451 36.03 37.4724 36.03H33.2079C32.9352 36.03 32.7121 36.2529 32.7121 36.5255C32.7121 36.798 32.9352 37.021 33.2079 37.021Z" fill="#0E172A" stroke="#0E172A" stroke-width="0.8" stroke-miterlimit="10"/>
<path d="M10.233 11.0734C13.1806 11.0734 15.58 8.63447 15.58 5.63671C15.58 2.63896 13.1806 0.200012 10.233 0.200012C7.28536 0.200012 4.88593 2.63896 4.88593 5.63671C4.88593 8.63447 7.28536 11.0734 10.233 11.0734ZM10.233 1.19101C12.6352 1.19101 14.5883 3.18676 14.5883 5.63671C14.5883 8.08667 12.6352 10.0824 10.233 10.0824C7.83081 10.0824 5.87765 8.08667 5.87765 5.63671C5.87765 3.18676 7.83081 1.19101 10.233 1.19101Z" fill="#0E172A" stroke="#0E172A" stroke-width="0.4" stroke-miterlimit="10"/>
<path d="M27.5992 27.1964C27.7149 26.4642 27.5358 25.6384 27.1116 24.9364C27.0978 24.9116 27.0813 24.8896 27.062 24.8704L20.0841 16.7855C18.7425 15.1724 17.0125 14.1484 15.2136 13.9006C14.8858 13.8566 7.91621 13.8868 5.7895 13.8951C2.65455 13.8951 0.200012 16.3863 0.200012 19.5685V30.8218C0.200012 31.5761 0.492013 32.2835 1.01818 32.8148C1.53883 33.3461 2.25784 33.6517 2.98786 33.6517C3.66554 33.6517 4.29364 33.3984 4.78124 32.9772V44.3792C4.78124 46.1519 6.22473 47.5944 7.99882 47.5944C9.14482 47.5944 10.1503 46.9943 10.7206 46.0914C11.2908 46.9943 12.2991 47.5944 13.4423 47.5944C15.2164 47.5944 16.6599 46.1519 16.6599 44.3764L16.5855 21.5037L22.7535 28.6912C22.7535 28.6912 22.7756 28.716 22.7866 28.727C23.8968 29.7923 25.6268 29.8418 26.7232 28.8343C27.1915 28.3994 27.5028 27.8186 27.5992 27.1992V27.1964ZM26.6185 27.0423C26.5552 27.4497 26.3568 27.8186 26.0483 28.1048C25.343 28.7517 24.2218 28.716 23.4891 28.025L16.4616 19.8356C16.3266 19.6786 16.109 19.6208 15.9134 19.6924C15.7178 19.764 15.5911 19.9512 15.5911 20.1576L15.671 44.3737C15.671 45.6014 14.6709 46.5979 13.4451 46.5979C12.2192 46.5979 11.2192 45.5986 11.2192 44.3737V32.7845C11.2192 32.512 10.996 32.289 10.7233 32.289C10.4506 32.289 10.2275 32.512 10.2275 32.7845V44.3737C10.2275 45.6014 9.22746 46.5979 8.00158 46.5979C6.7757 46.5979 5.77572 45.5986 5.77572 44.3737V30.9237C5.77847 30.8879 5.78123 30.8521 5.78123 30.8163L5.77572 20.51C5.77572 20.2375 5.55256 20.0145 5.27984 20.0145C5.00711 20.0145 4.784 20.2375 4.784 20.51V30.8879C4.74818 31.8624 3.94654 32.6552 2.99062 32.6552C2.5168 32.6552 2.06777 32.4625 1.72618 32.1129C1.38183 31.766 1.19449 31.3063 1.19449 30.8163V19.563C1.19449 16.8929 3.17242 14.8806 5.79499 14.8806C9.34041 14.8641 14.7426 14.8476 15.0814 14.8751C16.6351 15.0898 18.1447 15.9899 19.3321 17.4186L26.2879 25.4787C26.5799 25.977 26.7039 26.544 26.624 27.0368L26.6185 27.0423Z" fill="#0E172A" stroke="#0E172A" stroke-width="0.4" stroke-miterlimit="10"/>
<path d="M27.1337 46.6006H43.5467V34.059H27.1337V46.6006ZM39.1776 43.4597H40.2299C40.5027 43.4597 40.7258 43.6827 40.7258 43.9552C40.7258 44.2277 40.5027 44.4507 40.2299 44.4507H39.1776C38.9049 44.4507 38.6817 44.2277 38.6817 43.9552C38.6817 43.6827 38.9049 43.4597 39.1776 43.4597ZM33.208 36.03H37.4724C37.7451 36.03 37.9683 36.253 37.9683 36.5255C37.9683 36.798 37.7451 37.021 37.4724 37.021H33.208C32.9352 37.021 32.7121 36.798 32.7121 36.5255C32.7121 36.253 32.9352 36.03 33.208 36.03Z" fill="#E8FDF8"/>
<path d="M44.0426 33.0652H26.6377C26.365 33.0652 26.1419 33.2882 26.1419 33.5607V47.0933C26.1419 47.3658 26.365 47.5888 26.6377 47.5888H44.0426C44.3153 47.5888 44.5384 47.3658 44.5384 47.0933V33.5607C44.5384 33.2882 44.3153 33.0652 44.0426 33.0652ZM43.5467 46.5978H27.1336V34.0562H43.5467V46.5978Z" fill="#0E172A" stroke="#0E172A" stroke-width="0.4" stroke-miterlimit="10"/>
<path d="M42.1555 20.7191C42.1555 20.9916 41.9324 21.2146 41.6597 21.2146H37.398C37.1253 21.2146 36.9022 20.9916 36.9022 20.7191V17.6801H32.8333V30.4253H46.2216V17.6801H42.1555V20.7191Z" fill="#E8FDF8"/>
<path d="M46.7175 16.6891H41.6597C41.387 16.6891 41.1638 16.9121 41.1638 17.1846V20.2237H37.8939V17.1846C37.8939 16.9121 37.6708 16.6891 37.398 16.6891H32.3375C32.0648 16.6891 31.8416 16.9121 31.8416 17.1846V30.9209C31.8416 31.1934 32.0648 31.4164 32.3375 31.4164H46.7175C46.9902 31.4164 47.2134 31.1934 47.2134 30.9209V17.1846C47.2134 16.9121 46.9902 16.6891 46.7175 16.6891ZM46.2216 30.4254H32.8333V17.6801H36.9022V20.7192C36.9022 20.9917 37.1253 21.2147 37.398 21.2147H41.6597C41.9324 21.2147 42.1556 20.9917 42.1556 20.7192V17.6801H46.2216V30.4254Z" fill="#0E172A" stroke="#0E172A" stroke-width="0.4" stroke-miterlimit="10"/>
</svg>
