<svg width="53" height="48" viewBox="0 0 53 48" fill="none" xmlns="http://www.w3.org/2000/svg">
<path d="M38.6245 22.2955C38.3793 22.1744 38.0818 22.2735 37.9606 22.5185C37.1231 24.2032 36.3931 25.6539 35.732 26.9532C33.9276 30.5043 32.5336 33.0919 31.3491 35.0986C31.3436 35.1069 31.3353 35.1261 31.327 35.1399C31.0516 35.6079 30.7843 36.0456 30.5254 36.4585C30.3794 36.6897 30.451 36.9953 30.6824 37.1412C30.7651 37.1935 30.856 37.2182 30.9469 37.2182C31.1122 37.2182 31.2719 37.1357 31.3684 36.987C31.6356 36.5631 31.9083 36.1116 32.1948 35.6299C32.2003 35.6216 32.2141 35.5941 32.2168 35.5859C33.2967 33.758 34.5446 31.4512 36.1121 28.3956C38.0047 33.8406 36.9275 39.6847 35.6355 43.734C35.4096 44.4442 34.8835 45.0196 34.1948 45.3086C33.5061 45.6004 32.7237 45.5784 32.0543 45.2453L27.6163 43.0486C27.3712 42.9275 27.0736 43.0266 26.9524 43.2716C26.8312 43.5166 26.9304 43.8139 27.1756 43.935L31.6135 46.1317C32.1122 46.3767 32.6521 46.5006 33.192 46.5006C33.6631 46.5006 34.1369 46.407 34.5805 46.2198C35.5336 45.8151 36.2636 45.0196 36.5777 44.0341C37.9854 39.6242 39.1396 33.1469 36.7182 27.2009C37.3545 25.9512 38.0515 24.561 38.8476 22.9589C38.9688 22.7139 38.8697 22.4166 38.6245 22.2955Z" fill="#0E172A" stroke="#0E172A" stroke-width="0.4" stroke-miterlimit="10"/>
<path d="M39.0709 0.590037C34.1178 -1.85992 24.6275 7.80778 21.768 13.5803C20.8149 15.5017 20.0132 17.1424 19.3135 18.5903C13.1125 20.2695 8.65522 25.1116 5.99959 28.9049C5.40731 29.7528 5.21448 30.8153 5.47067 31.8174C5.72687 32.8221 6.41006 33.6645 7.34118 34.1242L11.7792 36.3209C11.8508 36.3567 11.9252 36.3732 11.9995 36.3732C12.1814 36.3732 12.3577 36.2713 12.4431 36.0979C12.5643 35.8529 12.4651 35.5556 12.2199 35.4345L7.78195 33.2378C7.10978 32.9047 6.61942 32.2991 6.43485 31.5751C6.25028 30.8511 6.38802 30.0859 6.81777 29.4748C9.25852 25.9925 13.2585 21.5936 18.7405 19.7988C17.2529 22.9039 16.1731 25.2988 15.3714 27.2698C15.3659 27.2808 15.3604 27.2891 15.3576 27.3001C14.6331 29.0784 14.1262 30.5373 13.8012 31.7651C13.7268 31.9908 13.826 32.244 14.0436 32.3569C14.1152 32.3954 14.1951 32.412 14.2722 32.412C14.4513 32.412 14.6249 32.3156 14.713 32.1449C14.7295 32.1119 14.7433 32.0761 14.7543 32.0403C15.0684 30.8511 15.5642 29.4225 16.2722 27.6827C16.2777 27.6717 16.286 27.6552 16.2915 27.6442C17.1703 25.4833 18.3879 22.8076 20.1179 19.2262C20.8369 17.7315 21.6716 16.0303 22.6661 14.0235C25.3465 8.61709 34.4291 -0.601909 38.6412 1.48193C42.2086 3.24645 41.4703 13.016 39.3684 19.2427C39.2803 19.5015 39.4208 19.7823 39.6797 19.8704C39.9387 19.9585 40.2197 19.8181 40.3078 19.5593C42.5337 12.9637 43.3436 2.70416 39.0792 0.59279L39.0709 0.590037Z" fill="#0E172A" stroke="#0E172A" stroke-width="0.4" stroke-miterlimit="10"/>
<path d="M22.3712 34.281C21.3409 33.769 20.5089 33.3919 19.7514 33.3919C19.5806 33.3919 19.4153 33.4112 19.25 33.4525C18.25 33.7002 17.3023 34.7931 16.2638 36.8879C14.8588 39.7233 15.1261 45.8069 16.3574 46.418C16.8258 46.6492 18.2059 46.2556 20.126 44.8461C21.8698 43.5634 23.3904 41.9447 23.9992 40.717C26.2417 36.1942 24.7844 35.473 22.3739 34.281H22.3712Z" fill="#E8FDF8"/>
<path d="M22.8119 33.3947C21.4042 32.6982 20.2307 32.189 19.0103 32.4945C17.6908 32.8249 16.5668 34.0443 15.374 36.453C14.7018 37.8101 14.2914 40.1802 14.3327 42.4898C14.3575 44.0093 14.5999 46.6575 15.9167 47.3099C16.1509 47.4255 16.4126 47.4751 16.6963 47.4751C18.0021 47.4751 19.7045 46.3877 20.7155 45.6472C22.5778 44.2791 24.2169 42.5173 24.8891 41.1602C27.3849 36.1254 25.688 34.8179 22.8147 33.3947H22.8119ZM23.9993 40.7198C23.3905 41.9448 21.8726 43.5661 20.126 44.8489C18.2059 46.2611 16.8258 46.6547 16.3575 46.4207C15.1261 45.8124 14.8589 39.726 16.2638 36.8907C17.3024 34.7958 18.2528 33.703 19.25 33.4552C19.4153 33.414 19.5806 33.3947 19.7514 33.3947C20.5089 33.3947 21.3409 33.7718 22.3712 34.2838C24.7844 35.4785 26.2389 36.197 23.9965 40.7198H23.9993Z" fill="#0E172A" stroke="#0E172A" stroke-width="0.4" stroke-miterlimit="10"/>
<path d="M30.1892 18.5105C29.6878 18.2628 29.1534 18.1444 28.63 18.1444C27.3297 18.1444 26.0763 18.8656 25.462 20.1044C24.5997 21.8469 25.316 23.9665 27.057 24.8281C27.9027 25.2465 28.8587 25.3098 29.7512 25.0098C30.6438 24.7097 31.3655 24.0794 31.7842 23.2343C32.6465 21.4918 31.933 19.3721 30.1892 18.5105Z" fill="#E8FDF8"/>
<path d="M30.6301 17.6241C28.396 16.5203 25.6798 17.4342 24.5723 19.6667C23.4677 21.8991 24.3823 24.6134 26.6164 25.7172C27.25 26.031 27.9332 26.1879 28.6191 26.1879C29.1067 26.1879 29.5943 26.1081 30.0681 25.9485C31.2114 25.5631 32.137 24.7538 32.6742 23.6747C33.7789 21.4422 32.8643 18.728 30.6301 17.6214V17.6241ZM31.7871 23.237C31.3684 24.0821 30.6467 24.7125 29.7541 25.0125C28.8615 25.3126 27.9029 25.2493 27.0599 24.8308C25.3161 23.9692 24.5999 21.8496 25.4649 20.1071C26.0792 18.8656 27.3326 18.1471 28.6329 18.1471C29.1591 18.1471 29.6907 18.2655 30.1921 18.5133C31.9359 19.3749 32.6521 21.4945 31.7871 23.237Z" fill="#0E172A" stroke="#0E172A" stroke-width="0.4" stroke-miterlimit="10"/>
<path d="M47.0239 25.3841C46.9495 25.3841 46.8751 25.3676 46.8035 25.3318C46.5583 25.2107 46.4564 24.9134 46.5803 24.6684L49.0734 19.6391C49.1946 19.3941 49.4922 19.295 49.7373 19.4161C49.9825 19.5373 50.0844 19.8345 49.9605 20.0795L47.4674 25.1088C47.382 25.2823 47.2057 25.3841 47.0239 25.3841Z" fill="#0E172A" stroke="#0E172A" stroke-width="0.4" stroke-miterlimit="10"/>
<path d="M42.079 45.7463C42.0047 45.7463 41.9303 45.7297 41.8587 45.694C41.6135 45.5728 41.5115 45.2755 41.6355 45.0305L50.8999 26.3365C51.0211 26.0915 51.3186 25.9897 51.5638 26.1136C51.809 26.2347 51.9109 26.532 51.7869 26.777L42.5226 45.471C42.4372 45.6444 42.2609 45.7463 42.079 45.7463Z" fill="#0E172A" stroke="#0E172A" stroke-width="0.4" stroke-miterlimit="10"/>
<path d="M17.6109 10.3596C17.5365 10.3596 17.4621 10.343 17.3905 10.3073C17.1453 10.1861 17.0434 9.88884 17.1674 9.64384L20.8147 2.28571C20.9359 2.04071 21.2335 1.94161 21.4786 2.06274C21.7238 2.18386 21.8257 2.48116 21.7018 2.72615L18.0544 10.0843C17.969 10.2577 17.7927 10.3596 17.6109 10.3596Z" fill="#0E172A" stroke="#0E172A" stroke-width="0.4" stroke-miterlimit="10"/>
<path d="M0.696468 28.0653C0.622089 28.0653 0.547709 28.0487 0.476085 28.013C0.230908 27.8918 0.12898 27.5945 0.252946 27.3495L3.48708 20.8227C3.60829 20.5777 3.90581 20.4759 4.15098 20.5998C4.39616 20.7209 4.49809 21.0182 4.37412 21.2632L1.13999 27.79C1.05459 27.9634 0.878285 28.0653 0.696468 28.0653Z" fill="#0E172A" stroke="#0E172A" stroke-width="0.4" stroke-miterlimit="10"/>
</svg>
