<svg width="47" height="47" viewBox="0 0 47 47" fill="none" xmlns="http://www.w3.org/2000/svg">
<path d="M26.7672 14.9878C26.5138 14.8859 26.3898 14.5996 26.489 14.3436C27.0703 12.8819 26.8196 11.1642 25.8802 10.1649C24.9904 9.2235 19.6296 9.3749 13.423 9.55107L12.5773 9.57585C10.8197 9.6254 9.67924 10.1264 9.09247 11.1064C9.19164 11.3651 9.89962 11.9652 10.3762 12.3671C11.5305 13.3416 12.9685 14.5556 13.0566 15.9512C13.1833 17.958 15.5387 22.6405 17.3376 23.2984C17.4946 23.3562 17.6351 23.3809 17.7398 23.3727C18.0152 23.3534 18.2522 23.5544 18.2742 23.8269C18.2962 24.0994 18.0924 24.3389 17.8197 24.3609C17.7783 24.3637 17.7398 24.3664 17.6984 24.3664C17.6516 24.3664 17.6048 24.3637 17.5552 24.3582C17.3871 25.4841 17.2797 26.7035 17.2632 28.0056C17.3321 28.0056 17.4009 28.0221 17.4643 28.0524C17.7122 28.1708 17.8169 28.4653 17.6984 28.713C17.0263 30.1225 18.748 32.4651 19.6736 33.7231C19.7948 33.8882 19.9078 34.0396 20.0042 34.1773C20.3926 34.7223 20.7811 35.5096 21.2301 36.4235C22.2962 38.59 23.6268 41.2849 25.4532 41.651C25.9243 41.7474 26.1997 41.7446 26.354 41.7226L26.3402 40.8885C26.1997 40.594 25.9986 40.2223 25.7259 39.7681L25.5744 39.5121C24.7975 38.1853 26.0234 36.3217 27.0097 34.8269C27.1419 34.626 27.2686 34.4333 27.3815 34.2571C27.8691 33.4891 28.1143 32.0246 27.9628 30.7694C27.9298 30.4968 28.1253 30.2518 28.3953 30.2188C28.6074 30.194 28.803 30.3069 28.8939 30.4858C28.8939 29.4701 28.5689 28.3469 28.2548 26.131C27.4973 20.7851 28.208 18.8802 27.5083 14.4317C27.478 14.5253 27.4449 14.6189 27.4063 14.7125C27.3044 14.9658 27.0179 15.0924 26.7617 14.9905L26.7672 14.9878ZM27.0537 26.9788C26.8113 28.4488 25.4725 29.5196 23.8086 29.7481V31.1079C23.8086 31.3584 23.6047 31.5594 23.3568 31.5594C23.1089 31.5594 22.905 31.3557 22.905 31.1079V29.7866C22.7067 29.7784 22.5056 29.7618 22.3017 29.7261C21.4808 29.5912 20.7177 29.2663 20.0951 28.7846C19.8775 28.6167 19.8389 28.3056 20.007 28.0909C20.175 27.8735 20.4863 27.8349 20.7012 28.0028C21.1943 28.3827 21.8031 28.6415 22.4615 28.7488C24.2301 29.0406 25.8499 28.1735 26.073 26.8191C26.1777 26.1833 25.9601 25.5253 25.4559 24.9693C24.9243 24.3802 24.1502 23.9755 23.2742 23.8324C22.1777 23.6507 21.197 23.136 20.5166 22.3817C19.8086 21.5944 19.5028 20.6447 19.6571 19.706C19.8114 18.7673 20.4064 17.9635 21.3293 17.4487C21.8031 17.1817 22.3403 17.0138 22.8995 16.9367V15.4888C22.8995 15.2383 23.1033 15.0373 23.3513 15.0373C23.5992 15.0373 23.8031 15.241 23.8031 15.4888V16.8982C24.0042 16.9065 24.2025 16.9257 24.4064 16.9588C25.2273 17.0936 25.9904 17.4185 26.613 17.9002C26.8306 18.0681 26.8692 18.3792 26.7011 18.5939C26.5331 18.8114 26.2218 18.8499 26.0069 18.682C25.5138 18.3021 24.9077 18.0433 24.2466 17.936C23.3706 17.7901 22.5056 17.925 21.8141 18.3131C21.1585 18.6792 20.7397 19.2325 20.6351 19.8684C20.5304 20.5043 20.748 21.1622 21.2521 21.7183C21.7838 22.3074 22.5579 22.712 23.4339 22.8552C24.5303 23.0368 25.511 23.5516 26.1915 24.3059C26.8995 25.0932 27.2052 26.0429 27.051 26.9816L27.0537 26.9788Z" fill="#E8FDF8"/>
<path d="M41.1032 16.5019C40.8085 17.4103 41.1225 18.2389 41.4393 18.7756C41.6873 19.1968 41.8829 19.6263 42.0922 20.0805C42.6818 21.3743 43.3512 22.8222 45.4916 24.4491C45.5109 24.083 45.5192 23.7114 45.5192 23.3397C45.5192 20.0694 44.8002 16.9671 43.522 14.173C42.2217 14.8144 41.387 15.6155 41.0978 16.5019H41.1032Z" fill="#E8FDF8"/>
<path d="M2.92183 31.9393C2.81439 31.6861 2.52514 31.5677 2.2717 31.6751C2.01826 31.7824 1.8998 32.0714 2.00723 32.3247C2.24415 32.8835 2.5031 33.4396 2.78409 33.9764C2.87224 34.147 3.04579 34.2434 3.22485 34.2434C3.30198 34.2434 3.37912 34.2241 3.4535 34.1883C3.69592 34.0617 3.79235 33.7644 3.66563 33.5194C3.39841 33.0046 3.14772 32.4734 2.92458 31.9393H2.92183Z" fill="#0E172A" stroke="#0E172A" stroke-width="0.4" stroke-miterlimit="10"/>
<path d="M44.2492 13.3637C44.2437 13.3472 44.2409 13.3279 44.2327 13.3114C44.2161 13.2756 44.1969 13.2426 44.1748 13.2151C43.9682 12.7911 43.7451 12.3782 43.5137 11.9708C39.533 4.95128 31.9904 0.200012 23.3568 0.200012C10.5883 0.200012 0.200012 10.5807 0.200012 23.3397C0.200012 25.1208 0.403868 26.8935 0.803313 28.6113C0.866673 28.8783 1.13113 29.0434 1.39834 28.9801C1.66556 28.9168 1.83085 28.6525 1.76749 28.3855C1.38458 26.7421 1.18899 25.0437 1.18899 23.337C1.18899 11.123 11.131 1.18825 23.3541 1.18825C31.5551 1.18825 38.7258 5.66699 42.5578 12.3011C42.7423 12.6232 42.9214 12.948 43.0894 13.2784C41.5219 14.0492 40.5357 15.0264 40.1556 16.1936C39.8305 17.1901 39.9793 18.2581 40.5826 19.2794C40.8057 19.6538 40.9903 20.0612 41.1859 20.4934C41.8332 21.9083 42.6376 23.6563 45.3291 25.5612C45.3511 25.5777 45.3759 25.5942 45.4007 25.6107C44.2602 36.7622 34.8057 45.4912 23.3513 45.4912C16.3486 45.4912 9.68201 42.1273 5.51401 36.4952C5.35147 36.2749 5.04019 36.2281 4.81981 36.3906C4.59943 36.553 4.55259 36.864 4.71513 37.0843C9.0677 42.9697 16.0346 46.4849 23.3486 46.4849C35.398 46.4849 45.3236 37.2384 46.4035 25.4731C46.4117 25.4346 46.4145 25.396 46.4117 25.3575C46.4117 25.341 46.4117 25.3245 46.4145 25.3052C46.4696 24.6583 46.5026 24.0031 46.5026 23.3425C46.5026 19.7721 45.6872 16.389 44.2382 13.3665L44.2492 13.3637ZM45.4944 24.4463C43.3511 22.8222 42.6845 21.3715 42.0949 20.0777C41.8883 19.6235 41.69 19.1941 41.4421 18.7729C41.1253 18.2361 40.8084 17.4075 41.106 16.4991C41.3952 15.61 42.2299 14.8117 43.5302 14.1703C44.8084 16.9671 45.5274 20.0694 45.5274 23.337C45.5274 23.7086 45.5164 24.0775 45.4999 24.4463H45.4944Z" fill="#0E172A" stroke="#0E172A" stroke-width="0.4" stroke-miterlimit="10"/>
<path d="M26.602 9.48505C25.456 8.27384 21.5056 8.33164 13.3955 8.56012L12.5498 8.5849C10.4203 8.64546 8.9603 9.34191 8.20548 10.6605C7.75645 11.4478 8.63248 12.1883 9.73991 13.1242C10.7509 13.9776 12.0099 15.0401 12.0705 16.0118C12.2192 18.3627 14.7591 23.4058 16.9988 24.2261C17.1944 24.2977 17.3817 24.3417 17.5608 24.3555C17.6076 24.361 17.6572 24.3637 17.704 24.3637C17.7453 24.3637 17.7867 24.3637 17.8252 24.3582C18.098 24.3362 18.3018 24.0967 18.2798 23.8242C18.2577 23.5517 18.0208 23.3507 17.7453 23.37C17.6407 23.3782 17.5002 23.3535 17.3431 23.2957C15.5443 22.635 13.1889 17.9525 13.0622 15.9485C12.974 14.5556 11.536 13.3417 10.3818 12.3644C9.9052 11.9625 9.19445 11.3624 9.09804 11.1037C9.68481 10.1237 10.8253 9.62269 12.5829 9.57314L13.4286 9.54836C19.6351 9.37219 24.996 9.21803 25.8858 10.1622C26.8279 11.1615 27.0786 12.8792 26.4946 14.3409C26.3927 14.5942 26.5166 14.8832 26.7728 14.9851C27.0263 15.0869 27.3155 14.963 27.4174 14.707C27.4532 14.6134 27.4863 14.5199 27.5194 14.4263C28.1116 12.6617 27.7618 10.7073 26.6075 9.4823L26.602 9.48505Z" fill="#0E172A" stroke="#0E172A" stroke-width="0.4" stroke-miterlimit="10"/>
<path d="M28.3982 30.2161C28.1254 30.2492 27.9326 30.4942 27.9657 30.7667C28.1144 32.0192 27.8692 33.4864 27.3844 34.2544C27.2714 34.4334 27.1447 34.6233 27.0125 34.8243C26.0263 36.3218 24.7976 38.1854 25.5772 39.5095L25.7288 39.7655C26.0015 40.2197 26.2026 40.5913 26.3431 40.8858C26.5387 41.3015 26.6075 41.5658 26.5414 41.6621C26.5414 41.6621 26.4974 41.7007 26.3569 41.7227C26.2026 41.7447 25.9299 41.7447 25.456 41.6511C23.6296 41.2877 22.3018 38.59 21.2329 36.4236C20.7839 35.5097 20.3955 34.7224 20.0071 34.1774C19.9106 34.0397 19.7977 33.8883 19.6765 33.7232C18.7509 32.4651 17.0291 30.1225 17.7013 28.7131C17.8198 28.4654 17.7151 28.1708 17.4671 28.0525C17.401 28.0222 17.3321 28.0057 17.266 28.0057C17.076 28.0029 16.8941 28.1048 16.806 28.2865C15.8776 30.2299 17.7536 32.7845 18.8748 34.3095C18.9933 34.4692 19.1007 34.6178 19.1971 34.7499C19.5387 35.2289 19.9272 36.0217 20.3404 36.8585C21.5029 39.2204 22.9519 42.1604 25.2577 42.6201C25.5304 42.6751 25.8472 42.7247 26.1585 42.7247C26.6241 42.7247 27.0759 42.6118 27.3458 42.2319C27.894 41.4584 27.164 40.2362 26.5772 39.2562L26.4285 39.0085C25.9629 38.2157 27.0896 36.5007 27.8362 35.3693C27.9712 35.1628 28.1034 34.9647 28.2163 34.783C28.8307 33.814 29.1254 32.1513 28.9464 30.6483C28.9381 30.5878 28.9216 30.5327 28.894 30.4832C28.8031 30.3042 28.6075 30.1886 28.3954 30.2161H28.3982Z" fill="#0E172A" stroke="#0E172A" stroke-width="0.4" stroke-miterlimit="10"/>
<path d="M31.2438 11.9735C31.916 12.2708 32.6653 11.8496 33.0592 11.277C33.376 10.8146 33.5358 10.1457 33.0399 9.65292C32.5523 9.16843 31.9738 8.92068 31.4945 8.99225C31.0482 9.05832 30.6626 9.3859 30.3457 9.96673C30.2493 10.1429 30.062 10.2365 29.8747 10.2227C29.8389 10.3741 29.8168 10.5338 29.8168 10.6962C29.8168 11.3376 30.1088 11.9102 30.5689 12.2901C30.5744 12.268 30.5799 12.246 30.5909 12.224C30.7011 11.9735 30.9959 11.8606 31.2466 11.9707L31.2438 11.9735Z" fill="#E8FDF8"/>
<path d="M30.8416 12.8792C31.1391 13.0113 31.4339 13.0691 31.7231 13.0691C32.6184 13.0691 33.4201 12.5048 33.8774 11.8359C34.5578 10.8421 34.5027 9.71076 33.7396 8.94825C33.0206 8.23528 32.1501 7.89119 31.3485 8.00956C30.8168 8.08663 30.062 8.40871 29.4725 9.49329C29.343 9.73278 29.4311 10.0356 29.6736 10.165C29.7369 10.2008 29.8058 10.2173 29.8747 10.2228C30.062 10.2365 30.2493 10.1429 30.3457 9.96677C30.6625 9.38594 31.0482 9.0556 31.4945 8.99229C31.9738 8.92072 32.5523 9.16847 33.0399 9.65295C33.5358 10.1457 33.376 10.8146 33.0592 11.2771C32.668 11.8497 31.9187 12.2736 31.2438 11.9735C30.9931 11.8634 30.7011 11.9735 30.5882 12.2268C30.5799 12.2488 30.5716 12.2708 30.5661 12.2929C30.5 12.5268 30.6102 12.7801 30.8388 12.8819L30.8416 12.8792Z" fill="#0E172A" stroke="#0E172A" stroke-width="0.4" stroke-miterlimit="10"/>
<path d="M23.4368 22.8496C22.5607 22.7037 21.7839 22.3018 21.255 21.7128C20.7508 21.1539 20.5332 20.4988 20.6379 19.8629C20.7426 19.227 21.1613 18.6737 21.8169 18.3076C22.5084 17.9194 23.3734 17.7873 24.2494 17.9305C24.9078 18.0378 25.5166 18.2966 26.0097 18.6765C26.2274 18.8444 26.5387 18.8058 26.704 18.5884C26.872 18.3709 26.8307 18.0598 26.6158 17.8947C25.9932 17.4157 25.2329 17.0881 24.4092 16.9532C24.2081 16.9202 24.007 16.9037 23.8059 16.8927V15.4833C23.8059 15.2328 23.602 15.0318 23.3541 15.0318C23.1062 15.0318 22.9023 15.2355 22.9023 15.4833V16.9312C22.3403 17.0083 21.8059 17.1762 21.3321 17.4432C20.4092 17.9607 19.8142 18.7618 19.6599 19.7005C19.5057 20.6392 19.8087 21.5889 20.5194 22.3762C21.1999 23.1304 22.1806 23.6479 23.277 23.8269C24.153 23.9728 24.9299 24.3747 25.4588 24.9638C25.9629 25.5226 26.1805 26.1777 26.0759 26.8136C25.8527 28.1707 24.2301 29.0351 22.4643 28.7433C21.8032 28.6332 21.1944 28.3772 20.704 27.9973C20.4864 27.8294 20.1751 27.8707 20.0098 28.0854C19.8417 28.3029 19.8831 28.6139 20.0979 28.7791C20.7205 29.2581 21.4809 29.5856 22.3045 29.7205C22.5084 29.7536 22.7067 29.7701 22.9078 29.7811V31.1024C22.9078 31.3529 23.1117 31.5539 23.3596 31.5539C23.6076 31.5539 23.8114 31.3502 23.8114 31.1024V29.7426C25.4753 29.5141 26.8141 28.4433 27.0566 26.9733C27.2108 26.0346 26.9078 25.0849 26.1971 24.2976C25.5166 23.5433 24.5359 23.0258 23.4395 22.8469L23.4368 22.8496Z" fill="#0E172A" stroke="#0E172A" stroke-width="0.4" stroke-miterlimit="10"/>
</svg>
