<svg width="251" height="316" viewBox="0 0 251 316" fill="none" xmlns="http://www.w3.org/2000/svg">
<path d="M161.777 269.487C161.593 268.488 161.943 267.489 162.659 266.789L183.912 246.677C186.461 244.263 187.36 240.849 186.311 237.569C185.211 234.14 182.363 231.775 178.682 231.259L149.318 227.113C148.352 226.98 147.502 226.381 147.069 225.498L133.944 199.658C132.329 196.478 129.164 194.58 125.483 194.58C121.802 194.58 118.638 196.478 117.022 199.658L103.897 225.498C103.447 226.364 102.614 226.964 101.648 227.113L72.2838 231.259C68.6028 231.775 65.7381 234.14 64.6388 237.569C63.5894 240.849 64.489 244.263 67.0373 246.677L88.2904 266.789C89.0232 267.472 89.3562 268.488 89.173 269.487L84.1595 297.874C83.5599 301.237 84.8924 304.484 87.7073 306.565C90.672 308.763 94.5697 309.079 97.8676 307.381L124.134 293.978C124.567 293.762 125.033 293.645 125.5 293.645C125.966 293.645 126.432 293.762 126.865 293.978L153.132 307.381C156.43 309.063 160.327 308.746 163.292 306.565C166.107 304.484 167.423 301.237 166.84 297.874L161.826 269.487H161.777Z" fill="#E8FDF8"/>
<path d="M167.968 270.035L188.039 251.038C192.236 247.059 193.768 241.198 192.02 235.754C190.237 230.159 185.44 226.163 179.511 225.331L151.696 221.402L139.27 196.96C136.655 191.799 131.359 188.602 125.462 188.602C119.566 188.602 114.27 191.799 111.655 196.96L99.2292 221.402L71.4138 225.331C65.4843 226.163 60.6874 230.159 58.9052 235.754C57.173 241.198 58.6887 247.059 62.886 251.038L82.9563 270.035L78.2261 296.841C77.2434 302.402 79.492 307.979 84.1057 311.393C88.9193 314.956 95.2152 315.455 100.562 312.741L125.462 300.038L150.363 312.741C152.645 313.907 155.093 314.473 157.525 314.473C160.806 314.473 164.054 313.44 166.819 311.393C171.433 307.979 173.681 302.402 172.699 296.841L167.968 270.035ZM163.255 306.581C160.29 308.779 156.392 309.095 153.095 307.397L126.828 293.994C126.395 293.777 125.929 293.661 125.462 293.661C124.996 293.661 124.53 293.777 124.097 293.994L97.8302 307.397C94.5323 309.078 90.6348 308.762 87.6701 306.581C84.8552 304.5 83.5394 301.253 84.1224 297.89L89.1358 269.502C89.319 268.503 88.9692 267.504 88.253 266.805L67 246.692C64.4516 244.278 63.5521 240.865 64.6014 237.585C65.7007 234.155 68.549 231.791 72.2466 231.275L101.611 227.129C102.577 226.996 103.427 226.396 103.86 225.514L116.985 199.674C118.6 196.494 121.765 194.596 125.446 194.596C129.127 194.596 132.291 196.494 133.907 199.674L147.032 225.514C147.482 226.38 148.314 226.979 149.281 227.129L178.645 231.275C182.326 231.791 185.191 234.155 186.273 237.585C187.323 240.882 186.423 244.278 183.875 246.692L162.622 266.805C161.889 267.488 161.556 268.503 161.739 269.502L166.753 297.89C167.352 301.253 166.02 304.5 163.205 306.581H163.255Z" fill="#0E172A" stroke="#0E172A" stroke-width="2.25714" stroke-miterlimit="10"/>
<path d="M233.614 209.231L209.446 205.801L198.653 184.59C196.288 179.945 191.541 177.064 186.228 177.064C180.914 177.064 176.167 179.945 173.802 184.59L162.393 207C161.643 208.482 162.226 210.28 163.709 211.029C165.191 211.779 166.99 211.196 167.74 209.714L179.149 187.304C180.498 184.64 183.146 183.058 186.228 183.058C189.309 183.058 191.957 184.64 193.306 187.304L204.799 209.914C205.249 210.78 206.082 211.379 207.048 211.529L232.781 215.175C235.863 215.608 238.244 217.573 239.16 220.42C240.043 223.167 239.294 225.997 237.162 228.012L218.557 245.627C217.824 246.326 217.491 247.325 217.674 248.324L222.055 273.199C222.554 275.996 221.455 278.71 219.106 280.441C217.158 281.873 213.91 282.822 210.595 281.141L188.543 269.886C187.06 269.136 185.261 269.719 184.512 271.201C183.762 272.683 184.345 274.481 185.828 275.23L207.88 286.485C209.929 287.534 212.128 288.05 214.326 288.05C217.274 288.05 220.206 287.118 222.688 285.27C226.835 282.19 228.867 277.178 227.968 272.167L223.87 248.891L241.292 232.391C245.073 228.811 246.456 223.533 244.873 218.622C243.258 213.593 238.944 210.014 233.631 209.265L233.614 209.231Z" fill="#0E172A" stroke="#0E172A" stroke-width="2.25714" stroke-miterlimit="10"/>
<path d="M62.4241 269.869L40.3549 281.124C37.057 282.806 33.7925 281.873 31.8604 280.425C29.5119 278.693 28.4126 275.979 28.9123 273.182L33.2928 248.324C33.4594 247.325 33.1262 246.326 32.41 245.627L13.8052 228.012C11.6732 225.997 10.9238 223.167 11.8066 220.42C12.7226 217.556 15.1044 215.608 18.1857 215.175L43.9027 211.529C44.8687 211.396 45.7181 210.796 46.1512 209.914L57.6438 187.304C58.993 184.64 61.6413 183.058 64.7226 183.058C67.804 183.058 70.4523 184.64 71.8014 187.304L83.2107 209.714C83.9602 211.196 85.7758 211.779 87.2415 211.029C88.7239 210.28 89.3067 208.482 88.5572 207L77.1479 184.59C74.7828 179.945 70.0359 177.064 64.7226 177.064C59.426 177.064 54.6623 179.945 52.2971 184.59L41.5041 205.801L17.3363 209.231C12.0063 209.98 7.69243 213.56 6.0768 218.588C4.51114 223.5 5.87697 228.778 9.65787 232.357L27.0802 248.857L22.9827 272.133C22.0832 277.145 24.1153 282.173 28.2627 285.237C30.7444 287.068 33.6759 288.017 36.624 288.017C38.8059 288.017 41.0212 287.501 43.0532 286.452L65.1057 275.197C66.5881 274.448 67.1711 272.633 66.4216 271.168C65.672 269.686 63.8565 269.103 62.3907 269.852L62.4241 269.869Z" fill="#0E172A" stroke="#0E172A" stroke-width="2.25714" stroke-miterlimit="10"/>
<path d="M248.389 185.722C248.372 185.589 248.338 185.439 248.289 185.306C245.557 176.432 240.61 168.54 234.014 162.48C219.024 148.344 197.471 148.277 178.35 150.092C178.333 150.092 178.317 150.092 178.3 150.092C162.527 151.274 146.737 159.616 135.178 165.76C135.094 165.793 134.995 165.843 134.911 165.893C132.963 166.958 131.047 167.641 129.048 167.941C128.949 167.941 128.849 167.957 128.749 167.974C126.933 168.224 125.101 168.174 123.152 167.857C123.102 167.857 123.069 167.857 123.019 167.841C117.339 166.925 111.426 163.795 105.713 160.748C102.499 159.05 99.2176 157.318 95.9197 155.92C99.5174 152.14 102.632 146.829 104.548 141.018C106.696 134.492 107.179 127.915 106.046 121.855C112.076 124.618 118.622 126.133 125.467 126.133C127.116 126.133 128.466 124.785 128.466 123.137C128.466 121.488 127.116 120.14 125.467 120.14C117.373 120.14 109.728 117.692 103.032 113.363C102.765 113.18 102.482 113.014 102.216 112.83C88.9909 103.89 79.6135 87.4899 77.9812 67.91C77.9812 67.86 77.9812 67.81 77.9812 67.7601C77.8313 66.0119 77.7647 64.1305 77.7647 61.9994C77.7647 56.9712 78.3143 51.993 79.3636 47.1313C88.4744 50.0117 103.581 50.7109 125.467 50.7109C134.612 50.7109 142.107 50.5611 148.386 50.2448C150.035 50.1615 151.317 48.763 151.234 47.098C151.151 45.4497 149.735 44.1843 148.086 44.2509C141.907 44.5506 134.512 44.7005 125.467 44.7005C88.4412 44.7005 74.6667 42.153 74.6667 35.3101C74.6667 28.4671 96.3195 7.10568 125.467 7.10568C154.615 7.10568 176.268 28.7002 176.268 35.3101C176.268 36.692 176.268 39.2727 170.055 41.2873C168.856 41.587 167.94 42.6026 167.807 43.868C166.291 57.3874 149.685 66.1285 125.501 66.1285C115.924 66.1285 107.146 64.6966 100.1 61.9827C98.5514 61.3833 96.8192 62.1492 96.2196 63.6976C95.62 65.246 96.386 66.9776 97.935 67.577C105.647 70.5572 115.174 72.1389 125.484 72.1389C151.884 72.1389 170.422 62.1159 173.47 46.4486C179.383 44.1343 182.264 40.4881 182.264 35.3267C182.264 29.3495 175.569 20.9082 165.209 13.8155C158.28 9.07038 143.906 1.12854 125.484 1.12854C94.987 1.12854 68.6872 24.0716 68.6872 35.3267C68.6872 39.3892 70.3528 42.4029 73.8005 44.6339C72.4847 50.2948 71.7686 56.1221 71.7686 61.9994C71.7686 64.2637 71.8519 66.2784 72.0018 68.1598C72.0018 68.2097 72.0018 68.2596 72.0018 68.2929C73.7673 89.6543 84.044 107.603 98.618 117.592C104.531 131.695 96.5527 148.078 89.5072 153.672C71.2689 148.044 45.3689 145.913 25.5982 156.519C13.9391 162.763 6.21063 172.453 2.6296 185.339C2.59628 185.439 2.57956 185.539 2.56291 185.656C2.56291 185.656 1.98001 189.186 1.16386 194.497C0.914023 196.128 2.02997 197.66 3.66226 197.91C5.29454 198.143 6.82697 197.044 7.07681 195.412C7.79302 190.801 8.32592 187.554 8.44251 186.805C11.5905 175.633 18.3195 167.225 28.4297 161.814C47.0011 151.857 71.8186 154.221 88.9243 159.766C89.0575 159.816 89.1908 159.866 89.3407 159.899C93.7046 161.131 98.1682 163.512 102.898 166.026C109.078 169.306 115.474 172.702 122.186 173.751C122.22 173.751 122.269 173.751 122.303 173.768C124.818 174.168 127.2 174.201 129.565 173.885C129.615 173.885 129.665 173.885 129.715 173.885C132.446 173.502 135.028 172.636 137.593 171.237C137.66 171.204 137.71 171.171 137.776 171.154C148.886 165.26 164.076 157.202 178.667 156.086C178.717 156.086 178.767 156.086 178.817 156.086C196.622 154.388 216.625 154.355 229.917 166.892C235.713 172.203 240.044 179.113 242.476 186.888L243.841 195.479C244.074 196.961 245.357 198.01 246.806 198.01C246.956 198.01 247.123 198.01 247.289 197.976C248.921 197.71 250.037 196.178 249.771 194.547L248.372 185.756L248.389 185.722Z" fill="#0E172A" stroke="#0E172A" stroke-width="2.25714" stroke-miterlimit="10"/>
<path d="M177.883 76.2181C177.916 76.0349 177.933 75.8352 177.933 75.6354C177.933 73.9871 176.584 72.655 174.935 72.655C173.453 72.655 172.22 73.7373 171.987 75.1525C168.906 91.3192 160.278 105.138 148.285 113.064C147.819 113.38 147.453 113.813 147.22 114.312C145.271 118.558 144.288 123.237 144.288 128.181C144.288 132.144 144.921 136.19 146.154 140.236C146.553 141.534 147.736 142.35 149.018 142.35C149.301 142.35 149.601 142.317 149.901 142.217C151.483 141.734 152.383 140.053 151.883 138.471C150.817 134.991 150.284 131.528 150.284 128.165C150.284 124.369 150.967 120.806 152.333 117.542C165.291 108.651 174.569 93.6335 177.883 76.1847V76.2181Z" fill="#0E172A" stroke="#0E172A" stroke-width="2.25714" stroke-miterlimit="10"/>
</svg>
