<svg width="274" height="276" viewBox="0 0 274 276" fill="none" xmlns="http://www.w3.org/2000/svg">
<path d="M226.066 256.499H232.139C233.713 256.499 235 255.212 235 253.639C235 252.066 233.713 250.78 232.139 250.78H226.066C224.492 250.78 223.204 252.066 223.204 253.639C223.204 255.212 224.492 256.499 226.066 256.499Z" fill="#0E172A" stroke="#0E172A" stroke-width="2.25714" stroke-miterlimit="10"/>
<path d="M191.618 213.622H216.228C217.802 213.622 219.09 212.335 219.09 210.762C219.09 209.19 217.802 207.903 216.228 207.903H191.618C190.044 207.903 188.757 209.19 188.757 210.762C188.757 212.335 190.044 213.622 191.618 213.622Z" fill="#0E172A" stroke="#0E172A" stroke-width="2.25714" stroke-miterlimit="10"/>
<path d="M59.0278 63.8789C76.0386 63.8789 89.8855 49.8037 89.8855 32.5037C89.8855 15.2037 76.0386 1.12854 59.0278 1.12854C42.0171 1.12854 28.1699 15.2037 28.1699 32.5037C28.1699 49.8037 42.0171 63.8789 59.0278 63.8789ZM59.0278 6.84756C72.8908 6.84756 84.1623 18.365 84.1623 32.5037C84.1623 46.6424 72.8908 58.1599 59.0278 58.1599C45.1648 58.1599 33.8931 46.6424 33.8931 32.5037C33.8931 18.365 45.1648 6.84756 59.0278 6.84756Z" fill="#0E172A" stroke="#0E172A" stroke-width="2.25714" stroke-miterlimit="10"/>
<path d="M159.249 156.925C159.917 152.699 158.884 147.933 156.435 143.882C156.356 143.739 156.261 143.612 156.149 143.501L115.88 96.8432C108.138 87.5339 98.1538 81.6243 87.7725 80.1945C85.8806 79.9404 45.659 80.1151 33.3858 80.1628C15.294 80.1628 1.12891 94.5397 1.12891 112.904V177.847C1.12891 182.2 2.81404 186.282 5.85054 189.348C8.85524 192.414 13.0046 194.178 17.2176 194.178C21.1285 194.178 24.7532 192.716 27.5671 190.286V256.086C27.5671 266.317 35.8975 274.641 46.1358 274.641C52.7493 274.641 58.552 271.178 61.8429 265.967C65.1338 271.178 70.9524 274.641 77.5501 274.641C87.7883 274.641 96.1189 266.317 96.1189 256.07L95.6896 124.072L131.285 165.551C131.285 165.551 131.412 165.694 131.476 165.757C137.883 171.905 147.867 172.191 154.194 166.377C156.897 163.867 158.693 160.515 159.249 156.941V156.925ZM153.59 156.035C153.224 158.386 152.079 160.515 150.299 162.167C146.229 165.9 139.759 165.694 135.53 161.706L94.9743 114.445C94.1953 113.54 92.9394 113.206 91.8106 113.619C90.6819 114.032 89.9505 115.112 89.9505 116.304L90.4116 256.054C90.4116 263.14 84.6405 268.89 77.566 268.89C70.4914 268.89 64.7205 263.124 64.7205 256.054V189.174C64.7205 187.601 63.4327 186.314 61.8588 186.314C60.2849 186.314 58.9973 187.601 58.9973 189.174V256.054C58.9973 263.14 53.2263 268.89 46.1517 268.89C39.0771 268.89 33.3063 263.124 33.3063 256.054V178.435C33.3222 178.228 33.3381 178.022 33.3381 177.815L33.3063 118.337C33.3063 116.764 32.0184 115.478 30.4446 115.478C28.8707 115.478 27.583 116.764 27.583 118.337V178.228C27.3764 183.852 22.7501 188.427 17.2335 188.427C14.4991 188.427 11.9077 187.315 9.93641 185.297C7.94917 183.296 6.86803 180.643 6.86803 177.815V112.872C6.86803 97.4628 18.2826 85.85 33.4175 85.85C53.8781 85.7547 85.054 85.6594 87.0094 85.8182C95.9758 87.0573 104.688 92.2521 111.54 100.497L151.682 147.012C153.367 149.887 154.083 153.16 153.622 156.003L153.59 156.035Z" fill="#0E172A" stroke="#0E172A" stroke-width="2.25714" stroke-miterlimit="10"/>
<path d="M156.561 268.906H251.28V196.529H156.561V268.906ZM226.066 250.78H232.139C233.713 250.78 235.001 252.067 235.001 253.639C235.001 255.212 233.713 256.499 232.139 256.499H226.066C224.492 256.499 223.204 255.212 223.204 253.639C223.204 252.067 224.492 250.78 226.066 250.78ZM191.615 207.903H216.225C217.799 207.903 219.087 209.19 219.087 210.763C219.087 212.335 217.799 213.622 216.225 213.622H191.615C190.041 213.622 188.754 212.335 188.754 210.763C188.754 209.19 190.041 207.903 191.615 207.903Z" fill="#E8FDF8"/>
<path d="M254.142 190.794H153.699C152.126 190.794 150.838 192.08 150.838 193.653V271.749C150.838 273.322 152.126 274.609 153.699 274.609H254.142C255.716 274.609 257.004 273.322 257.004 271.749V193.653C257.004 192.08 255.716 190.794 254.142 190.794ZM251.281 268.89H156.561V196.513H251.281V268.89Z" fill="#0E172A" stroke="#0E172A" stroke-width="2.25714" stroke-miterlimit="10"/>
<path d="M243.25 119.544C243.25 121.117 241.962 122.404 240.388 122.404H215.794C214.22 122.404 212.932 121.117 212.932 119.544V102.006H189.451V175.559H266.715V102.006H243.25V119.544Z" fill="#E8FDF8"/>
<path d="M269.582 96.2874H240.394C238.82 96.2874 237.532 97.5741 237.532 99.1469V116.685H218.661V99.1469C218.661 97.5741 217.373 96.2874 215.8 96.2874H186.595C185.021 96.2874 183.733 97.5741 183.733 99.1469V178.419C183.733 179.992 185.021 181.278 186.595 181.278H269.582C271.156 181.278 272.444 179.992 272.444 178.419V99.1469C272.444 97.5741 271.156 96.2874 269.582 96.2874ZM266.72 175.559H189.457V102.006H212.938V119.545C212.938 121.117 214.226 122.404 215.8 122.404H240.394C241.967 122.404 243.255 121.117 243.255 119.545V102.006H266.72V175.559Z" fill="#0E172A" stroke="#0E172A" stroke-width="2.25714" stroke-miterlimit="10"/>
</svg>
