<svg width="268" height="268" viewBox="0 0 268 268" fill="none" xmlns="http://www.w3.org/2000/svg">
<path d="M153.553 85.969C152.099 85.3846 151.388 83.7422 151.957 82.2734C155.292 73.8872 153.854 64.0323 148.464 58.2994C143.359 52.8981 112.603 53.7667 76.9946 54.7775L72.1425 54.9196C62.059 55.2039 55.5158 58.0783 52.1494 63.7006C52.7184 65.1852 56.7802 68.6281 59.5144 70.9339C66.1367 76.5247 74.3867 83.4895 74.8925 91.4966C75.6195 103.01 89.1327 129.874 99.4533 133.649C100.354 133.98 101.16 134.122 101.761 134.075C103.341 133.964 104.7 135.117 104.827 136.681C104.953 138.244 103.784 139.618 102.219 139.745C101.982 139.761 101.761 139.776 101.524 139.776C101.255 139.776 100.986 139.761 100.702 139.729C99.7377 146.188 99.1213 153.185 99.0265 160.655C99.4216 160.655 99.8167 160.75 100.18 160.923C101.603 161.602 102.203 163.292 101.524 164.714C97.6673 172.8 107.545 186.24 112.856 193.457C113.551 194.405 114.199 195.273 114.752 196.063C116.981 199.19 119.209 203.707 121.786 208.95C127.902 221.38 135.536 236.841 146.014 238.942C148.717 239.494 150.297 239.479 151.182 239.352L151.103 234.567C150.297 232.877 149.144 230.745 147.579 228.139L146.71 226.67C142.253 219.058 149.286 208.366 154.944 199.79C155.703 198.637 156.43 197.532 157.078 196.521C159.875 192.115 161.282 183.713 160.413 176.511C160.223 174.948 161.345 173.542 162.894 173.353C164.111 173.21 165.233 173.858 165.754 174.884C165.754 169.057 163.89 162.613 162.088 149.9C157.742 119.229 161.819 108.301 157.805 82.7788C157.631 83.3157 157.441 83.8527 157.22 84.3897C156.635 85.8426 154.991 86.5691 153.522 85.9848L153.553 85.969ZM155.197 154.764C153.806 163.198 146.125 169.341 136.579 170.652V178.454C136.579 179.891 135.409 181.044 133.987 181.044C132.564 181.044 131.395 179.875 131.395 178.454V170.873C130.257 170.826 129.103 170.731 127.934 170.526C123.224 169.752 118.846 167.888 115.274 165.124C114.025 164.161 113.804 162.376 114.768 161.144C115.732 159.897 117.518 159.676 118.751 160.639C121.58 162.819 125.073 164.303 128.85 164.919C138.997 166.593 148.29 161.618 149.57 153.848C150.171 150.2 148.922 146.425 146.03 143.235C142.98 139.855 138.539 137.534 133.513 136.712C127.222 135.67 121.596 132.717 117.692 128.389C113.63 123.873 111.876 118.424 112.761 113.038C113.646 107.653 117.06 103.041 122.354 100.088C125.073 98.5561 128.155 97.5928 131.363 97.1506V88.8434C131.363 87.4062 132.533 86.2533 133.955 86.2533C135.378 86.2533 136.547 87.422 136.547 88.8434V96.9294C137.701 96.9768 138.839 97.0874 140.008 97.2769C144.718 98.0508 149.096 99.9144 152.668 102.678C153.917 103.642 154.138 105.426 153.174 106.658C152.21 107.906 150.424 108.127 149.191 107.163C146.362 104.984 142.885 103.499 139.092 102.883C134.066 102.046 129.103 102.82 125.136 105.047C121.375 107.148 118.972 110.322 118.372 113.97C117.771 117.618 119.02 121.393 121.912 124.583C124.962 127.963 129.403 130.285 134.429 131.106C140.72 132.148 146.346 135.102 150.25 139.429C154.312 143.946 156.066 149.394 155.181 154.78L155.197 154.764Z" fill="#E8FDF8"/>
<path d="M235.797 94.6557C234.106 99.8674 235.908 104.621 237.726 107.701C239.148 110.117 240.27 112.581 241.471 115.187C244.854 122.61 248.694 130.917 260.975 140.251C261.085 138.15 261.133 136.018 261.133 133.886C261.133 115.124 257.008 97.3247 249.674 81.2947C242.214 84.9745 237.425 89.5703 235.766 94.6557H235.797Z" fill="#E8FDF8"/>
<path d="M16.7432 183.224C16.1268 181.771 14.4673 181.092 13.0133 181.707C11.5592 182.323 10.8796 183.982 11.496 185.435C12.8552 188.641 14.3409 191.831 15.953 194.911C16.4587 195.89 17.4544 196.443 18.4817 196.443C18.9242 196.443 19.3668 196.332 19.7935 196.127C21.1844 195.4 21.7376 193.695 21.0105 192.289C19.4775 189.336 18.0392 186.288 16.759 183.224H16.7432Z" fill="#0E172A" stroke="#0E172A" stroke-width="2.25714" stroke-miterlimit="10"/>
<path d="M253.848 76.6514C253.817 76.5567 253.801 76.4461 253.753 76.3514C253.659 76.146 253.548 75.9565 253.421 75.7986C252.236 73.3665 250.956 70.9975 249.628 68.6601C226.79 28.3875 183.517 1.12854 133.984 1.12854C60.7289 1.12854 1.12891 60.6846 1.12891 133.886C1.12891 144.104 2.29847 154.275 4.59017 164.13C4.95368 165.662 6.4709 166.609 8.00397 166.246C9.53704 165.883 10.4854 164.367 10.1219 162.835C7.92499 153.406 6.80288 143.662 6.80288 133.87C6.80288 63.7958 63.8425 6.79829 133.969 6.79829C181.02 6.79829 222.16 32.4938 244.144 70.5553C245.203 72.4031 246.23 74.2667 247.194 76.1618C238.201 80.5839 232.543 86.1905 230.362 92.8868C228.497 98.6039 229.351 104.732 232.812 110.591C234.092 112.739 235.151 115.076 236.273 117.556C239.987 125.673 244.602 135.702 260.044 146.631C260.17 146.726 260.312 146.82 260.455 146.915C253.911 210.893 199.669 260.973 133.953 260.973C93.7768 260.973 55.5291 241.674 31.6164 209.361C30.6839 208.098 28.898 207.829 27.6336 208.761C26.3693 209.693 26.1006 211.478 27.0331 212.741C52.0047 246.507 91.9751 266.675 133.937 266.675C203.067 266.675 260.012 213.626 266.208 146.126C266.255 145.904 266.271 145.683 266.255 145.462C266.255 145.367 266.255 145.273 266.271 145.162C266.587 141.451 266.777 137.692 266.777 133.902C266.777 113.418 262.098 94.0081 253.785 76.6672L253.848 76.6514ZM260.992 140.235C248.696 130.917 244.871 122.594 241.489 115.171C240.303 112.565 239.166 110.101 237.743 107.685C235.926 104.605 234.108 99.8516 235.815 94.6398C237.474 89.5387 242.263 84.9586 249.723 81.2788C257.057 97.3247 261.182 115.124 261.182 133.87C261.182 136.002 261.118 138.118 261.024 140.235H260.992Z" fill="#0E172A" stroke="#0E172A" stroke-width="2.25714" stroke-miterlimit="10"/>
<path d="M152.605 54.3986C146.03 47.4496 123.366 47.7812 76.8365 49.0921L71.9844 49.2342C59.7672 49.5817 51.3906 53.5773 47.0601 61.1422C44.4839 65.6591 49.5099 69.9074 55.8634 75.2771C61.6638 80.173 68.8866 86.2692 69.2343 91.8442C70.0878 105.332 84.6598 134.265 97.5091 138.971C98.6313 139.382 99.7061 139.634 100.733 139.713C101.002 139.745 101.286 139.761 101.555 139.761C101.792 139.761 102.029 139.761 102.251 139.729C103.815 139.603 104.985 138.229 104.858 136.665C104.732 135.102 103.373 133.949 101.792 134.059C101.192 134.107 100.386 133.965 99.4847 133.633C89.1642 129.843 75.6511 102.978 74.924 91.4809C74.4183 83.4896 66.1682 76.5248 59.546 70.9182C56.8117 68.6124 52.734 65.1695 52.1809 63.6849C55.5473 58.0626 62.0905 55.1882 72.174 54.9039L77.0261 54.7618C112.634 53.751 143.391 52.8666 148.496 58.2837C153.901 64.0166 155.339 73.8715 151.988 82.2577C151.404 83.7107 152.115 85.369 153.585 85.9533C155.039 86.5377 156.698 85.827 157.283 84.3582C157.488 83.8212 157.678 83.2843 157.868 82.7473C161.266 72.6239 159.259 61.4107 152.636 54.3828L152.605 54.3986Z" fill="#0E172A" stroke="#0E172A" stroke-width="2.25714" stroke-miterlimit="10"/>
<path d="M162.91 173.337C161.345 173.527 160.239 174.932 160.429 176.496C161.282 183.682 159.876 192.1 157.094 196.506C156.446 197.532 155.719 198.622 154.96 199.775C149.302 208.367 142.253 219.059 146.726 226.655L147.595 228.124C149.16 230.73 150.314 232.862 151.12 234.552C152.242 236.936 152.637 238.453 152.258 239.005C152.258 239.005 152.005 239.226 151.199 239.353C150.314 239.479 148.749 239.479 146.031 238.942C135.552 236.857 127.934 221.38 121.802 208.951C119.226 203.708 116.997 199.191 114.769 196.064C114.215 195.274 113.567 194.405 112.872 193.458C107.562 186.24 97.6836 172.8 101.54 164.714C102.22 163.293 101.619 161.603 100.197 160.924C99.8172 160.75 99.4221 160.655 99.0428 160.655C97.9523 160.64 96.9092 161.224 96.4034 162.266C91.0772 173.416 101.84 188.072 108.273 196.822C108.952 197.738 109.569 198.591 110.122 199.349C112.082 202.097 114.31 206.645 116.681 211.446C123.351 224.997 131.664 241.864 144.893 244.501C146.457 244.817 148.275 245.101 150.061 245.101C152.732 245.101 155.324 244.454 156.873 242.275C160.018 237.837 155.83 230.824 152.463 225.202L151.61 223.781C148.939 219.232 155.403 209.393 159.686 202.902C160.46 201.718 161.219 200.581 161.867 199.538C165.392 193.979 167.083 184.44 166.055 175.817C166.008 175.469 165.913 175.154 165.755 174.869C165.233 173.843 164.111 173.179 162.894 173.337H162.91Z" fill="#0E172A" stroke="#0E172A" stroke-width="2.25714" stroke-miterlimit="10"/>
<path d="M179.235 68.6754C183.091 70.3811 187.39 67.9647 189.65 64.6797C191.468 62.0265 192.384 58.1888 189.54 55.3618C186.742 52.5822 183.423 51.1608 180.673 51.5714C178.113 51.9505 175.9 53.8298 174.082 57.1622C173.529 58.173 172.455 58.7099 171.38 58.631C171.174 59.4996 171.048 60.4156 171.048 61.3474C171.048 65.0272 172.723 68.3122 175.363 70.4916C175.394 70.3653 175.426 70.2389 175.489 70.1126C176.121 68.6754 177.812 68.0279 179.251 68.6596L179.235 68.6754Z" fill="#E8FDF8"/>
<path d="M176.926 73.8715C178.633 74.6296 180.324 74.9612 181.984 74.9612C187.12 74.9612 191.72 71.7236 194.343 67.8859C198.247 62.1846 197.931 55.6936 193.553 51.3189C189.428 47.2284 184.433 45.2543 179.834 45.9334C176.784 46.3756 172.453 48.2234 169.071 54.4459C168.328 55.8199 168.834 57.5572 170.225 58.2994C170.588 58.5047 170.984 58.5995 171.379 58.6311C172.453 58.7101 173.528 58.1731 174.081 57.1623C175.899 53.83 178.112 51.9348 180.672 51.5715C183.422 51.1609 186.741 52.5823 189.538 55.3619C192.383 58.1889 191.467 62.0266 189.649 64.6799C187.405 67.9648 183.106 70.397 179.234 68.6755C177.795 68.0438 176.12 68.6755 175.472 70.1285C175.425 70.2549 175.377 70.3812 175.346 70.5076C174.966 71.85 175.599 73.3029 176.91 73.8873L176.926 73.8715Z" fill="#0E172A" stroke="#0E172A" stroke-width="2.25714" stroke-miterlimit="10"/>
<path d="M134.443 131.074C129.418 130.237 124.961 127.931 121.926 124.551C119.034 121.345 117.785 117.587 118.386 113.938C118.986 110.29 121.389 107.116 125.15 105.015C129.117 102.788 134.08 102.03 139.106 102.852C142.883 103.468 146.376 104.952 149.205 107.132C150.454 108.095 152.24 107.874 153.188 106.626C154.152 105.379 153.915 103.594 152.682 102.646C149.11 99.8983 144.748 98.0189 140.023 97.2451C138.869 97.0556 137.715 96.9608 136.561 96.8976V88.8115C136.561 87.3743 135.392 86.2214 133.969 86.2214C132.547 86.2214 131.377 87.3901 131.377 88.8115V97.1187C128.153 97.5609 125.087 98.5243 122.369 100.056C117.074 103.025 113.66 107.621 112.775 113.007C111.89 118.392 113.629 123.841 117.706 128.358C121.61 132.685 127.237 135.654 133.527 136.681C138.553 137.518 143.01 139.823 146.044 143.203C148.937 146.409 150.185 150.168 149.585 153.816C148.304 161.602 138.995 166.561 128.864 164.887C125.071 164.255 121.578 162.787 118.765 160.607C117.517 159.644 115.731 159.881 114.782 161.113C113.818 162.36 114.055 164.145 115.288 165.092C118.86 167.84 123.222 169.72 127.948 170.494C129.117 170.683 130.255 170.778 131.409 170.841V178.422C131.409 179.859 132.579 181.012 134.001 181.012C135.423 181.012 136.593 179.843 136.593 178.422V170.62C146.139 169.309 153.82 163.166 155.211 154.732C156.096 149.347 154.358 143.898 150.28 139.381C146.376 135.054 140.75 132.085 134.459 131.058L134.443 131.074Z" fill="#0E172A" stroke="#0E172A" stroke-width="2.25714" stroke-miterlimit="10"/>
</svg>
