<svg width="296" height="268" viewBox="0 0 296 268" fill="none" xmlns="http://www.w3.org/2000/svg">
<path d="M164.147 6.64624H201.924C206.246 6.64624 209.753 10.1506 209.753 14.4695V17.0363C209.753 21.3553 206.246 24.8596 201.924 24.8596H164.147C159.825 24.8596 156.318 21.3553 156.318 17.0363V14.4695C156.318 10.1506 159.825 6.64624 164.147 6.64624Z" fill="#E8FDF8"/>
<path d="M183.016 45.0098C149.285 45.0098 117.784 60.0877 96.5884 86.3856C95.6347 87.5691 95.8193 89.3213 97.0036 90.2742C98.2034 91.2271 99.9415 91.0427 100.895 89.8592C121.029 64.8677 150.961 50.5429 183 50.5429C241.111 50.5429 288.378 97.7747 288.378 155.842C288.378 213.91 241.111 261.142 183 261.142C153.314 261.142 124.844 248.523 104.91 226.529C103.879 225.391 102.126 225.314 101.003 226.329C99.8646 227.359 99.7876 229.095 100.803 230.233C121.798 253.395 151.746 266.675 183 266.675C244.156 266.675 293.915 216.953 293.915 155.842C293.915 94.7315 244.156 45.0098 183 45.0098H183.016Z" fill="#0E172A" stroke="#0E172A" stroke-width="2.25714" stroke-miterlimit="10"/>
<path d="M164.145 30.4082H201.921C209.289 30.4082 215.287 24.414 215.287 17.0518V14.485C215.287 7.12281 209.289 1.12854 201.921 1.12854H164.145C156.777 1.12854 150.778 7.12281 150.778 14.485V17.0518C150.778 24.414 156.777 30.4082 164.145 30.4082ZM156.316 14.485C156.316 10.1661 159.823 6.66171 164.145 6.66171H201.921C206.243 6.66171 209.75 10.1661 209.75 14.485V17.0518C209.75 21.3707 206.243 24.8751 201.921 24.8751H164.145C159.823 24.8751 156.316 21.3707 156.316 17.0518V14.485Z" fill="#0E172A" stroke="#0E172A" stroke-width="2.25714" stroke-miterlimit="10"/>
<path d="M183.017 242.068C181.494 242.068 180.248 240.823 180.248 239.301V224.946C180.248 223.424 181.494 222.179 183.017 222.179C184.539 222.179 185.785 223.424 185.785 224.946V239.301C185.785 240.823 184.539 242.068 183.017 242.068Z" fill="#0E172A" stroke="#0E172A" stroke-width="2.25714" stroke-miterlimit="10"/>
<path d="M183.017 89.5055C181.494 89.5055 180.248 88.2605 180.248 86.7389V72.3527C180.248 70.831 181.494 69.5861 183.017 69.5861C184.539 69.5861 185.785 70.831 185.785 72.3527V86.7389C185.785 88.2605 184.539 89.5055 183.017 89.5055Z" fill="#0E172A" stroke="#0E172A" stroke-width="2.25714" stroke-miterlimit="10"/>
<path d="M224.803 230.894C223.849 230.894 222.911 230.402 222.403 229.51L215.205 217.076C214.436 215.754 214.897 214.064 216.22 213.295C217.543 212.527 219.235 212.988 220.004 214.31L227.202 226.744C227.971 228.066 227.51 229.756 226.187 230.525C225.756 230.771 225.279 230.894 224.803 230.894Z" fill="#0E172A" stroke="#0E172A" stroke-width="2.25714" stroke-miterlimit="10"/>
<path d="M148.468 98.7583C147.514 98.7583 146.576 98.2664 146.068 97.375L138.87 84.9407C138.101 83.6189 138.562 81.9282 139.885 81.1597C141.208 80.3912 142.9 80.8523 143.669 82.1741L150.867 94.6084C151.636 95.9302 151.175 97.6209 149.852 98.3894C149.421 98.6353 148.944 98.7583 148.468 98.7583Z" fill="#0E172A" stroke="#0E172A" stroke-width="2.25714" stroke-miterlimit="10"/>
<path d="M255.35 200.338C254.873 200.338 254.396 200.215 253.965 199.969L241.537 192.807C240.214 192.038 239.753 190.348 240.522 189.026C241.291 187.704 242.983 187.243 244.306 188.011L256.734 195.174C258.057 195.942 258.518 197.633 257.749 198.955C257.242 199.846 256.303 200.338 255.35 200.338Z" fill="#0E172A" stroke="#0E172A" stroke-width="2.25714" stroke-miterlimit="10"/>
<path d="M266.565 158.609H252.199C250.677 158.609 249.431 157.364 249.431 155.842C249.431 154.321 250.677 153.076 252.199 153.076H266.565C268.088 153.076 269.334 154.321 269.334 155.842C269.334 157.364 268.088 158.609 266.565 158.609Z" fill="#0E172A" stroke="#0E172A" stroke-width="2.25714" stroke-miterlimit="10"/>
<path d="M242.94 124.042C241.986 124.042 241.048 123.55 240.541 122.658C239.772 121.337 240.233 119.646 241.556 118.877L253.984 111.715C255.307 110.947 256.999 111.408 257.768 112.729C258.537 114.051 258.075 115.742 256.752 116.51L244.324 123.673C243.894 123.919 243.417 124.042 242.94 124.042Z" fill="#0E172A" stroke="#0E172A" stroke-width="2.25714" stroke-miterlimit="10"/>
<path d="M217.605 98.7584C217.128 98.7584 216.652 98.6355 216.221 98.3895C214.898 97.621 214.452 95.9303 215.206 94.6085L222.404 82.1743C223.173 80.8524 224.865 80.4067 226.188 81.1598C227.511 81.9283 227.957 83.619 227.203 84.9408L220.005 97.3751C219.497 98.2666 218.559 98.7584 217.605 98.7584Z" fill="#0E172A" stroke="#0E172A" stroke-width="2.25714" stroke-miterlimit="10"/>
<path d="M172.466 155.842C172.466 161.667 177.203 166.401 183.033 166.401C188.862 166.401 193.6 161.667 193.6 155.842C193.6 150.017 188.862 145.283 183.033 145.283C177.203 145.283 172.466 150.017 172.466 155.842Z" fill="#E8FDF8"/>
<path d="M183.031 145.267C188.86 145.267 193.598 150.001 193.598 155.827C193.598 161.652 188.86 166.386 183.031 166.386C177.201 166.386 172.464 161.652 172.464 155.827C172.464 150.001 177.201 145.267 183.031 145.267C181.508 145.267 180.262 144.023 180.262 142.501V139.996C172.695 141.317 166.927 147.911 166.927 155.842C166.927 164.726 174.156 171.934 183.031 171.934C191.906 171.934 199.135 164.71 199.135 155.842C199.135 147.911 193.367 141.317 185.8 139.996V142.501C185.8 144.023 184.554 145.267 183.031 145.267Z" fill="#0E172A"/>
<path d="M183.031 145.267C188.86 145.267 193.598 150.001 193.598 155.827C193.598 161.652 188.86 166.386 183.031 166.386C177.201 166.386 172.464 161.652 172.464 155.827C172.464 150.001 177.201 145.267 183.031 145.267ZM183.031 145.267C181.508 145.267 180.262 144.023 180.262 142.501V139.996C172.695 141.317 166.927 147.911 166.927 155.842C166.927 164.726 174.156 171.934 183.031 171.934C191.906 171.934 199.135 164.71 199.135 155.842C199.135 147.911 193.367 141.317 185.8 139.996V142.501C185.8 144.023 184.554 145.267 183.031 145.267Z" stroke="#0E172A" stroke-width="2.25714" stroke-miterlimit="10"/>
<path d="M180.266 142.501C180.266 144.023 181.511 145.268 183.034 145.268C184.557 145.268 185.803 144.023 185.803 142.501V113.021C185.803 111.5 184.557 110.255 183.034 110.255C181.511 110.255 180.266 111.5 180.266 113.021V142.501Z" fill="#0E172A" stroke="#0E172A" stroke-width="2.25714" stroke-miterlimit="10"/>
<path d="M111.105 158.609H3.89752C2.37477 158.609 1.12891 157.364 1.12891 155.842C1.12891 154.321 2.37477 153.076 3.89752 153.076H111.105C112.628 153.076 113.874 154.321 113.874 155.842C113.874 157.364 112.628 158.609 111.105 158.609Z" fill="#0E172A" stroke="#0E172A" stroke-width="2.25714" stroke-miterlimit="10"/>
<path d="M153.544 206.501H46.336C44.8132 206.501 43.5674 205.256 43.5674 203.735C43.5674 202.213 44.8132 200.968 46.336 200.968H153.544C155.066 200.968 156.312 202.213 156.312 203.735C156.312 205.256 155.066 206.501 153.544 206.501Z" fill="#0E172A" stroke="#0E172A" stroke-width="2.25714" stroke-miterlimit="10"/>
<path d="M127.764 113.498H20.5567C19.034 113.498 17.7881 112.253 17.7881 110.731C17.7881 109.21 19.034 107.965 20.5567 107.965H127.764C129.287 107.965 130.533 109.21 130.533 110.731C130.533 112.253 129.287 113.498 127.764 113.498Z" fill="#0E172A" stroke="#0E172A" stroke-width="2.25714" stroke-miterlimit="10"/>
</svg>
