<svg width="268" height="268" viewBox="0 0 268 268" fill="none" xmlns="http://www.w3.org/2000/svg">
<path d="M237.324 117.882C238.62 117.368 240.013 117.501 241.178 118.281C242.326 119.061 243.015 120.306 243.031 121.717H243.048L244.359 204.024C237.668 208.556 230.78 212.474 223.827 215.994L189.864 231.05C189.897 224.759 189.947 218.483 189.979 212.192C190.127 212.225 190.275 212.242 190.438 212.242C192.045 212.241 193.341 210.913 193.341 209.286V138.716C193.341 136.99 194.374 135.462 195.948 134.815L237.324 117.882Z" fill="#E8FDF8"/>
<path d="M237.324 117.882C238.62 117.368 240.013 117.501 241.178 118.281C242.326 119.061 243.015 120.306 243.031 121.717H243.048L244.359 204.024C237.668 208.556 230.78 212.474 223.827 215.994L189.864 231.05C189.897 224.759 189.947 218.483 189.979 212.192C190.127 212.225 190.275 212.242 190.438 212.242C192.045 212.241 193.341 210.913 193.341 209.286V138.716C193.341 136.99 194.374 135.462 195.948 134.815L237.324 117.882Z" stroke="#0E172A"/>
<path d="M212.321 39.0278L77.5508 100.236C77.5181 100.252 77.5014 100.285 77.4688 100.285C77.2558 100.384 77.0426 100.517 76.8623 100.667C76.8623 100.682 76.832 100.698 76.8291 100.7C76.6488 100.849 76.4845 101.048 76.3369 101.264C76.3041 101.314 76.2711 101.38 76.2383 101.43C76.2055 101.496 76.1403 101.563 76.1074 101.646C76.0419 101.762 76.0093 101.895 75.9766 102.011C75.9602 102.061 75.9269 102.094 75.9268 102.144C75.8448 102.393 75.8125 102.659 75.8125 102.924V132.773L63.5781 119.244C62.6926 118.248 61.2491 117.982 60.0684 118.596L50.4424 123.526V89.5444L169.584 35.4263L169.567 35.4761C170.502 35.0445 171.109 34.181 171.273 33.2349C176.39 30.9606 181.523 28.7025 186.64 26.4448L212.321 39.0278Z" fill="#E8FDF8"/>
<path d="M212.321 39.0278L77.5508 100.236C77.5181 100.252 77.5014 100.285 77.4688 100.285C77.2558 100.384 77.0426 100.517 76.8623 100.667C76.8623 100.682 76.832 100.698 76.8291 100.7C76.6488 100.849 76.4845 101.048 76.3369 101.264C76.3041 101.314 76.2711 101.38 76.2383 101.43C76.2055 101.496 76.1403 101.563 76.1074 101.646C76.0419 101.762 76.0093 101.895 75.9766 102.011C75.9602 102.061 75.9269 102.094 75.9268 102.144C75.8448 102.393 75.8125 102.659 75.8125 102.924V132.773L63.5781 119.244C62.6926 118.248 61.2491 117.982 60.0684 118.596L50.4424 123.526V89.5444L169.584 35.4263L169.567 35.4761C170.502 35.0445 171.109 34.181 171.273 33.2349C176.39 30.9606 181.523 28.7025 186.64 26.4448L212.321 39.0278Z" stroke="#0E172A"/>
<path d="M151.823 249.178L130.078 259.055C128.503 259.769 126.863 260.234 125.19 260.466V162.09C125.19 160.446 123.862 159.102 122.239 159.102C120.615 159.102 119.287 160.446 119.287 162.09V260.366C117.647 260.068 116.023 259.57 114.482 258.806L14.1828 209.634C9.755 207.46 7.0163 203.027 7.0163 198.064V80.3474C7.0163 72.9933 11.2965 66.3032 17.9219 63.2818L139.196 8.23358C142.607 6.6731 146.51 6.7229 149.904 8.39958L186.656 26.428L212.337 39.0115L77.5666 100.219C77.5666 100.219 77.5174 100.252 77.4846 100.268C77.2714 100.368 77.0746 100.501 76.8778 100.65C76.8778 100.65 76.845 100.667 76.845 100.683C76.6646 100.849 76.5006 101.049 76.353 101.248C76.3202 101.298 76.2874 101.347 76.2546 101.414C76.2054 101.497 76.1562 101.563 76.1234 101.63C76.0742 101.746 76.0414 101.862 75.9922 101.995C75.9922 102.045 75.9594 102.078 75.943 102.128C75.8774 102.393 75.8282 102.642 75.8282 102.908C75.8282 102.908 75.8282 102.925 75.8282 102.941V132.756L63.5943 119.226C62.6923 118.23 61.2656 117.965 60.0848 118.579L50.4584 123.509V89.5277L169.584 35.4257C170.518 34.9941 171.125 34.1474 171.289 33.1846C171.388 32.6201 171.322 32.0225 171.076 31.4747C170.404 29.964 168.665 29.3 167.173 29.9806L47.5393 84.315L25.9412 73.7403C24.4817 73.0265 22.7105 73.6407 22.0054 75.1348C21.3002 76.6289 21.907 78.4051 23.3829 79.119L44.5546 89.4945V128.39C44.5546 129.436 45.0793 130.399 45.9649 130.93C46.8341 131.478 47.9328 131.511 48.8512 131.046L60.7572 124.937L76.6154 142.468C77.1894 143.098 77.9766 143.43 78.7965 143.43C79.1573 143.43 79.5181 143.364 79.8625 143.231C80.9941 142.783 81.7484 141.671 81.7484 140.442V107.706L112.957 123.011C115.99 124.506 119.254 125.236 122.534 125.236C125.584 125.236 128.651 124.589 131.504 123.294L154.152 113.018C155.644 112.337 156.3 110.577 155.644 109.067C154.972 107.556 153.234 106.892 151.741 107.556L129.077 117.832C124.748 119.808 119.811 119.725 115.515 117.633L85.7663 103.041L219.29 42.398L249.383 57.1561C251.302 58.1024 253.008 59.364 254.467 60.8747L172.208 98.2431C170.715 98.9237 170.059 100.683 170.732 102.194C171.224 103.306 172.29 103.954 173.421 103.954C173.831 103.954 174.241 103.871 174.635 103.688L257.944 65.8549C259.141 68.3617 259.813 71.134 259.813 73.9893V151.266C259.813 152.91 261.142 154.254 262.765 154.254C264.389 154.254 265.717 152.91 265.717 151.266V73.9893C265.717 69.2083 264.307 64.5933 261.83 60.6755C261.716 60.4431 261.584 60.2439 261.42 60.0613C259.059 56.5751 255.845 53.6866 251.974 51.7775L152.479 3.02093C147.51 0.58061 141.787 0.497606 136.768 2.78852L15.5112 57.8368C6.77031 61.8043 1.12891 70.6526 1.12891 80.3474V198.064C1.12891 205.235 5.24516 211.892 11.6245 215.013L111.907 264.185C115.088 265.762 118.516 266.559 121.96 266.642C122.058 266.642 122.14 266.675 122.239 266.675C122.271 266.675 122.288 266.675 122.321 266.675C122.386 266.675 122.452 266.675 122.534 266.675C125.928 266.675 129.323 265.944 132.505 264.5L154.25 254.623C155.743 253.942 156.399 252.182 155.726 250.672C155.054 249.161 153.315 248.497 151.823 249.178Z" fill="#0E172A" stroke="#0E172A" stroke-width="2.25714" stroke-miterlimit="10"/>
<path d="M57.8557 204.97C56.3962 204.256 54.625 204.87 53.9199 206.347C53.2147 207.842 53.8215 209.618 55.281 210.332L61.1192 213.204C61.5292 213.403 61.972 213.502 62.3984 213.502C63.4971 213.502 64.5467 212.888 65.0551 211.826C65.7602 210.332 65.1535 208.555 63.6939 207.842L57.8557 204.97Z" fill="#0E172A" stroke="#0E172A" stroke-width="2.25714" stroke-miterlimit="10"/>
<path d="M25.7102 189.199C24.2507 188.485 22.4795 189.099 21.7744 190.577C21.0692 192.071 21.676 193.847 23.1355 194.561L40.1745 202.911C40.5845 203.11 41.0273 203.21 41.4536 203.21C42.5524 203.21 43.602 202.596 44.1104 201.533C44.8155 200.039 44.2088 198.263 42.7492 197.549L25.7102 189.199Z" fill="#0E172A" stroke="#0E172A" stroke-width="2.25714" stroke-miterlimit="10"/>
<path d="M266.63 166.074C266.63 164.447 265.318 163.136 263.727 163.136C262.12 163.136 260.825 164.464 260.825 166.091C260.858 176.599 260.923 191.009 252.166 198.396C251.477 198.927 250.788 199.425 250.116 199.94L248.87 121.634C248.82 118.297 247.148 115.209 244.409 113.383C241.67 111.541 238.21 111.192 235.16 112.437L193.784 129.37C189.996 130.93 187.552 134.599 187.552 138.733V209.303C187.552 210.764 188.618 211.975 189.996 212.208C190.143 212.241 190.307 212.258 190.455 212.258C192.062 212.258 193.358 210.946 193.358 209.303V138.733C193.358 137.006 194.374 135.479 195.965 134.831L237.341 117.899C238.636 117.367 240.03 117.517 241.195 118.297C242.359 119.077 243.031 120.322 243.048 121.733L244.36 204.04C237.669 208.556 230.781 212.473 223.828 216.009C214.07 220.956 204.148 225.156 194.407 229.29C184.535 233.473 174.334 237.806 164.495 242.82C163.051 243.55 162.477 245.326 163.199 246.771C163.707 247.8 164.741 248.398 165.807 248.398C166.249 248.398 166.692 248.298 167.118 248.082C176.778 243.168 186.896 238.869 196.67 234.735C216.448 226.352 236.882 217.686 255.823 203.011C266.778 193.781 266.712 177.761 266.663 166.074H266.63Z" fill="#0E172A" stroke="#0E172A" stroke-width="2.25714" stroke-miterlimit="10"/>
</svg>
