<svg width="259" height="277" viewBox="0 0 259 277" fill="none" xmlns="http://www.w3.org/2000/svg">
<path d="M76.8803 64.8822C76.6188 64.9867 76.3575 65.0564 76.0786 65.1087C71.2329 66.5026 63.9816 69.9002 63.2321 71.8517C62.3257 76.8871 62.3258 83.0552 63.267 89.1012C63.4065 90.0247 64.8533 91.436 67.0495 92.6556C67.4853 92.8821 67.9559 93.1261 68.4266 93.3526C69.9082 94.0322 71.6338 94.5896 73.4466 94.8858C76.4097 95.3737 77.8041 94.764 77.9086 94.5549C79.4077 91.6103 79.3902 81.5567 77.8388 64.6556C77.5425 64.7079 77.2115 64.795 76.8803 64.8822Z" fill="#E8FDF8"/>
<path d="M225.547 85.0939C224.17 86.1393 223.89 88.1082 224.919 89.4847C240.781 110.55 249.165 135.64 249.165 162.089C249.165 163.814 250.577 165.226 252.302 165.226C254.028 165.226 255.44 163.814 255.44 162.089C255.44 134.281 246.62 107.867 229.939 85.7212C228.893 84.3447 226.924 84.0659 225.547 85.0939Z" fill="#0E172A" stroke="#0E172A" stroke-width="2.25714" stroke-miterlimit="10"/>
<path d="M4.26626 165.208C5.99188 165.208 7.40383 163.797 7.40383 162.072C7.40383 134.455 16.485 108.442 33.654 86.8885C34.7347 85.5294 34.5082 83.5605 33.1487 82.4802C31.7891 81.3999 29.8194 81.6265 28.7387 82.9856C10.6807 105.671 1.12891 133.027 1.12891 162.089C1.12891 163.814 2.7453 165.202 4.47092 165.202L4.26626 165.208Z" fill="#0E172A" stroke="#0E172A" stroke-width="2.25714" stroke-miterlimit="10"/>
<path d="M177.58 120.499C178.19 118.878 177.353 117.066 175.732 116.474C174.111 115.882 172.298 116.7 171.706 118.321C167.61 129.368 160.533 138.654 151.765 144.456C151.277 144.788 150.894 145.241 150.65 145.763C148.75 149.91 147.791 154.458 147.791 159.267C147.791 161.793 148.053 164.372 148.576 166.916C148.872 168.397 150.179 169.425 151.643 169.425C151.852 169.425 152.062 169.407 152.271 169.355C153.962 169.007 155.06 167.351 154.729 165.661C154.293 163.518 154.084 161.358 154.084 159.249C154.084 155.643 154.746 152.245 156.036 149.126C165.535 142.557 173.17 132.417 177.597 120.464L177.58 120.499Z" fill="#0E172A" stroke="#0E172A" stroke-width="2.25714" stroke-miterlimit="10"/>
<path d="M249.043 214.953C249.025 214.814 248.99 214.657 248.938 214.517C246.271 205.893 241.461 198.191 235.029 192.285C228.545 186.361 220.701 182.475 212.352 181.046C200.987 179.112 189.169 178.99 177.979 180.628C172.924 181.36 167.904 182.58 163.093 184.217C159.241 185.524 155.459 187.127 151.868 188.939L138.952 195.508C133.148 198.453 126.472 198.453 120.667 195.508L107.751 188.939C105.73 187.911 103.655 186.97 101.529 186.099C104.963 182.423 107.926 177.335 109.773 171.777C111.83 165.557 112.301 159.301 111.307 153.499C116.258 155.73 121.469 157.071 126.873 157.455C126.942 157.455 127.012 157.455 127.099 157.455C128.738 157.455 130.115 156.183 130.219 154.527C130.341 152.802 129.034 151.304 127.308 151.182C120.406 150.712 113.852 148.446 107.856 144.439C107.839 144.439 107.821 144.404 107.804 144.404C107.786 144.404 107.769 144.369 107.734 144.352C94.4346 135.431 85.58 119.192 84.0635 100.88C84.0635 100.845 84.0635 100.81 84.0635 100.775C83.9589 99.4334 83.8892 98.0047 83.8718 96.5063C85.336 92.7253 85.5277 85.7558 85.1268 77.4969C91.4714 76.9568 99.9426 78.0894 108.867 79.2916C116.676 80.337 124.659 81.4173 131.788 81.4173C135.152 81.4173 138.325 81.1734 141.201 80.581C142.752 80.3022 144.39 79.9363 146.011 79.5878C148.835 78.9605 153.106 78.0371 154.186 78.281C155.825 78.8734 157.62 78.0196 158.195 76.3818C158.771 74.7439 157.934 72.9493 156.295 72.3743C153.89 71.5206 150.317 72.2349 144.669 73.472C143.118 73.8031 141.549 74.1516 139.998 74.4478C131.997 76.103 120.667 74.5697 109.704 73.1061C100.518 71.869 91.7678 70.7017 84.7433 71.2941C84.4993 68.0184 84.1855 64.6208 83.8544 61.2057C83.7498 60.0558 83.0003 59.0626 81.9371 58.6096C81.1701 58.296 80.1591 58.1914 79.0086 58.2611C81.414 29.8952 103.446 7.40116 129.679 7.40116C140.991 7.40116 151.711 11.4086 160.67 18.9706C161.995 20.0857 163.982 19.9288 165.098 18.6046C166.213 17.2804 166.056 15.3116 164.732 14.179C154.64 5.64138 142.508 1.12854 129.696 1.12854C99.6114 1.12854 74.4592 27.1771 72.629 59.6376C69.4218 60.683 66.3019 62.0944 64.4892 63.0701C59.9921 65.5094 57.5693 67.9835 57.0987 70.632C56.0528 76.4166 56.0528 83.299 57.0987 90.042C57.9702 95.7222 65.6743 99.9736 72.4722 101.071C73.5529 101.246 74.5813 101.333 75.54 101.333C76.3418 101.333 77.1088 101.263 77.8235 101.141C77.8235 101.176 77.8235 101.211 77.8235 101.246C77.8235 101.28 77.8235 101.315 77.8235 101.367C79.462 121.283 89.066 139.038 103.568 149.109C109.285 162.612 101.721 178.293 94.975 183.73C90.6348 182.353 86.1726 181.29 81.6756 180.628C70.4852 178.99 58.6674 179.112 47.3027 181.046C38.9536 182.475 31.1098 186.361 24.6257 192.285C18.1939 198.191 13.3831 205.875 10.7162 214.517C10.6639 214.657 10.6464 214.796 10.6115 214.953L2.08803 268.758C1.80914 270.465 2.97698 272.068 4.7026 272.347C6.41078 272.608 8.01449 271.458 8.29338 269.733L16.782 216.155C19.1351 208.663 23.3009 202.025 28.8786 196.919C34.4738 191.814 41.2195 188.451 48.3834 187.232C59.1032 185.402 70.2586 185.298 80.804 186.848C85.4754 187.528 90.1119 188.643 94.5741 190.176C98.1474 191.396 101.651 192.86 104.963 194.55L117.879 201.136C125.496 205.004 134.228 205.004 141.846 201.136L154.761 194.567C158.091 192.877 161.577 191.413 165.167 190.194C169.63 188.66 174.266 187.545 178.937 186.866C189.483 185.315 200.638 185.437 211.358 187.249C218.522 188.469 225.268 191.832 230.863 196.937C236.441 202.042 240.607 208.698 242.96 216.173L251.448 269.751C251.692 271.301 253.034 272.399 254.551 272.399C254.708 272.399 254.882 272.399 255.039 272.364C256.747 272.086 257.915 270.483 257.653 268.775L249.13 214.97L249.043 214.953ZM77.9105 94.5548C77.8059 94.7639 76.429 95.3737 73.4484 94.8858C71.6182 94.5896 69.91 94.0321 68.4285 93.3526C67.9578 93.1261 67.5046 92.8995 67.0514 92.6556C64.8551 91.4359 63.4083 90.0247 63.2689 89.1012C62.3451 83.0377 62.3276 76.8871 63.234 71.8516C64.0009 69.9176 71.2348 66.52 76.0805 65.1086C76.3593 65.0738 76.6382 65.0041 76.8822 64.8821C77.2134 64.795 77.5444 64.7253 77.8407 64.6556C79.392 81.5567 79.4095 91.6102 77.9105 94.5548Z" fill="#0E172A" stroke="#0E172A" stroke-width="2.25714" stroke-miterlimit="10"/>
<path d="M186.904 101.071C193.702 99.9736 201.406 95.7396 202.295 90.0421C203.323 83.3165 203.323 76.4167 202.295 70.6494C201.824 68.001 199.401 65.5268 194.904 63.0874C193.092 62.0943 189.954 60.683 186.747 59.6376C186.241 50.6295 183.958 41.7782 180.036 33.8679C179.269 32.3171 177.387 31.6899 175.835 32.4565C174.284 33.2232 173.639 35.1049 174.424 36.6556C177.718 43.2941 179.74 50.6992 180.385 58.2611C179.252 58.1914 178.241 58.296 177.456 58.6096C176.393 59.0626 175.661 60.0558 175.539 61.2057C174.04 76.7303 173.029 91.8715 175.87 97.4123C177.178 99.9736 180.019 101.333 183.853 101.333C184.812 101.333 185.841 101.246 186.921 101.071H186.904ZM180.489 96.5063C178.781 93.1784 178.799 81.7832 180.559 62.6171C180.577 62.6171 180.611 62.6171 180.646 62.6345C182.11 62.9307 183.975 63.5057 185.91 64.2375C190.913 66.1018 196.421 68.9419 197.118 70.6843C198.164 76.4864 198.164 83.4733 197.118 90.3382C196.822 92.2374 191.732 95.9139 185.579 96.907C182.215 97.4472 180.646 96.7676 180.524 96.5236L180.489 96.5063Z" fill="#0E172A" stroke="#0E172A" stroke-width="2.25714" stroke-miterlimit="10"/>
<path d="M131.158 20.2601C112.577 20.2601 96.4193 32.1082 90.981 49.7411C90.4755 51.3963 91.3994 53.1561 93.0553 53.6614C93.3691 53.7485 93.6826 53.8008 93.979 53.8008C95.3211 53.8008 96.5588 52.9296 96.9772 51.588C101.614 36.5861 115.349 26.5152 131.158 26.5152C144.632 26.5152 156.833 33.9203 162.986 45.8207C163.788 47.354 165.67 47.9639 167.222 47.1624C168.756 46.3609 169.366 44.4791 168.564 42.9284C161.33 28.9197 147.003 20.2252 131.158 20.2252V20.2601Z" fill="#0E172A" stroke="#0E172A" stroke-width="2.25714" stroke-miterlimit="10"/>
<path d="M148.123 269.054C148.123 269.054 148.07 269.054 148.053 269.054L137.909 269.263L112.721 246.49C111.449 245.34 109.497 245.445 108.346 246.717C107.196 247.989 107.301 249.94 108.573 251.09L135.59 275.501L148.193 275.239C149.901 275.205 151.26 273.793 151.225 272.086C151.191 270.396 149.814 269.054 148.14 269.054H148.123Z" fill="#0E172A" stroke="#0E172A" stroke-width="2.25714" stroke-miterlimit="10"/>
<path d="M197.084 90.3208C198.147 83.4558 198.147 76.4689 197.084 70.6668C196.404 68.9419 190.879 66.0843 185.877 64.22C183.942 63.5056 182.077 62.9307 180.613 62.6171C180.595 62.6171 180.56 62.617 180.525 62.5996C178.765 81.7657 178.747 93.1609 180.456 96.4888C180.578 96.7154 182.146 97.4123 185.51 96.8721C191.681 95.879 196.77 92.2026 197.049 90.3034L197.084 90.3208Z" fill="#E8FDF8"/>
</svg>
