<svg width="315" height="277" viewBox="0 0 315 277" fill="none" xmlns="http://www.w3.org/2000/svg">
<path d="M112.948 62.9456H204.622C206.21 62.9456 207.505 61.6403 207.505 60.039C207.505 58.4378 206.21 57.1324 204.622 57.1324H112.948C111.359 57.1324 110.064 58.4378 110.064 60.039C110.064 61.6403 111.359 62.9456 112.948 62.9456Z" fill="#0E172A" stroke="#0E172A" stroke-width="2.25714" stroke-miterlimit="10"/>
<path d="M200.875 183.508C202.843 183.508 204.241 181.542 203.603 179.662C200.702 171.238 196.542 163.998 191.12 158.063C186.701 153.224 183.334 151.24 177.758 147.916C173.511 145.392 167.71 141.946 158.888 135.628C146.112 126.49 139.085 121.46 132.007 112.984C125.516 105.204 120.457 96.2236 116.935 86.2507H198.441L174.737 114.742C173.787 115.874 173.701 117.597 174.702 118.693C175.289 119.337 176.066 119.65 176.826 119.65C177.654 119.65 178.466 119.302 179.035 118.606L206.831 85.2064C206.831 85.2064 206.883 85.1194 206.917 85.0845C206.969 84.9975 207.038 84.9279 207.09 84.8409C207.142 84.7539 207.176 84.6842 207.228 84.5972C207.263 84.5102 207.297 84.4232 207.332 84.3361C207.366 84.2491 207.401 84.1447 207.418 84.0577C207.435 83.9706 207.453 83.8836 207.47 83.7966C207.47 83.6922 207.504 83.5877 207.504 83.4833C207.504 83.4311 207.504 83.3963 207.504 83.3441C207.504 83.3093 207.504 83.257 207.504 83.2222C207.504 83.1178 207.504 83.0134 207.47 82.9264C207.47 82.8393 207.435 82.7523 207.418 82.6653C207.401 82.5783 207.366 82.4912 207.332 82.4042C207.297 82.3172 207.263 82.2302 207.228 82.1431C207.194 82.0561 207.142 81.9865 207.09 81.8995C207.038 81.8125 206.986 81.7428 206.935 81.6558C206.883 81.5862 206.831 81.5166 206.762 81.447C206.693 81.3773 206.624 81.2903 206.555 81.2207C206.52 81.1859 206.503 81.1685 206.469 81.1337C206.434 81.0989 206.382 81.0815 206.348 81.0466C206.261 80.977 206.175 80.9248 206.089 80.8726C206.02 80.8204 205.933 80.7856 205.847 80.7508C205.761 80.716 205.674 80.6811 205.588 80.6463C205.502 80.6115 205.415 80.5767 205.312 80.5593C205.226 80.5419 205.139 80.5245 205.053 80.5071C204.949 80.5071 204.846 80.4723 204.742 80.4723C204.69 80.4723 204.656 80.4723 204.604 80.4723H112.93C112.015 80.4723 111.152 80.9074 110.616 81.6558C110.081 82.4042 109.909 83.3615 110.185 84.2317C113.931 96.4498 119.784 107.38 127.587 116.744C135.132 125.794 142.815 131.294 155.538 140.397C164.551 146.854 170.489 150.37 174.806 152.946C180.089 156.096 183.006 157.819 186.856 162.014C191.725 167.339 195.488 173.884 198.13 181.542C198.527 182.708 199.615 183.526 200.84 183.526L200.875 183.508Z" fill="#0E172A" stroke="#0E172A" stroke-width="2.25714" stroke-miterlimit="10"/>
<path d="M157.211 274.901C157.574 274.901 157.919 274.883 158.264 274.866C157.902 274.866 157.539 274.901 157.177 274.901C157.177 274.901 157.177 274.901 157.194 274.901H157.211Z" fill="#0E172A" stroke="#0E172A" stroke-width="2.25714" stroke-miterlimit="10"/>
<path d="M27.1938 138.013C27.1938 136.411 25.899 135.106 24.3106 135.106H9.29059L42.8699 82.7701L71.8569 135.106H46.7544C45.1661 135.106 43.8712 136.411 43.8712 138.013C43.8712 139.614 45.1661 140.919 46.7544 140.919H76.76C77.7786 140.919 78.7281 140.38 79.2461 139.492C79.764 138.604 79.7813 137.508 79.2806 136.603L45.5632 75.7385C45.0625 74.8509 44.1475 74.2939 43.1461 74.2591C42.1103 74.2243 41.178 74.7291 40.6428 75.5819L1.59065 136.429C1.02092 137.317 0.969131 138.465 1.48706 139.388C1.98773 140.328 2.95454 140.902 4.00767 140.902H21.4793C22.9985 214.211 81.9911 273.491 154.761 274.814C145.576 274.344 137.099 271.194 130.021 266.164C71.339 253.511 27.1938 201.103 27.1938 138.237L27.1938 138.013Z" fill="#0E172A" stroke="#0E172A" stroke-width="2.25714" stroke-miterlimit="10"/>
<path d="M253.288 226.342C234.884 246.67 210.645 260.525 184.317 266.199C177.256 271.228 168.779 274.361 159.611 274.831C196.816 274.152 232.398 258.018 257.535 230.24C258.606 229.057 258.519 227.212 257.345 226.133C256.171 225.054 254.359 225.141 253.271 226.324L253.288 226.342Z" fill="#0E172A" stroke="#0E172A" stroke-width="2.25714" stroke-miterlimit="10"/>
<path d="M312.921 142.085C312.455 141.128 311.506 140.536 310.453 140.501L292.998 139.892C293.499 104.404 280.62 70.691 256.536 44.6536C231.796 17.9199 198.199 2.48187 161.961 1.21132C123.841 -0.128846 86.7919 14.8566 60.1529 42.3039C59.0479 43.4526 59.0652 45.2801 60.2047 46.4114C61.3441 47.5253 63.1569 47.5079 64.2791 46.3592C89.7786 20.0607 125.326 5.71915 161.754 7.0071C196.456 8.22543 228.619 23.0021 252.306 48.6044C275.993 74.2068 288.371 107.589 287.163 142.573C287.128 143.338 287.422 144.087 287.94 144.661C288.458 145.218 289.183 145.549 289.942 145.584L304.963 146.106L269.588 197.224L242.431 143.895L267.516 144.783C269.139 144.835 270.434 143.582 270.503 141.981C270.555 140.38 269.311 139.039 267.723 138.987L237.735 137.926C236.733 137.891 235.749 138.396 235.197 139.266C234.644 140.136 234.593 141.232 235.076 142.155L266.653 204.168C267.119 205.073 268.017 205.665 269.018 205.734C269.087 205.734 269.139 205.734 269.208 205.734C270.14 205.734 271.021 205.282 271.573 204.499L312.714 145.044C313.318 144.174 313.405 143.043 312.921 142.085Z" fill="#0E172A" stroke="#0E172A" stroke-width="2.25714" stroke-miterlimit="10"/>
<path d="M181.299 194.004C174.256 188.817 165.917 186.084 157.181 186.084C134.599 186.084 116.247 204.603 116.247 227.351C116.247 250.099 134.616 268.618 157.181 268.618C179.746 268.618 198.115 250.099 198.115 227.351C198.115 220.424 196.389 213.584 193.108 207.545C192.28 206.03 192.832 204.116 194.334 203.298C194.507 203.211 194.679 203.141 194.852 203.072C194.023 201.801 193.143 200.583 192.193 199.399C190.501 197.293 188.602 195.361 186.548 193.586C186.306 193.377 186.064 193.168 185.823 192.977C185.754 193.081 185.702 193.203 185.633 193.307C184.614 194.7 182.681 195.013 181.282 193.986L181.299 194.004ZM161.014 203.959C164.052 204.464 166.866 205.682 169.18 207.475C170.544 208.537 170.785 210.503 169.732 211.861C168.679 213.236 166.728 213.48 165.364 212.418C163.862 211.252 162.015 210.451 159.995 210.12C154.816 209.25 149.913 211.774 149.291 215.603C148.998 217.361 149.636 219.206 151.052 220.79C152.658 222.582 155.006 223.801 157.682 224.253C161.739 224.932 165.382 226.864 167.92 229.701C170.63 232.729 171.804 236.436 171.2 240.109C170.423 244.895 166.711 248.585 161.808 250.169V256.939C161.808 258.662 160.409 260.072 158.7 260.072C156.991 260.072 155.593 258.662 155.593 256.939V250.969C154.85 250.935 154.108 250.882 153.348 250.743C150.31 250.238 147.496 249.02 145.182 247.227C143.818 246.166 143.577 244.199 144.63 242.841C145.683 241.466 147.634 241.223 148.998 242.284C150.5 243.451 152.347 244.251 154.367 244.582C159.546 245.452 164.449 242.928 165.071 239.099C165.364 237.341 164.726 235.497 163.31 233.913C161.704 232.12 159.356 230.902 156.68 230.449C152.623 229.77 148.98 227.838 146.443 225.001C143.732 221.973 142.558 218.266 143.162 214.593C144.043 209.25 148.566 205.265 154.332 204.081V198.042C154.332 196.318 155.731 194.909 157.44 194.909C159.149 194.909 160.548 196.318 160.548 198.042V203.89C160.703 203.907 160.858 203.924 161.014 203.942V203.959Z" fill="#E8FDF8"/>
<path d="M204.327 227.351C204.327 219.38 202.324 211.478 198.543 204.534C197.801 203.176 196.23 202.602 194.831 203.072C194.659 203.124 194.486 203.194 194.313 203.298C192.811 204.134 192.259 206.031 193.088 207.545C196.368 213.584 198.094 220.424 198.094 227.351C198.094 250.117 179.725 268.618 157.16 268.618C134.596 268.618 116.226 250.099 116.226 227.351C116.226 204.603 134.596 186.085 157.16 186.085C165.896 186.085 174.235 188.817 181.279 194.004C182.66 195.031 184.611 194.718 185.629 193.325C185.698 193.221 185.767 193.099 185.819 192.994C186.579 191.637 186.234 189.896 184.956 188.939C176.842 182.969 167.243 179.819 157.177 179.819C144.264 179.819 132.541 185.093 124.013 193.604C122.217 195.396 120.56 197.346 119.075 199.417C113.395 207.266 110.028 216.926 110.028 227.369C110.028 243.399 117.935 257.583 130.021 266.199C137.082 271.246 145.576 274.379 154.76 274.849C155.572 274.884 156.383 274.919 157.195 274.919C157.195 274.919 157.195 274.919 157.212 274.919C157.575 274.919 157.937 274.901 158.3 274.884C158.749 274.884 159.197 274.884 159.646 274.849C168.814 274.379 177.291 271.229 184.352 266.216C196.437 257.601 204.361 243.416 204.361 227.386L204.327 227.351Z" fill="#0E172A" stroke="#0E172A" stroke-width="2.25714" stroke-miterlimit="10"/>
<path d="M160.547 198.042C160.547 196.319 159.149 194.909 157.44 194.909C155.731 194.909 154.332 196.319 154.332 198.042V204.081C148.583 205.265 144.043 209.25 143.162 214.594C142.558 218.266 143.732 221.956 146.442 225.002C148.98 227.839 152.623 229.771 156.68 230.449C159.356 230.902 161.721 232.12 163.31 233.913C164.725 235.514 165.364 237.342 165.071 239.1C164.449 242.929 159.546 245.452 154.367 244.582C152.347 244.251 150.482 243.451 148.997 242.285C147.634 241.223 145.683 241.484 144.63 242.842C143.576 244.217 143.835 246.183 145.182 247.228C147.495 249.02 150.31 250.239 153.348 250.743C154.108 250.865 154.85 250.935 155.592 250.97V256.939C155.592 258.663 156.991 260.072 158.7 260.072C160.409 260.072 161.808 258.663 161.808 256.939V250.169C166.711 248.585 170.423 244.895 171.199 240.109C171.804 236.437 170.63 232.747 167.919 229.701C165.381 226.864 161.739 224.932 157.681 224.253C155.005 223.801 152.64 222.582 151.052 220.79C149.619 219.189 148.997 217.361 149.291 215.603C149.912 211.774 154.833 209.25 159.995 210.121C162.015 210.451 163.879 211.252 165.364 212.418C166.728 213.48 168.679 213.219 169.732 211.861C170.785 210.486 170.526 208.519 169.18 207.475C166.866 205.682 164.052 204.464 161.013 203.959C160.858 203.942 160.703 203.925 160.547 203.907V198.059V198.042Z" fill="#0E172A" stroke="#0E172A" stroke-width="2.25714" stroke-miterlimit="10"/>
</svg>
