<svg width="271" height="276" viewBox="0 0 271 276" fill="none" xmlns="http://www.w3.org/2000/svg">
<path d="M46.8823 28.1463H33.0346C19.1127 28.1463 7.80469 39.9318 7.80469 54.4043V77.1229H262.217V54.4043C262.217 39.9318 250.891 28.1463 236.987 28.1463H223.14C221.304 28.1463 219.803 26.6453 219.803 24.8108H202.637V45.1575C202.637 46.992 201.135 48.493 199.3 48.493C197.465 48.493 195.963 46.992 195.963 45.1575V24.8108H178.816C178.816 26.6453 177.314 28.1463 175.479 28.1463H158.851C157.015 28.1463 155.514 26.6453 155.514 24.8108H138.366V45.1575C138.366 46.992 136.865 48.493 135.03 48.493C133.194 48.493 131.693 46.992 131.693 45.1575V24.8108H114.527C114.527 26.6453 113.025 28.1463 111.19 28.1463H94.5799C92.7447 28.1463 91.2433 26.6453 91.2433 24.8108H74.0773V45.1575C74.0773 46.992 72.5756 48.493 70.7404 48.493C68.9051 48.493 67.4037 46.992 67.4037 45.1575V24.8108H50.2377C50.2377 26.6453 48.736 28.1463 46.9008 28.1463H46.8823Z" fill="#E8FDF8"/>
<path d="M236.985 274.641C254.577 274.641 268.889 259.872 268.889 241.712V54.3857C268.889 36.2256 254.577 21.4567 236.985 21.4567H223.137C221.302 21.4567 219.801 22.9577 219.801 24.7922C219.801 26.6268 221.302 28.1277 223.137 28.1277H236.985C250.907 28.1277 262.215 39.9132 262.215 54.3857V77.1042H7.80246V54.3857C7.80246 39.9132 19.129 28.1277 33.0324 28.1277H46.88C48.7153 28.1277 50.2169 26.6268 50.2169 24.7922C50.2169 22.9577 48.7153 21.4567 46.88 21.4567H33.0324C15.44 21.4567 1.12891 36.2256 1.12891 54.3857V241.712C1.12891 259.872 15.44 274.641 33.0324 274.641H236.967H236.985ZM7.80246 241.712V83.7753H262.215V241.712C262.215 256.185 250.888 267.97 236.985 267.97H33.0509C19.129 267.97 7.82102 256.185 7.82102 241.712H7.80246Z" fill="#0E172A" stroke="#0E172A" stroke-width="2.25714" stroke-miterlimit="10"/>
<path d="M94.5576 28.1461H111.167C113.003 28.1461 114.504 26.6451 114.504 24.8106C114.504 22.9761 113.003 21.4751 111.167 21.4751H94.5576C92.7224 21.4751 91.2207 22.9761 91.2207 24.8106C91.2207 26.6451 92.7224 28.1461 94.5576 28.1461Z" fill="#0E172A" stroke="#0E172A" stroke-width="2.25714" stroke-miterlimit="10"/>
<path d="M158.832 28.1461H175.46C177.295 28.1461 178.797 26.6451 178.797 24.8106C178.797 22.9761 177.295 21.4751 175.46 21.4751H158.832C156.997 21.4751 155.495 22.9761 155.495 24.8106C155.495 26.6451 156.997 28.1461 158.832 28.1461Z" fill="#0E172A" stroke="#0E172A" stroke-width="2.25714" stroke-miterlimit="10"/>
<path d="M135.014 48.4929C136.849 48.4929 138.351 46.992 138.351 45.1574V4.46409C138.351 2.62956 136.849 1.12854 135.014 1.12854C133.178 1.12854 131.677 2.62956 131.677 4.46409V45.1574C131.677 46.992 133.178 48.4929 135.014 48.4929Z" fill="#0E172A" stroke="#0E172A" stroke-width="2.25714" stroke-miterlimit="10"/>
<path d="M70.7224 48.4929C72.5576 48.4929 74.0593 46.992 74.0593 45.1574V4.46409C74.0593 2.62956 72.5576 1.12854 70.7224 1.12854C68.8872 1.12854 67.3857 2.62956 67.3857 4.46409V45.1574C67.3857 46.992 68.8872 48.4929 70.7224 48.4929Z" fill="#0E172A" stroke="#0E172A" stroke-width="2.25714" stroke-miterlimit="10"/>
<path d="M199.297 48.4929C201.132 48.4929 202.634 46.992 202.634 45.1574V4.46409C202.634 2.62956 201.132 1.12854 199.297 1.12854C197.462 1.12854 195.96 2.62956 195.96 4.46409V45.1574C195.96 46.992 197.462 48.4929 199.297 48.4929Z" fill="#0E172A" stroke="#0E172A" stroke-width="2.25714" stroke-miterlimit="10"/>
<path d="M92.4463 119.984H118.918C120.753 119.984 122.255 118.483 122.255 116.649C122.255 114.814 120.753 113.313 118.918 113.313H92.4463C90.611 113.313 89.1094 114.814 89.1094 116.649C89.1094 118.483 90.611 119.984 92.4463 119.984Z" fill="#0E172A" stroke="#0E172A" stroke-width="2.25714" stroke-miterlimit="10"/>
<path d="M151.084 119.984H175.461C177.296 119.984 178.798 118.483 178.798 116.649C178.798 114.814 177.296 113.313 175.461 113.313H151.084C149.249 113.313 147.747 114.814 147.747 116.649C147.747 118.483 149.249 119.984 151.084 119.984Z" fill="#0E172A" stroke="#0E172A" stroke-width="2.25714" stroke-miterlimit="10"/>
<path d="M207.624 119.984H231.982C233.818 119.984 235.319 118.483 235.319 116.649C235.319 114.814 233.818 113.313 231.982 113.313H207.624C205.789 113.313 204.287 114.814 204.287 116.649C204.287 118.483 205.789 119.984 207.624 119.984Z" fill="#0E172A" stroke="#0E172A" stroke-width="2.25714" stroke-miterlimit="10"/>
<path d="M38.0195 159.473H62.3965C64.2318 159.473 65.7334 157.972 65.7334 156.138C65.7334 154.303 64.2318 152.802 62.3965 152.802H38.0195C36.1843 152.802 34.6826 154.303 34.6826 156.138C34.6826 157.972 36.1843 159.473 38.0195 159.473Z" fill="#0E172A" stroke="#0E172A" stroke-width="2.25714" stroke-miterlimit="10"/>
<path d="M118.935 152.802H94.5576C92.7224 152.802 91.2207 154.303 91.2207 156.138C91.2207 157.972 92.7224 159.473 94.5576 159.473H118.935C120.77 159.473 122.271 157.972 122.271 156.138C122.271 154.303 120.77 152.802 118.935 152.802Z" fill="#0E172A" stroke="#0E172A" stroke-width="2.25714" stroke-miterlimit="10"/>
<path d="M151.084 159.473H175.461C177.296 159.473 178.798 157.972 178.798 156.138C178.798 154.303 177.296 152.802 175.461 152.802H151.084C149.249 152.802 147.747 154.303 147.747 156.138C147.747 157.972 149.249 159.473 151.084 159.473Z" fill="#0E172A" stroke="#0E172A" stroke-width="2.25714" stroke-miterlimit="10"/>
<path d="M207.624 159.473H231.982C233.818 159.473 235.319 157.972 235.319 156.138C235.319 154.303 233.818 152.802 231.982 152.802H207.624C205.789 152.802 204.287 154.303 204.287 156.138C204.287 157.972 205.789 159.473 207.624 159.473Z" fill="#0E172A" stroke="#0E172A" stroke-width="2.25714" stroke-miterlimit="10"/>
<path d="M38.0195 198.962H62.3965C64.2318 198.962 65.7334 197.461 65.7334 195.627C65.7334 193.792 64.2318 192.291 62.3965 192.291H38.0195C36.1843 192.291 34.6826 193.792 34.6826 195.627C34.6826 197.461 36.1843 198.962 38.0195 198.962Z" fill="#0E172A" stroke="#0E172A" stroke-width="2.25714" stroke-miterlimit="10"/>
<path d="M118.935 192.291H94.5576C92.7224 192.291 91.2207 193.792 91.2207 195.627C91.2207 197.461 92.7224 198.962 94.5576 198.962H118.935C120.77 198.962 122.271 197.461 122.271 195.627C122.271 193.792 120.77 192.291 118.935 192.291Z" fill="#0E172A" stroke="#0E172A" stroke-width="2.25714" stroke-miterlimit="10"/>
<path d="M151.084 198.962H175.461C177.296 198.962 178.798 197.461 178.798 195.627C178.798 193.792 177.296 192.291 175.461 192.291H151.084C149.249 192.291 147.747 193.792 147.747 195.627C147.747 197.461 149.249 198.962 151.084 198.962Z" fill="#0E172A" stroke="#0E172A" stroke-width="2.25714" stroke-miterlimit="10"/>
<path d="M207.624 198.962H231.982C233.818 198.962 235.319 197.461 235.319 195.627C235.319 193.792 233.818 192.291 231.982 192.291H207.624C205.789 192.291 204.287 193.792 204.287 195.627C204.287 197.461 205.789 198.962 207.624 198.962Z" fill="#0E172A" stroke="#0E172A" stroke-width="2.25714" stroke-miterlimit="10"/>
<path d="M38.0195 238.451H62.3965C64.2318 238.451 65.7334 236.95 65.7334 235.115C65.7334 233.281 64.2318 231.78 62.3965 231.78H38.0195C36.1843 231.78 34.6826 233.281 34.6826 235.115C34.6826 236.95 36.1843 238.451 38.0195 238.451Z" fill="#0E172A" stroke="#0E172A" stroke-width="2.25714" stroke-miterlimit="10"/>
<path d="M118.935 231.78H94.5576C92.7224 231.78 91.2207 233.281 91.2207 235.115C91.2207 236.95 92.7224 238.451 94.5576 238.451H118.935C120.77 238.451 122.271 236.95 122.271 235.115C122.271 233.281 120.77 231.78 118.935 231.78Z" fill="#0E172A" stroke="#0E172A" stroke-width="2.25714" stroke-miterlimit="10"/>
<path d="M151.084 238.451H175.461C177.296 238.451 178.798 236.95 178.798 235.115C178.798 233.281 177.296 231.78 175.461 231.78H151.084C149.249 231.78 147.747 233.281 147.747 235.115C147.747 236.95 149.249 238.451 151.084 238.451Z" fill="#0E172A" stroke="#0E172A" stroke-width="2.25714" stroke-miterlimit="10"/>
</svg>
