<svg width="302" height="242" viewBox="0 0 302 242" fill="none" xmlns="http://www.w3.org/2000/svg">
<path d="M155.566 40.2859L187.345 26.2495C188.012 25.9598 188.78 25.9598 189.461 26.2495L221.24 40.2859V7.7225C221.24 7.7225 221.24 7.65006 221.24 7.62109H155.566V40.2859Z" fill="#E8FDF8"/>
<path d="M142.822 161.746C135.721 161.746 129.939 167.526 129.939 174.624V221.615C129.939 228.713 135.721 234.492 142.822 234.492C149.923 234.492 155.705 228.713 155.705 221.615V174.624C155.705 167.526 149.923 161.746 142.822 161.746Z" fill="#E8FDF8"/>
<path d="M274.889 2.4043H101.866C88.3602 2.4043 77.376 13.3987 77.376 26.8992V94.4351C77.376 96.0468 78.7453 97.3186 80.339 97.0781C81.6459 96.8809 82.5927 95.7348 82.5927 94.4132V26.8992C82.5927 16.2669 91.2295 7.61904 101.866 7.61904H150.338V44.2963C150.338 45.1799 150.788 46.0056 151.527 46.4836C152.266 46.9617 153.193 47.0486 154.005 46.6865L188.392 31.5057L222.779 46.6865C223.112 46.8313 223.475 46.9038 223.837 46.9038C224.33 46.9038 224.837 46.7589 225.257 46.4836C225.996 46.0056 226.445 45.1799 226.445 44.2963V7.72045C226.445 7.72045 226.445 7.64801 226.445 7.61904H274.918C285.555 7.61904 294.206 16.2669 294.206 26.8992V50.6555C294.206 52.0895 295.38 53.2628 296.814 53.2628C298.249 53.2628 299.422 52.0895 299.422 50.6555V26.8992C299.422 13.3987 288.424 2.4043 274.918 2.4043H274.889ZM221.214 7.72045V40.2839L189.435 26.2474C188.769 25.9577 188.001 25.9577 187.32 26.2474L155.541 40.2839V7.61904H221.214C221.214 7.61904 221.214 7.69148 221.214 7.72045Z" fill="#006D77" stroke="#006D77" stroke-width="4.81" stroke-miterlimit="10"/>
<path d="M296.796 72.4297C295.361 72.4297 294.188 73.603 294.188 75.0371V117.755C294.188 119.189 295.361 120.362 296.796 120.362C298.231 120.362 299.404 119.189 299.404 117.755V75.0371C299.404 73.603 298.231 72.4297 296.796 72.4297Z" fill="#006D77" stroke="#006D77" stroke-width="4.81" stroke-miterlimit="10"/>
<path d="M52.3393 106.411C50.9192 106.628 49.9339 107.947 50.1368 109.366C50.3252 110.655 51.4409 111.597 52.7161 111.597C52.8465 111.597 52.9769 111.597 53.0929 111.568C56.0635 111.133 59.0778 110.945 62.0919 111.018C63.57 110.974 64.7293 109.917 64.7582 108.468C64.7872 107.034 63.6569 105.832 62.2223 105.803C58.9184 105.716 55.6143 105.933 52.3393 106.411Z" fill="#006D77" stroke="#006D77" stroke-width="4.81" stroke-miterlimit="10"/>
<path d="M76.4534 113.378C79.0183 114.161 81.5398 115.16 83.9598 116.333C84.3221 116.507 84.7134 116.594 85.0902 116.594C86.0611 116.594 86.9885 116.044 87.4377 115.117C88.0608 113.813 87.5245 112.263 86.2203 111.64C83.5685 110.365 80.7863 109.264 77.975 108.41C76.5984 107.99 75.1348 108.757 74.7145 110.134C74.2943 111.51 75.0622 112.973 76.4389 113.393L76.4534 113.378Z" fill="#006D77" stroke="#006D77" stroke-width="4.81" stroke-miterlimit="10"/>
<path d="M98.9887 119.995C97.9018 119.054 96.2498 119.17 95.3079 120.271C94.366 121.357 94.482 123.008 95.5688 123.95C100.481 128.194 104.553 133.279 107.64 139.073C114.335 151.574 115.769 165.943 111.654 179.516C107.538 193.089 98.3945 204.257 85.8887 210.95C73.3829 217.642 59.0079 219.076 45.4298 214.962C31.8517 210.848 20.6789 201.708 13.9841 189.193C4.33303 171.173 5.76758 149.647 17.7227 133.047C21.5339 127.774 26.1856 123.356 31.5762 119.807L30.7068 132.902C30.6054 134.336 31.7066 135.582 33.1412 135.669C33.1992 135.669 33.2571 135.669 33.3151 135.669C34.6773 135.669 35.8221 134.611 35.909 133.235L37.0974 115.273V115.172C37.0974 115.157 37.0974 115.128 37.0974 115.114C37.0974 114.911 37.0974 114.723 37.0539 114.534C37.0539 114.491 37.0394 114.433 37.0249 114.389C36.9669 114.187 36.9089 113.969 36.793 113.781C36.793 113.781 36.793 113.781 36.793 113.767C36.6915 113.578 36.5611 113.419 36.4307 113.26C36.3872 113.216 36.3438 113.173 36.3003 113.129C36.1699 113.013 36.0395 112.897 35.8945 112.811C35.8656 112.796 35.8367 112.767 35.8077 112.738L20.1138 103.714C18.8675 103.004 17.2736 103.424 16.549 104.67C15.8245 105.915 16.2592 107.509 17.5055 108.233L29.3301 115.027C23.1424 118.981 17.8098 123.979 13.4914 129.976C0.348041 148.213 -1.21694 171.839 9.37602 191.641C16.7375 205.373 28.9968 215.426 43.9081 219.931C49.5017 221.626 55.1966 222.451 60.8771 222.451C70.3543 222.451 79.7446 220.119 88.3378 215.513C102.075 208.154 112.132 195.899 116.639 180.994C121.145 166.088 119.58 150.313 112.234 136.581C108.828 130.237 104.365 124.645 98.9742 119.981L98.9887 119.995Z" fill="#006D77" stroke="#006D77" stroke-width="4.81" stroke-miterlimit="10"/>
<path d="M60.8169 187.597C53.2091 187.597 47.0214 182.89 47.0214 177.11C47.0214 175.676 45.8476 174.502 44.413 174.502C42.9784 174.502 41.8047 175.676 41.8047 177.11C41.8047 185.033 48.9632 191.581 58.2085 192.638V197.143C58.2085 198.577 59.3823 199.751 60.8169 199.751C62.2516 199.751 63.4252 198.577 63.4252 197.143V192.638C72.6705 191.581 79.8292 185.033 79.8292 177.11C79.8292 168.448 71.294 161.408 60.8169 161.408C53.2091 161.408 47.0214 156.7 47.0214 150.92C47.0214 145.14 53.2091 140.433 60.8169 140.433C68.4248 140.433 74.6123 145.14 74.6123 150.92C74.6123 152.354 75.7861 153.527 77.2207 153.527C78.6554 153.527 79.8292 152.354 79.8292 150.92C79.8292 142.997 72.6705 136.449 63.4252 135.392V130.887C63.4252 129.453 62.2516 128.279 60.8169 128.279C59.3823 128.279 58.2085 129.453 58.2085 130.887V135.392C48.9632 136.449 41.8047 142.997 41.8047 150.92C41.8047 159.582 50.3254 166.622 60.8169 166.622C68.4248 166.622 74.6123 171.33 74.6123 177.11C74.6123 182.89 68.4248 187.597 60.8169 187.597Z" fill="#006D77" stroke="#006D77" stroke-width="4.81" stroke-miterlimit="10"/>
<path d="M254.869 158.069H225.408C232.016 149.436 232.726 137.862 232.813 135.341C232.813 135.269 232.828 135.023 232.828 121.566C232.828 117.524 231.248 113.714 228.365 110.846C225.495 107.964 221.684 106.385 217.641 106.385C209.265 106.385 202.455 113.193 202.455 121.566V127.809C202.455 132.517 201.194 137.137 198.817 141.179C197.615 143.221 196.252 145.365 194.745 147.553C190.717 153.405 186.514 157.243 181.095 159.967C175.052 163.009 171.299 169.078 171.299 175.814V221.675C171.299 231.452 179.254 239.405 189.036 239.405H244.015C252.579 239.405 259.115 233.785 261.114 224.644C261.462 222.616 269.809 175.118 270.041 173.641C270.621 169.947 269.592 166.34 267.157 163.501C264.259 160.111 259.665 158.083 254.883 158.083L254.869 158.069ZM265.201 172.873C265.027 174.017 259.288 206.668 256.303 223.688C254.825 230.467 250.232 234.509 244 234.509H189.021C181.935 234.509 176.168 228.744 176.168 221.66V175.799C176.168 170.932 178.892 166.529 183.283 164.312C189.47 161.198 194.253 156.867 198.759 150.29C200.324 148.016 201.759 145.771 203.02 143.627C205.831 138.832 207.324 133.357 207.324 127.794V121.551C207.324 115.873 211.946 111.252 217.627 111.252C220.366 111.252 222.945 112.324 224.901 114.279C226.858 116.235 227.93 118.813 227.93 121.551C227.93 126.766 227.93 134.689 227.93 135.138C227.886 136.775 227.191 151.319 218.134 158.605C217.322 159.257 217.018 160.343 217.366 161.314C217.714 162.284 218.641 162.951 219.67 162.951H254.869C258.187 162.951 261.477 164.37 263.433 166.659C264.491 167.89 265.65 169.962 265.201 172.873Z" fill="#006D77" stroke="#006D77" stroke-width="4.81" stroke-miterlimit="10"/>
<path d="M142.818 156.861C133.022 156.861 125.052 164.828 125.052 174.635V221.626C125.052 231.418 133.022 239.4 142.818 239.4C152.614 239.4 160.584 231.433 160.584 221.626V174.635C160.584 164.843 152.614 156.861 142.818 156.861ZM155.7 221.626C155.7 228.724 149.918 234.504 142.818 234.504C135.717 234.504 129.935 228.724 129.935 221.626V174.635C129.935 167.537 135.717 161.757 142.818 161.757C149.918 161.757 155.7 167.537 155.7 174.635V221.626Z" fill="#006D77" stroke="#006D77" stroke-width="4.81" stroke-miterlimit="10"/>
</svg>
