<svg width="257" height="254" viewBox="0 0 257 254" fill="none" xmlns="http://www.w3.org/2000/svg">
<path d="M33.5059 161.121L62.5059 126.121L82.5059 130.621L87.5059 144.621L101.006 151.621L114.006 138.121L130.006 121.121L171.006 88.6211L195.006 104.621L201.506 114.621L206.506 135.121L195.006 151.621L178.506 174.621L148.006 214.121L127.006 243.621L101.006 250.621L87.5059 243.621L53.5059 217.621L29.5059 196.621L24.0059 186.621V174.621L33.5059 161.121Z" fill="#E8FDF8"/>
<path d="M69.5059 113.12C69.1596 113.12 68.5239 113.416 68.1866 113.274C66.8284 112.706 66.1892 111.144 66.7662 109.787L86.3229 63.2898C95.8217 40.6981 115.645 23.4216 139.329 17.0859L193.863 2.49803C195.283 2.11648 196.739 2.95945 197.121 4.3792C197.502 5.79895 196.659 7.26306 195.239 7.63574L140.705 22.2236C118.601 28.1422 100.101 44.2564 91.2321 65.3485L71.6754 111.845C71.2493 112.866 69.2252 113.274 68.1866 113.274L69.5059 113.12Z" fill="#006D77"/>
<path d="M68.1866 113.274C68.5239 113.416 69.1596 113.12 69.5059 113.12L68.1866 113.274ZM68.1866 113.274C66.8284 112.706 66.1892 111.144 66.7662 109.787L86.3229 63.2898C95.8217 40.6981 115.645 23.4216 139.329 17.0859L193.863 2.49803C195.283 2.11648 196.739 2.95945 197.121 4.3792C197.502 5.79895 196.659 7.26306 195.239 7.63574L140.705 22.2236C118.601 28.1422 100.101 44.2564 91.2321 65.3485L71.6754 111.845C71.2493 112.866 69.2252 113.274 68.1866 113.274Z" stroke="#006D77" stroke-width="4.81" stroke-miterlimit="10"/>
<path d="M98.2983 152.699C97.3751 152.699 96.443 152.601 95.4398 152.362C88.0983 150.534 82.4168 143.905 81.2894 135.875C80.8189 132.53 81.1829 129.051 82.3547 125.83L82.4878 125.537L116.293 59.0221C116.958 57.7088 118.565 57.1853 119.87 57.8508C121.184 58.5163 121.708 60.1224 121.033 61.4268L87.2993 127.791C86.4649 130.151 86.2074 132.689 86.5537 135.129C87.3792 141.03 91.4628 145.875 96.7093 147.188C99.3547 147.845 101.805 146.931 105.453 143.923C110.283 139.93 115.094 135.218 121.042 128.643C127.807 121.18 134.988 114.179 142.401 107.826C146.138 104.623 149.441 101.996 152.361 99.6801C159.197 94.2496 164.133 90.3275 169.477 83.2909C175.345 75.5533 179.703 66.6089 182.446 56.715C182.837 55.2953 184.302 54.47 185.722 54.8605C187.143 55.2509 187.968 56.715 187.578 58.1348C184.657 68.6853 179.996 78.2331 173.72 86.5031C167.976 94.081 162.543 98.3846 155.672 103.842C152.787 106.131 149.529 108.722 145.872 111.854C138.628 118.057 131.606 124.898 124.992 132.201C118.858 138.972 113.878 143.852 108.836 148.014C105.942 150.401 102.497 152.699 98.2983 152.699Z" fill="#006D77" stroke="#006D77" stroke-width="4.81" stroke-miterlimit="10"/>
<path d="M191.768 106.077C191.191 106.077 190.614 105.891 190.125 105.509C188.971 104.604 188.758 102.927 189.664 101.774L213.588 71.196C214.494 70.0335 216.171 69.8294 217.325 70.7345C218.479 71.6396 218.693 73.3167 217.787 74.4702L193.863 105.048C197.326 100.621 195.37 103.121 191.759 106.068L191.768 106.077Z" fill="#006D77" stroke="#006D77" stroke-width="4.81" stroke-miterlimit="10"/>
<path d="M105.648 251.407C98.2706 251.407 91.1332 249.011 85.1676 244.468L35.5701 206.72C28.3617 201.228 23.7278 193.268 22.5116 184.288C21.2954 175.317 23.6567 166.408 29.1429 159.203L52.0198 129.176C52.9075 128.004 54.5853 127.782 55.7571 128.67C56.9289 129.557 57.1508 131.234 56.2631 132.397L33.3863 162.424C28.7612 168.494 26.7727 176.01 27.7936 183.57C28.8145 191.139 32.7293 197.847 38.8014 202.479L88.399 240.227C94.4711 244.85 101.99 246.837 109.554 245.817C117.126 244.796 123.837 240.883 128.462 234.814L196.019 146.159C200.644 140.09 202.632 132.574 201.611 125.014C200.59 117.454 196.676 110.737 190.595 106.114C189.423 105.226 189.201 103.549 190.089 102.387C190.976 101.215 192.645 100.994 193.817 101.881C201.025 107.365 205.668 115.324 206.885 124.304C208.101 133.284 205.748 142.184 200.253 149.389L132.697 238.044C127.211 245.249 119.248 249.881 110.264 251.096C108.719 251.309 107.183 251.407 105.648 251.407Z" fill="#006D77" stroke="#006D77" stroke-width="4.81" stroke-miterlimit="10"/>
<path d="M52.0468 187.696C51.4876 187.696 50.9194 187.519 50.4312 187.155C49.2594 186.268 49.0374 184.591 49.9252 183.428L66.7033 161.404C67.591 160.233 69.2688 160.011 70.4406 160.899C71.6125 161.786 71.8344 163.463 70.9467 164.625L54.1685 186.649C53.6448 187.332 52.8547 187.696 52.0468 187.696Z" fill="#006D77" stroke="#006D77" stroke-width="4.81" stroke-miterlimit="10"/>
<path d="M153.23 156.657C152.671 156.657 152.103 156.479 151.615 156.116C150.443 155.228 150.221 153.551 151.109 152.389L170.763 126.594C171.651 125.423 173.329 125.201 174.5 126.088C175.672 126.975 175.894 128.652 175.007 129.815L155.352 155.61C154.828 156.293 154.038 156.657 153.23 156.657Z" fill="#006D77" stroke="#006D77" stroke-width="4.81" stroke-miterlimit="10"/>
<path d="M110.549 212.684C109.99 212.684 109.421 212.507 108.933 212.143C107.761 211.256 107.539 209.579 108.427 208.416L128.082 182.621C128.969 181.45 130.647 181.228 131.819 182.115C132.991 183.003 133.213 184.68 132.325 185.842L112.67 211.637C112.147 212.32 111.357 212.684 110.549 212.684Z" fill="#006D77" stroke="#006D77" stroke-width="4.81" stroke-miterlimit="10"/>
<path d="M30.5734 65.1093C29.0997 65.1093 27.9102 63.9202 27.9102 62.4472V48.9862C27.9102 47.5133 29.0997 46.3242 30.5734 46.3242C32.047 46.3242 33.2365 47.5133 33.2365 48.9862V62.4472C33.2365 63.9202 32.047 65.1093 30.5734 65.1093Z" fill="#006D77" stroke="#006D77" stroke-width="4.81" stroke-miterlimit="10"/>
<path d="M18.5442 77.6112H5.06847C3.59483 77.6112 2.40527 76.4221 2.40527 74.9491C2.40527 73.4761 3.59483 72.2871 5.06847 72.2871H18.5354C20.009 72.2871 21.1985 73.4761 21.1985 74.9491C21.1985 76.4221 20.009 77.6112 18.5354 77.6112H18.5442Z" fill="#006D77" stroke="#006D77" stroke-width="4.81" stroke-miterlimit="10"/>
<path d="M31.0431 103.105C29.5694 103.105 28.3799 101.916 28.3799 100.443V86.9823C28.3799 85.5094 29.5694 84.3203 31.0431 84.3203C32.5167 84.3203 33.7063 85.5094 33.7063 86.9823V100.443C33.7063 101.916 32.5167 103.105 31.0431 103.105Z" fill="#006D77" stroke="#006D77" stroke-width="4.81" stroke-miterlimit="10"/>
<path d="M56.5481 77.1424H43.0812C41.6075 77.1424 40.418 75.9534 40.418 74.4804C40.418 73.0074 41.6075 71.8184 43.0812 71.8184H56.5481C58.0217 71.8184 59.2112 73.0074 59.2112 74.4804C59.2112 75.9534 58.0217 77.1424 56.5481 77.1424Z" fill="#006D77" stroke="#006D77" stroke-width="4.81" stroke-miterlimit="10"/>
<path d="M225.768 179.406C224.294 179.406 223.104 178.217 223.104 176.744V163.283C223.104 161.81 224.294 160.621 225.768 160.621C227.241 160.621 228.431 161.81 228.431 163.283V176.744C228.431 178.217 227.241 179.406 225.768 179.406Z" fill="#006D77" stroke="#006D77" stroke-width="4.81" stroke-miterlimit="10"/>
<path d="M213.73 191.908H200.263C198.789 191.908 197.6 190.719 197.6 189.246C197.6 187.773 198.789 186.584 200.263 186.584H213.73C215.203 186.584 216.393 187.773 216.393 189.246C216.393 190.719 215.203 191.908 213.73 191.908Z" fill="#006D77" stroke="#006D77" stroke-width="4.81" stroke-miterlimit="10"/>
<path d="M226.237 217.402C224.764 217.402 223.574 216.213 223.574 214.74V201.279C223.574 199.806 224.764 198.617 226.237 198.617C227.711 198.617 228.901 199.806 228.901 201.279V214.74C228.901 216.213 227.711 217.402 226.237 217.402Z" fill="#006D77" stroke="#006D77" stroke-width="4.81" stroke-miterlimit="10"/>
<path d="M251.742 191.439H238.275C236.802 191.439 235.612 190.25 235.612 188.777C235.612 187.304 236.802 186.115 238.275 186.115H251.742C253.216 186.115 254.406 187.304 254.406 188.777C254.406 190.25 253.216 191.439 251.742 191.439Z" fill="#006D77" stroke="#006D77" stroke-width="4.81" stroke-miterlimit="10"/>
</svg>
