<svg width="242" height="248" viewBox="0 0 242 248" fill="none" xmlns="http://www.w3.org/2000/svg">
<path d="M200.775 141.907C195.096 139.764 189.11 138.678 182.987 138.678C175.027 138.678 167.418 140.483 160.377 144.018C159.948 144.233 159.504 144.324 159.06 144.324C157.989 144.324 156.948 143.728 156.442 142.718C156.427 142.672 156.412 142.626 156.397 142.58C153.733 144.156 151.207 145.946 148.849 147.936C148.849 147.936 148.865 147.951 148.88 147.966C149.982 149.16 149.906 151.012 148.727 152.113C147.487 153.261 146.308 154.485 145.191 155.74C144.609 156.398 143.798 156.735 142.986 156.735C142.313 156.735 141.655 156.505 141.103 156.046C139.71 157.836 138.44 159.719 137.276 161.693C138.624 162.488 139.129 164.187 138.394 165.579C137.69 166.911 137.031 168.303 136.45 169.696C135.975 170.828 134.888 171.502 133.74 171.502C133.434 171.502 133.128 171.44 132.822 171.333C131.214 176.016 130.219 180.974 129.959 186.146C131.429 186.299 132.592 187.539 132.592 189.038C132.592 216.812 155.202 239.414 182.987 239.414C210.772 239.414 233.382 216.812 233.382 189.038C233.382 184.294 232.724 179.597 231.423 175.067C230.979 173.506 231.867 171.884 233.428 171.44C233.688 171.364 233.933 171.348 234.194 171.333C232.188 165.534 229.234 160.178 225.483 155.48L181.563 214.593C181.028 215.313 180.201 215.741 179.313 215.772C179.282 215.772 179.237 215.772 179.206 215.772C178.349 215.772 177.537 215.404 176.986 214.746L145.13 177.714C144.073 176.49 144.211 174.639 145.436 173.583C146.66 172.527 148.513 172.665 149.569 173.889L179.022 208.136L221.488 150.981C216.711 146.176 211.017 142.274 204.694 139.55C204.664 139.749 204.618 139.963 204.541 140.162C203.975 141.677 202.276 142.442 200.76 141.876L200.775 141.907Z" fill="#E8FDF8"/>
<path d="M182.982 120.004C184.605 120.004 185.922 118.688 185.922 117.081V19.4819C185.922 10.0708 178.252 2.4043 168.838 2.4043H19.4894C10.0748 2.4043 2.40527 10.0708 2.40527 19.4819V228.207C2.40527 237.634 10.0748 245.285 19.4894 245.285H134.669C136.292 245.285 137.609 243.969 137.609 242.362C137.609 240.755 136.292 239.439 134.669 239.439H19.4894C13.3048 239.439 8.26837 234.405 8.26837 228.223V19.4971C8.26837 13.3149 13.3048 8.28044 19.4894 8.28044H168.838C175.022 8.28044 180.059 13.3149 180.059 19.4971V117.096C180.059 118.718 181.155 120.004 182.778 120.004L182.982 120.004Z" fill="#006D77" stroke="#006D77" stroke-width="4.81" stroke-miterlimit="10"/>
<path d="M144.16 60.7676H121.763C120.141 60.7676 118.824 62.0836 118.824 63.6904C118.824 65.2971 120.141 66.6131 121.763 66.6131H144.16C145.782 66.6131 147.099 65.2971 147.099 63.6904C147.099 62.0836 145.782 60.7676 144.16 60.7676Z" fill="#006D77" stroke="#006D77" stroke-width="4.81" stroke-miterlimit="10"/>
<path d="M95.3442 60.7676H44.1378C42.5151 60.7676 41.2139 62.0836 41.2139 63.6904C41.2139 65.2971 42.5304 66.6131 44.1378 66.6131H95.3442C96.9669 66.6131 98.2834 65.2971 98.2834 63.6904C98.2834 62.0836 96.9669 60.7676 95.3442 60.7676Z" fill="#006D77" stroke="#006D77" stroke-width="4.81" stroke-miterlimit="10"/>
<path d="M147.104 103.776C147.104 102.154 145.787 100.854 144.165 100.854H123.3C121.677 100.854 120.36 102.17 120.36 103.776C120.36 105.383 121.677 106.699 123.3 106.699H144.165C145.787 106.699 147.104 105.383 147.104 103.776Z" fill="#006D77" stroke="#006D77" stroke-width="4.81" stroke-miterlimit="10"/>
<path d="M85.1143 103.776C85.1143 105.398 86.4308 106.699 88.0535 106.699H102.627C104.25 106.699 105.566 105.383 105.566 103.776C105.566 102.17 104.25 100.854 102.627 100.854H88.0535C86.4308 100.854 85.1143 102.17 85.1143 103.776Z" fill="#006D77" stroke="#006D77" stroke-width="4.81" stroke-miterlimit="10"/>
<path d="M44.126 106.722H68.8949C70.5176 106.722 71.8341 105.406 71.8341 103.8C71.8341 102.193 70.5176 100.877 68.8949 100.877H44.126C42.5033 100.877 41.2021 102.193 41.2021 103.8C41.2021 105.406 42.5186 106.722 44.126 106.722Z" fill="#006D77" stroke="#006D77" stroke-width="4.81" stroke-miterlimit="10"/>
<path d="M129.891 143.89C129.891 142.268 128.574 140.967 126.951 140.967H44.1179C42.4952 140.967 41.1787 142.283 41.1787 143.89C41.1787 145.496 42.4952 146.812 44.1179 146.812H126.951C128.574 146.812 129.891 145.496 129.891 143.89Z" fill="#006D77" stroke="#006D77" stroke-width="4.81" stroke-miterlimit="10"/>
<path d="M44.1179 181.045C42.4952 181.045 41.1787 182.361 41.1787 183.968C41.1787 185.574 42.4952 186.89 44.1179 186.89H111.153C112.776 186.89 114.092 185.574 114.092 183.968C114.092 182.361 112.776 181.045 111.153 181.045H44.1179Z" fill="#006D77" stroke="#006D77" stroke-width="4.81" stroke-miterlimit="10"/>
<path d="M202.821 136.411C196.483 134.023 189.809 132.814 182.966 132.814C174.087 132.814 165.591 134.819 157.722 138.782C156.314 139.486 155.748 141.17 156.375 142.577C156.391 142.623 156.406 142.669 156.421 142.715C156.942 143.74 157.967 144.322 159.039 144.322C159.483 144.322 159.927 144.215 160.356 144.016C167.413 140.466 175.021 138.675 182.966 138.675C189.089 138.675 195.09 139.762 200.754 141.904C202.27 142.47 203.969 141.72 204.535 140.19C204.612 139.991 204.658 139.777 204.688 139.578C204.887 138.247 204.137 136.916 202.821 136.411Z" fill="#006D77" stroke="#006D77" stroke-width="4.81" stroke-miterlimit="10"/>
<path d="M145.176 155.747C146.294 154.477 147.488 153.253 148.712 152.121C149.906 151.019 149.968 149.167 148.865 147.974C148.865 147.974 148.85 147.958 148.835 147.943C147.733 146.78 145.896 146.734 144.717 147.821C143.339 149.091 142.007 150.453 140.767 151.876C139.696 153.085 139.818 154.936 141.028 156.007C141.043 156.023 141.074 156.038 141.089 156.053C141.64 156.512 142.298 156.742 142.972 156.742C143.783 156.742 144.594 156.405 145.176 155.747Z" fill="#006D77" stroke="#006D77" stroke-width="4.81" stroke-miterlimit="10"/>
<path d="M136.447 169.687C137.029 168.295 137.672 166.918 138.391 165.571C139.126 164.179 138.621 162.465 137.274 161.684C137.243 161.669 137.213 161.638 137.167 161.608C135.728 160.858 133.967 161.393 133.202 162.832C132.406 164.332 131.686 165.877 131.028 167.438C130.4 168.938 131.12 170.652 132.605 171.264C132.681 171.294 132.743 171.309 132.819 171.325C133.125 171.432 133.431 171.493 133.738 171.493C134.886 171.493 135.973 170.82 136.447 169.687Z" fill="#006D77" stroke="#006D77" stroke-width="4.81" stroke-miterlimit="10"/>
<path d="M231.411 175.082C232.712 179.596 233.37 184.294 233.37 189.053C233.37 216.827 210.76 239.429 182.975 239.429C155.19 239.429 132.58 216.827 132.58 189.053C132.58 187.538 131.432 186.314 129.947 186.161C129.84 186.161 129.748 186.13 129.641 186.13C128.018 186.13 126.717 187.446 126.717 189.053C126.717 220.056 151.945 245.289 182.975 245.289C214.005 245.289 239.233 220.071 239.233 189.053C239.233 183.758 238.498 178.509 237.044 173.46C236.661 172.159 235.467 171.333 234.181 171.348C233.921 171.348 233.676 171.378 233.416 171.455C231.855 171.899 230.967 173.521 231.411 175.082Z" fill="#006D77" stroke="#006D77" stroke-width="4.81" stroke-miterlimit="10"/>
<path d="M149.579 173.927C148.523 172.703 146.671 172.565 145.446 173.621C144.222 174.677 144.084 176.528 145.14 177.752L176.997 214.784C177.563 215.427 178.374 215.81 179.216 215.81C179.247 215.81 179.293 215.81 179.324 215.81C180.211 215.779 181.038 215.351 181.574 214.631L225.494 155.518L234.663 143.169C235.628 141.868 235.352 140.032 234.051 139.068C232.75 138.104 230.913 138.379 229.948 139.68L221.513 151.034L179.048 208.189L149.595 173.942L149.579 173.927Z" fill="#006D77" stroke="#006D77" stroke-width="4.81" stroke-miterlimit="10"/>
</svg>
