<svg width="267" height="254" viewBox="0 0 267 254" fill="none" xmlns="http://www.w3.org/2000/svg">
<path d="M103.575 244.739L152.792 195.476C153.583 194.685 154.028 193.621 154.028 192.499C154.028 191.378 153.597 190.314 152.792 189.523L63.9683 100.602C63.1495 99.7822 62.0721 99.3652 60.9946 99.3652C59.9172 99.3652 58.8397 99.7822 58.0209 100.602L8.80348 149.879C7.16577 151.519 7.16577 154.193 8.80348 155.832L97.6419 244.754C99.2365 246.35 101.995 246.35 103.589 244.754L103.575 244.739ZM80.7908 197.475C74.1681 197.475 67.9477 194.901 63.2644 190.213C58.5812 185.526 56.0097 179.299 56.0097 172.671C56.0097 166.042 58.5812 159.815 63.2644 155.128C67.9477 150.44 74.1681 147.866 80.7908 147.866C87.4134 147.866 93.6338 150.44 98.3171 155.128C107.985 164.805 107.985 180.536 98.3171 190.199C93.6338 194.886 87.4134 197.46 80.7908 197.46V197.475Z" fill="#E8FDF8"/>
<mask id="path-2-inside-1_2533_2381" fill="white">
<path d="M237.772 21.3276C237.542 21.3276 237.327 21.3132 237.097 21.2988C237.327 21.3563 237.542 21.4139 237.772 21.457V21.3132V21.3276Z"/>
</mask>
<path d="M237.772 21.3276V26.1398H242.584V21.3276H237.772ZM237.097 21.2988L237.397 16.496L235.929 25.9671L237.097 21.2988ZM237.772 21.457L236.884 26.1867L242.584 27.2564V21.457H237.772ZM237.772 21.3276V16.5153C237.722 16.5153 237.667 16.5129 237.397 16.496L237.097 21.2988L236.796 26.1017C236.986 26.1136 237.362 26.1398 237.772 26.1398V21.3276ZM237.097 21.2988L235.929 25.9671C236.061 26.0004 236.472 26.1094 236.884 26.1867L237.772 21.457L238.66 16.7273C238.656 16.7267 238.633 16.7222 238.567 16.7062C238.534 16.6982 238.495 16.6887 238.444 16.6756C238.4 16.6645 238.328 16.6462 238.265 16.6305L237.097 21.2988ZM237.772 21.457H242.584V21.3132H237.772H232.96V21.457H237.772ZM237.772 21.3132H232.96V21.3276H237.772H242.584V21.3132H237.772Z" fill="#006D77" mask="url(#path-2-inside-1_2533_2381)"/>
<path d="M194.199 121.234C219.87 118.517 237.77 99.7087 237.77 75.451V21.4714C237.54 21.4139 237.325 21.3564 237.095 21.3132C220.014 20.8819 204.312 17.0426 194.199 10.8164C183.941 17.1289 167.967 20.9825 150.627 21.342V75.451C150.627 99.7231 168.527 118.517 194.184 121.234H194.199Z" fill="#E8FDF8"/>
<path d="M240.355 16.1803C222.168 16.1803 205.461 12.226 195.663 5.58279C194.787 4.99324 193.637 4.99324 192.761 5.58279C182.949 12.2116 166.227 16.1803 148.055 16.1803C146.632 16.1803 145.469 17.345 145.469 18.7685V75.4514C145.469 102.556 165.409 123.507 193.939 126.411C194.025 126.411 194.112 126.411 194.198 126.411C194.284 126.411 194.37 126.411 194.456 126.411C223.001 123.507 242.941 102.556 242.941 75.4514V18.7685C242.941 17.345 241.777 16.1803 240.355 16.1803ZM194.212 10.8024C204.311 17.0286 220.013 20.8679 237.108 21.2993C237.338 21.2993 237.554 21.3137 237.784 21.328V75.437C237.784 99.7092 219.884 118.503 194.212 121.22C168.555 118.488 150.655 99.6948 150.655 75.437V21.328C167.994 20.9829 183.969 17.1149 194.226 10.8024H194.212Z" fill="#006D77" stroke="#006D77" stroke-width="4.81224" stroke-miterlimit="10"/>
<path d="M193.821 109.011C193.95 109.025 194.079 109.039 194.194 109.039C195.458 109.039 196.564 108.105 196.751 106.825C196.952 105.416 195.975 104.093 194.568 103.892C182.256 102.094 167.876 93.5818 167.876 75.4496C167.876 74.026 166.712 72.8613 165.29 72.8613C163.868 72.8613 162.704 74.026 162.704 75.4496C162.704 88.851 170.85 105.675 193.821 109.025V109.011Z" fill="#006D77" stroke="#006D77" stroke-width="4.81224" stroke-miterlimit="10"/>
<path d="M159.202 192.513C159.202 190.011 158.225 187.653 156.458 185.884L67.6344 96.9634C63.9855 93.3111 58.038 93.2967 54.3747 96.9634L5.14294 146.212C1.49402 149.865 1.49402 155.818 5.14294 159.484L93.9814 248.405C95.8058 250.231 98.2049 251.152 100.604 251.152C103.003 251.152 105.402 250.231 107.227 248.405L156.444 199.142C158.211 197.373 159.188 195.015 159.188 192.513H159.202ZM8.80624 155.832C7.16853 154.193 7.16853 151.518 8.80624 149.879L58.0236 100.616C58.8425 99.7961 59.9199 99.3791 60.9974 99.3791C62.0748 99.3791 63.1522 99.7961 63.9711 100.616L152.795 189.537C153.585 190.328 154.031 191.392 154.031 192.513C154.031 193.635 153.6 194.699 152.795 195.49L103.578 244.753C101.997 246.349 99.2249 246.349 97.6303 244.753L8.80624 155.832Z" fill="#006D77" stroke="#006D77" stroke-width="4.81224" stroke-miterlimit="10"/>
<path d="M98.3221 155.14C93.6388 150.453 87.4184 147.879 80.7957 147.879C74.1731 147.879 67.9527 150.453 63.2694 155.14C58.5861 159.828 56.0146 166.054 56.0146 172.683C56.0146 179.312 58.5861 185.538 63.2694 190.226C67.9527 194.913 74.1731 197.487 80.7957 197.487C87.4184 197.487 93.6388 194.913 98.3221 190.226C107.99 180.549 107.99 164.818 98.3221 155.155V155.14ZM94.6588 186.559C90.9524 190.269 86.0249 192.311 80.7957 192.311C75.5666 192.311 70.6391 190.269 66.9327 186.559C63.2263 182.849 61.1864 177.917 61.1864 172.683C61.1864 167.449 63.2263 162.517 66.9327 158.807C70.6391 155.097 75.5666 153.055 80.7957 153.055C86.0249 153.055 90.9524 155.097 94.6588 158.807C102.301 166.457 102.301 178.909 94.6588 186.559Z" fill="#006D77" stroke="#006D77" stroke-width="4.81224" stroke-miterlimit="10"/>
<path d="M23.1218 109.276C23.2511 109.291 23.6748 109.386 23.8041 109.386C25.0682 109.386 26.1744 108.452 26.3612 107.158C30.0245 81.4331 42.4509 57.3335 61.342 39.3164C80.2906 21.2417 105.043 9.96836 131.045 7.58141C132.467 7.452 133.516 6.18663 133.387 4.76309C133.257 3.33954 131.993 2.27548 130.571 2.41927C103.42 4.90688 77.5754 16.6691 57.7793 35.549C38.0406 54.3714 25.0682 79.535 21.2469 106.41C21.0458 107.819 22.0227 109.142 23.4449 109.343L23.1218 109.276Z" fill="#006D77" stroke="#006D77" stroke-width="4.81224" stroke-miterlimit="10"/>
<path d="M130.514 25.7983C97.7594 29.5369 69.1857 49.3515 54.0728 78.8001C53.4263 80.0655 53.9148 81.6328 55.1933 82.2799C55.5668 82.4668 55.9691 82.5675 56.3713 82.5675C57.3051 82.5675 58.2102 82.0498 58.6699 81.1583C72.9926 53.2482 100.072 34.4834 131.103 30.9317C132.525 30.7735 133.545 29.4938 133.372 28.0702C133.214 26.6467 131.936 25.6258 130.514 25.7983Z" fill="#006D77" stroke="#006D77" stroke-width="4.81224" stroke-miterlimit="10"/>
<path d="M179.838 208C210.509 195.911 232.98 169.376 239.956 137.02C240.253 135.63 239.376 134.243 237.973 133.948C237.564 133.865 237.15 133.871 236.761 133.976C235.859 134.217 235.119 134.952 234.906 135.932C228.294 166.598 206.994 191.732 177.941 203.194C176.608 203.715 175.954 205.215 176.489 206.545C177.01 207.879 178.509 208.535 179.838 208Z" fill="#006D77" stroke="#006D77" stroke-width="4.81224" stroke-miterlimit="10"/>
<path d="M258.581 89.0397C258.322 87.8894 257.288 87.041 256.066 87.041C254.644 87.041 253.481 88.2057 253.481 89.6437C253.481 89.8881 253.524 90.1469 253.596 90.3914C256.828 101.205 258.466 112.463 258.466 123.852C258.466 188.242 206.145 240.611 141.829 240.611C139.157 240.611 136.399 240.51 133.641 240.323C132.219 240.223 130.983 241.301 130.882 242.725C130.782 244.148 131.859 245.385 133.282 245.486C136.155 245.687 139.028 245.788 141.815 245.788C208.975 245.788 263.623 191.089 263.623 123.852C263.623 112.018 261.928 100.299 258.581 89.0541V89.0397Z" fill="#006D77" stroke="#006D77" stroke-width="4.81224" stroke-miterlimit="10"/>
</svg>
