<svg width="51" height="52" viewBox="0 0 51 52" fill="none" xmlns="http://www.w3.org/2000/svg">
<path d="M46.4128 39.033C45.796 39.093 45.081 39.3985 44.3333 39.7177C43.5992 40.0314 42.8432 40.3561 42.0982 40.4706C41.839 40.5197 40.7692 41.3654 40.3025 42.874C40.2616 43.0103 40.1606 43.1086 40.0433 43.1658C40.3735 44.1015 41.1813 44.8108 41.9072 45.0727C43.7574 43.365 45.2857 41.3217 46.4128 39.0303V39.033Z" fill="#E8FDF8"/>
<path d="M45.4386 27.1036C46.421 27.9629 47.4662 28.7486 48.5141 28.8468C48.3777 26.1461 47.7255 23.5328 46.5575 21.0749C45.8534 20.9412 45.0319 21.6805 44.6772 22.357C44.5544 22.5916 44.3661 23.0526 44.508 24.3266C44.6144 25.2896 44.7181 26.1816 45.062 26.9863C45.193 26.9727 45.3294 27.0109 45.4358 27.1036H45.4386Z" fill="#E8FDF8"/>
<path d="M12.8407 15.4908C12.9662 15.4908 13.0945 15.4417 13.19 15.3462C15.6242 12.8965 18.6589 11.0797 21.9719 10.0922C23.2545 9.70753 24.5835 9.44837 25.918 9.31743C27.4981 9.16739 29.1 9.20286 30.6828 9.42382C30.953 9.46201 31.1986 9.27378 31.2368 9.00372C31.275 8.73638 31.0867 8.48813 30.8165 8.44994C29.1573 8.22079 27.479 8.1826 25.8225 8.34082C24.4225 8.47722 23.0335 8.75002 21.6881 9.15102C18.2195 10.1849 15.0402 12.0863 12.4914 14.6533C12.3003 14.847 12.3003 15.158 12.4914 15.3489C12.5869 15.4444 12.7124 15.4908 12.8379 15.4908H12.8407Z" fill="#0E172A" stroke="#0E172A" stroke-width="0.4" stroke-miterlimit="10"/>
<path d="M7.85484 24.6731C7.85484 24.3976 7.6338 24.1793 7.36362 24.1793C7.13166 24.1793 6.93517 24.343 6.88605 24.5612C5.54066 29.8153 6.21745 35.3475 8.79089 40.1433C11.3807 44.9663 15.6652 48.6026 20.8531 50.3812C23.1399 51.1642 25.5114 51.5543 27.8775 51.5543C30.8303 51.5543 33.7721 50.9487 36.5338 49.7429C41.4706 47.5878 45.4003 43.7087 47.6026 38.8202C47.6026 38.8202 47.6026 38.8202 47.6026 38.8175C47.6054 38.812 47.6081 38.8066 47.6108 38.7984C47.8783 38.1982 48.1293 37.5681 48.3504 36.9243C49.1964 34.4609 49.5894 31.9021 49.5184 29.3188C49.4393 26.3044 48.7379 23.3909 47.4416 20.6548C47.3243 20.4093 47.0323 20.3056 46.7867 20.4229C46.5411 20.5402 46.4374 20.8321 46.5547 21.0776C47.7227 23.5355 48.375 26.1489 48.5114 28.8496C47.4635 28.7514 46.4183 27.9657 45.4358 27.1064C45.3294 27.0137 45.1929 26.9755 45.062 26.9891C44.9419 27.0027 44.8273 27.0573 44.7427 27.1528C44.5653 27.3574 44.5844 27.6684 44.7891 27.8457C45.9352 28.8468 47.1769 29.758 48.5387 29.8343C48.5469 32.134 48.1757 34.4091 47.4225 36.6051C47.2506 37.0989 47.0623 37.5817 46.8604 38.0509C45.9189 37.9718 44.9173 38.4001 43.9431 38.8175C43.2663 39.1066 42.5649 39.4067 41.9427 39.5049C41.2277 39.6168 39.8987 40.8443 39.3584 42.5875C39.2792 42.8467 39.4239 43.1222 39.6831 43.2013C39.7322 43.2149 39.7786 43.2231 39.8277 43.2231C39.9014 43.2231 39.9724 43.2013 40.0379 43.1685C40.158 43.1113 40.2562 43.0131 40.2971 42.8767C40.7638 41.3681 41.8335 40.5224 42.0928 40.4733C42.8351 40.3588 43.5938 40.0341 44.3279 39.7204C45.0729 39.4013 45.7879 39.0957 46.4073 39.0357C45.283 41.3272 43.752 43.3704 41.9018 45.0781C40.2207 46.6303 38.2777 47.9097 36.1354 48.8454C31.387 50.9186 26.0709 51.1369 21.1669 49.4537C16.2137 47.757 12.1257 44.2843 9.65325 39.6795C7.19169 35.0993 6.54766 29.8125 7.83574 24.7958C7.84666 24.7549 7.85212 24.714 7.85212 24.6731H7.85484Z" fill="#0E172A" stroke="#0E172A" stroke-width="0.4" stroke-miterlimit="10"/>
<path d="M32.3094 28.2085C32.3094 28.2112 32.3121 28.214 32.3149 28.2194C32.3149 28.2194 32.3121 28.214 32.3094 28.2112V28.2085Z" fill="#E8FDF8"/>
<path d="M30.5001 26.8964C30.8139 27.1173 31.155 27.3246 31.5262 27.5183C31.1741 27.2565 30.8248 27.0546 30.5001 26.8964Z" fill="#E8FDF8"/>
<path d="M20.6402 25.1341C19.0191 25.4996 13.7467 26.9154 13.8777 29.7716C13.9705 31.7957 14.6746 33.5307 15.8126 34.5346C16.5494 35.1866 17.439 35.4894 18.3833 35.4185C19.8733 35.3039 21.2296 35.7458 22.2039 36.6651C23.1972 37.6035 23.7294 38.9757 23.7021 40.5334C23.6693 42.3365 24.0241 44.6607 25.1212 45.7847C25.5114 46.1857 25.9508 46.3821 26.4665 46.3848H26.4747C26.8568 46.3848 27.2525 46.1475 27.6455 45.6783C29.0318 44.0224 29.8232 40.1705 29.4739 38.2964C29.1355 36.4878 29.9597 34.4364 30.6883 32.6278C31.6025 30.3581 32.1101 28.9396 31.0704 28.3885C30.2844 27.9739 29.6186 27.5129 29.04 26.9809C28.8626 26.8172 28.8326 26.5554 28.9554 26.3589C26.3083 25.7533 23.6611 25.1505 21.0113 24.5449C21.0713 24.8095 20.9049 25.0714 20.6402 25.1314V25.1341Z" fill="#E8FDF8"/>
<path d="M36.0126 9.86581C33.5265 10.9706 31.4634 12.0182 29.8642 12.9866L25.7107 11.9909C25.154 11.8572 24.5727 12.0427 24.1934 12.471C23.814 12.902 23.7076 13.5022 23.9123 14.0368C24.0787 14.4706 24.3462 14.8661 24.6846 15.1826L26.0682 16.4756C26.191 16.5902 26.2838 16.7293 26.3438 16.8875L26.644 17.6705C26.704 17.8287 26.7259 17.9924 26.7122 18.1615L26.5403 20.0492C26.4994 20.5103 26.5649 20.9849 26.7286 21.4187C26.9333 21.9533 27.4136 22.3298 27.9812 22.398C28.5516 22.4662 29.1083 22.218 29.433 21.746L31.8673 18.2379C33.6984 17.8996 35.9362 17.3049 38.5315 16.4729L39.8742 25.5679C39.9287 25.9416 40.1471 26.2662 40.4691 26.4626C40.6628 26.5799 40.8839 26.64 41.1022 26.64C41.2359 26.64 41.3696 26.6181 41.4979 26.5745C42.1692 26.3399 42.6686 25.7888 42.8269 25.0959L45.3977 14.0096C50.6537 11.7781 50.6837 9.43752 50.2225 8.23177C49.7613 7.02602 48.1812 5.29923 42.7751 7.13514L33.4692 0.577156C32.8879 0.167964 32.1511 0.0861257 31.4907 0.35892C31.1578 0.498046 30.904 0.779024 30.7975 1.1282C30.6856 1.48829 30.743 1.87566 30.9504 2.1921L36.0099 9.87127L36.0126 9.86581ZM31.739 1.41191C31.7554 1.3628 31.7882 1.29733 31.87 1.26187C32.2139 1.12002 32.5987 1.16094 32.9043 1.37644L42.4148 8.08174C42.5458 8.17449 42.715 8.19631 42.8651 8.14175C46.3801 6.90599 48.727 7.06694 49.3056 8.58095C49.8841 10.095 48.2385 11.7781 44.7891 13.1994C44.6417 13.2594 44.5325 13.3876 44.4971 13.5431L41.8718 24.8722C41.7872 25.2351 41.5279 25.5242 41.1759 25.6443C41.094 25.6743 41.0231 25.647 40.9794 25.6197C40.9085 25.5761 40.8593 25.5051 40.8484 25.4233L39.4211 15.7554C39.3993 15.6109 39.3174 15.4854 39.1919 15.409C39.1128 15.3599 39.0227 15.3353 38.9327 15.3353C38.8808 15.3353 38.829 15.3435 38.7798 15.3599C35.8953 16.3038 33.4447 16.9585 31.4934 17.3049C31.3652 17.3267 31.2505 17.4004 31.1768 17.5095L28.6252 21.1841C28.5052 21.3559 28.3087 21.4459 28.0986 21.4187C27.8884 21.3941 27.7192 21.2604 27.6428 21.064C27.5309 20.7694 27.4845 20.4475 27.5145 20.1338L27.6865 18.2461C27.7138 17.9323 27.6701 17.6105 27.5582 17.3186L27.258 16.5356C27.1461 16.241 26.966 15.9737 26.7341 15.7582L25.3505 14.4651C25.1212 14.2496 24.9384 13.9796 24.8265 13.6849C24.7501 13.4885 24.7883 13.2757 24.9302 13.1175C25.0694 12.9593 25.2768 12.8938 25.4814 12.9429L29.8315 13.985C29.9433 14.0123 30.0634 13.9987 30.1671 13.9468C30.1808 13.9414 30.1917 13.9332 30.2053 13.925C31.8973 12.8856 34.1624 11.7426 36.9378 10.5287C37.0715 10.4714 37.1697 10.3568 37.2107 10.2177C37.2516 10.0786 37.2298 9.92856 37.1506 9.80853L31.7718 1.64378C31.7254 1.57558 31.7145 1.48829 31.739 1.40918V1.41191Z" fill="#0E172A" stroke="#0E172A" stroke-width="0.4" stroke-miterlimit="10"/>
<path d="M8.46879 45.6701C8.21499 45.5719 7.93118 45.6974 7.83294 45.9511C7.73469 46.2048 7.86023 46.4885 8.11402 46.5867C8.73078 46.8267 9.38301 47.0204 10.0516 47.165C10.0871 47.1732 10.1226 47.1759 10.1553 47.1759C10.3818 47.1759 10.5838 47.0177 10.6356 46.7885C10.6929 46.5239 10.5237 46.262 10.259 46.2048C9.63953 46.0711 9.03642 45.891 8.46879 45.6701Z" fill="#0E172A" stroke="#0E172A" stroke-width="0.4" stroke-miterlimit="10"/>
<path d="M4.47359 23.5328C4.61277 23.5328 4.75195 23.4728 4.85019 23.3582C5.65525 22.4062 6.57219 21.5769 7.57646 20.8976C7.80023 20.7448 7.86027 20.4393 7.70745 20.2156C7.55463 19.9919 7.24898 19.9319 7.0252 20.0847C5.94452 20.8158 4.95935 21.7051 4.09699 22.7253C3.92233 22.9327 3.94962 23.2409 4.15429 23.4182C4.24708 23.4946 4.35897 23.5328 4.47086 23.5328H4.47359Z" fill="#0E172A" stroke="#0E172A" stroke-width="0.4" stroke-miterlimit="10"/>
<path d="M1.10058 37.9036C1.13605 37.9036 1.17426 37.8981 1.21247 37.8899C1.47718 37.8272 1.64092 37.5653 1.58088 37.3007C1.31617 36.1604 1.17972 34.9629 1.17972 33.7462V33.6289C1.17972 33.3588 0.96413 33.1351 0.69396 33.1351H0.691228C0.421057 33.1351 0.202741 33.3534 0.200012 33.6234V33.7489C0.200012 35.042 0.341919 36.3132 0.625735 37.5271C0.677586 37.7535 0.879531 37.9063 1.10331 37.9063L1.10058 37.9036Z" fill="#0E172A" stroke="#0E172A" stroke-width="0.4" stroke-miterlimit="10"/>
<path d="M10.723 19.3099C10.7748 19.3099 10.8239 19.3017 10.8758 19.2854C11.9619 18.9307 13.1845 18.6798 14.5135 18.5352C14.7837 18.5052 14.9775 18.2651 14.9502 17.9951C14.9202 17.725 14.68 17.5313 14.4098 17.5586C13.0153 17.7086 11.7245 17.976 10.5729 18.3524C10.3164 18.437 10.1744 18.7125 10.259 18.9717C10.3273 19.179 10.5183 19.3099 10.7257 19.3099H10.723Z" fill="#0E172A" stroke="#0E172A" stroke-width="0.4" stroke-miterlimit="10"/>
<path d="M2.88258 40.7352C2.75159 40.4979 2.45141 40.4106 2.21398 40.5416C1.97656 40.6725 1.88923 40.9698 2.02022 41.2099C2.67791 42.402 3.49934 43.4523 4.46267 44.3307C4.55546 44.418 4.67553 44.4589 4.79288 44.4589C4.9266 44.4589 5.0576 44.4043 5.15584 44.2979C5.33868 44.0988 5.32503 43.7878 5.12582 43.605C4.24162 42.7976 3.48843 41.8319 2.87986 40.7352H2.88258Z" fill="#0E172A" stroke="#0E172A" stroke-width="0.4" stroke-miterlimit="10"/>
<path d="M1.02687 30.3145C1.06507 30.3227 1.10055 30.3281 1.13876 30.3281C1.36254 30.3281 1.56448 30.1753 1.61633 29.9462C1.89742 28.7295 2.31222 27.5538 2.8471 26.4544C2.96445 26.2116 2.86348 25.917 2.6206 25.797C2.37499 25.6797 2.08299 25.7806 1.96291 26.0234C1.39528 27.1882 0.955912 28.4349 0.658452 29.7252C0.598414 29.9898 0.762155 30.2517 1.02687 30.3145Z" fill="#0E172A" stroke="#0E172A" stroke-width="0.4" stroke-miterlimit="10"/>
<path d="M19.2838 18.4588C19.2838 18.4588 19.3056 18.4588 19.3138 18.4588C19.5703 18.4588 19.7887 18.2597 19.805 17.9978C19.8214 17.7277 19.6167 17.4931 19.3466 17.4768C19.0082 17.455 18.6561 17.4386 18.2932 17.4277C18.2877 17.4277 18.2823 17.4277 18.2768 17.4277C18.0121 17.4277 17.7938 17.6377 17.7856 17.9023C17.7774 18.1724 17.9903 18.4015 18.2604 18.4097C18.6125 18.4206 18.9536 18.437 19.2811 18.4588H19.2838Z" fill="#0E172A" stroke="#0E172A" stroke-width="0.4" stroke-miterlimit="10"/>
<path d="M21.3115 18.6498C22.4604 18.7944 23.1863 18.9444 23.1918 18.9471C23.2273 18.9553 23.26 18.958 23.2955 18.958C23.522 18.958 23.7267 18.7998 23.7758 18.5679C23.8331 18.3033 23.6639 18.0414 23.3965 17.9869C23.3664 17.9814 22.6269 17.8259 21.4343 17.6759C21.1696 17.6432 20.9185 17.8341 20.8858 18.1015C20.853 18.3715 21.0441 18.617 21.3115 18.6498Z" fill="#0E172A" stroke="#0E172A" stroke-width="0.4" stroke-miterlimit="10"/>
<path d="M31.7118 32.7096C31.7227 32.685 31.7309 32.6605 31.7418 32.6359C31.78 32.5377 31.8209 32.4395 31.8591 32.3413C31.8646 32.3249 31.8728 32.3059 31.8782 32.2895C31.9137 32.1995 31.9492 32.1094 31.9819 32.0194C31.9874 32.0058 31.9928 31.9921 31.9983 31.9758C32.0338 31.8803 32.0693 31.7821 32.1047 31.6866C32.1129 31.6648 32.1184 31.6457 32.1266 31.6239C32.162 31.5257 32.1948 31.4302 32.2275 31.332C32.2303 31.3211 32.233 31.3129 32.2384 31.302C32.2685 31.2119 32.2958 31.1219 32.323 31.0319C32.3285 31.0155 32.334 30.9964 32.3394 30.9801C32.3667 30.8873 32.394 30.7946 32.4186 30.7018C32.424 30.6827 32.4295 30.6636 32.4322 30.6473C32.4568 30.5545 32.4786 30.4618 32.5004 30.3717C32.5004 30.3717 32.5004 30.3663 32.5004 30.3636C32.5195 30.2708 32.5386 30.1808 32.5523 30.0908C32.555 30.0717 32.5577 30.0526 32.5605 30.0335C32.5741 29.9462 32.585 29.8589 32.5959 29.7743C32.5959 29.7607 32.5959 29.747 32.5987 29.7307C32.6069 29.6516 32.6123 29.5724 32.6123 29.4961C32.6123 29.4852 32.6123 29.4715 32.6123 29.4606C32.6123 29.3788 32.6123 29.2969 32.6069 29.2178C32.6069 29.2014 32.6069 29.1824 32.6041 29.166C32.5987 29.0869 32.5905 29.0078 32.5768 28.9314C32.5768 28.9232 32.5741 28.9177 32.5714 28.9096C32.5577 28.8386 32.5414 28.7677 32.5223 28.6995C32.5195 28.6859 32.5141 28.6722 32.5113 28.6586C32.4895 28.5877 32.4622 28.5167 32.4322 28.4513C32.4268 28.4376 32.4186 28.424 32.4131 28.4103C32.3804 28.3449 32.3476 28.2794 32.3067 28.2167C32.3067 28.2139 32.3039 28.2112 32.3012 28.2057C32.1266 27.9357 31.8728 27.7038 31.518 27.5183C31.1468 27.3219 30.8057 27.1146 30.4919 26.8963C30.2053 26.6945 29.9406 26.4844 29.6923 26.258C29.4931 26.0752 29.182 26.0861 28.9991 26.288C28.9773 26.3098 28.9609 26.3344 28.9445 26.3617C28.8217 26.5581 28.8518 26.82 29.0291 26.9836C29.6104 27.5156 30.2736 27.9766 31.0595 28.3913C32.0993 28.9396 31.5917 30.3581 30.6775 32.6305C29.9488 34.4391 29.1247 36.4905 29.4631 38.2992C29.8124 40.176 29.021 44.0278 27.6346 45.681C27.2417 46.1502 26.8487 46.3875 26.4639 46.3875H26.4557C25.9399 46.3821 25.5006 46.1856 25.1103 45.7874C24.016 44.6635 23.6585 42.3365 23.6912 40.5361C23.7185 38.9784 23.1864 37.6063 22.193 36.6678C21.2188 35.7513 19.8625 35.3066 18.3724 35.4212C17.4282 35.4921 16.5385 35.1893 15.8017 34.5373C14.6665 33.5334 13.9596 31.7957 13.8669 29.7743C13.7359 26.9209 19.0083 25.5024 20.6293 25.1368C20.894 25.0768 21.0605 24.8149 21.0004 24.5503C20.9404 24.2857 20.6784 24.1193 20.4137 24.1793C18.0968 24.7031 12.7234 26.3016 12.8871 29.8207C12.9908 32.1067 13.8177 34.0954 15.1522 35.2739C15.3869 35.4812 15.6352 35.6612 15.8918 35.814C16.1483 35.9668 16.4185 36.0895 16.6941 36.185C17.2481 36.3759 17.8375 36.4496 18.4488 36.4032C19.6632 36.3105 20.7521 36.6597 21.519 37.3826C21.7155 37.5681 21.8901 37.7781 22.0429 38.0073C22.193 38.2364 22.3186 38.4847 22.4195 38.752C22.6215 39.2839 22.7197 39.8814 22.7088 40.5197C22.6924 41.4908 22.7606 44.7889 24.4062 46.4748C24.9793 47.064 25.667 47.3668 26.4475 47.3723H26.4639C27.1516 47.3723 27.7984 47.0177 28.3851 46.3139C28.789 45.831 29.1438 45.2118 29.4412 44.5189C29.5913 44.1724 29.725 43.8096 29.8451 43.4359C29.9652 43.0621 30.0716 42.6775 30.159 42.2929C30.249 41.9082 30.3227 41.5209 30.38 41.1417C30.4373 40.7625 30.4782 40.3888 30.5001 40.0287C30.5465 39.3112 30.5246 38.6538 30.4237 38.1191C30.1371 36.5915 30.9067 34.6819 31.5835 32.996C31.6217 32.9033 31.6599 32.8078 31.6981 32.715L31.7118 32.7096Z" fill="#0E172A" stroke="#0E172A" stroke-width="0.4" stroke-miterlimit="10"/>
</svg>
