<svg width="38" height="41" viewBox="0 0 38 41" fill="none" xmlns="http://www.w3.org/2000/svg">
<path d="M15.7903 39.8185C15.776 39.8185 15.7616 39.8185 15.7473 39.8185C6.88462 38.9149 0.200012 31.6312 0.200012 22.8798V4.25832C0.200012 4.02166 0.393455 3.82804 0.629888 3.82804C6.68402 3.82804 12.2629 2.49896 15.5515 0.273457C15.6972 0.175449 15.8882 0.175449 16.0339 0.273457C19.3201 2.49896 24.8966 3.82804 30.9531 3.82804C31.1895 3.82804 31.3829 4.02166 31.3829 4.25832V20.0591C31.3829 20.2958 31.1895 20.4894 30.9531 20.4894C30.7166 20.4894 30.5232 20.2958 30.5232 20.0591V4.68621C24.61 4.62644 19.1601 3.31409 15.7927 1.14597C12.4229 3.31648 6.9706 4.62644 1.05976 4.68621V22.8774C1.05976 31.1723 7.38855 38.0782 15.7903 38.9555C17.3379 38.793 18.8472 38.4225 20.2777 37.8559C20.4975 37.7675 20.7482 37.875 20.8366 38.0974C20.925 38.3173 20.8151 38.5683 20.5954 38.6567C19.0789 39.2591 17.4764 39.6511 15.8357 39.8185C15.8213 39.8185 15.807 39.8185 15.7927 39.8185H15.7903Z" fill="white" stroke="white" stroke-width="0.4" stroke-miterlimit="10"/>
<path d="M6.06788 31.2463C5.93414 31.2463 5.80278 31.1842 5.71919 31.0695C3.98296 28.6695 3.06589 25.8368 3.06589 22.8774C3.06589 22.6408 3.25933 22.4471 3.49576 22.4471C3.7322 22.4471 3.92564 22.6408 3.92564 22.8774C3.92564 25.6551 4.78541 28.3133 6.41417 30.5651C6.55269 30.7587 6.50969 31.0264 6.31864 31.1651C6.24221 31.2201 6.15385 31.2463 6.06788 31.2463Z" fill="white" stroke="white" stroke-width="0.4" stroke-miterlimit="10"/>
<path d="M33.8142 24.0344C32.9879 22.6838 31.3233 22.134 29.8474 22.7316L23.7574 25.3658L20.5715 20.1547C19.9673 19.1674 18.6753 18.8543 17.6889 19.4591C16.7026 20.0639 16.3898 21.3571 16.994 22.3443L22.9024 32.0089L19.8742 30.8734C18.8019 30.4718 17.6054 31.0168 17.2017 32.0901C16.8005 33.1635 17.3474 34.3635 18.403 34.7579L27.7242 38.6615C27.7839 38.6878 27.8508 38.6997 27.9153 38.6949C28.6556 38.9388 29.4175 39.0607 30.1745 39.0607C31.5048 39.0607 32.8231 38.6878 33.9861 37.9587C37.3105 35.8718 38.3136 31.3945 36.2239 27.9738L33.8166 24.0344H33.8142ZM33.5276 37.2296C31.8773 38.2646 29.8784 38.4846 28.0419 37.832C27.9965 37.8152 27.9487 37.8081 27.9033 37.8081L18.7183 33.9619C18.0902 33.7276 17.7701 33.0248 18.0066 32.3961C18.2406 31.7674 18.9428 31.4495 19.5709 31.6838L23.7669 33.2567C23.9389 33.3212 24.1324 33.2686 24.2494 33.1276C24.3664 32.9866 24.3807 32.7858 24.2852 32.6304L17.7272 21.8997C17.3713 21.3164 17.5552 20.5539 18.1379 20.1977C18.7206 19.8415 19.4849 20.0256 19.8407 20.6089L23.2201 26.1403C23.3323 26.3244 23.5616 26.3961 23.7574 26.3101L30.1817 23.53C31.2564 23.0925 32.4792 23.4965 33.0834 24.4886L35.4907 28.428C37.3368 31.4471 36.4579 35.3985 33.53 37.2368L33.5276 37.2296Z" fill="white" stroke="white" stroke-width="0.4" stroke-miterlimit="10"/>
<path d="M16.1891 17.5347C16.2656 17.5347 16.3444 17.5132 16.4136 17.4702C16.6166 17.3459 16.6787 17.0805 16.5545 16.8773L15.4177 15.0224C15.2936 14.8192 15.0284 14.757 14.8255 14.8813C14.6225 15.0056 14.5604 15.271 14.6846 15.4742L15.8213 17.3291C15.9025 17.4606 16.0434 17.5347 16.1891 17.5347Z" fill="white" stroke="white" stroke-width="0.4" stroke-miterlimit="10"/>
<path d="M14.1854 19.5905L12.0695 19.0838C11.8378 19.0288 11.6062 19.1722 11.5512 19.4017C11.4963 19.6336 11.6396 19.8654 11.8688 19.9204L13.9848 20.4272C14.0183 20.4344 14.0517 20.4391 14.0851 20.4391C14.2786 20.4391 14.4553 20.3053 14.5031 20.1093C14.558 19.8774 14.4147 19.6455 14.1854 19.5905Z" fill="white" stroke="white" stroke-width="0.4" stroke-miterlimit="10"/>
<path d="M19.6305 16.9586C19.664 16.9658 19.6974 16.9706 19.7308 16.9706C19.9243 16.9706 20.101 16.8367 20.1488 16.6407L20.6551 14.5228C20.71 14.2909 20.5667 14.059 20.3375 14.0041C20.1058 13.9491 19.8741 14.0925 19.8192 14.322L19.3129 16.4399C19.258 16.6718 19.4013 16.9037 19.6305 16.9586Z" fill="white" stroke="white" stroke-width="0.4" stroke-miterlimit="10"/>
</svg>
