<svg width="38" height="41" viewBox="0 0 38 41" fill="none" xmlns="http://www.w3.org/2000/svg">
<path d="M15.7903 39.8185C15.776 39.8185 15.7616 39.8185 15.7473 39.8185C6.88462 38.915 0.200012 31.6313 0.200012 22.8799V4.25838C0.200012 4.02172 0.393455 3.8281 0.629888 3.8281C6.68402 3.8281 12.2629 2.49902 15.5515 0.273518C15.6972 0.17551 15.8882 0.17551 16.0339 0.273518C19.3201 2.49902 24.8966 3.8281 30.9531 3.8281C31.1895 3.8281 31.3829 4.02172 31.3829 4.25838V20.0592C31.3829 20.2958 31.1895 20.4895 30.9531 20.4895C30.7166 20.4895 30.5232 20.2958 30.5232 20.0592V4.68627C24.61 4.62651 19.1601 3.31416 15.7927 1.14603C12.4229 3.31655 6.9706 4.62651 1.05976 4.68627V22.8775C1.05976 31.1723 7.38855 38.0783 15.7903 38.9556C17.3379 38.793 18.8472 38.4225 20.2777 37.856C20.4975 37.7675 20.7482 37.8751 20.8366 38.0974C20.925 38.3173 20.8151 38.5683 20.5954 38.6568C19.0789 39.2592 17.4764 39.6512 15.8357 39.8185C15.8213 39.8185 15.807 39.8185 15.7927 39.8185H15.7903Z" fill="#0E172A" stroke="#0E172A" stroke-width="0.4" stroke-miterlimit="10"/>
<path d="M6.06788 31.2464C5.93414 31.2464 5.80278 31.1843 5.71919 31.0695C3.98296 28.6695 3.06589 25.8368 3.06589 22.8775C3.06589 22.6408 3.25933 22.4472 3.49576 22.4472C3.7322 22.4472 3.92564 22.6408 3.92564 22.8775C3.92564 25.6552 4.78541 28.3133 6.41417 30.5651C6.55269 30.7588 6.50969 31.0265 6.31864 31.1651C6.24221 31.2201 6.15385 31.2464 6.06788 31.2464Z" fill="#0E172A" stroke="#0E172A" stroke-width="0.4" stroke-miterlimit="10"/>
<path d="M18.1352 20.1931C18.7179 19.8369 19.4825 20.021 19.8383 20.6042L23.2172 26.1355C23.3295 26.3172 23.5595 26.3915 23.7553 26.3054L30.1791 23.5251C31.2538 23.0901 32.4739 23.4921 33.0805 24.4841L33.0786 24.4763L35.4858 28.4158C37.3319 31.4373 36.4528 35.3895 33.5248 37.2253C31.8747 38.2602 29.8759 38.4794 28.0395 37.8269C27.9941 37.8126 27.9462 37.8035 27.9008 37.8035L18.7162 33.9568C18.0905 33.7225 17.7703 33.02 18.0043 32.3914C18.2384 31.7627 18.9407 31.4452 19.5688 31.6794L23.7641 33.2517C23.936 33.3162 24.1295 33.2637 24.2465 33.1228C24.3635 32.9818 24.3782 32.7835 24.2827 32.6257L17.725 21.8953C17.3693 21.3145 17.5527 20.5494 18.1352 20.1931Z" fill="#E8FDF8"/>
<path d="M18.1352 20.1931C18.7179 19.8369 19.4825 20.021 19.8383 20.6042L23.2172 26.1355C23.3295 26.3172 23.5595 26.3915 23.7553 26.3054L30.1791 23.5251C31.2538 23.0901 32.4739 23.4921 33.0805 24.4841L33.0786 24.4763L35.4858 28.4158C37.3319 31.4373 36.4528 35.3895 33.5248 37.2253C31.8747 38.2602 29.8759 38.4794 28.0395 37.8269C27.9941 37.8126 27.9462 37.8035 27.9008 37.8035L18.7162 33.9568C18.0905 33.7225 17.7703 33.02 18.0043 32.3914C18.2384 31.7627 18.9407 31.4452 19.5688 31.6794L23.7641 33.2517C23.936 33.3162 24.1295 33.2637 24.2465 33.1228C24.3635 32.9818 24.3782 32.7835 24.2827 32.6257L17.725 21.8953C17.3693 21.3145 17.5527 20.5494 18.1352 20.1931Z" stroke="#0E172A"/>
<path d="M33.8142 24.0344C32.9879 22.6838 31.3233 22.134 29.8474 22.7316L23.7574 25.3659L20.5715 20.1547C19.9673 19.1675 18.6753 18.8544 17.6889 19.4591C16.7026 20.0639 16.3898 21.3571 16.994 22.3444L22.9024 32.0089L19.8742 30.8735C18.8019 30.4719 17.6054 31.0169 17.2017 32.0902C16.8005 33.1635 17.3474 34.3635 18.403 34.7579L27.7242 38.6615C27.7839 38.6878 27.8508 38.6998 27.9153 38.695C28.6556 38.9388 29.4175 39.0607 30.1745 39.0607C31.5048 39.0607 32.8231 38.6878 33.9861 37.9587C37.3105 35.8719 38.3136 31.3946 36.2239 27.9739L33.8166 24.0344H33.8142ZM33.5276 37.2296C31.8773 38.2647 29.8784 38.4846 28.0419 37.832C27.9965 37.8153 27.9487 37.8081 27.9033 37.8081L18.7183 33.9619C18.0902 33.7277 17.7701 33.0249 18.0066 32.3962C18.2406 31.7675 18.9428 31.4496 19.5709 31.6838L23.7669 33.2567C23.9389 33.3213 24.1324 33.2687 24.2494 33.1277C24.3664 32.9866 24.3807 32.7858 24.2852 32.6304L17.7272 21.8998C17.3713 21.3165 17.5552 20.554 18.1379 20.1978C18.7206 19.8416 19.4849 20.0257 19.8407 20.6089L23.2201 26.1404C23.3323 26.3245 23.5616 26.3962 23.7574 26.3101L30.1817 23.53C31.2564 23.0926 32.4792 23.4966 33.0834 24.4886L35.4907 28.4281C37.3368 31.4472 36.4579 35.3986 33.53 37.2368L33.5276 37.2296Z" fill="#0E172A" stroke="#0E172A" stroke-width="0.4" stroke-miterlimit="10"/>
<path d="M16.1891 17.5348C16.2656 17.5348 16.3444 17.5133 16.4136 17.4703C16.6166 17.346 16.6787 17.0807 16.5545 16.8775L15.4177 15.0225C15.2936 14.8193 15.0284 14.7571 14.8255 14.8815C14.6225 15.0058 14.5604 15.2711 14.6846 15.4743L15.8213 17.3293C15.9025 17.4607 16.0434 17.5348 16.1891 17.5348Z" fill="#0E172A" stroke="#0E172A" stroke-width="0.4" stroke-miterlimit="10"/>
<path d="M14.1854 19.5906L12.0695 19.0838C11.8378 19.0288 11.6062 19.1723 11.5512 19.4018C11.4963 19.6336 11.6396 19.8655 11.8688 19.9205L13.9848 20.4273C14.0183 20.4344 14.0517 20.4392 14.0851 20.4392C14.2786 20.4392 14.4553 20.3053 14.5031 20.1093C14.558 19.8775 14.4147 19.6456 14.1854 19.5906Z" fill="#0E172A" stroke="#0E172A" stroke-width="0.4" stroke-miterlimit="10"/>
<path d="M19.6305 16.9588C19.664 16.9659 19.6974 16.9707 19.7308 16.9707C19.9243 16.9707 20.101 16.8368 20.1488 16.6408L20.6551 14.5229C20.71 14.291 20.5667 14.0592 20.3375 14.0042C20.1058 13.9492 19.8741 14.0926 19.8192 14.3221L19.3129 16.44C19.258 16.6719 19.4013 16.9038 19.6305 16.9588Z" fill="#0E172A" stroke="#0E172A" stroke-width="0.4" stroke-miterlimit="10"/>
</svg>
