<svg width="37" height="41" viewBox="0 0 37 41" fill="none" xmlns="http://www.w3.org/2000/svg">
<path d="M9.33016 40.6533H4.15966C1.97683 40.6533 0.200012 38.8748 0.200012 36.69V29.7027C0.200012 27.5179 1.97683 25.7394 4.15966 25.7394H9.69795C9.93438 25.7394 10.1278 25.933 10.1278 26.1697C10.1278 26.4063 9.93438 26.5999 9.69795 26.5999H4.15966C2.4497 26.5999 1.05976 27.9912 1.05976 29.7027V36.69C1.05976 38.4015 2.4497 39.7928 4.15966 39.7928H9.33016C10.4765 39.7928 11.4079 38.8605 11.4079 37.7131C11.4079 37.1561 11.193 36.635 10.7989 36.243C10.4072 35.8509 9.88422 35.6334 9.33016 35.6334H6.21833C5.9819 35.6334 5.78844 35.4398 5.78844 35.2031C5.78844 34.9665 5.9819 34.7728 6.21833 34.7728H9.33016C10.1159 34.7728 10.8539 35.0788 11.4079 35.6334C11.962 36.188 12.2677 36.9266 12.2677 37.7131C12.2677 39.3338 10.9494 40.6533 9.33016 40.6533Z" fill="white" stroke="white" stroke-width="0.4" stroke-miterlimit="10"/>
<path d="M10.6652 23.8988C8.07159 23.8988 5.96039 21.7856 5.96039 19.1896C5.96039 16.5936 8.07159 14.4805 10.6652 14.4805C13.2588 14.4805 15.37 16.5936 15.37 19.1896C15.37 21.7856 13.2588 23.8988 10.6652 23.8988ZM10.6652 15.3386C8.54446 15.3386 6.82014 17.0645 6.82014 19.1872C6.82014 21.31 8.54446 23.0358 10.6652 23.0358C12.7859 23.0358 14.5102 21.31 14.5102 19.1872C14.5102 17.0645 12.7859 15.3386 10.6652 15.3386Z" fill="white" stroke="white" stroke-width="0.4" stroke-miterlimit="10"/>
<path d="M22.1263 27.9625H11.2288C10.8061 27.9625 10.4049 28.0964 10.0729 28.345C9.57617 28.7083 9.27765 29.2964 9.27765 29.9179V32.6908C9.27765 32.9275 9.47111 33.1211 9.70754 33.1211C9.86277 33.1211 9.99649 33.0398 10.0729 32.9155C10.1135 32.8486 10.1374 32.7721 10.1374 32.6908V29.9179C10.1374 29.5713 10.3022 29.2438 10.584 29.0382C10.7703 28.8972 10.9948 28.8231 11.2288 28.8231H14.4386V31.9737C14.4386 32.1147 14.5078 32.2486 14.6249 32.3299C14.6965 32.3801 14.7825 32.404 14.8685 32.404C14.921 32.404 14.9736 32.3944 15.0237 32.3753L16.8172 31.6773L18.6108 32.3753C18.7445 32.4279 18.8926 32.4087 19.0096 32.3299C19.1267 32.2486 19.1959 32.1171 19.1959 31.9737V28.8231H22.1263C22.7281 28.8231 23.2177 29.3155 23.2177 29.9179V38.6956C23.2177 39.3004 22.7281 39.7904 22.1263 39.7904H13.6911C13.4666 39.7904 13.2851 39.9625 13.266 40.1824C13.266 40.1944 13.2612 40.2063 13.2612 40.2207C13.2612 40.4573 13.4546 40.651 13.6911 40.651H22.1263C23.2033 40.651 24.0774 39.7737 24.0774 38.6956V29.9179C24.0774 28.8398 23.201 27.9625 22.1263 27.9625ZM18.3362 31.345L16.9725 30.8143C16.9223 30.7952 16.8698 30.7856 16.8172 30.7856C16.7647 30.7856 16.7122 30.7952 16.662 30.8143L15.2983 31.345V28.8231H18.3386V31.345H18.3362Z" fill="white" stroke="white" stroke-width="0.4" stroke-miterlimit="10"/>
<path d="M18.9499 38.4111H20.3804C20.6169 38.4111 20.8103 38.2175 20.8103 37.9808C20.8103 37.7442 20.6169 37.5505 20.3804 37.5505H18.9499C18.7135 37.5505 18.52 37.7442 18.52 37.9808C18.52 38.2175 18.7135 38.4111 18.9499 38.4111Z" fill="white" stroke="white" stroke-width="0.4" stroke-miterlimit="10"/>
<path d="M23.3896 20.9704C19.4466 20.9704 16.2393 17.7601 16.2393 13.8135C16.2393 9.86685 19.4466 6.65649 23.3896 6.65649C27.3325 6.65649 30.5399 9.86685 30.5399 13.8135C30.5399 17.7601 27.3325 20.9704 23.3896 20.9704ZM23.3896 7.51944C19.9219 7.51944 17.099 10.3425 17.099 13.8159C17.099 17.2892 19.9195 20.1123 23.3896 20.1123C26.8596 20.1123 29.6801 17.2892 29.6801 13.8159C29.6801 10.3425 26.8596 7.51944 23.3896 7.51944Z" fill="white" stroke="white" stroke-width="0.4" stroke-miterlimit="10"/>
<path d="M10.775 12.549C10.7559 12.549 10.7368 12.549 10.7177 12.5442C10.4813 12.5131 10.3165 12.298 10.3475 12.0613C11.2168 5.41111 16.9461 0.199951 23.3872 0.199951C26.3462 0.199951 29.267 1.2876 31.6074 3.25971C31.7889 3.4127 31.8128 3.68521 31.6599 3.86688C31.5071 4.04856 31.2349 4.07246 31.0534 3.91947C28.8657 2.07645 26.1432 1.06051 23.3872 1.06051C17.3665 1.06051 12.0145 5.94178 11.2001 12.1713C11.1715 12.3888 10.9876 12.5466 10.775 12.5466V12.549Z" fill="white" stroke="white" stroke-width="0.4" stroke-miterlimit="10"/>
<path d="M26.4369 31.6055C26.3175 31.6055 26.2005 31.5577 26.1145 31.4597C25.9569 31.2828 25.9736 31.0103 26.1527 30.8525C29.6921 27.7187 35.6841 20.6047 35.6841 13.8111C35.6841 13.4406 35.6674 13.07 35.6363 12.7067C35.6148 12.47 35.7892 12.2621 36.0256 12.2406C36.2596 12.219 36.4698 12.3936 36.4913 12.6302C36.5247 13.0198 36.5439 13.4167 36.5439 13.8111C36.5439 20.9107 30.3703 28.2685 26.7211 31.4955C26.6399 31.5673 26.5372 31.6031 26.4369 31.6031V31.6055Z" fill="white" stroke="white" stroke-width="0.4" stroke-miterlimit="10"/>
<path d="M34.9843 8.90594C34.8196 8.90594 34.6619 8.81032 34.5903 8.65016C34.3109 8.0143 33.9765 7.39518 33.5968 6.80952C33.4678 6.61111 33.5251 6.34339 33.7234 6.2143C33.9216 6.08522 34.1891 6.14259 34.318 6.341C34.7216 6.9649 35.0775 7.62466 35.376 8.30115C35.4715 8.51868 35.376 8.77207 35.1563 8.86769C35.099 8.89159 35.0417 8.90354 34.982 8.90354L34.9843 8.90594Z" fill="white" stroke="white" stroke-width="0.4" stroke-miterlimit="10"/>
</svg>
