<svg width="37" height="41" viewBox="0 0 37 41" fill="none" xmlns="http://www.w3.org/2000/svg">
<path d="M9.33016 40.6534H4.15966C1.97683 40.6534 0.200012 38.875 0.200012 36.6901V29.7028C0.200012 27.518 1.97683 25.7395 4.15966 25.7395H9.69795C9.93438 25.7395 10.1278 25.9331 10.1278 26.1698C10.1278 26.4064 9.93438 26.6001 9.69795 26.6001H4.15966C2.4497 26.6001 1.05976 27.9913 1.05976 29.7028V36.6901C1.05976 38.4017 2.4497 39.7929 4.15966 39.7929H9.33016C10.4765 39.7929 11.4079 38.8606 11.4079 37.7132C11.4079 37.1562 11.193 36.6351 10.7989 36.2431C10.4072 35.8511 9.88422 35.6335 9.33016 35.6335H6.21833C5.9819 35.6335 5.78844 35.4399 5.78844 35.2032C5.78844 34.9666 5.9819 34.773 6.21833 34.773H9.33016C10.1159 34.773 10.8539 35.0789 11.4079 35.6335C11.962 36.1881 12.2677 36.9268 12.2677 37.7132C12.2677 39.3339 10.9494 40.6534 9.33016 40.6534Z" fill="#0E172A" stroke="#0E172A" stroke-width="0.4" stroke-miterlimit="10"/>
<path d="M10.6652 23.8989C8.07159 23.8989 5.96039 21.7857 5.96039 19.1897C5.96039 16.5937 8.07159 14.4805 10.6652 14.4805C13.2588 14.4805 15.37 16.5937 15.37 19.1897C15.37 21.7857 13.2588 23.8989 10.6652 23.8989ZM10.6652 15.3387C8.54446 15.3387 6.82014 17.0646 6.82014 19.1873C6.82014 21.31 8.54446 23.0359 10.6652 23.0359C12.7859 23.0359 14.5102 21.31 14.5102 19.1873C14.5102 17.0646 12.7859 15.3387 10.6652 15.3387Z" fill="#0E172A" stroke="#0E172A" stroke-width="0.4" stroke-miterlimit="10"/>
<path d="M18.3336 28.8231V31.3446L16.9703 30.8143C16.9202 30.7952 16.8675 30.786 16.8151 30.786C16.7626 30.786 16.7099 30.7952 16.6598 30.8143L15.2955 31.3446H15.2936V28.8231H18.3336Z" fill="#E8FDF8"/>
<path d="M18.3336 28.8231V31.3446L16.9703 30.8143C16.9202 30.7952 16.8675 30.786 16.8151 30.786C16.7626 30.786 16.7099 30.7952 16.6598 30.8143L15.2955 31.3446H15.2936V28.8231H18.3336Z" stroke="#0E172A"/>
<path d="M14.4381 28.8256V31.976C14.4381 32.1193 14.5077 32.2511 14.6247 32.3324C14.6987 32.3802 14.7828 32.4066 14.8688 32.4066C14.9212 32.4066 14.974 32.3964 15.0241 32.3773L16.817 31.6801L18.611 32.3773C18.7447 32.4299 18.8924 32.4112 19.0094 32.3324C19.1265 32.2511 19.196 32.117 19.196 31.976V28.8256H22.1266C22.7283 28.8258 23.2174 29.3157 23.2174 29.9203V38.6976C23.2174 39.2999 22.7283 39.7931 22.1266 39.7933H13.6911C13.4666 39.7933 13.2854 39.965 13.2663 40.1849H12.1745C12.6999 39.5563 13.0202 38.7336 13.0202 37.8324C13.02 36.0206 11.735 34.5287 10.0729 34.2992V32.9183C10.1134 32.8539 10.1373 32.7772 10.1374 32.6937V29.9203C10.1374 29.5737 10.3019 29.246 10.5836 29.0404C10.7699 28.8994 10.9951 28.8256 11.2292 28.8256H14.4381ZM18.9499 37.5511C18.7135 37.5512 18.5202 37.7442 18.5202 37.9808C18.5202 38.2175 18.7135 38.4115 18.9499 38.4115H20.3805C20.6169 38.4115 20.8102 38.2175 20.8102 37.9808C20.8102 37.7443 20.6169 37.5512 20.3805 37.5511H18.9499Z" fill="#E8FDF8"/>
<path d="M14.4381 28.8256V31.976C14.4381 32.1193 14.5077 32.2511 14.6247 32.3324C14.6987 32.3802 14.7828 32.4066 14.8688 32.4066C14.9212 32.4066 14.974 32.3964 15.0241 32.3773L16.817 31.6801L18.611 32.3773C18.7447 32.4299 18.8924 32.4112 19.0094 32.3324C19.1265 32.2511 19.196 32.117 19.196 31.976V28.8256H22.1266C22.7283 28.8258 23.2174 29.3157 23.2174 29.9203V38.6976C23.2174 39.2999 22.7283 39.7931 22.1266 39.7933H13.6911C13.4666 39.7933 13.2854 39.965 13.2663 40.1849H12.1745C12.6999 39.5563 13.0202 38.7336 13.0202 37.8324C13.02 36.0206 11.735 34.5287 10.0729 34.2992V32.9183C10.1134 32.8539 10.1373 32.7772 10.1374 32.6937V29.9203C10.1374 29.5737 10.3019 29.246 10.5836 29.0404C10.7699 28.8994 10.9951 28.8256 11.2292 28.8256H14.4381ZM18.9499 37.5511C18.7135 37.5512 18.5202 37.7442 18.5202 37.9808C18.5202 38.2175 18.7135 38.4115 18.9499 38.4115H20.3805C20.6169 38.4115 20.8102 38.2175 20.8102 37.9808C20.8102 37.7443 20.6169 37.5512 20.3805 37.5511H18.9499Z" stroke="#0E172A"/>
<path d="M22.1263 27.9626H11.2288C10.8061 27.9626 10.4049 28.0964 10.0729 28.3451C9.57617 28.7084 9.27765 29.2965 9.27765 29.918V32.6909C9.27765 32.9275 9.47111 33.1212 9.70754 33.1212C9.86277 33.1212 9.99649 33.0399 10.0729 32.9156C10.1135 32.8486 10.1374 32.7721 10.1374 32.6909V29.918C10.1374 29.5714 10.3022 29.2439 10.584 29.0383C10.7703 28.8972 10.9948 28.8231 11.2288 28.8231H14.4386V31.9737C14.4386 32.1148 14.5078 32.2486 14.6249 32.3299C14.6965 32.3801 14.7825 32.404 14.8685 32.404C14.921 32.404 14.9736 32.3945 15.0237 32.3753L16.8172 31.6773L18.6108 32.3753C18.7445 32.4279 18.8926 32.4088 19.0096 32.3299C19.1267 32.2486 19.1959 32.1172 19.1959 31.9737V28.8231H22.1263C22.7281 28.8231 23.2177 29.3156 23.2177 29.918V38.6957C23.2177 39.3004 22.7281 39.7905 22.1263 39.7905H13.6911C13.4666 39.7905 13.2851 39.9626 13.266 40.1825C13.266 40.1945 13.2612 40.2064 13.2612 40.2208C13.2612 40.4574 13.4546 40.651 13.6911 40.651H22.1263C23.2033 40.651 24.0774 39.7737 24.0774 38.6957V29.918C24.0774 28.8399 23.201 27.9626 22.1263 27.9626ZM18.3362 31.3451L16.9725 30.8144C16.9223 30.7953 16.8698 30.7857 16.8172 30.7857C16.7647 30.7857 16.7122 30.7953 16.662 30.8144L15.2983 31.3451V28.8231H18.3386V31.3451H18.3362Z" fill="#0E172A" stroke="#0E172A" stroke-width="0.4" stroke-miterlimit="10"/>
<path d="M18.9499 38.4112H20.3804C20.6169 38.4112 20.8103 38.2176 20.8103 37.9809C20.8103 37.7443 20.6169 37.5507 20.3804 37.5507H18.9499C18.7135 37.5507 18.52 37.7443 18.52 37.9809C18.52 38.2176 18.7135 38.4112 18.9499 38.4112Z" fill="#0E172A" stroke="#0E172A" stroke-width="0.4" stroke-miterlimit="10"/>
<path d="M23.3896 20.9706C19.4466 20.9706 16.2393 17.7602 16.2393 13.8136C16.2393 9.86697 19.4466 6.65662 23.3896 6.65662C27.3325 6.65662 30.5399 9.86697 30.5399 13.8136C30.5399 17.7602 27.3325 20.9706 23.3896 20.9706ZM23.3896 7.51956C19.9219 7.51956 17.099 10.3427 17.099 13.816C17.099 17.2893 19.9195 20.1124 23.3896 20.1124C26.8596 20.1124 29.6801 17.2893 29.6801 13.816C29.6801 10.3427 26.8596 7.51956 23.3896 7.51956Z" fill="#0E172A" stroke="#0E172A" stroke-width="0.4" stroke-miterlimit="10"/>
<path d="M10.775 12.549C10.7559 12.549 10.7368 12.549 10.7177 12.5442C10.4813 12.5132 10.3165 12.298 10.3475 12.0614C11.2168 5.41117 16.9461 0.200012 23.3872 0.200012C26.3462 0.200012 29.267 1.28766 31.6074 3.25977C31.7889 3.41276 31.8128 3.68527 31.6599 3.86694C31.5071 4.04862 31.2349 4.07252 31.0534 3.91953C28.8657 2.07651 26.1432 1.06057 23.3872 1.06057C17.3665 1.06057 12.0145 5.94185 11.2001 12.1713C11.1715 12.3889 10.9876 12.5466 10.775 12.5466V12.549Z" fill="#0E172A" stroke="#0E172A" stroke-width="0.4" stroke-miterlimit="10"/>
<path d="M26.4369 31.6056C26.3175 31.6056 26.2005 31.5578 26.1145 31.4597C25.9569 31.2829 25.9736 31.0103 26.1527 30.8526C29.6921 27.7187 35.6841 20.6048 35.6841 13.8111C35.6841 13.4406 35.6674 13.0701 35.6363 12.7068C35.6148 12.4701 35.7892 12.2621 36.0256 12.2406C36.2596 12.2191 36.4698 12.3936 36.4913 12.6303C36.5247 13.0199 36.5439 13.4167 36.5439 13.8111C36.5439 20.9107 30.3703 28.2685 26.7211 31.4956C26.6399 31.5673 26.5372 31.6032 26.4369 31.6032V31.6056Z" fill="#0E172A" stroke="#0E172A" stroke-width="0.4" stroke-miterlimit="10"/>
<path d="M34.9843 8.906C34.8196 8.906 34.6619 8.81038 34.5903 8.65022C34.3109 8.01436 33.9765 7.39524 33.5968 6.80958C33.4678 6.61118 33.5251 6.34345 33.7234 6.21436C33.9216 6.08528 34.1891 6.14265 34.318 6.34106C34.7216 6.96496 35.0775 7.62472 35.376 8.30122C35.4715 8.51875 35.376 8.77213 35.1563 8.86775C35.099 8.89165 35.0417 8.90361 34.982 8.90361L34.9843 8.906Z" fill="#0E172A" stroke="#0E172A" stroke-width="0.4" stroke-miterlimit="10"/>
</svg>
