<svg width="42" height="41" viewBox="0 0 42 41" fill="none" xmlns="http://www.w3.org/2000/svg">
<path d="M31.1005 11.051C30.8665 11.0868 30.7065 11.3068 30.7423 11.5434L31.8576 18.6669C31.891 18.8797 32.0726 19.0303 32.2827 19.0303C32.3042 19.0303 32.3281 19.0303 32.3496 19.0255C32.5836 18.9896 32.7436 18.7697 32.7078 18.533L31.5925 11.4095C31.5567 11.1753 31.337 11.0151 31.1005 11.051Z" fill="#0E172A" stroke="#0E172A" stroke-width="0.4" stroke-miterlimit="10"/>
<path d="M35.5068 36.3992L35.3659 35.51C35.3277 35.2757 35.108 35.1155 34.8739 35.1514C34.6399 35.1896 34.4799 35.4096 34.5157 35.6438L34.6566 36.5331C34.702 36.8151 34.6303 37.0972 34.456 37.3267C34.2817 37.5562 34.0261 37.702 33.7395 37.7331L13.4922 39.937C12.9358 39.9992 12.4366 39.6143 12.3483 39.0621L8.01844 11.4358C8.3504 11.4956 8.68715 11.5004 9.01434 11.4526C9.01434 11.4526 9.01672 11.4526 9.0191 11.4526L30.1763 9.24142C31.4731 9.03107 32.383 7.50597 32.4905 5.3474C32.4929 5.26134 32.4977 5.1729 32.4977 5.08923C32.4977 2.28525 30.4677 0.370508 27.3224 0.207958C27.0239 0.193615 26.7492 0.198396 26.4841 0.224691L11.4312 1.7976C11.1948 1.8215 11.0228 2.03425 11.0491 2.27091C11.073 2.50756 11.2879 2.67967 11.522 2.65338L26.5701 1.08047C26.7922 1.05895 27.0263 1.05656 27.2818 1.06613C29.9685 1.20477 31.6379 2.7466 31.6379 5.08923C31.6379 5.16334 31.6355 5.24222 31.6331 5.31393C31.5495 6.98963 30.8928 8.25656 30.0641 8.39043L10.5189 10.4319C11.0395 9.66931 11.3214 8.59362 11.3739 7.55617C11.3763 7.47011 11.3811 7.38166 11.3811 7.29561C11.3811 4.49162 9.35108 2.57688 6.20818 2.41433C5.94787 2.40238 5.69232 2.40477 5.45111 2.42628C5.45111 2.42628 5.45112 2.42628 5.44873 2.42628C5.44635 2.42628 5.44156 2.42628 5.43917 2.42628C5.43917 2.42628 5.4344 2.42628 5.43201 2.42628C5.3126 2.43346 5.19796 2.4478 5.06422 2.46453L5.02123 2.4717C2.35837 2.86374 0.335561 5.00079 0.206597 7.55617C0.192268 7.83585 0.201815 8.11075 0.230473 8.36891C0.230473 8.37848 0.232866 8.38804 0.235254 8.39999L3.70532 30.5594C3.83429 31.3841 4.55075 31.9793 5.36275 31.9793C5.44395 31.9793 5.52754 31.9721 5.60874 31.9601L7.7247 31.6446C7.95874 31.6088 8.12114 31.3912 8.08771 31.1546C8.05189 30.9203 7.83456 30.7601 7.59813 30.7912L5.48216 31.1068C5.04034 31.1737 4.62241 30.8653 4.55315 30.4231L1.08546 8.2733V8.25657C1.05919 8.04621 1.05441 7.82389 1.06396 7.59441C1.17143 5.45019 2.88617 3.65258 5.14303 3.32031L5.18841 3.31314C5.2911 3.29879 5.39142 3.28684 5.49411 3.28206C5.4965 3.28206 5.49888 3.28206 5.50127 3.28206C5.50366 3.28206 5.50605 3.28206 5.50844 3.28206C5.71621 3.26294 5.93832 3.26055 6.1652 3.27011C8.85194 3.40876 10.5213 4.95059 10.5213 7.29322C10.5213 7.36971 10.5189 7.44621 10.5165 7.51792C10.4329 9.19601 9.7714 10.4629 8.91165 10.6016C8.49849 10.6661 8.06622 10.6088 7.65783 10.439C7.51454 10.3793 7.34975 10.4008 7.22557 10.4964C7.10377 10.592 7.04166 10.7474 7.06555 10.9028L11.5005 39.1984C11.6485 40.1355 12.451 40.8072 13.3752 40.8072C13.4445 40.8072 13.5161 40.8024 13.5878 40.7952L33.8351 38.5912C34.3581 38.5339 34.8214 38.2709 35.1414 37.8526C35.459 37.4366 35.588 36.9203 35.5068 36.404V36.3992Z" fill="#0E172A" stroke="#0E172A" stroke-width="0.4" stroke-miterlimit="10"/>
<path d="M16.7402 19.8143C16.7569 19.8143 16.7736 19.8143 16.7904 19.8119L24.9079 18.8534C25.1443 18.8247 25.3115 18.6119 25.2852 18.3753C25.2566 18.1386 25.0416 17.9713 24.8076 17.9976L16.69 18.9562C16.4536 18.9848 16.2864 19.1976 16.3127 19.4342C16.339 19.6542 16.5253 19.8143 16.7402 19.8143Z" fill="#0E172A" stroke="#0E172A" stroke-width="0.4" stroke-miterlimit="10"/>
<path d="M13.8887 25.3482C13.9149 25.5681 14.1012 25.7283 14.3162 25.7283C14.3329 25.7283 14.3496 25.7283 14.3663 25.7259L28.6383 24.0406C28.8747 24.012 29.0419 23.7992 29.0156 23.5626C28.987 23.3259 28.772 23.1562 28.538 23.1849L14.266 24.8701C14.0296 24.8988 13.8624 25.1116 13.8887 25.3482Z" fill="#0E172A" stroke="#0E172A" stroke-width="0.4" stroke-miterlimit="10"/>
<path d="M23.432 35.7155C23.4941 35.7466 23.561 35.7633 23.6278 35.7633C23.7831 35.7633 23.9359 35.6773 24.0099 35.529C24.1938 35.1681 24.4541 34.9458 24.8028 34.8526C25.3664 34.702 26.0566 34.9147 26.4913 35.1944C27.3654 35.7561 28.4257 35.4478 29.0395 34.9195C29.221 34.7641 29.2401 34.494 29.0873 34.3123C28.9321 34.1306 28.6622 34.1115 28.4807 34.2645C28.2084 34.4988 27.5373 34.843 26.957 34.4677C26.4053 34.1139 25.4524 33.7816 24.5783 34.0183C23.998 34.1737 23.5371 34.5609 23.2457 35.1346C23.1382 35.3474 23.2218 35.6055 23.432 35.7131V35.7155Z" fill="#0E172A" stroke="#0E172A" stroke-width="0.4" stroke-miterlimit="10"/>
<path d="M37.3148 16.8334C37.4246 16.8334 37.5345 16.8554 37.6419 16.9008L39.7025 17.7944L39.7005 17.7963C39.9035 17.8848 40.0588 18.0458 40.14 18.2514C40.221 18.4569 40.2185 18.6816 40.1302 18.8823L35.2132 30.2436C34.8574 31.0659 34.2915 31.7858 33.5775 32.3237L32.1224 33.4203C31.9437 33.5539 31.7652 33.4999 31.6956 33.4711C31.6264 33.4401 31.4636 33.3462 31.4398 33.1215L31.2435 31.31C31.148 30.4185 31.2843 29.515 31.64 28.6928L36.5579 17.3305C36.6917 17.0199 36.9972 16.8334 37.3148 16.8334Z" fill="#E8FDF8"/>
<path d="M37.3148 16.8334C37.4246 16.8334 37.5345 16.8554 37.6419 16.9008L39.7025 17.7944L39.7005 17.7963C39.9035 17.8848 40.0588 18.0458 40.14 18.2514C40.221 18.4569 40.2185 18.6816 40.1302 18.8823L35.2132 30.2436C34.8574 31.0659 34.2915 31.7858 33.5775 32.3237L32.1224 33.4203C31.9437 33.5539 31.7652 33.4999 31.6956 33.4711C31.6264 33.4401 31.4636 33.3462 31.4398 33.1215L31.2435 31.31C31.148 30.4185 31.2843 29.515 31.64 28.6928L36.5579 17.3305C36.6917 17.0199 36.9972 16.8334 37.3148 16.8334Z" stroke="#0E172A"/>
<path d="M40.0444 17.0032L37.9834 16.1091C37.1308 15.7386 36.1397 16.1331 35.7695 16.9864L30.8522 28.3482C30.4366 29.3068 30.2766 30.3609 30.3889 31.3984L30.5847 33.2103C30.6348 33.6789 30.9214 34.0685 31.3537 34.255C31.5209 34.3267 31.6952 34.3625 31.8696 34.3625C32.1418 34.3625 32.4117 34.2741 32.6409 34.0996L34.0954 33.0024C34.9288 32.3737 35.588 31.5346 36.0012 30.5785L40.9185 19.2167C41.0976 18.8032 41.1048 18.3466 40.94 17.9283C40.7752 17.5099 40.4552 17.1801 40.0444 17.0008V17.0032ZM40.1304 18.8773L35.2131 30.239C34.8572 31.0613 34.2912 31.7785 33.5771 32.3187L32.1227 33.4159C31.9436 33.5522 31.7621 33.4972 31.6952 33.4661C31.6259 33.4374 31.4635 33.3418 31.4397 33.1171L31.2438 31.3052C31.1483 30.4159 31.2844 29.5099 31.6403 28.6876L36.5576 17.3259C36.6914 17.0151 36.9947 16.8287 37.3147 16.8287C37.4245 16.8287 37.5344 16.8502 37.6419 16.8956L39.7029 17.7896C39.9035 17.8781 40.0611 18.0382 40.1423 18.2438C40.2235 18.4494 40.2188 18.6717 40.1328 18.8749L40.1304 18.8773Z" fill="#0E172A" stroke="#0E172A" stroke-width="0.4" stroke-miterlimit="10"/>
</svg>
