<svg width="42" height="41" viewBox="0 0 42 41" fill="none" xmlns="http://www.w3.org/2000/svg">
<path d="M31.1005 11.0509C30.8665 11.0868 30.7065 11.3067 30.7423 11.5433L31.8576 18.6669C31.891 18.8796 32.0726 19.0302 32.2827 19.0302C32.3042 19.0302 32.3281 19.0302 32.3496 19.0254C32.5836 18.9896 32.7436 18.7696 32.7078 18.533L31.5925 11.4095C31.5567 11.1752 31.337 11.0151 31.1005 11.0509Z" fill="white" stroke="white" stroke-width="0.4" stroke-miterlimit="10"/>
<path d="M35.5068 36.3991L35.3659 35.5099C35.3277 35.2756 35.108 35.1155 34.8739 35.1513C34.6399 35.1896 34.4799 35.4095 34.5157 35.6438L34.6566 36.533C34.702 36.8151 34.6303 37.0971 34.456 37.3266C34.2817 37.5561 34.0261 37.7019 33.7395 37.733L13.4922 39.937C12.9358 39.9991 12.4366 39.6143 12.3483 39.0621L8.01844 11.4358C8.3504 11.4955 8.68715 11.5003 9.01434 11.4525C9.01434 11.4525 9.01672 11.4525 9.0191 11.4525L30.1763 9.24136C31.4731 9.031 32.383 7.50591 32.4905 5.34734C32.4929 5.26128 32.4977 5.17284 32.4977 5.08917C32.4977 2.28519 30.4677 0.370447 27.3224 0.207897C27.0239 0.193554 26.7492 0.198335 26.4841 0.22463L11.4312 1.79754C11.1948 1.82144 11.0228 2.03419 11.0491 2.27085C11.073 2.5075 11.2879 2.67961 11.522 2.65332L26.5701 1.08041C26.7922 1.05889 27.0263 1.0565 27.2818 1.06606C29.9685 1.20471 31.6379 2.74654 31.6379 5.08917C31.6379 5.16328 31.6355 5.24216 31.6331 5.31387C31.5495 6.98957 30.8928 8.2565 30.0641 8.39037L10.5189 10.4318C11.0395 9.66925 11.3214 8.59355 11.3739 7.5561C11.3763 7.47005 11.3811 7.3816 11.3811 7.29555C11.3811 4.49156 9.35108 2.57682 6.20818 2.41427C5.94787 2.40232 5.69232 2.40471 5.45111 2.42622C5.45111 2.42622 5.45112 2.42622 5.44873 2.42622C5.44635 2.42622 5.44156 2.42622 5.43917 2.42622C5.43917 2.42622 5.4344 2.42622 5.43201 2.42622C5.3126 2.4334 5.19796 2.44774 5.06422 2.46447L5.02123 2.47164C2.35837 2.86367 0.335561 5.00073 0.206597 7.5561C0.192268 7.83579 0.201815 8.11069 0.230473 8.36885C0.230473 8.37842 0.232866 8.38798 0.235254 8.39993L3.70532 30.5593C3.83429 31.384 4.55075 31.9792 5.36275 31.9792C5.44395 31.9792 5.52754 31.972 5.60874 31.9601L7.7247 31.6446C7.95874 31.6087 8.12114 31.3912 8.08771 31.1545C8.05189 30.9202 7.83456 30.7601 7.59813 30.7912L5.48216 31.1067C5.04034 31.1736 4.62241 30.8653 4.55315 30.423L1.08546 8.27324V8.2565C1.05919 8.04614 1.05441 7.82383 1.06396 7.59435C1.17143 5.45013 2.88617 3.65252 5.14303 3.32025L5.18841 3.31308C5.2911 3.29873 5.39142 3.28678 5.49411 3.282C5.4965 3.282 5.49888 3.282 5.50127 3.282C5.50366 3.282 5.50605 3.282 5.50844 3.282C5.71621 3.26288 5.93832 3.26049 6.1652 3.27005C8.85194 3.40869 10.5213 4.95053 10.5213 7.29316C10.5213 7.36965 10.5189 7.44614 10.5165 7.51786C10.4329 9.19595 9.7714 10.4629 8.91165 10.6015C8.49849 10.6661 8.06622 10.6087 7.65783 10.439C7.51454 10.3792 7.34975 10.4007 7.22557 10.4963C7.10377 10.592 7.04166 10.7473 7.06555 10.9027L11.5005 39.1983C11.6485 40.1354 12.451 40.8071 13.3752 40.8071C13.4445 40.8071 13.5161 40.8023 13.5878 40.7952L33.8351 38.5912C34.3581 38.5338 34.8214 38.2708 35.1414 37.8525C35.459 37.4366 35.588 36.9202 35.5068 36.4039V36.3991Z" fill="white" stroke="white" stroke-width="0.4" stroke-miterlimit="10"/>
<path d="M16.7402 19.8143C16.7569 19.8143 16.7736 19.8143 16.7904 19.8119L24.9079 18.8534C25.1443 18.8247 25.3115 18.6119 25.2852 18.3753C25.2566 18.1386 25.0416 17.9713 24.8076 17.9976L16.69 18.9562C16.4536 18.9848 16.2864 19.1976 16.3127 19.4342C16.339 19.6542 16.5253 19.8143 16.7402 19.8143Z" fill="white" stroke="white" stroke-width="0.4" stroke-miterlimit="10"/>
<path d="M13.8887 25.3481C13.9149 25.5681 14.1012 25.7282 14.3162 25.7282C14.3329 25.7282 14.3496 25.7282 14.3663 25.7258L28.6383 24.0406C28.8747 24.0119 29.0419 23.7991 29.0156 23.5625C28.987 23.3258 28.772 23.1561 28.538 23.1848L14.266 24.8701C14.0296 24.8987 13.8624 25.1115 13.8887 25.3481Z" fill="white" stroke="white" stroke-width="0.4" stroke-miterlimit="10"/>
<path d="M23.432 35.7155C23.4941 35.7466 23.561 35.7633 23.6278 35.7633C23.7831 35.7633 23.9359 35.6773 24.0099 35.529C24.1938 35.1681 24.4541 34.9458 24.8028 34.8526C25.3664 34.702 26.0566 34.9147 26.4913 35.1944C27.3654 35.7561 28.4257 35.4478 29.0395 34.9195C29.221 34.7641 29.2401 34.494 29.0873 34.3123C28.9321 34.1306 28.6622 34.1115 28.4807 34.2645C28.2084 34.4988 27.5373 34.843 26.957 34.4677C26.4053 34.1139 25.4524 33.7816 24.5783 34.0183C23.998 34.1737 23.5371 34.5609 23.2457 35.1346C23.1382 35.3474 23.2218 35.6055 23.432 35.7131V35.7155Z" fill="white" stroke="white" stroke-width="0.4" stroke-miterlimit="10"/>
<path d="M40.0444 17.003L37.9834 16.109C37.1308 15.7385 36.1397 16.1329 35.7695 16.9863L30.8522 28.3481C30.4366 29.3066 30.2766 30.3608 30.3889 31.3983L30.5847 33.2102C30.6348 33.6787 30.9214 34.0684 31.3537 34.2548C31.5209 34.3266 31.6952 34.3624 31.8696 34.3624C32.1418 34.3624 32.4117 34.274 32.6409 34.0995L34.0954 33.0022C34.9288 32.3736 35.588 31.5345 36.0012 30.5783L40.9185 19.2166C41.0976 18.803 41.1048 18.3465 40.94 17.9281C40.7752 17.5098 40.4552 17.1799 40.0444 17.0007V17.003ZM40.1304 18.8772L35.2131 30.2389C34.8572 31.0612 34.2912 31.7783 33.5771 32.3186L32.1227 33.4158C31.9436 33.5521 31.7621 33.4971 31.6952 33.466C31.6259 33.4373 31.4635 33.3417 31.4397 33.117L31.2438 31.305C31.1483 30.4158 31.2844 29.5098 31.6403 28.6875L36.5576 17.3258C36.6914 17.015 36.9947 16.8285 37.3147 16.8285C37.4245 16.8285 37.5344 16.8501 37.6419 16.8955L39.7029 17.7895C39.9035 17.8779 40.0611 18.0381 40.1423 18.2437C40.2235 18.4493 40.2188 18.6716 40.1328 18.8748L40.1304 18.8772Z" fill="white" stroke="white" stroke-width="0.4" stroke-miterlimit="10"/>
</svg>
