<svg width="39" height="38" viewBox="0 0 39 38" fill="none" xmlns="http://www.w3.org/2000/svg">
<path d="M18.8335 17.3257C19.0699 17.1391 19.4033 17.1393 19.6421 17.3257L25.2788 21.7192H23.3325C23.1142 21.7192 22.9363 21.8989 22.936 22.1196V36.7729L22.938 36.7749C22.938 36.9958 23.116 37.1762 23.3345 37.1763H15.4214C15.4191 37.1376 15.4185 37.1007 15.4185 37.062C15.4928 36.9891 15.5405 36.8868 15.5405 36.7729V22.1196C15.5403 21.8989 15.3624 21.7192 15.144 21.7192H13.1978L18.8335 17.3257Z" fill="#E8FDF8"/>
<path d="M18.8335 17.3257C19.0699 17.1391 19.4033 17.1393 19.6421 17.3257L25.2788 21.7192H23.3325C23.1142 21.7192 22.9363 21.8989 22.936 22.1196V36.7729L22.938 36.7749C22.938 36.9958 23.116 37.1762 23.3345 37.1763H15.4214C15.4191 37.1376 15.4185 37.1007 15.4185 37.062C15.4928 36.9891 15.5405 36.8868 15.5405 36.7729V22.1196C15.5403 21.8989 15.3624 21.7192 15.144 21.7192H13.1978L18.8335 17.3257Z" stroke="#0E172A"/>
<path d="M33.9603 7.24627C33.8206 7.07547 33.5706 7.05041 33.4017 7.19161C33.2327 7.33281 33.2079 7.58561 33.3476 7.75641C36.0147 11.0404 37.4834 15.1944 37.4834 19.4509C37.4834 26.9869 33.0277 33.6916 26.1324 36.5338C25.9297 36.618 25.8328 36.8526 25.9139 37.0576C25.977 37.2124 26.1256 37.3081 26.2811 37.3081C26.3306 37.3081 26.3824 37.299 26.432 37.2785C33.6269 34.3133 38.2786 27.3148 38.2786 19.4509C38.2786 15.0077 36.7468 10.6738 33.9626 7.24627H33.9603Z" fill="#0E172A" stroke="#0E172A" stroke-width="0.4" stroke-miterlimit="10"/>
<path d="M26.254 22.054C26.3486 21.7693 26.2585 21.4687 26.0243 21.2865L20.1269 16.6907C19.6043 16.283 18.8721 16.283 18.3473 16.6907L12.4499 21.2865C12.2156 21.4687 12.1255 21.7716 12.2201 22.054C12.3147 22.3364 12.5693 22.5209 12.8644 22.5209H14.7431V36.7729C14.7431 36.9938 14.921 37.1737 15.1395 37.1737C15.2476 37.1737 15.3445 37.1305 15.4143 37.0599C15.4887 36.987 15.536 36.8845 15.536 36.7706V22.1178C15.536 21.8969 15.358 21.7169 15.1395 21.7169H13.1932L18.8293 17.3238C19.0681 17.1371 19.4015 17.1371 19.638 17.3238L25.2741 21.7169H23.3279C23.1093 21.7169 22.9314 21.8969 22.9314 22.1178V36.7706C22.9314 36.9915 23.1093 37.1714 23.3279 37.1714C23.5464 37.1714 23.7243 36.9915 23.7243 36.7706V22.5186H25.603C25.9004 22.5186 26.1527 22.3364 26.2473 22.0517L26.254 22.054Z" fill="#0E172A" stroke="#0E172A" stroke-width="0.4" stroke-miterlimit="10"/>
<path d="M12.344 36.5338C8.34329 34.885 5.0657 31.8583 3.06762 27.989C4.69627 27.4766 6.41954 27.0393 8.20588 26.6863C8.90645 29.4761 10.008 31.9858 11.4069 33.9626C11.4835 34.0719 11.6074 34.1311 11.7313 34.1311C11.8101 34.1311 11.8912 34.1061 11.961 34.056C12.139 33.9262 12.1795 33.6757 12.0534 33.4957C10.7176 31.6101 9.66335 29.2097 8.98755 26.536C10.0576 26.3401 11.1501 26.1762 12.2426 26.0463C12.4611 26.0213 12.6166 25.8209 12.5918 25.6C12.567 25.3791 12.3688 25.2219 12.1503 25.247C11.0262 25.3791 9.90438 25.5499 8.80509 25.7526C8.36357 23.7279 8.13605 21.6099 8.13605 19.4487C8.13605 17.2874 8.37258 15.1125 8.80509 13.1448C12.1503 13.7552 15.6734 14.0717 19.2416 14.0717C22.8097 14.0717 26.3306 13.762 29.6758 13.1516C30.1128 15.1444 30.3471 17.2692 30.3471 19.4487C30.3471 21.6282 30.1195 23.7257 29.678 25.7526C28.5945 25.5544 27.4727 25.3813 26.3329 25.2447C26.1144 25.2174 25.9184 25.3745 25.8913 25.5954C25.8643 25.8163 26.0198 26.0145 26.2383 26.0418C27.3488 26.1762 28.4391 26.3424 29.4956 26.5337C28.8198 29.2097 27.7633 31.6078 26.4275 33.4957C26.2991 33.6757 26.3419 33.9262 26.5198 34.056C26.5897 34.1061 26.6708 34.1311 26.7496 34.1311C26.8735 34.1311 26.9951 34.0719 27.0717 33.9626C28.4729 31.9835 29.5744 29.4738 30.275 26.6817C31.0927 26.8412 31.9329 27.0279 32.7844 27.2397C32.816 27.2488 32.8475 27.2511 32.879 27.2511C33.057 27.2511 33.2192 27.1281 33.2642 26.9459C33.316 26.7318 33.1876 26.5132 32.9736 26.4608C32.1199 26.249 31.2774 26.06 30.4552 25.9006C30.9057 23.8259 31.1377 21.66 31.1377 19.451C31.1377 17.2419 30.899 15.0442 30.4507 12.9991C31.2999 12.8305 32.1424 12.6483 32.9714 12.4411C33.1854 12.3887 33.3138 12.1701 33.262 11.956C33.2079 11.7419 32.9939 11.6098 32.7822 11.6622C31.9577 11.8695 31.1175 12.0494 30.2727 12.2179C29.5519 9.33243 28.403 6.74529 26.8915 4.69334C26.7609 4.5157 26.5108 4.47927 26.3351 4.61136C26.1594 4.74345 26.1234 4.99624 26.254 5.17388C27.698 7.13245 28.7973 9.61027 29.4911 12.3728C26.2045 12.9717 22.7714 13.2746 19.2393 13.2746C15.7072 13.2746 12.2742 12.9649 8.98755 12.3682C10.614 5.89581 14.4006 1.28634 18.8406 1.02443V10.79C18.8406 11.0109 19.0185 11.1908 19.2371 11.1908C19.4556 11.1908 19.6335 11.0109 19.6335 10.79V1.01305C23.8662 1.10642 27.9435 2.68011 31.149 5.47905C31.3157 5.6248 31.5657 5.60431 31.7099 5.43806C31.8541 5.26953 31.8338 5.01673 31.6694 4.87098C28.2183 1.86024 23.8032 0.200012 19.2371 0.200012C11.7696 0.200012 5.29549 4.57264 2.17783 10.9152C2.15306 10.9494 2.13052 10.9881 2.11701 11.0314C2.11701 11.0337 2.11701 11.0359 2.11701 11.0405C0.891574 13.5821 0.200012 16.4357 0.200012 19.4487C0.200012 22.4617 0.853274 25.2675 2.13953 27.9206C4.20069 32.1703 7.71932 35.4908 12.0466 37.2762C12.0962 37.2967 12.1457 37.3059 12.1953 37.3059C12.3507 37.3059 12.4994 37.2125 12.5625 37.0553C12.6458 36.8504 12.5467 36.6158 12.344 36.5315V36.5338ZM14.8917 1.53913C11.8642 3.4681 9.44034 7.3488 8.2149 12.2202C6.43757 11.8695 4.71655 11.4345 3.07213 10.9175C5.47118 6.28753 9.75795 2.8122 14.894 1.53913H14.8917ZM2.71171 11.6463C4.4102 12.186 6.18978 12.6392 8.02793 13.0013C7.58191 15.0191 7.33862 17.1895 7.33862 19.451C7.33862 21.7124 7.57064 23.8281 8.02116 25.9051C6.17175 26.2695 4.38992 26.725 2.70494 27.2625C1.56961 24.8097 0.99069 22.1839 0.99069 19.4532C0.99069 16.7226 1.61017 14.0193 2.70945 11.6486L2.71171 11.6463Z" fill="#0E172A" stroke="#0E172A" stroke-width="0.4" stroke-miterlimit="10"/>
</svg>
