<svg width="52" height="42" viewBox="0 0 52 42" fill="none" xmlns="http://www.w3.org/2000/svg">
<path d="M35.0412 10.8242V14.58H31.0002V10.8242H35.0412Z" fill="#E8FDF8"/>
<path d="M35.0412 10.8242V14.58H31.0002V10.8242H35.0412Z" stroke="#0E172A"/>
<path d="M20.1421 0.987976C23.699 0.987976 26.5942 3.91443 26.5942 7.51044C26.5942 9.11136 25.567 11.5595 23.8462 14.0622C22.0891 16.6152 20.5971 17.8044 20.1421 17.8044C19.6866 17.8037 18.1955 16.6145 16.439 14.0622C14.7181 11.5594 13.6909 9.11138 13.6909 7.51044C13.6909 3.91455 16.5854 0.988183 20.1421 0.987976ZM20.1421 3.42938C17.9167 3.42959 16.106 5.2605 16.106 7.51044C16.106 9.76039 17.9167 11.5913 20.1421 11.5915C22.3677 11.5915 24.1792 9.76052 24.1792 7.51044C24.1792 5.26038 22.3677 3.42938 20.1421 3.42938Z" fill="#E8FDF8"/>
<path d="M20.1421 0.987976C23.699 0.987976 26.5942 3.91443 26.5942 7.51044C26.5942 9.11136 25.567 11.5595 23.8462 14.0622C22.0891 16.6152 20.5971 17.8044 20.1421 17.8044C19.6866 17.8037 18.1955 16.6145 16.439 14.0622C14.7181 11.5594 13.6909 9.11138 13.6909 7.51044C13.6909 3.91455 16.5854 0.988183 20.1421 0.987976ZM20.1421 3.42938C17.9167 3.42959 16.106 5.2605 16.106 7.51044C16.106 9.76039 17.9167 11.5913 20.1421 11.5915C22.3677 11.5915 24.1792 9.76052 24.1792 7.51044C24.1792 5.26038 22.3677 3.42938 20.1421 3.42938Z" stroke="#0E172A"/>
<path d="M50.6882 21.8582C51.0284 21.3322 51.4158 20.7355 51.1905 19.8815C50.8707 18.6699 49.8975 18.5947 49.1136 18.5355C48.9357 18.5218 48.7667 18.5082 48.6023 18.4854L48.5189 18.474C47.9851 18.3966 47.2935 18.2941 46.6064 18.1392C46.5636 18.3989 46.5163 18.6539 46.4668 18.9067C47.1538 19.0593 47.8431 19.1618 48.4085 19.2438L48.4919 19.2552C48.6811 19.2825 48.8726 19.2984 49.0551 19.3121C49.8502 19.3713 50.2737 19.4328 50.4449 20.0819C50.5756 20.5761 50.3773 20.9154 50.044 21.4324C49.8277 21.7649 49.5844 22.1406 49.4921 22.603C49.4245 22.9423 49.474 23.4547 49.5349 24.1061C49.6295 25.0944 49.7714 26.5861 49.3006 27.028C49.251 27.0735 49.1024 27.2147 48.6879 27.1418C48.3229 27.0781 47.967 27.0143 47.6179 26.9346C46.7731 26.7433 46.1176 27.8046 45.4846 28.8317C45.2121 29.2735 44.9327 29.729 44.7255 29.9134C43.5992 30.9178 42.3827 31.1615 40.9726 31.4439C40.4748 31.5441 39.9612 31.6466 39.434 31.7878C39.4048 31.7946 36.5236 32.5917 36.0168 34.1472C35.9019 34.5002 35.8659 35.049 36.3434 35.6502C36.375 35.6912 36.4087 35.7208 36.4403 35.7459C36.9764 36.625 37.7829 37.0759 38.6546 36.9825C38.729 36.9757 38.8281 36.9598 38.9407 36.9438C39.2809 36.8937 40.3171 36.7434 40.5131 36.9985C40.5558 37.0554 40.5604 37.2125 40.4477 37.4927C40.3126 37.8252 39.9003 38.0028 39.5602 38.0575C39.3011 38.1007 39.0308 38.0985 38.7425 38.0985C38.5352 38.0985 38.3235 38.0985 38.1072 38.1121C37.0079 38.1941 36.1947 38.9047 35.4086 39.5924C34.8657 40.0661 34.3521 40.5148 33.7732 40.7425C33.3632 40.9042 32.7324 40.9953 32.0116 39.9341C31.3606 38.9753 30.6803 38.0188 30.0203 37.0941L29.7973 36.7821C29.7094 36.6591 29.6193 36.5339 29.5923 36.42C29.554 36.2492 29.7702 36.1422 29.9054 36.0921C30.0315 36.0442 30.1757 36.0192 30.3289 35.9896C30.4663 35.9645 30.6082 35.9372 30.7524 35.8939C31.3358 35.7208 31.7255 35.2084 31.6805 34.6778C31.6534 34.359 31.4687 34.072 31.1669 33.8693C30.9664 33.7372 30.7524 33.6917 30.5339 33.6917C30.2793 33.6917 30.0248 33.7532 29.7837 33.8124C29.5179 33.8761 29.2431 33.9445 29.0742 33.8921C28.6214 33.7554 28.2407 33.4002 27.8352 33.0244C27.6054 32.8103 27.3689 32.5894 27.1099 32.4049C26.7224 32.1271 26.3102 32.0314 25.8889 32.1203C24.8122 32.3457 23.9832 33.7236 23.3164 34.8304C23.0799 35.2244 22.8546 35.5956 22.6947 35.7778C22.1653 36.3722 21.3003 37.1283 20.1875 37.3446C19.4667 37.4858 18.5431 37.4403 18.1038 37.0235C17.4934 36.4428 18.2119 35.1583 18.5971 34.466L18.6174 34.4318C18.6782 34.3248 18.7391 34.2041 18.8044 34.0811C19.0116 33.6871 19.2437 33.2407 19.4982 32.9971C19.7122 32.7921 19.8856 32.7875 20.2258 32.7989C20.5254 32.808 20.8971 32.8217 21.2936 32.5871C21.8139 32.282 21.913 31.5782 21.7103 31.0749C21.5098 30.5807 21.1674 30.1981 20.834 29.8292C20.5141 29.4739 20.21 29.1368 20.0456 28.7178C19.969 28.5219 19.933 28.2783 19.8947 28.0232C19.8293 27.5859 19.7573 27.094 19.4486 26.6864C18.6805 25.2288 17.4078 24.4932 15.8579 24.6185C14.6348 24.7164 13.5805 25.3472 12.5623 25.9576C11.6005 26.5338 10.6904 27.0781 9.67219 27.1874C8.80267 27.2808 7.96469 27.0507 7.07941 26.8093C6.53202 26.6613 5.9666 26.5064 5.38768 26.4313C5.00698 26.3812 4.63754 26.3607 4.27938 26.3379C3.21838 26.2764 2.30382 26.2218 1.4388 25.4839C0.749495 24.894 0.880145 24.5433 1.4005 23.5208L1.4816 23.3636C1.89834 22.5369 1.97944 21.7057 2.05828 20.8995C2.12135 20.2572 2.17992 19.6514 2.40519 19.0798C2.65298 18.4467 3.20487 17.9183 3.73874 17.4059C4.02933 17.1258 4.33119 16.8388 4.58799 16.5291C4.94841 16.0941 5.29307 15.8846 5.7008 15.8459C6.05221 15.814 6.22791 15.6432 6.31351 15.5065C6.40137 15.3653 6.47795 15.1217 6.34955 14.7687C6.26395 14.5364 6.11077 14.3018 5.89226 14.0741C5.22999 13.3794 4.82452 12.5026 4.61953 11.3184C4.58348 11.1066 4.56546 10.8196 4.69837 10.6579C4.82452 10.5008 5.09033 10.4644 5.29081 10.4598C6.04995 10.4439 6.68745 10.1842 7.24385 9.67182C8.37692 8.62422 9.82537 8.53995 11.2941 8.85196L11.2671 8.0617C9.66093 7.75425 8.03453 7.88633 6.72574 9.09792C6.30675 9.48508 5.84721 9.66955 5.27504 9.68321C4.75018 9.6946 4.35597 9.85629 4.10592 10.166C3.85138 10.4803 3.77028 10.913 3.86264 11.455C4.09241 12.7828 4.57673 13.8167 5.33812 14.6161C5.48003 14.7641 5.57915 14.9121 5.62871 15.042C5.63321 15.0533 5.63546 15.0625 5.63997 15.0716C5.63997 15.0716 5.63547 15.0716 5.63321 15.0716C4.82001 15.1467 4.31317 15.6546 4.00231 16.0281C3.77479 16.3014 3.50222 16.5633 3.21388 16.8388C2.61919 17.4082 2.00422 17.998 1.69335 18.7906C1.42979 19.4647 1.36221 20.1547 1.29689 20.822C1.22255 21.5895 1.15272 22.3137 0.801309 23.0083L0.722465 23.1632C0.226885 24.1379 -0.241664 25.058 0.947729 26.076C2.00647 26.9824 3.14179 27.0485 4.23883 27.1145C4.58348 27.135 4.9394 27.1555 5.29306 27.2011C5.82018 27.2694 6.33604 27.4106 6.88118 27.5586C7.798 27.8091 8.74411 28.0665 9.75554 27.9594C10.9404 27.8342 11.9654 27.2193 12.9588 26.6249C13.9454 26.0327 14.878 25.4748 15.9233 25.3905C17.169 25.288 18.1646 25.8733 18.7864 27.0758L18.8269 27.1373C19.0251 27.3878 19.0792 27.7522 19.1355 28.1348C19.1783 28.424 19.2234 28.7224 19.3315 29.0025C19.5478 29.5536 19.9127 29.959 20.2663 30.3507C20.5659 30.6832 20.8498 30.9975 20.9985 31.3664C21.0818 31.5737 21.039 31.8333 20.9061 31.9107C20.7011 32.0314 20.5029 32.0246 20.2506 32.0155C19.8834 32.0018 19.4239 31.9882 18.9666 32.4277C18.6219 32.7579 18.3584 33.2658 18.1241 33.7122C18.0633 33.8306 18.0024 33.9422 17.9461 34.0447L17.9259 34.0788C17.437 34.9556 16.527 36.5863 17.5767 37.586C18.2547 38.2305 19.4441 38.2761 20.3317 38.103C21.654 37.8457 22.6564 36.9757 23.2646 36.2925C23.4719 36.0579 23.7039 35.6753 23.9719 35.2312C24.5306 34.3043 25.2942 33.0358 26.0444 32.8786C26.2539 32.8354 26.4521 32.8855 26.6661 33.0381C26.8823 33.1929 27.0918 33.3888 27.3126 33.5937C27.7631 34.0151 28.2294 34.4478 28.8534 34.6368C29.2206 34.7461 29.6125 34.6505 29.9617 34.5662C30.2681 34.491 30.5857 34.4136 30.7434 34.5184C30.8154 34.5662 30.9056 34.6459 30.9146 34.7438C30.9258 34.8805 30.7862 35.0718 30.5361 35.1447C30.4302 35.1765 30.3131 35.197 30.1892 35.2198C30.0113 35.254 29.8288 35.2859 29.6396 35.3565C29.0246 35.5842 28.7182 36.0556 28.8421 36.5908C28.903 36.8573 29.0516 37.0645 29.171 37.2308L29.394 37.5428C30.0518 38.4651 30.7298 39.4171 31.3741 40.3668C32.0229 41.3233 32.7054 41.6102 33.2979 41.6102C33.5727 41.6102 33.8272 41.5465 34.0502 41.4599C34.7531 41.1821 35.341 40.6697 35.9087 40.1732C36.6318 39.5401 37.3166 38.9434 38.1613 38.8819C38.3483 38.8682 38.5375 38.8682 38.738 38.8705C39.0421 38.8705 39.3574 38.8728 39.6796 38.8204C40.3847 38.7065 40.9365 38.3194 41.1551 37.7842C41.3713 37.2558 41.36 36.8277 41.1168 36.5157C40.646 35.903 39.5512 36.0625 38.8258 36.1695C38.7245 36.1832 38.6389 36.1968 38.5713 36.2037C37.8257 36.2811 37.3436 35.7573 37.0733 35.3041C37.0282 35.2289 36.9719 35.1788 36.9291 35.1447C36.6588 34.7939 36.6948 34.5434 36.7466 34.384C37.0057 33.5824 38.6208 32.8058 39.63 32.5325C40.1324 32.3958 40.6324 32.2956 41.119 32.2C42.5742 31.9085 43.9506 31.6352 45.2323 30.4896C45.5252 30.2277 45.8225 29.7472 46.1356 29.2348C46.4848 28.6677 47.129 27.6133 47.4467 27.6861C47.8138 27.7704 48.181 27.8342 48.555 27.9002C49.0798 27.9913 49.5056 27.8866 49.8209 27.5882C50.5711 26.8845 50.4179 25.2971 50.2963 24.0218C50.2467 23.5071 50.1971 22.9742 50.2422 22.7487C50.3053 22.4344 50.49 22.1498 50.6837 21.8491L50.6882 21.8582Z" fill="#0E172A" stroke="#0E172A" stroke-width="0.4" stroke-miterlimit="10"/>
<path d="M36.1745 24.2996H40.405C40.6212 24.2996 40.7947 24.1219 40.7947 23.9056C40.7947 23.6892 40.619 23.5116 40.405 23.5116H36.1745C35.9582 23.5116 35.7848 23.6892 35.7848 23.9056C35.7848 24.1219 35.9605 24.2996 36.1745 24.2996Z" fill="#0E172A" stroke="#0E172A" stroke-width="0.4" stroke-miterlimit="10"/>
<path d="M20.1425 18.5924C20.5232 18.5924 20.9917 18.3419 21.4941 17.941V27.6451C21.4941 27.8637 21.6698 28.0391 21.8838 28.0391H44.1601C44.3763 28.0391 44.5498 27.8614 44.5498 27.6451V10.4301C44.5498 10.2115 44.3741 10.0361 44.1601 10.0361H26.8553C27.191 9.08874 27.3734 8.22788 27.3734 7.5105C27.3734 6.3513 27.1031 5.25359 26.6256 4.27885C25.4429 1.8648 22.9808 0.200012 20.1425 0.200012C16.6261 0.200012 13.6887 2.75071 13.0444 6.119C12.9588 6.56993 12.9115 7.03452 12.9115 7.5105C12.9115 9.26638 13.9905 11.8831 15.7994 14.5135C17.0946 16.397 19.0094 18.5947 20.1425 18.5947V18.5924ZM31.0024 10.8241H35.0437V14.5796H31.0024V10.8241ZM30.223 10.8241V14.9736C30.223 15.1922 30.3987 15.3676 30.6127 15.3676H35.4356C35.6519 15.3676 35.8253 15.1899 35.8253 14.9736V10.8241H43.7726V27.2534H22.278V17.2373C23.0529 16.4562 23.8481 15.445 24.4901 14.5113C25.3596 13.2473 26.0579 11.9879 26.5512 10.8241H30.2253H30.223ZM20.1425 0.987996C23.6994 0.987996 26.594 3.91447 26.594 7.5105C26.594 9.11152 25.5668 11.5597 23.8458 14.0626C22.0887 16.6156 20.5975 17.8044 20.1425 17.8044C19.6874 17.8044 18.1962 16.6156 16.4391 14.0626C14.7181 11.5597 13.6909 9.11152 13.6909 7.5105C13.6909 3.91447 16.5856 0.987996 20.1425 0.987996Z" fill="#0E172A" stroke="#0E172A" stroke-width="0.4" stroke-miterlimit="10"/>
<path d="M20.1424 11.5893C22.368 11.5893 24.1792 9.75826 24.1792 7.50818C24.1792 5.2581 22.368 3.42706 20.1424 3.42706C17.9168 3.42706 16.1057 5.2581 16.1057 7.50818C16.1057 9.75826 17.9168 11.5893 20.1424 11.5893ZM20.1424 4.21732C21.9378 4.21732 23.3975 5.69309 23.3975 7.50818C23.3975 9.32328 21.9378 10.799 20.1424 10.799C18.3471 10.799 16.8874 9.32328 16.8874 7.50818C16.8874 5.69309 18.3471 4.21732 20.1424 4.21732Z" fill="#0E172A" stroke="#0E172A" stroke-width="0.4" stroke-miterlimit="10"/>
</svg>
