<svg width="50" height="42" viewBox="0 0 50 42" fill="none" xmlns="http://www.w3.org/2000/svg">
<path d="M13.2397 19.4168C14.758 18.3828 18.4816 15.1284 17.5107 12.5094C16.8957 10.8491 15.7153 11.0245 14.0844 11.2682C13.0302 11.4253 11.584 11.6394 9.66024 11.5346C4.64137 11.2568 3.57362 11.5187 0.881713 13.6891C0.633923 13.8872 0.057248 14.3541 0.232954 14.8915C0.424428 15.4791 1.23087 15.5087 2.34818 15.5497C2.88206 15.5702 3.98134 15.6112 4.18858 15.8071C4.18633 15.8185 4.18183 15.8344 4.17282 15.8594C3.52406 17.4969 3.18391 20.2161 4.16831 22.9354C4.53774 23.9556 5.49286 24.7391 6.72731 25.0351C6.99537 25.0989 7.29722 25.1422 7.58781 25.1422C8.00005 25.1422 8.39201 25.0556 8.63529 24.8256C8.81325 24.6571 8.82451 24.3701 8.65556 24.1902C8.48887 24.0103 8.20729 23.9989 8.02933 24.1697C7.93697 24.2403 7.43914 24.32 6.74758 24.1128C6.33985 23.9898 5.35545 23.6026 5.00179 22.6279C4.10298 20.1455 4.43638 17.6108 4.99728 16.1942C5.15497 15.7934 5.05585 15.5042 4.94547 15.3311C4.56252 14.7344 3.50378 14.6957 2.38422 14.6524C2.0238 14.6388 1.52822 14.6205 1.23087 14.5704C1.28043 14.5203 1.34801 14.4611 1.43811 14.3882C3.95206 12.3636 4.79229 12.1609 9.61519 12.4274C11.629 12.539 13.1248 12.3158 14.2173 12.1541C15.9181 11.9013 16.3326 11.8763 16.684 12.8237C17.3237 14.5499 14.7129 17.3329 12.7486 18.6721C12.3994 18.9112 11.8656 19.2141 11.3024 19.5352C10.4351 20.0294 9.453 20.5896 8.67584 21.1613C8.47761 21.307 8.43481 21.5871 8.57898 21.7875C8.72314 21.988 9.00022 22.0312 9.19845 21.8855C9.93281 21.3435 10.8924 20.7969 11.7372 20.3163C12.3431 19.9702 12.8657 19.6741 13.2442 19.4145L13.2397 19.4168Z" fill="#0E172A" stroke="#0E172A" stroke-width="0.4" stroke-miterlimit="10"/>
<path d="M45.6596 10.9539C45.6416 10.9539 45.6213 10.9539 45.6033 10.9539C44.29 10.9722 42.6163 10.9585 41.3413 10.7604C41.7716 9.64216 42.0059 8.62643 42.0059 7.79745C42.0059 3.60702 38.6337 0.200012 34.4911 0.200012C30.3485 0.200012 26.9763 3.6093 26.9763 7.79745C26.9763 8.50117 27.1452 9.34154 27.4583 10.2616C25.4129 10.3049 24.7169 11.1931 24.5299 12.0494C24.2506 13.327 23.7167 13.9715 23.327 14.4429C23.2459 14.5409 23.1693 14.632 23.104 14.7185C22.7931 15.1284 22.462 15.946 22.8179 16.5222C23.104 16.9823 23.6806 17.1234 24.5412 16.9435C26.1067 16.6156 28.2693 18.4011 28.8437 19.492C28.9473 19.6901 28.8955 19.747 28.8685 19.7744C28.6027 20.0568 27.3637 20.2048 25.8342 19.4897C24.4353 18.8361 22.8359 19.3007 21.5564 20.7331C20.3512 22.0814 19.5854 24.2267 20.4571 25.7138C21.1915 26.9664 22.2908 27.2443 23.2617 27.4902C24.3226 27.759 24.9354 27.9571 25.226 28.909C25.4985 29.8109 25.6742 31.0658 25.8432 32.2773C26.2013 34.8371 26.4424 36.3038 27.2668 36.634C27.375 36.6773 27.5124 36.7115 27.6791 36.7115C27.9336 36.7115 28.2558 36.634 28.6432 36.3903C29.8191 35.6593 31.1707 33.6802 31.3621 31.4552C31.5626 29.1322 32.1596 28.0846 32.7926 26.9778C32.8894 26.807 32.9885 26.6362 33.0854 26.4586C33.1778 26.29 33.2589 26.0942 33.3309 25.855C33.403 25.6182 33.2724 25.3677 33.0381 25.2948C32.8038 25.2219 32.556 25.354 32.484 25.5909C32.4299 25.7685 32.3736 25.912 32.3105 26.0236C32.2159 26.1967 32.119 26.3652 32.0244 26.5314C31.3734 27.6747 30.6999 28.8589 30.4814 31.38C30.3192 33.243 29.1838 35.0034 28.1792 35.6297C27.8863 35.8119 27.6858 35.8392 27.5957 35.8028C27.206 35.6251 26.8907 33.3682 26.7217 32.1544C26.5483 30.9063 26.368 29.6173 26.0729 28.6471C25.6224 27.1645 24.4826 26.8753 23.4757 26.6225C22.5971 26.3993 21.7659 26.1898 21.2208 25.2606C20.6644 24.3087 21.1014 22.5847 22.2164 21.3367C22.5926 20.9153 23.9397 19.5967 25.4625 20.3073C27.1024 21.0725 28.8437 21.1089 29.515 20.3938C29.8439 20.0408 29.8844 19.5603 29.6276 19.0729C28.9653 17.8181 26.5077 15.6204 24.3609 16.0667C23.7978 16.1829 23.595 16.0895 23.5703 16.0462C23.5004 15.9346 23.6041 15.5338 23.809 15.2651C23.8676 15.1876 23.9352 15.1079 24.0073 15.0191C24.4308 14.5067 25.0683 13.7347 25.3972 12.243C25.5931 11.3502 26.6654 11.1293 27.8007 11.1589C28.3143 12.391 29.0554 13.7301 29.979 15.0738C31.3238 17.0301 33.3152 19.3143 34.4933 19.3143C35.6714 19.3143 37.6605 17.0301 39.0076 15.0738C39.8208 13.8918 40.4898 12.7144 40.9899 11.6098C42.0689 11.8034 43.5737 11.8786 45.6168 11.8535C45.6326 11.8535 45.6484 11.8535 45.6664 11.8535C47.1847 11.8535 48.0001 12.7668 48.0294 13.286C48.0339 13.3748 48.0474 13.5866 47.642 13.6299C46.0133 13.8007 45.8489 14.2995 45.8601 15.3926C45.8601 15.5293 45.8646 15.6818 45.8601 15.8481C45.8489 16.3673 45.6484 16.9618 45.4163 17.6541C45.1438 18.4694 44.8329 19.394 44.718 20.5031C44.6437 21.2182 43.7899 21.5006 42.4046 21.8992C41.1116 22.2727 39.6451 22.694 38.735 23.8418C38.2665 24.4339 38.0885 24.4225 38.0795 24.4225C37.9601 24.418 37.6853 24.024 37.5051 23.7621C37.0771 23.1426 36.4891 22.2954 35.4146 21.8878C34.2613 21.4505 33.6463 21.9698 33.3332 22.4845C33.2048 22.6963 33.2701 22.9718 33.4796 23.1017C33.6891 23.2315 33.9617 23.1654 34.0901 22.9536C34.2365 22.7122 34.446 22.4776 35.1038 22.7282C35.9192 23.0379 36.3765 23.6961 36.7775 24.2768C37.1424 24.8029 37.4871 25.3016 38.0502 25.3198C38.4895 25.3426 38.913 25.0534 39.4266 24.4043C40.1609 23.4797 41.481 23.0994 42.6479 22.7623C44.094 22.3456 45.4591 21.9516 45.6011 20.5988C45.7069 19.5876 45.9998 18.7131 46.2566 17.9433C46.5111 17.1849 46.7296 16.529 46.7477 15.8731C46.7522 15.6932 46.7499 15.5315 46.7477 15.3858C46.7416 14.8832 47.0705 14.597 47.7343 14.5272C48.4934 14.4475 48.9552 13.9419 48.9147 13.2405C48.8516 12.1314 47.5316 10.9631 45.6619 10.9631L45.6596 10.9539ZM34.4911 18.4944C34.018 18.4944 32.4682 17.2578 30.6435 14.6046C28.855 12.0038 27.7872 9.45996 27.7872 7.79518C27.7872 4.05795 30.7945 1.0176 34.4911 1.0176C38.1876 1.0176 41.1949 4.05795 41.1949 7.79518C41.1949 9.45768 40.1272 12.0038 38.3386 14.6046C36.5139 17.2578 34.9641 18.4944 34.4911 18.4944Z" fill="#0E172A" stroke="#0E172A" stroke-width="0.4" stroke-miterlimit="10"/>
<path d="M9.77736 9.63987C9.83143 9.66264 9.88774 9.67403 9.94406 9.67403C10.1198 9.67403 10.2865 9.56927 10.3563 9.39391C10.782 8.33263 11.361 7.33057 12.0751 6.41505C12.226 6.22147 12.1944 5.93908 12.0007 5.78421C11.807 5.63163 11.5299 5.66351 11.3767 5.85937C10.6108 6.84093 9.99136 7.91815 9.53182 9.05685C9.43947 9.28687 9.54985 9.54877 9.77511 9.64215L9.77736 9.63987Z" fill="#0E172A" stroke="#0E172A" stroke-width="0.4" stroke-miterlimit="10"/>
<path d="M23.1332 1.34091C24.2866 1.37735 25.4264 1.55727 26.5235 1.8761C26.564 1.88749 26.6046 1.89432 26.6451 1.89432C26.8388 1.89432 27.0168 1.76679 27.0709 1.56865C27.1384 1.32953 27.001 1.08129 26.7668 1.01524C25.5999 0.678187 24.3857 0.486885 23.1603 0.445891C22.9192 0.427672 22.7098 0.632639 22.703 0.880877C22.6962 1.12911 22.8877 1.33636 23.1332 1.34319V1.34091Z" fill="#0E172A" stroke="#0E172A" stroke-width="0.4" stroke-miterlimit="10"/>
<path d="M15.2491 3.42935C15.3279 3.42935 15.409 3.40885 15.4811 3.3633C16.4542 2.75979 17.5062 2.28153 18.6055 1.9422C18.8398 1.86932 18.9727 1.6188 18.9006 1.38195C18.8285 1.1451 18.5807 1.01074 18.3464 1.08361C17.1728 1.44572 16.0533 1.95358 15.0148 2.59809C14.8053 2.7279 14.74 3.00347 14.8684 3.21527C14.9517 3.35419 15.0981 3.42935 15.2468 3.42935H15.2491Z" fill="#0E172A" stroke="#0E172A" stroke-width="0.4" stroke-miterlimit="10"/>
<path d="M44.8329 24.0035C44.5919 24.0445 44.4275 24.2768 44.468 24.5205C44.5536 25.0329 44.5964 25.5567 44.5964 26.0828C44.5964 26.7045 44.5356 27.3239 44.4184 27.9275C44.3711 28.1711 44.5266 28.4057 44.7676 28.4558C44.7969 28.4627 44.8262 28.4649 44.8555 28.4649C45.0627 28.4649 45.2474 28.3169 45.2902 28.1051C45.4209 27.4447 45.4862 26.766 45.4862 26.0873C45.4862 25.5134 45.4389 24.9372 45.3465 24.377C45.306 24.1333 45.0762 23.9693 44.8352 24.008L44.8329 24.0035Z" fill="#0E172A" stroke="#0E172A" stroke-width="0.4" stroke-miterlimit="10"/>
<path d="M43.3057 31.7057C43.1119 31.5554 42.8326 31.5918 42.6839 31.7877C41.9924 32.7009 41.1499 33.4684 40.1835 34.0719C39.974 34.2017 39.9109 34.4773 40.0393 34.6891C40.1227 34.8258 40.2691 34.9009 40.4178 34.9009C40.4966 34.9009 40.5777 34.8804 40.6498 34.8349C41.7085 34.1744 42.6299 33.334 43.3868 32.3343C43.5354 32.1384 43.4994 31.856 43.3057 31.7057Z" fill="#0E172A" stroke="#0E172A" stroke-width="0.4" stroke-miterlimit="10"/>
<path d="M36.2076 35.4224C35.079 35.5317 33.9301 35.4315 32.8511 35.1309C32.6168 35.0648 32.3713 35.2037 32.306 35.4429C32.2407 35.682 32.3781 35.928 32.6146 35.994C33.4886 36.2377 34.3964 36.3629 35.3155 36.3629C35.6399 36.3629 35.9688 36.347 36.2909 36.3151C36.5342 36.2924 36.7144 36.0737 36.6896 35.8255C36.6671 35.5795 36.4441 35.395 36.2053 35.4224H36.2076Z" fill="#0E172A" stroke="#0E172A" stroke-width="0.4" stroke-miterlimit="10"/>
<path d="M34.4913 1.01984C38.1877 1.01997 41.1943 4.06014 41.1945 7.79718C41.1945 9.46191 40.1275 12.006 38.339 14.6068C36.5147 17.2595 34.9647 18.496 34.4913 18.4964C34.0183 18.4964 32.4683 17.2599 30.6437 14.6068C28.8551 12.006 27.7872 9.45968 27.7872 7.79718C27.7874 4.06006 30.7948 1.01984 34.4913 1.01984ZM34.4913 3.55695C32.1779 3.55695 30.2971 5.45838 30.297 7.79718C30.297 10.1361 32.1779 12.0384 34.4913 12.0384C36.8047 12.0383 38.6857 10.136 38.6857 7.79718C38.6855 5.45847 36.8046 3.55708 34.4913 3.55695Z" fill="#E8FDF8"/>
<path d="M34.4913 1.01984C38.1877 1.01997 41.1943 4.06014 41.1945 7.79718C41.1945 9.46191 40.1275 12.006 38.339 14.6068C36.5147 17.2595 34.9647 18.496 34.4913 18.4964C34.0183 18.4964 32.4683 17.2599 30.6437 14.6068C28.8551 12.006 27.7872 9.45968 27.7872 7.79718C27.7874 4.06006 30.7948 1.01984 34.4913 1.01984ZM34.4913 3.55695C32.1779 3.55695 30.2971 5.45838 30.297 7.79718C30.297 10.1361 32.1779 12.0384 34.4913 12.0384C36.8047 12.0383 38.6857 10.136 38.6857 7.79718C38.6855 5.45847 36.8046 3.55708 34.4913 3.55695Z" stroke="#0E172A"/>
<path d="M38.6855 7.79748C38.6855 5.45858 36.8045 3.55695 34.491 3.55695C32.1776 3.55695 30.2966 5.45858 30.2966 7.79748C30.2966 10.1364 32.1776 12.038 34.491 12.038C36.8045 12.038 38.6855 10.1364 38.6855 7.79748ZM34.491 11.2182C32.6259 11.2182 31.1076 9.68318 31.1076 7.79748C31.1076 5.91179 32.6259 4.37681 34.491 4.37681C36.3562 4.37681 37.8745 5.91179 37.8745 7.79748C37.8745 9.68318 36.3562 11.2182 34.491 11.2182Z" fill="#0E172A" stroke="#0E172A" stroke-width="0.4" stroke-miterlimit="10"/>
<path d="M16.9971 26.9413C15.1567 25.8436 12.4557 25.0602 10.3923 26.167C10.3878 26.167 10.3833 26.1716 10.3811 26.1739C9.7233 26.5542 9.04976 27.1463 9.39892 29.385C9.58814 30.5943 10.1333 31.0338 10.6153 31.421C11.165 31.8628 11.6403 32.2454 11.6223 34.0947C11.593 37.1829 12.5661 39.8588 13.4965 40.8085C13.7735 41.0909 14.0551 41.2321 14.339 41.2321C14.5867 41.2321 14.7872 41.1524 14.9359 40.9952C15.2062 40.7083 15.1882 40.2984 15.1634 39.7814C15.1341 39.1779 15.0958 38.3534 15.5193 37.4835C15.8144 36.8777 16.3438 36.0054 16.907 35.0831C18.396 32.6394 19.4479 30.8266 19.4322 29.7699C19.4164 28.745 18.1662 27.636 17.0016 26.9413H16.9971ZM16.1478 34.6117C15.5734 35.5522 15.0328 36.4427 14.7196 37.0872C14.197 38.1644 14.2443 39.1642 14.2759 39.8246C14.2826 39.9841 14.2939 40.189 14.2849 40.3143C13.7555 40.0592 12.4783 37.5655 12.5098 34.1015C12.5301 31.815 11.807 31.232 11.1672 30.7173C10.7437 30.378 10.4104 30.1092 10.2752 29.2438C9.99361 27.4401 10.4644 27.1577 10.8136 26.955C12.5549 26.0281 14.99 26.7819 16.5465 27.7134C17.8463 28.49 18.5356 29.344 18.5424 29.7835C18.5559 30.6604 17.166 32.9446 16.1501 34.6117H16.1478Z" fill="#0E172A" stroke="#0E172A" stroke-width="0.4" stroke-miterlimit="10"/>
</svg>
