<svg width="45" height="45" viewBox="0 0 45 45" fill="none" xmlns="http://www.w3.org/2000/svg">
<path d="M35.7167 0.200012C36.05 0.200012 36.3675 0.200012 36.685 0.200012C36.3517 0.200012 36.0183 0.200012 35.685 0.200012C35.685 0.200012 35.685 0.200012 35.7009 0.200012H35.7167Z" fill="#0E172A" stroke="#0E172A" stroke-width="0.4" stroke-miterlimit="10"/>
<path d="M40.7283 34.0264L40.4363 19.8438L32.1811 23.1801V35.2431C32.1811 35.5104 31.9655 35.7286 31.698 35.7286C31.6708 35.7286 31.6462 35.7259 31.6216 35.7205C31.6162 36.7544 31.608 37.7855 31.6025 38.8194C33.4855 37.9956 35.3685 37.169 37.2543 36.3452C38.4632 35.7423 39.6558 35.0685 40.8156 34.2856C40.7665 34.2119 40.7365 34.1219 40.7337 34.0264H40.7283Z" fill="#E8FDF8"/>
<path d="M28.224 6.67051L8.39789 15.5636V21.1477L9.99981 20.3375C10.1963 20.2366 10.4364 20.2803 10.5838 20.4439L12.6197 22.6672V17.7678C12.6197 17.7678 12.6197 17.7651 12.6197 17.7624C12.6197 17.7187 12.6251 17.675 12.6388 17.6341C12.6388 17.6259 12.6442 17.6205 12.6469 17.6123C12.6524 17.5932 12.6579 17.5714 12.6688 17.5523C12.6742 17.5387 12.6851 17.5277 12.6906 17.5168C12.6961 17.5086 12.7015 17.4977 12.707 17.4896C12.7315 17.4541 12.7588 17.4214 12.7888 17.3968C12.7888 17.3968 12.7943 17.3941 12.7943 17.3914C12.8243 17.3668 12.8598 17.345 12.8953 17.3286C12.9007 17.3286 12.9035 17.3232 12.9089 17.3204L35.3358 7.26249L31.0622 5.1947C30.2107 5.5657 29.3566 5.93669 28.5051 6.31042C28.4778 6.46592 28.3769 6.60778 28.2213 6.67871L28.224 6.67051Z" fill="#E8FDF8"/>
<path d="M25.2713 41.7956L21.6526 43.4187C21.3906 43.536 21.1178 43.6124 20.8394 43.6506V27.4848C20.8394 27.2147 20.6184 26.9937 20.3482 26.9937C20.078 26.9937 19.857 27.2147 19.857 27.4848V43.6342C19.5841 43.5851 19.3139 43.5033 19.0574 43.3778L2.36683 35.2976C1.63001 34.9403 1.17426 34.2119 1.17426 33.3962V14.0524C1.17426 12.8439 1.88653 11.7445 2.98904 11.248L23.1672 2.20217C23.7349 1.94574 24.3844 1.95394 24.9493 2.22946L31.0649 5.192L35.3385 7.25979L12.9117 17.3177C12.9117 17.3177 12.9035 17.3232 12.898 17.3259C12.8625 17.3423 12.8298 17.3641 12.797 17.3887C12.797 17.3887 12.7916 17.3914 12.7916 17.3941C12.7616 17.4214 12.7343 17.4541 12.7097 17.4869C12.7043 17.495 12.6988 17.5032 12.6933 17.5141C12.6852 17.5278 12.677 17.5387 12.6715 17.5496C12.6633 17.5687 12.6579 17.5878 12.6497 17.6096C12.6497 17.6178 12.6442 17.6232 12.6415 17.6314C12.6306 17.6751 12.6224 17.716 12.6224 17.7597C12.6224 17.7597 12.6224 17.7624 12.6224 17.7651V22.6645L10.5866 20.4412C10.4365 20.2776 10.199 20.2339 10.0026 20.3348L8.40064 21.145V15.5609L28.2268 6.66783C28.3823 6.59691 28.4833 6.45777 28.5106 6.29955C28.527 6.2068 28.5161 6.1086 28.4751 6.01858C28.3632 5.77034 28.074 5.66121 27.8256 5.77306L7.92033 14.7016L4.32625 12.9639C4.08337 12.8466 3.78864 12.9476 3.67129 13.1931C3.55395 13.4386 3.65492 13.7305 3.90053 13.8478L7.42366 15.5527V21.9443C7.42366 22.1162 7.51098 22.2744 7.65835 22.3617C7.80299 22.4517 7.98583 22.4572 8.13866 22.3808L10.1199 21.3769L12.7589 24.2576C12.8544 24.3613 12.9853 24.4158 13.1218 24.4158C13.1818 24.4158 13.2419 24.4049 13.2992 24.3831C13.4875 24.3094 13.613 24.1267 13.613 23.9248V18.5453L18.8063 21.0605C19.3112 21.306 19.8542 21.426 20.4 21.426C20.9076 21.426 21.4179 21.3196 21.8928 21.1068L25.6615 19.4182C25.9099 19.3064 26.019 19.0172 25.9099 18.769C25.798 18.5208 25.5087 18.4116 25.2604 18.5207L21.4889 20.2093C20.7684 20.534 19.947 20.5203 19.232 20.1766L14.2816 17.7788L36.5011 7.81356L41.5088 10.2387C41.8281 10.3942 42.1119 10.6015 42.3548 10.8498L28.6662 16.9904C28.4178 17.1022 28.3086 17.3914 28.4205 17.6396C28.5024 17.8224 28.6798 17.9288 28.8681 17.9288C28.9363 17.9288 29.0045 17.9152 29.07 17.8851L42.9333 11.6681C43.1325 12.0801 43.2444 12.5356 43.2444 13.0048V25.7034C43.2444 25.9735 43.4655 26.1945 43.7357 26.1945C44.0058 26.1945 44.2269 25.9735 44.2269 25.7034V13.0048C44.2269 12.2192 43.9922 11.4608 43.5801 10.817C43.561 10.7788 43.5392 10.7461 43.5119 10.7161C43.1189 10.1432 42.584 9.66857 41.94 9.35485L25.3886 1.34015C24.5617 0.939138 23.6093 0.925494 22.7742 1.30195L2.59607 10.3478C1.14152 11.0025 0.200012 12.4538 0.200012 14.0469V33.3908C0.200012 34.5693 0.884988 35.6632 1.94657 36.176L18.6344 44.2562C19.1638 44.5153 19.7342 44.6463 20.3072 44.6599C20.3236 44.6599 20.3373 44.6654 20.3536 44.6654C20.3591 44.6654 20.3618 44.6654 20.3673 44.6654C20.3782 44.6654 20.3891 44.6654 20.4028 44.6654C20.9677 44.6654 21.5326 44.5454 22.062 44.308L25.6806 42.6849C25.929 42.573 26.0381 42.2839 25.9262 42.0356C25.8144 41.7874 25.5251 41.6783 25.2767 41.7901L25.2713 41.7956Z" fill="#0E172A" stroke="#0E172A" stroke-width="0.4" stroke-miterlimit="10"/>
<path d="M9.63141 34.5311C9.38853 34.4138 9.0938 34.5147 8.97646 34.7575C8.85911 35.003 8.96008 35.2949 9.20296 35.4122L10.1745 35.8841C10.2427 35.9169 10.3164 35.9332 10.3873 35.9332C10.5702 35.9332 10.7448 35.8323 10.8294 35.6577C10.9468 35.4122 10.8458 35.1203 10.6029 35.003L9.63141 34.5311Z" fill="#0E172A" stroke="#0E172A" stroke-width="0.4" stroke-miterlimit="10"/>
<path d="M4.28535 31.9395C4.04247 31.8222 3.74773 31.9231 3.63039 32.1659C3.51304 32.4114 3.61402 32.7033 3.8569 32.8206L6.69232 34.1928C6.76054 34.2255 6.83422 34.2419 6.90518 34.2419C7.08802 34.2419 7.26268 34.141 7.34728 33.9664C7.46463 33.7209 7.36365 33.429 7.12077 33.3117L4.28535 31.9395Z" fill="#0E172A" stroke="#0E172A" stroke-width="0.4" stroke-miterlimit="10"/>
<path d="M43.8912 27.6567C43.6238 27.6567 43.4082 27.8749 43.4082 28.1423C43.4136 29.869 43.4245 32.2369 41.9673 33.4508C41.8745 33.5218 41.7817 33.5872 41.6889 33.6554L41.3751 18.4171L31.2096 22.5227V35.2404C31.2096 35.4804 31.3869 35.6796 31.6162 35.7178C31.6407 35.7232 31.668 35.7259 31.6926 35.7259C31.96 35.7259 32.1756 35.5104 32.1756 35.2404V23.1774L40.4308 19.8411L40.7228 34.0237C40.7228 34.1192 40.7556 34.2092 40.8047 34.2829C39.6449 35.0685 38.4523 35.7396 37.2434 36.3425C35.6196 37.1554 33.9686 37.8456 32.3476 38.5248C30.7047 39.2123 29.0073 39.9243 27.3699 40.7481C27.1297 40.8681 27.0342 41.16 27.1543 41.3973C27.2389 41.5665 27.4108 41.6647 27.5882 41.6647C27.6619 41.6647 27.7355 41.6483 27.8065 41.6129C29.4139 40.8054 31.0977 40.0988 32.7242 39.4196C36.0153 38.042 39.4157 36.618 42.5676 34.2065C44.3906 32.6897 44.3797 30.0573 44.3715 28.1368C44.3715 27.8694 44.1532 27.654 43.8885 27.654L43.8912 27.6567Z" fill="#0E172A" stroke="#0E172A" stroke-width="0.4" stroke-miterlimit="10"/>
</svg>
