<svg width="45" height="45" viewBox="0 0 45 45" fill="none" xmlns="http://www.w3.org/2000/svg">
<path d="M25.2713 40.9664L21.6526 42.5895C21.3906 42.7068 21.1178 42.7832 20.8394 42.8214V26.6556C20.8394 26.3855 20.6184 26.1645 20.3482 26.1645C20.078 26.1645 19.857 26.3855 19.857 26.6556V42.805C19.5841 42.7559 19.3139 42.674 19.0574 42.5486L2.36683 34.4684C1.63001 34.111 1.17426 33.3827 1.17426 32.567V13.2231C1.17426 12.0147 1.88653 10.9153 2.98904 10.4188L23.1672 1.37295C23.7349 1.11652 24.3844 1.12471 24.9493 1.40024L31.0649 4.36278L35.3385 6.43057L12.9117 16.4885C12.9117 16.4885 12.9035 16.494 12.898 16.4967C12.8625 16.513 12.8298 16.5349 12.797 16.5594C12.797 16.5594 12.7916 16.5622 12.7916 16.5649C12.7616 16.5922 12.7343 16.6249 12.7097 16.6576C12.7043 16.6658 12.6988 16.674 12.6933 16.6849C12.6852 16.6985 12.677 16.7095 12.6715 16.7204C12.6633 16.7395 12.6579 16.7586 12.6497 16.7804C12.6497 16.7886 12.6442 16.794 12.6415 16.8022C12.6306 16.8459 12.6224 16.8868 12.6224 16.9304C12.6224 16.9304 12.6224 16.9332 12.6224 16.9359V21.8353L10.5866 19.612C10.4365 19.4483 10.199 19.4047 10.0026 19.5056L8.40064 20.3158V14.7317L28.2268 5.83861C28.3823 5.76768 28.4833 5.62855 28.5106 5.47033C28.527 5.37758 28.5161 5.27938 28.4751 5.18936C28.3632 4.94111 28.074 4.83199 27.8256 4.94383L7.92033 13.8724L4.32625 12.1347C4.08337 12.0174 3.78864 12.1183 3.67129 12.3639C3.55395 12.6094 3.65492 12.9012 3.90053 13.0185L7.42366 14.7235V21.1151C7.42366 21.287 7.51098 21.4452 7.65835 21.5325C7.80299 21.6225 7.98583 21.628 8.13866 21.5516L10.1199 20.5477L12.7589 23.4284C12.8544 23.5321 12.9853 23.5866 13.1218 23.5866C13.1818 23.5866 13.2419 23.5757 13.2992 23.5539C13.4875 23.4802 13.613 23.2974 13.613 23.0956V17.7161L18.8063 20.2312C19.3112 20.4768 19.8542 20.5968 20.4 20.5968C20.9076 20.5968 21.4179 20.4904 21.8928 20.2776L25.6615 18.589C25.9099 18.4772 26.019 18.188 25.9099 17.9398C25.798 17.6915 25.5087 17.5824 25.2604 17.6915L21.4889 19.3801C20.7684 19.7047 19.947 19.6911 19.232 19.3474L14.2816 16.9495L36.5011 6.98433L41.5088 9.40948C41.8281 9.56497 42.1119 9.77229 42.3548 10.0205L28.6662 16.1611C28.4178 16.273 28.3086 16.5622 28.4205 16.8104C28.5024 16.9932 28.6798 17.0996 28.8681 17.0996C28.9363 17.0996 29.0045 17.0859 29.07 17.0559L42.9333 10.8389C43.1325 11.2508 43.2444 11.7064 43.2444 12.1756V24.8742C43.2444 25.1443 43.4655 25.3652 43.7357 25.3652C44.0058 25.3652 44.2269 25.1443 44.2269 24.8742V12.1756C44.2269 11.39 43.9922 10.6316 43.5801 9.9878C43.561 9.94961 43.5392 9.91688 43.5119 9.88687C43.1189 9.314 42.584 8.83934 41.94 8.52563L25.3886 0.510922C24.5617 0.109914 23.6093 0.0962703 22.7742 0.472727L2.59607 9.51861C1.14152 10.1733 0.200012 11.6246 0.200012 13.2177V32.5616C0.200012 33.74 0.884988 34.8339 1.94657 35.3468L18.6344 43.427C19.1638 43.6861 19.7342 43.8171 20.3072 43.8307C20.3236 43.8307 20.3373 43.8362 20.3536 43.8362C20.3591 43.8362 20.3618 43.8362 20.3673 43.8362C20.3782 43.8362 20.3891 43.8362 20.4028 43.8362C20.9677 43.8362 21.5326 43.7161 22.062 43.4788L25.6806 41.8557C25.929 41.7438 26.0381 41.4547 25.9262 41.2064C25.8144 40.9582 25.5251 40.8491 25.2767 40.9609L25.2713 40.9664Z" fill="white" stroke="white" stroke-width="0.4" stroke-miterlimit="10"/>
<path d="M9.63141 33.7018C9.38853 33.5845 9.0938 33.6855 8.97646 33.9283C8.85911 34.1738 8.96008 34.4657 9.20296 34.583L10.1745 35.0549C10.2427 35.0876 10.3164 35.104 10.3873 35.104C10.5702 35.104 10.7448 35.0031 10.8294 34.8285C10.9468 34.583 10.8458 34.2911 10.6029 34.1738L9.63141 33.7018Z" fill="white" stroke="white" stroke-width="0.4" stroke-miterlimit="10"/>
<path d="M4.28535 31.1103C4.04247 30.993 3.74773 31.0939 3.63039 31.3367C3.51304 31.5822 3.61402 31.8741 3.8569 31.9914L6.69232 33.3636C6.76054 33.3963 6.83422 33.4127 6.90518 33.4127C7.08802 33.4127 7.26268 33.3117 7.34728 33.1371C7.46463 32.8916 7.36365 32.5998 7.12077 32.4825L4.28535 31.1103Z" fill="white" stroke="white" stroke-width="0.4" stroke-miterlimit="10"/>
<path d="M43.8912 26.8274C43.6238 26.8274 43.4082 27.0457 43.4082 27.313C43.4136 29.0398 43.4245 31.4077 41.9673 32.6216C41.8745 32.6925 41.7817 32.758 41.6889 32.8262L41.3751 17.5879L31.2096 21.6935V34.4111C31.2096 34.6512 31.3869 34.8503 31.6162 34.8885C31.6407 34.894 31.668 34.8967 31.6926 34.8967C31.96 34.8967 32.1756 34.6812 32.1756 34.4111V22.3482L40.4308 19.0119L40.7228 33.1945C40.7228 33.29 40.7556 33.38 40.8047 33.4536C39.6449 34.2393 38.4523 34.9104 37.2434 35.5132C35.6196 36.3262 33.9686 37.0163 32.3476 37.6956C30.7047 38.383 29.0073 39.095 27.3699 39.9189C27.1297 40.0389 27.0342 40.3308 27.1543 40.5681C27.2389 40.7373 27.4108 40.8355 27.5882 40.8355C27.6619 40.8355 27.7355 40.8191 27.8065 40.7836C29.4139 39.9762 31.0977 39.2696 32.7242 38.5904C36.0153 37.2128 39.4157 35.7887 42.5676 33.3772C44.3906 31.8605 44.3797 29.228 44.3715 27.3076C44.3715 27.0402 44.1532 26.8247 43.8885 26.8247L43.8912 26.8274Z" fill="white" stroke="white" stroke-width="0.4" stroke-miterlimit="10"/>
</svg>
