<svg width="44" height="42" viewBox="0 0 44 42" fill="none" xmlns="http://www.w3.org/2000/svg">
<mask id="path-1-inside-1_2276_1149" fill="white">
<path d="M39.3273 3.34572C39.2891 3.34572 39.2533 3.34333 39.2151 3.34094C39.2533 3.3505 39.2891 3.36007 39.3273 3.36724V3.34333V3.34572Z"/>
</mask>
<path d="M39.3273 3.34572V3.74572H39.7273V3.34572H39.3273ZM39.2151 3.34094L39.2401 2.94172L39.118 3.72898L39.2151 3.34094ZM39.3273 3.36724L39.2536 3.76037L39.7273 3.84929V3.36724H39.3273ZM39.3273 3.34572V2.94572C39.3041 2.94572 39.2816 2.94432 39.2401 2.94172L39.2151 3.34094L39.1901 3.74016C39.225 3.74234 39.2742 3.74572 39.3273 3.74572V3.34572ZM39.2151 3.34094L39.118 3.72898C39.1481 3.73652 39.2002 3.75036 39.2536 3.76037L39.3273 3.36724L39.4011 2.9741C39.378 2.96977 39.3585 2.96449 39.3122 2.95291L39.2151 3.34094ZM39.3273 3.36724H39.7273V3.34333H39.3273H38.9273V3.36724H39.3273ZM39.3273 3.34333H38.9273V3.34572H39.3273H39.7273V3.34333H39.3273Z" fill="white" mask="url(#path-1-inside-1_2276_1149)"/>
<path d="M39.7572 2.48992C36.7337 2.48992 33.9562 1.83255 32.3275 0.728169C32.1818 0.630161 31.9907 0.630161 31.845 0.728169C30.2139 1.83016 27.434 2.48992 24.4129 2.48992C24.1765 2.48992 23.983 2.68355 23.983 2.9202V12.3433C23.983 16.8493 27.2979 20.3322 32.0409 20.815C32.0552 20.815 32.0695 20.815 32.0839 20.815C32.0982 20.815 32.1125 20.815 32.1268 20.815C36.8722 20.3322 40.1871 16.8493 40.1871 12.3433V2.9202C40.1871 2.68355 39.9936 2.48992 39.7572 2.48992ZM32.0862 1.5959C33.7652 2.63096 36.3755 3.2692 39.2175 3.34092C39.2557 3.34092 39.2915 3.34331 39.3297 3.3457V12.3409C39.3297 16.376 36.354 19.5003 32.0862 19.9521C27.8209 19.4979 24.8452 16.3736 24.8452 12.3409V3.3457C27.7278 3.28833 30.3834 2.6453 32.0886 1.5959H32.0862Z" fill="white" stroke="white" stroke-width="0.4" stroke-miterlimit="10"/>
<path d="M32.0218 17.9225C32.0433 17.9249 32.0648 17.9273 32.0839 17.9273C32.2941 17.9273 32.478 17.7719 32.509 17.5592C32.5424 17.3249 32.38 17.105 32.146 17.0715C30.0993 16.7727 27.7087 15.3576 27.7087 12.3432C27.7087 12.1066 27.5153 11.913 27.2788 11.913C27.0424 11.913 26.8489 12.1066 26.8489 12.3432C26.8489 14.5711 28.2031 17.3679 32.0218 17.9249V17.9225Z" fill="white" stroke="white" stroke-width="0.4" stroke-miterlimit="10"/>
<path d="M26.2662 31.8037C26.2662 31.3878 26.1038 30.9958 25.81 30.7018L11.0437 15.9193C10.4371 15.3121 9.44838 15.3097 8.83938 15.9193L0.654967 24.1065C0.0483605 24.7137 0.0483605 25.7034 0.654967 26.3129L15.4237 41.0954C15.727 41.399 16.1258 41.552 16.5247 41.552C16.9235 41.552 17.3223 41.399 17.6256 41.0954L25.8077 32.9057C26.1014 32.6117 26.2638 32.2197 26.2638 31.8037H26.2662ZM1.26396 25.7057C0.991706 25.4332 0.991706 24.9886 1.26396 24.7161L9.44599 16.5265C9.58212 16.3902 9.76123 16.3209 9.94035 16.3209C10.1195 16.3209 10.2986 16.3902 10.4347 16.5265L25.201 31.3089C25.3324 31.4404 25.4064 31.6173 25.4064 31.8037C25.4064 31.9902 25.3348 32.1671 25.201 32.2986L17.019 40.4882C16.7563 40.7535 16.2954 40.7535 16.0303 40.4882L1.26396 25.7057Z" fill="white" stroke="white" stroke-width="0.4" stroke-miterlimit="10"/>
<path d="M16.1449 25.5911C15.3664 24.8118 14.3323 24.3839 13.2313 24.3839C12.1303 24.3839 11.0962 24.8118 10.3177 25.5911C9.53912 26.3704 9.11163 27.4054 9.11163 28.5074C9.11163 29.6094 9.53912 30.6445 10.3177 31.4238C11.0962 32.203 12.1303 32.6309 13.2313 32.6309C14.3323 32.6309 15.3664 32.203 16.1449 31.4238C17.7522 29.815 17.7522 27.1998 16.1449 25.5935V25.5911ZM15.5359 30.8142C14.9198 31.4309 14.1006 31.7704 13.2313 31.7704C12.362 31.7704 11.5428 31.4309 10.9267 30.8142C10.3105 30.1975 9.97139 29.3775 9.97139 28.5074C9.97139 27.6373 10.3105 26.8174 10.9267 26.2006C11.5428 25.5839 12.362 25.2445 13.2313 25.2445C14.1006 25.2445 14.9198 25.5839 15.5359 26.2006C16.8065 27.4724 16.8065 29.5425 15.5359 30.8142Z" fill="white" stroke="white" stroke-width="0.4" stroke-miterlimit="10"/>
<path d="M3.69519 17.9799C3.71668 17.9823 3.73579 17.9847 3.75728 17.9847C3.96745 17.9847 4.15134 17.8293 4.18238 17.6142C4.79138 13.3377 6.85719 9.33132 9.99769 6.3361C13.1477 3.33132 17.2626 1.45722 21.5853 1.06041C21.8217 1.03889 21.9961 0.828533 21.9746 0.59188C21.9531 0.355226 21.7429 0.178334 21.5065 0.202238C16.9928 0.615784 12.6964 2.57116 9.40541 5.70981C6.124 8.83889 3.96745 13.0222 3.33218 17.4899C3.29875 17.7242 3.46114 17.9441 3.69758 17.9775L3.69519 17.9799Z" fill="white" stroke="white" stroke-width="0.4" stroke-miterlimit="10"/>
<path d="M21.4969 4.0891C16.0518 4.71061 11.3016 8.00464 8.78921 12.9003C8.68174 13.1106 8.76294 13.3712 8.97549 13.4787C9.03759 13.5098 9.10446 13.5265 9.17133 13.5265C9.32656 13.5265 9.47702 13.4405 9.55344 13.2923C11.9345 8.65245 16.4363 5.53292 21.5948 4.94249C21.8313 4.91619 22.0008 4.70344 21.9722 4.46679C21.9459 4.23014 21.7333 4.06041 21.4969 4.0891Z" fill="white" stroke="white" stroke-width="0.4" stroke-miterlimit="10"/>
<path d="M42.7879 14.6022C42.7449 14.4109 42.5729 14.2699 42.3699 14.2699C42.1335 14.2699 41.94 14.4635 41.94 14.7026C41.94 14.7432 41.9472 14.7862 41.9591 14.8269C42.4965 16.6245 42.7687 18.4962 42.7687 20.3894C42.7687 31.0938 34.0709 39.7998 23.3788 39.7998C22.9346 39.7998 22.4761 39.783 22.0175 39.752C21.7811 39.7352 21.5757 39.9145 21.559 40.1512C21.5423 40.3878 21.7214 40.5934 21.9578 40.6101C22.4355 40.6436 22.9131 40.6603 23.3764 40.6603C34.5413 40.6603 43.6261 31.5671 43.6261 20.3894C43.6261 18.4221 43.3443 16.4739 42.7879 14.6046V14.6022Z" fill="white" stroke="white" stroke-width="0.4" stroke-miterlimit="10"/>
<path d="M25.9462 35.7218C25.7122 35.76 25.5545 35.9823 25.5927 36.2166C25.6286 36.427 25.8101 36.5752 26.0155 36.5752C26.0393 36.5752 26.0632 36.5752 26.0871 36.5704C34.0136 35.2509 39.7668 28.4429 39.7668 20.3871C39.7668 20.2891 39.7668 20.1911 39.7644 20.1027H39.3345L38.9047 20.1194C38.907 20.2102 38.907 20.2963 38.907 20.3871C38.907 28.0222 33.4571 34.4716 25.9462 35.7218Z" fill="white" stroke="white" stroke-width="0.4" stroke-miterlimit="10"/>
</svg>
