<svg width="44" height="42" viewBox="0 0 44 42" fill="none" xmlns="http://www.w3.org/2000/svg">
<path d="M9.94061 16.3185C10.1196 16.3186 10.2987 16.3884 10.4348 16.5246L25.2014 31.3068C25.3348 31.4382 25.4063 31.6148 25.4064 31.801C25.4064 31.9873 25.3326 32.1646 25.2014 32.2961L17.0187 40.4855L17.0217 40.4885C16.7566 40.7538 16.2975 40.7538 16.0324 40.4885L1.26385 25.7062C0.991598 25.4337 0.991598 24.9885 1.26385 24.716L9.4455 16.5246C9.58162 16.3883 9.7615 16.3185 9.94061 16.3185ZM13.2316 24.381C12.1307 24.381 11.0961 24.8098 10.3176 25.5891C9.53916 26.3683 9.11151 27.4032 9.11151 28.5051C9.11153 29.6069 9.53914 30.6418 10.3176 31.4211C11.0961 32.2004 12.1307 32.6281 13.2316 32.6281V32.6262C14.3324 32.6261 15.3663 32.1982 16.1447 31.4191C17.752 29.8128 17.7519 27.1978 16.1447 25.5891C15.3662 24.8098 14.3325 24.3811 13.2316 24.381Z" fill="#E8FDF8"/>
<path d="M9.94061 16.3185C10.1196 16.3186 10.2987 16.3884 10.4348 16.5246L25.2014 31.3068C25.3348 31.4382 25.4063 31.6148 25.4064 31.801C25.4064 31.9873 25.3326 32.1646 25.2014 32.2961L17.0187 40.4855L17.0217 40.4885C16.7566 40.7538 16.2975 40.7538 16.0324 40.4885L1.26385 25.7062C0.991598 25.4337 0.991598 24.9885 1.26385 24.716L9.4455 16.5246C9.58162 16.3883 9.7615 16.3185 9.94061 16.3185ZM13.2316 24.381C12.1307 24.381 11.0961 24.8098 10.3176 25.5891C9.53916 26.3683 9.11151 27.4032 9.11151 28.5051C9.11153 29.6069 9.53914 30.6418 10.3176 31.4211C11.0961 32.2004 12.1307 32.6281 13.2316 32.6281V32.6262C14.3324 32.6261 15.3663 32.1982 16.1447 31.4191C17.752 29.8128 17.7519 27.1978 16.1447 25.5891C15.3662 24.8098 14.3325 24.3811 13.2316 24.381Z" stroke="#0E172A"/>
<mask id="path-2-inside-1_2247_169" fill="white">
<path d="M39.3273 3.34566C39.2891 3.34566 39.2533 3.34327 39.2151 3.34088C39.2533 3.35044 39.2891 3.36001 39.3273 3.36718V3.34327V3.34566Z"/>
</mask>
<path d="M39.3273 3.34566V3.74566H39.7273V3.34566H39.3273ZM39.2151 3.34088L39.2401 2.94166L39.118 3.72892L39.2151 3.34088ZM39.3273 3.36718L39.2536 3.76031L39.7273 3.84923V3.36718H39.3273ZM39.3273 3.34566V2.94566C39.3041 2.94566 39.2816 2.94426 39.2401 2.94166L39.2151 3.34088L39.1901 3.7401C39.225 3.74228 39.2742 3.74566 39.3273 3.74566V3.34566ZM39.2151 3.34088L39.118 3.72892C39.1481 3.73646 39.2002 3.7503 39.2536 3.76031L39.3273 3.36718L39.4011 2.97404C39.378 2.96971 39.3585 2.96443 39.3122 2.95285L39.2151 3.34088ZM39.3273 3.36718H39.7273V3.34327H39.3273H38.9273V3.36718H39.3273ZM39.3273 3.34327H38.9273V3.34566H39.3273H39.7273V3.34327H39.3273Z" fill="#0E172A" mask="url(#path-2-inside-1_2247_169)"/>
<path d="M32.0836 1.59821C33.7649 2.63327 36.3758 3.27161 39.2154 3.34332C39.2535 3.35049 39.2896 3.36016 39.3277 3.36969V12.3433C39.3277 16.3759 36.3513 19.5029 32.0836 19.9547H32.0816C27.8163 19.5029 24.8404 16.3783 24.8404 12.3433V3.34821C27.7228 3.28845 30.3784 2.64753 32.0836 1.59821Z" fill="#E8FDF8"/>
<path d="M32.0836 1.59821C33.7649 2.63327 36.3758 3.27161 39.2154 3.34332C39.2535 3.35049 39.2896 3.36016 39.3277 3.36969V12.3433C39.3277 16.3759 36.3513 19.5029 32.0836 19.9547H32.0816C27.8163 19.5029 24.8404 16.3783 24.8404 12.3433V3.34821C27.7228 3.28845 30.3784 2.64753 32.0836 1.59821Z" stroke="#0E172A"/>
<path d="M39.7572 2.48986C36.7337 2.48986 33.9562 1.83249 32.3275 0.728108C32.1818 0.6301 31.9907 0.6301 31.845 0.728108C30.2139 1.8301 27.434 2.48986 24.4129 2.48986C24.1765 2.48986 23.983 2.68349 23.983 2.92014V12.3432C23.983 16.8492 27.2979 20.3321 32.0409 20.815C32.0552 20.815 32.0695 20.815 32.0839 20.815C32.0982 20.815 32.1125 20.815 32.1268 20.815C36.8722 20.3321 40.1871 16.8492 40.1871 12.3432V2.92014C40.1871 2.68349 39.9936 2.48986 39.7572 2.48986ZM32.0862 1.59584C33.7652 2.6309 36.3755 3.26914 39.2175 3.34086C39.2557 3.34086 39.2915 3.34325 39.3297 3.34564V12.3409C39.3297 16.3759 36.354 19.5002 32.0862 19.952C27.8209 19.4978 24.8452 16.3735 24.8452 12.3409V3.34564C27.7278 3.28827 30.3834 2.64524 32.0886 1.59584H32.0862Z" fill="#0E172A" stroke="#0E172A" stroke-width="0.4" stroke-miterlimit="10"/>
<path d="M32.0218 17.9225C32.0433 17.9249 32.0648 17.9272 32.0839 17.9272C32.2941 17.9272 32.478 17.7719 32.509 17.5591C32.5424 17.3249 32.38 17.1049 32.146 17.0715C30.0993 16.7727 27.7087 15.3575 27.7087 12.3432C27.7087 12.1065 27.5153 11.9129 27.2788 11.9129C27.0424 11.9129 26.8489 12.1065 26.8489 12.3432C26.8489 14.5711 28.2031 17.3679 32.0218 17.9249V17.9225Z" fill="#0E172A" stroke="#0E172A" stroke-width="0.4" stroke-miterlimit="10"/>
<path d="M26.2662 31.8037C26.2662 31.3878 26.1038 30.9958 25.81 30.7018L11.0437 15.9193C10.4371 15.3121 9.44838 15.3097 8.83938 15.9193L0.654967 24.1065C0.0483605 24.7137 0.0483605 25.7034 0.654967 26.3129L15.4237 41.0954C15.727 41.399 16.1258 41.552 16.5247 41.552C16.9235 41.552 17.3223 41.399 17.6256 41.0954L25.8077 32.9057C26.1014 32.6117 26.2638 32.2197 26.2638 31.8037H26.2662ZM1.26396 25.7057C0.991706 25.4332 0.991706 24.9886 1.26396 24.7161L9.44599 16.5265C9.58212 16.3902 9.76123 16.3209 9.94035 16.3209C10.1195 16.3209 10.2986 16.3902 10.4347 16.5265L25.201 31.3089C25.3324 31.4404 25.4064 31.6173 25.4064 31.8037C25.4064 31.9902 25.3348 32.1671 25.201 32.2986L17.019 40.4882C16.7563 40.7535 16.2954 40.7535 16.0303 40.4882L1.26396 25.7057Z" fill="#0E172A" stroke="#0E172A" stroke-width="0.4" stroke-miterlimit="10"/>
<path d="M16.1449 25.591C15.3664 24.8117 14.3323 24.3839 13.2313 24.3839C12.1303 24.3839 11.0962 24.8117 10.3177 25.591C9.53912 26.3703 9.11163 27.4054 9.11163 28.5074C9.11163 29.6093 9.53912 30.6444 10.3177 31.4237C11.0962 32.203 12.1303 32.6309 13.2313 32.6309C14.3323 32.6309 15.3664 32.203 16.1449 31.4237C17.7522 29.8149 17.7522 27.1998 16.1449 25.5934V25.591ZM15.5359 30.8141C14.9198 31.4309 14.1006 31.7703 13.2313 31.7703C12.362 31.7703 11.5428 31.4309 10.9267 30.8141C10.3105 30.1974 9.97139 29.3775 9.97139 28.5074C9.97139 27.6372 10.3105 26.8173 10.9267 26.2006C11.5428 25.5839 12.362 25.2444 13.2313 25.2444C14.1006 25.2444 14.9198 25.5839 15.5359 26.2006C16.8065 27.4723 16.8065 29.5424 15.5359 30.8141Z" fill="#0E172A" stroke="#0E172A" stroke-width="0.4" stroke-miterlimit="10"/>
<path d="M3.69519 17.9799C3.71668 17.9823 3.73579 17.9846 3.75728 17.9846C3.96745 17.9846 4.15134 17.8293 4.18238 17.6141C4.79138 13.3376 6.85719 9.33126 9.99769 6.33604C13.1477 3.33126 17.2626 1.45716 21.5853 1.06034C21.8217 1.03883 21.9961 0.828472 21.9746 0.591819C21.9531 0.355165 21.7429 0.178273 21.5065 0.202177C16.9928 0.615723 12.6964 2.5711 9.40541 5.70975C6.124 8.83883 3.96745 13.0221 3.33218 17.4898C3.29875 17.7241 3.46114 17.944 3.69758 17.9775L3.69519 17.9799Z" fill="#0E172A" stroke="#0E172A" stroke-width="0.4" stroke-miterlimit="10"/>
<path d="M21.4969 4.08904C16.0518 4.71055 11.3016 8.00458 8.78921 12.9002C8.68174 13.1106 8.76294 13.3711 8.97549 13.4787C9.03759 13.5098 9.10446 13.5265 9.17133 13.5265C9.32656 13.5265 9.47702 13.4404 9.55344 13.2922C11.9345 8.65238 16.4363 5.53286 21.5948 4.94242C21.8313 4.91613 22.0008 4.70338 21.9722 4.46673C21.9459 4.23007 21.7333 4.06035 21.4969 4.08904Z" fill="#0E172A" stroke="#0E172A" stroke-width="0.4" stroke-miterlimit="10"/>
<path d="M42.7879 14.6022C42.7449 14.4109 42.5729 14.2699 42.3699 14.2699C42.1335 14.2699 41.94 14.4635 41.94 14.7026C41.94 14.7432 41.9472 14.7862 41.9591 14.8269C42.4965 16.6245 42.7687 18.4962 42.7687 20.3894C42.7687 31.0938 34.0709 39.7998 23.3788 39.7998C22.9346 39.7998 22.4761 39.783 22.0175 39.752C21.7811 39.7352 21.5757 39.9145 21.559 40.1512C21.5423 40.3878 21.7214 40.5934 21.9578 40.6101C22.4355 40.6436 22.9131 40.6603 23.3764 40.6603C34.5413 40.6603 43.6261 31.5671 43.6261 20.3894C43.6261 18.4221 43.3443 16.4739 42.7879 14.6046V14.6022Z" fill="#0E172A" stroke="#0E172A" stroke-width="0.4" stroke-miterlimit="10"/>
<path d="M25.9462 35.7217C25.7122 35.76 25.5545 35.9823 25.5927 36.2165C25.6286 36.4269 25.8101 36.5751 26.0155 36.5751C26.0393 36.5751 26.0632 36.5751 26.0871 36.5703C34.0136 35.2508 39.7668 28.4428 39.7668 20.3871C39.7668 20.2891 39.7668 20.191 39.7644 20.1026H39.3345L38.9047 20.1193C38.907 20.2102 38.907 20.2962 38.907 20.3871C38.907 28.0221 33.4571 34.4715 25.9462 35.7217Z" fill="#0E172A" stroke="#0E172A" stroke-width="0.4" stroke-miterlimit="10"/>
</svg>
