<svg width="58" height="48" viewBox="0 0 58 48" fill="none" xmlns="http://www.w3.org/2000/svg">
<path d="M21.4039 3.01277C18.5948 4.79926 16.2385 8.17917 14.7255 12.4972C11.4717 13.6447 8.7548 15.2735 6.85132 17.2177C6.59916 17.476 6.77269 17.9165 7.13332 17.9382H7.14417C7.26618 17.9464 7.38549 17.9002 7.46955 17.8132C9.14796 16.0946 11.5259 14.6345 14.3784 13.5549C13.9609 14.9091 13.6219 16.3421 13.3752 17.8403C13.3318 18.0959 13.5243 18.3352 13.7819 18.3515H13.79C14.0151 18.3651 14.213 18.2047 14.2483 17.9817C14.5249 16.2877 14.918 14.6834 15.4142 13.1879C18.424 12.1872 21.8947 11.5999 25.5932 11.5591V18.667C25.5932 18.9008 25.7749 19.0939 26.0081 19.1075H26.0162C26.2711 19.1238 26.4853 18.9226 26.4853 18.667V11.5591C26.8323 11.5645 27.1767 11.5727 27.5184 11.5863C27.7299 11.5944 27.9169 11.4503 27.9603 11.2437V11.2355C28.02 10.9663 27.822 10.7053 27.5455 10.6944C27.193 10.6808 26.8405 10.6726 26.4826 10.6672V2.51789C27.3313 2.57771 28.161 2.78708 28.9582 3.13513C29.4733 3.35811 30.0156 2.89041 29.8638 2.3493L29.8584 2.33026C29.7879 2.0801 29.5791 1.89248 29.3242 1.85441C28.2532 1.69398 27.1577 1.60425 26.0406 1.60425C26.0325 1.60425 26.0216 1.60425 26.0135 1.60425C26.0081 1.60425 26.0026 1.60425 25.9972 1.60425C25.9755 1.60425 25.9565 1.60425 25.9348 1.60425C16.0487 1.65047 7.67833 8.23356 4.89634 17.253C4.81228 17.5249 5.01022 17.8023 5.29221 17.8213C5.29493 17.8213 5.29764 17.8213 5.30035 17.8213C5.50371 17.8349 5.68809 17.7044 5.74775 17.5086C7.98202 10.2729 13.9609 4.67962 21.4039 3.01005V3.01277ZM15.7803 12.1491C17.8953 6.52592 21.4907 2.74629 25.5932 2.51517V10.6672C22.0601 10.7053 18.725 11.2355 15.7803 12.1491Z" fill="#0E172A" stroke="#0E172A" stroke-width="0.4" stroke-miterlimit="10"/>
<path d="M38.263 29.9848L54.7733 27.6871C54.7814 27.5647 54.7868 27.4424 54.7949 27.32C54.5618 27.3064 54.3774 27.1134 54.3774 26.8768V25.8571C54.3774 25.3541 53.9707 24.9462 53.469 24.9462H46.4327C46.1859 24.9462 45.988 24.745 45.988 24.5003C45.988 24.2555 46.1887 24.0543 46.4327 24.0543H52.9566V22.1047C52.9566 22.0476 52.9105 22.0014 52.8535 22.0014H48.2657V22.9395C48.2657 23.1869 48.065 23.3854 47.821 23.3854C47.5769 23.3854 47.3763 23.1842 47.3763 22.9395V21.1067C47.3763 21.0496 47.3302 21.0034 47.2733 21.0034H43.309C43.2738 21.0034 43.2494 21.0197 43.2331 21.036C43.2196 21.0496 43.2033 21.0768 43.2033 21.1122L43.2765 23.157C43.2846 23.3963 43.103 23.5975 42.8671 23.6165C42.8616 23.7634 42.8535 23.9102 42.8481 24.057H44.0466C44.6702 24.057 45.1773 24.5655 45.1773 25.1909V26.9339C45.1773 27.1813 44.9766 27.3798 44.7326 27.3798C44.4885 27.3798 44.2879 27.1786 44.2879 26.9339V25.1909C44.2879 25.0577 44.1794 24.9516 44.0493 24.9516H40.0607C39.9278 24.9516 39.8221 25.0604 39.8221 25.1909V27.9563H42.764C43.0108 27.9563 43.2087 28.1575 43.2087 28.4022C43.2087 28.647 43.0081 28.8482 42.764 28.8482H37.6556C37.7776 29.2697 37.8996 29.6938 38.0216 30.1153C38.0867 30.0501 38.1735 30.0038 38.2738 29.9902L38.263 29.9848Z" fill="#E8FDF8"/>
<path d="M18.3752 20.5215H2.3774C1.63313 20.5215 1.02979 21.1265 1.02979 21.8729V30.3322C1.02979 31.0786 1.63313 31.6836 2.3774 31.6836H18.3752C19.1195 31.6836 19.7228 31.0786 19.7228 30.3322V21.8729C19.7228 21.1265 19.1195 20.5215 18.3752 20.5215Z" fill="#E8FDF8"/>
<path d="M2.37734 32.5157H18.3725C19.5709 32.5157 20.5471 31.5368 20.5471 30.3349V21.8756C20.5471 20.6737 19.5709 19.6948 18.3725 19.6948H2.37734C1.65337 19.6948 1.01075 20.0538 0.614871 20.603C0.354568 20.962 0.200012 21.4025 0.200012 21.8783V30.3376C0.200012 30.8135 0.354568 31.254 0.614871 31.6129C1.01075 32.1622 1.65066 32.5211 2.37734 32.5211V32.5157ZM1.02973 21.8756C1.02973 21.1305 1.63439 20.5242 2.37734 20.5242H18.3725C19.1154 20.5242 19.7201 21.1305 19.7201 21.8756V30.3349C19.7201 31.0799 19.1154 31.6863 18.3725 31.6863H2.37734C1.63439 31.6863 1.02973 31.0799 1.02973 30.3349V21.8756Z" fill="#0E172A" stroke="#0E172A" stroke-width="0.4" stroke-miterlimit="10"/>
<path d="M10.2967 37.0227H22.5716C22.8021 37.0227 22.9892 36.8351 22.9892 36.604V24.5146C22.9892 24.2264 23.2224 23.9898 23.5125 23.9898H30.0011C30.1909 23.9898 30.3645 24.0931 30.4566 24.2563L33.7077 30.0725L25.782 30.0671C25.4756 30.0671 25.2289 29.8169 25.2289 29.5097V25.1019C25.2289 24.9061 25.115 24.7185 24.9279 24.6587C24.6215 24.5608 24.3368 24.7892 24.3368 25.0829V30.4016C24.3368 30.7088 24.5863 30.959 24.8899 30.959L33.8162 30.9644C34.0575 30.9644 34.2771 31.0949 34.3964 31.3043C34.4534 31.4049 34.4805 31.5164 34.4805 31.6306V36.468C34.4805 36.7562 34.25 36.9901 33.9626 36.9955L32.4523 37.0227C32.1893 37.0281 31.9642 36.8405 31.9236 36.5795C31.8395 36.0275 31.6443 35.3613 31.2213 34.7087C30.1746 33.099 28.48 32.6965 27.9838 32.6122C27.7397 32.5714 27.512 32.7346 27.4686 32.9766C27.4279 33.2186 27.5906 33.4497 27.8319 33.4932C28.2359 33.5639 29.6242 33.893 30.4729 35.1982C31.0477 36.0819 31.102 37.001 31.0857 37.4687C31.0749 37.7243 31.2836 37.9363 31.5385 37.9336L34.852 37.8765C35.1394 37.8711 35.3699 37.6372 35.3699 37.349V31.3587C35.3699 31.2717 35.3482 31.1874 35.3048 31.1113L30.9745 23.3644C30.8823 23.1985 30.7088 23.0979 30.519 23.0979H22.6204C22.333 23.0979 22.0971 23.3317 22.0971 23.6227V35.7121C22.0971 35.9432 21.91 36.1308 21.6795 36.1308H10.2451C9.97942 34.9888 8.95718 34.135 7.73701 34.135C6.51684 34.135 5.4946 34.9888 5.22887 36.1308H1.51684L1.47345 36.139C1.27822 36.1716 1.10469 36.3157 1.07486 36.5115C1.03419 36.7861 1.2484 37.0227 1.51412 37.0227H5.17736C5.29666 38.0342 5.99894 38.869 6.93983 39.1763C7.192 39.2579 7.45773 39.3041 7.73701 39.3041C8.01629 39.3041 8.28202 39.2579 8.53419 39.1763C9.47508 38.869 10.1774 38.0342 10.2967 37.0227ZM6.09384 37.107C5.81998 35.8752 6.89645 34.793 8.12475 35.0704C8.74569 35.209 9.2446 35.7094 9.38289 36.332C9.65675 37.5638 8.58029 38.6433 7.35198 38.3687C6.73104 38.23 6.23213 37.7297 6.09384 37.107Z" fill="#0E172A" stroke="#0E172A" stroke-width="0.4" stroke-miterlimit="10"/>
<path d="M55.9338 27.5267L54.7705 27.6871L38.2602 29.9848C38.1599 29.9984 38.0758 30.0446 38.0081 30.1099C37.9132 30.205 37.8589 30.3437 37.8779 30.4878C37.9132 30.7325 38.1355 30.9039 38.3795 30.8685L56.0531 28.4104C56.2781 28.3805 56.4923 28.4675 56.6306 28.647C56.7689 28.8264 56.796 29.0575 56.7093 29.2669L54.2174 35.1621C54.1225 35.3877 54.2282 35.6515 54.4533 35.7467C54.5102 35.7711 54.5699 35.782 54.6268 35.782C54.8004 35.782 54.9658 35.6787 55.0363 35.5101L57.5281 29.615C57.7423 29.1065 57.6718 28.5409 57.3356 28.1031C56.9994 27.6653 56.4761 27.4478 55.9283 27.5239L55.9338 27.5267Z" fill="#0E172A" stroke="#0E172A" stroke-width="0.4" stroke-miterlimit="10"/>
<path d="M42.7559 28.8455C43.0026 28.8455 43.2006 28.6443 43.2006 28.3995C43.2006 28.1548 42.9999 27.9536 42.7559 27.9536H39.8139V25.1882C39.8139 25.055 39.9224 24.9489 40.0525 24.9489H44.0411C44.174 24.9489 44.2798 25.0577 44.2798 25.1882V26.9312C44.2798 27.1786 44.4804 27.3771 44.7244 27.3771C44.9685 27.3771 45.1691 27.1759 45.1691 26.9312V25.1882C45.1691 24.5628 44.6621 24.0543 44.0384 24.0543H40.0498C39.4262 24.0543 38.9191 24.5628 38.9191 25.1882V27.9536H37.5146C37.2678 27.9536 37.0699 28.1548 37.0699 28.3995C37.0699 28.6443 37.2705 28.8455 37.5146 28.8455H42.7532H42.7559Z" fill="#0E172A" stroke="#0E172A" stroke-width="0.4" stroke-miterlimit="10"/>
<path d="M43.2711 23.1515L43.1979 21.1067C43.1979 21.0714 43.2142 21.0442 43.2277 21.0306C43.2413 21.017 43.2657 20.9979 43.3037 20.9979H47.2679C47.3248 20.9979 47.3709 21.0442 47.3709 21.1013V22.934C47.3709 23.1814 47.5716 23.3799 47.8156 23.3799C48.0596 23.3799 48.2603 23.1787 48.2603 22.934V21.9959H52.8481C52.9051 21.9959 52.9512 22.0421 52.9512 22.0992V24.0488H46.4273C46.1806 24.0488 45.9826 24.2501 45.9826 24.4948C45.9826 24.7395 46.1833 24.9407 46.4273 24.9407H53.4636C53.9653 24.9407 54.372 25.3486 54.372 25.8516V26.8713C54.372 27.1079 54.5564 27.3009 54.7896 27.3145C54.7977 27.3145 54.8058 27.3145 54.8167 27.3145C55.0634 27.3145 55.2614 27.1133 55.2614 26.8686V25.8489C55.2614 24.9842 54.6513 24.2582 53.8378 24.0842V22.0938C53.8378 21.5445 53.3904 21.0958 52.8427 21.0958H48.2549C48.2549 20.5438 47.8075 20.0979 47.2597 20.0979H43.2955C43.0244 20.0979 42.7695 20.2067 42.5797 20.4024C42.3899 20.5982 42.2923 20.8565 42.3031 21.1312L42.3763 23.176C42.3845 23.418 42.5824 23.6056 42.821 23.6056C42.8264 23.6056 42.8319 23.6056 42.8373 23.6056C42.8427 23.6056 42.8481 23.6056 42.8563 23.6056C43.0922 23.5866 43.2765 23.3854 43.2657 23.1461L43.2711 23.1515Z" fill="#0E172A" stroke="#0E172A" stroke-width="0.4" stroke-miterlimit="10"/>
<path d="M54.9387 36.5216C54.4072 36.8724 53.9164 37.0111 53.4826 36.9377C53.0677 36.8642 52.8183 36.6195 52.5309 36.3367C52.2028 36.0132 51.8313 35.6461 51.2131 35.6297C51.1968 35.6297 51.1833 35.6297 51.167 35.6297C50.5135 35.6297 50.1149 36.0458 49.795 36.3802C49.4859 36.7011 49.2798 36.8996 48.9544 36.9132C48.6372 36.9268 48.4311 36.7528 48.1003 36.4455C47.7478 36.1165 47.3058 35.7086 46.5873 35.6977C46.5764 35.6977 46.5683 35.6977 46.5602 35.6977C45.8443 35.6977 45.3807 36.1002 45.0065 36.4237C44.6513 36.731 44.4371 36.905 44.1225 36.8724C43.8514 36.8452 43.6914 36.6875 43.4338 36.4101C43.1708 36.1274 42.84 35.7766 42.2814 35.6379C41.3432 35.4041 40.2885 35.8772 39.0602 37.0845C38.8839 37.2558 38.8812 37.5386 39.052 37.7153C39.1388 37.8051 39.2554 37.8486 39.3693 37.8486C39.4831 37.8486 39.5943 37.8051 39.6811 37.7208C40.3535 37.0627 41.3107 36.3177 42.0645 36.5026C42.3682 36.5787 42.5607 36.7827 42.783 37.0192C43.065 37.3183 43.4148 37.6936 44.0276 37.7561C44.7407 37.8296 45.2098 37.4217 45.5867 37.0954C45.9501 36.78 46.1914 36.5869 46.5574 36.5869C46.5629 36.5869 46.5683 36.5869 46.5737 36.5869C46.9343 36.5923 47.1594 36.7827 47.4956 37.0954C47.8481 37.4217 48.282 37.8323 48.9924 37.7969C49.6946 37.767 50.1068 37.3374 50.4376 36.9893C50.7331 36.6793 50.9148 36.5026 51.1887 36.5135C51.4436 36.5216 51.6198 36.6821 51.9072 36.9676C52.2353 37.2884 52.642 37.6909 53.3308 37.8105C53.9951 37.9274 54.7001 37.7425 55.4295 37.2612C55.6355 37.1253 55.6925 36.8479 55.5569 36.644C55.4213 36.4373 55.1475 36.3802 54.9414 36.5162L54.9387 36.5216Z" fill="#0E172A" stroke="#0E172A" stroke-width="0.4" stroke-miterlimit="10"/>
<path d="M31.2982 14.2212L31.7076 14.7351C31.7863 14.8357 31.8405 14.9472 31.8676 15.0723L32.1876 16.5243C32.2662 16.8832 32.4316 17.2286 32.6594 17.5168C32.9468 17.8785 33.4077 18.0498 33.8579 17.9627C34.3107 17.8785 34.674 17.5494 34.8096 17.1089L35.7884 13.9194C37.0628 13.2341 38.5786 12.2661 40.3004 11.0398L43.443 17.4869C43.5759 17.7615 43.8226 17.96 44.1182 18.0307C44.1968 18.0498 44.2754 18.0579 44.3541 18.0579C44.4544 18.0579 44.5547 18.0416 44.6523 18.0117C44.7554 17.9791 44.853 17.9274 44.9397 17.8621C45.3953 17.5222 45.6393 16.9784 45.5932 16.4128L44.8801 7.52662C48.2803 4.59265 47.7299 2.81975 47.0981 2.02576C46.4663 1.22905 44.8692 0.293656 41.2548 2.96115L32.7733 0.277342C32.231 0.106035 31.6507 0.222959 31.2169 0.590045C30.9945 0.780386 30.8671 1.05774 30.8725 1.35413C30.8752 1.65867 31.0135 1.94419 31.2494 2.13725L36.8134 6.65377C35.2407 8.05685 33.9582 9.32398 33.0037 10.4171L29.6849 10.6591C29.2266 10.6917 28.8253 10.9772 28.6409 11.3987C28.4566 11.8202 28.5189 12.3096 28.8063 12.6685C29.0368 12.9568 29.3324 13.1933 29.6659 13.3511L31.0054 13.9901C31.1192 14.0444 31.2196 14.1233 31.2982 14.2239V14.2212ZM29.7472 11.4884L33.2369 11.2328C33.3345 11.2274 33.4267 11.1839 33.4972 11.1159C33.5054 11.1077 33.5135 11.0996 33.5216 11.0887C34.5357 9.9086 35.9511 8.51639 37.7326 6.95016C37.8248 6.86858 37.8763 6.75166 37.8736 6.62929C37.8736 6.50693 37.8139 6.39001 37.719 6.31387L31.7727 1.48737C31.7293 1.45202 31.7049 1.40035 31.7022 1.34325C31.7022 1.29431 31.7185 1.25352 31.7537 1.22361C31.9679 1.04143 32.2554 0.984323 32.5211 1.06862L41.2006 3.8204C41.3307 3.86119 41.4717 3.83672 41.5775 3.75243C43.8904 2.00401 45.661 1.5635 46.4392 2.54512C47.2174 3.52402 46.3931 5.15823 44.1724 7.02901C44.0693 7.11602 44.0151 7.24654 44.026 7.3825L44.7581 16.4808C44.7798 16.7609 44.6605 17.0274 44.4354 17.1959C44.4002 17.2231 44.3568 17.2313 44.308 17.2204C44.2537 17.2068 44.2076 17.1715 44.1832 17.1198L40.8237 10.2295C40.7695 10.118 40.6691 10.0391 40.5525 10.0092C40.52 10.001 40.4847 9.99561 40.4522 9.99561C40.4088 9.99561 40.3682 10.0011 40.3248 10.0146C40.2814 10.0282 40.2434 10.0473 40.2082 10.0745C38.283 11.4667 36.6127 12.538 35.2434 13.2613C35.1458 13.313 35.0726 13.4027 35.0401 13.5088L34.0097 16.8642C33.9636 17.011 33.847 17.1144 33.6979 17.1443C33.546 17.1742 33.3996 17.1171 33.3047 16.9974C33.1529 16.8071 33.0471 16.5814 32.9956 16.3448L32.6756 14.8928C32.6214 14.6481 32.5102 14.4142 32.353 14.2157L31.9435 13.7018C31.7863 13.506 31.5856 13.3429 31.3579 13.2368L30.0184 12.5978C29.8015 12.4945 29.6035 12.3395 29.4544 12.1492C29.3595 12.0295 29.3378 11.8718 29.4002 11.7332C29.4625 11.5918 29.59 11.502 29.7418 11.4911L29.7472 11.4884Z" fill="#0E172A" stroke="#0E172A" stroke-width="0.4" stroke-miterlimit="10"/>
<path d="M41.1952 40.1954H41.1843C41.0569 40.1818 40.9349 40.2281 40.8427 40.3151C38.0417 43.0478 34.4924 45.0138 30.539 45.873C32.6079 44.5733 34.43 42.4115 35.859 39.6462C35.962 39.4477 35.8562 39.2056 35.642 39.1431H35.6366H35.3546C35.2245 39.1431 35.1052 39.2165 35.0455 39.3334C32.9116 43.4475 29.872 46.1042 26.4826 46.338V39.2655C26.5179 39.2655 26.5531 39.2709 26.5884 39.2709C26.8676 39.2709 27.1334 39.2247 27.3855 39.1431C28.4376 38.8005 29.1941 37.7971 29.167 36.6224C29.1344 35.271 28.0146 34.1399 26.6643 34.0991C25.2082 34.0556 24.0097 35.233 24.0097 36.685C24.0097 37.7563 24.6632 38.6754 25.5905 39.067V46.3407C22.1767 46.1477 19.1155 43.4992 16.9625 39.377C16.8866 39.2328 16.7402 39.1431 16.5802 39.1431C16.2521 39.1431 16.046 39.4939 16.1979 39.7848C17.6024 42.4632 19.3839 44.5597 21.4013 45.8431C17.0249 44.8615 13.1529 42.523 10.2516 39.2927C10.1675 39.1975 10.0482 39.1458 9.92349 39.1458C9.53575 39.1458 9.32967 39.6054 9.58726 39.8936C13.6193 44.3856 19.449 47.2217 25.9295 47.2516C25.9511 47.2516 25.9701 47.2516 25.9918 47.2516C25.9972 47.2516 26.0027 47.2516 26.0081 47.2516C26.0162 47.2516 26.0271 47.2516 26.0352 47.2516C32.0303 47.2516 37.4723 44.8452 41.4609 40.9486C41.7293 40.6876 41.5667 40.2281 41.1925 40.1927L41.1952 40.1954ZM24.9452 37.0738C24.6713 35.842 25.7478 34.7625 26.9761 35.0372C27.597 35.1759 28.0959 35.6762 28.2342 36.2989C28.5081 37.5306 27.4316 38.6102 26.2033 38.3355C25.5824 38.1968 25.0835 37.6965 24.9452 37.0738Z" fill="#0E172A" stroke="#0E172A" stroke-width="0.4" stroke-miterlimit="10"/>
</svg>
