<svg width="44" height="46" viewBox="0 0 44 46" fill="none" xmlns="http://www.w3.org/2000/svg">
<path d="M13.5692 33.4045L15.5832 36.0124C16.3092 36.9536 17.4553 37.5155 18.6452 37.5155H36.0616C37.2515 37.5155 38.3949 36.9536 39.1236 36.0124L41.1348 33.4045C41.6806 32.7007 41.9672 31.8223 41.9399 30.9303L41.8525 27.9213C40.6354 27.6049 39.2927 27.2994 37.8327 27.0293C37.8546 27.0839 37.8682 27.1439 37.8682 27.2066C37.8682 29.2826 37.0604 31.2331 35.5922 32.7007L33.2862 35.0058C33.1962 35.0958 33.0816 35.1395 32.9642 35.1395C32.8469 35.1395 32.7322 35.0958 32.6422 35.0058C32.4648 34.8285 32.4648 34.5393 32.6422 34.362L34.9482 32.0569C36.2445 30.7611 36.9567 29.0398 36.9567 27.2066C36.9567 27.0866 37.0058 26.9775 37.0823 26.8956C34.4433 26.4428 31.4523 26.1182 28.1639 26.0663C24.2123 26.0063 20.6592 26.3555 17.6027 26.8711C17.6955 26.9556 17.7528 27.0729 17.7528 27.2066C17.7528 29.0371 18.4651 30.7611 19.7613 32.0569L22.0673 34.362C22.2447 34.5393 22.2447 34.8285 22.0673 35.0058C21.9773 35.0958 21.8627 35.1395 21.7453 35.1395C21.628 35.1395 21.5133 35.0958 21.4233 35.0058L19.1173 32.7007C17.6491 31.2331 16.8413 29.2826 16.8413 27.2066C16.8413 27.1302 16.8631 27.0566 16.8959 26.9938C15.4222 27.2612 14.0714 27.564 12.857 27.875L12.7669 30.9303C12.7396 31.8223 13.0262 32.7007 13.572 33.4045H13.5692ZM26.8949 27.2066C26.8949 26.9556 27.0996 26.751 27.3507 26.751C27.6017 26.751 27.8064 26.9556 27.8064 27.2066V34.2311C27.8064 34.482 27.6017 34.6866 27.3507 34.6866C27.0996 34.6866 26.8949 34.482 26.8949 34.2311V27.2066Z" fill="#E8FDF8"/>
<path d="M42.5839 32.6107C42.5839 32.6107 42.5839 32.608 42.5866 32.6052C42.5866 32.6052 42.5866 32.6025 42.5866 32.5998C42.5866 32.6025 42.5866 32.6053 42.5839 32.608V32.6107Z" fill="#E8FDF8"/>
<path d="M27.3507 6.96257C28.9663 6.96257 30.2789 5.6477 30.2789 4.03549C30.2789 2.42327 28.9663 1.1084 27.3507 1.1084C25.7351 1.1084 24.4225 2.42327 24.4225 4.03549C24.4225 5.6477 25.7351 6.96257 27.3507 6.96257Z" fill="#E8FDF8"/>
<path d="M14.8601 36.569C15.758 37.7338 17.1716 38.4267 18.6425 38.4267H36.0589C37.5299 38.4267 38.9435 37.7311 39.8413 36.569L41.8526 33.961C42.1692 33.5519 42.412 33.0936 42.5812 32.6107C42.5812 32.608 42.5812 32.6053 42.584 32.6025C42.7723 32.0597 42.8651 31.4841 42.846 30.9058L42.2756 11.3818C42.2319 9.94967 41.5579 8.62389 40.4253 7.74549L36.3428 4.5838C35.5104 3.94 34.4707 3.58264 33.4146 3.58264C33.1635 3.58264 32.9588 3.78724 32.9588 4.03821C32.9588 4.28918 33.1635 4.49378 33.4146 4.49378C34.2687 4.49378 35.1093 4.78021 35.7833 5.30397L39.8659 8.46566C40.7828 9.17766 41.3286 10.2497 41.3641 11.4091L41.6588 21.4725L41.8471 27.9241L41.9345 30.933C41.9618 31.8251 41.6752 32.7035 41.1294 33.4073L39.1182 36.0152C38.3895 36.9563 37.2461 37.5183 36.0562 37.5183H18.6398C17.4499 37.5183 16.3038 36.9563 15.5778 36.0152L13.5638 33.4073C13.0208 32.7035 12.7342 31.8223 12.7588 30.933L12.8489 27.8777L13.3319 11.4091C13.3674 10.2497 13.9132 9.17766 14.8301 8.46566L18.9127 5.30397C19.5867 4.78294 20.4273 4.49378 21.2814 4.49378C21.5325 4.49378 21.7372 4.28918 21.7372 4.03821C21.7372 3.91272 21.6853 3.80088 21.6035 3.71631C21.5216 3.63174 21.407 3.58264 21.2787 3.58264C20.2226 3.58264 19.1856 3.93727 18.3505 4.5838L14.2679 7.74549C13.4929 8.34563 12.9389 9.16129 12.6469 10.0724C12.5132 10.4925 12.4313 10.9317 12.4177 11.3818L12.1148 21.7371L11.8473 30.903C11.8146 32.0051 12.1666 33.0908 12.8407 33.961L14.8547 36.569H14.8601Z" fill="#0E172A" stroke="#0E172A" stroke-width="0.4" stroke-miterlimit="10"/>
<path d="M27.3506 7.87639C28.9144 7.87639 30.2598 6.93798 30.8574 5.59583C31.0703 5.11844 31.1903 4.59194 31.1903 4.03817C31.1903 1.92129 29.4683 0.199951 27.3479 0.199951C25.5004 0.199951 23.953 1.51209 23.5874 3.25525C23.5355 3.50895 23.5055 3.77083 23.5055 4.0409C23.5055 6.15779 25.2275 7.88185 27.3452 7.88185L27.3506 7.87639ZM27.3506 1.10836C28.9662 1.10836 30.2789 2.42323 30.2789 4.03544C30.2789 5.64766 28.9662 6.96253 27.3506 6.96253C25.7351 6.96253 24.4224 5.64766 24.4224 4.03544C24.4224 2.42323 25.7351 1.10836 27.3506 1.10836Z" fill="#0E172A" stroke="#0E172A" stroke-width="0.4" stroke-miterlimit="10"/>
<path d="M27.3506 34.6894C27.6017 34.6894 27.8064 34.4848 27.8064 34.2338V27.2094C27.8064 26.9584 27.6017 26.7538 27.3506 26.7538C27.0996 26.7538 26.8949 26.9584 26.8949 27.2094V34.2338C26.8949 34.4848 27.0996 34.6894 27.3506 34.6894Z" fill="#0E172A" stroke="#0E172A" stroke-width="0.4" stroke-miterlimit="10"/>
<path d="M19.1118 32.7008L21.4178 35.0059C21.5079 35.0959 21.6225 35.1395 21.7398 35.1395C21.8572 35.1395 21.9718 35.0959 22.0618 35.0059C22.2392 34.8285 22.2392 34.5394 22.0618 34.3621L19.7558 32.057C18.4596 30.7612 17.7473 29.0398 17.7473 27.2067C17.7473 27.073 17.6873 26.953 17.5972 26.8711C17.5153 26.7975 17.4089 26.7511 17.2916 26.7511C17.1169 26.7511 16.9668 26.8493 16.8904 26.9939C16.8576 27.0566 16.8358 27.1303 16.8358 27.2067C16.8358 29.2826 17.6436 31.2331 19.1118 32.7008Z" fill="#0E172A" stroke="#0E172A" stroke-width="0.4" stroke-miterlimit="10"/>
<path d="M34.9455 32.057L32.6395 34.3621C32.4621 34.5394 32.4621 34.8285 32.6395 35.0059C32.7296 35.0959 32.8442 35.1395 32.9615 35.1395C33.0789 35.1395 33.1935 35.0959 33.2835 35.0059L35.5895 32.7008C37.0577 31.2331 37.8655 29.2826 37.8655 27.2067C37.8655 27.1439 37.8519 27.0839 37.8301 27.0294C37.7618 26.8657 37.5981 26.7511 37.4098 26.7511C37.2788 26.7511 37.1615 26.8084 37.0796 26.8957C37.0032 26.9775 36.954 27.0866 36.954 27.2067C36.954 29.0371 36.2418 30.7612 34.9455 32.057Z" fill="#0E172A" stroke="#0E172A" stroke-width="0.4" stroke-miterlimit="10"/>
<path d="M24.0022 19.5247C24.9219 19.4538 25.8552 19.4101 26.7776 19.3992C30.6937 19.3474 34.6098 19.8302 38.4059 20.8341C38.4441 20.845 38.485 20.8505 38.5232 20.8505C38.7252 20.8505 38.9107 20.7141 38.9626 20.5122C38.9626 20.5095 38.9626 20.504 38.9626 20.5013C39.0199 20.2613 38.8753 20.0185 38.6378 19.9557C38.0948 19.8111 37.549 19.6829 37.0032 19.5602C33.641 18.8073 30.2025 18.4444 26.764 18.4908C25.8225 18.5045 24.8701 18.5481 23.9286 18.619C23.6775 18.6381 23.4892 18.8591 23.5083 19.1101C23.5274 19.361 23.7512 19.5493 23.9968 19.5302L24.0022 19.5247Z" fill="#0E172A" stroke="#0E172A" stroke-width="0.4" stroke-miterlimit="10"/>
<path d="M20.8229 18.971C19.2264 19.2111 17.6245 19.5411 16.0635 19.9531C15.8206 20.0185 15.676 20.2668 15.7388 20.5096C15.7934 20.7142 15.9762 20.8478 16.1781 20.8478C16.2163 20.8478 16.2546 20.8424 16.2955 20.8315C17.8237 20.4277 19.3929 20.1031 20.9566 19.8685C21.2049 19.8303 21.3769 19.5984 21.3387 19.3502C21.3005 19.1019 21.0712 18.9301 20.8202 18.9683L20.8229 18.971Z" fill="#0E172A" stroke="#0E172A" stroke-width="0.4" stroke-miterlimit="10"/>
<path d="M25.3557 14.3171C25.3557 14.0661 25.151 13.8615 24.9 13.8615H17.4771C17.0132 13.8615 16.6366 13.4851 16.6366 13.0213V11.9329C16.6366 11.6819 16.4319 11.4773 16.1808 11.4773C15.9298 11.4773 15.7251 11.6819 15.7251 11.9329V13.0213C15.7251 13.987 16.511 14.7754 17.4798 14.7754H24.9027C25.1538 14.7754 25.3584 14.5708 25.3584 14.3198L25.3557 14.3171Z" fill="#0E172A" stroke="#0E172A" stroke-width="0.4" stroke-miterlimit="10"/>
<path d="M38.9789 11.9301C38.9789 11.6791 38.7742 11.4745 38.5231 11.4745C38.2721 11.4745 38.0674 11.6791 38.0674 11.9301V13.0186C38.0674 13.4823 37.6908 13.8588 37.2269 13.8588H29.804C29.5529 13.8588 29.3483 14.0634 29.3483 14.3143C29.3483 14.5653 29.5529 14.7699 29.804 14.7699H37.2269C38.1929 14.7699 38.9816 13.9843 38.9816 13.0158V11.9274L38.9789 11.9301Z" fill="#0E172A" stroke="#0E172A" stroke-width="0.4" stroke-miterlimit="10"/>
<path d="M16.9696 45.0011C17.1252 45.0011 17.278 44.9192 17.3626 44.7746L19.554 41.0374C19.6823 40.8191 19.6086 40.5409 19.3903 40.4127C19.1747 40.2844 18.8936 40.3581 18.7653 40.5763L16.5739 44.3136C16.4457 44.5319 16.5194 44.8101 16.7377 44.9383C16.8114 44.982 16.8905 45.0011 16.9669 45.0011H16.9696Z" fill="#0E172A" stroke="#0E172A" stroke-width="0.4" stroke-miterlimit="10"/>
<path d="M37.7317 45.001C37.8108 45.001 37.89 44.9819 37.9609 44.9383C38.1793 44.8101 38.2502 44.5318 38.1247 44.3136L35.9333 40.5763C35.805 40.358 35.5267 40.2871 35.3084 40.4126C35.09 40.5408 35.0191 40.8191 35.1446 41.0373L37.336 44.7746C37.4206 44.9192 37.5734 45.001 37.729 45.001H37.7317Z" fill="#0E172A" stroke="#0E172A" stroke-width="0.4" stroke-miterlimit="10"/>
<path d="M33.48 42.6768C33.48 42.4258 33.2753 42.2213 33.0242 42.2213H21.6771C21.426 42.2213 21.2213 42.4258 21.2213 42.6768C21.2213 42.9278 21.426 43.1324 21.6771 43.1324H33.0242C33.2753 43.1324 33.48 42.9278 33.48 42.6768Z" fill="#0E172A" stroke="#0E172A" stroke-width="0.4" stroke-miterlimit="10"/>
<path d="M6.37563 36.9317L10.9276 37.7447C10.9549 37.7501 10.9822 37.7529 11.0095 37.7529C11.225 37.7529 11.4188 37.5974 11.457 37.3764C11.5007 37.1282 11.3369 36.8908 11.0886 36.8472L6.53664 36.0343C5.93626 35.9279 5.49962 35.4068 5.49962 34.7958V32.5779C5.49962 32.327 5.29494 32.1224 5.04388 32.1224C4.79281 32.1224 4.58813 32.327 4.58813 32.5779V34.7958C4.58813 35.8488 5.34134 36.7462 6.37563 36.9317Z" fill="#0E172A" stroke="#0E172A" stroke-width="0.4" stroke-miterlimit="10"/>
<path d="M5.04119 29.3317C5.29226 29.3317 5.49693 29.1271 5.49693 28.8761V27.8613C5.49693 27.6104 5.29226 27.4058 5.04119 27.4058C4.79012 27.4058 4.58545 27.6104 4.58545 27.8613V28.8761C4.58545 29.1271 4.79012 29.3317 5.04119 29.3317Z" fill="#0E172A" stroke="#0E172A" stroke-width="0.4" stroke-miterlimit="10"/>
<path d="M5.04119 24.8797C5.29226 24.8797 5.49693 24.6751 5.49693 24.4241V22.8801C5.49693 22.6292 5.29226 22.4246 5.04119 22.4246C4.79012 22.4246 4.58545 22.6292 4.58545 22.8801V24.4241C4.58545 24.6751 4.79012 24.8797 5.04119 24.8797Z" fill="#0E172A" stroke="#0E172A" stroke-width="0.4" stroke-miterlimit="10"/>
<path d="M5.04111 20.1222C5.29218 20.1222 5.49685 19.9176 5.49685 19.6666V16.273C5.49685 15.8775 5.68788 15.501 6.00445 15.2637L10.6001 11.8456C10.7502 11.7337 10.8102 11.551 10.772 11.3791C10.7584 11.3191 10.7338 11.2591 10.6929 11.2072C10.5428 11.0054 10.2562 10.9645 10.0543 11.1145L5.45865 14.5326C4.91012 14.9391 4.58264 15.5911 4.58264 16.273V19.6666C4.58264 19.9176 4.78732 20.1222 5.03838 20.1222H5.04111Z" fill="#0E172A" stroke="#0E172A" stroke-width="0.4" stroke-miterlimit="10"/>
<path d="M1.76912 35.7751H0.655693C0.404626 35.7751 0.199951 35.9797 0.199951 36.2307C0.199951 36.4816 0.404626 36.6862 0.655693 36.6862H1.76912C2.55234 36.6862 3.19093 36.0479 3.19093 35.265V16.9441C3.19093 16.1584 2.55234 15.5228 1.76912 15.5228H0.655693C0.404626 15.5228 0.199951 15.7274 0.199951 15.9784C0.199951 16.2294 0.404626 16.434 0.655693 16.434H1.76912C2.05021 16.434 2.27944 16.6631 2.27944 16.9441V35.265C2.27944 35.5459 2.05021 35.7751 1.76912 35.7751Z" fill="#0E172A" stroke="#0E172A" stroke-width="0.4" stroke-miterlimit="10"/>
<path d="M13.2964 41.1328C13.5174 41.1328 13.7139 40.9691 13.7467 40.7427C13.7849 40.4945 13.6129 40.2626 13.3619 40.2244L0.723895 38.3558C0.475556 38.3203 0.243592 38.4922 0.205386 38.7404C0.16718 38.9887 0.339107 39.2205 0.590174 39.2587L13.2281 41.1274C13.25 41.1301 13.2745 41.1328 13.2964 41.1328Z" fill="#0E172A" stroke="#0E172A" stroke-width="0.4" stroke-miterlimit="10"/>
</svg>
