<svg width="49" height="37" viewBox="0 0 49 37" fill="none" xmlns="http://www.w3.org/2000/svg">
<path d="M38.3653 1.80676V0.510986H37.7048C38.1033 0.802877 38.3653 1.27481 38.3653 1.80676Z" fill="#E8FDF8"/>
<path d="M37.8904 6.57526C37.6284 6.57526 37.4156 6.36248 37.4156 6.10059V1.80681C37.4156 1.44399 37.1208 1.1521 36.7579 1.1521H27.7331C27.3701 1.1521 27.0781 1.44672 27.0781 1.80681V7.71554H31.1143C31.6328 7.71554 32.094 7.96378 32.386 8.3457C32.5934 8.61576 32.719 8.95403 32.719 9.3223V15.231H43.5312V13.2014C43.2693 13.2014 43.0564 12.9887 43.0564 12.7268V9.31957C43.0564 8.95675 42.7617 8.66486 42.4014 8.66486H35.0113C34.8039 8.66486 34.6293 8.5312 34.5638 8.3457C34.5474 8.29659 34.5365 8.24476 34.5365 8.1902C34.5365 7.92832 34.7493 7.71554 35.0113 7.71554H38.3653V6.10059C38.3653 6.36248 38.1524 6.57526 37.8904 6.57526Z" fill="#E8FDF8"/>
<path d="M29.99 15.231H31.7721V9.32227C31.7721 8.95945 31.4773 8.66756 31.1144 8.66756H23.9726C23.7652 8.66756 23.5905 8.53389 23.525 8.34839C23.5087 8.29929 23.4977 8.24746 23.4977 8.1929C23.4977 7.93102 23.7106 7.71824 23.9726 7.71824H26.1258V1.80951C26.1258 1.27756 26.3877 0.805623 26.7862 0.513733H23.3913C23.4104 0.565564 23.4213 0.620122 23.4213 0.677409C23.4213 0.939292 23.2085 1.15207 22.9465 1.15207H16.4433C16.0803 1.15207 15.7856 1.44669 15.7856 1.80678V7.71551H19.8245C20.343 7.71551 20.8042 7.96375 21.0962 8.34567C21.3036 8.61573 21.4292 8.954 21.4292 9.32227V10.5089C21.4292 10.7708 21.2163 10.9836 20.9543 10.9836C20.6923 10.9836 20.4795 10.7708 20.4795 10.5089V9.32227C20.4795 8.95945 20.1847 8.66756 19.8245 8.66756H10.7997C10.4368 8.66756 10.1448 8.96218 10.1448 9.32227V15.231H11.8067C12.0687 15.231 12.2816 15.4438 12.2816 15.7057H14.6804C14.6804 15.4438 14.8932 15.231 15.1552 15.231H16.6261C16.8881 15.231 17.101 15.4438 17.101 15.7057H19.0549C19.0549 15.4438 19.2678 15.231 19.5298 15.231H20.4822V13.196C20.4822 12.9341 20.6951 12.7213 20.9571 12.7213C21.219 12.7213 21.4319 12.9341 21.4319 13.196V15.231H22.9465C23.2085 15.231 23.4213 15.4438 23.4213 15.7057H25.3425C25.3425 15.4438 25.5554 15.231 25.8174 15.231H27.1164C27.3784 15.231 27.5912 15.4438 27.5912 15.7057H29.5124C29.5124 15.4438 29.7253 15.231 29.9873 15.231H29.99Z" fill="#E8FDF8"/>
<path d="M11.8121 15.231H10.1502V9.32228C10.1502 8.95947 10.4449 8.66757 10.8051 8.66757H19.8299C20.1929 8.66757 20.4849 8.96219 20.4849 9.32228V10.5089C20.4849 10.7708 20.6977 10.9836 20.9597 10.9836C21.2217 10.9836 21.4346 10.7708 21.4346 10.5089V9.32228C21.4346 8.95401 21.309 8.61847 21.1016 8.34568C20.8069 7.96377 20.3484 7.71552 19.8299 7.71552H15.791V1.80679C15.791 1.44397 16.0857 1.15208 16.4487 1.15208H22.9519C23.2139 1.15208 23.4267 0.939304 23.4267 0.677421C23.4267 0.620134 23.4158 0.565575 23.3967 0.513745C23.3285 0.3337 23.1565 0.202759 22.9519 0.202759H16.4487C15.5618 0.202759 14.8413 0.922936 14.8413 1.80679V7.71552H10.8051C9.92092 7.71552 9.20048 8.4357 9.20048 9.32228V15.231H2.14329C1.3819 15.231 0.710569 15.6593 0.385819 16.3467C0.0637977 17.0369 0.164773 17.8253 0.653263 18.4091L9.034 28.4397C9.12679 28.5516 9.26324 28.6089 9.39969 28.6089C9.50612 28.6089 9.61528 28.5734 9.70261 28.4997C9.90456 28.3306 9.93185 28.0333 9.76265 27.8314L1.3819 17.798C1.12811 17.4952 1.07899 17.1024 1.24545 16.745C1.41192 16.3877 1.74759 16.1749 2.14056 16.1749H11.8094C12.0714 16.1749 12.2842 15.9621 12.2842 15.7002C12.2842 15.4383 12.0714 15.2256 11.8094 15.2256L11.8121 15.231Z" fill="#0E172A" stroke="#0E172A" stroke-width="0.4" stroke-miterlimit="10"/>
<path d="M16.6316 15.231H15.1606C14.8984 15.231 14.6858 15.4435 14.6858 15.7057C14.6858 15.9678 14.8984 16.1803 15.1606 16.1803H16.6316C16.8938 16.1803 17.1064 15.9678 17.1064 15.7057C17.1064 15.4435 16.8938 15.231 16.6316 15.231Z" fill="#0E172A" stroke="#0E172A" stroke-width="0.4" stroke-miterlimit="10"/>
<path d="M27.1191 15.231H25.8201C25.5578 15.231 25.3452 15.4435 25.3452 15.7057C25.3452 15.9678 25.5578 16.1803 25.8201 16.1803H27.1191C27.3813 16.1803 27.5939 15.9678 27.5939 15.7057C27.5939 15.4435 27.3813 15.231 27.1191 15.231Z" fill="#0E172A" stroke="#0E172A" stroke-width="0.4" stroke-miterlimit="10"/>
<path d="M45.8481 15.231H32.7217V9.32226C32.7217 8.95399 32.5961 8.61846 32.3887 8.34566C32.094 7.96375 31.6355 7.7155 31.117 7.7155H27.0808V1.80677C27.0808 1.44396 27.3756 1.15207 27.7358 1.15207H36.7606C37.1235 1.15207 37.4183 1.44668 37.4183 1.80677V6.10056C37.4183 6.36244 37.6311 6.57522 37.8931 6.57522C38.1551 6.57522 38.368 6.36244 38.368 6.10056V1.80677C38.368 1.27482 38.106 0.802888 37.7075 0.510998C37.4428 0.317314 37.1154 0.200012 36.7633 0.200012H27.7385C27.3838 0.200012 27.059 0.317314 26.7943 0.510998C26.3959 0.802888 26.1339 1.27482 26.1339 1.80677V7.7155H23.9807C23.7187 7.7155 23.5059 7.92828 23.5059 8.19017C23.5059 8.24473 23.5168 8.29656 23.5332 8.34566C23.5986 8.53116 23.7733 8.66483 23.9807 8.66483H31.1225C31.4854 8.66483 31.7802 8.95945 31.7802 9.31954V15.2283H29.9981C29.7362 15.2283 29.5233 15.441 29.5233 15.7029C29.5233 15.9648 29.7362 16.1776 29.9981 16.1776H45.8563C46.454 16.1776 47.0107 16.4449 47.3846 16.9141C47.7584 17.3833 47.8922 17.9862 47.7584 18.5673L46.031 26.0118C45.4524 28.5106 43.2529 30.2565 40.6876 30.2565H39.4787C39.2167 30.2565 39.0038 30.4693 39.0038 30.7312C39.0038 30.9931 39.2167 31.2059 39.4787 31.2059H40.6876C43.6977 31.2059 46.2766 29.1572 46.9561 26.2246L48.6836 18.7801C48.8855 17.9126 48.6836 17.0178 48.1296 16.3194C47.5756 15.6238 46.7487 15.2228 45.8591 15.2228L45.8481 15.231Z" fill="#0E172A" stroke="#0E172A" stroke-width="0.4" stroke-miterlimit="10"/>
<path d="M22.952 15.231H21.4374V13.196C21.4374 12.9341 21.2245 12.7213 20.9625 12.7213C20.7006 12.7213 20.4877 12.9341 20.4877 13.196V15.231H19.5353C19.2733 15.231 19.0604 15.4438 19.0604 15.7057C19.0604 15.9676 19.2733 16.1803 19.5353 16.1803H22.952C23.214 16.1803 23.4268 15.9676 23.4268 15.7057C23.4268 15.4438 23.214 15.231 22.952 15.231Z" fill="#0E172A" stroke="#0E172A" stroke-width="0.4" stroke-miterlimit="10"/>
<path d="M34.5392 8.19016C34.5392 8.24472 34.5501 8.29655 34.5665 8.34565C34.632 8.53115 34.8066 8.66482 35.014 8.66482H42.4041C42.7671 8.66482 43.0591 8.95944 43.0591 9.31953V12.7267C43.0591 12.9886 43.272 13.2014 43.534 13.2014C43.7959 13.2014 44.0088 12.9886 44.0088 12.7267V9.31953C44.0088 8.43295 43.2883 7.71277 42.4041 7.71277H35.014C34.7521 7.71277 34.5392 7.92555 34.5392 8.18743V8.19016Z" fill="#0E172A" stroke="#0E172A" stroke-width="0.4" stroke-miterlimit="10"/>
<path d="M14.0145 30.0819L15.117 31.0258C16.0449 31.8196 17.423 31.8578 18.3946 31.1158L19.8982 29.9646C20.515 29.4927 21.3664 29.509 21.9641 30.0083L23.1594 31.004C24.1391 31.8196 25.5527 31.8087 26.5215 30.9821L27.5913 30.0683C28.1971 29.55 29.0868 29.5363 29.7062 30.0383L31.0434 31.1158C31.521 31.5004 32.0996 31.6941 32.6781 31.6941C33.2567 31.6941 33.7834 31.5195 34.2473 31.1676C34.4574 31.0094 34.4984 30.7121 34.3401 30.502C34.1818 30.292 33.8843 30.251 33.6742 30.4093C33.0656 30.8676 32.2278 30.8539 31.6356 30.3765L30.2984 29.299C29.3215 28.5106 27.9215 28.5324 26.9691 29.3481L25.8993 30.262C25.2853 30.7885 24.3847 30.7939 23.7625 30.2756L22.5672 29.2799C21.6257 28.497 20.2885 28.4697 19.317 29.2144L17.8133 30.3656C17.1965 30.8376 16.3205 30.813 15.7311 30.3083L14.6285 29.3672C14.4293 29.1953 14.1291 29.2199 13.9599 29.419C13.788 29.6182 13.8126 29.9182 14.0118 30.0874L14.0145 30.0819Z" fill="#0E172A" stroke="#0E172A" stroke-width="0.4" stroke-miterlimit="10"/>
<path d="M2.23888 31.1922L3.91721 29.9182C4.51486 29.4654 5.34448 29.4709 5.93667 29.9319L7.43216 31.0994C7.90154 31.465 8.46644 31.6478 9.03408 31.6478C9.629 31.6478 10.2266 31.4459 10.7042 31.0449C10.9062 30.8757 10.9335 30.5784 10.7643 30.3765C10.5951 30.1747 10.2976 30.1474 10.0957 30.3165C9.50074 30.813 8.62745 30.8266 8.01616 30.352L6.52067 29.1844C5.59009 28.4588 4.2829 28.4506 3.34139 29.1626L1.66306 30.4365C1.45293 30.5948 1.41472 30.8921 1.57301 31.1022C1.73129 31.3122 2.02875 31.3504 2.23888 31.1922Z" fill="#0E172A" stroke="#0E172A" stroke-width="0.4" stroke-miterlimit="10"/>
<path d="M39.2003 35.2978L37.8631 34.2203C36.8862 33.4319 35.4862 33.4537 34.5338 34.2694L33.464 35.1832C32.85 35.7097 31.9521 35.7152 31.3272 35.1969L30.1319 34.2012C29.1904 33.4182 27.8532 33.391 26.8817 34.1357C26.6743 34.2939 26.6333 34.594 26.7943 34.8013C26.9553 35.0086 27.2528 35.0496 27.4602 34.8886C28.0797 34.4167 28.9284 34.433 29.5261 34.9295L30.7214 35.9252C31.2071 36.329 31.7993 36.5308 32.3888 36.5308C32.9919 36.5308 33.595 36.3208 34.0835 35.9034L35.1532 34.9895C35.7591 34.4712 36.6487 34.4576 37.2682 34.9595L38.6054 36.0371C38.8101 36.2007 39.1076 36.1707 39.274 35.9661C39.4378 35.7615 39.4077 35.4642 39.2031 35.2978H39.2003Z" fill="#0E172A" stroke="#0E172A" stroke-width="0.4" stroke-miterlimit="10"/>
<path d="M10.9034 34.092L9.22508 35.3659C9.01494 35.5242 8.97673 35.8215 9.13502 36.0316C9.2933 36.2416 9.59076 36.2798 9.80089 36.1216L11.4792 34.8476C12.0769 34.3948 12.9065 34.4003 13.4987 34.8613L14.9942 36.0288C15.4636 36.3944 16.0285 36.5744 16.5961 36.5744C17.191 36.5744 17.7887 36.3726 18.2662 35.9743L19.437 34.9977C20.0592 34.4794 20.9598 34.4821 21.5738 35.0113L22.6763 35.9552C22.8755 36.1243 23.1757 36.1025 23.3449 35.9033C23.5168 35.7042 23.4923 35.4041 23.293 35.235L22.1905 34.2911C21.2217 33.4618 19.8054 33.4537 18.8257 34.272L17.6549 35.2486C17.06 35.7451 16.184 35.7588 15.5754 35.2841L14.08 34.1165C13.1494 33.3909 11.8422 33.3827 10.9007 34.0947L10.9034 34.092Z" fill="#0E172A" stroke="#0E172A" stroke-width="0.4" stroke-miterlimit="10"/>
<path d="M37.8904 20.3841H14.4402C14.1782 20.3841 13.9653 20.5969 13.9653 20.8588C13.9653 21.1206 14.1782 21.3334 14.4402 21.3334H37.8904C38.1524 21.3334 38.3653 21.1206 38.3653 20.8588C38.3653 20.5969 38.1524 20.3841 37.8904 20.3841Z" fill="#0E172A" stroke="#0E172A" stroke-width="0.4" stroke-miterlimit="10"/>
<path d="M22.72 24.3969C22.458 24.3969 22.2451 24.6097 22.2451 24.8716C22.2451 25.1335 22.458 25.3462 22.72 25.3462H29.6134C29.8754 25.3462 30.0882 25.1335 30.0882 24.8716C30.0882 24.6097 29.8754 24.3969 29.6134 24.3969H22.72Z" fill="#0E172A" stroke="#0E172A" stroke-width="0.4" stroke-miterlimit="10"/>
</svg>
