<svg width="37" height="42" viewBox="0 0 37 42" fill="none" xmlns="http://www.w3.org/2000/svg">
<path d="M32.14 0.199951H20.7984C20.7984 0.199951 20.7936 0.199951 20.7912 0.199951H11.9763C11.9763 0.199951 11.9715 0.199951 11.9691 0.199951H0.629888C0.393455 0.199951 0.200012 0.393577 0.200012 0.63023V30.6733C0.200012 30.9099 0.393455 31.1035 0.629888 31.1035H15.7903C16.0267 31.1035 16.2202 30.9099 16.2202 30.6733C16.2202 30.4366 16.0267 30.243 15.7903 30.243H1.05977V1.06051H11.5464V11.1099C11.5464 11.2486 11.6133 11.38 11.7279 11.4613C11.8402 11.5426 11.9859 11.5617 12.1172 11.5163L13.2898 11.1099L16.3849 10.0366L19.4777 11.1099L20.6503 11.5163C20.6957 11.533 20.7434 11.5402 20.7912 11.5402C20.8796 11.5402 20.9655 11.5139 21.0396 11.4613C21.1518 11.38 21.2211 11.2509 21.2211 11.1099V1.06051H31.7101V16.5553C31.7101 16.792 31.9036 16.9856 32.14 16.9856C32.3764 16.9856 32.5699 16.792 32.5699 16.5553V0.63023C32.5699 0.393577 32.3764 0.199951 32.14 0.199951ZM20.3613 10.5051L16.5259 9.17366C16.4351 9.14258 16.3348 9.14258 16.2441 9.17366L12.4086 10.5051V1.06051H20.3637V10.5051H20.3613Z" fill="white" stroke="white" stroke-width="0.4" stroke-miterlimit="10"/>
<path d="M11.8545 24.1999C11.8545 23.9633 11.6611 23.7697 11.4246 23.7697H4.95972C4.72329 23.7697 4.52985 23.9633 4.52985 24.1999C4.52985 24.4366 4.72329 24.6302 4.95972 24.6302H11.4246C11.6611 24.6302 11.8545 24.4366 11.8545 24.1999Z" fill="white" stroke="white" stroke-width="0.4" stroke-miterlimit="10"/>
<path d="M4.95734 26.7267C4.72091 26.7267 4.52747 26.9203 4.52747 27.157C4.52747 27.3936 4.72091 27.5872 4.95734 27.5872H8.57071C8.80715 27.5872 9.0006 27.3936 9.0006 27.157C9.0006 26.9203 8.80715 26.7267 8.57071 26.7267H4.95734Z" fill="white" stroke="white" stroke-width="0.4" stroke-miterlimit="10"/>
<path d="M33.7354 41.4827C33.0356 41.4827 32.3502 41.1266 31.9633 40.4835L29.9978 37.2206C29.7136 36.7497 29.63 36.1951 29.7638 35.6572C29.8975 35.1194 30.2295 34.6676 30.6999 34.3831L31.0176 34.1919C31.9944 33.6039 33.2649 33.9194 33.8524 34.8947L35.8179 38.1576C36.1021 38.6286 36.1857 39.1831 36.0519 39.721C35.9182 40.2588 35.5862 40.7106 35.1157 40.9951L34.7981 41.1863C34.4662 41.3871 34.0984 41.4827 33.7354 41.4827ZM32.0779 34.756C31.8606 34.756 31.6504 34.8134 31.4594 34.9282L31.1418 35.1194C30.8671 35.2843 30.6737 35.5497 30.5949 35.8628C30.5184 36.176 30.5662 36.5011 30.731 36.776L32.6965 40.0389C33.0404 40.6078 33.7807 40.7919 34.3515 40.4477L34.6692 40.2564C34.9438 40.0915 35.1372 39.8262 35.2137 39.513C35.2925 39.1999 35.2423 38.8748 35.0775 38.5999L33.112 35.3369C32.9472 35.062 32.6822 34.8684 32.3693 34.7919C32.2714 34.768 32.1735 34.756 32.0756 34.756H32.0779Z" fill="white" stroke="white" stroke-width="0.4" stroke-miterlimit="10"/>
<path d="M25.4984 33.7999C22.6421 33.7999 19.8527 32.3489 18.2741 29.7266C15.8763 25.7465 17.1588 20.5569 21.1351 18.1545C25.1115 15.7521 30.2963 17.0381 32.6965 21.0182C35.0943 24.9983 33.8118 30.1879 29.8354 32.5903C28.4789 33.4103 26.9791 33.7999 25.4984 33.7999ZM25.4721 17.8007C24.1132 17.8007 22.7735 18.1712 21.5793 18.8907C19.8503 19.9354 18.6299 21.5919 18.1451 23.5545C17.6603 25.517 17.9684 27.5513 19.0096 29.282C21.1638 32.8557 25.8208 34.0079 29.3912 31.8517C32.9616 29.6955 34.1127 25.0342 31.9585 21.4605C30.9149 19.7298 29.2598 18.5083 27.2991 18.023C26.6925 17.8724 26.0787 17.7983 25.4697 17.7983L25.4721 17.8007Z" fill="white" stroke="white" stroke-width="0.4" stroke-miterlimit="10"/>
<path d="M25.3981 28.1227C25.3981 28.1227 25.3886 28.1227 25.3838 28.1227C25.1497 28.1155 24.9659 27.9171 24.9754 27.6828L25.0542 25.4478L25.3838 25.3832C26.2459 25.2159 26.9839 24.7067 27.409 23.9872C27.7529 23.4063 27.8484 22.7633 27.6765 22.2231C27.4974 21.6613 27.0006 21.1402 26.3797 20.8629C25.8137 20.6095 25.2309 20.5928 24.7366 20.8151C23.9365 21.1736 23.435 22.1322 23.5186 23.1458C23.5377 23.38 23.3634 23.5832 23.1317 23.6023C22.8977 23.6262 22.6947 23.447 22.6756 23.2151C22.5609 21.8262 23.2511 20.5521 24.3927 20.0406C25.1091 19.7203 25.9378 19.737 26.726 20.0884C27.5714 20.4661 28.2305 21.1689 28.4837 21.9649C28.7297 22.737 28.6055 23.631 28.1398 24.4199C27.6478 25.2517 26.8358 25.8661 25.8781 26.1386L25.8208 27.7139C25.8137 27.9434 25.625 28.1227 25.3981 28.1227Z" fill="white" stroke="white" stroke-width="0.4" stroke-miterlimit="10"/>
<path d="M25.4912 30.5632C25.8434 30.5632 26.1289 30.2775 26.1289 29.925C26.1289 29.5725 25.8434 29.2867 25.4912 29.2867C25.1391 29.2867 24.8536 29.5725 24.8536 29.925C24.8536 30.2775 25.1391 30.5632 25.4912 30.5632Z" fill="white" stroke="white" stroke-width="0.4" stroke-miterlimit="10"/>
</svg>
