<svg width="37" height="42" viewBox="0 0 37 42" fill="none" xmlns="http://www.w3.org/2000/svg">
<path d="M20.3589 1.06055V10.5049L16.5239 9.17383C16.4332 9.14275 16.3325 9.14275 16.2417 9.17383L12.4058 10.5049H12.4038V1.06055H20.3589Z" fill="#E8FDF8"/>
<path d="M20.3589 1.06055V10.5049L16.5239 9.17383C16.4332 9.14275 16.3325 9.14275 16.2417 9.17383L12.4058 10.5049H12.4038V1.06055H20.3589Z" stroke="#0E172A"/>
<path d="M32.14 0.200012H20.7984C20.7984 0.200012 20.7936 0.200012 20.7912 0.200012H11.9763C11.9763 0.200012 11.9715 0.200012 11.9691 0.200012H0.629888C0.393455 0.200012 0.200012 0.393638 0.200012 0.630291V30.6733C0.200012 30.91 0.393455 31.1036 0.629888 31.1036H15.7903C16.0267 31.1036 16.2202 30.91 16.2202 30.6733C16.2202 30.4367 16.0267 30.243 15.7903 30.243H1.05977V1.06057H11.5464V11.11C11.5464 11.2486 11.6133 11.3801 11.7279 11.4614C11.8402 11.5426 11.9859 11.5618 12.1172 11.5163L13.2898 11.11L16.3849 10.0367L19.4777 11.11L20.6503 11.5163C20.6957 11.5331 20.7434 11.5403 20.7912 11.5403C20.8796 11.5403 20.9655 11.514 21.0396 11.4614C21.1518 11.3801 21.2211 11.251 21.2211 11.11V1.06057H31.7101V16.5554C31.7101 16.792 31.9036 16.9857 32.14 16.9857C32.3764 16.9857 32.5699 16.792 32.5699 16.5554V0.630291C32.5699 0.393638 32.3764 0.200012 32.14 0.200012ZM20.3613 10.5052L16.5259 9.17372C16.4351 9.14264 16.3348 9.14264 16.2441 9.17372L12.4086 10.5052V1.06057H20.3637V10.5052H20.3613Z" fill="#0E172A" stroke="#0E172A" stroke-width="0.4" stroke-miterlimit="10"/>
<path d="M11.8545 24.2C11.8545 23.9633 11.6611 23.7697 11.4246 23.7697H4.95972C4.72329 23.7697 4.52985 23.9633 4.52985 24.2C4.52985 24.4366 4.72329 24.6303 4.95972 24.6303H11.4246C11.6611 24.6303 11.8545 24.4366 11.8545 24.2Z" fill="#0E172A" stroke="#0E172A" stroke-width="0.4" stroke-miterlimit="10"/>
<path d="M4.95734 26.7267C4.72091 26.7267 4.52747 26.9203 4.52747 27.157C4.52747 27.3936 4.72091 27.5872 4.95734 27.5872H8.57071C8.80715 27.5872 9.0006 27.3936 9.0006 27.157C9.0006 26.9203 8.80715 26.7267 8.57071 26.7267H4.95734Z" fill="#0E172A" stroke="#0E172A" stroke-width="0.4" stroke-miterlimit="10"/>
<path d="M33.7354 41.4829C33.0356 41.4829 32.3502 41.1267 31.9633 40.4837L29.9978 37.2207C29.7136 36.7498 29.63 36.1952 29.7638 35.6574C29.8975 35.1195 30.2295 34.6677 30.6999 34.3833L31.0176 34.192C31.9944 33.604 33.2649 33.9195 33.8524 34.8948L35.8179 38.1578C36.1021 38.6287 36.1857 39.1833 36.0519 39.7211C35.9182 40.259 35.5862 40.7108 35.1157 40.9952L34.7981 41.1865C34.4662 41.3872 34.0984 41.4829 33.7354 41.4829ZM32.0779 34.7562C31.8606 34.7562 31.6504 34.8135 31.4594 34.9283L31.1418 35.1195C30.8671 35.2845 30.6737 35.5498 30.5949 35.8629C30.5184 36.1761 30.5662 36.5012 30.731 36.7761L32.6965 40.039C33.0404 40.608 33.7807 40.792 34.3515 40.4478L34.6692 40.2566C34.9438 40.0916 35.1372 39.8263 35.2137 39.5131C35.2925 39.2 35.2423 38.8749 35.0775 38.6L33.112 35.337C32.9472 35.0621 32.6822 34.8685 32.3693 34.792C32.2714 34.7681 32.1735 34.7562 32.0756 34.7562H32.0779Z" fill="#0E172A" stroke="#0E172A" stroke-width="0.4" stroke-miterlimit="10"/>
<path d="M25.4984 33.8C22.6421 33.8 19.8527 32.349 18.2741 29.7267C15.8763 25.7466 17.1588 20.557 21.1351 18.1546C25.1115 15.7522 30.2963 17.0383 32.6965 21.0183C35.0943 24.9984 33.8118 30.1881 29.8354 32.5905C28.4789 33.4104 26.9791 33.8 25.4984 33.8ZM25.4721 17.8008C24.1132 17.8008 22.7735 18.1713 21.5793 18.8909C19.8503 19.9355 18.6299 21.5921 18.1451 23.5546C17.6603 25.5172 17.9684 27.5514 19.0096 29.2821C21.1638 32.8558 25.8208 34.008 29.3912 31.8518C32.9616 29.6956 34.1127 25.0343 31.9585 21.4606C30.9149 19.7299 29.2598 18.5084 27.2991 18.0231C26.6925 17.8725 26.0787 17.7984 25.4697 17.7984L25.4721 17.8008Z" fill="#0E172A" stroke="#0E172A" stroke-width="0.4" stroke-miterlimit="10"/>
<path d="M25.3981 28.1227C25.3981 28.1227 25.3886 28.1227 25.3838 28.1227C25.1497 28.1155 24.9659 27.9171 24.9754 27.6829L25.0542 25.4478L25.3838 25.3833C26.2459 25.2159 26.9839 24.7068 27.409 23.9873C27.7529 23.4064 27.8484 22.7634 27.6765 22.2231C27.4974 21.6614 27.0006 21.1402 26.3797 20.863C25.8137 20.6096 25.2309 20.5928 24.7366 20.8151C23.9365 21.1737 23.435 22.1323 23.5186 23.1458C23.5377 23.3801 23.3634 23.5833 23.1317 23.6024C22.8977 23.6263 22.6947 23.447 22.6756 23.2151C22.5609 21.8263 23.2511 20.5522 24.3927 20.0406C25.1091 19.7203 25.9378 19.7371 26.726 20.0885C27.5714 20.4661 28.2305 21.1689 28.4837 21.9649C28.7297 22.7371 28.6055 23.6311 28.1398 24.4199C27.6478 25.2518 26.8358 25.8661 25.8781 26.1387L25.8208 27.7139C25.8137 27.9434 25.625 28.1227 25.3981 28.1227Z" fill="#0E172A" stroke="#0E172A" stroke-width="0.4" stroke-miterlimit="10"/>
<path d="M25.4912 30.5634C25.8434 30.5634 26.1289 30.2776 26.1289 29.9251C26.1289 29.5726 25.8434 29.2869 25.4912 29.2869C25.1391 29.2869 24.8536 29.5726 24.8536 29.9251C24.8536 30.2776 25.1391 30.5634 25.4912 30.5634Z" fill="#0E172A" stroke="#0E172A" stroke-width="0.4" stroke-miterlimit="10"/>
</svg>
