<svg xmlns="http://www.w3.org/2000/svg" viewBox="0 0 24 24" fill="#665CAC">
  <path d="M12.017 0C5.396 0 .029 5.367.029 11.987c0 1.846.484 3.582 1.33 5.087L.028 24l7.217-1.313a11.98 11.98 0 004.772.994h.004c6.624 0 11.99-5.367 11.99-11.987C23.991 5.367 18.625.001 12.017.001zm.002 21.33h-.003a9.33 9.33 0 01-4.77-1.297l-.346-.2-2.88.524.523-2.817-.21-.34a9.304 9.304 0 01-1.42-4.93c0-5.16 4.2-9.36 9.36-9.36 2.5 0 4.85.97 6.61 2.73a9.32 9.32 0 012.74 6.63c0 5.16-4.2 9.36-9.36 9.36zm5.09-13.95c-.27-.27-.7-.27-.97 0l-3.34 3.34-1.4-1.4c-.27-.27-.7-.27-.97 0-.27.27-.27.7 0 .97l1.88 1.88c.14.14.32.2.5.2s.36-.06.5-.2l3.84-3.84c.27-.27.27-.7 0-.97z"/>
</svg>

