<svg width="43" height="43" viewBox="0 0 43 43" fill="none" xmlns="http://www.w3.org/2000/svg">
<path d="M21.1939 33.9975C21.2154 33.9903 21.2369 33.9832 21.2584 33.976C21.2608 33.976 21.2656 33.976 21.268 33.9736L33.4813 28.0381C33.6294 27.9664 33.7225 27.8158 33.7225 27.6509V14.8119C33.7225 14.7736 33.7154 14.7377 33.7082 14.7043C33.7058 14.6947 33.7034 14.6876 33.701 14.678C33.6915 14.6493 33.6795 14.623 33.6652 14.5967C33.6628 14.5919 33.6604 14.5848 33.6556 14.58C33.6365 14.5513 33.615 14.5226 33.5888 14.4987C33.5816 14.4939 33.5768 14.4891 33.5697 14.482C33.5482 14.4628 33.5219 14.4461 33.4956 14.4318C33.4909 14.4294 33.4861 14.4246 33.4813 14.4222L21.268 8.48675C21.1486 8.42938 21.01 8.42938 20.893 8.48675L8.67969 14.4222C8.67969 14.4222 8.67013 14.4294 8.66536 14.4318C8.63909 14.4461 8.6152 14.4628 8.59132 14.482C8.58416 14.4868 8.57938 14.4915 8.57222 14.4987C8.54595 14.5226 8.52445 14.5489 8.50535 14.58C8.50296 14.5848 8.49818 14.5919 8.49579 14.5967C8.48146 14.623 8.46952 14.6493 8.45997 14.678C8.45758 14.6876 8.45519 14.6947 8.45281 14.7043C8.44325 14.7401 8.43848 14.7736 8.43848 14.8119V27.6509C8.43848 27.8158 8.53162 27.9664 8.67969 28.0381L20.893 33.9736C20.893 33.9736 20.9002 33.9736 20.9026 33.976C20.9241 33.9856 20.9456 33.9927 20.9671 33.9975C20.9742 33.9975 20.9814 34.0023 20.9885 34.0047C21.0172 34.0119 21.0483 34.0142 21.0817 34.0142C21.1151 34.0142 21.1438 34.0095 21.1748 34.0047C21.182 34.0047 21.1892 33.9999 21.1963 33.9975H21.1939ZM21.5092 32.8979V21.0174L32.8628 15.5003V27.3808L21.5092 32.8979ZM21.0793 20.2692L15.959 17.7808L27.1884 12.3234L32.3087 14.8119L21.0793 20.2692ZM21.0793 9.35448L26.2044 11.8453L14.975 17.3027L9.84991 14.8119L21.0793 9.35448ZM9.29585 15.4979L20.6494 21.015V32.8955L9.29585 27.3784V15.4979Z" fill="white" stroke="white" stroke-width="0.4" stroke-miterlimit="10"/>
<path d="M38.7806 10.0066C38.654 9.80578 38.3557 9.69666 38.1551 9.82335C37.9544 9.95005 37.8947 10.2154 38.0213 10.4162C43.1297 18.4959 41.7875 29.1285 34.8283 35.6998C30.9379 39.374 25.851 41.3078 20.5014 41.1548C15.1542 40.9994 10.1867 38.7668 6.51358 34.8704C-1.06422 26.8289 -0.694052 14.1166 7.33991 6.53172C13.5684 0.651242 22.837 -0.620471 30.4053 3.36917C32.0603 4.23929 33.5768 5.3365 34.9334 6.6369L30.8232 6.65363C30.5868 6.65363 30.3934 6.84726 30.3957 7.0863C30.3957 7.32296 30.5892 7.51419 30.8256 7.51419L35.9651 7.49268C35.9651 7.49268 35.9866 7.49268 35.9961 7.49029C36.0104 7.49029 36.0248 7.49029 36.0391 7.48551C36.0558 7.48311 36.0725 7.47833 36.0892 7.47116C36.0988 7.46877 36.1084 7.46638 36.1155 7.46399C36.137 7.45443 36.1585 7.44487 36.18 7.43292C36.1824 7.43292 36.1848 7.43052 36.1872 7.42813C36.3018 7.35642 36.3806 7.23451 36.3902 7.08869L36.7126 1.95403C36.7269 1.71738 36.5478 1.5118 36.3114 1.49746C36.0773 1.48311 35.8695 1.6624 35.8552 1.89905L35.5925 6.07754C34.162 4.69347 32.5547 3.52455 30.8017 2.60423C22.9087 -1.55513 13.2412 -0.23083 6.74524 5.90303C-1.63262 13.813 -2.01951 27.0728 5.8831 35.4584C9.71141 39.5222 14.8938 41.8481 20.4703 42.0106C20.6805 42.0178 20.8883 42.0202 21.096 42.0202C26.4432 42.0202 31.5063 40.0098 35.4134 36.3214C42.6736 29.468 44.0731 18.3763 38.7449 9.95005L38.7806 10.0066Z" fill="white" stroke="white" stroke-width="0.4" stroke-miterlimit="10"/>
</svg>
