<svg width="46" height="52" viewBox="0 0 46 52" fill="none" xmlns="http://www.w3.org/2000/svg">
<path d="M23.9505 1.18207H12.8325C11.8484 1.18207 11.0505 1.9796 11.0505 2.96342V5.41038C11.0505 6.3942 11.8484 7.19173 12.8325 7.19173H23.9505C24.9347 7.19173 25.7325 6.3942 25.7325 5.41038V2.96342C25.7325 1.9796 24.9347 1.18207 23.9505 1.18207Z" fill="#E8FDF8"/>
<path d="M45.0155 33.691C44.9746 33.6746 44.9364 33.6555 44.8954 33.6392L45.0155 33.7019C45.0155 33.7019 45.0155 33.6937 45.0155 33.6883V33.691Z" fill="#E8FDF8"/>
<path d="M34.6508 50.3178L44.2923 45.1757V34.954L34.6508 40.0962V50.3178Z" fill="#E8FDF8"/>
<path d="M38.4277 31.3013L34.1596 29.0262L24.5808 34.1356L28.849 36.4135L38.4277 31.3013Z" fill="#E8FDF8"/>
<path d="M39.473 31.8578L29.8915 36.97L34.1596 39.2478L43.7411 34.1356L39.473 31.8578Z" fill="#E8FDF8"/>
<path d="M29.3402 40.4563C29.3402 40.7264 29.1191 40.9473 28.849 40.9473C28.5788 40.9473 28.3577 40.7264 28.3577 40.4563V37.2619L24.0295 34.9513V45.1729L33.6684 50.3151V40.0935L29.3402 37.7829V40.4508V40.4563Z" fill="#E8FDF8"/>
<path d="M20.4409 43.3043C20.4409 43.0342 20.2199 42.8133 19.9497 42.8133H1.82921C1.47172 42.8133 1.18244 42.5241 1.18244 42.1722V7.14537C1.18244 6.78801 1.47172 6.49885 1.82921 6.49885H6.99791C7.26808 6.49885 7.48915 6.27789 7.48915 6.00782C7.48915 5.73775 7.26808 5.51678 6.99791 5.51678H1.82921C0.931375 5.51678 0.200012 6.24787 0.200012 7.14537V42.1722C0.200012 43.067 0.931375 43.7953 1.82921 43.7953H19.9497C20.2199 43.7953 20.4409 43.5744 20.4409 43.3043Z" fill="#0E172A" stroke="#0E172A" stroke-width="0.4" stroke-miterlimit="10"/>
<path d="M36.0918 25.9218C36.3619 25.9218 36.583 25.7009 36.583 25.4308V7.14537C36.583 6.24787 35.8516 5.51678 34.9538 5.51678H29.785C29.5149 5.51678 29.2938 5.73775 29.2938 6.00782C29.2938 6.27789 29.5149 6.49885 29.785 6.49885H34.9538C35.3113 6.49885 35.6005 6.78801 35.6005 7.14537V25.4308C35.6005 25.7009 35.8216 25.9218 36.0918 25.9218Z" fill="#0E172A" stroke="#0E172A" stroke-width="0.4" stroke-miterlimit="10"/>
<path d="M26.7176 5.41311V2.96342C26.7176 1.44123 25.4786 0.200012 23.9531 0.200012H12.8325C11.3097 0.200012 10.068 1.4385 10.068 2.96342V5.41311C10.068 6.93531 11.307 8.17652 12.8325 8.17652H23.9531C25.4759 8.17652 26.7176 6.93804 26.7176 5.41311ZM11.0532 5.41311V2.96342C11.0532 1.98136 11.8528 1.18207 12.8352 1.18207H23.9559C24.9383 1.18207 25.7379 1.98136 25.7379 2.96342V5.41311C25.7379 6.39517 24.9383 7.19446 23.9559 7.19446H12.8352C11.8528 7.19446 11.0532 6.39517 11.0532 5.41311Z" fill="#0E172A" stroke="#0E172A" stroke-width="0.4" stroke-miterlimit="10"/>
<path d="M13.5639 15.8093C13.3728 15.6183 13.0617 15.6183 12.868 15.8093L8.82088 19.8548L6.97062 18.0053C6.77959 17.8143 6.4685 17.8143 6.27474 18.0053C6.08371 18.1962 6.08371 18.5072 6.27474 18.7009L8.47156 20.8969C8.56435 20.9897 8.68716 21.0415 8.81815 21.0415C8.94914 21.0415 9.07468 20.9897 9.16474 20.8969L13.5584 16.5049C13.7494 16.314 13.7494 16.003 13.5584 15.8093H13.5639Z" fill="#0E172A" stroke="#0E172A" stroke-width="0.4" stroke-miterlimit="10"/>
<path d="M30.6501 19.3393C30.6501 19.0692 30.4291 18.8483 30.1589 18.8483H17.7529C17.4827 18.8483 17.2617 19.0692 17.2617 19.3393C17.2617 19.6094 17.4827 19.8303 17.7529 19.8303H30.1589C30.4291 19.8303 30.6501 19.6094 30.6501 19.3393Z" fill="#0E172A" stroke="#0E172A" stroke-width="0.4" stroke-miterlimit="10"/>
<path d="M12.868 28.1205L8.82088 32.1661L6.97062 30.3165C6.77959 30.1255 6.4685 30.1255 6.27474 30.3165C6.08371 30.5075 6.08371 30.8184 6.27474 31.0121L8.47156 33.2081C8.56435 33.3009 8.68716 33.3527 8.81815 33.3527C8.94914 33.3527 9.07468 33.3009 9.16474 33.2081L13.5584 28.8161C13.7494 28.6252 13.7494 28.3142 13.5584 28.1205C13.3674 27.9296 13.0563 27.9296 12.8625 28.1205H12.868Z" fill="#0E172A" stroke="#0E172A" stroke-width="0.4" stroke-miterlimit="10"/>
<path d="M17.7556 31.1594C17.4855 31.1594 17.2644 31.3804 17.2644 31.6505C17.2644 31.9205 17.4855 32.1415 17.7556 32.1415H19.9498C20.2199 32.1415 20.441 31.9205 20.441 31.6505C20.441 31.3804 20.2199 31.1594 19.9498 31.1594H17.7556Z" fill="#0E172A" stroke="#0E172A" stroke-width="0.4" stroke-miterlimit="10"/>
<path d="M45.2475 33.9856C45.2393 33.9556 45.2256 33.9283 45.212 33.901C45.2065 33.8928 45.2038 33.8847 45.1984 33.8765C45.1765 33.8437 45.1547 33.8137 45.1247 33.7865C45.1192 33.781 45.1137 33.7783 45.111 33.7755C45.0865 33.7537 45.0592 33.7319 45.0292 33.7155C45.0237 33.7128 45.021 33.7073 45.0155 33.7046L44.8954 33.6391L39.7049 30.8703L34.397 28.0387C34.2523 27.9623 34.0777 27.9623 33.9331 28.0387L23.3118 33.7073C23.3118 33.7073 23.3036 33.7155 23.2982 33.7183C23.2682 33.7346 23.2409 33.7564 23.2163 33.7783C23.2108 33.7837 23.2054 33.7865 23.2026 33.7919C23.1754 33.8192 23.1508 33.8492 23.129 33.8819C23.1235 33.8901 23.1208 33.8983 23.1153 33.9065C23.1017 33.9338 23.088 33.961 23.0798 33.9911C23.0771 34.002 23.0717 34.0101 23.0717 34.0211C23.0607 34.0592 23.0553 34.1002 23.0553 34.1411V45.4757C23.0553 45.6558 23.1563 45.8249 23.3145 45.9094L33.9358 51.5754C33.9358 51.5754 33.9467 51.5781 33.9522 51.5809C33.9767 51.5918 34.0013 51.6027 34.0286 51.6109C34.0395 51.6136 34.0477 51.6163 34.0586 51.619C34.0941 51.6272 34.1295 51.6327 34.1678 51.6327C34.206 51.6327 34.2414 51.6272 34.2769 51.619C34.2878 51.619 34.296 51.6136 34.3069 51.6109C34.3342 51.6027 34.3588 51.5945 34.3834 51.5809C34.3888 51.5809 34.3943 51.5781 34.3997 51.5754L45.021 45.9094C45.182 45.8249 45.2802 45.6585 45.2802 45.4757V34.1411C45.2802 34.1002 45.2748 34.0592 45.2639 34.0211C45.2639 34.0101 45.2584 34.002 45.2557 33.9911L45.2475 33.9856ZM34.1596 29.0262L38.4277 31.304L28.8489 36.4135L24.5808 34.1356L34.1596 29.0262ZM33.6684 50.3205L24.0295 45.1784V34.9567L28.3577 37.2673V40.4617C28.3577 40.7318 28.5788 40.9528 28.8489 40.9528C29.1191 40.9528 29.3401 40.7318 29.3401 40.4617V37.7938L33.6684 40.1044V50.326V50.3205ZM34.1596 39.2478L29.8914 36.97L39.4702 31.8605L43.7383 34.1384L34.1596 39.2478ZM44.2896 45.1784L34.6508 50.3205V40.0989L44.2896 34.9567V45.1784Z" fill="#0E172A" stroke="#0E172A" stroke-width="0.4" stroke-miterlimit="10"/>
</svg>
