<svg width="45" height="45" viewBox="0 0 45 45" fill="none" xmlns="http://www.w3.org/2000/svg">
<path d="M2.07499 39.0078L4.92954 39.406C5.49444 39.4851 6.01569 39.0896 6.09483 38.5249L7.5439 28.1369C7.58211 27.8668 7.51116 27.594 7.34469 27.3731C7.17823 27.1521 6.93535 27.0102 6.66518 26.9721L3.81066 26.5738C3.76427 26.5683 3.71514 26.5629 3.66875 26.5629C3.44497 26.5629 3.22937 26.6365 3.04653 26.7729C2.82548 26.9393 2.68358 27.1821 2.64537 27.4522L1.19626 37.8402C1.15806 38.1103 1.229 38.3831 1.39547 38.604C1.56194 38.825 1.80482 38.9668 2.07499 39.005V39.0078Z" fill="#E8FDF8"/>
<path d="M33.0927 28.2514C37.8248 28.2514 41.6755 24.4023 41.6755 19.672C41.6755 14.9418 37.8248 11.0927 33.0927 11.0927C28.3607 11.0927 24.5101 14.9418 24.5101 19.672C24.5101 24.4023 28.3607 28.2514 33.0927 28.2514Z" fill="#E8FDF8"/>
<path d="M17.7967 2.41504C16.6833 1.60212 15.3652 1.17383 13.9843 1.17383C10.4148 1.17383 7.51385 4.07636 7.51385 7.64179C7.51385 11.2072 10.4175 14.1097 13.9843 14.1097C17.5511 14.1097 20.4548 11.2072 20.4548 7.64179C20.4548 6.55607 20.1819 5.48398 19.6633 4.53739C19.5897 4.40372 19.5869 4.25095 19.6388 4.12001C19.2431 3.50349 18.7464 2.95518 18.176 2.49688C18.0478 2.52143 17.9113 2.49688 17.7967 2.41232V2.41504ZM16.2002 9.6441C16.0338 10.6507 15.035 11.3518 13.8642 11.3518C13.7059 11.3518 13.5422 11.3382 13.3785 11.3109C12.8982 11.2318 12.4533 11.0408 12.0877 10.7598C11.8721 10.5934 11.8338 10.2852 12.0003 10.0724C12.1668 9.85688 12.4752 9.81869 12.6907 9.9851C12.9282 10.1679 13.2202 10.2934 13.5395 10.3452C14.3582 10.4816 15.1332 10.086 15.2315 9.48588C15.2779 9.21036 15.1769 8.9212 14.9531 8.67295C14.6993 8.39197 14.3282 8.20102 13.9052 8.13009C13.2639 8.0237 12.688 7.7209 12.2869 7.27624C11.8584 6.80158 11.6728 6.22053 11.7683 5.64493C11.9566 4.49919 13.2229 3.75447 14.5902 3.97816C15.0705 4.05727 15.5153 4.24822 15.881 4.5292C16.0966 4.69561 16.1347 5.00386 15.9683 5.21664C15.8018 5.43215 15.4934 5.47034 15.2778 5.30394C15.0404 5.12117 14.7484 4.99568 14.4291 4.94385C13.6104 4.80745 12.8354 5.20301 12.7372 5.80315C12.6908 6.07868 12.7917 6.36784 13.0155 6.61608C13.2693 6.89706 13.6404 7.08802 14.0634 7.15894C14.7048 7.26533 15.2806 7.56813 15.6818 8.01279C16.1102 8.49018 16.2957 9.0685 16.2002 9.6441Z" fill="#E8FDF8"/>
<path d="M13.9843 15.0945C18.0942 15.0945 21.4372 11.7528 21.4372 7.64452C21.4372 6.39512 21.1206 5.15663 20.523 4.06818C20.392 3.83085 20.0945 3.74355 19.8571 3.87449C19.7534 3.93178 19.6797 4.0218 19.6388 4.12547C19.587 4.25641 19.5897 4.40917 19.6634 4.54284C20.1819 5.48944 20.4548 6.56152 20.4548 7.64724C20.4548 11.2154 17.5511 14.1152 13.9843 14.1152C10.4175 14.1152 7.51386 11.2127 7.51386 7.64724C7.51386 4.08182 10.4175 1.17928 13.9843 1.17928C15.3652 1.17928 16.6833 1.60757 17.7967 2.4205C17.9113 2.50234 18.0478 2.52962 18.176 2.50507C18.2961 2.48324 18.4053 2.41777 18.4817 2.31411C18.6427 2.09587 18.5936 1.78762 18.3753 1.6294C17.0926 0.69371 15.5753 0.199951 13.9843 0.199951C9.87443 0.199951 6.53143 3.54169 6.53143 7.64997C6.53143 11.7583 9.87443 15.1 13.9843 15.1V15.0945Z" fill="#0E172A" stroke="#0E172A" stroke-width="0.4" stroke-miterlimit="10"/>
<path d="M14.0635 7.15896C13.6405 7.08803 13.2666 6.89707 13.0155 6.61609C12.7918 6.36512 12.6908 6.07869 12.7372 5.80317C12.8354 5.20302 13.6132 4.80747 14.4291 4.94386C14.7484 4.99569 15.0432 5.12118 15.2779 5.30395C15.4934 5.47036 15.8018 5.42944 15.9683 5.21666C16.1348 5.00115 16.0938 4.69289 15.881 4.52921C15.5153 4.24824 15.0705 4.05728 14.5902 3.97817C13.2229 3.75448 11.9567 4.50194 11.7684 5.64495C11.6729 6.22054 11.8584 6.79887 12.2869 7.27626C12.688 7.72091 13.2639 8.02371 13.9052 8.1301C14.3282 8.20103 14.702 8.39199 14.9531 8.67297C15.1769 8.92394 15.2779 9.21037 15.2315 9.48589C15.1332 10.086 14.3582 10.4816 13.5395 10.3452C13.2202 10.2934 12.9255 10.1679 12.6908 9.98511C12.4752 9.8187 12.1668 9.85962 12.0003 10.0724C11.8339 10.2879 11.8748 10.5962 12.0877 10.7598C12.4534 11.0408 12.8982 11.2318 13.3785 11.3109C13.5422 11.3382 13.706 11.3518 13.8643 11.3518C15.0323 11.3518 16.0338 10.6507 16.2003 9.64411C16.2958 9.06852 16.1102 8.49019 15.6818 8.0128C15.2806 7.56815 14.7048 7.26534 14.0635 7.15896Z" fill="#0E172A" stroke="#0E172A" stroke-width="0.4" stroke-miterlimit="10"/>
<path d="M33.5299 18.7218C32.9635 18.6357 32.4629 18.4039 32.1267 18.0627C31.8271 17.7581 31.6919 17.4103 31.754 17.0758C31.8855 16.3472 32.9269 15.867 34.0195 16.0326C34.447 16.0955 34.8417 16.2478 35.1559 16.4697C35.4446 16.6718 35.8575 16.6221 36.0804 16.3638C36.3033 16.1021 36.2486 15.7279 35.9635 15.5292C35.4739 15.188 34.8783 14.9562 34.2351 14.8602C32.4044 14.5886 30.7089 15.4961 30.4567 16.8837C30.3288 17.5825 30.5773 18.2846 31.151 18.8642C31.6882 19.404 32.4592 19.7717 33.3179 19.9008C33.8843 19.9869 34.3849 20.2188 34.7211 20.5599C35.0208 20.8646 35.156 21.2123 35.0938 21.5468C34.9623 22.2754 33.9245 22.7557 32.8283 22.5901C32.4007 22.5271 32.0061 22.3748 31.6918 22.1529C31.4032 21.9509 30.9902 22.0005 30.7673 22.2589C30.5444 22.5205 30.5993 22.8947 30.8843 23.0935C31.3739 23.4346 31.9696 23.6664 32.6127 23.7625C32.8319 23.7956 33.0512 23.8121 33.2631 23.8121C34.8271 23.8121 36.1681 22.961 36.391 21.7389C36.5189 21.0401 36.2705 20.338 35.6968 19.7584C35.1596 19.2186 34.3886 18.851 33.5299 18.7218Z" fill="#0E172A" stroke="#0E172A" stroke-width="0.4" stroke-miterlimit="10"/>
<path d="M20.8968 28.7234L11.029 29.043C10.7577 29.0518 10.5449 29.279 10.5539 29.5504C10.563 29.8214 10.7899 30.0339 11.0609 30.0251L20.905 29.7055C21.1888 29.7245 21.4644 29.8009 21.7237 29.9291L28.0795 33.0936C28.6008 33.3527 28.9883 33.8001 29.1766 34.3566C29.3649 34.9131 29.3239 35.5051 29.0647 36.0261C28.8054 36.5471 28.3579 36.9345 27.8011 37.1227C27.2444 37.3082 26.6522 37.2673 26.131 37.0109L19.7752 33.8465C19.5323 33.7264 19.2376 33.8246 19.1175 34.0674C18.9974 34.3102 19.0957 34.6048 19.3385 34.7249L25.6944 37.8893C26.1365 38.1103 26.6168 38.2221 27.0998 38.2221C27.4409 38.2221 27.7821 38.1675 28.115 38.0557C28.2214 38.0202 28.3251 37.9793 28.4261 37.9329C28.4425 37.9275 28.4561 37.9248 28.4725 37.9193L39.937 33.2736C41.2442 32.7444 42.7397 33.3773 43.2691 34.684C43.5256 35.3141 43.5174 36.0097 43.25 36.6399C42.9825 37.27 42.4886 37.7583 41.8582 38.0148L30.683 42.5377C28.9637 43.2333 27.0452 43.2961 25.2823 42.715L9.53601 37.5237C9.27948 37.4392 9.00112 37.5783 8.91652 37.8375C8.83192 38.0939 8.97111 38.3721 9.23036 38.4567L24.9766 43.648C25.8745 43.9426 26.8078 44.0899 27.7411 44.0899C28.8682 44.0899 29.9953 43.8744 31.0541 43.4461L42.2293 38.9232C43.1026 38.5685 43.7876 37.8947 44.156 37.0218C44.5244 36.1489 44.5354 35.1859 44.1806 34.313C43.4465 32.5043 41.3779 31.6287 39.5686 32.3625L30.058 36.2171C30.3309 35.5242 30.3555 34.7658 30.1153 34.0483C29.8452 33.2436 29.2803 32.5943 28.5271 32.2179L22.1712 29.0535C21.7864 28.8625 21.3771 28.7534 20.9514 28.7288C20.9377 28.7288 20.9214 28.7288 20.9077 28.7288L20.8968 28.7234Z" fill="#0E172A" stroke="#0E172A" stroke-width="0.4" stroke-miterlimit="10"/>
<path d="M1.94127 39.9817L4.79582 40.38C4.8886 40.3936 4.98409 40.3991 5.07415 40.3991C6.06204 40.3991 6.92988 39.668 7.06906 38.6614L8.51817 28.2733C8.59185 27.7414 8.45266 27.2122 8.12791 26.7812C7.80316 26.3501 7.33104 26.0719 6.79889 25.9982L3.94437 25.6C3.41222 25.5263 2.88277 25.6654 2.45159 25.9901C2.0204 26.3147 1.74205 26.7866 1.66837 27.3186L0.219287 37.7066C0.145604 38.2385 0.284764 38.7678 0.609514 39.1988C0.934265 39.6298 1.40638 39.908 1.93853 39.9817H1.94127ZM1.19625 37.843L2.64537 27.455C2.68357 27.1849 2.82547 26.9421 3.04652 26.7757C3.22936 26.6393 3.44496 26.5656 3.66874 26.5656C3.71513 26.5656 3.76426 26.5684 3.81065 26.5766L6.66517 26.9748C6.93807 27.013 7.17822 27.1549 7.34469 27.3758C7.51116 27.5968 7.5821 27.8696 7.5439 28.1397L6.09482 38.5277C6.01568 39.0924 5.49444 39.4879 4.92953 39.4088L2.07498 39.0105C1.80481 38.9723 1.56193 38.8305 1.39547 38.6095C1.229 38.3886 1.15805 38.1158 1.19625 37.8457V37.843Z" fill="#0E172A" stroke="#0E172A" stroke-width="0.4" stroke-miterlimit="10"/>
<path d="M33.0928 29.2335C38.3679 29.2335 42.6579 24.9452 42.6579 19.672C42.6579 14.3989 38.3679 10.1106 33.0928 10.1106C27.8176 10.1106 23.5276 14.3989 23.5276 19.672C23.5276 24.9452 27.8176 29.2335 33.0928 29.2335ZM33.0928 11.0927C37.8248 11.0927 41.6755 14.9418 41.6755 19.672C41.6755 24.4023 37.8248 28.2514 33.0928 28.2514C28.3607 28.2514 24.5101 24.4023 24.5101 19.672C24.5101 14.9418 28.3607 11.0927 33.0928 11.0927Z" fill="#0E172A" stroke="#0E172A" stroke-width="0.4" stroke-miterlimit="10"/>
</svg>
