<svg width="57" height="46" viewBox="0 0 57 46" fill="none" xmlns="http://www.w3.org/2000/svg">
<path d="M29.0429 7.3336L35.0276 4.69022C35.1531 4.63566 35.2977 4.63566 35.426 4.69022L41.4107 7.3336V1.20117C41.4107 1.20117 41.4107 1.18752 41.4107 1.18207H29.0429V7.3336Z" fill="#E8FDF8"/>
<path d="M26.644 30.2074C25.3068 30.2074 24.218 31.2959 24.218 32.6325V41.482C24.218 42.8187 25.3068 43.9072 26.644 43.9072C27.9812 43.9072 29.0701 42.8187 29.0701 41.482V32.6325C29.0701 31.2959 27.9812 30.2074 26.644 30.2074Z" fill="#E8FDF8"/>
<path d="M51.5161 0.200012H18.9319C16.3885 0.200012 14.3199 2.27052 14.3199 4.81296V17.5315C14.3199 17.835 14.5778 18.0745 14.8779 18.0292C15.124 17.9921 15.3023 17.7763 15.3023 17.5274V4.81296C15.3023 2.81065 16.9288 1.18207 18.9319 1.18207H28.0604V8.08923C28.0604 8.25563 28.145 8.41113 28.2842 8.50115C28.4233 8.59117 28.598 8.60754 28.7508 8.53935L35.2267 5.68046L41.7026 8.53935C41.7654 8.56663 41.8336 8.58027 41.9018 8.58027C41.9946 8.58027 42.0901 8.55298 42.1693 8.50115C42.3085 8.41113 42.393 8.25563 42.393 8.08923V1.20116C42.393 1.20116 42.393 1.18752 42.393 1.18207H51.5216C53.5246 1.18207 55.1538 2.81065 55.1538 4.81296V9.2868C55.1538 9.55687 55.3749 9.77783 55.6451 9.77783C55.9152 9.77783 56.1363 9.55687 56.1363 9.2868V4.81296C56.1363 2.27052 54.065 0.200012 51.5216 0.200012H51.5161ZM41.4079 1.20116V7.3336L35.4232 4.69022C35.2977 4.63566 35.153 4.63566 35.0248 4.69022L29.0401 7.3336V1.18207H41.4079C41.4079 1.18207 41.4079 1.19571 41.4079 1.20116Z" fill="#0E172A" stroke="#0E172A" stroke-width="0.4" stroke-miterlimit="10"/>
<path d="M55.6396 13.3869C55.3694 13.3869 55.1484 13.6079 55.1484 13.8779V21.9226C55.1484 22.1927 55.3694 22.4137 55.6396 22.4137C55.9098 22.4137 56.1308 22.1927 56.1308 21.9226V13.8779C56.1308 13.6079 55.9098 13.3869 55.6396 13.3869Z" fill="#0E172A" stroke="#0E172A" stroke-width="0.4" stroke-miterlimit="10"/>
<path d="M9.60421 19.7867C9.33677 19.8276 9.15123 20.0758 9.18943 20.3432C9.22491 20.586 9.43502 20.7633 9.67517 20.7633C9.69973 20.7633 9.72429 20.7633 9.74613 20.7578C10.3056 20.676 10.8732 20.6405 11.4409 20.6541C11.7192 20.646 11.9375 20.4468 11.943 20.174C11.9484 19.904 11.7356 19.6775 11.4654 19.6721C10.8432 19.6557 10.221 19.6966 9.60421 19.7867Z" fill="#0E172A" stroke="#0E172A" stroke-width="0.4" stroke-miterlimit="10"/>
<path d="M14.1452 21.0988C14.6283 21.2461 15.1031 21.4343 15.5589 21.6553C15.6271 21.688 15.7008 21.7044 15.7718 21.7044C15.9546 21.7044 16.1292 21.6007 16.2138 21.4261C16.3312 21.1806 16.2302 20.8887 15.9846 20.7714C15.4852 20.5314 14.9612 20.3241 14.4318 20.1631C14.1726 20.084 13.8969 20.2286 13.8178 20.4877C13.7386 20.7469 13.8833 21.0224 14.1425 21.1015L14.1452 21.0988Z" fill="#0E172A" stroke="#0E172A" stroke-width="0.4" stroke-miterlimit="10"/>
<path d="M18.3889 22.3454C18.1842 22.1681 17.8731 22.19 17.6957 22.3973C17.5183 22.6019 17.5401 22.9129 17.7448 23.0902C18.6699 23.8895 19.4368 24.847 20.0181 25.9381C21.2789 28.2924 21.549 30.9985 20.774 33.5546C19.999 36.1107 18.277 38.2139 15.9218 39.4742C13.5667 40.7345 10.8596 41.0046 8.3025 40.2299C5.74543 39.4551 3.64136 37.7338 2.38056 35.3768C0.563053 31.9833 0.833211 27.9296 3.08463 24.8033C3.80236 23.8104 4.67838 22.9783 5.69357 22.31L5.52983 24.7761C5.51073 25.0461 5.71812 25.2807 5.98829 25.2971C5.9992 25.2971 6.01012 25.2971 6.02103 25.2971C6.27756 25.2971 6.49316 25.0979 6.50953 24.8388L6.73333 21.4561V21.437C6.73333 21.4343 6.73333 21.4289 6.73333 21.4261C6.73333 21.3879 6.73332 21.3525 6.72513 21.317C6.72513 21.3088 6.7224 21.2979 6.71967 21.2897C6.70876 21.2515 6.69783 21.2106 6.676 21.1752C6.676 21.1752 6.676 21.1752 6.676 21.1724C6.65689 21.137 6.63233 21.107 6.60777 21.077C6.59959 21.0688 6.59141 21.0606 6.58322 21.0524C6.55866 21.0306 6.53409 21.0088 6.5068 20.9924C6.50134 20.9897 6.4959 20.9842 6.49044 20.9787L3.53492 19.2792C3.30023 19.1456 3.00005 19.2247 2.8636 19.4593C2.72715 19.6939 2.80903 19.994 3.04372 20.1304L5.27056 21.4098C4.10528 22.1545 3.10103 23.0956 2.28779 24.225C-0.187411 27.6595 -0.482134 32.1088 1.51276 35.8379C2.89909 38.424 5.20781 40.3172 8.01594 41.1655C9.06933 41.4847 10.1418 41.6402 11.2116 41.6402C12.9963 41.6402 14.7648 41.201 16.3831 40.3335C18.9701 38.9477 20.864 36.6399 21.7128 33.8328C22.5615 31.0258 22.2668 28.055 20.8832 25.4689C20.2418 24.2741 19.4013 23.2211 18.3861 22.3427L18.3889 22.3454Z" fill="#0E172A" stroke="#0E172A" stroke-width="0.4" stroke-miterlimit="10"/>
<path d="M11.2007 35.0768C9.76802 35.0768 8.60273 34.1902 8.60273 33.1018C8.60273 32.8317 8.38167 32.6108 8.1115 32.6108C7.84133 32.6108 7.6203 32.8317 7.6203 33.1018C7.6203 34.594 8.96841 35.827 10.7095 36.0261V36.8745C10.7095 37.1446 10.9306 37.3656 11.2007 37.3656C11.4709 37.3656 11.6919 37.1446 11.6919 36.8745V36.0261C13.433 35.827 14.7812 34.594 14.7812 33.1018C14.7812 31.4705 13.1738 30.1447 11.2007 30.1447C9.76802 30.1447 8.60273 29.2581 8.60273 28.1697C8.60273 27.0812 9.76802 26.1946 11.2007 26.1946C12.6335 26.1946 13.7987 27.0812 13.7987 28.1697C13.7987 28.4397 14.0198 28.6607 14.2899 28.6607C14.5601 28.6607 14.7812 28.4397 14.7812 28.1697C14.7812 26.6775 13.433 25.4444 11.6919 25.2453V24.3969C11.6919 24.1268 11.4709 23.9059 11.2007 23.9059C10.9306 23.9059 10.7095 24.1268 10.7095 24.3969V25.2453C8.96841 25.4444 7.6203 26.6775 7.6203 28.1697C7.6203 29.801 9.22495 31.1267 11.2007 31.1267C12.6335 31.1267 13.7987 32.0133 13.7987 33.1018C13.7987 34.1902 12.6335 35.0768 11.2007 35.0768Z" fill="#0E172A" stroke="#0E172A" stroke-width="0.4" stroke-miterlimit="10"/>
<path d="M47.7446 29.5145H42.1966C43.441 27.8886 43.5747 25.709 43.5911 25.2344C43.5911 25.2207 43.5938 25.1743 43.5938 22.6401C43.5938 21.879 43.2964 21.1615 42.7533 20.6214C42.213 20.0785 41.4952 19.7812 40.7339 19.7812C39.1565 19.7812 37.8739 21.0633 37.8739 22.6401V23.8158C37.8739 24.7024 37.6364 25.5726 37.1889 26.3337C36.9624 26.7183 36.7058 27.1221 36.422 27.534C35.6634 28.6361 34.872 29.359 33.8513 29.8719C32.7133 30.4447 32.0065 31.5877 32.0065 32.8562V41.4929C32.0065 43.3343 33.5047 44.8319 35.3468 44.8319H45.7006C47.3134 44.8319 48.5442 43.7735 48.9208 42.0521C48.9863 41.6702 50.5582 32.7253 50.6019 32.447C50.7111 31.7514 50.5173 31.0722 50.0588 30.5375C49.513 29.8991 48.6479 29.5172 47.7474 29.5172L47.7446 29.5145ZM49.6904 32.3025C49.6576 32.518 48.577 38.6668 48.0148 41.8721C47.7364 43.1488 46.8713 43.9099 45.6979 43.9099H35.3441C34.0096 43.9099 32.9235 42.8241 32.9235 41.4902V32.8535C32.9235 31.9369 33.4365 31.1076 34.2634 30.6902C35.4287 30.1037 36.3292 29.2881 37.178 28.0496C37.4727 27.6213 37.7429 27.1985 37.9803 26.7947C38.5097 25.8918 38.7908 24.8606 38.7908 23.8131V22.6373C38.7908 21.568 39.6614 20.6978 40.7311 20.6978C41.2469 20.6978 41.7327 20.8996 42.1011 21.2679C42.4695 21.6362 42.6714 22.1218 42.6714 22.6373C42.6714 23.6194 42.6714 25.1116 42.6714 25.1962C42.6632 25.5044 42.5322 28.2433 40.8266 29.6154C40.6738 29.7382 40.6165 29.9428 40.682 30.1256C40.7475 30.3083 40.9222 30.4338 41.1159 30.4338H47.7446C48.3696 30.4338 48.9891 30.7012 49.3575 31.1322C49.5567 31.364 49.775 31.7541 49.6904 32.3025Z" fill="#0E172A" stroke="#0E172A" stroke-width="0.4" stroke-miterlimit="10"/>
<path d="M26.6441 29.2881C24.7993 29.2881 23.2983 30.7885 23.2983 32.6353V41.4847C23.2983 43.3288 24.7993 44.8319 26.6441 44.8319C28.4889 44.8319 29.9898 43.3316 29.9898 41.4847V32.6353C29.9898 30.7912 28.4889 29.2881 26.6441 29.2881ZM29.0702 41.4847C29.0702 42.8214 27.9813 43.9099 26.6441 43.9099C25.3069 43.9099 24.218 42.8214 24.218 41.4847V32.6353C24.218 31.2986 25.3069 30.2101 26.6441 30.2101C27.9813 30.2101 29.0702 31.2986 29.0702 32.6353V41.4847Z" fill="#0E172A" stroke="#0E172A" stroke-width="0.4" stroke-miterlimit="10"/>
</svg>
