<svg width="43" height="44" viewBox="0 0 43 44" fill="none" xmlns="http://www.w3.org/2000/svg">
<path d="M35.5624 25.068C34.5499 24.6861 33.4829 24.4924 32.3913 24.4924C30.9722 24.4924 29.6159 24.8143 28.3606 25.4444C28.2841 25.4826 28.205 25.499 28.1259 25.499C27.9348 25.499 27.7493 25.3926 27.6592 25.2126C27.6565 25.2044 27.6538 25.1962 27.651 25.188C27.1762 25.469 26.7259 25.7882 26.3056 26.1428C26.3056 26.1428 26.3084 26.1455 26.3111 26.1482C26.5076 26.361 26.4939 26.6911 26.2838 26.8875C26.0628 27.0921 25.8526 27.3103 25.6534 27.534C25.5497 27.6513 25.4051 27.7114 25.2604 27.7114C25.1404 27.7114 25.023 27.6704 24.9248 27.5886C24.6764 27.9078 24.4499 28.2433 24.2425 28.5952C24.4827 28.7371 24.5727 29.0399 24.4417 29.2881C24.3162 29.5254 24.1988 29.7737 24.0951 30.0219C24.0105 30.2238 23.8168 30.3438 23.6121 30.3438C23.5575 30.3438 23.5029 30.3329 23.4484 30.3138C23.1618 31.1486 22.9844 32.0324 22.938 32.9545C23.2 32.9817 23.4074 33.2027 23.4074 33.47C23.4074 38.4213 27.4382 42.4504 32.3913 42.4504C37.3444 42.4504 41.3751 38.4213 41.3751 33.47C41.3751 32.6244 41.2578 31.7869 41.0258 30.9794C40.9467 30.7012 41.105 30.412 41.3833 30.3329C41.4297 30.3193 41.4734 30.3165 41.5198 30.3138C41.1623 29.2799 40.6356 28.3251 39.967 27.4877L32.1375 38.0257C32.042 38.1539 31.8946 38.2303 31.7363 38.2358C31.7309 38.2358 31.7227 38.2358 31.7172 38.2358C31.5644 38.2358 31.4198 38.1703 31.3215 38.053L25.6425 31.4514C25.4542 31.2331 25.4787 30.903 25.6971 30.7148C25.9154 30.5266 26.2456 30.5511 26.4339 30.7694L31.6845 36.8745L39.2547 26.6856C38.4033 25.8291 37.3881 25.1334 36.261 24.6479C36.2555 24.6833 36.2474 24.7215 36.2337 24.757C36.1327 25.027 35.8298 25.1634 35.5596 25.0625L35.5624 25.068Z" fill="#E8FDF8"/>
<path d="M32.3912 21.1643C32.6805 21.1643 32.9152 20.9297 32.9152 20.6432V3.2444C32.9152 1.56671 31.548 0.200012 29.8696 0.200012H3.24557C1.56724 0.200012 0.200012 1.56671 0.200012 3.2444V40.4536C0.200012 42.134 1.56724 43.498 3.24557 43.498H23.7785C24.0678 43.498 24.3025 43.2634 24.3025 42.9769C24.3025 42.6905 24.0678 42.4559 23.7785 42.4559H3.24557C2.14306 42.4559 1.24522 41.5584 1.24522 40.4563V3.24712C1.24522 2.14503 2.14306 1.24754 3.24557 1.24754H29.8696C30.9722 1.24754 31.87 2.14503 31.87 3.24712V20.646C31.87 20.9351 32.0654 21.1643 32.3547 21.1643L32.3912 21.1643Z" fill="#0E172A" stroke="#0E172A" stroke-width="0.4" stroke-miterlimit="10"/>
<path d="M25.4705 10.6044H21.478C21.1887 10.6044 20.954 10.839 20.954 11.1254C20.954 11.4118 21.1887 11.6464 21.478 11.6464H25.4705C25.7598 11.6464 25.9945 11.4118 25.9945 11.1254C25.9945 10.839 25.7598 10.6044 25.4705 10.6044Z" fill="#0E172A" stroke="#0E172A" stroke-width="0.4" stroke-miterlimit="10"/>
<path d="M16.7677 10.6044H7.63922C7.34995 10.6044 7.11798 10.839 7.11798 11.1254C7.11798 11.4118 7.35268 11.6464 7.63922 11.6464H16.7677C17.057 11.6464 17.2917 11.4118 17.2917 11.1254C17.2917 10.839 17.057 10.6044 16.7677 10.6044Z" fill="#0E172A" stroke="#0E172A" stroke-width="0.4" stroke-miterlimit="10"/>
<path d="M25.9944 18.2726C25.9944 17.9835 25.7597 17.7516 25.4705 17.7516H21.7508C21.4616 17.7516 21.2269 17.9862 21.2269 18.2726C21.2269 18.5591 21.4616 18.7937 21.7508 18.7937H25.4705C25.7597 18.7937 25.9944 18.5591 25.9944 18.2726Z" fill="#0E172A" stroke="#0E172A" stroke-width="0.4" stroke-miterlimit="10"/>
<path d="M14.9448 18.2726C14.9448 18.5618 15.1795 18.7937 15.4687 18.7937H18.0667C18.356 18.7937 18.5907 18.5591 18.5907 18.2726C18.5907 17.9862 18.356 17.7516 18.0667 17.7516H15.4687C15.1795 17.7516 14.9448 17.9862 14.9448 18.2726Z" fill="#0E172A" stroke="#0E172A" stroke-width="0.4" stroke-miterlimit="10"/>
<path d="M7.63653 18.7964H12.052C12.3413 18.7964 12.576 18.5618 12.576 18.2754C12.576 17.9889 12.3413 17.7543 12.052 17.7543H7.63653C7.34725 17.7543 7.1153 17.9889 7.1153 18.2754C7.1153 18.5618 7.34998 18.7964 7.63653 18.7964Z" fill="#0E172A" stroke="#0E172A" stroke-width="0.4" stroke-miterlimit="10"/>
<path d="M22.9271 25.4226C22.9271 25.1334 22.6924 24.9016 22.4032 24.9016H7.63657C7.3473 24.9016 7.11261 25.1362 7.11261 25.4226C7.11261 25.709 7.3473 25.9436 7.63657 25.9436H22.4032C22.6924 25.9436 22.9271 25.709 22.9271 25.4226Z" fill="#0E172A" stroke="#0E172A" stroke-width="0.4" stroke-miterlimit="10"/>
<path d="M7.63657 32.046C7.3473 32.046 7.11261 32.2806 7.11261 32.5671C7.11261 32.8535 7.3473 33.0881 7.63657 33.0881H19.5868C19.8761 33.0881 20.1108 32.8535 20.1108 32.5671C20.1108 32.2806 19.8761 32.046 19.5868 32.046H7.63657Z" fill="#0E172A" stroke="#0E172A" stroke-width="0.4" stroke-miterlimit="10"/>
<path d="M35.9281 24.0886C34.7983 23.6631 33.6084 23.4476 32.3885 23.4476C30.8057 23.4476 29.2911 23.8049 27.8884 24.5115C27.6374 24.637 27.5364 24.937 27.6483 25.188C27.651 25.1962 27.6537 25.2044 27.6565 25.2126C27.7493 25.3953 27.9321 25.499 28.1231 25.499C28.2023 25.499 28.2814 25.4799 28.3578 25.4444C29.6159 24.8115 30.9722 24.4924 32.3885 24.4924C33.4801 24.4924 34.5499 24.6861 35.5596 25.068C35.8298 25.1689 36.1327 25.0352 36.2337 24.7624C36.2473 24.727 36.2555 24.6888 36.261 24.6533C36.2965 24.416 36.1627 24.1787 35.9281 24.0886Z" fill="#0E172A" stroke="#0E172A" stroke-width="0.4" stroke-miterlimit="10"/>
<path d="M25.6506 27.5367C25.8498 27.3103 26.0627 27.092 26.281 26.8902C26.4939 26.6938 26.5048 26.3637 26.3083 26.1509C26.3083 26.1509 26.3056 26.1482 26.3029 26.1454C26.1064 25.9381 25.7789 25.9299 25.5688 26.1236C25.3231 26.35 25.0857 26.5928 24.8647 26.8465C24.6736 27.062 24.6955 27.3921 24.9111 27.5831C24.9138 27.5858 24.9193 27.5885 24.922 27.5913C25.0202 27.6731 25.1376 27.714 25.2576 27.714C25.4023 27.714 25.5469 27.654 25.6506 27.5367Z" fill="#0E172A" stroke="#0E172A" stroke-width="0.4" stroke-miterlimit="10"/>
<path d="M24.0951 30.0219C24.1988 29.7736 24.3135 29.5281 24.4417 29.2881C24.5727 29.0398 24.4827 28.7343 24.2425 28.5952C24.237 28.5924 24.2316 28.587 24.2234 28.5815C23.9669 28.4479 23.653 28.5433 23.5166 28.7998C23.3747 29.0671 23.2464 29.3426 23.1291 29.6209C23.0172 29.8882 23.1455 30.1937 23.4102 30.3029C23.4238 30.3083 23.4347 30.311 23.4484 30.3138C23.5029 30.3329 23.5575 30.3438 23.6121 30.3438C23.8168 30.3438 24.0105 30.2238 24.0951 30.0219Z" fill="#0E172A" stroke="#0E172A" stroke-width="0.4" stroke-miterlimit="10"/>
<path d="M41.023 30.9821C41.255 31.7869 41.3723 32.6243 41.3723 33.4727C41.3723 38.424 37.3416 42.4531 32.3885 42.4531C27.4354 42.4531 23.4046 38.424 23.4046 33.4727C23.4046 33.2027 23.2 32.9844 22.9352 32.9572C22.9161 32.9572 22.8998 32.9517 22.8807 32.9517C22.5914 32.9517 22.3594 33.1863 22.3594 33.4727C22.3594 38.9996 26.8568 43.4979 32.3885 43.4979C37.9202 43.4979 42.4175 39.0023 42.4175 33.4727C42.4175 32.5289 42.2866 31.5932 42.0273 30.693C41.9591 30.4611 41.7462 30.3138 41.517 30.3165C41.4706 30.3165 41.4269 30.322 41.3805 30.3356C41.1022 30.4147 40.9439 30.7039 41.023 30.9821Z" fill="#0E172A" stroke="#0E172A" stroke-width="0.4" stroke-miterlimit="10"/>
<path d="M26.4365 30.7775C26.2482 30.5593 25.918 30.5347 25.6997 30.723C25.4814 30.9112 25.4568 31.2413 25.6451 31.4595L31.3242 38.0611C31.4251 38.1757 31.5698 38.2439 31.7199 38.2439C31.7253 38.2439 31.7335 38.2439 31.739 38.2439C31.8973 38.2384 32.0446 38.1621 32.1401 38.0339L39.9696 27.4958L41.6043 25.2943C41.7762 25.0625 41.7271 24.7351 41.4951 24.5633C41.2632 24.3914 40.9357 24.4405 40.7638 24.6724L39.2601 26.6965L31.6899 36.8854L26.4393 30.7802L26.4365 30.7775Z" fill="#0E172A" stroke="#0E172A" stroke-width="0.4" stroke-miterlimit="10"/>
</svg>
