<svg width="47" height="50" viewBox="0 0 47 50" fill="none" xmlns="http://www.w3.org/2000/svg">
<path d="M28.175 41.7794L27.3672 43.7844C27.3317 43.8744 27.3317 43.9754 27.3699 44.0681C27.4082 44.1609 27.4791 44.2291 27.5719 44.2673L36.4657 47.8491C36.654 47.9254 36.8696 47.8354 36.946 47.6445L37.7538 45.6394C37.7892 45.5494 37.7892 45.4485 37.751 45.3584C37.7128 45.2657 37.6419 45.1975 37.5491 45.1593L28.6553 41.5775C28.6116 41.5611 28.5652 41.5502 28.5188 41.5502C28.4697 41.5502 28.4206 41.5611 28.3715 41.5802C28.2787 41.6184 28.2105 41.6894 28.1723 41.7821L28.175 41.7794Z" fill="#E8FDF8"/>
<path d="M18.8145 41.7794C18.779 41.6894 18.7081 41.6185 18.6153 41.5776C18.5689 41.5585 18.517 41.5475 18.4679 41.5475C18.4215 41.5475 18.3751 41.5557 18.3315 41.5748L9.43769 45.1566C9.34763 45.1921 9.27668 45.263 9.23575 45.3558C9.19754 45.4485 9.19481 45.5467 9.23301 45.6367L10.0408 47.6418C10.1172 47.83 10.3328 47.9228 10.5211 47.8464L19.4149 44.2646C19.5049 44.2291 19.5759 44.1582 19.6168 44.0654C19.655 43.9727 19.6578 43.8745 19.6196 43.7817L18.8118 41.7767L18.8145 41.7794Z" fill="#E8FDF8"/>
<path d="M45.2803 14.8164C45.0401 13.1114 43.4573 11.922 41.749 12.1621C40.9248 12.2794 40.1935 12.7104 39.6913 13.3788C39.1892 14.0471 38.9763 14.8682 39.0909 15.6921L40.3108 24.3124C39.1346 23.5649 37.5545 23.8268 36.6103 24.9316L33.5784 28.4834C32.7106 29.5009 32.102 30.7285 31.8209 32.0352L30.2572 39.2833C30.1999 39.5479 30.3691 39.8098 30.6338 39.8671C30.6693 39.8753 30.7047 39.878 30.7375 39.878C30.964 39.878 31.1659 39.7198 31.2178 39.4907L32.7815 32.2425C33.0298 31.094 33.5647 30.0138 34.3261 29.119L37.358 25.5672C37.983 24.8361 39.0637 24.6561 39.8169 25.158C40.5319 25.6354 40.8157 26.5629 40.4936 27.3622C40.42 27.5422 40.319 27.7087 40.1907 27.8587L36.2091 32.518C36.0317 32.7254 36.0563 33.0336 36.2637 33.2109C36.4684 33.3855 36.7795 33.3637 36.9569 33.1564L40.9385 28.497C41.135 28.2679 41.2933 28.0087 41.4051 27.7278C41.6071 27.2258 41.6508 26.6939 41.5607 26.1865C41.5607 26.1646 41.5607 26.1428 41.5607 26.121L40.0652 15.5502C39.9861 14.9855 40.1307 14.4236 40.4773 13.9653C40.8211 13.507 41.3233 13.2096 41.8854 13.1305C43.0562 12.9641 44.1396 13.7825 44.3061 14.95L45.7388 25.1007C45.9735 26.7675 45.6078 28.4725 44.7072 29.8965L37.1452 41.8667C37.0005 42.0958 37.0688 42.3987 37.298 42.5432C37.3799 42.5951 37.4699 42.6196 37.56 42.6196C37.7237 42.6196 37.882 42.5378 37.9748 42.3905L45.5368 30.4202C46.5602 28.7998 46.9777 26.8603 46.7103 24.9616L45.2776 14.8109L45.2803 14.8164Z" fill="#0E172A" stroke="#0E172A" stroke-width="0.4" stroke-miterlimit="10"/>
<path d="M27.9867 40.6746C27.6538 40.8164 27.3972 41.0783 27.2608 41.4111L26.453 43.4162C26.3193 43.749 26.322 44.1172 26.4639 44.4501C26.6058 44.7829 26.8678 45.0393 27.2007 45.1757L36.0945 48.7575C36.2583 48.823 36.4302 48.8557 36.5967 48.8557C37.1316 48.8557 37.6392 48.5365 37.852 48.01L38.6598 46.005C38.9382 45.3148 38.6025 44.5237 37.912 44.2455L29.0183 40.6637C28.6853 40.53 28.3169 40.5327 27.984 40.6746H27.9867ZM28.6526 41.5748L37.5464 45.1566C37.6364 45.1921 37.7074 45.263 37.7483 45.3557C37.7865 45.4485 37.7893 45.5467 37.751 45.6367L36.9433 47.6417C36.8668 47.83 36.6513 47.9227 36.463 47.8463L27.5692 44.2646C27.4791 44.2291 27.4082 44.1582 27.3672 44.0654C27.329 43.9727 27.3263 43.8745 27.3645 43.7817L28.1723 41.7767C28.2078 41.6866 28.2787 41.6157 28.3715 41.5748C28.4179 41.5557 28.467 41.5448 28.5189 41.5448C28.5652 41.5448 28.6116 41.553 28.6553 41.5721L28.6526 41.5748Z" fill="#0E172A" stroke="#0E172A" stroke-width="0.4" stroke-miterlimit="10"/>
<path d="M9.00926 42.3959C9.10204 42.5432 9.26306 42.625 9.42407 42.625C9.51412 42.625 9.60417 42.6005 9.68604 42.5487C9.91528 42.4041 9.9835 42.1013 9.83886 41.8721L2.27683 29.9019C1.37626 28.4779 1.01057 26.7729 1.24799 25.1062L2.68072 14.9555C2.75986 14.3935 3.05732 13.8916 3.51579 13.5479C3.97426 13.2041 4.53916 13.0568 5.10133 13.1359C5.66351 13.2151 6.16565 13.5124 6.5095 13.9707C6.85336 14.429 7.00071 14.9909 6.92157 15.5556L5.42608 26.1264C5.42336 26.1482 5.42608 26.1701 5.42608 26.1919C5.33603 26.6966 5.37969 27.2285 5.58164 27.7305C5.69353 28.0114 5.85182 28.2706 6.0483 28.497L10.0299 33.1563C10.2073 33.3637 10.5157 33.3882 10.7231 33.2109C10.9305 33.0336 10.955 32.7253 10.7776 32.518L6.79604 27.8559C6.66778 27.7086 6.5668 27.5422 6.49585 27.3595C6.17382 26.5602 6.45765 25.6327 7.17265 25.1553C7.92858 24.6533 9.00653 24.8334 9.63147 25.5645L12.6634 29.1163C13.4275 30.011 13.9596 31.0913 14.208 32.2397L15.7717 39.4879C15.8208 39.7171 16.0255 39.8753 16.252 39.8753C16.2875 39.8753 16.3202 39.8725 16.3557 39.8644C16.6204 39.8071 16.7896 39.5452 16.7323 39.2806L15.1686 32.0324C14.8875 30.7257 14.2789 29.4982 13.4111 28.4806L10.3792 24.9289C9.43498 23.8213 7.8549 23.5622 6.6787 24.3096L7.89855 15.6893C8.0159 14.8655 7.80304 14.0443 7.3009 13.376C6.79877 12.7077 6.0674 12.2766 5.24325 12.1593C3.5349 11.9193 1.95208 13.1087 1.71193 14.8136L0.279204 24.9643C0.0117629 26.863 0.426564 28.7998 1.44994 30.4229L9.01199 42.3932L9.00926 42.3959Z" fill="#0E172A" stroke="#0E172A" stroke-width="0.4" stroke-miterlimit="10"/>
<path d="M19.0001 40.6746C18.6672 40.5327 18.2988 40.53 17.9658 40.6637L9.07202 44.2455C8.73908 44.3791 8.47711 44.6383 8.33521 44.9711C8.1933 45.3039 8.19056 45.6722 8.32428 46.005L9.13207 48.01C9.34493 48.5365 9.85252 48.8557 10.3874 48.8557C10.5566 48.8557 10.7258 48.823 10.8895 48.7575L19.7833 45.1757C20.4738 44.8974 20.8094 44.1091 20.5311 43.4162L19.7233 41.4111C19.5896 41.0783 19.3303 40.8164 18.9974 40.6746H19.0001ZM19.6196 44.0654C19.5814 44.1582 19.5104 44.2264 19.4176 44.2646L10.5238 47.8463C10.3355 47.9227 10.12 47.83 10.0435 47.6417L9.23577 45.6367C9.20029 45.5467 9.2003 45.4457 9.2385 45.3557C9.27671 45.263 9.34766 45.1948 9.44045 45.1566L18.3342 41.5748C18.3779 41.5584 18.4243 41.5475 18.4707 41.5475C18.5198 41.5475 18.5689 41.5584 18.6181 41.5775C18.7108 41.6157 18.7791 41.6866 18.8173 41.7794L19.6251 43.7844C19.6605 43.8745 19.6605 43.9754 19.6223 44.0681L19.6196 44.0654Z" fill="#0E172A" stroke="#0E172A" stroke-width="0.4" stroke-miterlimit="10"/>
<path d="M39.0855 10.1543C39.222 10.3889 39.5221 10.468 39.7568 10.3316C39.9915 10.1952 40.0707 9.89513 39.9342 9.66053C39.5112 8.93489 39.0473 8.24472 38.5561 7.61184C34.9238 2.90067 29.4358 0.200012 23.4948 0.200012C17.5538 0.200012 12.0657 2.90067 8.43618 7.61184C7.93132 8.26382 7.46466 8.95399 7.05531 9.66326C6.91886 9.89786 7.00073 10.1979 7.23542 10.3343C7.31183 10.378 7.39644 10.3998 7.48104 10.3998C7.65023 10.3998 7.8167 10.3125 7.90676 10.1543C8.23424 9.58687 8.59719 9.03583 8.99289 8.5066C11.1543 9.36045 13.5258 10.007 16.0392 10.4325C15.4633 12.975 15.144 15.812 15.1113 18.7091H10.4666C10.1964 18.7091 9.97532 18.9301 9.97532 19.2002C9.97532 19.4702 10.1964 19.6912 10.4666 19.6912H15.1113C15.1468 22.7792 15.5015 25.8018 16.1483 28.4615C16.1483 28.4615 16.1565 28.4779 16.1592 28.4861C16.2138 28.7071 16.4103 28.8625 16.6341 28.8625C16.6586 28.8625 16.6859 28.8625 16.7132 28.8571C16.806 28.8407 16.9015 28.8271 17.0107 28.8134C21.2051 28.186 25.7789 28.186 29.9952 28.8134C30.0908 28.8243 30.1835 28.8407 30.2791 28.8571C30.29 28.8571 30.2981 28.8571 30.3091 28.8571C30.3254 28.8571 30.3418 28.8625 30.3582 28.8625C30.3636 28.8625 30.3664 28.8625 30.3691 28.8625C30.38 28.8625 30.3909 28.8625 30.4019 28.8598C30.4237 28.8598 30.4455 28.8544 30.4646 28.8516C30.4728 28.8516 30.4783 28.8462 30.4865 28.8462C30.511 28.838 30.5356 28.8325 30.5574 28.8216C30.5601 28.8216 30.5629 28.8189 30.5656 28.8162C30.6147 28.7916 30.6611 28.7616 30.702 28.7234C30.7484 28.677 30.7812 28.6198 30.8057 28.5597C30.8057 28.557 30.8085 28.5516 30.8112 28.5488C30.8139 28.5406 30.8194 28.5352 30.8221 28.527C30.8303 28.5079 30.8358 28.4888 30.8412 28.467C31.4907 25.7936 31.8428 22.771 31.8782 19.6966H36.5203C36.7904 19.6966 37.0115 19.4757 37.0115 19.2056C37.0115 18.9355 36.7904 18.7146 36.5203 18.7146H31.8782C31.8455 15.8148 31.5262 12.975 30.9504 10.438C33.4665 10.0124 35.838 9.36591 37.9994 8.51206C38.3842 9.03037 38.7499 9.58141 39.0855 10.1597V10.1543ZM23.4948 1.17934C23.4948 1.17934 23.4948 1.17934 23.4975 1.17934C26 1.17934 28.3769 4.4065 29.7469 9.62506C27.7356 9.9115 25.6398 10.0615 23.492 10.0615C21.3443 10.0615 19.2512 9.9115 17.2399 9.62506C18.6126 4.40377 20.9896 1.17934 23.492 1.17934H23.4948ZM9.62875 7.69913C12.4151 4.3383 16.2302 2.14503 20.4574 1.43304C18.7163 2.9225 17.2427 5.70228 16.2657 9.4723C13.9024 9.07675 11.67 8.48205 9.62875 7.69913ZM29.9789 27.8205C25.7762 27.2067 21.1942 27.2094 17.0107 27.8205C16.4403 25.3353 16.1265 22.5446 16.0937 19.6912H30.8958C30.8631 22.5337 30.5492 25.3217 29.9789 27.8205ZM16.0937 18.7091C16.1265 15.8611 16.4403 13.0759 17.0107 10.5853C19.0956 10.8881 21.2679 11.0463 23.492 11.0463C25.7162 11.0463 27.8912 10.8881 29.9761 10.5853C30.5465 13.0732 30.8603 15.8584 30.8931 18.7091H16.091H16.0937ZM30.7239 9.47503C29.7469 5.70501 28.2732 2.92523 26.5321 1.43577C30.7594 2.14777 34.5772 4.34103 37.3635 7.70186C35.3222 8.48479 33.0899 9.07948 30.7239 9.47503Z" fill="#0E172A" stroke="#0E172A" stroke-width="0.4" stroke-miterlimit="10"/>
</svg>
