<svg width="52" height="48" viewBox="0 0 52 48" fill="none" xmlns="http://www.w3.org/2000/svg">
<path d="M42.3724 24.1541C42.0013 28.1015 42.0286 32.6872 42.4407 35.3033C42.5389 35.9225 42.8745 36.4326 43.333 36.7436C43.3467 36.7518 43.3603 36.76 43.374 36.7709C43.7315 36.9973 44.1572 37.1064 44.602 37.0492C48.9111 36.4927 50.4093 34.7222 50.1364 30.5212C50.0927 29.831 50.0736 29.1463 50.06 28.4834C49.9563 24.206 49.8772 20.826 42.6044 19.8385C42.5907 19.8385 42.5798 19.8331 42.5662 19.8303C42.5471 19.8276 42.5307 19.8222 42.5116 19.8167C42.5116 19.8167 42.5089 19.8167 42.5061 19.8167C42.2796 21.0116 42.0831 22.2828 41.933 23.6222C42.2032 23.6495 42.3997 23.8868 42.3751 24.1569L42.3724 24.1541ZM44.9431 28.6307C44.9486 28.3634 45.1669 28.1506 45.4343 28.1506C45.4371 28.1506 45.4425 28.1506 45.4453 28.1506C45.7154 28.156 45.931 28.3797 45.9256 28.6525C45.8901 30.3575 45.9256 31.9452 46.032 33.2382C46.0538 33.5083 45.8519 33.7456 45.5817 33.7674C45.5681 33.7674 45.5544 33.7674 45.5408 33.7674C45.287 33.7674 45.0714 33.5737 45.0523 33.3173C44.9431 31.9888 44.9077 30.3684 44.9431 28.6307Z" fill="#E8FDF8"/>
<path d="M45.5381 33.7701C45.5381 33.7701 45.5654 33.7701 45.5791 33.7701C45.8493 33.7483 46.0512 33.5109 46.0294 33.2409C45.9229 31.9451 45.8875 30.3602 45.9229 28.6552C45.9284 28.3851 45.7128 28.1587 45.4426 28.1533C45.4399 28.1533 45.4344 28.1533 45.4317 28.1533C45.1643 28.1533 44.946 28.366 44.9405 28.6334C44.9023 30.3711 44.9405 31.9915 45.0497 33.32C45.0715 33.5764 45.2844 33.7701 45.5381 33.7701Z" fill="#0E172A" stroke="#0E172A" stroke-width="0.4" stroke-miterlimit="10"/>
<path d="M17.596 16.6222C16.7363 16.6222 16.035 17.3233 16.035 18.1826C16.035 19.0419 16.7363 19.743 17.596 19.743C18.1663 19.743 18.6903 19.432 18.9659 18.9301C19.086 18.7091 19.3507 18.6218 19.5772 18.7118C19.6236 18.5427 19.6509 18.3654 19.6509 18.1826C19.6509 17.2251 18.9768 16.4231 18.079 16.2267C18.0353 16.4531 17.8361 16.625 17.596 16.625V16.6222Z" fill="#E8FDF8"/>
<path d="M25.671 16.6223C24.8114 16.6223 24.11 17.3233 24.11 18.1826C24.11 19.0419 24.8114 19.743 25.671 19.743C26.2987 19.743 26.8636 19.3693 27.1092 18.791C27.1883 18.6 27.3767 18.4882 27.5704 18.4909C27.5868 18.39 27.5977 18.289 27.5977 18.1826C27.5977 17.2661 26.9837 16.4968 26.1459 16.2567C26.0913 16.4668 25.9003 16.6223 25.6738 16.6223H25.671Z" fill="#E8FDF8"/>
<path d="M33.8253 16.6222C32.9656 16.6222 32.2643 17.3233 32.2643 18.1826C32.2643 19.0419 32.9656 19.743 33.8253 19.743C34.4529 19.743 35.0178 19.3693 35.2634 18.791C35.3671 18.5454 35.6455 18.4309 35.8938 18.5263C35.9129 18.4145 35.9239 18.3027 35.9239 18.1854C35.9239 17.2115 35.228 16.4013 34.3083 16.2185C34.2674 16.4504 34.0682 16.625 33.8253 16.625V16.6222Z" fill="#E8FDF8"/>
<path d="M25.3627 42.756H29.7591C30.2149 42.756 30.586 43.127 30.586 43.5826V45.5167C30.586 45.9722 30.2149 46.3432 29.7591 46.3432H25.3627C24.907 46.3432 24.5358 45.9722 24.5358 45.5167V43.5826C24.5358 43.127 24.907 42.756 25.3627 42.756Z" fill="#E8FDF8"/>
<path d="M1.94517 23.6658C1.75414 24.5415 1.56038 25.4717 1.36935 26.4401C1.32023 27.0921 1.30386 27.7741 1.28748 28.4806C1.27111 29.1435 1.25473 29.8282 1.21107 30.5184C0.93817 34.7194 2.43639 36.4899 6.74547 37.0464C7.06203 37.03 7.35403 36.9918 7.62966 36.94C8.27916 36.6917 8.78402 36.0834 8.90683 35.3032C9.5345 31.2959 9.22066 23.4885 8.31737 19.8985C4.41217 20.5041 2.70928 21.8463 1.94789 23.6658H1.94517Z" fill="#E8FDF8"/>
<path d="M51.0398 28.4588C50.9361 24.1759 50.8352 20.1277 43.1885 18.9328C43.2158 18.5455 43.2349 18.1499 43.2349 17.7434C43.2349 8.07014 35.3563 0.200012 25.6738 0.200012C15.9914 0.200012 8.10729 8.07014 8.10729 17.7434C8.10729 18.1499 8.1264 18.5455 8.15369 18.9328C0.512505 20.1277 0.408803 24.1759 0.30783 28.4588C0.291456 29.1108 0.275082 29.7873 0.231419 30.4557C-0.0742289 35.1395 1.83606 37.4037 6.61999 38.023C6.74279 38.0394 6.8656 38.0475 6.98568 38.0475C8.40476 38.0475 9.64099 36.97 9.87841 35.456C10.5579 31.1186 10.1895 22.8201 9.16341 19.2575C9.11702 18.7746 9.09246 18.2645 9.09246 17.7434C9.09246 8.61027 16.5317 1.18207 25.6766 1.18207C34.8214 1.18207 42.2552 8.61027 42.2552 17.7434C42.2552 18.2836 42.2306 18.8073 42.1815 19.3011C42.1651 19.462 42.2306 19.6094 42.3398 19.7103L42.3453 19.7157C42.3644 19.7321 42.3862 19.7485 42.408 19.7621C42.4135 19.7648 42.4189 19.7703 42.4244 19.773C42.4435 19.7839 42.4626 19.7921 42.4844 19.8003C42.4926 19.803 42.5008 19.8085 42.509 19.8112C42.509 19.8112 42.5117 19.8112 42.5145 19.8112C42.5308 19.8167 42.5499 19.8194 42.569 19.8249C42.5827 19.8276 42.5936 19.833 42.6072 19.833C49.88 20.8206 49.9592 24.2005 50.0629 28.4779C50.0792 29.1408 50.0956 29.8255 50.1393 30.5157C50.4122 34.7167 48.914 36.4872 44.6049 37.0437C44.16 37.1009 43.7343 36.9918 43.3768 36.7654C43.3632 36.7545 43.3495 36.7463 43.3359 36.7381C42.8774 36.4299 42.5417 35.917 42.4435 35.2978C42.0341 32.6817 42.0041 28.096 42.3753 24.1487C42.3998 23.8786 42.2033 23.6413 41.9332 23.614C41.663 23.5894 41.4229 23.7858 41.3983 24.0559C41.0217 28.0742 41.0517 32.7608 41.472 35.4478C41.5811 36.138 41.8977 36.7354 42.3425 37.1828L35.8748 43.3207C35.3781 43.7926 34.7259 44.0518 34.0409 44.0518H31.5712V43.5744C31.5712 42.5759 30.7579 41.7657 29.7619 41.7657H25.3655C24.3666 41.7657 23.5561 42.5759 23.5561 43.5744V45.5085C23.5561 46.5069 24.3666 47.3171 25.3655 47.3171H29.7619C30.7607 47.3171 31.5712 46.5069 31.5712 45.5085V45.0311H34.0409C34.9797 45.0311 35.8721 44.6764 36.5516 44.0299L43.1558 37.7611C43.5269 37.9384 43.9363 38.0366 44.362 38.0366C44.4821 38.0366 44.6049 38.0285 44.7277 38.0121C49.5116 37.3928 51.4219 35.1314 51.1162 30.4448C51.0726 29.7737 51.0562 29.0999 51.0398 28.4479V28.4588ZM8.90416 35.3032C8.78136 36.0834 8.27649 36.6945 7.62699 36.94C7.35136 37.0464 7.05117 37.0873 6.7428 37.0464C2.43371 36.4899 0.935495 34.7194 1.20839 30.5184C1.25206 29.8282 1.26843 29.1435 1.28481 28.4806C1.30118 27.7741 1.32028 27.0894 1.36667 26.4401C1.44036 25.4308 1.59318 24.4978 1.94249 23.6658C2.70388 21.8463 4.40678 20.5041 8.31197 19.8985C9.21526 23.4885 9.5291 31.2959 8.90143 35.3032H8.90416ZM30.586 45.5167C30.586 45.9722 30.2149 46.3432 29.7591 46.3432H25.3627C24.907 46.3432 24.5358 45.9722 24.5358 45.5167V43.5826C24.5358 43.127 24.907 42.756 25.3627 42.756H29.7591C30.2149 42.756 30.586 43.127 30.586 43.5826V45.5167Z" fill="#0E172A" stroke="#0E172A" stroke-width="0.4" stroke-miterlimit="10"/>
<path d="M13.3824 29.6073C13.1941 29.801 13.205 30.1065 13.3988 30.2975C14.3157 31.1922 15.3309 31.986 16.4225 32.6626L16.9137 37.6356C16.9601 38.0994 17.2303 38.5113 17.6396 38.735C17.8498 38.8496 18.0845 38.9096 18.3164 38.9096C18.5347 38.9096 18.7558 38.8577 18.955 38.7568L25.7857 35.2896C30.3513 35.2596 34.6631 33.4891 37.9352 30.3002C38.1289 30.1119 38.1344 29.801 37.9433 29.6046C37.755 29.4109 37.4412 29.4054 37.2475 29.5964C34.1309 32.6353 30.0184 34.3075 25.6656 34.3075C25.5892 34.3075 25.5128 34.3266 25.4418 34.3621L18.5075 37.8839C18.3792 37.9493 18.2318 37.9466 18.1063 37.8784C17.9808 37.8102 17.8989 37.6875 17.8852 37.5429L17.3749 32.3843C17.3749 32.2125 17.2903 32.0488 17.1375 31.956C16.0295 31.2904 15.0007 30.4993 14.0783 29.5991C13.8845 29.4109 13.5734 29.4136 13.3824 29.6073Z" fill="#0E172A" stroke="#0E172A" stroke-width="0.4" stroke-miterlimit="10"/>
<path d="M17.596 15.6402C16.1933 15.6402 15.0526 16.7805 15.0526 18.1826C15.0526 19.5848 16.1933 20.7251 17.596 20.7251C18.5266 20.7251 19.3807 20.2177 19.8283 19.402C19.9593 19.1647 19.872 18.8646 19.6345 18.7364C19.6154 18.7255 19.5991 18.7201 19.58 18.7119C19.3534 18.6218 19.0887 18.7119 18.9687 18.9301C18.693 19.432 18.1691 19.743 17.5987 19.743C16.7391 19.743 16.0377 19.0447 16.0377 18.1826C16.0377 17.3206 16.7391 16.6223 17.5987 16.6223C17.8389 16.6223 18.0353 16.4504 18.0817 16.224C18.0872 16.194 18.0899 16.1612 18.0899 16.1312C18.0899 15.8612 17.8689 15.6402 17.5987 15.6402H17.596Z" fill="#0E172A" stroke="#0E172A" stroke-width="0.4" stroke-miterlimit="10"/>
<path d="M25.671 15.6402C24.2683 15.6402 23.1276 16.7805 23.1276 18.1826C23.1276 19.5848 24.2683 20.7251 25.671 20.7251C26.6944 20.7251 27.6141 20.1168 28.0152 19.1729C28.1217 18.9219 28.0043 18.6355 27.7533 18.5291C27.6932 18.5045 27.6332 18.4909 27.5704 18.4909C27.3767 18.4882 27.1884 18.6 27.1092 18.791C26.8636 19.3693 26.3014 19.743 25.671 19.743C24.8114 19.743 24.1101 19.0447 24.1101 18.1826C24.1101 17.3206 24.8114 16.6223 25.671 16.6223C25.8976 16.6223 26.0886 16.4668 26.1432 16.2567C26.1541 16.2158 26.1623 16.1749 26.1623 16.1312C26.1623 15.8612 25.9412 15.6402 25.671 15.6402Z" fill="#0E172A" stroke="#0E172A" stroke-width="0.4" stroke-miterlimit="10"/>
<path d="M33.8252 15.6402C32.4225 15.6402 31.2818 16.7805 31.2818 18.1826C31.2818 19.5848 32.4225 20.7251 33.8252 20.7251C34.8486 20.7251 35.7683 20.1167 36.1694 19.1729C36.2759 18.9219 36.1585 18.6355 35.9074 18.5291C35.902 18.5291 35.8965 18.5291 35.8938 18.5236C35.6482 18.4281 35.3671 18.5454 35.2634 18.7882C35.0178 19.3666 34.4556 19.7403 33.8252 19.7403C32.9656 19.7403 32.2642 19.0419 32.2642 18.1799C32.2642 17.3179 32.9656 16.6195 33.8252 16.6195C34.0681 16.6195 34.2673 16.4422 34.3082 16.2131C34.3137 16.1858 34.3164 16.1585 34.3164 16.1285C34.3164 15.8584 34.0954 15.6375 33.8252 15.6375V15.6402Z" fill="#0E172A" stroke="#0E172A" stroke-width="0.4" stroke-miterlimit="10"/>
</svg>
