<svg width="41" height="44" viewBox="0 0 41 44" fill="none" xmlns="http://www.w3.org/2000/svg">
<path d="M12.0601 10.1816C12.0192 10.198 11.9783 10.2089 11.9346 10.217C11.176 10.4353 10.0407 10.9672 9.92332 11.2728C9.78141 12.0611 9.78142 13.0268 9.92878 13.9734C9.95062 14.118 10.1771 14.339 10.521 14.5299C10.5892 14.5654 10.6629 14.6036 10.7366 14.6391C10.9686 14.7454 11.2387 14.8327 11.5225 14.8791C11.9865 14.9555 12.2048 14.86 12.2211 14.8273C12.4558 14.3663 12.4531 12.7922 12.2102 10.1461C12.1638 10.1543 12.112 10.1679 12.0601 10.1816Z" fill="#E8FDF8"/>
<path d="M35.3358 13.346C35.1202 13.5097 35.0765 13.818 35.2375 14.0335C37.7209 17.3315 39.0336 21.2598 39.0336 25.4008C39.0336 25.6709 39.2546 25.8918 39.5248 25.8918C39.795 25.8918 40.016 25.6709 40.016 25.4008C40.016 21.047 38.6351 16.9114 36.0235 13.4442C35.8597 13.2287 35.5514 13.1851 35.3358 13.346Z" fill="#0E172A" stroke="#0E172A" stroke-width="0.4" stroke-miterlimit="10"/>
<path d="M0.691211 25.8891C0.961382 25.8891 1.18244 25.6682 1.18244 25.3981C1.18244 21.0743 2.60423 17.0015 5.29229 13.627C5.46149 13.4142 5.42604 13.106 5.21317 12.9368C5.00031 12.7677 4.69193 12.8032 4.52273 13.0159C1.69549 16.5677 0.200012 20.8506 0.200012 25.4008C0.200012 25.6709 0.453083 25.8881 0.723253 25.8881L0.691211 25.8891Z" fill="#0E172A" stroke="#0E172A" stroke-width="0.4" stroke-miterlimit="10"/>
<path d="M27.8256 18.8892C27.9211 18.6355 27.7901 18.3518 27.5363 18.259C27.2825 18.1663 26.9987 18.2945 26.9059 18.5482C26.2646 20.2777 25.1566 21.7317 23.7839 22.6401C23.7075 22.6919 23.6474 22.7629 23.6092 22.8447C23.3118 23.494 23.1617 24.206 23.1617 24.9589C23.1617 25.3544 23.2026 25.7582 23.2845 26.1564C23.3309 26.3883 23.5356 26.5493 23.7648 26.5493C23.7976 26.5493 23.8303 26.5465 23.8631 26.5384C24.1278 26.4838 24.2997 26.2246 24.2478 25.96C24.1796 25.6245 24.1469 25.2862 24.1469 24.9561C24.1469 24.3914 24.2506 23.8595 24.4525 23.3712C25.9398 22.3428 27.1351 20.7551 27.8283 18.8837L27.8256 18.8892Z" fill="#0E172A" stroke="#0E172A" stroke-width="0.4" stroke-miterlimit="10"/>
<path d="M39.0145 33.6774C39.0117 33.6556 39.0063 33.631 38.9981 33.6092C38.5806 32.2588 37.8274 31.0531 36.8204 30.1283C35.8052 29.2008 34.5771 28.5925 33.2699 28.3688C31.4906 28.066 29.6404 28.0469 27.8884 28.3033C27.097 28.4179 26.311 28.6088 25.5578 28.8653C24.9547 29.0699 24.3625 29.3208 23.8003 29.6046L21.7781 30.633C20.8694 31.094 19.8242 31.094 18.9154 30.633L16.8932 29.6046C16.5767 29.4436 16.2519 29.2963 15.919 29.1599C16.4566 28.5843 16.9205 27.7877 17.2098 26.9175C17.5318 25.9436 17.6055 24.9643 17.45 24.0559C18.225 24.4051 19.0409 24.6151 19.8869 24.6752C19.8979 24.6752 19.9088 24.6752 19.9224 24.6752C20.1789 24.6752 20.3945 24.476 20.4109 24.2169C20.43 23.9468 20.2253 23.7122 19.9552 23.6931C18.8745 23.6194 17.8484 23.2648 16.9096 22.6374C16.9069 22.6374 16.9042 22.6319 16.9014 22.6319C16.8987 22.6319 16.896 22.6265 16.8905 22.6237C14.8083 21.227 13.422 18.6846 13.1845 15.8175C13.1845 15.812 13.1845 15.8066 13.1845 15.8011C13.1682 15.5911 13.1573 15.3674 13.1545 15.1328C13.3838 14.5408 13.4138 13.4497 13.351 12.1566C14.3444 12.072 15.6706 12.2494 17.0679 12.4376C18.2905 12.6013 19.5404 12.7704 20.6565 12.7704C21.1832 12.7704 21.6799 12.7322 22.1302 12.6395C22.3731 12.5958 22.6296 12.5385 22.8834 12.484C23.3255 12.3858 23.9941 12.2412 24.1633 12.2794C24.4198 12.3721 24.7009 12.2384 24.791 11.982C24.881 11.7256 24.75 11.4446 24.4935 11.3546C24.1169 11.2209 23.5575 11.3328 22.6733 11.5264C22.4304 11.5783 22.1848 11.6328 21.9419 11.6792C20.6893 11.9384 18.9154 11.6983 17.1989 11.4692C15.7607 11.2755 14.3908 11.0927 13.291 11.1855C13.2528 10.6726 13.2036 10.1407 13.1518 9.60598C13.1354 9.42594 13.0181 9.27045 12.8516 9.19952C12.7315 9.15042 12.5732 9.13405 12.3931 9.14496C12.7697 4.70386 16.2192 1.18208 20.3263 1.18208C22.0974 1.18208 23.7758 1.80951 25.1785 2.99344C25.3859 3.16803 25.697 3.14347 25.8716 2.93615C26.0463 2.72883 26.0217 2.42057 25.8143 2.24326C24.2342 0.906564 22.3348 0.200012 20.329 0.200012C15.6188 0.200012 11.6808 4.2783 11.3943 9.36046C10.8922 9.52414 10.4037 9.74511 10.1199 9.89787C9.4158 10.2798 9.03648 10.6671 8.96279 11.0818C8.79905 11.9875 8.79905 13.065 8.96279 14.1207C9.09924 15.01 10.3054 15.6757 11.3698 15.8475C11.5389 15.8748 11.7 15.8884 11.8501 15.8884C11.9756 15.8884 12.0957 15.8775 12.2076 15.8584C12.2076 15.8639 12.2076 15.8693 12.2076 15.8748C12.2076 15.8803 12.2076 15.8857 12.2076 15.8939C12.4641 19.0119 13.9677 21.7917 16.2383 23.3685C17.1334 25.4826 15.949 27.9378 14.8929 28.7889C14.2134 28.5734 13.5147 28.407 12.8107 28.3033C11.0587 28.0469 9.2084 28.066 7.4291 28.3688C6.12191 28.5925 4.89386 29.2008 3.87868 30.1283C2.87168 31.0531 2.11848 32.2561 1.70094 33.6092C1.69276 33.631 1.69001 33.6528 1.68455 33.6774L0.350071 42.1013C0.306407 42.3686 0.48925 42.6196 0.75942 42.6632C1.02686 42.7041 1.27795 42.5241 1.32161 42.254L2.65063 33.8656C3.01904 32.6926 3.67126 31.6532 4.54453 30.854C5.42054 30.0547 6.47668 29.5282 7.5983 29.3372C9.27663 29.0508 11.0232 29.0344 12.6742 29.2772C13.4056 29.3836 14.1315 29.5582 14.8301 29.7982C15.3896 29.9892 15.9381 30.2183 16.4566 30.4829L18.4788 31.5141C19.6714 32.1197 21.0386 32.1197 22.2312 31.5141L24.2533 30.4857C24.7746 30.2211 25.3204 29.9919 25.8826 29.801C26.5812 29.5609 27.3071 29.3863 28.0384 29.2799C29.6895 29.0371 31.4361 29.0562 33.1144 29.3399C34.236 29.5309 35.2921 30.0574 36.1681 30.8567C37.0414 31.656 37.6936 32.698 38.0621 33.8683L39.3911 42.2568C39.4293 42.4996 39.6394 42.6714 39.8768 42.6714C39.9014 42.6714 39.9287 42.6714 39.9532 42.666C40.2207 42.6223 40.4035 42.3713 40.3626 42.104L39.0281 33.6801L39.0145 33.6774ZM12.2212 14.8273C12.2048 14.86 11.9892 14.9555 11.5226 14.8791C11.236 14.8327 10.9686 14.7454 10.7366 14.639C10.663 14.6036 10.592 14.5681 10.521 14.5299C10.1772 14.339 9.95067 14.118 9.92883 13.9734C9.7842 13.0241 9.78146 12.0611 9.92337 11.2728C10.0434 10.97 11.176 10.438 11.9347 10.217C11.9783 10.2116 12.022 10.2007 12.0602 10.1816C12.112 10.1679 12.1639 10.157 12.2103 10.1461C12.4532 12.7922 12.4559 14.3663 12.2212 14.8273Z" fill="#0E172A" stroke="#0E172A" stroke-width="0.4" stroke-miterlimit="10"/>
<path d="M29.2855 15.8475C30.3499 15.6757 31.5561 15.0128 31.6952 14.1207C31.8562 13.0677 31.8562 11.9875 31.6952 11.0845C31.6216 10.6699 31.2422 10.2825 30.5381 9.90059C30.2543 9.7451 29.7631 9.52414 29.261 9.36046C29.1819 7.95011 28.8243 6.56432 28.2103 5.32584C28.0902 5.08305 27.7955 4.98484 27.5526 5.10487C27.3098 5.2249 27.2088 5.51951 27.3316 5.7623C27.8474 6.80165 28.1639 7.96103 28.2649 9.14496C28.0875 9.13405 27.9292 9.15042 27.8064 9.19952C27.6399 9.27045 27.5253 9.42594 27.5062 9.60598C27.2715 12.0366 27.1133 14.4072 27.5581 15.2746C27.7628 15.6757 28.2076 15.8884 28.808 15.8884C28.9581 15.8884 29.1191 15.8748 29.2883 15.8475H29.2855ZM28.2813 15.1328C28.0138 14.6118 28.0166 12.8277 28.2922 9.82695C28.2949 9.82695 28.3004 9.82695 28.3058 9.82968C28.5351 9.87605 28.8271 9.96607 29.13 10.0806C29.9132 10.3725 30.7756 10.8172 30.8847 11.09C31.0485 11.9984 31.0485 13.0923 30.8847 14.1671C30.8383 14.4644 30.0415 15.0401 29.0781 15.1955C28.5514 15.2801 28.3058 15.1737 28.2867 15.1355L28.2813 15.1328Z" fill="#0E172A" stroke="#0E172A" stroke-width="0.4" stroke-miterlimit="10"/>
<path d="M20.5583 3.19534C17.6492 3.19534 15.1194 5.05034 14.2679 7.81102C14.1888 8.07018 14.3334 8.3457 14.5927 8.42481C14.6418 8.43845 14.6909 8.44664 14.7373 8.44664C14.9474 8.44664 15.1412 8.31024 15.2067 8.10018C15.9326 5.75142 18.0831 4.17467 20.5583 4.17467C22.6678 4.17467 24.5781 5.33405 25.5414 7.19723C25.6669 7.43729 25.9617 7.53278 26.2045 7.40729C26.4447 7.28181 26.5402 6.98719 26.4147 6.7444C25.2821 4.55113 23.0389 3.18988 20.5583 3.18988V3.19534Z" fill="#0E172A" stroke="#0E172A" stroke-width="0.4" stroke-miterlimit="10"/>
<path d="M23.2135 42.1477C23.2135 42.1477 23.2053 42.1477 23.2026 42.1477L21.6143 42.1804L17.6709 38.615C17.4717 38.4349 17.1661 38.4513 16.986 38.6505C16.8058 38.8496 16.8222 39.1551 17.0214 39.3352L21.2514 43.157L23.2245 43.1161C23.4919 43.1106 23.7048 42.8897 23.6993 42.6223C23.6938 42.3577 23.4783 42.1477 23.2163 42.1477H23.2135Z" fill="#0E172A" stroke="#0E172A" stroke-width="0.4" stroke-miterlimit="10"/>
<path d="M30.8793 14.1644C31.0458 13.0896 31.0458 11.9957 30.8793 11.0873C30.7729 10.8172 29.9078 10.3698 29.1246 10.0779C28.8217 9.96607 28.5297 9.87605 28.3004 9.82695C28.2977 9.82695 28.2922 9.82695 28.2868 9.82422C28.0112 12.825 28.0084 14.609 28.2759 15.1301C28.295 15.1655 28.5406 15.2747 29.0673 15.1901C30.0333 15.0346 30.8302 14.459 30.8739 14.1617L30.8793 14.1644Z" fill="#E8FDF8"/>
</svg>
