<svg width="44" height="56" viewBox="0 0 44 56" fill="none" xmlns="http://www.w3.org/2000/svg">
<path d="M28.3309 47.1916C28.2988 47.0167 28.36 46.8417 28.4854 46.7193L32.207 43.1974C32.6532 42.7747 32.8108 42.177 32.627 41.6026C32.4345 41.0021 31.9358 40.588 31.2912 40.4977L26.1492 39.7717C25.9801 39.7484 25.8313 39.6434 25.7555 39.4889L23.4572 34.9641C23.1743 34.4073 22.6202 34.0749 21.9756 34.0749C21.331 34.0749 20.7769 34.4073 20.494 34.9641L18.1957 39.4889C18.117 39.6405 17.9711 39.7455 17.802 39.7717L12.66 40.4977C12.0154 40.588 11.5138 41.0021 11.3213 41.6026C11.1375 42.177 11.2951 42.7747 11.7413 43.1974L15.4629 46.7193C15.5912 46.8388 15.6495 47.0167 15.6174 47.1916L14.7395 52.1625C14.6345 52.7514 14.8679 53.3199 15.3608 53.6844C15.8799 54.0692 16.5624 54.1246 17.1399 53.8272L21.7394 51.4803C21.8152 51.4424 21.8969 51.422 21.9785 51.422C22.0602 51.422 22.1418 51.4424 22.2177 51.4803L26.8172 53.8272C27.3946 54.1217 28.0771 54.0663 28.5963 53.6844C29.0892 53.3199 29.3196 52.7514 29.2175 52.1625L28.3396 47.1916H28.3309Z" fill="#E8FDF8"/>
<path d="M29.4158 47.2877L32.9302 43.9612C33.6652 43.2644 33.9336 42.2381 33.6273 41.2848C33.3152 40.3052 32.4753 39.6054 31.4369 39.4597L26.5662 38.7716L24.3905 34.4917C23.9326 33.5879 23.0051 33.0281 21.9726 33.0281C20.9401 33.0281 20.0127 33.5879 19.5547 34.4917L17.379 38.7716L12.5083 39.4597C11.47 39.6054 10.63 40.3052 10.3179 41.2848C10.0146 42.2381 10.28 43.2644 11.015 43.9612L14.5295 47.2877L13.7012 51.9816C13.5291 52.9554 13.9228 53.9321 14.7307 54.5297C15.5736 55.1537 16.6761 55.2411 17.6123 54.7659L21.9726 52.5414L26.3329 54.7659C26.7325 54.97 27.1612 55.0691 27.5871 55.0691C28.1616 55.0691 28.7304 54.8884 29.2145 54.5297C30.0224 53.9321 30.4161 52.9554 30.2441 51.9816L29.4158 47.2877ZM28.5904 53.6872C28.0712 54.072 27.3887 54.1274 26.8112 53.83L22.2118 51.4831C22.1359 51.4452 22.0543 51.4248 21.9726 51.4248C21.891 51.4248 21.8093 51.4452 21.7335 51.4831L17.134 53.83C16.5565 54.1245 15.874 54.0691 15.3549 53.6872C14.862 53.3227 14.6316 52.7542 14.7336 52.1653L15.6115 47.1944C15.6436 47.0195 15.5824 46.8446 15.457 46.7221L11.7354 43.2002C11.2891 42.7775 11.1316 42.1798 11.3154 41.6055C11.5079 41.0049 12.0066 40.5909 12.6541 40.5005L17.7961 39.7745C17.9652 39.7512 18.114 39.6463 18.1898 39.4917L20.4881 34.9669C20.771 34.4101 21.3251 34.0777 21.9697 34.0777C22.6143 34.0777 23.1684 34.4101 23.4513 34.9669L25.7496 39.4917C25.8283 39.6433 25.9742 39.7483 26.1434 39.7745L31.2853 40.5005C31.9299 40.5909 32.4315 41.0049 32.6211 41.6055C32.8048 42.1827 32.6473 42.7775 32.2011 43.2002L28.4796 46.7221C28.3512 46.8417 28.2929 47.0195 28.325 47.1944L29.2029 52.1653C29.3079 52.7542 29.0745 53.3227 28.5816 53.6872H28.5904Z" fill="#0E172A" stroke="#0E172A" stroke-width="0.4" stroke-miterlimit="10"/>
<path d="M40.9101 36.6404L36.6782 36.0399L34.7882 32.3256C34.3741 31.5121 33.5428 31.0078 32.6124 31.0078C31.682 31.0078 30.8508 31.5121 30.4366 32.3256L28.4388 36.2498C28.3075 36.5092 28.4096 36.8241 28.6692 36.9553C28.9287 37.0865 29.2437 36.9845 29.375 36.725L31.3729 32.8008C31.6091 32.3343 32.0728 32.0573 32.6124 32.0573C33.152 32.0573 33.6157 32.3343 33.852 32.8008L35.8644 36.76C35.9432 36.9116 36.089 37.0165 36.2581 37.0428L40.7643 37.6813C41.3039 37.7571 41.7209 38.1011 41.8813 38.5996C42.0359 39.0807 41.9047 39.5763 41.5314 39.9291L38.2735 43.0137C38.1452 43.1361 38.0869 43.311 38.1189 43.486L38.886 47.8417C38.9735 48.3315 38.781 48.8067 38.3698 49.1099C38.0285 49.3607 37.4598 49.5268 36.8794 49.2324L33.0178 47.2615C32.7582 47.1303 32.4432 47.2324 32.312 47.4918C32.1807 47.7513 32.2828 48.0662 32.5424 48.1974L36.404 50.1682C36.7627 50.3519 37.1477 50.4423 37.5327 50.4423C38.0489 50.4423 38.5623 50.279 38.9968 49.9554C39.7231 49.416 40.0789 48.5385 39.9214 47.6609L39.2039 43.5851L42.2547 40.6959C42.9167 40.069 43.1588 39.1448 42.8818 38.2848C42.5988 37.4043 41.8434 36.7775 40.9131 36.6463L40.9101 36.6404Z" fill="#0E172A" stroke="#0E172A" stroke-width="0.4" stroke-miterlimit="10"/>
<path d="M10.9334 47.2586L7.06893 49.2295C6.49145 49.5239 5.9198 49.3607 5.58148 49.107C5.17024 48.8038 4.97774 48.3286 5.06523 47.8388L5.8323 43.486C5.86146 43.311 5.80312 43.1361 5.67771 43.0137L2.41986 39.9291C2.04654 39.5763 1.91531 39.0807 2.06989 38.5996C2.2303 38.0982 2.64736 37.7571 3.18693 37.6813L7.69017 37.0428C7.85933 37.0195 8.00807 36.9145 8.0839 36.76L10.0964 32.8008C10.3326 32.3343 10.7963 32.0573 11.3359 32.0573C11.8755 32.0573 12.3392 32.3343 12.5755 32.8008L14.5733 36.725C14.7046 36.9845 15.0225 37.0865 15.2791 36.9553C15.5387 36.8241 15.6408 36.5092 15.5095 36.2498L13.5117 32.3256C13.0975 31.5121 12.2663 31.0078 11.3359 31.0078C10.4084 31.0078 9.57426 31.5121 9.16011 32.3256L7.27016 36.0399L3.03818 36.6404C2.10487 36.7716 1.34947 37.3985 1.06656 38.2789C0.7924 39.139 1.03157 40.0632 1.69363 40.69L4.74442 43.5793L4.02691 47.6551C3.86941 48.5326 4.22525 49.4131 4.95148 49.9496C5.38605 50.2703 5.89938 50.4365 6.41562 50.4365C6.79769 50.4365 7.18559 50.3461 7.54142 50.1624L11.403 48.1915C11.6626 48.0604 11.7647 47.7426 11.6334 47.486C11.5022 47.2265 11.1842 47.1245 10.9276 47.2557L10.9334 47.2586Z" fill="#0E172A" stroke="#0E172A" stroke-width="0.4" stroke-miterlimit="10"/>
<path d="M43.4971 32.5239C43.4942 32.5005 43.4884 32.4743 43.4796 32.451C43.0013 30.897 42.1351 29.5151 40.9801 28.4538C38.3552 25.9786 34.5811 25.967 31.2329 26.2847C31.2299 26.2847 31.227 26.2847 31.2241 26.2847C28.4621 26.4917 25.6971 27.9524 23.673 29.0282C23.6584 29.034 23.641 29.0428 23.6264 29.0515C23.2851 29.2381 22.9497 29.3577 22.5997 29.4101C22.5822 29.4101 22.5647 29.413 22.5472 29.416C22.2293 29.4597 21.9085 29.451 21.5673 29.3956C21.5585 29.3956 21.5527 29.3956 21.5439 29.3926C20.5494 29.2323 19.514 28.6842 18.5136 28.1506C17.9507 27.8533 17.3761 27.5501 16.7986 27.3052C17.4286 26.6433 17.974 25.7133 18.3094 24.6958C18.6857 23.5529 18.7702 22.4013 18.5719 21.3401C19.6277 21.8241 20.7739 22.0894 21.9727 22.0894C22.2614 22.0894 22.4977 21.8532 22.4977 21.5646C22.4977 21.276 22.2614 21.0398 21.9727 21.0398C20.5552 21.0398 19.2165 20.6112 18.044 19.8532C17.9974 19.8211 17.9478 19.792 17.9011 19.7599C15.5853 18.1943 13.9433 15.3226 13.6575 11.894C13.6575 11.8852 13.6575 11.8765 13.6575 11.8677C13.6312 11.5616 13.6195 11.2322 13.6195 10.859C13.6195 9.97851 13.7158 9.10678 13.8995 8.25546C15.4949 8.75984 18.1403 8.88228 21.9727 8.88228C23.5739 8.88228 24.8863 8.85605 25.9859 8.80066C26.2746 8.78608 26.4992 8.54117 26.4846 8.24963C26.47 7.961 26.2221 7.73941 25.9334 7.75108C24.8513 7.80355 23.5564 7.8298 21.9727 7.8298C15.4891 7.8298 13.0771 7.38373 13.0771 6.18547C13.0771 4.98721 16.8686 1.24666 21.9727 1.24666C27.0767 1.24666 30.8683 5.02803 30.8683 6.18547C30.8683 6.42745 30.8683 6.87936 29.7804 7.23213C29.5704 7.28461 29.41 7.46245 29.3867 7.68403C29.1213 10.0514 26.2134 11.582 21.9785 11.582C20.3015 11.582 18.7644 11.3313 17.5307 10.8561C17.2595 10.7511 16.9561 10.8852 16.8512 11.1563C16.7462 11.4275 16.8803 11.7307 17.1515 11.8357C18.5019 12.3575 20.1702 12.6345 21.9756 12.6345C26.5984 12.6345 29.8445 10.8794 30.3783 8.13592C31.4137 7.73067 31.9182 7.09218 31.9182 6.18839C31.9182 5.14173 30.7458 3.66359 28.9317 2.4216C27.7184 1.59069 25.2013 0.200012 21.9756 0.200012C16.6353 0.200012 12.03 4.21753 12.03 6.18839C12.03 6.89976 12.3217 7.42747 12.9254 7.81814C12.695 8.8094 12.5696 9.82982 12.5696 10.859C12.5696 11.2555 12.5842 11.6083 12.6104 11.9377C12.6104 11.9465 12.6104 11.9552 12.6104 11.961C12.9196 15.7016 14.7191 18.8445 17.2711 20.5937C18.3065 23.0632 16.9095 25.932 15.6758 26.9116C12.4821 25.9261 7.94678 25.5529 4.48479 27.4101C2.44317 28.5034 1.08986 30.2002 0.462795 32.4568C0.456962 32.4743 0.454034 32.4918 0.451117 32.5122C0.451117 32.5122 0.349046 33.1303 0.206133 34.0603C0.162384 34.346 0.357796 34.6143 0.643622 34.658C0.929448 34.6988 1.19779 34.5064 1.24154 34.2207C1.36695 33.4131 1.46027 32.8445 1.48068 32.7134C2.03192 30.7571 3.21022 29.2848 4.98059 28.3372C8.2326 26.5938 12.5783 27.0078 15.5737 27.9786C15.597 27.9874 15.6203 27.9961 15.6466 28.002C16.4107 28.2177 17.1924 28.6346 18.0207 29.0748C19.1027 29.6492 20.2227 30.244 21.3981 30.4276C21.4039 30.4276 21.4127 30.4276 21.4185 30.4305C21.8589 30.5005 22.276 30.5064 22.6901 30.451C22.6989 30.451 22.7077 30.451 22.7164 30.451C23.1947 30.3839 23.6468 30.2323 24.096 29.9874C24.1076 29.9816 24.1164 29.9757 24.128 29.9728C26.0734 28.9407 28.7333 27.5297 31.2883 27.3343C31.297 27.3343 31.3058 27.3343 31.3145 27.3343C34.4324 27.0369 37.9352 27.0311 40.2626 29.2265C41.2776 30.1565 42.0359 31.3664 42.4617 32.7279L42.7009 34.2323C42.7417 34.4918 42.9663 34.6755 43.22 34.6755C43.2463 34.6755 43.2755 34.6755 43.3046 34.6696C43.5905 34.623 43.7859 34.3548 43.7392 34.0691L43.4942 32.5297L43.4971 32.5239Z" fill="#0E172A" stroke="#0E172A" stroke-width="0.4" stroke-miterlimit="10"/>
<path d="M31.1512 13.3488C31.157 13.3167 31.1599 13.2817 31.1599 13.2467C31.1599 12.9581 30.9237 12.7249 30.6349 12.7249C30.3754 12.7249 30.1596 12.9144 30.1187 13.1622C29.5792 15.9931 28.0683 18.4129 25.9684 19.8007C25.8867 19.8561 25.8226 19.9319 25.7818 20.0194C25.4405 20.7628 25.2684 21.5821 25.2684 22.448C25.2684 23.1418 25.3793 23.8503 25.5951 24.5588C25.6651 24.7862 25.8722 24.929 26.0967 24.929C26.1463 24.929 26.1988 24.9232 26.2513 24.9057C26.5284 24.8212 26.6859 24.5267 26.5984 24.2497C26.4117 23.6404 26.3184 23.034 26.3184 22.445C26.3184 21.7803 26.438 21.1564 26.6771 20.585C28.9462 19.0281 30.5708 16.3983 31.1512 13.3429V13.3488Z" fill="#0E172A" stroke="#0E172A" stroke-width="0.4" stroke-miterlimit="10"/>
</svg>
