<svg width="50" height="44" viewBox="0 0 50 44" fill="none" xmlns="http://www.w3.org/2000/svg">
<path d="M17.7067 9.8784H32.0596C32.3083 9.8784 32.511 9.67403 32.511 9.42333C32.511 9.17263 32.3083 8.96826 32.0596 8.96826H17.7067C17.458 8.96826 17.2553 9.17263 17.2553 9.42333C17.2553 9.67403 17.458 9.8784 17.7067 9.8784Z" fill="#0E172A" stroke="#0E172A" stroke-width="0.4" stroke-miterlimit="10"/>
<path d="M31.4731 28.7542C31.7812 28.7542 32.0002 28.4463 31.9002 28.152C31.4461 26.8331 30.7946 25.6996 29.9459 24.7703C29.2539 24.0128 28.7268 23.7022 27.8538 23.1817C27.1888 22.7866 26.2806 22.247 24.8994 21.2579C22.8992 19.8273 21.799 19.0397 20.6908 17.7127C19.6745 16.4946 18.8825 15.0885 18.3311 13.5271H31.092L27.3807 17.9879C27.2321 18.165 27.2186 18.4348 27.3753 18.6065C27.4672 18.7073 27.5889 18.7563 27.7078 18.7563C27.8375 18.7563 27.9646 18.7018 28.0538 18.5928L32.4056 13.3636C32.4056 13.3636 32.4137 13.35 32.4191 13.3446C32.4272 13.3309 32.4381 13.32 32.4462 13.3064C32.4543 13.2928 32.4597 13.2819 32.4678 13.2683C32.4732 13.2546 32.4786 13.241 32.484 13.2274C32.4894 13.2138 32.4948 13.1974 32.4975 13.1838C32.5002 13.1702 32.5029 13.1565 32.5056 13.1429C32.5056 13.1266 32.511 13.1102 32.511 13.0939C32.511 13.0857 32.511 13.0802 32.511 13.0721C32.511 13.0666 32.511 13.0584 32.511 13.053C32.511 13.0366 32.511 13.0203 32.5056 13.0067C32.5056 12.993 32.5002 12.9794 32.4975 12.9658C32.4948 12.9522 32.4894 12.9385 32.484 12.9249C32.4786 12.9113 32.4732 12.8977 32.4678 12.884C32.4624 12.8704 32.4543 12.8595 32.4462 12.8459C32.4381 12.8323 32.4299 12.8214 32.4218 12.8077C32.4137 12.7968 32.4056 12.7859 32.3948 12.775C32.384 12.7641 32.3732 12.7505 32.3624 12.7396C32.357 12.7342 32.3543 12.7314 32.3489 12.726C32.3434 12.7205 32.3353 12.7178 32.3299 12.7124C32.3164 12.7015 32.3029 12.6933 32.2894 12.6851C32.2786 12.6769 32.2651 12.6715 32.2515 12.666C32.238 12.6606 32.2245 12.6551 32.211 12.6497C32.1975 12.6442 32.184 12.6388 32.1678 12.6361C32.1542 12.6333 32.1407 12.6306 32.1272 12.6279C32.111 12.6279 32.0948 12.6224 32.0786 12.6224C32.0704 12.6224 32.065 12.6224 32.0569 12.6224H17.704C17.5607 12.6224 17.4256 12.6906 17.3418 12.8077C17.258 12.9249 17.231 13.0748 17.2742 13.211C17.8608 15.124 18.7771 16.8352 19.9988 18.3013C21.1801 19.7183 22.3829 20.5793 24.375 22.0045C25.786 23.0155 26.7158 23.5659 27.3916 23.9692C28.2187 24.4624 28.6755 24.7322 29.2782 25.3889C30.0405 26.2228 30.6297 27.2473 31.0433 28.4463C31.1055 28.6289 31.2758 28.757 31.4677 28.757L31.4731 28.7542Z" fill="#0E172A" stroke="#0E172A" stroke-width="0.4" stroke-miterlimit="10"/>
<path d="M24.6372 43.0631C24.6939 43.0631 24.748 43.0603 24.8021 43.0576C24.7453 43.0576 24.6885 43.0631 24.6318 43.0631C24.6318 43.0631 24.6318 43.0631 24.6345 43.0631H24.6372Z" fill="#0E172A" stroke="#0E172A" stroke-width="0.5" stroke-miterlimit="10"/>
<path d="M4.28086 21.6312C4.28086 21.3805 4.07813 21.1762 3.82945 21.1762H1.47784L6.73518 12.9822L11.2735 21.1762H7.34336C7.09468 21.1762 6.89195 21.3805 6.89195 21.6312C6.89195 21.8819 7.09468 22.0863 7.34336 22.0863H12.0412C12.2006 22.0863 12.3493 22.0018 12.4304 21.8629C12.5115 21.7239 12.5142 21.5522 12.4358 21.4105L7.15685 11.8813C7.07846 11.7423 6.9352 11.6551 6.77843 11.6497C6.61625 11.6442 6.47029 11.7233 6.38649 11.8568L0.272305 21.3833C0.183106 21.5222 0.174997 21.7021 0.256087 21.8465C0.334474 21.9937 0.485842 22.0836 0.650725 22.0836H3.38616C3.62403 33.5611 12.8602 42.8424 24.2533 43.0495C22.8153 42.9759 21.4882 42.4827 20.3799 41.6952C11.1924 39.7141 4.28086 31.509 4.28086 21.6664L4.28086 21.6312Z" fill="#0E172A" stroke="#0E172A" stroke-width="0.4" stroke-miterlimit="10"/>
<path d="M39.6794 35.4604C36.798 38.6432 33.0029 40.8123 28.8809 41.7006C27.7753 42.4881 26.4482 42.9786 25.0129 43.0522C30.8378 42.9459 36.4087 40.4199 40.3443 36.0708C40.5119 35.8855 40.4984 35.5967 40.3146 35.4277C40.1308 35.2588 39.8469 35.2724 39.6767 35.4577L39.6794 35.4604Z" fill="#0E172A" stroke="#0E172A" stroke-width="0.4" stroke-miterlimit="10"/>
<path d="M49.0156 22.2689C48.9426 22.119 48.7939 22.0263 48.629 22.0209L45.8963 21.9255C45.9747 16.3693 43.9582 11.091 40.1876 7.01449C36.3142 2.82894 31.0541 0.411895 25.3805 0.212973C19.4123 0.00314997 13.6116 2.34935 9.44092 6.64662C9.26793 6.82647 9.27063 7.11259 9.44903 7.28971C9.62743 7.46411 9.91124 7.46139 10.0869 7.28154C14.0793 3.16411 19.6447 0.918739 25.3481 1.12039C30.7811 1.31113 35.8168 3.62463 39.5253 7.63306C43.2338 11.6415 45.1719 16.868 44.9827 22.3452C44.9773 22.4651 45.0232 22.5822 45.1043 22.6722C45.1854 22.7594 45.2989 22.8111 45.4179 22.8166L47.7695 22.8983L42.231 30.9016L37.9792 22.5523L41.9067 22.6912C42.1607 22.6994 42.3635 22.5032 42.3743 22.2525C42.3824 22.0018 42.1878 21.792 41.9391 21.7838L37.244 21.6176C37.0872 21.6121 36.9331 21.6912 36.8466 21.8274C36.7601 21.9637 36.752 22.1353 36.8277 22.2798L41.7715 31.9888C41.8445 32.1305 41.9851 32.2232 42.1418 32.2341C42.1526 32.2341 42.1607 32.2341 42.1716 32.2341C42.3175 32.2341 42.4554 32.1632 42.5419 32.0406L48.9831 22.7321C49.0777 22.5959 49.0912 22.4187 49.0156 22.2689Z" fill="#0E172A" stroke="#0E172A" stroke-width="0.4" stroke-miterlimit="10"/>
<path d="M28.4079 30.3975C27.305 29.5854 25.9995 29.1576 24.6318 29.1576C21.0963 29.1576 18.223 32.057 18.223 35.6185C18.223 39.18 21.099 42.0794 24.6318 42.0794C28.1646 42.0794 31.0406 39.18 31.0406 35.6185C31.0406 34.534 30.7703 33.463 30.2567 32.5175C30.127 32.2804 30.2135 31.9807 30.4486 31.8526C30.4757 31.839 30.5027 31.8281 30.5297 31.8172C30.4 31.6182 30.2621 31.4275 30.1135 31.2422C29.8486 30.9125 29.5512 30.61 29.2296 30.3321C29.1917 30.2994 29.1539 30.2667 29.1161 30.2367C29.1052 30.253 29.0971 30.2721 29.0863 30.2885C28.9268 30.5065 28.6241 30.5555 28.4052 30.3947L28.4079 30.3975ZM25.2318 31.9561C25.7076 32.0352 26.1482 32.2259 26.5104 32.5066C26.7239 32.6728 26.7617 32.9807 26.5969 33.1933C26.432 33.4085 26.1265 33.4467 25.913 33.2805C25.6778 33.0979 25.3886 32.9725 25.0724 32.9208C24.2615 32.7845 23.4938 33.1796 23.3965 33.7791C23.3506 34.0544 23.4506 34.3432 23.6722 34.5912C23.9236 34.8719 24.2912 35.0626 24.7102 35.1334C25.3454 35.2397 25.9157 35.5422 26.313 35.9864C26.7374 36.4605 26.9212 37.0409 26.8266 37.6159C26.705 38.3653 26.1238 38.943 25.3562 39.1909V40.2509C25.3562 40.5207 25.1372 40.7414 24.8696 40.7414C24.602 40.7414 24.3831 40.5207 24.3831 40.2509V39.3163C24.2669 39.3108 24.1506 39.3026 24.0317 39.2809C23.556 39.2018 23.1154 39.0111 22.7532 38.7304C22.5397 38.5642 22.5018 38.2563 22.6667 38.0437C22.8316 37.8284 23.137 37.7903 23.3506 37.9565C23.5857 38.1391 23.8749 38.2644 24.1912 38.3162C25.0021 38.4525 25.7697 38.0573 25.867 37.4578C25.913 37.1826 25.813 36.8938 25.5913 36.6458C25.34 36.3651 24.9724 36.1744 24.5534 36.1035C23.9182 35.9973 23.3479 35.6948 22.9505 35.2506C22.5261 34.7765 22.3423 34.1961 22.4369 33.6211C22.5748 32.7845 23.283 32.1605 24.1858 31.9752V31.0296C24.1858 30.7599 24.4047 30.5392 24.6723 30.5392C24.9399 30.5392 25.1589 30.7599 25.1589 31.0296V31.9452C25.1832 31.948 25.2075 31.9507 25.2318 31.9534V31.9561Z" fill="#E8FDF8"/>
<path d="M32.0137 35.6185C32.0137 34.3705 31.7001 33.1334 31.1082 32.0461C30.9919 31.8335 30.746 31.7436 30.527 31.8172C30.5 31.8254 30.473 31.8363 30.4459 31.8526C30.2108 31.9834 30.1243 32.2804 30.254 32.5175C30.7676 33.4631 31.0379 34.534 31.0379 35.6185C31.0379 39.1828 28.1619 42.0794 24.6291 42.0794C21.0962 42.0794 18.2203 39.1801 18.2203 35.6185C18.2203 32.057 21.0962 29.1576 24.6291 29.1576C25.9968 29.1576 27.3023 29.5854 28.4052 30.3975C28.6214 30.5583 28.9268 30.5092 29.0863 30.2912C29.0971 30.2749 29.1079 30.2558 29.1161 30.2394C29.235 30.0269 29.1809 29.7544 28.9809 29.6045C27.7105 28.6699 26.2076 28.1766 24.6318 28.1766C22.6099 28.1766 20.7746 29.0023 19.4393 30.3348C19.1582 30.6155 18.8987 30.9207 18.6662 31.245C17.777 32.4739 17.2499 33.9863 17.2499 35.6213C17.2499 38.1309 18.4879 40.3518 20.38 41.7007C21.4855 42.4909 22.8154 42.9814 24.2534 43.055C24.3804 43.0604 24.5074 43.0659 24.6345 43.0659C24.6345 43.0659 24.6345 43.0659 24.6372 43.0659C24.6939 43.0659 24.7507 43.0631 24.8075 43.0604C24.8777 43.0604 24.948 43.0604 25.0183 43.055C26.4536 42.9814 27.7808 42.4882 28.8863 41.7034C30.7784 40.3545 32.0191 38.1337 32.0191 35.624L32.0137 35.6185Z" fill="#0E172A" stroke="#0E172A" stroke-width="0.4" stroke-miterlimit="10"/>
<path d="M25.1589 31.0297C25.1589 30.7599 24.9399 30.5392 24.6723 30.5392C24.4047 30.5392 24.1858 30.7599 24.1858 31.0297V31.9752C23.2857 32.1605 22.5748 32.7846 22.437 33.6211C22.3424 34.1961 22.5262 34.7738 22.9505 35.2507C23.3479 35.6948 23.9182 35.9973 24.5534 36.1036C24.9724 36.1744 25.3427 36.3652 25.5914 36.6458C25.813 36.8965 25.913 37.1827 25.8671 37.4579C25.7698 38.0574 25.0021 38.4525 24.1912 38.3162C23.875 38.2645 23.583 38.1391 23.3506 37.9565C23.137 37.7903 22.8316 37.8312 22.6667 38.0437C22.5018 38.259 22.5424 38.5669 22.7532 38.7304C23.1154 39.0111 23.556 39.2019 24.0317 39.2809C24.1507 39.3 24.2669 39.3109 24.3831 39.3163V40.251C24.3831 40.5207 24.6021 40.7415 24.8697 40.7415C25.1373 40.7415 25.3562 40.5207 25.3562 40.251V39.191C26.1239 38.943 26.705 38.3653 26.8266 37.6159C26.9212 37.041 26.7374 36.4633 26.3131 35.9864C25.9157 35.5422 25.3454 35.2398 24.7102 35.1335C24.2912 35.0626 23.9209 34.8719 23.6722 34.5912C23.4479 34.3405 23.3506 34.0544 23.3965 33.7792C23.4938 33.1797 24.2642 32.7846 25.0724 32.9208C25.3886 32.9726 25.6806 33.0979 25.913 33.2805C26.1266 33.4467 26.432 33.4059 26.5969 33.1933C26.7618 32.978 26.7212 32.6701 26.5104 32.5066C26.1482 32.2259 25.7076 32.0352 25.2319 31.9562C25.2075 31.9534 25.1832 31.9507 25.1589 31.948V31.0324V31.0297Z" fill="#0E172A" stroke="#0E172A" stroke-width="0.4" stroke-miterlimit="10"/>
</svg>
