<svg width="45" height="48" viewBox="0 0 45 48" fill="none" xmlns="http://www.w3.org/2000/svg">
<path d="M41.5633 29.1707C41.5469 29.1653 41.5305 29.1625 41.5142 29.1571C41.4377 29.1271 41.3722 29.0807 41.3231 29.0234C40.9301 28.8106 40.4853 28.6879 40.0132 28.6879C39.9504 28.6879 39.8904 28.6879 39.8276 28.6933L39.0417 28.7452C37.5271 28.8461 36.3782 30.161 36.4791 31.675L37.0713 40.4726C37.1723 41.9866 38.485 43.1323 40.0023 43.0341L40.7882 42.9823C42.3028 42.8814 43.4517 41.5665 43.3508 40.0525L42.7586 31.2549C42.6985 30.3819 42.2346 29.6317 41.5633 29.1707ZM38.5232 33.4918C38.5232 33.4918 38.5014 33.4918 38.4904 33.4918C38.2339 33.4918 38.0183 33.2926 38.0019 33.0335L37.9719 32.5997C37.9528 32.3297 38.1575 32.0951 38.4304 32.076C38.7033 32.0569 38.9353 32.2615 38.9544 32.5343L38.9844 32.968C39.0035 33.2381 38.7988 33.4727 38.5259 33.4918H38.5232Z" fill="#E8FDF8"/>
<path d="M3.84031 42.2948L4.62626 42.3248C5.36036 42.3521 6.05898 42.0902 6.59932 41.5883C7.13966 41.0864 7.45352 40.4071 7.48081 39.676L7.81101 30.8647C7.8383 30.1337 7.5763 29.4326 7.07416 28.8924C6.57203 28.3523 5.89254 28.0386 5.16117 28.0113L4.37522 27.9813C2.85517 27.9267 1.57797 29.1107 1.52066 30.6274L1.19047 39.4387C1.13316 40.9554 2.32026 42.2348 3.83758 42.2921L3.84031 42.2948ZM5.43407 32.1851C5.44498 31.915 5.67422 31.7104 5.94439 31.7131C6.21456 31.724 6.42741 31.9505 6.4165 32.2233L6.40011 32.657C6.38919 32.9216 6.17362 33.1289 5.90891 33.1289C5.90345 33.1289 5.89525 33.1289 5.88979 33.1289C5.61962 33.118 5.40676 32.8916 5.41768 32.6188L5.43407 32.1851Z" fill="#E8FDF8"/>
<path d="M38.4276 32.0786C38.1575 32.0977 37.9528 32.3296 37.9692 32.6024L37.9992 33.0361C38.0156 33.2953 38.2312 33.4944 38.4877 33.4944C38.4986 33.4944 38.5095 33.4944 38.5204 33.4944C38.7906 33.4753 38.9953 33.2434 38.9789 32.9707L38.9489 32.5369C38.9298 32.2668 38.6978 32.0595 38.4249 32.0786H38.4276Z" fill="#0E172A" stroke="#0E172A" stroke-width="0.4" stroke-miterlimit="10"/>
<path d="M3.80215 43.2769L4.5881 43.3069C4.6345 43.3069 4.68362 43.3096 4.73002 43.3096C5.67152 43.3096 6.56664 42.9577 7.26526 42.3112C7.60912 41.992 7.88201 41.621 8.08123 41.2146L11.5934 45.7948C11.5934 45.7948 11.6071 45.8139 11.6153 45.8221C12.5431 46.8669 13.8394 47.4261 15.163 47.4261C15.8316 47.4261 16.5056 47.2843 17.1469 46.9924L23.3499 44.1662C25.6423 43.1241 26.7257 40.4699 25.817 38.1238L24.5807 34.9267C24.4825 34.673 24.1987 34.5475 23.9449 34.6457C23.6911 34.7439 23.5655 35.0276 23.6638 35.2813L24.9 38.4785C25.6205 40.3389 24.7608 42.4449 22.9406 43.2715L16.7376 46.1003C15.2257 46.7905 13.4683 46.4222 12.3576 45.1837L8.42509 40.0607C8.43873 39.9488 8.44964 39.8342 8.4551 39.7197L8.7853 30.9084C8.7853 30.8648 8.7853 30.8211 8.7853 30.7775L15.5532 29.7245C15.8207 29.6836 16.0035 29.4326 15.9626 29.1625C15.9216 28.8952 15.6705 28.7097 15.4004 28.7533L8.65977 29.8036C8.50422 29.2253 8.2095 28.6879 7.78651 28.2323C7.10699 27.4985 6.18459 27.0756 5.19123 27.0374L4.40528 27.0074C2.34489 26.9338 0.609233 28.5405 0.532821 30.6001L0.202623 39.4114C0.126211 41.4683 1.73633 43.206 3.79399 43.2824L3.80215 43.2769ZM1.52345 30.6302C1.58076 29.1134 2.85795 27.9295 4.378 27.984L5.16392 28.0141C5.89529 28.0413 6.57481 28.355 7.07694 28.8952C7.57908 29.4353 7.84108 30.1364 7.81379 30.8675L7.48356 39.6787C7.45627 40.4098 7.14244 41.0891 6.6021 41.591C6.06176 42.093 5.36314 42.3521 4.62904 42.3276L3.84309 42.2976C2.32577 42.2403 1.13867 40.9609 1.19598 39.4441L1.52618 30.6329L1.52345 30.6302Z" fill="#0E172A" stroke="#0E172A" stroke-width="0.4" stroke-miterlimit="10"/>
<path d="M5.88987 33.129C5.88987 33.129 5.90353 33.129 5.90899 33.129C6.17098 33.129 6.38928 32.9216 6.40019 32.657L6.41658 32.2233C6.4275 31.9532 6.21464 31.7241 5.94447 31.7132C5.67703 31.7104 5.44507 31.915 5.43415 32.1851L5.41776 32.6188C5.40684 32.8889 5.6197 33.1181 5.88987 33.129Z" fill="#0E172A" stroke="#0E172A" stroke-width="0.4" stroke-miterlimit="10"/>
<path d="M1.82637 24.8251C2.09381 24.7869 2.28212 24.536 2.24118 24.2686C2.12929 23.4993 2.06654 22.7055 2.04744 21.9035H13.34C13.3537 23.2074 13.4109 24.5223 13.5228 25.8154C13.5447 26.0718 13.7603 26.2655 14.0113 26.2655C14.025 26.2655 14.0386 26.2655 14.055 26.2655C14.3252 26.2437 14.5244 26.0036 14.5026 25.7335C14.3934 24.465 14.3361 23.1802 14.3224 21.9035H39.2054C39.4756 21.9035 39.6966 21.6825 39.6966 21.4125C39.6966 21.1424 39.4756 20.9214 39.2054 20.9214H14.3224C14.3525 17.8034 14.669 14.7781 15.2394 12.0583C17.5481 12.1838 19.8978 12.2466 22.2802 12.2466C24.6626 12.2466 27.0095 12.1811 29.3155 12.0583C29.6812 13.796 29.9514 15.6838 30.1015 17.6752C30.1206 17.9343 30.3362 18.1307 30.59 18.1307C30.6036 18.1307 30.6145 18.1307 30.6282 18.1307C30.8984 18.1116 31.1003 17.8743 31.0812 17.6042C30.9311 15.6074 30.6719 13.7306 30.3198 12.001C33.5209 11.8019 36.6402 11.4855 39.6475 11.0463C41.4678 14.0797 42.5184 17.6288 42.5184 21.4179C42.5184 22.6373 42.4093 23.854 42.1937 25.0324C42.0136 26.0391 41.7489 27.0293 41.4186 27.9868C40.9083 27.7795 40.3461 27.6758 39.7594 27.7167L38.9734 27.7686C37.4452 27.8722 36.1953 28.8843 35.7068 30.2401L32.4785 27.0211C31.395 25.7908 29.8368 25.1416 28.2021 25.2343C28.1857 25.2343 28.1694 25.2343 28.153 25.2398L24.2396 25.859C23.0006 25.9354 21.8244 26.4482 20.9266 27.3021L17.9548 30.1201C17.1006 30.9303 16.9423 32.2369 17.5754 33.2272C18.0421 33.9556 18.8389 34.362 19.6576 34.362C20.0561 34.362 20.4572 34.2665 20.8256 34.0647L24.4552 32.0924C24.6926 31.9642 24.7827 31.6641 24.6517 31.4268C24.5234 31.1894 24.2232 31.0994 23.9858 31.2303L20.3563 33.2026C19.6767 33.5709 18.8198 33.35 18.405 32.7007C18.0257 32.106 18.1212 31.3204 18.6343 30.8321L21.6061 28.0141C22.3429 27.313 23.309 26.8956 24.3242 26.8383C24.3406 26.8383 24.3569 26.8383 24.3733 26.8329L28.284 26.2136C29.6157 26.1427 30.8765 26.6774 31.7525 27.6786C31.7607 27.6867 31.7689 27.6949 31.7744 27.7031L35.4912 31.4077C35.4912 31.5168 35.4912 31.6286 35.4967 31.7405L36.0889 40.5381C36.0944 40.6199 36.108 40.7018 36.1162 40.7836L27.9565 42.1885C27.6891 42.2349 27.5089 42.4886 27.5553 42.7559C27.5963 42.996 27.8037 43.1624 28.0384 43.1624C28.0657 43.1624 28.0929 43.1624 28.123 43.1542L36.3727 41.7329C36.5911 42.2485 36.9213 42.715 37.3579 43.0942C38.0456 43.6971 38.908 44.019 39.8113 44.019C39.8959 44.019 39.9804 44.0162 40.065 44.0108L40.851 43.9589C42.9059 43.8198 44.4669 42.0357 44.3277 39.9816L43.7356 31.184C43.6619 30.0737 43.1024 29.108 42.2837 28.4778C42.6603 27.4167 42.9578 26.3173 43.157 25.2016C43.3835 23.9658 43.4954 22.6891 43.4954 21.4125C43.4954 17.3587 42.3492 13.5669 40.368 10.3397C40.3434 10.2715 40.3052 10.2142 40.2561 10.1651C36.4983 4.18548 29.8477 0.199951 22.2775 0.199951C14.7072 0.199951 8.05395 4.18548 4.29612 10.1624C4.247 10.2115 4.20606 10.2715 4.18149 10.3397C2.20024 13.5642 1.05408 17.356 1.05408 21.4097C1.05408 22.4245 1.12504 23.4339 1.26695 24.405C1.30515 24.6724 1.55347 24.8579 1.82364 24.8197L1.82637 24.8251ZM42.7558 31.2522L43.348 40.0498C43.449 41.5638 42.3001 42.8787 40.7855 42.9796L39.9995 43.0314C38.4822 43.1324 37.1696 41.9839 37.0686 40.4699L36.4764 31.6723C36.3755 30.1583 37.5243 28.8434 39.0389 28.7425L39.8249 28.6906C39.8877 28.6852 39.9504 28.6852 40.0105 28.6852C40.4826 28.6852 40.9302 28.8079 41.3204 29.0207C41.3723 29.078 41.435 29.1271 41.5114 29.1544C41.5278 29.1598 41.5442 29.1626 41.5606 29.168C42.2319 29.629 42.6958 30.3792 42.7558 31.2522ZM39.0663 10.1297C36.1735 10.5389 33.1798 10.8362 30.1069 11.0244C29.0672 6.51242 27.3725 3.11067 25.323 1.41116C31.0321 2.27592 35.9688 5.53581 39.0663 10.1297ZM22.2775 1.18201C25.0856 1.18201 27.6727 5.15117 29.0945 11.0872C26.8594 11.2045 24.5835 11.2645 22.2775 11.2645C19.9715 11.2645 17.69 11.2045 15.4523 11.0872C15.8889 9.24855 16.4456 7.57086 17.106 6.13051C17.2179 5.88499 17.1115 5.5931 16.8632 5.47853C16.6175 5.36395 16.3255 5.47307 16.2109 5.72131C15.5041 7.25988 14.9174 9.05759 14.4589 11.0272C11.3806 10.8389 8.38142 10.5416 5.48323 10.1324C9.12371 4.73925 15.2912 1.18474 22.2747 1.18474L22.2775 1.18201ZM4.90742 11.0408C7.9175 11.48 11.0422 11.7965 14.2488 11.9956C13.6839 14.7481 13.3673 17.7925 13.3373 20.9187H2.05017C2.13749 17.3151 3.16632 13.9406 4.90742 11.0381V11.0408Z" fill="#0E172A" stroke="#0E172A" stroke-width="0.4" stroke-miterlimit="10"/>
</svg>
