<svg width="46" height="45" viewBox="0 0 46 45" fill="none" xmlns="http://www.w3.org/2000/svg">
<path d="M8.11134 29.6891C7.92849 29.2881 7.91488 28.838 8.07043 28.426C8.22871 28.0114 8.54254 27.6813 8.94916 27.504C9.79787 27.1139 10.2563 26.1946 10.0544 25.2753L8.96008 20.2395C8.82909 19.6421 8.44156 19.1456 7.89031 18.8755C7.34178 18.6054 6.70866 18.6027 6.1574 18.8646L6.00456 18.9382C3.30831 20.2177 1.77736 23.0493 2.19763 25.9791C2.78982 30.1201 4.41355 33.7537 7.02247 36.7817C11.0996 41.5147 16.3338 43.1897 20.007 43.7626C22.9489 44.2208 25.8935 42.6605 27.1679 39.9734L27.2034 39.8998C27.4654 39.3487 27.4599 38.7159 27.1897 38.1675C26.9196 37.6192 26.4229 37.2291 25.8252 37.1009C25.5769 37.0464 25.4213 36.8036 25.4732 36.5553C25.4841 36.5062 25.5032 36.4626 25.5278 36.4216C25.0448 36.3371 24.4116 36.3125 23.1754 36.0452C22.3294 35.8624 21.8054 35.6987 21.4206 35.5842C21.4206 35.6142 21.4179 35.6442 21.4098 35.6742C21.3552 35.9224 21.115 36.0779 20.864 36.0261C19.9088 35.8188 18.9373 36.2771 18.5525 37.1173C18.3669 37.5237 18.034 37.832 17.6164 37.9875C17.4281 38.0584 17.2317 38.0912 17.0352 38.0912C16.7977 38.0912 16.5603 38.0393 16.3365 37.9384C14.358 37.0273 12.6033 35.7669 11.1242 34.1929C10.9495 34.0074 10.9604 33.7183 11.1433 33.5437C11.1842 33.5055 11.2279 33.4782 11.277 33.4591C10.4119 32.2834 9.54408 31.1076 8.67899 29.9319C8.45521 30.0137 8.20415 29.9128 8.10318 29.6945L8.11134 29.6891Z" fill="#E8FDF8"/>
<path d="M19.3384 6.35433C19.4039 6.57529 19.6195 6.70896 19.846 6.67622C20.6401 6.55892 21.4479 6.49891 22.2612 6.49891C23.7539 6.49891 25.233 6.69532 26.6576 7.08269C26.9086 7.15089 27.1706 6.99539 27.2252 6.73897C27.2798 6.49618 27.1133 6.25612 26.8731 6.19065C25.3777 5.78691 23.8249 5.57959 22.2612 5.57959C21.3988 5.57959 20.5474 5.64233 19.7068 5.76782C19.4339 5.80874 19.2565 6.0788 19.3357 6.34342V6.35433H19.3384Z" fill="#0E172A" stroke="#0E172A" stroke-width="0.4" stroke-miterlimit="10"/>
<path d="M32.4103 8.79298C31.9846 8.4929 31.5425 8.20919 31.095 7.95004C30.8766 7.82183 30.5955 7.89821 30.4673 8.11644C30.339 8.33468 30.4154 8.61566 30.6337 8.74387C31.0567 8.98939 31.477 9.25945 31.8809 9.54316C31.9601 9.60045 32.0528 9.62773 32.1456 9.62773C32.2903 9.62773 32.4322 9.55953 32.5222 9.43404C32.6696 9.22672 32.6177 8.94028 32.4103 8.7957V8.79298Z" fill="#0E172A" stroke="#0E172A" stroke-width="0.4" stroke-miterlimit="10"/>
<path d="M35.6442 12.9123C35.7451 12.9123 35.8461 12.8796 35.9307 12.8114C36.1272 12.6532 36.16 12.364 36.0017 12.1676C35.7315 11.8321 35.445 11.502 35.1502 11.1855C34.9783 11 34.6863 10.9891 34.5007 11.1637C34.3152 11.3356 34.3042 11.6275 34.4789 11.813C34.7572 12.113 35.0301 12.4267 35.2839 12.7432C35.374 12.855 35.5077 12.915 35.6414 12.915L35.6442 12.9123Z" fill="#0E172A" stroke="#0E172A" stroke-width="0.4" stroke-miterlimit="10"/>
<path d="M32.6914 36.2389C32.4949 36.3971 32.4622 36.6863 32.6205 36.8827C32.7105 36.9972 32.8442 37.0545 32.978 37.0545C33.0789 37.0545 33.1799 37.0218 33.2645 36.9536C37.4699 33.5873 39.8823 28.5733 39.8823 23.1938C39.8823 20.3868 39.2055 17.5961 37.9256 15.1191C37.8083 14.8927 37.5299 14.8054 37.3062 14.9227C37.0797 15.04 36.9923 15.3155 37.1097 15.5419C38.3404 17.9234 38.9654 20.4986 38.9654 23.1966C38.9654 28.2951 36.6785 33.0499 32.6914 36.2389Z" fill="#0E172A" stroke="#0E172A" stroke-width="0.4" stroke-miterlimit="10"/>
<path d="M21.7208 1.11927C34.2633 1.11927 44.467 11.3191 44.467 23.8567C44.467 30.7993 41.3532 37.2727 35.9253 41.6184C35.7288 41.7766 35.696 42.0657 35.8543 42.2622C35.9444 42.3767 36.0781 42.434 36.2118 42.434C36.3128 42.434 36.4137 42.4013 36.4983 42.3331C42.1446 37.8156 45.384 31.0803 45.384 23.8567C45.384 10.8117 34.7682 0.199951 21.7181 0.199951C21.4643 0.199951 21.2596 0.404547 21.2596 0.658246C21.2596 0.911945 21.4643 1.11654 21.7181 1.11654L21.7208 1.11927Z" fill="#0E172A" stroke="#0E172A" stroke-width="0.4" stroke-miterlimit="10"/>
<path d="M11.1297 34.1874C12.6088 35.7614 14.3635 37.0217 16.342 37.9329C16.5658 38.0365 16.8005 38.0856 17.0407 38.0856C17.2372 38.0856 17.4336 38.0502 17.6219 37.982C18.0395 37.8265 18.3724 37.5182 18.558 37.1118C18.9428 36.2716 19.9143 35.8133 20.8694 36.0206C21.1205 36.0751 21.3606 35.9169 21.4152 35.6687C21.4207 35.6387 21.4261 35.6087 21.4261 35.5787C21.4289 35.3632 21.2815 35.1695 21.0659 35.1231C19.6932 34.8257 18.2878 35.4996 17.7256 36.7299C17.641 36.9126 17.4937 37.0518 17.3054 37.1199C17.1171 37.1909 16.9124 37.1827 16.7296 37.0981C14.8575 36.2361 13.201 35.0467 11.801 33.5573C11.6645 33.4127 11.4571 33.3772 11.2852 33.4509C11.2388 33.4727 11.1924 33.5 11.1515 33.5354C10.9659 33.71 10.9577 33.9992 11.1324 34.1847L11.1297 34.1874Z" fill="#0E172A" stroke="#0E172A" stroke-width="0.4" stroke-miterlimit="10"/>
<path d="M5.7671 18.0326L5.6143 18.1062C2.55236 19.5602 0.81397 22.7738 1.29154 26.1073C1.91103 30.4229 3.60575 34.2175 6.32929 37.3792C10.5893 42.3222 16.0418 44.0708 19.8678 44.6683C20.2553 44.7283 20.6456 44.7583 21.0304 44.7583C23.9586 44.7583 26.7176 43.0615 28.0002 40.3608L28.033 40.2926C28.415 39.4852 28.4096 38.5631 28.0166 37.7611C27.6236 36.9591 26.895 36.3917 26.0217 36.2007C25.8225 36.1571 25.6287 36.2525 25.5305 36.4189C25.5059 36.4599 25.4868 36.5035 25.4759 36.5526C25.4213 36.8009 25.5796 37.0436 25.8279 37.0982C26.4256 37.2291 26.9223 37.6165 27.1924 38.1648C27.4626 38.7131 27.4681 39.346 27.2061 39.8971L27.1706 39.9707C25.8934 42.6605 22.9516 44.2181 20.0097 43.7598C16.3365 43.187 11.1023 41.512 7.02516 36.779C4.41624 33.751 2.79251 30.1174 2.20032 25.9764C1.78006 23.0438 3.31101 20.2149 6.00725 18.9355L6.16009 18.8619C6.71135 18.6 7.34447 18.6027 7.893 18.8728C8.44153 19.1429 8.83175 19.6393 8.96274 20.2368L10.0571 25.2726C10.2563 26.1919 9.80057 27.1112 8.95185 27.5013C8.5425 27.6786 8.2314 28.006 8.07312 28.4233C7.91484 28.8353 7.92846 29.2854 8.11403 29.6864C8.215 29.9073 8.46607 30.0055 8.68984 29.9237C8.70076 29.921 8.71171 29.9182 8.72262 29.9128C8.95459 29.8064 9.05555 29.5363 8.94912 29.3045C8.86998 29.1299 8.86177 28.9307 8.93273 28.7507C9.00368 28.5652 9.14288 28.4206 9.33118 28.3388C10.5811 27.7632 11.2497 26.4237 10.9577 25.0789L9.86333 20.0431C9.67229 19.1701 9.10467 18.4445 8.30235 18.049C7.50002 17.6561 6.57762 17.6479 5.76983 18.0326H5.7671Z" fill="#0E172A" stroke="#0E172A" stroke-width="0.4" stroke-miterlimit="10"/>
<path d="M26.5184 22.149L22.4058 24.9261L16.3311 14.7099C16.2028 14.4917 15.919 14.4208 15.7034 14.549C15.4851 14.6772 15.4142 14.9609 15.5424 15.1764L21.8655 25.8099C21.931 25.9191 22.0374 25.9955 22.1602 26.0227C22.193 26.0309 22.2285 26.0336 22.2612 26.0336C22.3513 26.0336 22.4413 26.0064 22.5177 25.9545L27.0342 22.9047C27.2443 22.7628 27.2989 22.4764 27.157 22.2691C27.0151 22.059 26.7313 22.0045 26.5184 22.1463V22.149Z" fill="#0E172A" stroke="#0E172A" stroke-width="0.4" stroke-miterlimit="10"/>
<path d="M0.639376 5.01478C0.879528 5.01478 1.07604 4.81836 1.07604 4.5783C1.07604 2.89516 2.44598 1.52573 4.12977 1.52573H4.19526C5.87905 1.52573 7.24903 2.89516 7.24903 4.5783C7.24903 5.16754 7.01979 5.72404 6.60226 6.14142L0.429272 12.312C0.303738 12.4375 0.265505 12.6257 0.33373 12.7867C0.401955 12.9476 0.560265 13.0568 0.737649 13.0568H7.68566C7.92581 13.0568 8.12229 12.8603 8.12229 12.6203C8.12229 12.3802 7.92581 12.1838 7.68566 12.1838H1.79104L7.21628 6.76066C7.80028 6.17688 8.11956 5.40487 8.11956 4.58103C8.11956 2.41504 6.35663 0.655518 4.19253 0.655518H4.12704C1.96022 0.655518 0.200012 2.41777 0.200012 4.58103C0.200012 4.82109 0.396526 5.0175 0.636678 5.0175L0.639376 5.01478Z" fill="#0E172A" stroke="#0E172A" stroke-width="0.4" stroke-miterlimit="10"/>
<path d="M8.98466 8.70304H14.5327V12.6204C14.5327 12.8604 14.7292 13.0568 14.9693 13.0568C15.2095 13.0568 15.406 12.8604 15.406 12.6204V8.70304H17.4636C17.7038 8.70304 17.9003 8.50663 17.9003 8.26657C17.9003 8.02651 17.7038 7.83009 17.4636 7.83009H15.406V1.08934C15.406 0.906567 15.2914 0.740163 15.1167 0.67742C14.9448 0.614677 14.751 0.666509 14.6309 0.808362L8.64626 7.98559C8.5371 8.11653 8.51528 8.29657 8.58623 8.44934C8.65719 8.6021 8.81273 8.70031 8.98193 8.70031L8.98466 8.70304ZM14.5327 2.29509V7.83009H9.91795L14.5327 2.29509Z" fill="#0E172A" stroke="#0E172A" stroke-width="0.4" stroke-miterlimit="10"/>
</svg>
