<svg width="53" height="46" viewBox="0 0 53 46" fill="none" xmlns="http://www.w3.org/2000/svg">
<path d="M19.4421 9.10951H19.554C19.5158 9.06041 19.4776 9.0113 19.4421 8.95947V9.10951Z" fill="#E8FDF8"/>
<path d="M19.4421 3.07802C19.4749 3.07256 19.5076 3.06711 19.5404 3.06711C19.8269 3.06711 20.0561 3.29898 20.0561 3.58269V7.61187C20.0561 8.3566 20.662 8.95947 21.4043 8.95947H29.6267C30.3717 8.95947 30.9749 8.35387 30.9749 7.61187V3.58269C30.9749 3.30171 31.1986 3.07529 31.477 3.06711V1.2312H19.4394V3.07529L19.4421 3.07802Z" fill="#E8FDF8"/>
<path d="M13.8996 25.3189L17.0024 22.2173L13.8996 19.1156C11.277 16.494 7.00613 16.494 4.38357 19.1156L1.2807 22.2173L4.38357 25.3189C7.00613 27.9405 11.277 27.9405 13.8996 25.3189ZM9.1402 19.7566C10.4965 19.7566 11.6017 20.8615 11.6017 22.2173C11.6017 23.573 10.4965 24.6779 9.1402 24.6779C8.89459 24.6779 8.69264 24.4787 8.69264 24.2305C8.69264 23.9822 8.89186 23.7831 9.1402 23.7831C10.0053 23.7831 10.7094 23.0793 10.7094 22.2145C10.7094 21.3498 10.0053 20.646 9.1402 20.646C8.27511 20.646 7.57103 21.3498 7.57103 22.2145C7.57103 22.46 7.37181 22.6619 7.12347 22.6619C6.87513 22.6619 6.67591 22.4628 6.67591 22.2145C6.67591 20.8587 7.78116 19.7539 9.13747 19.7539L9.1402 19.7566Z" fill="#E8FDF8"/>
<path d="M45.5068 40.0662C45.5832 40.1044 45.6623 40.1235 45.7415 40.1235C45.9298 40.1235 46.1099 40.0199 46.2027 39.8425C46.3336 39.5888 46.2327 39.2779 45.9789 39.1469C44.9773 38.6341 44.4998 37.4474 44.8682 36.3835L45.837 33.5846C45.9298 33.3146 45.7878 33.0199 45.5177 32.9272C45.2475 32.8344 44.9528 32.9763 44.86 33.2464L43.8912 36.0452C43.8339 36.2089 43.7957 36.3726 43.7657 36.539L29.7796 43.6999C28.0494 44.5837 25.9835 44.5919 24.2506 43.719L7.61195 35.3496C6.95153 35.0168 6.4958 34.4085 6.36208 33.6828C6.22836 32.9572 6.43849 32.2288 6.9379 31.6805C7.59285 30.9603 8.70082 30.7257 9.60684 31.1213L21.9719 36.5663C22.2339 36.6809 22.5395 36.5635 22.6542 36.3017C22.7688 36.0398 22.6514 35.7343 22.3895 35.6197L10.0217 30.1747C9.58775 29.9865 9.13201 29.891 8.66262 29.891C7.71293 29.891 6.80691 30.2893 6.17378 30.9849C5.45333 31.7705 5.1504 32.8235 5.34416 33.8683C5.53519 34.9159 6.19288 35.7915 7.1453 36.2717L23.784 44.641C24.791 45.1484 25.8908 45.4021 26.9933 45.4021C28.0958 45.4021 29.231 45.1402 30.249 44.6219L43.7657 37.7038C43.9431 38.6941 44.5653 39.5888 45.5095 40.0717L45.5068 40.0662Z" fill="#0E172A" stroke="#0E172A" stroke-width="0.4" stroke-miterlimit="10"/>
<path d="M10.1745 3.00974C10.1745 2.0304 10.9713 1.23384 11.951 1.23384H39.7158C40.6956 1.23384 41.4924 2.0304 41.4924 3.00974V20.9569C41.4487 20.9569 41.4051 20.9542 41.3614 20.9542C37.7155 20.9542 34.2306 22.0917 31.286 24.2413L23.7076 29.7736C22.7879 30.4447 22.2394 31.525 22.2394 32.6625C22.2394 33.5846 22.5887 34.4575 23.2218 35.1204C23.9122 35.8488 24.8483 36.2361 25.8089 36.2361C26.2455 36.2361 26.6876 36.1543 27.1133 35.9906L34.5717 33.0826C34.8364 32.979 34.9701 32.6789 34.8664 32.4143C34.7627 32.1469 34.4625 32.016 34.1978 32.1197L26.7395 35.0276C25.7734 35.4041 24.69 35.1613 23.975 34.4084C23.5247 33.9365 23.2791 33.3172 23.2791 32.6625C23.2791 31.8441 23.6584 31.0939 24.3216 30.6084L31.9 25.0761C34.6672 23.0574 37.9393 21.9881 41.3669 21.9881C42.614 21.9881 43.853 22.1299 45.0455 22.4136C46.1399 22.6728 47.2042 23.052 48.2194 23.5266L46.5247 28.4233C46.4319 28.6934 46.5738 28.988 46.844 29.0807C46.8986 29.0998 46.9559 29.108 47.0132 29.108C47.2288 29.108 47.428 28.9743 47.5016 28.7588L49.2237 23.7776C49.2564 23.6848 49.2946 23.5975 49.3383 23.513C49.3383 23.513 49.341 23.5103 49.3437 23.5075C49.3437 23.5075 49.3437 23.5021 49.3464 23.4993C49.8213 22.5582 50.9074 22.0481 51.9527 22.3236C52.2283 22.3973 52.5121 22.2308 52.5858 21.9553C52.6594 21.6798 52.493 21.3961 52.2174 21.3224C50.8692 20.9651 49.4665 21.5107 48.6833 22.5964C47.5945 22.0835 46.4537 21.6771 45.283 21.3988C44.3851 21.186 43.4627 21.0524 42.5322 20.9896V3.00974C42.5322 1.46026 41.2713 0.199951 39.7213 0.199951H11.9565C10.4064 0.199951 9.14563 1.46026 9.14563 3.00974V14.2407C9.48948 14.197 9.83608 14.1534 10.1799 14.1097V3.00974H10.1745Z" fill="#0E172A" stroke="#0E172A" stroke-width="0.4" stroke-miterlimit="10"/>
<path d="M30.9776 3.58541V7.61458C30.9776 8.35931 30.3718 8.96219 29.6295 8.96219H21.407C20.6647 8.96219 20.0589 8.35658 20.0589 7.61458V3.58541C20.0589 3.29897 19.8269 3.06982 19.5431 3.06982C19.5104 3.06982 19.4776 3.07255 19.4449 3.08074C19.2075 3.12711 19.0273 3.33716 19.0273 3.58813V7.61731C19.0273 8.11652 19.1829 8.58028 19.4449 8.96219C19.4804 9.01402 19.5186 9.06312 19.5568 9.11222C19.9934 9.65236 20.662 9.99881 21.4098 9.99881H29.6322C30.38 9.99881 31.0458 9.65236 31.4852 9.11222C31.8154 8.70303 32.0174 8.18199 32.0174 7.61731V3.58813C32.0174 3.3017 31.7854 3.07255 31.5016 3.07255C31.4961 3.07255 31.4934 3.07255 31.4879 3.07255C31.2096 3.08074 30.9858 3.30715 30.9858 3.58813L30.9776 3.58541Z" fill="#0E172A" stroke="#0E172A" stroke-width="0.4" stroke-miterlimit="10"/>
<path d="M28.7535 21.6798C28.7535 21.9663 28.9854 22.1954 29.2693 22.1954H31.7117C31.9082 22.1954 32.0883 22.0836 32.1757 21.9063C32.263 21.7289 32.2411 21.5189 32.1211 21.3634L26.2428 13.7197C26.0463 13.466 25.6179 13.466 25.4214 13.7197L19.5431 21.3634C19.423 21.5189 19.4012 21.7289 19.4885 21.9063C19.5759 22.0836 19.756 22.1954 19.9525 22.1954H21.8791V24.2086C21.8791 24.4951 22.1111 24.7242 22.3949 24.7242C22.6787 24.7242 22.9107 24.4924 22.9107 24.2086V21.6798C22.9107 21.3934 22.6787 21.1643 22.3949 21.1643H21.0004L25.828 14.8873L30.6556 21.1643H29.2611C28.9745 21.1643 28.7453 21.3961 28.7453 21.6798H28.7535Z" fill="#0E172A" stroke="#0E172A" stroke-width="0.4" stroke-miterlimit="10"/>
<path d="M3.75044 25.9491C6.72232 28.9198 11.5581 28.9198 14.53 25.9491L17.9494 22.531C18.124 22.3564 18.124 22.0727 17.9494 21.9008L14.53 18.4827C11.5581 15.512 6.72232 15.512 3.75044 18.4827L0.331004 21.9008C0.156348 22.0754 0.156348 22.3591 0.331004 22.531L3.75044 25.9491ZM4.38084 19.1128C7.0034 16.4913 11.2743 16.4913 13.8968 19.1128L16.9997 22.2145L13.8968 25.3162C11.2743 27.9377 7.0034 27.9377 4.38084 25.3162L1.27797 22.2145L4.38084 19.1128Z" fill="#0E172A" stroke="#0E172A" stroke-width="0.4" stroke-miterlimit="10"/>
<path d="M7.12616 22.6647C7.37177 22.6647 7.57372 22.4655 7.57372 22.2173C7.57372 21.3525 8.2778 20.6487 9.14289 20.6487C10.008 20.6487 10.7121 21.3525 10.7121 22.2173C10.7121 23.082 10.008 23.7858 9.14289 23.7858C8.89728 23.7858 8.69533 23.985 8.69533 24.2332C8.69533 24.4815 8.89456 24.6806 9.14289 24.6806C10.4992 24.6806 11.6044 23.5758 11.6044 22.22C11.6044 20.8642 10.4992 19.7594 9.14289 19.7594C7.78658 19.7594 6.68134 20.8642 6.68134 22.22C6.68134 22.4655 6.88056 22.6674 7.12889 22.6674L7.12616 22.6647Z" fill="#0E172A" stroke="#0E172A" stroke-width="0.4" stroke-miterlimit="10"/>
<path d="M1.87288 15.5829C2.04754 15.7575 2.33135 15.7575 2.50328 15.5829C2.67793 15.4083 2.67793 15.1246 2.50328 14.9527L1.56724 14.017C1.39258 13.8425 1.10877 13.8425 0.936839 14.017C0.762183 14.1916 0.762183 14.4753 0.936839 14.6472L1.87288 15.5829Z" fill="#0E172A" stroke="#0E172A" stroke-width="0.4" stroke-miterlimit="10"/>
<path d="M16.7159 14.0142L15.7798 14.9499C15.6051 15.1245 15.6051 15.4082 15.7798 15.5801C15.9545 15.7547 16.2383 15.7547 16.4102 15.5801L17.3463 14.6444C17.5209 14.4698 17.5209 14.1861 17.3463 14.0142C17.1716 13.8397 16.8878 13.8397 16.7159 14.0142Z" fill="#0E172A" stroke="#0E172A" stroke-width="0.4" stroke-miterlimit="10"/>
</svg>
