<svg width="35" height="28" viewBox="0 0 35 28" fill="none" xmlns="http://www.w3.org/2000/svg">
<path d="M23.4778 9.42848L23.4778 8.67848H23.4778V9.42848ZM33.3606 17.6248L34.1106 17.6248V17.6248H33.3606ZM30.2356 23.6052L29.7753 23.0131L29.7753 23.0132L30.2356 23.6052ZM29.8059 24.6677L29.0676 24.7996L29.0676 24.7996L29.8059 24.6677ZM30.137 26.5213L30.8755 26.3905L30.8753 26.3894L30.137 26.5213ZM29.7806 26.7732L29.4106 27.4256L29.4108 27.4257L29.7806 26.7732ZM27.8948 25.7039L28.2648 25.0515L28.2646 25.0514L27.8948 25.7039ZM26.2181 25.5017L26.3923 26.2312L26.3923 26.2312L26.2181 25.5017ZM23.4778 25.8211V26.5711H23.4778L23.4778 25.8211ZM13.594 17.6248H12.844V17.6248L13.594 17.6248ZM23.4778 9.42848L23.4778 10.1785C28.6594 10.1786 32.6106 13.6377 32.6106 17.6248H33.3606H34.1106C34.1106 12.5589 29.2129 8.67863 23.4778 8.67848L23.4778 9.42848ZM33.3606 17.6248L32.6106 17.6247C32.6106 19.7144 31.5481 21.6349 29.7753 23.0131L30.2356 23.6052L30.696 24.1974C32.7701 22.5849 34.1105 20.253 34.1106 17.6248L33.3606 17.6248ZM30.2356 23.6052L29.7753 23.0132C29.2549 23.4178 28.9413 24.0919 29.0676 24.7996L29.8059 24.6677L30.5443 24.5359C30.5261 24.4341 30.5673 24.2974 30.696 24.1973L30.2356 23.6052ZM29.8059 24.6677L29.0676 24.7996L29.3987 26.6531L30.137 26.5213L30.8753 26.3894L30.5443 24.5359L29.8059 24.6677ZM30.137 26.5213L29.3985 26.6521C29.3235 26.2284 29.7754 25.9082 30.1503 26.1207L29.7806 26.7732L29.4108 27.4257C30.1407 27.8393 31.0216 27.2156 30.8755 26.3905L30.137 26.5213ZM29.7806 26.7732L30.1505 26.1208L28.2648 25.0515L27.8948 25.7039L27.5249 26.3563L29.4106 27.4256L29.7806 26.7732ZM27.8948 25.7039L28.2646 25.0514C27.5653 24.6551 26.7623 24.6006 26.0438 24.7722L26.2181 25.5017L26.3923 26.2312C26.8074 26.132 27.2103 26.1781 27.5251 26.3564L27.8948 25.7039ZM26.2181 25.5017L26.0438 24.7722C25.2309 24.9664 24.3699 25.071 23.4778 25.0711L23.4778 25.8211L23.4778 26.5711C24.4872 26.571 25.4651 26.4526 26.3923 26.2312L26.2181 25.5017ZM23.4778 25.8211V25.0711C18.2961 25.0711 14.3442 21.6117 14.344 17.6247L13.594 17.6248L12.844 17.6248C12.8442 22.6907 17.7427 26.5711 23.4778 26.5711V25.8211ZM13.594 17.6248H14.344C14.344 13.6377 18.296 10.1785 23.4778 10.1785V9.42848V8.67848C17.7427 8.67848 12.844 12.5587 12.844 17.6248H13.594Z" fill="black"/>
<path d="M12.4453 0C18.628 0 23.9451 3.83614 24.7773 9.02539C24.3507 8.98039 23.917 8.95509 23.4775 8.95508C23.3963 8.95508 23.3152 8.95838 23.2344 8.95996C22.3723 4.81121 17.9791 1.5 12.4453 1.5C6.26291 1.50026 1.5002 5.63237 1.5 10.4492C1.50005 13.0071 2.81988 15.3482 5 17.0049C5.53103 17.4084 5.84268 18.0869 5.7168 18.793L5.47754 20.1348L6.99512 19.2754C7.69276 18.8801 8.49768 18.8203 9.22266 19.0029C10.2402 19.2594 11.3223 19.3984 12.4453 19.3984C12.743 19.3984 13.0374 19.386 13.3281 19.3672C13.4506 19.8734 13.6276 20.3611 13.8496 20.8291C13.3876 20.873 12.9191 20.8984 12.4453 20.8984C11.199 20.8984 9.9932 20.7448 8.85547 20.458C8.45057 20.3561 8.0505 20.4009 7.73438 20.5801L5.35645 21.9277C4.59384 22.3598 3.67208 21.7076 3.82617 20.8447L4.24023 18.5293C4.25845 18.4261 4.21618 18.293 4.09277 18.1992C1.60618 16.3097 5.09787e-05 13.5541 0 10.4492C0.000193038 4.55337 5.70952 0.000263836 12.4453 0Z" fill="black"/>
<circle cx="16.2079" cy="7.53012" r="1.35597" fill="black"/>
<circle cx="8.5468" cy="7.53012" r="1.35597" fill="black"/>
<circle cx="27.3807" cy="15.3653" r="1.35597" fill="black"/>
<circle cx="20.0165" cy="15.3653" r="1.35597" fill="black"/>
</svg>
