<svg width="26" height="26" viewBox="0 0 26 26" fill="none" xmlns="http://www.w3.org/2000/svg">
<path d="M2.42534 18.8497C0.936448 16.3377 0.415652 13.3687 0.960723 10.4999C1.50579 7.63113 3.07925 5.05998 5.38569 3.26912C7.69214 1.47825 10.573 0.590843 13.4873 0.773487C16.4017 0.95613 19.1492 2.19626 21.214 4.26107C23.2788 6.32588 24.5189 9.07337 24.7016 11.9877C24.8842 14.9021 23.9968 17.7829 22.2059 20.0894C20.4151 22.3958 17.8439 23.9693 14.9752 24.5143C12.1064 25.0594 9.13733 24.5386 6.62534 23.0497L2.47534 24.2247C2.30531 24.2744 2.12504 24.2775 1.95341 24.2336C1.78179 24.1897 1.62513 24.1004 1.49987 23.9752C1.3746 23.8499 1.28534 23.6933 1.24144 23.5216C1.19754 23.35 1.20061 23.1697 1.25034 22.9997L2.42534 18.8497Z" stroke="black" stroke-width="1.5" stroke-linecap="round" stroke-linejoin="round"/>
<path d="M15.7628 19.7247C14.4471 19.728 13.1436 19.4713 11.9273 18.9693C10.7111 18.4673 9.60598 17.7299 8.67558 16.7995C7.74518 15.8691 7.00779 14.764 6.50578 13.5477C6.00377 12.3315 5.74704 11.028 5.75034 9.71221C5.75365 8.78612 6.12386 7.89909 6.77987 7.24541C7.43589 6.59173 8.32424 6.2247 9.25034 6.22471V6.22471C9.40313 6.22349 9.55343 6.26348 9.68542 6.34047C9.8174 6.41746 9.92619 6.5286 10.0003 6.66221L11.4628 9.21221C11.5498 9.36722 11.5944 9.5424 11.5923 9.72013C11.5901 9.89786 11.5411 10.0719 11.4503 10.2247L10.2753 12.1872C10.8772 13.5261 11.949 14.5979 13.2878 15.1997L15.2503 14.0247C15.4032 13.9339 15.5772 13.885 15.7549 13.8828C15.9326 13.8806 16.1078 13.9252 16.2628 14.0122L18.8128 15.4747C18.9464 15.5489 19.0576 15.6576 19.1346 15.7896C19.2116 15.9216 19.2516 16.0719 19.2503 16.2247C19.2471 17.1498 18.879 18.0362 18.226 18.6916C17.573 19.3469 16.6879 19.7181 15.7628 19.7247V19.7247Z" stroke="black" stroke-width="1.5" stroke-linecap="round" stroke-linejoin="round"/>
</svg>
