<svg width="239" height="237" viewBox="0 0 239 237" fill="none" xmlns="http://www.w3.org/2000/svg">
<path d="M12.3184 207.541L27.4074 209.646C30.3934 210.064 33.1487 207.973 33.567 204.988L41.2268 150.078C41.4287 148.65 41.0537 147.208 40.1738 146.04C39.2938 144.872 38.01 144.123 36.5819 143.921L21.4931 141.815C21.2478 141.787 20.9882 141.758 20.7429 141.758C19.5601 141.758 18.4204 142.147 17.4539 142.868C16.2855 143.748 15.5354 145.031 15.3334 146.459L7.67353 201.369C7.47157 202.797 7.8466 204.239 8.72654 205.407C9.60649 206.575 10.8903 207.324 12.3184 207.526V207.541Z" fill="#E8FDF8"/>
<path d="M176.277 150.681C201.29 150.681 221.644 130.334 221.644 105.331C221.644 80.3267 201.29 59.9805 176.277 59.9805C151.263 59.9805 130.909 80.3267 130.909 105.331C130.909 130.334 151.263 150.681 176.277 150.681Z" fill="#E8FDF8"/>
<path d="M95.4249 14.1176C89.5394 9.82054 82.5718 7.55664 75.2726 7.55664C56.4043 7.55664 41.0703 22.8993 41.0703 41.7459C41.0703 60.5925 56.4188 75.9351 75.2726 75.9351C94.1265 75.9351 109.475 60.5925 109.475 41.7459C109.475 36.0068 108.033 30.3399 105.292 25.3362C104.902 24.6296 104.888 23.8221 105.162 23.13C103.07 19.8711 100.445 16.9727 97.4299 14.5502C96.7519 14.68 96.0308 14.5502 95.4249 14.1032V14.1176ZM86.986 52.33C86.106 57.6509 80.8265 61.3568 74.638 61.3568C73.8013 61.3568 72.9358 61.2847 72.0703 61.1405C69.5314 60.7223 67.1801 59.7129 65.2471 58.2277C64.1075 57.3481 63.9055 55.7186 64.7854 54.5939C65.6654 53.4547 67.2955 53.2528 68.4351 54.1325C69.6901 55.0986 71.2335 55.7619 72.9213 56.0359C77.2489 56.7569 81.3458 54.666 81.8651 51.4936C82.1103 50.0372 81.5766 48.5088 80.3937 47.1966C79.0521 45.7113 77.0903 44.7019 74.8544 44.327C71.4645 43.7647 68.4207 42.1641 66.3001 39.8136C64.0354 37.3046 63.0544 34.2332 63.5593 31.1906C64.5546 25.1343 71.2481 21.1977 78.4752 22.3801C81.014 22.7983 83.3653 23.8077 85.2983 25.2929C86.4379 26.1725 86.6398 27.802 85.7598 28.9267C84.8799 30.0659 83.2498 30.2678 82.1102 29.3882C80.8552 28.422 79.3117 27.7587 77.624 27.4847C73.2964 26.7638 69.1997 28.8546 68.6803 32.027C68.4351 33.4834 68.9689 35.0119 70.1518 36.3241C71.4933 37.8093 73.4551 38.8187 75.691 39.1936C79.081 39.756 82.1248 41.3566 84.2453 43.707C86.5101 46.2304 87.4908 49.2874 86.986 52.33Z" fill="#E8FDF8"/>
<path d="M75.2724 81.1362C96.9968 81.1362 114.668 63.472 114.668 41.7558C114.668 35.1516 112.995 28.605 109.835 22.8515C109.143 21.597 107.571 21.1356 106.316 21.8277C105.767 22.1305 105.378 22.6064 105.162 23.1543C104.888 23.8465 104.902 24.654 105.291 25.3605C108.032 30.3642 109.475 36.0312 109.475 41.7702C109.475 60.6313 94.1262 75.9595 75.2724 75.9595C56.4185 75.9595 41.07 60.6169 41.07 41.7702C41.07 22.9236 56.4185 7.58099 75.2724 7.58099C82.5716 7.58099 89.5391 9.84489 95.4246 14.142C96.0305 14.5746 96.7516 14.7188 97.4296 14.589C98.0643 14.4736 98.6413 14.1276 99.0452 13.5796C99.8963 12.426 99.6368 10.7966 98.4828 9.96025C91.7029 5.01428 83.6823 2.4043 75.2724 2.4043C53.5479 2.4043 35.877 20.0685 35.877 41.7847C35.877 63.5008 53.5479 81.165 75.2724 81.165V81.1362Z" fill="#006D77" stroke="#006D77" stroke-width="4.81" stroke-miterlimit="10"/>
<path d="M75.6823 39.1867C73.4464 38.8118 71.4702 37.8024 70.143 36.3171C68.9602 34.9905 68.4264 33.4764 68.6716 32.0201C69.1909 28.8477 73.3021 26.7568 77.6152 27.4778C79.303 27.7518 80.8609 28.4151 82.1015 29.3812C83.2411 30.2608 84.8712 30.0445 85.7511 28.9198C86.6311 27.7806 86.4148 26.1512 85.2896 25.286C83.3566 23.8008 81.0053 22.7914 78.4665 22.3732C71.2394 21.1908 64.5459 25.1418 63.5506 31.1837C63.0457 34.2263 64.0266 37.2833 66.2914 39.8067C68.4119 42.1571 71.4558 43.7577 74.8457 44.3201C77.0816 44.695 79.0578 45.7044 80.385 47.1896C81.5678 48.5163 82.1016 50.0303 81.8564 51.4867C81.3371 54.6591 77.2402 56.7499 72.9126 56.0289C71.2248 55.755 69.6669 55.0917 68.4263 54.1255C67.2867 53.2459 65.6566 53.4622 64.7767 54.587C63.8967 55.7261 64.1132 57.3556 65.2384 58.2207C67.1714 59.706 69.5227 60.7154 72.0615 61.1335C72.9271 61.2777 73.7926 61.3498 74.6293 61.3498C80.8033 61.3498 86.0973 57.644 86.9772 52.3231C87.4821 49.2805 86.5014 46.2235 84.2366 43.7001C82.1161 41.3496 79.0722 39.749 75.6823 39.1867Z" fill="#006D77" stroke="#006D77" stroke-width="4.81" stroke-miterlimit="10"/>
<path d="M178.591 100.307C175.597 99.8517 172.951 98.6263 171.174 96.8232C169.59 95.2126 168.875 93.3744 169.204 91.6063C169.899 87.7549 175.404 85.2165 181.179 86.0918C183.439 86.4244 185.525 87.2297 187.186 88.4026C188.712 89.4705 190.895 89.2079 192.073 87.8424C193.251 86.4594 192.962 84.4812 191.455 83.4308C188.867 81.6277 185.718 80.4022 182.319 79.8946C172.642 78.4591 163.679 83.2558 162.346 90.5909C161.67 94.2847 162.984 97.9961 166.016 101.06C168.856 103.913 172.932 105.856 177.471 106.539C180.465 106.994 183.111 108.22 184.888 110.023C186.472 111.633 187.186 113.472 186.858 115.24C186.163 119.091 180.677 121.63 174.882 120.754C172.622 120.422 170.536 119.616 168.875 118.443C167.349 117.376 165.167 117.638 163.988 119.004C162.81 120.387 163.1 122.365 164.606 123.415C167.195 125.218 170.343 126.444 173.743 126.951C174.902 127.127 176.061 127.214 177.181 127.214C185.448 127.214 192.537 122.715 193.715 116.255C194.391 112.561 193.078 108.85 190.045 105.786C187.206 102.933 183.13 100.99 178.591 100.307Z" fill="#006D77" stroke="#006D77" stroke-width="4.81" stroke-miterlimit="10"/>
<path d="M111.807 153.178L59.6469 154.867C58.2125 154.914 57.0877 156.115 57.1355 157.549C57.1833 158.982 58.3827 160.105 59.8153 160.058L111.851 158.369C113.351 158.47 114.808 158.874 116.178 159.551L149.775 176.278C152.53 177.648 154.578 180.013 155.574 182.955C156.569 185.896 156.353 189.025 154.982 191.779C153.612 194.534 151.246 196.581 148.303 197.576C145.361 198.557 142.23 198.34 139.475 196.985L105.879 180.258C104.595 179.624 103.037 180.143 102.402 181.426C101.767 182.709 102.287 184.267 103.57 184.901L137.167 201.628C139.504 202.796 142.043 203.387 144.596 203.387C146.399 203.387 148.202 203.099 149.962 202.508C150.525 202.32 151.073 202.104 151.607 201.859C151.693 201.83 151.766 201.816 151.852 201.787L212.453 177.23C219.362 174.432 227.268 177.778 230.066 184.685C231.422 188.016 231.379 191.693 229.965 195.024C228.551 198.355 225.94 200.936 222.608 202.291L163.537 226.199C154.449 229.876 144.308 230.208 134.989 227.137L51.7549 199.696C50.399 199.249 48.9276 199.984 48.4804 201.354C48.0332 202.71 48.7689 204.18 50.1393 204.627L133.373 232.068C138.119 233.626 143.053 234.404 147.986 234.404C153.944 234.404 159.901 233.265 165.498 231.001L224.57 207.093C229.186 205.219 232.807 201.657 234.754 197.043C236.702 192.428 236.759 187.338 234.884 182.724C231.004 173.164 220.069 168.535 210.505 172.414L160.233 192.789C161.676 189.126 161.805 185.118 160.536 181.325C159.108 177.071 156.122 173.639 152.141 171.649L118.544 154.923C116.51 153.913 114.346 153.336 112.096 153.207C112.024 153.207 111.937 153.207 111.865 153.207L111.807 153.178Z" fill="#006D77" stroke="#006D77" stroke-width="4.81" stroke-miterlimit="10"/>
<path d="M11.6094 212.689L26.6984 214.794C27.1889 214.867 27.6936 214.895 28.1696 214.895C33.3916 214.895 37.9789 211.031 38.7146 205.71L46.3745 150.8C46.764 147.988 46.0283 145.19 44.3116 142.912C42.595 140.634 40.0995 139.163 37.2865 138.774L22.1977 136.668C19.3848 136.279 16.5862 137.014 14.307 138.73C12.0278 140.446 10.5564 142.941 10.1669 145.753L2.50716 200.663C2.11767 203.475 2.85327 206.272 4.56988 208.551C6.28649 210.829 8.78206 212.3 11.595 212.689H11.6094ZM7.67135 201.384L15.3313 146.474C15.5332 145.046 16.2833 143.763 17.4517 142.883C18.4182 142.162 19.5579 141.773 20.7408 141.773C20.986 141.773 21.2457 141.787 21.4909 141.831L36.5797 143.936C38.0222 144.138 39.2916 144.888 40.1716 146.056C41.0515 147.224 41.4266 148.665 41.2246 150.093L33.5649 205.003C33.1465 207.988 30.3913 210.079 27.4052 209.661L12.3163 207.556C10.8882 207.354 9.60431 206.604 8.72437 205.436C7.84443 204.268 7.4694 202.826 7.67135 201.399V201.384Z" fill="#006D77" stroke="#006D77" stroke-width="4.81" stroke-miterlimit="10"/>
<path d="M176.275 155.872C204.16 155.872 226.836 133.204 226.836 105.33C226.836 77.4569 204.16 54.7891 176.275 54.7891C148.391 54.7891 125.715 77.4569 125.715 105.33C125.715 133.204 148.391 155.872 176.275 155.872ZM176.275 59.9802C201.289 59.9802 221.643 80.3264 221.643 105.33C221.643 130.334 201.289 150.68 176.275 150.68C151.262 150.68 130.908 130.334 130.908 105.33C130.908 80.3264 151.262 59.9802 176.275 59.9802Z" fill="#006D77" stroke="#006D77" stroke-width="4.81" stroke-miterlimit="10"/>
</svg>
