<svg width="222" height="237" viewBox="0 0 222 237" fill="none" xmlns="http://www.w3.org/2000/svg">
<path d="M93.5577 234.404C93.4739 234.404 93.3901 234.404 93.3063 234.404C41.4885 229.113 2.40527 186.461 2.40527 135.214V26.1695C2.40527 24.7837 3.53628 23.6498 4.91865 23.6498C40.3156 23.6498 72.9339 15.8669 92.1614 2.83474C93.0132 2.26082 94.1302 2.26082 94.9819 2.83474C114.195 15.8669 146.8 23.6498 182.211 23.6498C183.593 23.6498 184.724 24.7837 184.724 26.1695V118.697C184.724 120.082 183.593 121.216 182.211 121.216C180.828 121.216 179.697 120.082 179.697 118.697V28.6751C145.124 28.3252 113.26 20.6402 93.5716 7.94402C73.8694 20.6542 41.9912 28.3252 7.43203 28.6751V135.2C7.43203 183.773 44.4348 224.214 93.5577 229.351C102.606 228.399 111.431 226.229 119.795 222.912C121.079 222.394 122.546 223.024 123.062 224.326C123.579 225.614 122.937 227.083 121.652 227.601C112.785 231.129 103.416 233.424 93.823 234.404C93.7393 234.404 93.6554 234.404 93.5716 234.404H93.5577Z" fill="#006D77" stroke="#006D77" stroke-width="4.81" stroke-miterlimit="10"/>
<path d="M36.7081 184.206C35.9262 184.206 35.1582 183.843 34.6695 183.171C24.5181 169.117 19.1562 152.529 19.1562 135.199C19.1562 133.814 20.2873 132.68 21.6696 132.68C23.052 132.68 24.183 133.814 24.183 135.199C24.183 151.465 29.2099 167.031 38.7328 180.217C39.5427 181.351 39.2913 182.919 38.1743 183.731C37.7274 184.052 37.2108 184.206 36.7081 184.206Z" fill="#006D77" stroke="#006D77" stroke-width="4.81" stroke-miterlimit="10"/>
<path d="M194.654 144.609C191.107 138.8 183.972 136.449 177.689 138.996L140.127 155.276C138.982 155.78 137.642 155.346 136.986 154.282L117.227 121.891C115.147 118.475 110.679 117.397 107.272 119.483C103.865 121.569 102.789 126.048 104.87 129.45L143.213 192.287C143.772 193.211 143.688 194.372 143.004 195.198C142.32 196.024 141.188 196.332 140.183 195.954L115.65 186.743C111.977 185.372 107.872 187.233 106.504 190.915C105.135 194.596 107.006 198.712 110.665 200.084L164.368 222.606C164.633 222.606 164.912 222.662 165.177 222.746C175.915 226.568 187.602 225.28 197.251 219.219C214.37 208.468 219.509 185.33 208.715 167.636L194.64 144.567L194.654 144.609Z" fill="#E8FDF8"/>
<path d="M198.941 141.972C194.109 134.063 184.377 130.844 175.748 134.343L140.141 149.769L121.514 119.253C117.981 113.472 110.427 111.638 104.66 115.18C98.8936 118.721 97.0644 126.294 100.597 132.075L135.142 188.669L117.437 182.02C111.167 179.669 104.172 182.86 101.812 189.145C99.4661 195.43 102.664 202.458 108.836 204.767L163.334 227.626C163.683 227.78 164.074 227.85 164.451 227.822C168.78 229.25 173.234 229.964 177.661 229.964C185.438 229.964 193.146 227.78 199.946 223.511C219.383 211.29 225.248 185.072 213.03 165.041L198.955 141.972H198.941ZM197.265 219.241C187.616 225.302 175.929 226.59 165.191 222.769C164.926 222.671 164.647 222.629 164.381 222.629L110.679 200.106C107.006 198.734 105.135 194.619 106.518 190.937C107.886 187.256 111.991 185.394 115.663 186.766L140.197 195.976C141.202 196.354 142.333 196.046 143.018 195.221C143.702 194.395 143.786 193.219 143.227 192.309L104.884 129.472C102.803 126.056 103.878 121.591 107.286 119.505C110.693 117.419 115.161 118.497 117.241 121.913L136.999 154.304C137.656 155.382 138.996 155.802 140.141 155.298L177.702 139.018C183.986 136.457 191.135 138.822 194.668 144.632L208.743 167.7C219.537 185.38 214.398 208.519 197.279 219.283L197.265 219.241Z" fill="#006D77" stroke="#006D77" stroke-width="4.81" stroke-miterlimit="10"/>
<path d="M95.8979 103.908C96.3448 103.908 96.8056 103.782 97.2105 103.53C98.3974 102.803 98.7604 101.249 98.0343 100.059L91.3878 89.1964C90.6617 88.0066 89.1117 87.6427 87.9249 88.3705C86.738 89.0984 86.375 90.6522 87.1011 91.8421L93.7476 102.705C94.2224 103.474 95.0462 103.908 95.8979 103.908Z" fill="#006D77" stroke="#006D77" stroke-width="4.81" stroke-miterlimit="10"/>
<path d="M84.1761 115.956L71.8047 112.989C70.4502 112.667 69.0958 113.507 68.7747 114.85C68.4535 116.208 69.2912 117.566 70.6317 117.888L83.0033 120.856C83.1988 120.898 83.3942 120.926 83.5897 120.926C84.7207 120.926 85.754 120.142 86.0333 118.994C86.3544 117.636 85.5166 116.278 84.1761 115.956Z" fill="#006D77" stroke="#006D77" stroke-width="4.81" stroke-miterlimit="10"/>
<path d="M116.013 100.54C116.208 100.582 116.404 100.61 116.599 100.61C117.73 100.61 118.763 99.8264 119.043 98.6785L122.003 86.2763C122.324 84.9185 121.486 83.5607 120.146 83.2387C118.791 82.9167 117.437 83.7566 117.116 85.1004L114.156 97.5027C113.834 98.8605 114.672 100.218 116.013 100.54Z" fill="#006D77" stroke="#006D77" stroke-width="4.81" stroke-miterlimit="10"/>
</svg>
