<svg width="237" height="243" viewBox="0 0 237 243" fill="none" xmlns="http://www.w3.org/2000/svg">
<path d="M196.784 139.099C191.218 137 185.353 135.936 179.353 135.936C171.553 135.936 164.097 137.705 157.197 141.169C156.777 141.379 156.342 141.469 155.907 141.469C154.857 141.469 153.837 140.884 153.342 139.894C153.327 139.849 153.312 139.804 153.297 139.759C150.687 141.304 148.212 143.058 145.901 145.007C145.901 145.007 145.916 145.022 145.931 145.037C147.011 146.207 146.936 148.021 145.781 149.101C144.566 150.226 143.411 151.425 142.316 152.655C141.746 153.3 140.951 153.63 140.156 153.63C139.496 153.63 138.851 153.405 138.311 152.955C136.946 154.709 135.701 156.554 134.561 158.488C135.881 159.268 136.376 160.932 135.656 162.297C134.966 163.601 134.321 164.966 133.751 166.33C133.286 167.44 132.221 168.1 131.096 168.1C130.796 168.1 130.496 168.04 130.196 167.935C128.621 172.523 127.646 177.381 127.391 182.45C128.831 182.6 129.971 183.814 129.971 185.284C129.971 212.499 152.127 234.647 179.353 234.647C206.579 234.647 228.735 212.499 228.735 185.284C228.735 180.635 228.09 176.032 226.815 171.593C226.38 170.064 227.25 168.474 228.78 168.04C229.035 167.965 229.275 167.95 229.53 167.935C227.565 162.252 224.67 157.003 220.995 152.4L177.958 210.325C177.433 211.03 176.623 211.45 175.753 211.48C175.723 211.48 175.678 211.48 175.648 211.48C174.808 211.48 174.013 211.12 173.473 210.475L142.256 174.188C141.221 172.988 141.356 171.174 142.556 170.139C143.756 169.104 145.571 169.239 146.606 170.439L175.468 203.997L217.079 147.991C212.399 143.283 206.819 139.459 200.624 136.79C200.594 136.985 200.549 137.195 200.474 137.39C199.919 138.875 198.254 139.624 196.769 139.069L196.784 139.099Z" fill="#E8FDF8"/>
<path d="M179.353 117.64C180.943 117.64 182.233 116.35 182.233 114.776V19.1386C182.233 9.91674 174.718 2.4043 165.492 2.4043H19.146C9.9206 2.4043 2.40527 9.91674 2.40527 19.1386V223.669C2.40527 232.906 9.9206 240.403 19.146 240.403H132.011C133.601 240.403 134.891 239.113 134.891 237.539C134.891 235.965 133.601 234.675 132.011 234.675H19.146C13.0857 234.675 8.15052 229.742 8.15052 223.684V19.1536C8.15052 13.0956 13.0857 8.16233 19.146 8.16233H165.492C171.553 8.16233 176.488 13.0956 176.488 19.1536V114.791C176.488 116.38 177.562 117.64 179.152 117.64L179.353 117.64Z" fill="#006D77" stroke="#006D77" stroke-width="4.81" stroke-miterlimit="10"/>
<path d="M141.308 59.5957H119.363C117.772 59.5957 116.482 60.8853 116.482 62.4597C116.482 64.0342 117.772 65.3238 119.363 65.3238H141.308C142.899 65.3238 144.189 64.0342 144.189 62.4597C144.189 60.8853 142.899 59.5957 141.308 59.5957Z" fill="#006D77" stroke="#006D77" stroke-width="4.81" stroke-miterlimit="10"/>
<path d="M93.471 59.5957H43.2938C41.7038 59.5957 40.4287 60.8853 40.4287 62.4597C40.4287 64.0342 41.7188 65.3238 43.2938 65.3238H93.471C95.0611 65.3238 96.3511 64.0342 96.3511 62.4597C96.3511 60.8853 95.0611 59.5957 93.471 59.5957Z" fill="#006D77" stroke="#006D77" stroke-width="4.81" stroke-miterlimit="10"/>
<path d="M144.191 101.741C144.191 100.152 142.9 98.877 141.31 98.877H120.864C119.274 98.877 117.984 100.167 117.984 101.741C117.984 103.315 119.274 104.605 120.864 104.605H141.31C142.9 104.605 144.191 103.315 144.191 101.741Z" fill="#006D77" stroke="#006D77" stroke-width="4.81" stroke-miterlimit="10"/>
<path d="M83.4492 101.741C83.4492 103.33 84.7393 104.605 86.3294 104.605H100.61C102.2 104.605 103.49 103.315 103.49 101.741C103.49 100.167 102.2 98.877 100.61 98.877H86.3294C84.7393 98.877 83.4492 100.167 83.4492 101.741Z" fill="#006D77" stroke="#006D77" stroke-width="4.81" stroke-miterlimit="10"/>
<path d="M43.285 104.624H67.5561C69.1462 104.624 70.4362 103.335 70.4362 101.761C70.4362 100.186 69.1462 98.8965 67.5561 98.8965H43.285C41.6949 98.8965 40.4199 100.186 40.4199 101.761C40.4199 103.335 41.7099 104.624 43.285 104.624Z" fill="#006D77" stroke="#006D77" stroke-width="4.81" stroke-miterlimit="10"/>
<path d="M127.328 141.044C127.328 139.454 126.038 138.18 124.448 138.18H43.2795C41.6894 138.18 40.3994 139.469 40.3994 141.044C40.3994 142.618 41.6894 143.908 43.2795 143.908H124.448C126.038 143.908 127.328 142.618 127.328 141.044Z" fill="#006D77" stroke="#006D77" stroke-width="4.81" stroke-miterlimit="10"/>
<path d="M43.2795 177.453C41.6894 177.453 40.3994 178.743 40.3994 180.317C40.3994 181.892 41.6894 183.181 43.2795 183.181H108.967C110.557 183.181 111.848 181.892 111.848 180.317C111.848 178.743 110.557 177.453 108.967 177.453H43.2795Z" fill="#006D77" stroke="#006D77" stroke-width="4.81" stroke-miterlimit="10"/>
<path d="M198.79 133.715C192.58 131.376 186.04 130.191 179.335 130.191C170.634 130.191 162.309 132.156 154.598 136.039C153.218 136.729 152.663 138.379 153.278 139.758C153.293 139.803 153.308 139.848 153.323 139.893C153.833 140.898 154.838 141.468 155.889 141.468C156.324 141.468 156.759 141.363 157.179 141.168C164.094 137.689 171.549 135.934 179.335 135.934C185.335 135.934 191.215 136.999 196.765 139.098C198.25 139.653 199.915 138.918 200.47 137.419C200.545 137.224 200.59 137.014 200.62 136.819C200.815 135.515 200.08 134.21 198.79 133.715Z" fill="#006D77" stroke="#006D77" stroke-width="4.81" stroke-miterlimit="10"/>
<path d="M142.307 152.662C143.402 151.417 144.572 150.218 145.772 149.108C146.942 148.029 147.002 146.214 145.922 145.045C145.922 145.045 145.907 145.03 145.892 145.015C144.812 143.875 143.012 143.83 141.857 144.895C140.507 146.139 139.202 147.474 137.987 148.868C136.937 150.053 137.057 151.867 138.242 152.917C138.257 152.932 138.287 152.947 138.302 152.962C138.842 153.412 139.487 153.637 140.147 153.637C140.942 153.637 141.737 153.307 142.307 152.662Z" fill="#006D77" stroke="#006D77" stroke-width="4.81" stroke-miterlimit="10"/>
<path d="M133.75 166.323C134.32 164.958 134.95 163.609 135.655 162.289C136.375 160.925 135.88 159.245 134.56 158.481C134.53 158.466 134.5 158.436 134.455 158.406C133.045 157.671 131.32 158.196 130.57 159.605C129.79 161.075 129.085 162.589 128.44 164.119C127.824 165.588 128.53 167.268 129.985 167.867C130.06 167.897 130.12 167.912 130.195 167.927C130.495 168.032 130.795 168.092 131.095 168.092C132.22 168.092 133.285 167.433 133.75 166.323Z" fill="#006D77" stroke="#006D77" stroke-width="4.81" stroke-miterlimit="10"/>
<path d="M226.802 171.606C228.077 176.03 228.722 180.633 228.722 185.297C228.722 212.512 206.566 234.66 179.34 234.66C152.114 234.66 129.958 212.512 129.958 185.297C129.958 183.812 128.833 182.612 127.378 182.463C127.273 182.463 127.183 182.433 127.078 182.433C125.488 182.433 124.213 183.722 124.213 185.297C124.213 215.676 148.934 240.403 179.34 240.403C209.747 240.403 234.468 215.691 234.468 185.297C234.468 180.108 233.748 174.965 232.323 170.017C231.948 168.742 230.777 167.932 229.517 167.947C229.262 167.947 229.022 167.977 228.767 168.052C227.237 168.487 226.367 170.077 226.802 171.606Z" fill="#006D77" stroke="#006D77" stroke-width="4.81" stroke-miterlimit="10"/>
<path d="M146.619 170.474C145.583 169.275 143.768 169.14 142.568 170.174C141.368 171.209 141.233 173.024 142.268 174.223L173.485 210.511C174.04 211.141 174.835 211.515 175.66 211.515C175.69 211.515 175.735 211.515 175.765 211.515C176.635 211.485 177.445 211.066 177.97 210.361L221.007 152.436L229.992 140.335C230.937 139.06 230.667 137.261 229.392 136.316C228.117 135.371 226.317 135.641 225.372 136.916L217.107 148.042L175.495 204.048L146.634 170.489L146.619 170.474Z" fill="#006D77" stroke="#006D77" stroke-width="4.81" stroke-miterlimit="10"/>
</svg>
