<svg width="254" height="252" viewBox="0 0 254 252" fill="none" xmlns="http://www.w3.org/2000/svg">
<path d="M190.717 68.4075C189.29 68.6256 188.315 69.9633 188.533 71.4028L195.33 114.733C195.534 116.027 196.64 116.943 197.921 116.943C198.052 116.943 198.198 116.943 198.328 116.914C199.755 116.696 200.73 115.358 200.512 113.918L193.715 70.5885C193.496 69.1636 192.157 68.1894 190.717 68.4075Z" fill="#006D77" stroke="#006D77" stroke-width="4.81" stroke-miterlimit="10"/>
<path d="M217.573 222.592L216.714 217.183C216.481 215.758 215.142 214.784 213.716 215.002C212.289 215.235 211.314 216.572 211.532 217.997L212.391 223.406C212.668 225.122 212.231 226.838 211.169 228.234C210.106 229.63 208.549 230.516 206.802 230.706L83.411 244.112C80.0198 244.49 76.9779 242.149 76.4394 238.79L50.0525 70.7482C52.0755 71.1117 54.1277 71.1408 56.1217 70.85C56.1217 70.85 56.1362 70.85 56.1507 70.85L185.087 57.4002C192.99 56.1207 198.535 46.844 199.19 33.7142C199.205 33.1907 199.234 32.6527 199.234 32.1438C199.234 15.0881 186.863 3.44137 167.695 2.45263C165.876 2.36539 164.202 2.39447 162.586 2.55441L70.8506 12.1219C69.4097 12.2673 68.3618 13.5614 68.5219 15.0009C68.6674 16.4404 69.9774 17.4872 71.4037 17.3273L163.11 7.75982C164.464 7.62896 165.89 7.61442 167.447 7.67258C183.821 8.51591 193.995 17.8944 193.995 32.1438C193.995 32.5946 193.98 33.0744 193.965 33.5106C193.456 43.7033 189.454 51.4097 184.403 52.2239L65.2909 64.6413C68.4637 60.003 70.1811 53.4598 70.5013 47.1494C70.5159 46.6259 70.5449 46.0879 70.5449 45.5645C70.5449 28.5088 58.1738 16.862 39.0204 15.8733C37.4339 15.8006 35.8766 15.8151 34.4066 15.946C34.4066 15.946 34.4067 15.946 34.3921 15.946C34.3776 15.946 34.3484 15.946 34.3338 15.946C34.3338 15.946 34.3048 15.946 34.2902 15.946C33.5625 15.9896 32.8638 16.0768 32.0488 16.1786L31.7868 16.2222C15.5588 18.6068 3.23133 31.6058 2.4454 47.1494C2.35808 48.8506 2.41626 50.5227 2.59091 52.0931C2.59091 52.1512 2.60549 52.2094 2.62005 52.2821L23.7674 187.07C24.5533 192.087 28.9196 195.707 33.8681 195.707C34.3629 195.707 34.8724 195.663 35.3672 195.591L48.2623 193.671C49.6886 193.453 50.6784 192.13 50.4746 190.691C50.2563 189.266 48.9319 188.292 47.491 188.481L34.5958 190.4C31.9033 190.807 29.3563 188.931 28.9342 186.241L7.80137 51.5114V51.4097C7.64128 50.1301 7.61213 48.7779 7.67035 47.382C8.32529 34.3394 18.7753 23.4051 32.5291 21.384L32.8057 21.3404C33.4315 21.2532 34.0428 21.1805 34.6686 21.1514C34.6832 21.1514 34.6977 21.1514 34.7123 21.1514C34.7268 21.1514 34.7414 21.1514 34.756 21.1514C36.0222 21.0351 37.3757 21.0205 38.7584 21.0787C55.132 21.922 65.3054 31.3005 65.3054 45.5499C65.3054 46.0152 65.2908 46.4805 65.2763 46.9167C64.7669 57.124 60.7354 64.8303 55.4958 65.6736C52.978 66.0662 50.3436 65.7173 47.8548 64.6849C46.9816 64.3214 45.9773 64.4523 45.2205 65.0339C44.4782 65.6155 44.0998 66.5606 44.2453 67.5057L71.2727 239.619C72.175 245.318 77.0653 249.404 82.6978 249.404C83.1199 249.404 83.5565 249.375 83.9931 249.332L207.385 235.925C210.572 235.577 213.395 233.977 215.346 231.433C217.281 228.903 218.067 225.762 217.573 222.621V222.592Z" fill="#006D77" stroke="#006D77" stroke-width="4.81" stroke-miterlimit="10"/>
<path d="M103.207 121.712C103.309 121.712 103.41 121.712 103.512 121.697L152.982 115.866C154.423 115.692 155.442 114.398 155.282 112.958C155.107 111.519 153.797 110.501 152.371 110.661L102.901 116.492C101.46 116.666 100.441 117.96 100.602 119.4C100.762 120.737 101.897 121.712 103.207 121.712Z" fill="#006D77" stroke="#006D77" stroke-width="4.81" stroke-miterlimit="10"/>
<path d="M85.8242 155.373C85.9843 156.711 87.1196 157.685 88.4294 157.685C88.5313 157.685 88.6331 157.685 88.735 157.671L175.712 147.42C177.152 147.245 178.171 145.951 178.011 144.512C177.836 143.072 176.527 142.04 175.1 142.215L88.1238 152.465C86.6829 152.64 85.6641 153.934 85.8242 155.373Z" fill="#006D77" stroke="#006D77" stroke-width="4.81" stroke-miterlimit="10"/>
<path d="M143.984 218.433C144.363 218.622 144.77 218.724 145.178 218.724C146.124 218.724 147.055 218.201 147.507 217.299C148.627 215.104 150.214 213.751 152.339 213.184C155.773 212.268 159.98 213.562 162.629 215.264C167.955 218.681 174.417 216.805 178.158 213.591C179.264 212.646 179.381 211.003 178.449 209.898C177.503 208.793 175.858 208.677 174.752 209.607C173.093 211.032 169.003 213.126 165.467 210.843C162.105 208.691 156.297 206.67 150.971 208.11C147.434 209.055 144.625 211.41 142.849 214.9C142.194 216.194 142.704 217.764 143.984 218.419V218.433Z" fill="#006D77" stroke="#006D77" stroke-width="4.81" stroke-miterlimit="10"/>
<path d="M243.146 109.423L230.586 103.985C229.931 103.709 229.261 103.578 228.592 103.578C226.656 103.578 224.793 104.712 223.978 106.602L194.011 175.712C191.842 180.714 191.013 186.21 191.595 191.634L192.788 202.655C192.934 204.022 193.923 204.589 194.346 204.778C194.768 204.953 195.859 205.287 196.951 204.473L205.814 197.799C210.166 194.527 213.615 190.151 215.784 185.149L245.751 116.039C246.29 114.818 246.304 113.451 245.81 112.2C245.315 110.95 244.369 109.976 243.132 109.438L243.146 109.423Z" fill="#E8FDF8"/>
<path d="M245.227 104.612L232.667 99.1735C227.471 96.9197 221.431 99.3189 219.175 104.51L189.208 173.62C186.675 179.45 185.7 185.862 186.384 192.173L187.578 203.194C187.883 206.044 189.63 208.414 192.264 209.549C193.283 209.985 194.346 210.203 195.408 210.203C197.067 210.203 198.712 209.665 200.109 208.603L208.973 201.929C214.052 198.105 218.069 193.002 220.587 187.186L250.554 118.076C251.646 115.56 251.689 112.783 250.685 110.239C249.681 107.694 247.731 105.688 245.227 104.597V104.612ZM245.751 116.011L215.784 185.121C213.615 190.123 210.166 194.485 205.814 197.771L196.951 204.445C195.859 205.274 194.753 204.939 194.345 204.75C193.923 204.576 192.934 203.994 192.788 202.627L191.595 191.606C191.012 186.197 191.842 180.686 194.011 175.684L223.978 106.574C224.793 104.684 226.641 103.55 228.592 103.55C229.261 103.55 229.931 103.681 230.586 103.957L243.146 109.395C244.369 109.933 245.329 110.907 245.824 112.158C246.319 113.408 246.29 114.761 245.766 115.997L245.751 116.011Z" fill="#006D77" stroke="#006D77" stroke-width="4.81" stroke-miterlimit="10"/>
</svg>
