<svg width="249" height="250" viewBox="0 0 249 250" fill="none" xmlns="http://www.w3.org/2000/svg">
<path d="M224.685 113.665C224.67 112.363 224.037 111.214 222.982 110.494C221.912 109.775 220.632 109.652 219.441 110.127L181.423 125.749C179.976 126.347 179.027 127.756 179.027 129.349V194.459C179.027 195.96 177.836 197.185 176.359 197.185C176.209 197.185 176.073 197.17 175.938 197.139C175.907 202.944 175.862 208.733 175.832 214.538L207.039 200.646C213.429 197.399 219.758 193.785 225.906 189.603L224.7 113.665H224.685Z" fill="#E8FDF8"/>
<path d="M157.195 34.0518L47.7207 83.983V115.336L56.5661 110.787C57.651 110.22 58.9771 110.465 59.7908 111.384L71.0321 123.867V96.3586C71.0321 96.3586 71.0321 96.3433 71.0321 96.328C71.0321 96.0829 71.0622 95.8379 71.1376 95.6081C71.1376 95.5622 71.1677 95.5315 71.1828 95.4856C71.2129 95.3784 71.2431 95.2558 71.3033 95.1486C71.3335 95.072 71.3938 95.0108 71.4239 94.9495C71.454 94.9036 71.4842 94.8423 71.5143 94.7963C71.6499 94.5972 71.8006 94.4134 71.9664 94.2756C71.9664 94.2756 71.9965 94.2603 71.9965 94.245C72.1623 94.1071 72.3582 93.9846 72.5541 93.8927C72.5842 93.8927 72.5993 93.862 72.6294 93.8467L196.465 37.3754L172.867 25.7656C168.165 27.8486 163.449 29.9317 158.747 32.03C158.597 32.903 158.039 33.6995 157.18 34.0977L157.195 34.0518Z" fill="#E8FDF8"/>
<path d="M140.875 231.265L120.894 240.378C119.447 241.037 117.941 241.465 116.404 241.68V150.915C116.404 149.399 115.183 148.158 113.691 148.158C112.199 148.158 110.979 149.399 110.979 150.915V241.588C109.472 241.312 107.98 240.853 106.564 240.148L14.403 194.781C10.3344 192.775 7.8179 188.685 7.8179 184.106V75.4977C7.8179 68.7125 11.7508 62.54 17.8386 59.7525L129.272 8.9635C132.407 7.52376 135.993 7.56971 139.112 9.11666L172.881 25.7502L196.479 37.36L72.6438 93.8313C72.6438 93.8313 72.5986 93.8619 72.5684 93.8773C72.3726 93.9692 72.1917 94.0917 72.0109 94.2295C72.0109 94.2295 71.9808 94.2449 71.9808 94.2602C71.815 94.4133 71.6643 94.5971 71.5287 94.7809C71.4986 94.8269 71.4684 94.8728 71.4383 94.9341C71.3931 95.0107 71.3479 95.0719 71.3177 95.1332C71.2725 95.2404 71.2424 95.3476 71.1972 95.4702C71.1972 95.5161 71.1671 95.5467 71.152 95.5927C71.0917 95.8378 71.0465 96.0675 71.0465 96.3126C71.0465 96.3126 71.0465 96.3279 71.0465 96.3432V123.851L59.8052 111.369C58.9764 110.45 57.6654 110.204 56.5805 110.771L47.7351 115.32V83.9676L157.195 34.0517C158.054 33.6534 158.611 32.8723 158.762 31.984C158.852 31.4632 158.792 30.9118 158.566 30.4064C157.948 29.0126 156.351 28.3999 154.98 29.0279L45.0529 79.1583L25.2073 69.4018C23.8661 68.7432 22.2387 69.3099 21.5908 70.6883C20.9428 72.0668 21.5003 73.7057 22.8565 74.3643L42.3103 83.937V119.823C42.3103 120.788 42.7925 121.676 43.6063 122.167C44.4049 122.672 45.4145 122.703 46.2584 122.274L57.1983 116.637L71.7698 132.811C72.2972 133.393 73.0205 133.7 73.774 133.7C74.1055 133.7 74.437 133.638 74.7534 133.516C75.7932 133.102 76.4863 132.076 76.4863 130.943V100.739L105.162 114.861C107.95 116.239 110.949 116.913 113.962 116.913C116.765 116.913 119.583 116.316 122.205 115.121L143.015 105.64C144.386 105.012 144.989 103.389 144.386 101.995C143.768 100.601 142.171 99.9885 140.8 100.601L119.975 110.082C115.997 111.905 111.461 111.828 107.513 109.898L80.1782 96.4351L202.868 40.4845L230.519 54.1007C232.282 54.9738 233.85 56.1378 235.191 57.5316L159.606 92.0087C158.234 92.6366 157.632 94.2602 158.25 95.654C158.702 96.6802 159.681 97.2775 160.721 97.2775C161.098 97.2775 161.474 97.2009 161.836 97.0324L238.385 62.1265C239.485 64.4393 240.103 66.9971 240.103 69.6315V140.929C240.103 142.445 241.324 143.686 242.816 143.686C244.307 143.686 245.528 142.445 245.528 140.929V69.6315C245.528 65.2204 244.232 60.9625 241.957 57.3478C241.851 57.1334 241.731 56.9496 241.58 56.7811C239.41 53.5647 236.456 50.8996 232.9 49.1382L141.478 4.15417C136.912 1.90267 131.653 1.82609 127.042 3.93974L15.6235 54.7287C7.59186 58.3893 2.4082 66.5529 2.4082 75.4977V184.106C2.4082 190.722 6.19047 196.864 12.0522 199.744L104.198 245.111C107.121 246.566 110.271 247.301 113.435 247.378C113.525 247.378 113.601 247.408 113.691 247.408C113.721 247.408 113.736 247.408 113.767 247.408C113.827 247.408 113.887 247.408 113.962 247.408C117.082 247.408 120.201 246.734 123.124 245.402L143.105 236.289C144.477 235.661 145.079 234.037 144.462 232.643C143.844 231.249 142.246 230.637 140.875 231.265Z" fill="#006D77" stroke="#006D77" stroke-width="4.81446" stroke-miterlimit="10"/>
<path d="M54.533 190.478C53.1919 189.819 51.5645 190.386 50.9165 191.749C50.2686 193.127 50.8261 194.766 52.1672 195.425L57.5317 198.075C57.9084 198.258 58.3153 198.35 58.7071 198.35C59.7167 198.35 60.6811 197.783 61.1482 196.803C61.7962 195.425 61.2386 193.786 59.8975 193.127L54.533 190.478Z" fill="#006D77" stroke="#006D77" stroke-width="4.81446" stroke-miterlimit="10"/>
<path d="M24.9979 175.925C23.6568 175.266 22.0293 175.833 21.3814 177.196C20.7334 178.575 21.291 180.213 22.6321 180.872L38.2885 188.576C38.6653 188.76 39.0721 188.852 39.4639 188.852C40.4735 188.852 41.4379 188.285 41.905 187.305C42.553 185.926 41.9955 184.288 40.6543 183.629L24.9979 175.925Z" fill="#006D77" stroke="#006D77" stroke-width="4.81446" stroke-miterlimit="10"/>
<path d="M246.372 154.592C246.372 153.091 245.166 151.881 243.705 151.881C242.228 151.881 241.037 153.106 241.037 154.607C241.068 164.302 241.128 177.597 233.081 184.412C232.448 184.903 231.815 185.362 231.197 185.837L230.052 113.59C230.007 110.511 228.47 107.662 225.954 105.977C223.437 104.277 220.258 103.956 217.455 105.104L179.436 120.727C175.955 122.167 173.71 125.552 173.71 129.366V194.475C173.71 195.823 174.69 196.941 175.955 197.156C176.091 197.186 176.242 197.202 176.377 197.202C177.854 197.202 179.044 195.992 179.044 194.475V129.366C179.044 127.773 179.979 126.364 181.44 125.766L219.459 110.144C220.649 109.653 221.93 109.791 223 110.511C224.07 111.231 224.688 112.38 224.703 113.682L225.908 189.62C219.76 193.786 213.431 197.401 207.042 200.663C198.076 205.227 188.96 209.102 180.009 212.916C170.937 216.776 161.565 220.773 152.523 225.399C151.197 226.073 150.67 227.712 151.333 229.044C151.8 229.994 152.749 230.545 153.729 230.545C154.136 230.545 154.543 230.453 154.934 230.254C163.81 225.721 173.107 221.754 182.088 217.94C200.261 210.205 219.037 202.21 236.441 188.67C246.507 180.154 246.447 165.374 246.402 154.592H246.372Z" fill="#006D77" stroke="#006D77" stroke-width="4.81446" stroke-miterlimit="10"/>
</svg>
