<svg width="288" height="249" viewBox="0 0 288 249" fill="none" xmlns="http://www.w3.org/2000/svg">
<path d="M106.273 50.4996H106.878C106.671 50.2344 106.465 49.9693 106.273 49.6895V50.4996Z" fill="#E8FDF8"/>
<path d="M106.276 17.9416C106.453 17.9121 106.63 17.8827 106.807 17.8827C108.353 17.8827 109.591 19.1343 109.591 20.6657V42.4147C109.591 46.4346 112.861 49.6889 116.868 49.6889H161.252C165.273 49.6889 168.529 46.4199 168.529 42.4147V20.6657C168.529 19.149 169.737 17.9268 171.239 17.8827V7.97266H106.262V17.9268L106.276 17.9416Z" fill="#E8FDF8"/>
<path d="M76.3533 137.994L93.1022 121.252L76.3533 104.51C62.1971 90.3588 39.1434 90.3588 24.9872 104.51L8.23828 121.252L24.9872 137.994C39.1434 152.145 62.1971 152.145 76.3533 137.994ZM50.6629 107.97C57.9841 107.97 63.95 113.934 63.95 121.252C63.95 128.57 57.9841 134.534 50.6629 134.534C49.3371 134.534 48.247 133.459 48.247 132.119C48.247 130.779 49.3224 129.704 50.6629 129.704C55.3325 129.704 59.1331 125.905 59.1331 121.237C59.1331 116.569 55.3325 112.77 50.6629 112.77C45.9932 112.77 42.1927 116.569 42.1927 121.237C42.1927 122.563 41.1173 123.652 39.7768 123.652C38.4363 123.652 37.3609 122.577 37.3609 121.237C37.3609 113.919 43.3269 107.955 50.6481 107.955L50.6629 107.97Z" fill="#E8FDF8"/>
<path d="M246.958 217.602C247.371 217.809 247.798 217.912 248.225 217.912C249.242 217.912 250.214 217.352 250.715 216.395C251.422 215.026 250.877 213.347 249.507 212.64C244.101 209.872 241.523 203.466 243.511 197.723L248.741 182.616C249.242 181.158 248.476 179.567 247.017 179.067C245.559 178.566 243.968 179.332 243.467 180.79L238.238 195.898C237.928 196.781 237.722 197.665 237.56 198.563L162.065 237.216C152.726 241.987 141.574 242.031 132.22 237.319L42.407 192.143C38.8421 190.346 36.3821 187.063 35.6603 183.146C34.9385 179.229 36.0728 175.297 38.7685 172.337C42.3039 168.45 48.2845 167.184 53.1751 169.319L119.92 198.71C121.334 199.329 122.984 198.695 123.603 197.282C124.222 195.868 123.588 194.219 122.174 193.6L55.4142 164.209C53.0721 163.193 50.612 162.678 48.0784 162.678C42.952 162.678 38.0614 164.828 34.6439 168.583C30.755 172.823 29.1198 178.507 30.1657 184.147C31.1968 189.801 34.747 194.528 39.8881 197.12L129.701 242.296C135.137 245.035 141.074 246.405 147.025 246.405C152.976 246.405 159.104 244.991 164.599 242.193L237.56 204.85C238.518 210.196 241.876 215.025 246.973 217.632L246.958 217.602Z" fill="#006D77" stroke="#006D77" stroke-width="4.81" stroke-miterlimit="10"/>
<path d="M56.2459 17.5712C56.2459 12.2848 60.5473 7.98511 65.8357 7.98511H215.707C220.995 7.98511 225.296 12.2848 225.296 17.5712V114.448C225.06 114.448 224.825 114.433 224.589 114.433C204.909 114.433 186.098 120.573 170.203 132.177L129.296 162.039C124.332 165.662 121.371 171.493 121.371 177.633C121.371 182.61 123.256 187.322 126.674 190.9C130.401 194.832 135.453 196.923 140.638 196.923C142.995 196.923 145.382 196.481 147.68 195.598L187.939 179.901C189.368 179.341 190.09 177.721 189.53 176.293C188.97 174.85 187.35 174.143 185.921 174.703L145.662 190.4C140.447 192.432 134.599 191.121 130.739 187.057C128.309 184.51 126.983 181.167 126.983 177.633C126.983 173.215 129.031 169.166 132.61 166.545L173.518 136.683C188.455 125.786 206.117 120.014 224.619 120.014C231.35 120.014 238.038 120.779 244.476 122.311C250.383 123.71 256.128 125.756 261.607 128.319L252.46 154.75C251.959 156.208 252.725 157.798 254.183 158.299C254.478 158.402 254.787 158.446 255.097 158.446C256.26 158.446 257.336 157.725 257.733 156.561L267.028 129.673C267.205 129.173 267.411 128.702 267.647 128.245C267.647 128.245 267.662 128.23 267.677 128.216C267.677 128.216 267.677 128.186 267.691 128.171C270.254 123.091 276.117 120.338 281.759 121.825C283.247 122.222 284.779 121.324 285.177 119.837C285.574 118.35 284.676 116.818 283.188 116.421C275.911 114.492 268.34 117.437 264.112 123.297C258.234 120.529 252.077 118.335 245.757 116.833C240.911 115.685 235.932 114.963 230.909 114.624V17.5712C230.909 9.20729 224.103 2.4043 215.736 2.4043H65.8651C57.4981 2.4043 50.6924 9.20729 50.6924 17.5712V78.1944C52.5485 77.9588 54.4193 77.7232 56.2754 77.4876V17.5712H56.2459Z" fill="#006D77" stroke="#006D77" stroke-width="4.81" stroke-miterlimit="10"/>
<path d="M168.544 20.6756V42.4246C168.544 46.4446 165.274 49.6988 161.267 49.6988H116.883C112.877 49.6988 109.606 46.4298 109.606 42.4246V20.6756C109.606 19.1295 108.354 17.8926 106.822 17.8926C106.645 17.8926 106.469 17.9073 106.292 17.9515C105.01 18.2018 104.038 19.3356 104.038 20.6903V42.4393C104.038 45.134 104.878 47.6373 106.292 49.6988C106.483 49.9786 106.69 50.2436 106.896 50.5087C109.253 53.4242 112.862 55.2943 116.898 55.2943H161.282C165.318 55.2943 168.912 53.4242 171.284 50.5087C173.066 48.2999 174.156 45.4874 174.156 42.4393V20.6903C174.156 19.1442 172.904 17.9073 171.372 17.9073C171.343 17.9073 171.328 17.9073 171.299 17.9073C169.796 17.9515 168.588 19.1737 168.588 20.6903L168.544 20.6756Z" fill="#006D77" stroke="#006D77" stroke-width="4.81" stroke-miterlimit="10"/>
<path d="M156.54 118.356C156.54 119.902 157.792 121.139 159.324 121.139H172.508C173.569 121.139 174.541 120.536 175.012 119.578C175.484 118.621 175.366 117.487 174.718 116.648L142.988 75.3884C141.927 74.019 139.614 74.019 138.554 75.3884L106.824 116.648C106.175 117.487 106.058 118.621 106.529 119.578C107 120.536 107.973 121.139 109.033 121.139H119.433V132.006C119.433 133.553 120.685 134.789 122.217 134.789C123.749 134.789 125.001 133.538 125.001 132.006V118.356C125.001 116.81 123.749 115.573 122.217 115.573H114.69L140.748 81.6907L166.807 115.573H159.28C157.733 115.573 156.496 116.825 156.496 118.356H156.54Z" fill="#006D77" stroke="#006D77" stroke-width="4.81" stroke-miterlimit="10"/>
<path d="M21.57 141.396C37.6118 157.431 63.7147 157.431 79.7565 141.396L98.2141 122.945C99.1569 122.003 99.1569 120.471 98.2141 119.544L79.7565 101.093C63.7147 85.0575 37.6118 85.0575 21.57 101.093L3.11235 119.544C2.16958 120.486 2.16958 122.018 3.11235 122.945L21.57 141.396ZM24.9728 104.495C39.1291 90.3438 62.1827 90.3438 76.339 104.495L93.0879 121.237L76.339 137.98C62.1827 152.13 39.1291 152.13 24.9728 137.98L8.22397 121.237L24.9728 104.495Z" fill="#006D77" stroke="#006D77" stroke-width="4.81" stroke-miterlimit="10"/>
<path d="M39.7878 123.665C41.1136 123.665 42.2037 122.59 42.2037 121.25C42.2037 116.582 46.0042 112.783 50.6739 112.783C55.3435 112.783 59.1441 116.582 59.1441 121.25C59.1441 125.918 55.3435 129.717 50.6739 129.717C49.3481 129.717 48.258 130.792 48.258 132.132C48.258 133.472 49.3334 134.547 50.6739 134.547C57.9951 134.547 63.961 128.583 63.961 121.264C63.961 113.946 57.9951 107.982 50.6739 107.982C43.3527 107.982 37.3867 113.946 37.3867 121.264C37.3867 122.59 38.4621 123.679 39.8026 123.679L39.7878 123.665Z" fill="#006D77" stroke="#006D77" stroke-width="4.81" stroke-miterlimit="10"/>
<path d="M11.4316 85.4383C12.3744 86.3807 13.9064 86.3807 14.8344 85.4383C15.7772 84.4959 15.7772 82.9645 14.8344 82.0368L9.78175 76.9861C8.83899 76.0437 7.30699 76.0437 6.37895 76.9861C5.43618 77.9285 5.43618 79.4599 6.37895 80.3876L11.4316 85.4383Z" fill="#006D77" stroke="#006D77" stroke-width="4.81" stroke-miterlimit="10"/>
<path d="M91.5577 76.9763L86.5049 82.027C85.5622 82.9695 85.5622 84.5009 86.5049 85.4286C87.4477 86.371 88.9798 86.371 89.9078 85.4286L94.9605 80.3778C95.9032 79.4354 95.9032 77.904 94.9605 76.9763C94.0177 76.0339 92.4857 76.0339 91.5577 76.9763Z" fill="#006D77" stroke="#006D77" stroke-width="4.81" stroke-miterlimit="10"/>
</svg>
