<svg width="227" height="251" viewBox="0 0 227 251" fill="none" xmlns="http://www.w3.org/2000/svg">
<path d="M58.1751 248.404H26.5921C13.2587 248.404 2.40527 237.589 2.40527 224.302V181.812C2.40527 168.526 13.2587 157.711 26.5921 157.711H60.4218C61.866 157.711 63.0477 158.888 63.0477 160.327C63.0477 161.767 61.866 162.944 60.4218 162.944H26.5921C16.1471 162.944 7.65692 171.404 7.65692 181.812V224.302C7.65692 234.71 16.1471 243.171 26.5921 243.171H58.1751C65.1774 243.171 70.8668 237.501 70.8668 230.524C70.8668 227.137 69.5538 223.968 67.1468 221.584C64.7544 219.2 61.5596 217.877 58.1751 217.877H39.1671C37.7229 217.877 36.5412 216.7 36.5412 215.261C36.5412 213.822 37.7229 212.644 39.1671 212.644H58.1751C62.9746 212.644 67.4824 214.505 70.8668 217.877C74.2512 221.25 76.1185 225.741 76.1185 230.524C76.1185 240.38 68.0658 248.404 58.1751 248.404Z" fill="#006D77" stroke="#006D77" stroke-width="4.81" stroke-miterlimit="10"/>
<path d="M66.3322 146.518C50.4896 146.518 37.5938 133.667 37.5938 117.881C37.5938 102.094 50.4896 89.2441 66.3322 89.2441C82.1748 89.2441 95.0705 102.094 95.0705 117.881C95.0705 133.667 82.1748 146.518 66.3322 146.518ZM66.3322 94.4627C53.3781 94.4627 42.8454 104.958 42.8454 117.866C42.8454 130.775 53.3781 141.27 66.3322 141.27C79.2864 141.27 89.8188 130.775 89.8188 117.866C89.8188 104.958 79.2864 94.4627 66.3322 94.4627Z" fill="#006D77" stroke="#006D77" stroke-width="4.81" stroke-miterlimit="10"/>
<path d="M113.729 176.463V191.799L105.315 188.571C105.006 188.455 104.682 188.398 104.358 188.397C104.034 188.397 103.71 188.455 103.4 188.571L94.9863 191.799H94.9717V176.463H113.729Z" fill="#E8FDF8"/>
<path d="M113.729 176.463V191.799L105.315 188.571C105.006 188.455 104.682 188.398 104.358 188.397C104.034 188.397 103.71 188.455 103.4 188.571L94.9863 191.799H94.9717V176.463H113.729Z" stroke="#006D77"/>
<path d="M85.0923 243.172H137.137C140.85 243.172 143.871 240.177 143.871 236.514V183.136C143.871 179.458 140.85 176.479 137.137 176.479H119.057V195.638C119.057 196.495 118.629 197.309 117.907 197.803C117.185 198.283 116.272 198.399 115.447 198.08L104.381 193.835L93.3146 198.08C93.0052 198.196 92.681 198.254 92.3568 198.254C91.8263 198.254 91.3106 198.094 90.8538 197.803C90.1318 197.309 89.7044 196.51 89.7044 195.638V176.479H69.9005C68.4564 176.479 67.0712 176.929 65.9219 177.787C64.1831 179.037 63.1664 181.028 63.1664 183.136V199.998C63.1664 200.507 63.0191 200.972 62.7686 201.365V209.767C73.0242 211.162 80.9518 220.233 80.9518 231.252C80.9518 236.732 78.9773 241.732 75.7355 245.556H82.4694C82.5873 244.218 83.7072 243.172 85.0923 243.172ZM117.539 229.536H126.365C127.824 229.536 129.018 230.714 129.018 232.153C129.018 233.592 127.824 234.77 126.365 234.77H117.539C116.08 234.77 114.887 233.592 114.887 232.153C114.887 230.714 116.08 229.536 117.539 229.536Z" fill="#E8FDF8"/>
<path d="M137.132 171.23H69.8961C67.288 171.23 64.8123 172.045 62.7642 173.556C59.6992 175.766 57.8574 179.342 57.8574 183.121V199.983C57.8574 201.423 59.051 202.6 60.5098 202.6C61.4676 202.6 62.2926 202.106 62.7642 201.35C63.0147 200.943 63.162 200.478 63.162 199.983V183.121C63.162 181.013 64.1787 179.022 65.9175 177.772C67.0668 176.914 68.452 176.464 69.8961 176.464H89.7V195.623C89.7 196.48 90.1274 197.294 90.8494 197.788C91.2915 198.094 91.8219 198.239 92.3524 198.239C92.6766 198.239 93.0008 198.181 93.3102 198.065L104.376 193.82L115.442 198.065C116.267 198.384 117.181 198.268 117.903 197.788C118.625 197.294 119.052 196.495 119.052 195.623V176.464H137.132C140.846 176.464 143.866 179.458 143.866 183.121V236.499C143.866 240.177 140.846 243.157 137.132 243.157H85.0879C83.7028 243.157 82.5829 244.203 82.465 245.541C82.465 245.613 82.4357 245.686 82.4357 245.773C82.4357 247.212 83.6291 248.39 85.0879 248.39H137.132C143.778 248.39 149.171 243.055 149.171 236.499V183.121C149.171 176.565 143.763 171.23 137.132 171.23ZM113.748 191.799L105.334 188.572C105.025 188.456 104.7 188.398 104.376 188.398C104.052 188.398 103.728 188.456 103.419 188.572L95.0046 191.799V176.464H113.763V191.799H113.748Z" fill="#006D77" stroke="#006D77" stroke-width="4.81" stroke-miterlimit="10"/>
<path d="M117.536 234.77H126.363C127.821 234.77 129.015 233.593 129.015 232.154C129.015 230.715 127.821 229.537 126.363 229.537H117.536C116.077 229.537 114.884 230.715 114.884 232.154C114.884 233.593 116.077 234.77 117.536 234.77Z" fill="#006D77" stroke="#006D77" stroke-width="4.81" stroke-miterlimit="10"/>
<path d="M144.051 128.712C119.967 128.712 100.375 109.19 100.375 85.19C100.375 61.1904 119.967 41.668 144.051 41.668C168.136 41.668 187.728 61.1904 187.728 85.19C187.728 109.19 168.136 128.712 144.051 128.712ZM144.051 46.9156C122.87 46.9156 105.627 64.0831 105.627 85.2045C105.627 106.326 122.855 123.493 144.051 123.493C165.248 123.493 182.476 106.326 182.476 85.2045C182.476 64.0831 165.248 46.9156 144.051 46.9156Z" fill="#006D77" stroke="#006D77" stroke-width="4.81" stroke-miterlimit="10"/>
<path d="M67.3979 77.4541C67.2812 77.4541 66.7641 77.4994 66.6474 77.4703C65.2032 77.2814 64.1966 75.9731 64.3862 74.534C69.6963 34.0937 104.693 2.4043 144.037 2.4043C162.111 2.4043 179.952 9.01837 194.249 21.0109C195.357 21.9412 195.503 23.5984 194.569 24.7032C193.636 25.8079 191.973 25.9533 190.864 25.023C177.502 13.8154 160.871 7.63741 144.037 7.63741C107.26 7.63741 74.5687 37.3208 69.5942 75.2027C69.4192 76.5255 68.2959 77.4849 66.9975 77.4849L67.3979 77.4541Z" fill="#006D77" stroke="#006D77" stroke-width="4.81" stroke-miterlimit="10"/>
<path d="M162.668 193.384C161.939 193.384 161.224 193.093 160.699 192.497C159.736 191.421 159.838 189.764 160.932 188.805C182.552 169.747 219.153 126.487 219.153 85.1746C219.153 82.9215 219.051 80.6683 218.861 78.4588C218.73 77.0197 219.795 75.755 221.239 75.6242C222.669 75.4934 223.952 76.5545 224.084 77.9936C224.288 80.3631 224.405 82.7761 224.405 85.1746C224.405 128.348 186.695 173.091 164.404 192.715C163.908 193.151 163.281 193.369 162.668 193.369V193.384Z" fill="#006D77" stroke="#006D77" stroke-width="4.81" stroke-miterlimit="10"/>
<path d="M214.686 55.3319C213.679 55.3319 212.906 54.765 212.468 53.791C210.762 49.9243 208.719 46.1594 206.4 42.598C205.612 41.3915 205.962 39.7634 207.173 38.9784C208.384 38.1935 210.018 38.5423 210.805 39.7489C213.271 43.5429 215.444 47.5549 217.268 51.6687C217.852 52.9915 217.268 54.5324 215.926 55.1138C215.576 55.2592 215.226 55.3319 214.861 55.3319H214.686Z" fill="#006D77" stroke="#006D77" stroke-width="4.81" stroke-miterlimit="10"/>
</svg>
