<svg width="279" height="248" viewBox="0 0 279 248" fill="none" xmlns="http://www.w3.org/2000/svg">
<path d="M150.117 75.9586L192.993 57.8773C199.692 55.0541 202.832 47.3069 200.008 40.6232L189.249 15.1098C187.134 10.0807 182.235 7.06055 177.085 7.06055C175.378 7.06055 173.644 7.38883 171.989 8.0979L129.113 26.1792C122.413 29.0023 119.274 36.7496 122.098 43.4333L132.856 68.9467C135.681 75.6435 143.418 78.7949 150.117 75.9586Z" fill="#E8FDF8"/>
<path d="M175.099 165.234C176.123 167.598 177.857 169.436 179.959 170.631C183.401 171.839 187.223 172.01 190.915 170.933L227.354 155.701L255.767 143.713C261.258 141.402 264.975 136.648 266.236 131.252C266.184 129.952 265.908 128.638 265.382 127.378L244.68 77.6642L217.909 88.9831C217.567 89.1275 217.226 89.1932 216.884 89.1932C215.86 89.1932 214.875 88.5891 214.454 87.578C213.889 86.2387 214.52 84.6892 215.86 84.1114L242.657 72.7795L236.181 57.2324C235.051 54.5143 232.923 52.4134 230.204 51.3104C227.472 50.2074 224.49 50.2337 221.784 51.4023L149.576 82.4438C147.277 83.4286 145.503 85.2539 144.571 87.578C143.651 89.9022 143.678 92.4496 144.676 94.7475L151.782 111.214L159.506 107.944C160.859 107.38 162.396 108.01 162.974 109.349C163.539 110.688 162.909 112.238 161.569 112.816L153.871 116.072L162.961 137.121C163.539 138.46 162.922 140.01 161.582 140.588C161.372 140.68 161.175 140.732 160.965 140.758L169.385 160.704C169.897 161.912 170.527 163.028 171.25 164.053C171.368 163.974 171.5 163.895 171.631 163.843C172.971 163.265 174.521 163.882 175.099 165.221V165.234ZM194.974 92.9486L200.386 90.6638C201.739 90.0992 203.276 90.7294 203.854 92.0688C204.418 93.4081 203.788 94.9576 202.448 95.5354L197.036 97.8201C196.694 97.9646 196.353 98.0303 196.011 98.0303C194.987 98.0303 194.001 97.4263 193.581 96.4152C193.016 95.0758 193.647 93.5263 194.987 92.9486H194.974ZM176.137 100.919L182.271 98.3191C183.624 97.7545 185.161 98.3848 185.739 99.7242C186.304 101.064 185.673 102.613 184.333 103.191L178.199 105.791C177.857 105.935 177.516 106.001 177.174 106.001C176.15 106.001 175.165 105.397 174.744 104.386C174.179 103.046 174.81 101.497 176.15 100.919H176.137Z" fill="#E8FDF8"/>
<path d="M272.15 165.766L218.148 189.94C216.821 190.531 216.217 192.093 216.821 193.433C217.254 194.418 218.226 194.995 219.238 194.995C219.592 194.995 219.96 194.917 220.315 194.759L274.317 170.585C275.644 169.994 276.248 168.432 275.644 167.092C275.039 165.766 273.489 165.162 272.15 165.766Z" fill="#006D77" stroke="#006D77" stroke-width="4.81" stroke-miterlimit="10"/>
<path d="M27.2726 34.4399L80.6495 40.1713C84.7675 40.6134 88.3257 43.245 89.9545 47.0529L139.966 163.977C140.4 164.975 141.372 165.579 142.396 165.579C142.738 165.579 143.093 165.513 143.434 165.368C144.774 164.791 145.404 163.241 144.826 161.902L91.5733 37.3944C91.2001 36.5187 90.3827 35.9132 89.4362 35.8114L27.8506 29.1875C26.4057 29.03 25.092 30.0804 24.9475 31.5248C24.7898 32.9692 25.8276 34.2955 27.2726 34.4399Z" fill="#006D77" stroke="#006D77" stroke-width="4.81" stroke-miterlimit="10"/>
<path d="M232.176 46.43C228.13 44.7886 223.69 44.8412 219.684 46.5613L203.999 53.3106C206.062 48.8986 206.351 43.6594 204.302 38.8272L193.543 13.3138C189.721 4.25342 179.238 -0.0141189 170.174 3.80698L127.298 21.8883C118.235 25.7094 113.965 36.1879 117.788 45.2482L128.546 70.7616C131.029 76.6443 136.336 80.5048 142.221 81.4371C141.144 82.6714 140.264 84.0764 139.646 85.639C138.201 89.2762 138.254 93.2549 139.804 96.8528L147.948 115.696L158.102 139.2C158.588 140.329 159.784 140.946 160.953 140.75C161.163 140.71 161.373 140.658 161.57 140.579C162.91 140.001 163.528 138.452 162.95 137.112L153.859 116.063L161.557 112.807C162.897 112.242 163.528 110.693 162.963 109.34C162.398 108.001 160.848 107.371 159.495 107.935L151.771 111.205L144.664 94.7387C143.666 92.4408 143.64 89.8934 144.559 87.5692C145.479 85.245 147.265 83.4198 149.564 82.435L221.772 51.3935C224.465 50.238 227.46 50.1986 230.193 51.3016C232.925 52.4046 235.04 54.5055 236.169 57.2236L242.646 72.7707L215.848 84.1027C214.508 84.6673 213.878 86.2167 214.443 87.5692C214.863 88.5803 215.848 89.1843 216.873 89.1843C217.214 89.1843 217.569 89.1187 217.897 88.9742L244.668 77.6554L265.371 127.369C265.896 128.63 266.172 129.943 266.225 131.243C266.435 135.917 263.768 140.461 259.197 142.365L227.342 155.679L190.903 170.911L190.062 171.266C186.66 172.684 182.942 172.316 179.947 170.622C177.859 169.427 176.112 167.589 175.087 165.226C174.509 163.886 172.946 163.269 171.619 163.847C171.488 163.899 171.356 163.978 171.238 164.057C170.174 164.74 169.728 166.118 170.24 167.313C172.959 173.616 179.186 177.424 185.688 177.424C187.829 177.424 190.01 177.004 192.098 176.137L261.233 147.236C269.745 143.678 273.791 133.856 270.244 125.334L248.517 73.1646L241.043 55.2146C239.361 51.1834 236.209 48.0714 232.176 46.43ZM132.855 68.9496L122.097 43.4361C119.272 36.7394 122.425 29.0052 129.111 26.1821L171.987 8.10079C173.655 7.39172 175.389 7.06343 177.084 7.06343C182.233 7.06343 187.12 10.0967 189.248 15.1127L200.006 40.6261C202.83 47.3229 199.678 55.057 192.992 57.8802L150.116 75.9615C143.416 78.7846 135.679 75.6332 132.855 68.9496Z" fill="#006D77" stroke="#006D77" stroke-width="4.81" stroke-miterlimit="10"/>
<path d="M196.016 98.0227C196.357 98.0227 196.712 97.9571 197.04 97.8126L202.452 95.5278C203.792 94.9632 204.423 93.4137 203.858 92.0613C203.293 90.7219 201.743 90.0916 200.39 90.6562L194.978 92.941C193.638 93.5056 193.007 95.0551 193.572 96.4076C193.993 97.4187 194.978 98.0227 196.003 98.0227H196.016Z" fill="#006D77" stroke="#006D77" stroke-width="4.81" stroke-miterlimit="10"/>
<path d="M177.166 105.99C177.508 105.99 177.862 105.925 178.191 105.78L184.325 103.18C185.665 102.616 186.296 101.066 185.731 99.7136C185.166 98.3742 183.616 97.744 182.263 98.3086L176.128 100.909C174.788 101.473 174.158 103.023 174.723 104.375C175.143 105.386 176.128 105.99 177.153 105.99H177.166Z" fill="#006D77" stroke="#006D77" stroke-width="4.81" stroke-miterlimit="10"/>
<path d="M82.5216 89.0651C82.5216 87.6076 81.3394 86.4258 79.8813 86.4258H5.04562C3.58752 86.4258 2.40527 87.6076 2.40527 89.0651C2.40527 90.5226 3.58752 91.7044 5.04562 91.7044H79.8813C81.3394 91.7044 82.5216 90.5226 82.5216 89.0651Z" fill="#006D77" stroke="#006D77" stroke-width="4.81" stroke-miterlimit="10"/>
<path d="M48.0923 131.438C46.6342 131.438 45.4521 132.619 45.4521 134.077C45.4521 135.534 46.6342 136.716 48.0923 136.716H94.7777C96.2358 136.716 97.418 135.534 97.418 134.077C97.418 132.619 96.2358 131.438 94.7777 131.438H48.0923Z" fill="#006D77" stroke="#006D77" stroke-width="4.81" stroke-miterlimit="10"/>
<path d="M87.4885 176.122C87.4885 174.664 86.3063 173.482 84.8482 173.482H18.6296C17.1715 173.482 15.9893 174.664 15.9893 176.122C15.9893 177.579 17.1715 178.761 18.6296 178.761H84.8482C86.3063 178.761 87.4885 177.579 87.4885 176.122Z" fill="#006D77" stroke="#006D77" stroke-width="4.81" stroke-miterlimit="10"/>
<path d="M194.198 216.507C194.198 200.566 181.232 187.605 165.285 187.605C149.338 187.605 136.373 200.566 136.373 216.507C136.373 232.448 149.338 245.408 165.285 245.408C181.232 245.408 194.198 232.448 194.198 216.507ZM165.285 240.129C152.254 240.129 141.654 229.533 141.654 216.507C141.654 203.481 152.254 192.884 165.285 192.884C178.316 192.884 188.917 203.481 188.917 216.507C188.917 229.533 178.316 240.129 165.285 240.129Z" fill="#006D77" stroke="#006D77" stroke-width="4.81" stroke-miterlimit="10"/>
</svg>
