<svg width="249" height="250" viewBox="0 0 249 250" fill="none" xmlns="http://www.w3.org/2000/svg">
<path d="M224.684 113.665C224.669 112.363 224.036 111.214 222.981 110.494C221.911 109.775 220.631 109.652 219.44 110.127L181.422 125.749C179.975 126.347 179.026 127.756 179.026 129.349V194.459C179.026 195.96 177.835 197.185 176.358 197.185C176.208 197.185 176.072 197.17 175.937 197.139C175.906 202.944 175.861 208.733 175.831 214.538L207.038 200.646C213.428 197.399 219.757 193.785 225.905 189.603L224.699 113.665H224.684Z" fill="#E8FDF8"/>
<path d="M157.194 34.0518L47.7197 83.983V115.336L56.5651 110.787C57.6501 110.22 58.9761 110.465 59.7898 111.384L71.0311 123.867V96.3586C71.0311 96.3586 71.0311 96.3433 71.0311 96.328C71.0311 96.0829 71.0613 95.8379 71.1366 95.6081C71.1366 95.5622 71.1667 95.5315 71.1818 95.4856C71.212 95.3784 71.2421 95.2558 71.3024 95.1486C71.3325 95.072 71.3928 95.0108 71.4229 94.9495C71.4531 94.9036 71.4832 94.8423 71.5133 94.7963C71.649 94.5972 71.7996 94.4134 71.9654 94.2756C71.9654 94.2756 71.9955 94.2603 71.9955 94.245C72.1613 94.1071 72.3572 93.9846 72.5531 93.8927C72.5832 93.8927 72.5983 93.862 72.6284 93.8467L196.464 37.3754L172.866 25.7656C168.164 27.8486 163.448 29.9317 158.746 32.03C158.596 32.903 158.038 33.6995 157.179 34.0977L157.194 34.0518Z" fill="#E8FDF8"/>
<path d="M140.874 231.265L120.893 240.378C119.446 241.037 117.94 241.465 116.403 241.68V150.915C116.403 149.399 115.182 148.158 113.69 148.158C112.198 148.158 110.978 149.399 110.978 150.915V241.588C109.471 241.312 107.979 240.853 106.563 240.148L14.402 194.781C10.3334 192.775 7.81692 188.685 7.81692 184.106V75.4977C7.81692 68.7125 11.7499 62.54 17.8377 59.7525L129.271 8.9635C132.406 7.52376 135.992 7.56971 139.111 9.11666L172.88 25.7502L196.478 37.36L72.6428 93.8313C72.6428 93.8313 72.5976 93.8619 72.5675 93.8773C72.3716 93.9692 72.1908 94.0917 72.0099 94.2295C72.0099 94.2295 71.9798 94.2449 71.9798 94.2602C71.814 94.4133 71.6633 94.5971 71.5277 94.7809C71.4976 94.8269 71.4674 94.8728 71.4373 94.9341C71.3921 95.0107 71.3469 95.0719 71.3168 95.1332C71.2716 95.2404 71.2414 95.3476 71.1962 95.4702C71.1962 95.5161 71.1661 95.5467 71.151 95.5927C71.0907 95.8378 71.0455 96.0675 71.0455 96.3126C71.0455 96.3126 71.0455 96.3279 71.0455 96.3432V123.851L59.8042 111.369C58.9754 110.45 57.6645 110.204 56.5795 110.771L47.7341 115.32V83.9676L157.194 34.0517C158.053 33.6534 158.61 32.8723 158.761 31.984C158.851 31.4632 158.791 30.9118 158.565 30.4064C157.947 29.0126 156.35 28.3999 154.979 29.0279L45.0519 79.1583L25.2063 69.4018C23.8652 68.7432 22.2377 69.3099 21.5898 70.6883C20.9418 72.0668 21.4994 73.7057 22.8556 74.3643L42.3094 83.937V119.823C42.3094 120.788 42.7916 121.676 43.6053 122.167C44.4039 122.672 45.4135 122.703 46.2574 122.274L57.1973 116.637L71.7688 132.811C72.2962 133.393 73.0195 133.7 73.773 133.7C74.1045 133.7 74.436 133.638 74.7524 133.516C75.7922 133.102 76.4854 132.076 76.4854 130.943V100.739L105.161 114.861C107.949 116.239 110.948 116.913 113.961 116.913C116.764 116.913 119.582 116.316 122.204 115.121L143.014 105.64C144.385 105.012 144.988 103.389 144.385 101.995C143.767 100.601 142.17 99.9885 140.799 100.601L119.974 110.082C115.996 111.905 111.46 111.828 107.512 109.898L80.1772 96.4351L202.867 40.4845L230.518 54.1007C232.281 54.9738 233.849 56.1378 235.19 57.5316L159.605 92.0087C158.233 92.6366 157.631 94.2602 158.249 95.654C158.701 96.6802 159.68 97.2775 160.72 97.2775C161.097 97.2775 161.473 97.2009 161.835 97.0324L238.384 62.1265C239.484 64.4393 240.102 66.9971 240.102 69.6315V140.929C240.102 142.445 241.323 143.686 242.815 143.686C244.306 143.686 245.527 142.445 245.527 140.929V69.6315C245.527 65.2204 244.231 60.9625 241.956 57.3478C241.85 57.1334 241.73 56.9496 241.579 56.7811C239.409 53.5647 236.456 50.8996 232.899 49.1382L141.477 4.15417C136.911 1.90267 131.652 1.82609 127.041 3.93974L15.6225 54.7287C7.59089 58.3893 2.40723 66.5529 2.40723 75.4977V184.106C2.40723 190.722 6.18949 196.864 12.0512 199.744L104.197 245.111C107.12 246.566 110.27 247.301 113.434 247.378C113.524 247.378 113.6 247.408 113.69 247.408C113.72 247.408 113.735 247.408 113.766 247.408C113.826 247.408 113.886 247.408 113.961 247.408C117.081 247.408 120.2 246.734 123.123 245.402L143.104 236.289C144.476 235.661 145.078 234.037 144.461 232.643C143.843 231.249 142.246 230.637 140.874 231.265Z" fill="#006D77" stroke="#006D77" stroke-width="4.81446" stroke-miterlimit="10"/>
<path d="M54.5321 190.478C53.1909 189.819 51.5635 190.386 50.9155 191.749C50.2676 193.127 50.8251 194.766 52.1663 195.425L57.5307 198.075C57.9075 198.258 58.3143 198.35 58.7061 198.35C59.7157 198.35 60.6801 197.783 61.1472 196.803C61.7952 195.425 61.2377 193.786 59.8965 193.127L54.5321 190.478Z" fill="#006D77" stroke="#006D77" stroke-width="4.81446" stroke-miterlimit="10"/>
<path d="M24.9969 175.925C23.6558 175.266 22.0283 175.833 21.3804 177.196C20.7324 178.575 21.29 180.213 22.6311 180.872L38.2876 188.576C38.6643 188.76 39.0711 188.852 39.4629 188.852C40.4725 188.852 41.4369 188.285 41.9041 187.305C42.552 185.926 41.9945 184.288 40.6534 183.629L24.9969 175.925Z" fill="#006D77" stroke="#006D77" stroke-width="4.81446" stroke-miterlimit="10"/>
<path d="M246.371 154.592C246.371 153.091 245.165 151.881 243.704 151.881C242.227 151.881 241.036 153.106 241.036 154.607C241.067 164.302 241.127 177.597 233.08 184.412C232.447 184.903 231.814 185.362 231.197 185.837L230.051 113.59C230.006 110.511 228.469 107.662 225.953 105.977C223.436 104.277 220.257 103.956 217.454 105.104L179.435 120.727C175.954 122.167 173.709 125.552 173.709 129.366V194.475C173.709 195.823 174.689 196.941 175.954 197.156C176.09 197.186 176.241 197.202 176.376 197.202C177.853 197.202 179.043 195.992 179.043 194.475V129.366C179.043 127.773 179.978 126.364 181.439 125.766L219.458 110.144C220.648 109.653 221.929 109.791 222.999 110.511C224.069 111.231 224.687 112.38 224.702 113.682L225.907 189.62C219.759 193.786 213.43 197.401 207.041 200.663C198.075 205.227 188.959 209.102 180.008 212.916C170.936 216.776 161.564 220.773 152.522 225.399C151.196 226.073 150.669 227.712 151.332 229.044C151.799 229.994 152.748 230.545 153.728 230.545C154.135 230.545 154.542 230.453 154.933 230.254C163.809 225.721 173.106 221.754 182.087 217.94C200.26 210.205 219.036 202.21 236.44 188.67C246.506 180.154 246.446 165.374 246.401 154.592H246.371Z" fill="#006D77" stroke="#006D77" stroke-width="4.81446" stroke-miterlimit="10"/>
</svg>
