<svg width="306" height="251" viewBox="0 0 306 251" fill="none" xmlns="http://www.w3.org/2000/svg">
<path d="M107.814 9.76847C93.0958 19.1088 80.7504 36.7799 72.8232 59.3558C55.7755 65.3552 41.5406 73.8709 31.5677 84.0358C30.2465 85.3863 31.1557 87.6894 33.0452 87.8032H33.102C33.7413 87.8458 34.3664 87.6041 34.8068 87.1492C43.6006 78.1643 56.0596 70.53 71.0048 64.8861C68.817 71.9659 67.0412 79.458 65.7484 87.2914C65.5211 88.6277 66.5298 89.8788 67.8794 89.9641H67.922C69.1011 90.0351 70.1382 89.1964 70.3229 88.0306C71.7719 79.1737 73.8319 70.7859 76.4316 62.9668C92.2008 57.7351 110.385 54.6644 129.763 54.4511V91.6132C129.763 92.8358 130.714 93.8452 131.936 93.9163H131.979C133.314 94.0016 134.437 92.9495 134.437 91.6132V54.4511C136.255 54.4795 138.059 54.5222 139.849 54.5933C140.957 54.6359 141.938 53.8825 142.165 52.802V52.7593C142.477 51.3519 141.44 49.9871 139.991 49.9302C138.144 49.8592 136.298 49.8165 134.422 49.7881V7.18106C138.869 7.49382 143.216 8.5885 147.393 10.4082C150.092 11.574 152.933 9.12873 152.138 6.29963L152.109 6.20012C151.74 4.89219 150.646 3.91125 149.311 3.71222C143.699 2.87344 137.96 2.4043 132.107 2.4043C132.064 2.4043 132.007 2.4043 131.965 2.4043C131.936 2.4043 131.908 2.4043 131.879 2.4043C131.766 2.4043 131.666 2.4043 131.553 2.4043C79.756 2.64598 35.9007 37.0643 21.3248 84.2206C20.8844 85.6422 21.9215 87.0923 23.399 87.1918C23.4132 87.1918 23.4274 87.1918 23.4416 87.1918C24.5071 87.2629 25.4731 86.5805 25.7857 85.5569C37.4918 47.7267 68.817 18.4832 107.814 9.75426V9.76847ZM78.3495 57.5361C89.4305 28.1363 108.268 8.37525 129.763 7.16684V49.7881C111.252 49.9871 93.7777 52.7593 78.3495 57.5361Z" fill="#006D77" stroke="#006D77" stroke-width="4.81" stroke-miterlimit="10"/>
<path d="M209.84 156.641L292.229 145.162C292.271 144.522 292.186 140.143 292.229 139.504C291.007 139.432 290.041 138.423 290.041 137.186V131.855C290.041 129.225 287.91 127.093 285.282 127.093H248.416C247.123 127.093 246.086 126.04 246.086 124.761C246.086 123.482 247.137 122.429 248.416 122.429H282.597V112.236C282.597 111.938 282.355 111.696 282.057 111.696H258.019V116.601C258.019 117.894 256.968 118.932 255.69 118.932C254.411 118.932 253.36 117.88 253.36 116.601V107.019C253.36 106.72 253.118 106.479 252.82 106.479H232.05C231.865 106.479 231.738 106.564 231.652 106.649C231.581 106.72 231.496 106.862 231.496 107.047L231.88 117.738C231.922 118.989 230.97 120.041 229.734 120.141C229.706 120.908 229.663 121.676 229.635 122.444H235.914C239.182 122.444 241.838 125.102 241.838 128.372V137.485C241.838 138.779 240.787 139.816 239.508 139.816C238.23 139.816 237.179 138.764 237.179 137.485V128.372C237.179 127.675 236.61 127.121 235.928 127.121H215.031C214.335 127.121 213.781 127.69 213.781 128.372V142.83H229.195C230.487 142.83 231.524 143.882 231.524 145.162C231.524 146.441 230.473 147.493 229.195 147.493H202.43C203.069 149.697 203.708 151.915 204.348 154.118C204.688 153.777 207.22 165.047 207.22 159.255L209.84 156.641Z" fill="#E8FDF8"/>
<path d="M97.6345 108.654H13.8165C9.917 108.654 6.75586 111.818 6.75586 115.72V159.948C6.75586 163.85 9.917 167.013 13.8165 167.013H97.6345C101.534 167.013 104.695 163.85 104.695 159.948V115.72C104.695 111.818 101.534 108.654 97.6345 108.654Z" fill="#E8FDF8"/>
<path d="M13.8131 171.357H97.6169C103.896 171.357 109.01 166.239 109.01 159.956V115.728C109.01 109.444 103.896 104.326 97.6169 104.326H13.8131C10.0199 104.326 6.653 106.203 4.57886 109.075C3.21504 110.951 2.40527 113.254 2.40527 115.742V159.97C2.40527 162.458 3.21504 164.761 4.57886 166.637C6.653 169.509 10.0057 171.386 13.8131 171.386V171.357ZM6.75245 115.728C6.75245 111.833 9.92049 108.662 13.8131 108.662H97.6169C101.509 108.662 104.677 111.833 104.677 115.728V159.956C104.677 163.851 101.509 167.021 97.6169 167.021H13.8131C9.92049 167.021 6.75245 163.851 6.75245 159.956V115.728Z" fill="#006D77" stroke="#006D77" stroke-width="4.81" stroke-miterlimit="10"/>
<path d="M55.3002 194.928H119.613C120.82 194.928 121.801 193.947 121.801 192.739V129.532C121.801 128.025 123.022 126.788 124.542 126.788H158.538C159.533 126.788 160.442 127.328 160.925 128.181L177.959 158.59L136.433 158.562C134.828 158.562 133.535 157.254 133.535 155.648V132.603C133.535 131.579 132.938 130.598 131.958 130.285C130.353 129.774 128.861 130.968 128.861 132.503V160.311C128.861 161.917 130.168 163.225 131.759 163.225L178.527 163.253C179.791 163.253 180.942 163.936 181.567 165.031C181.865 165.557 182.007 166.139 182.007 166.737V192.028C182.007 193.535 180.8 194.757 179.294 194.786L171.381 194.928C170.003 194.956 168.824 193.975 168.611 192.611C168.17 189.725 167.148 186.242 164.931 182.83C159.448 174.413 150.569 172.309 147.969 171.869C146.69 171.655 145.497 172.508 145.27 173.774C145.057 175.039 145.909 176.247 147.173 176.475C149.29 176.845 156.564 178.565 161.01 185.389C164.022 190.009 164.306 194.814 164.221 197.259C164.164 198.596 165.258 199.705 166.593 199.691L183.954 199.392C185.46 199.364 186.667 198.141 186.667 196.634V165.315C186.667 164.86 186.554 164.419 186.326 164.021L163.639 123.518C163.156 122.651 162.246 122.125 161.252 122.125H119.868C118.363 122.125 117.127 123.348 117.127 124.869V188.076C117.127 189.284 116.146 190.265 114.939 190.265H55.0303C53.638 184.294 48.2822 179.83 41.8893 179.83C35.4964 179.83 30.1406 184.294 28.7484 190.265H9.29973L9.07243 190.308C8.04956 190.478 7.14035 191.232 6.98408 192.255C6.77098 193.691 7.89329 194.928 9.28552 194.928H28.4784C29.1035 200.217 32.783 204.581 37.7126 206.187C39.0338 206.614 40.4261 206.856 41.8893 206.856C43.3526 206.856 44.7448 206.614 46.066 206.187C50.9956 204.581 54.6751 200.217 55.3002 194.928ZM33.2802 195.369C31.8454 188.929 37.4853 183.27 43.9208 184.72C47.1741 185.446 49.7881 188.061 50.5126 191.317C51.9475 197.757 46.3075 203.401 39.872 201.965C36.6187 201.24 34.0047 198.624 33.2802 195.369Z" fill="#006D77" stroke="#006D77" stroke-width="4.81" stroke-miterlimit="10"/>
<path d="M294.41 145.274L288.315 146.113L201.812 158.126C201.286 158.197 200.846 158.439 200.491 158.78C199.993 159.277 199.709 160.002 199.809 160.756C199.993 162.035 201.158 162.931 202.437 162.746L295.035 149.895C296.214 149.738 297.336 150.193 298.061 151.131C298.785 152.07 298.927 153.278 298.473 154.373L285.417 185.194C284.92 186.374 285.474 187.753 286.653 188.251C286.951 188.379 287.264 188.436 287.562 188.436C288.471 188.436 289.338 187.895 289.707 187.014L302.763 156.192C303.885 153.534 303.516 150.577 301.754 148.288C299.993 145.999 297.251 144.862 294.381 145.26L294.41 145.274Z" fill="#006D77" stroke="#006D77" stroke-width="4.81" stroke-miterlimit="10"/>
<path d="M229.151 147.479C230.444 147.479 231.481 146.427 231.481 145.148C231.481 143.868 230.43 142.816 229.151 142.816H213.737V128.358C213.737 127.661 214.306 127.107 214.987 127.107H235.885C236.581 127.107 237.135 127.676 237.135 128.358V137.471C237.135 138.765 238.187 139.802 239.465 139.802C240.744 139.802 241.795 138.75 241.795 137.471V128.358C241.795 125.088 239.138 122.43 235.871 122.43H214.973C211.706 122.43 209.049 125.088 209.049 128.358V142.816H201.69C200.397 142.816 199.36 143.868 199.36 145.148C199.36 146.427 200.412 147.479 201.69 147.479H229.137H229.151Z" fill="#006D77" stroke="#006D77" stroke-width="4.81" stroke-miterlimit="10"/>
<path d="M231.85 117.707L231.467 107.017C231.467 106.832 231.552 106.69 231.623 106.618C231.694 106.547 231.822 106.448 232.021 106.448H252.791C253.089 106.448 253.331 106.69 253.331 106.988V116.57C253.331 117.864 254.382 118.902 255.66 118.902C256.939 118.902 257.99 117.85 257.99 116.57V111.665H282.028C282.326 111.665 282.567 111.907 282.567 112.206V122.399H248.387C247.094 122.399 246.057 123.451 246.057 124.73C246.057 126.01 247.108 127.062 248.387 127.062H285.252C287.881 127.062 290.012 129.194 290.012 131.824V137.156C290.012 138.392 290.978 139.402 292.199 139.473C292.242 139.473 292.285 139.473 292.341 139.473C293.634 139.473 294.671 138.421 294.671 137.141V131.81C294.671 127.289 291.475 123.494 287.213 122.584V112.177C287.213 109.305 284.869 106.96 281.999 106.96H257.962C257.962 104.074 255.618 101.742 252.748 101.742H231.978C230.558 101.742 229.222 102.311 228.228 103.334C227.233 104.358 226.722 105.709 226.779 107.144L227.162 117.835C227.205 119.101 228.242 120.082 229.492 120.082C229.521 120.082 229.549 120.082 229.577 120.082C229.606 120.082 229.634 120.082 229.677 120.082C230.913 119.982 231.879 118.93 231.822 117.679L231.85 117.707Z" fill="#006D77" stroke="#006D77" stroke-width="4.81" stroke-miterlimit="10"/>
<path d="M289.203 192.31C286.419 194.144 283.847 194.869 281.574 194.485C279.401 194.101 278.094 192.822 276.588 191.343C274.869 189.651 272.922 187.732 269.683 187.647C269.598 187.647 269.527 187.647 269.442 187.647C266.018 187.647 263.93 189.822 262.253 191.57C260.634 193.248 259.554 194.286 257.849 194.357C256.187 194.428 255.107 193.518 253.374 191.912C251.527 190.191 249.212 188.059 245.447 188.002C245.39 188.002 245.348 188.002 245.305 188.002C241.555 188.002 239.125 190.106 237.165 191.798C235.304 193.404 234.181 194.314 232.533 194.144C231.113 194.002 230.275 193.177 228.925 191.727C227.547 190.248 225.814 188.414 222.887 187.689C217.972 186.467 212.446 188.94 206.01 195.253C205.087 196.148 205.072 197.627 205.967 198.551C206.422 199.02 207.033 199.247 207.63 199.247C208.226 199.247 208.809 199.02 209.263 198.579C212.786 195.139 217.801 191.244 221.751 192.21C223.342 192.608 224.351 193.675 225.515 194.911C226.993 196.475 228.826 198.437 232.036 198.764C235.773 199.148 238.23 197.015 240.205 195.309C242.109 193.66 243.373 192.651 245.291 192.651C245.319 192.651 245.348 192.651 245.376 192.651C247.266 192.679 248.445 193.675 250.206 195.309C252.053 197.015 254.326 199.162 258.048 198.977C261.728 198.821 263.887 196.575 265.62 194.755C267.169 193.134 268.121 192.21 269.555 192.267C270.891 192.31 271.814 193.149 273.32 194.641C275.039 196.319 277.17 198.423 280.779 199.048C284.259 199.66 287.953 198.693 291.774 196.177C292.854 195.466 293.152 194.016 292.442 192.95C291.732 191.869 290.297 191.57 289.217 192.281L289.203 192.31Z" fill="#006D77" stroke="#006D77" stroke-width="4.81" stroke-miterlimit="10"/>
<path d="M165.336 75.7114L167.481 78.3983C167.893 78.9244 168.177 79.5072 168.319 80.1612L169.996 87.7528C170.408 89.6294 171.274 91.4349 172.468 92.9419C173.974 94.8327 176.389 95.7283 178.747 95.2734C181.119 94.8327 183.023 93.1125 183.733 90.8094L188.862 74.1334C195.539 70.5508 203.48 65.4897 212.501 59.078L228.967 92.7855C229.663 94.2214 230.956 95.2592 232.504 95.6288C232.916 95.7283 233.328 95.771 233.74 95.771C234.266 95.771 234.791 95.6857 235.303 95.5293C235.843 95.3587 236.354 95.0886 236.809 94.7474C239.195 92.9703 240.474 90.127 240.232 87.17L236.496 40.7103C254.311 25.3706 251.427 16.1014 248.117 11.9502C244.807 7.78471 236.439 2.89422 217.502 16.8407L173.064 2.80892C170.223 1.91327 167.183 2.52459 164.91 4.44382C163.745 5.43898 163.077 6.88907 163.106 8.43867C163.12 10.0309 163.844 11.5237 165.08 12.533L194.232 36.1467C185.992 43.4825 179.273 50.1074 174.272 55.8225L156.883 57.0877C154.482 57.2583 152.38 58.7511 151.414 60.9546C150.448 63.1582 150.774 65.7172 152.28 67.5938C153.488 69.1007 155.036 70.3376 156.784 71.1621L163.802 74.503C164.398 74.7873 164.924 75.1996 165.336 75.7256V75.7114ZM157.21 61.4238L175.494 60.0874C176.005 60.059 176.488 59.8315 176.857 59.4761C176.9 59.4335 176.943 59.3908 176.985 59.3339C182.299 53.164 189.714 45.8851 199.048 37.6964C199.531 37.2699 199.801 36.6585 199.787 36.0188C199.787 35.3791 199.474 34.7677 198.977 34.3697L167.822 9.13528C167.595 8.95047 167.467 8.68035 167.453 8.38181C167.453 8.12591 167.538 7.91266 167.723 7.75628C168.845 6.80377 170.351 6.50522 171.743 6.94594L217.218 21.3331C217.9 21.5463 218.639 21.4184 219.193 20.9777C231.311 11.8364 240.588 9.53335 244.665 14.6655C248.742 19.7835 244.423 28.3276 232.788 38.1086C232.248 38.5636 231.964 39.246 232.021 39.9568L235.857 87.5254C235.97 88.9897 235.345 90.3829 234.166 91.2643C233.982 91.4065 233.754 91.4492 233.499 91.3923C233.214 91.3212 232.973 91.1364 232.845 90.8663L215.243 54.8415C214.959 54.2586 214.433 53.8464 213.823 53.69C213.652 53.6473 213.467 53.6189 213.297 53.6189C213.07 53.6189 212.857 53.6473 212.629 53.7184C212.402 53.7895 212.203 53.889 212.018 54.0312C201.932 61.31 193.181 66.9114 186.006 70.693C185.495 70.9631 185.111 71.4322 184.941 71.9867L179.542 89.5299C179.301 90.2976 178.69 90.8378 177.909 90.9942C177.113 91.1506 176.346 90.8521 175.849 90.2265C175.053 89.2314 174.499 88.0514 174.229 86.8145L172.553 79.2229C172.269 77.9434 171.686 76.7208 170.862 75.683L168.717 72.9961C167.893 71.9725 166.842 71.1195 165.649 70.565L158.631 67.2241C157.494 66.6839 156.457 65.8736 155.676 64.8784C155.178 64.2529 155.065 63.4283 155.391 62.7033C155.718 61.964 156.386 61.4949 157.182 61.438L157.21 61.4238Z" fill="#006D77" stroke="#006D77" stroke-width="4.81" stroke-miterlimit="10"/>
<path d="M217.18 211.502L217.138 211.516C216.47 211.445 215.831 211.687 215.348 212.142C200.673 226.43 182.076 236.708 161.363 241.201C172.203 234.405 181.75 223.103 189.236 208.645C189.776 207.607 189.222 206.342 188.1 206.015H188.071H186.594C185.912 206.015 185.287 206.398 184.974 207.01C173.794 228.519 157.869 242.409 140.11 243.632V206.654C140.295 206.654 140.48 206.683 140.664 206.683C142.128 206.683 143.52 206.441 144.841 206.015C150.353 204.223 154.317 198.977 154.175 192.836C154.004 185.77 148.137 179.856 141.062 179.643C133.433 179.415 127.154 185.571 127.154 193.163C127.154 198.764 130.578 203.569 135.437 205.616V243.646C117.551 242.636 101.512 228.789 90.2316 207.237C89.8338 206.484 89.0667 206.015 88.2285 206.015C86.5095 206.015 85.4298 207.848 86.2254 209.37C93.5843 223.373 102.918 234.334 113.488 241.044C90.5584 235.912 70.2716 223.686 55.0707 206.796C54.6303 206.299 54.0052 206.029 53.3517 206.029C51.3202 206.029 50.2405 208.431 51.5901 209.938C72.7151 233.424 103.259 248.252 137.212 248.408C137.326 248.408 137.425 248.408 137.539 248.408C137.567 248.408 137.596 248.408 137.624 248.408C137.667 248.408 137.724 248.408 137.766 248.408C169.177 248.408 197.689 235.827 218.587 215.454C219.993 214.09 219.141 211.687 217.18 211.502ZM132.055 195.196C130.621 188.756 136.261 183.112 142.696 184.548C145.949 185.273 148.563 187.888 149.288 191.144C150.723 197.584 145.083 203.228 138.647 201.792C135.394 201.067 132.78 198.451 132.055 195.196Z" fill="#006D77" stroke="#006D77" stroke-width="4.81" stroke-miterlimit="10"/>
</svg>
