<svg width="114" height="117" viewBox="0 0 114 117" fill="none" xmlns="http://www.w3.org/2000/svg">
<path d="M101.037 3.48047H43.2815C38.051 3.48047 33.8033 7.73335 33.8033 12.955V38.4449C33.8033 43.6734 38.0578 47.9195 43.2815 47.9195H53.0896C53.557 47.9195 53.99 48.1874 54.1962 48.6065C55.2066 50.6471 56.4644 53.4709 57.351 55.5115L60.4371 48.6477C60.6364 48.2011 61.0763 47.9195 61.5643 47.9195H101.03C106.261 47.9195 110.509 43.6666 110.509 38.4449V12.955C110.509 7.72648 106.254 3.48047 101.03 3.48047H101.037ZM47.3848 27.3214C47.3848 28.0016 46.8281 28.5581 46.1477 28.5581C45.4672 28.5581 44.9105 28.0016 44.9105 27.3214V24.0785C44.9105 23.3983 45.4672 22.8418 46.1477 22.8418C46.8281 22.8418 47.3848 23.3983 47.3848 24.0785V27.3214ZM57.7909 36.8097C57.7909 37.4899 57.2342 38.0464 56.5537 38.0464C55.8733 38.0464 55.3165 37.4899 55.3165 36.8097V14.5971C55.3165 13.9169 55.8733 13.3604 56.5537 13.3604C57.2342 13.3604 57.7909 13.9169 57.7909 14.5971V36.8097ZM68.197 31.5675C68.197 32.2476 67.6402 32.8042 66.9598 32.8042C66.2793 32.8042 65.7226 32.2476 65.7226 31.5675V19.8462C65.7226 19.166 66.2793 18.6095 66.9598 18.6095C67.6402 18.6095 68.197 19.166 68.197 19.8462V31.5675ZM78.6031 27.3283C78.6031 28.0085 78.0463 28.565 77.3659 28.565C76.6854 28.565 76.1287 28.0085 76.1287 27.3283V24.0854C76.1287 23.4052 76.6854 22.8487 77.3659 22.8487C78.0463 22.8487 78.6031 23.4052 78.6031 24.0854V27.3283ZM89.0091 36.8166C89.0091 37.4968 88.4524 38.0533 87.772 38.0533C87.0915 38.0533 86.5348 37.4968 86.5348 36.8166V14.604C86.5348 13.9238 87.0915 13.3673 87.772 13.3673C88.4524 13.3673 89.0091 13.9238 89.0091 14.604V36.8166ZM99.4152 29.4513C99.4152 30.1315 98.8585 30.688 98.178 30.688C97.4976 30.688 96.9408 30.1315 96.9408 29.4513V21.9692C96.9408 21.289 97.4976 20.7325 98.178 20.7325C98.8585 20.7325 99.4152 21.289 99.4152 21.9692V29.4513Z" fill="#E8FDF8"/>
<path d="M63.9214 67.6316C63.6189 67.0201 62.8766 66.7659 62.2649 67.0682C61.6532 67.3705 61.3989 68.1125 61.7013 68.724L78.4376 102.555C79.9566 105.633 78.9187 108.539 77.4341 110.229C75.9495 111.919 73.2071 113.335 69.956 112.235L44.3739 103.551C42.4081 102.885 40.2568 102.885 38.2979 103.551L12.7158 112.235C9.47162 113.335 6.72232 111.926 5.2377 110.229C3.75308 108.539 2.70833 105.633 4.22731 102.555L29.404 51.6781C29.7064 51.0666 29.4521 50.3245 28.8404 50.0222C28.2286 49.7199 27.4863 49.9673 27.1839 50.5856L2.00727 101.469C0.288966 104.96 0.811324 108.944 3.37504 111.871C5.93876 114.798 9.82212 115.836 13.5062 114.585L39.0884 105.901C40.5249 105.413 42.1195 105.413 43.5697 105.901L69.1519 114.585C70.1829 114.936 71.2276 115.107 72.2586 115.107C74.9048 115.107 77.441 113.974 79.283 111.871C81.8467 108.944 82.3691 104.96 80.6439 101.469L63.9076 67.6385L63.9214 67.6316Z" fill="#006D77" stroke="#006D77" stroke-width="2.01488" stroke-miterlimit="10"/>
<path d="M42.5803 94.4951V78.2599C42.5803 77.5797 42.0236 77.0232 41.3431 77.0232C40.6627 77.0232 40.106 77.5797 40.106 78.2599V94.4951C40.106 95.1753 40.6627 95.7318 41.3431 95.7318C42.0236 95.7318 42.5803 95.1753 42.5803 94.4951Z" fill="#006D77" stroke="#006D77" stroke-width="2.01488" stroke-miterlimit="10"/>
<path d="M101.037 1.00732H43.2813C36.6898 1.00732 31.3288 6.36635 31.3288 12.9553V38.4452C31.3288 45.0341 36.6898 50.3931 43.2813 50.3931H52.3196C53.9898 53.8559 56.1686 59.0157 56.1892 59.0707C56.3817 59.5241 56.8216 59.8196 57.3165 59.8265H57.3302C57.8182 59.8265 58.2581 59.5379 58.4574 59.0982L62.3683 50.3931H101.037C107.629 50.3931 112.99 45.0341 112.99 38.4452V12.9553C112.99 6.36635 107.629 1.00732 101.037 1.00732ZM110.515 38.4452C110.515 43.6737 106.261 47.9197 101.037 47.9197H61.571C61.083 47.9197 60.6431 48.2083 60.4438 48.648L57.3577 55.5117C56.471 53.4711 55.2132 50.6473 54.2029 48.6068C53.9967 48.1877 53.5637 47.9197 53.0963 47.9197H43.2882C38.0576 47.9197 33.81 43.6668 33.81 38.4452V12.9553C33.81 7.72673 38.0645 3.48072 43.2882 3.48072H101.044C106.274 3.48072 110.522 7.7336 110.522 12.9553V38.4452H110.515Z" fill="#006D77" stroke="#006D77" stroke-width="2.01488" stroke-miterlimit="10"/>
<path d="M46.1467 22.842C45.4663 22.842 44.9095 23.3986 44.9095 24.0787V27.3217C44.9095 28.0019 45.4663 28.5584 46.1467 28.5584C46.8272 28.5584 47.3839 28.0019 47.3839 27.3217V24.0787C47.3839 23.3986 46.8272 22.842 46.1467 22.842Z" fill="#006D77" stroke="#006D77" stroke-width="2.01488" stroke-miterlimit="10"/>
<path d="M56.5529 13.3538C55.8725 13.3538 55.3158 13.9103 55.3158 14.5905V36.8031C55.3158 37.4833 55.8725 38.0398 56.5529 38.0398C57.2334 38.0398 57.7901 37.4833 57.7901 36.8031V14.5905C57.7901 13.9103 57.2334 13.3538 56.5529 13.3538Z" fill="#006D77" stroke="#006D77" stroke-width="2.01488" stroke-miterlimit="10"/>
<path d="M66.9592 18.603C66.2787 18.603 65.722 19.1595 65.722 19.8397V31.561C65.722 32.2411 66.2787 32.7977 66.9592 32.7977C67.6396 32.7977 68.1963 32.2411 68.1963 31.561V19.8397C68.1963 19.1595 67.6396 18.603 66.9592 18.603Z" fill="#006D77" stroke="#006D77" stroke-width="2.01488" stroke-miterlimit="10"/>
<path d="M77.3659 22.842C76.6854 22.842 76.1287 23.3986 76.1287 24.0787V27.3217C76.1287 28.0019 76.6854 28.5584 77.3659 28.5584C78.0463 28.5584 78.603 28.0019 78.603 27.3217V24.0787C78.603 23.3986 78.0463 22.842 77.3659 22.842Z" fill="#006D77" stroke="#006D77" stroke-width="2.01488" stroke-miterlimit="10"/>
<path d="M87.7712 13.3538C87.0908 13.3538 86.534 13.9103 86.534 14.5905V36.8031C86.534 37.4833 87.0908 38.0398 87.7712 38.0398C88.4517 38.0398 89.0084 37.4833 89.0084 36.8031V14.5905C89.0084 13.9103 88.4517 13.3538 87.7712 13.3538Z" fill="#006D77" stroke="#006D77" stroke-width="2.01488" stroke-miterlimit="10"/>
<path d="M98.1701 20.719C97.4897 20.719 96.9329 21.2755 96.9329 21.9557V29.4378C96.9329 30.118 97.4897 30.6745 98.1701 30.6745C98.8506 30.6745 99.4073 30.118 99.4073 29.4378V21.9557C99.4073 21.2755 98.8506 20.719 98.1701 20.719Z" fill="#006D77" stroke="#006D77" stroke-width="2.01488" stroke-miterlimit="10"/>
</svg>
