<svg width="117" height="117" viewBox="0 0 117 117" fill="none" xmlns="http://www.w3.org/2000/svg">
<path d="M76.3939 13.9032C76.2977 13.9307 76.2015 13.9444 76.0984 13.9444H76.0777C75.4042 13.9444 74.8543 13.4017 74.8406 12.7283C74.7512 7.62349 70.5242 3.47363 65.4174 3.47363H44.4884C39.3747 3.47363 35.1476 7.62349 35.0652 12.7283C35.0514 13.4085 34.5153 13.9307 33.8074 13.9444C33.7249 13.9444 33.6493 13.9307 33.5737 13.9169V20.3616H76.3939V13.9032Z" fill="#E8FDF8"/>
<path d="M34.5834 99.2635H17.9227C12.4172 99.2635 7.93584 94.7838 7.93584 89.2736V66.0304C7.93584 65.3502 7.37912 64.7937 6.69867 64.7937C6.01822 64.7937 5.46149 65.3502 5.46149 66.0304V89.2736C5.46149 96.1442 11.0494 101.737 17.9227 101.737H34.5834C35.2638 101.737 35.8205 101.18 35.8205 100.5C35.8205 99.82 35.2638 99.2635 34.5834 99.2635Z" fill="#006D77" stroke="#006D77" stroke-width="2.01488" stroke-miterlimit="10"/>
<path d="M101.975 63.64V68.525C101.975 69.2052 102.532 69.7617 103.212 69.7617C103.893 69.7617 104.45 69.2052 104.45 68.525V63.64C104.45 62.9598 103.893 62.4033 103.212 62.4033C102.532 62.4033 101.975 62.9598 101.975 63.64Z" fill="#006D77" stroke="#006D77" stroke-width="2.01488" stroke-miterlimit="10"/>
<path d="M54.7493 66.3808C54.818 66.3946 54.8867 66.4015 54.9555 66.4015C55.0242 66.4015 55.0929 66.4014 55.1617 66.3808L73.2932 63.3235C73.9668 63.2066 74.4204 62.5746 74.3105 61.9012C74.1936 61.2279 73.5544 60.7744 72.8808 60.8844L54.9555 63.9074L8.22434 56.02C5.48192 55.5597 3.48868 53.203 3.48868 50.4205V32.8249C3.48868 27.3147 7.97004 22.835 13.4755 22.835H96.4354C101.941 22.835 106.422 27.3147 106.422 32.8249V50.4205C106.422 52.7839 104.938 54.9207 102.724 55.7383C102.085 55.9788 101.755 56.6864 101.996 57.3254C102.236 57.9644 102.951 58.2941 103.584 58.0537C106.759 56.8719 108.89 53.8077 108.89 50.4136V32.818C108.89 25.9474 103.302 20.3547 96.4286 20.3547H13.4686C6.59539 20.3547 1.00745 25.9474 1.00745 32.818V50.4136C1.00745 54.4054 3.86672 57.7857 7.80508 58.4522L54.7424 66.374L54.7493 66.3808Z" fill="#006D77" stroke="#006D77" stroke-width="2.01488" stroke-miterlimit="10"/>
<path d="M14.9473 30.146C14.2668 30.146 13.7101 30.7025 13.7101 31.3827C13.7101 32.0629 14.2668 32.6194 14.9473 32.6194H22.5078C23.1883 32.6194 23.745 32.0629 23.745 31.3827C23.745 30.7025 23.1883 30.146 22.5078 30.146H14.9473Z" fill="#006D77" stroke="#006D77" stroke-width="2.01488" stroke-miterlimit="10"/>
<path d="M87.4033 30.146C86.7229 30.146 86.1661 30.7025 86.1661 31.3827C86.1661 32.0629 86.7229 32.6194 87.4033 32.6194H94.9639C95.6443 32.6194 96.2011 32.0629 96.2011 31.3827C96.2011 30.7025 95.6443 30.146 94.9639 30.146H87.4033Z" fill="#006D77" stroke="#006D77" stroke-width="2.01488" stroke-miterlimit="10"/>
<path d="M35.0634 12.7354C35.1528 7.63058 39.3798 3.48072 44.4866 3.48072H65.4156C70.5293 3.48072 74.7564 7.63058 74.8388 12.7354C74.8526 13.4087 75.4024 13.9515 76.076 13.9515H76.0966C76.1997 13.9515 76.2959 13.9309 76.3922 13.9103C76.9283 13.766 77.327 13.2782 77.3132 12.6942C77.2032 6.24959 71.8627 1.00732 65.4156 1.00732H44.4866C38.0327 1.00732 32.6922 6.24959 32.5891 12.6942C32.5822 13.2988 33.0015 13.8072 33.5719 13.924C33.6475 13.9378 33.7231 13.9515 33.8056 13.9515C34.5136 13.9378 35.0497 13.4156 35.0634 12.7354Z" fill="#006D77" stroke="#006D77" stroke-width="2.01488" stroke-miterlimit="10"/>
<path d="M107.295 74.5912H92.3866C95.727 70.2215 96.0913 64.3678 96.1325 63.083C96.1325 63.0417 96.1394 62.925 96.1394 56.1093C96.1394 54.0619 95.3352 52.1381 93.885 50.6884C92.4347 49.2319 90.5102 48.428 88.4551 48.428C84.2143 48.428 80.7709 51.8771 80.7709 56.1093V59.2698C80.7709 61.647 80.1316 63.9899 78.9288 66.0373C78.324 67.0748 77.6298 68.1603 76.8737 69.2596C74.8393 72.2277 72.7086 74.1652 69.9661 75.5462C66.9075 77.0852 65.0037 80.1564 65.0037 83.5642V106.773C65.0037 111.72 69.0314 115.746 73.9801 115.746H101.803C106.133 115.746 109.446 112.902 110.456 108.278C110.635 107.254 114.855 83.2138 114.972 82.4649C115.261 80.5892 114.745 78.7685 113.515 77.3326C112.044 75.6149 109.721 74.5912 107.302 74.5912H107.295ZM112.525 82.087C112.436 82.6642 109.535 99.1948 108.023 107.804C107.274 111.232 104.951 113.28 101.796 113.28H73.9732C70.3854 113.28 67.4712 110.366 67.4712 106.78V83.5711C67.4712 81.1045 68.8527 78.8784 71.0727 77.7585C74.2069 76.1783 76.6263 73.9934 78.9082 70.6681C79.6986 69.5138 80.4272 68.3802 81.0595 67.2946C82.4823 64.8693 83.2383 62.0936 83.2383 59.2767V56.1162C83.2383 53.2443 85.5821 50.9083 88.4551 50.9083C89.8435 50.9083 91.1494 51.4511 92.1323 52.4404C93.1221 53.4298 93.665 54.7352 93.665 56.1162C93.665 58.7545 93.665 62.7669 93.665 62.9936C93.6375 63.8181 93.287 71.1834 88.7094 74.8729C88.3039 75.2027 88.1458 75.7524 88.3177 76.247C88.4895 76.7417 88.9569 77.0715 89.4861 77.0715H107.302C108.985 77.0715 110.642 77.7929 111.639 78.9472C112.175 79.5724 112.759 80.6236 112.532 82.0939L112.525 82.087Z" fill="#006D77" stroke="#006D77" stroke-width="2.01488" stroke-miterlimit="10"/>
<path d="M50.5832 73.9866C45.6208 73.9866 41.5862 78.0196 41.5862 82.9802V106.766C41.5862 111.727 45.6208 115.76 50.5832 115.76C55.5457 115.76 59.5803 111.727 59.5803 106.766V82.9802C59.5803 78.0196 55.5457 73.9866 50.5832 73.9866ZM57.1059 106.759C57.1059 110.353 54.1779 113.279 50.5832 113.279C46.9885 113.279 44.0605 110.353 44.0605 106.759V82.9733C44.0605 79.38 46.9885 76.4531 50.5832 76.4531C54.1779 76.4531 57.1059 79.38 57.1059 82.9733V106.759Z" fill="#006D77" stroke="#006D77" stroke-width="2.01488" stroke-miterlimit="10"/>
<path d="M50.5835 76.4602C46.9888 76.4602 44.0608 79.3871 44.0608 82.9804V106.766C44.0608 110.36 46.9888 113.287 50.5835 113.287C54.1782 113.287 57.1062 110.36 57.1062 106.766V82.9804C57.1062 79.3871 54.1782 76.4602 50.5835 76.4602Z" fill="#E8FDF8"/>
</svg>
