<svg width="221" height="251" viewBox="0 0 221 251" fill="none" xmlns="http://www.w3.org/2000/svg">
<path d="M116.002 7.10156H62.825C58.1177 7.10156 54.3018 10.9161 54.3018 15.6217V27.3254C54.3018 32.0309 58.1177 35.8455 62.825 35.8455H116.002C120.709 35.8455 124.525 32.0309 124.525 27.3254V15.6217C124.525 10.9161 120.709 7.10156 116.002 7.10156Z" fill="#E8FDF8"/>
<path d="M216.756 162.59C216.56 162.511 216.377 162.42 216.182 162.342L216.756 162.642C216.756 162.642 216.756 162.603 216.756 162.577V162.59Z" fill="#E8FDF8"/>
<path d="M167.184 242.113L213.299 217.518V168.629L167.184 193.224V242.113Z" fill="#E8FDF8"/>
<path d="M185.249 151.161L164.834 140.279L119.02 164.718L139.434 175.612L185.249 151.161Z" fill="#E8FDF8"/>
<path d="M190.248 153.824L144.42 178.276L164.834 189.17L210.662 164.719L190.248 153.824Z" fill="#E8FDF8"/>
<path d="M141.785 194.949C141.785 196.241 140.728 197.298 139.436 197.298C138.144 197.298 137.086 196.241 137.086 194.949V179.67L116.385 168.619V217.509L162.487 242.104V193.214L141.785 182.163V194.923V194.949Z" fill="#E8FDF8"/>
<path d="M99.2168 208.566C99.2168 207.274 98.1596 206.217 96.8674 206.217H10.1977C8.48778 206.217 7.1042 204.834 7.1042 203.151V35.6195C7.1042 33.9103 8.48778 32.5272 10.1977 32.5272H34.9193C36.2116 32.5272 37.2689 31.4704 37.2689 30.1787C37.2689 28.887 36.2116 27.8301 34.9193 27.8301H10.1977C5.90335 27.8301 2.40527 31.3268 2.40527 35.6195V203.151C2.40527 207.431 5.90335 210.915 10.1977 210.915H96.8674C98.1596 210.915 99.2168 209.858 99.2168 208.566Z" fill="#006D77" stroke="#006D77" stroke-width="4.81" stroke-miterlimit="10"/>
<path d="M174.075 125.426C175.367 125.426 176.424 124.37 176.424 123.078V35.6195C176.424 31.3268 172.926 27.8301 168.632 27.8301H143.91C142.618 27.8301 141.561 28.887 141.561 30.1787C141.561 31.4704 142.618 32.5272 143.91 32.5272H168.632C170.342 32.5272 171.725 33.9103 171.725 35.6195V123.078C171.725 124.37 172.783 125.426 174.075 125.426Z" fill="#006D77" stroke="#006D77" stroke-width="4.81" stroke-miterlimit="10"/>
<path d="M129.236 27.3383V15.6216C129.236 8.34098 123.31 2.4043 116.014 2.4043H62.8239C55.5405 2.4043 49.6016 8.32793 49.6016 15.6216V27.3383C49.6016 34.6189 55.5275 40.5556 62.8239 40.5556H116.014C123.297 40.5556 129.236 34.632 129.236 27.3383ZM54.3137 27.3383V15.6216C54.3137 10.9244 58.138 7.10146 62.837 7.10146H116.027C120.726 7.10146 124.55 10.9244 124.55 15.6216V27.3383C124.55 32.0355 120.726 35.8584 116.027 35.8584H62.837C58.138 35.8584 54.3137 32.0355 54.3137 27.3383Z" fill="#006D77" stroke="#006D77" stroke-width="4.81" stroke-miterlimit="10"/>
<path d="M66.3262 77.0659C65.4125 76.1525 63.9245 76.1525 62.9977 77.0659L43.6407 96.4155L34.7909 87.5692C33.8773 86.6559 32.3893 86.6559 31.4626 87.5692C30.5489 88.4825 30.5489 89.97 31.4626 90.8964L41.9699 101.4C42.4137 101.843 43.0011 102.091 43.6276 102.091C44.2541 102.091 44.8546 101.843 45.2853 101.4L66.3001 80.393C67.2138 79.4797 67.2138 77.9922 66.3001 77.0659H66.3262Z" fill="#006D77" stroke="#006D77" stroke-width="4.81" stroke-miterlimit="10"/>
<path d="M148.051 93.9463C148.051 92.6545 146.994 91.5977 145.701 91.5977H86.364C85.0718 91.5977 84.0146 92.6545 84.0146 93.9463C84.0146 95.238 85.0718 96.2948 86.364 96.2948H145.701C146.994 96.2948 148.051 95.238 148.051 93.9463Z" fill="#006D77" stroke="#006D77" stroke-width="4.81" stroke-miterlimit="10"/>
<path d="M62.9977 135.947L43.6407 155.296L34.7909 146.45C33.8773 145.537 32.3893 145.537 31.4626 146.45C30.5489 147.363 30.5489 148.851 31.4626 149.777L41.9699 160.281C42.4137 160.724 43.0011 160.972 43.6276 160.972C44.2541 160.972 44.8546 160.724 45.2853 160.281L66.3001 139.274C67.2138 138.361 67.2138 136.873 66.3001 135.947C65.3864 135.033 63.8983 135.033 62.9716 135.947H62.9977Z" fill="#006D77" stroke="#006D77" stroke-width="4.81" stroke-miterlimit="10"/>
<path d="M86.3749 150.48C85.0827 150.48 84.0254 151.537 84.0254 152.829C84.0254 154.121 85.0827 155.178 86.3749 155.178H96.8693C98.1615 155.178 99.2187 154.121 99.2187 152.829C99.2187 151.537 98.1615 150.48 96.8693 150.48H86.3749Z" fill="#006D77" stroke="#006D77" stroke-width="4.81" stroke-miterlimit="10"/>
<path d="M217.868 163.999C217.829 163.856 217.763 163.725 217.698 163.595C217.672 163.556 217.659 163.516 217.633 163.477C217.529 163.321 217.424 163.177 217.281 163.047C217.254 163.021 217.228 163.007 217.215 162.994C217.098 162.89 216.967 162.786 216.824 162.707C216.798 162.694 216.784 162.668 216.758 162.655L216.184 162.342L191.358 149.099L165.97 135.555C165.279 135.19 164.443 135.19 163.752 135.555L112.951 162.668C112.951 162.668 112.911 162.707 112.885 162.72C112.742 162.799 112.611 162.903 112.494 163.008C112.468 163.034 112.441 163.047 112.428 163.073C112.298 163.203 112.181 163.347 112.076 163.503C112.05 163.542 112.037 163.582 112.011 163.621C111.945 163.751 111.88 163.882 111.841 164.025C111.828 164.077 111.802 164.117 111.802 164.169C111.75 164.351 111.724 164.547 111.724 164.743V218.956C111.724 219.817 112.207 220.626 112.964 221.03L163.765 248.13C163.765 248.13 163.817 248.143 163.843 248.156C163.96 248.209 164.078 248.261 164.208 248.3C164.261 248.313 164.3 248.326 164.352 248.339C164.522 248.378 164.691 248.404 164.874 248.404C165.057 248.404 165.226 248.378 165.396 248.339C165.448 248.339 165.488 248.313 165.54 248.3C165.67 248.261 165.788 248.222 165.905 248.156C165.931 248.156 165.957 248.143 165.983 248.13L216.784 221.03C217.555 220.626 218.024 219.83 218.024 218.956V164.743C218.024 164.547 217.998 164.351 217.946 164.169C217.946 164.117 217.92 164.077 217.907 164.025L217.868 163.999ZM164.835 140.278L185.249 151.173L139.434 175.612L119.02 164.717L164.835 140.278ZM162.485 242.128L116.383 217.534V168.644L137.085 179.695V194.974C137.085 196.266 138.142 197.323 139.434 197.323C140.727 197.323 141.784 196.266 141.784 194.974V182.214L162.485 193.265V242.154V242.128ZM164.835 189.168L144.42 178.273L190.235 153.835L210.65 164.73L164.835 189.168ZM213.286 217.534L167.184 242.128V193.239L213.286 168.644V217.534Z" fill="#006D77" stroke="#006D77" stroke-width="4.81" stroke-miterlimit="10"/>
</svg>
