<svg width="250" height="248" viewBox="0 0 250 248" fill="none" xmlns="http://www.w3.org/2000/svg">
<path d="M187.691 67.3386C186.287 67.5532 185.328 68.8692 185.543 70.2854L192.23 112.914C192.431 114.187 193.519 115.088 194.779 115.088C194.908 115.088 195.052 115.088 195.18 115.059C196.584 114.845 197.543 113.529 197.328 112.113L190.641 69.4843C190.426 68.0825 189.109 67.124 187.691 67.3386Z" fill="#006D77" stroke="#006D77" stroke-width="4.81" stroke-miterlimit="10"/>
<path d="M214.116 219.026L213.271 213.705C213.042 212.303 211.724 211.345 210.321 211.559C208.918 211.788 207.958 213.104 208.173 214.506L209.018 219.827C209.29 221.515 208.86 223.203 207.815 224.577C206.77 225.95 205.237 226.822 203.519 227.008L82.1097 240.197C78.773 240.569 75.78 238.266 75.2501 234.962L49.287 69.6414C51.2776 69.999 53.2969 70.0276 55.2588 69.7415C55.2588 69.7415 55.273 69.7415 55.2873 69.7415L182.153 56.5096C189.929 55.2508 195.385 46.1243 196.029 33.2071C196.044 32.6922 196.072 32.1629 196.072 31.6622C196.072 14.8827 183.9 3.42457 165.04 2.45185C163.25 2.36602 161.603 2.39463 160.013 2.55198L69.7511 11.9645C68.3334 12.1076 67.3022 13.3807 67.4598 14.7969C67.603 16.213 68.8919 17.243 70.2953 17.0856L160.529 7.67309C161.861 7.54435 163.264 7.53004 164.796 7.58726C180.907 8.41694 190.917 17.6435 190.917 31.6622C190.917 32.1057 190.902 32.5777 190.888 33.0069C190.387 43.0345 186.449 50.6161 181.48 51.4171L64.2807 63.6334C67.4025 59.0702 69.0924 52.633 69.4074 46.4248C69.4217 45.9098 69.4503 45.3805 69.4503 44.8655C69.4503 28.086 57.2779 16.6279 38.4322 15.6552C36.8712 15.5836 35.3389 15.5979 33.8925 15.7267C33.8925 15.7267 33.8926 15.7267 33.8783 15.7267C33.8639 15.7267 33.8352 15.7267 33.8209 15.7267C33.8209 15.7267 33.7923 15.7267 33.778 15.7267C33.062 15.7696 32.3745 15.8554 31.5726 15.9556L31.3148 15.9985C15.3475 18.3445 3.21806 31.1329 2.44476 46.4248C2.35883 48.0984 2.41608 49.7435 2.58793 51.2884C2.58793 51.3456 2.60228 51.4028 2.6166 51.4743L23.4242 184.08C24.1975 189.015 28.4937 192.577 33.3627 192.577C33.8496 192.577 34.3508 192.534 34.8377 192.462L47.5257 190.574C48.9291 190.359 49.9029 189.058 49.7024 187.642C49.4876 186.24 48.1844 185.281 46.7667 185.467L34.0787 187.355C31.4294 187.756 28.9234 185.911 28.5081 183.264L7.71469 50.7162V50.6161C7.55716 49.3572 7.52848 48.0269 7.58577 46.6536C8.23019 33.8222 18.5123 23.065 32.0452 21.0767L32.3173 21.0338C32.9331 20.9479 33.5346 20.8764 34.1504 20.8478C34.1647 20.8478 34.179 20.8478 34.1933 20.8478C34.2076 20.8478 34.222 20.8478 34.2363 20.8478C35.4822 20.7334 36.814 20.7191 38.1744 20.7763C54.285 21.606 64.295 30.8325 64.295 44.8512C64.295 45.309 64.2806 45.7667 64.2663 46.1959C63.7651 56.2378 59.7984 63.8194 54.643 64.649C52.1655 65.0353 49.5735 64.692 47.1247 63.6763C46.2655 63.3187 45.2774 63.4474 44.5327 64.0196C43.8024 64.5918 43.43 65.5216 43.5732 66.4515L70.1664 235.777C71.0542 241.385 75.866 245.404 81.408 245.404C81.8233 245.404 82.2528 245.376 82.6825 245.333L204.092 232.144C207.228 231.8 210.006 230.227 211.925 227.724C213.83 225.235 214.603 222.145 214.116 219.055V219.026Z" fill="#006D77" stroke="#006D77" stroke-width="4.81" stroke-miterlimit="10"/>
<path d="M101.587 119.78C101.688 119.78 101.788 119.78 101.888 119.766L150.564 114.03C151.981 113.858 152.984 112.585 152.826 111.169C152.654 109.753 151.366 108.751 149.962 108.909L101.287 114.645C99.8689 114.817 98.8666 116.09 99.0241 117.506C99.1816 118.822 100.299 119.78 101.587 119.78Z" fill="#006D77" stroke="#006D77" stroke-width="4.81" stroke-miterlimit="10"/>
<path d="M84.4841 152.894C84.6416 154.21 85.7586 155.169 87.0475 155.169C87.1477 155.169 87.2479 155.169 87.3482 155.155L172.927 145.07C174.345 144.898 175.348 143.625 175.19 142.209C175.018 140.793 173.729 139.777 172.326 139.949L86.7467 150.033C85.329 150.205 84.3265 151.478 84.4841 152.894Z" fill="#006D77" stroke="#006D77" stroke-width="4.81" stroke-miterlimit="10"/>
<path d="M141.71 214.934C142.082 215.12 142.483 215.22 142.884 215.22C143.815 215.22 144.731 214.705 145.175 213.818C146.278 211.658 147.839 210.328 149.93 209.77C153.309 208.869 157.448 210.142 160.054 211.816C165.296 215.177 171.654 213.332 175.334 210.171C176.423 209.241 176.537 207.624 175.621 206.537C174.69 205.45 173.072 205.336 171.983 206.251C170.351 207.653 166.327 209.713 162.847 207.467C159.539 205.35 153.825 203.361 148.584 204.778C145.104 205.707 142.34 208.025 140.593 211.458C139.948 212.731 140.449 214.276 141.71 214.92V214.934Z" fill="#006D77" stroke="#006D77" stroke-width="4.81" stroke-miterlimit="10"/>
<path d="M239.279 107.692L226.92 102.342C226.276 102.07 225.617 101.941 224.958 101.941C223.054 101.941 221.221 103.057 220.419 104.917L190.933 172.907C188.799 177.828 187.983 183.236 188.556 188.571L189.73 199.414C189.873 200.759 190.847 201.317 191.262 201.503C191.678 201.674 192.752 202.003 193.826 201.202L202.547 194.636C206.829 191.418 210.223 187.112 212.356 182.191L241.842 114.201C242.372 112.999 242.386 111.654 241.9 110.424C241.413 109.194 240.482 108.236 239.265 107.706L239.279 107.692Z" fill="#E8FDF8"/>
<path d="M241.326 102.957L228.968 97.607C223.855 95.3898 217.912 97.7501 215.693 102.857L186.207 170.848C183.715 176.584 182.756 182.892 183.429 189.1L184.603 199.943C184.904 202.747 186.622 205.079 189.214 206.195C190.217 206.624 191.262 206.838 192.307 206.838C193.94 206.838 195.558 206.309 196.933 205.265L205.654 198.699C210.652 194.937 214.604 189.916 217.082 184.194L246.568 116.203C247.642 113.729 247.685 110.996 246.697 108.493C245.709 105.99 243.79 104.016 241.326 102.943V102.957ZM241.842 114.172L212.356 182.163C210.222 187.083 206.828 191.375 202.547 194.608L193.825 201.174C192.751 201.989 191.663 201.66 191.262 201.474C190.847 201.302 189.873 200.73 189.73 199.386L188.555 188.543C187.983 183.221 188.799 177.8 190.933 172.879L220.419 104.888C221.22 103.029 223.039 101.913 224.958 101.913C225.617 101.913 226.276 102.042 226.92 102.313L239.279 107.663C240.482 108.193 241.427 109.151 241.914 110.381C242.4 111.611 242.372 112.942 241.856 114.158L241.842 114.172Z" fill="#006D77" stroke="#006D77" stroke-width="4.81" stroke-miterlimit="10"/>
</svg>
