<svg width="238" height="252" viewBox="0 0 238 252" fill="none" xmlns="http://www.w3.org/2000/svg">
<path d="M113.768 162.667H113.983C113.983 162.667 113.844 162.528 113.768 162.467V162.667Z" fill="#E8FDF8"/>
<path d="M175.852 159.928H224.055C227.147 159.928 229.673 157.418 229.673 154.312V65.7465C229.673 62.6556 227.163 60.1309 224.055 60.1309H155.233V84.3226C155.233 86.3272 156.856 87.9491 158.861 87.9491H186.185C188.19 87.9491 189.813 86.3272 189.813 84.3226V72.7547C189.813 71.301 190.991 70.1075 192.461 70.1075C193.93 70.1075 195.109 71.2857 195.109 72.7547V84.3226C195.109 89.2344 191.114 93.2282 186.2 93.2282H158.876C153.962 93.2282 149.967 89.2344 149.967 84.3226V60.1309H121.006C117.913 60.1309 115.388 62.6403 115.388 65.7465V154.312C115.388 157.403 117.898 159.928 121.006 159.928H151.253C152.707 159.928 153.901 161.106 153.901 162.575C153.901 162.606 153.901 162.636 153.901 162.667H173.25C173.25 162.667 173.25 162.606 173.25 162.575C173.25 161.121 174.429 159.928 175.898 159.928H175.852ZM192.124 129.722H213.723C215.177 129.722 216.371 130.901 216.371 132.37C216.371 133.839 215.192 135.017 213.723 135.017H192.124C190.67 135.017 189.476 133.839 189.476 132.37C189.476 130.901 190.654 129.722 192.124 129.722Z" fill="#E8FDF8"/>
<path d="M106.452 18.367H145.578C154.548 18.367 161.835 25.6505 161.835 34.6172C161.835 36.0709 163.013 37.2644 164.483 37.2644C165.952 37.2644 167.131 36.0862 167.131 34.6172C167.131 22.7432 157.472 13.0879 145.593 13.0879H106.468C105.013 13.0879 103.819 14.2661 103.819 15.735C103.819 17.204 104.998 18.3823 106.468 18.3823L106.452 18.367Z" fill="#006D77" stroke="#006D77" stroke-width="4.81" stroke-miterlimit="10"/>
<path d="M164.475 182.062C163.02 182.062 161.826 183.241 161.826 184.71V214.043C161.826 223.01 154.54 230.293 145.57 230.293H106.444C104.99 230.293 103.796 231.471 103.796 232.94C103.796 234.409 104.975 235.587 106.444 235.587H145.57C157.449 235.587 167.108 225.932 167.108 214.058V184.725C167.108 183.271 165.929 182.078 164.459 182.078L164.475 182.062Z" fill="#006D77" stroke="#006D77" stroke-width="4.81" stroke-miterlimit="10"/>
<path d="M78.0547 4.53572C74.6565 2.25578 70.3704 1.81206 66.5894 3.31161L10.3345 20.3423L10.0896 20.4341C5.42084 22.3468 2.40527 26.8454 2.40527 31.8796V219.982C2.40527 225.016 5.42084 229.515 10.0896 231.428L66.5741 248.55C68.059 249.147 69.605 249.438 71.1511 249.438C73.5696 249.438 75.9729 248.734 78.0394 247.341C81.4683 245.046 83.5195 241.19 83.5195 237.058V144.637C83.5195 143.183 82.3408 141.99 80.8713 141.99C79.4018 141.99 78.2231 143.168 78.2231 144.637V237.058C78.2231 239.461 77.075 241.618 75.0698 242.95C73.0798 244.281 70.6459 244.541 68.4263 243.623L11.9571 226.5C9.33955 225.383 7.65573 222.828 7.65573 219.982V31.8796C7.65573 29.0335 9.33955 26.4782 11.9571 25.3612L68.1967 8.33057L68.4416 8.23877C70.6765 7.32067 73.0951 7.5655 75.0851 8.91204C77.0903 10.2586 78.2384 12.4008 78.2384 14.8031V60.9986C78.2384 62.4522 79.4171 63.6457 80.8866 63.6457C82.3561 63.6457 83.5348 62.4675 83.5348 60.9986V14.8031C83.5348 10.6717 81.4836 6.83103 78.0547 4.52049V4.53572Z" fill="#006D77" stroke="#006D77" stroke-width="4.81" stroke-miterlimit="10"/>
<path d="M80.8982 119.346C79.444 119.346 78.25 120.524 78.25 121.993V127.303C78.25 128.756 79.4287 129.95 80.8982 129.95C82.3677 129.95 83.5464 128.771 83.5464 127.303V121.993C83.5464 120.539 82.3677 119.346 80.8982 119.346Z" fill="#006D77" stroke="#006D77" stroke-width="4.81" stroke-miterlimit="10"/>
<path d="M80.8982 98.0898C79.444 98.0898 78.25 99.268 78.25 100.737V105.618C78.25 107.072 79.4287 108.265 80.8982 108.265C82.3677 108.265 83.5464 107.087 83.5464 105.618V100.737C83.5464 99.2833 82.3677 98.0898 80.8982 98.0898Z" fill="#006D77" stroke="#006D77" stroke-width="4.81" stroke-miterlimit="10"/>
<path d="M80.8982 73.1973C79.444 73.1973 78.25 74.3756 78.25 75.8445V82.5619C78.25 84.0156 79.4287 85.2091 80.8982 85.2091C82.3677 85.2091 83.5464 84.0309 83.5464 82.5619V75.8445C83.5464 74.3909 82.3677 73.1973 80.8982 73.1973Z" fill="#006D77" stroke="#006D77" stroke-width="4.81" stroke-miterlimit="10"/>
<path d="M57.0391 105.801V146.075C57.0391 147.529 58.2177 148.722 59.6873 148.722C61.1568 148.722 62.3354 147.544 62.3354 146.075V105.801C62.3354 104.348 61.1568 103.154 59.6873 103.154C58.2177 103.154 57.0391 104.332 57.0391 105.801Z" fill="#006D77" stroke="#006D77" stroke-width="4.81" stroke-miterlimit="10"/>
<path d="M224.04 54.8477H120.975C114.975 54.8477 110.076 59.7289 110.076 65.7424V154.308C110.076 157.552 111.515 160.459 113.765 162.448C113.842 162.51 113.903 162.586 113.98 162.647C115.878 164.239 118.312 165.203 120.975 165.203H151.223C152.646 165.203 153.81 164.07 153.855 162.647C153.855 162.617 153.855 162.586 153.855 162.555C153.855 161.102 152.677 159.908 151.207 159.908H120.96C117.868 159.908 115.342 157.399 115.342 154.293V65.7271C115.342 62.6362 117.852 60.1114 120.96 60.1114H149.921V84.3032C149.921 89.215 153.917 93.2087 158.83 93.2087H186.154C191.068 93.2087 195.063 89.215 195.063 84.3032V72.7352C195.063 71.2815 193.884 70.0881 192.415 70.0881C190.945 70.0881 189.767 71.2662 189.767 72.7352V84.3032C189.767 86.3077 188.144 87.9296 186.139 87.9296H158.815C156.81 87.9296 155.187 86.3077 155.187 84.3032V60.1114H224.01C227.102 60.1114 229.627 62.6209 229.627 65.7271V154.293C229.627 157.383 227.117 159.908 224.01 159.908H175.806C174.352 159.908 173.158 161.086 173.158 162.555C173.158 162.586 173.158 162.617 173.158 162.647C173.204 164.055 174.367 165.203 175.791 165.203H223.994C226.658 165.203 229.092 164.239 230.99 162.647C233.378 160.643 234.893 157.659 234.893 154.308V65.7424C234.893 59.7442 230.01 54.8477 223.994 54.8477H224.04Z" fill="#006D77" stroke="#006D77" stroke-width="4.81" stroke-miterlimit="10"/>
<path d="M192.107 135.013H213.706C215.16 135.013 216.354 133.835 216.354 132.366C216.354 130.897 215.176 129.719 213.706 129.719H192.107C190.653 129.719 189.459 130.897 189.459 132.366C189.459 133.835 190.638 135.013 192.107 135.013Z" fill="#006D77" stroke="#006D77" stroke-width="4.81" stroke-miterlimit="10"/>
</svg>
