<svg width="265" height="245" viewBox="0 0 265 245" fill="none" xmlns="http://www.w3.org/2000/svg">
<path d="M247.403 175.402L259.403 170.402L251.903 149.402L234.403 135.402L225.403 145.402L234.403 165.402L247.403 175.402Z" fill="#E8FDF8"/>
<path d="M193.903 132.402L226.903 122.402L236.903 112.902L248.403 91.4023L252.403 67.9023L248.403 48.4023L236.903 24.4023L215.403 12.9023L180.903 6.40234L149.903 16.4023L130.403 44.4023L125.903 74.9023L136.903 105.902L155.903 122.402L193.903 132.402Z" fill="#E8FDF8"/>
<path d="M23.6544 100.291C22.1864 100.291 20.9854 99.0915 20.9854 97.626V91.1865C20.9854 78.8551 31.0238 68.8184 43.3605 68.8184H107.224C108.692 68.8184 109.893 70.0174 109.893 71.483C109.893 72.9485 108.692 74.1476 107.224 74.1476H43.3605C33.9597 74.1476 26.3234 81.7862 26.3234 91.1865V97.626C26.3234 99.0915 25.1223 100.291 23.6544 100.291Z" fill="#006D77" stroke="#006D77" stroke-width="4.81" stroke-miterlimit="10"/>
<path d="M159.744 189.056H43.3605C31.0238 189.056 20.9854 179.019 20.9854 166.688V115.186C20.9854 113.721 22.1864 112.521 23.6544 112.521C25.1223 112.521 26.3234 113.721 26.3234 115.186V166.688C26.3234 176.088 33.9745 183.726 43.3605 183.726H159.744C169.16 183.726 176.811 176.088 176.811 166.688V151.129C176.811 149.663 178.012 148.464 179.48 148.464C180.948 148.464 182.149 149.663 182.149 151.129V166.688C182.149 179.019 172.096 189.056 159.744 189.056Z" fill="#006D77" stroke="#006D77" stroke-width="4.81" stroke-miterlimit="10"/>
<path d="M68.6563 74.1492C67.1884 74.1492 65.9873 72.9502 65.9873 71.4846V50.3304C65.9873 39.6275 74.5281 30.9082 85.0114 30.9082H115.26C116.728 30.9082 117.929 32.1073 117.929 33.5728C117.929 35.0384 116.728 36.2375 115.26 36.2375H85.0114C77.464 36.2375 71.3253 42.5586 71.3253 50.3304V71.4846C71.3253 72.9502 70.1243 74.1492 68.6563 74.1492Z" fill="#006D77" stroke="#006D77" stroke-width="4.81" stroke-miterlimit="10"/>
<path d="M89.1924 74.1483C87.7245 74.1483 86.5234 72.9493 86.5234 71.4837V54.0748C86.5234 52.6092 87.7245 51.4102 89.1924 51.4102H108.587C110.055 51.4102 111.256 52.6092 111.256 54.0748C111.256 55.5403 110.055 56.7394 108.587 56.7394H91.8615V71.4837C91.8615 72.9493 90.6604 74.1483 89.1924 74.1483Z" fill="#006D77" stroke="#006D77" stroke-width="4.81" stroke-miterlimit="10"/>
<path d="M190.082 135.819C167.321 135.819 145.124 124.228 132.624 103.34C123.475 88.0479 120.836 70.106 125.195 52.8303C129.554 35.5547 140.394 21.0028 155.711 11.8691C171.028 2.73529 188.984 0.100262 206.288 4.45249C223.593 8.80472 238.168 19.6261 247.317 34.9181C266.208 66.494 255.858 107.514 224.23 126.389C213.524 132.769 201.721 135.819 190.082 135.819ZM189.859 7.73887C178.887 7.73887 168.092 10.6848 158.439 16.4581C144.338 24.8665 134.374 38.2489 130.355 54.1479C126.337 70.0468 128.769 86.5527 137.191 100.616C154.584 129.661 192.395 139.179 221.487 121.815C250.579 104.45 260.113 66.7012 242.72 37.6568C234.298 23.5786 220.894 13.6307 204.969 9.61892C199.957 8.36062 194.886 7.73887 189.844 7.73887H189.859Z" fill="#006D77" stroke="#006D77" stroke-width="4.81" stroke-miterlimit="10"/>
<path d="M179.464 115.983C179.256 115.983 179.063 115.954 178.856 115.909C166.148 112.934 155.413 105.073 148.651 93.7779C147.895 92.5196 148.31 90.8764 149.571 90.1215C150.831 89.3665 152.477 89.781 153.233 91.0393C159.253 101.091 168.788 108.078 180.072 110.728C181.51 111.068 182.399 112.49 182.058 113.925C181.777 115.154 180.679 115.983 179.464 115.983Z" fill="#006D77" stroke="#006D77" stroke-width="4.81" stroke-miterlimit="10"/>
<path d="M247.153 179.269C245.967 179.269 244.766 179.106 243.58 178.781C240.006 177.804 237.07 175.494 235.291 172.252L224.852 153.615C221.353 147.22 223.518 139.3 229.76 135.584C236.003 131.853 244.01 133.704 247.984 139.788L260.172 157.315C262.233 160.483 262.886 164.17 262.055 167.767C261.225 171.364 259.015 174.399 255.828 176.294L254.063 177.345C251.943 178.618 249.57 179.254 247.183 179.254L247.153 179.269ZM236.655 139.004C235.232 139.004 233.793 139.374 232.489 140.158C228.707 142.408 227.403 147.19 229.523 151.039L239.962 169.676C241.044 171.66 242.824 173.066 244.988 173.644C247.153 174.236 249.392 173.925 251.305 172.785L253.07 171.734C254.982 170.594 256.332 168.759 256.836 166.582C257.34 164.406 256.94 162.186 255.724 160.306L243.535 142.778C241.934 140.336 239.324 139.018 236.655 139.018V139.004Z" fill="#006D77" stroke="#006D77" stroke-width="4.81" stroke-miterlimit="10"/>
<path d="M219.855 242.404H31.794C15.5872 242.404 2.40527 229.243 2.40527 213.063C2.40527 196.883 15.5872 183.723 31.794 183.723H43.3597C44.8277 183.723 46.0287 184.922 46.0287 186.387C46.0287 187.853 44.8277 189.052 43.3597 189.052H31.794C18.5379 189.052 7.74329 199.814 7.74329 213.063C7.74329 226.312 18.5231 237.074 31.794 237.074H219.84C233.097 237.074 243.891 226.312 243.891 213.063C243.891 199.814 233.111 189.052 219.84 189.052H191.445C189.977 189.052 188.776 187.853 188.776 186.387C188.776 184.922 189.977 183.723 191.445 183.723H219.84C236.047 183.723 249.229 196.883 249.229 213.063C249.229 229.243 236.047 242.404 219.84 242.404H219.855Z" fill="#006D77" stroke="#006D77" stroke-width="4.81" stroke-miterlimit="10"/>
<path d="M43.0477 225.377C36.2417 225.377 30.7109 219.855 30.7109 213.061C30.7109 206.266 36.2417 200.744 43.0477 200.744C49.8537 200.744 55.3844 206.266 55.3844 213.061C55.3844 219.855 49.8537 225.377 43.0477 225.377ZM43.0477 206.059C39.1925 206.059 36.049 209.197 36.049 213.046C36.049 216.895 39.1925 220.033 43.0477 220.033C46.9029 220.033 50.0464 216.895 50.0464 213.046C50.0464 209.197 46.9029 206.059 43.0477 206.059Z" fill="#006D77" stroke="#006D77" stroke-width="4.81" stroke-miterlimit="10"/>
<path d="M208.601 225.377C201.795 225.377 196.265 219.855 196.265 213.061C196.265 206.266 201.795 200.744 208.601 200.744C215.407 200.744 220.938 206.266 220.938 213.061C220.938 219.855 215.407 225.377 208.601 225.377ZM208.601 206.059C204.731 206.059 201.603 209.197 201.603 213.046C201.603 216.895 204.746 220.033 208.601 220.033C212.457 220.033 215.6 216.895 215.6 213.046C215.6 209.197 212.457 206.059 208.601 206.059Z" fill="#006D77" stroke="#006D77" stroke-width="4.81" stroke-miterlimit="10"/>
</svg>
