<svg width="304" height="252" viewBox="0 0 304 252" fill="none" xmlns="http://www.w3.org/2000/svg">
<path d="M82.438 118.084C91.7564 111.86 114.61 92.2697 108.651 76.504C104.877 66.51 97.6322 67.5656 87.6225 69.0325C81.1522 69.9784 72.2762 71.2671 60.4692 70.6365C29.6658 68.9639 23.1125 70.5405 6.59101 83.6055C5.0702 84.7982 1.53086 87.6086 2.60926 90.8439C3.78443 94.3809 8.73397 94.5592 15.5914 94.8059C18.8681 94.9293 25.615 95.1761 26.8869 96.3551C26.8731 96.4236 26.8454 96.5196 26.7901 96.6704C22.8084 106.527 20.7207 122.896 26.7625 139.265C29.0299 145.407 34.8919 150.123 42.4683 151.905C44.1135 152.289 45.9662 152.549 47.7497 152.549C50.2797 152.549 52.6854 152.028 54.1785 150.644C55.2708 149.629 55.3399 147.902 54.303 146.819C53.2799 145.736 51.5517 145.667 50.4595 146.696C49.8926 147.121 46.8372 147.6 42.5927 146.353C40.0903 145.613 34.0485 143.282 31.8779 137.414C26.3615 122.471 28.4077 107.213 31.8503 98.6857C32.8181 96.2728 32.2097 94.5317 31.5323 93.4898C29.182 89.898 22.6839 89.6649 15.8127 89.4045C13.6006 89.3222 10.5589 89.2125 8.73397 88.9109C9.03814 88.6093 9.4529 88.2529 10.0059 87.8142C25.4352 75.6266 30.5922 74.4065 60.1926 76.0105C72.5527 76.6823 81.7328 75.3388 88.4382 74.3654C98.8765 72.8437 101.42 72.6929 103.577 78.3959C107.504 88.7876 91.4799 105.54 79.424 113.601C77.281 115.041 74.0044 116.864 70.548 118.797C65.2251 121.772 59.1972 125.145 54.4274 128.586C53.2107 129.463 52.9481 131.149 53.8329 132.356C54.7177 133.562 56.4183 133.823 57.6349 132.945C62.1421 129.682 68.0317 126.392 73.2163 123.499C76.9354 121.416 80.1429 119.633 82.4656 118.071L82.438 118.084Z" fill="#006D77" stroke="#006D77" stroke-width="4.81" stroke-miterlimit="10"/>
<path d="M281.415 67.14C281.304 67.14 281.18 67.14 281.069 67.14C273.009 67.2497 262.737 67.1674 254.911 65.9747C257.552 59.2435 258.99 53.1291 258.99 48.139C258.99 22.9139 238.293 2.40479 212.868 2.40479C187.443 2.40479 166.746 22.9276 166.746 48.139C166.746 52.3751 167.783 57.4339 169.705 62.9724C157.151 63.2329 152.879 68.5795 151.731 73.7342C150.017 81.4251 146.74 85.3048 144.349 88.1426C143.851 88.7321 143.381 89.2805 142.98 89.8015C141.072 92.2691 139.04 97.1908 141.224 100.659C142.98 103.429 146.519 104.278 151.801 103.195C161.409 101.221 174.682 111.969 178.207 118.536C178.843 119.729 178.525 120.072 178.359 120.236C176.728 121.936 169.124 122.827 159.736 118.522C151.151 114.588 141.335 117.385 133.482 126.008C126.085 134.124 121.384 147.038 126.735 155.99C131.242 163.53 137.989 165.203 143.948 166.683C150.459 168.301 154.22 169.494 156.003 175.224C157.676 180.653 158.755 188.207 159.792 195.5C161.99 210.909 163.469 219.738 168.529 221.726C169.193 221.986 170.036 222.192 171.06 222.192C172.622 222.192 174.599 221.726 176.977 220.259C184.194 215.858 192.489 203.945 193.664 190.551C194.895 176.568 198.559 170.261 202.444 163.599C203.038 162.57 203.646 161.542 204.241 160.473C204.808 159.458 205.305 158.279 205.748 156.84C206.19 155.414 205.388 153.906 203.95 153.467C202.513 153.029 200.992 153.824 200.549 155.25C200.218 156.319 199.872 157.183 199.485 157.854C198.904 158.896 198.31 159.911 197.729 160.912C193.733 167.794 189.6 174.922 188.258 190.099C187.263 201.313 180.295 211.91 174.129 215.68C172.331 216.777 171.101 216.941 170.548 216.722C168.156 215.653 166.221 202.067 165.184 194.76C164.119 187.247 163.013 179.488 161.202 173.647C158.437 164.723 151.441 162.982 145.261 161.46C139.869 160.116 134.767 158.855 131.422 153.262C128.007 147.531 130.689 137.153 137.533 129.641C139.841 127.104 148.109 119.167 157.455 123.444C167.52 128.05 178.207 128.27 182.327 123.965C184.346 121.84 184.595 118.947 183.019 116.014C178.954 108.46 163.87 95.2304 150.694 97.9174C147.238 98.6165 145.994 98.0545 145.842 97.794C145.413 97.1222 146.049 94.7094 147.307 93.0917C147.667 92.6256 148.081 92.1458 148.524 91.6111C151.123 88.5265 155.036 83.8791 157.054 74.8995C158.257 69.5254 164.838 68.1956 171.806 68.3739C174.958 75.7906 179.507 83.8516 185.175 91.9401C193.429 103.716 205.651 117.467 212.882 117.467C220.113 117.467 232.321 103.716 240.588 91.9401C245.579 84.825 249.685 77.7373 252.755 71.0883C259.377 72.2536 268.613 72.706 281.152 72.5552C281.249 72.5552 281.346 72.5552 281.456 72.5552C290.775 72.5552 295.78 78.0526 295.96 81.1783C295.987 81.713 296.07 82.988 293.582 83.2484C283.586 84.2766 282.576 87.279 282.645 93.8594C282.645 94.682 282.673 95.6005 282.645 96.6013C282.576 99.727 281.346 103.305 279.922 107.473C278.249 112.381 276.341 117.947 275.636 124.623C275.18 128.928 269.94 130.628 261.437 133.027C253.501 135.275 244.501 137.811 238.915 144.721C236.04 148.285 234.947 148.217 234.892 148.217C234.159 148.189 232.473 145.818 231.367 144.241C228.74 140.512 225.131 135.412 218.536 132.958C211.458 130.326 207.683 133.452 205.762 136.55C204.974 137.825 205.375 139.484 206.66 140.265C207.946 141.047 209.619 140.649 210.407 139.374C211.306 137.921 212.591 136.509 216.629 138.017C221.633 139.882 224.44 143.843 226.901 147.339C229.141 150.506 231.256 153.509 234.712 153.618C237.408 153.755 240.008 152.014 243.16 148.107C247.667 142.541 255.769 140.252 262.93 138.223C271.806 135.714 280.185 133.342 281.056 125.199C281.705 119.112 283.503 113.848 285.079 109.214C286.641 104.649 287.982 100.7 288.093 96.7521C288.12 95.669 288.107 94.6957 288.093 93.8183C288.056 90.7931 290.074 89.0703 294.148 88.6499C298.808 88.1701 301.642 85.1266 301.393 80.9041C301.006 74.2277 292.904 67.1949 281.429 67.1949L281.415 67.14ZM212.868 112.531C209.965 112.531 200.453 105.087 189.254 89.116C178.276 73.46 171.723 58.1467 171.723 48.1252C171.723 25.6283 190.18 7.32642 212.868 7.32642C235.556 7.32642 254.013 25.6283 254.013 48.1252C254.013 58.133 247.459 73.46 236.482 89.116C225.283 105.087 215.771 112.531 212.868 112.531Z" fill="#006D77" stroke="#006D77" stroke-width="4.81" stroke-miterlimit="10"/>
<path d="M61.187 59.2286C61.5189 59.3657 61.8645 59.4343 62.2101 59.4343C63.2885 59.4343 64.3116 58.8036 64.7402 57.748C67.3532 51.3595 70.9064 45.3274 75.2891 39.8163C76.2154 38.651 76.0219 36.951 74.8329 36.0188C73.6439 35.1003 71.9433 35.2922 71.0032 36.4712C66.3025 42.3799 62.5005 48.8644 59.6801 55.719C59.1132 57.1037 59.7907 58.6803 61.1732 59.2423L61.187 59.2286Z" fill="#006D77" stroke="#006D77" stroke-width="4.81" stroke-miterlimit="10"/>
<path d="M143.162 9.27198C150.241 9.49133 157.237 10.5744 163.97 12.4937C164.219 12.5622 164.467 12.6033 164.716 12.6033C165.905 12.6033 166.997 11.8356 167.329 10.6429C167.744 9.20343 166.901 7.70912 165.463 7.31155C158.301 5.28258 150.849 4.131 143.328 3.88423C141.849 3.77456 140.563 5.00839 140.522 6.5027C140.48 7.99702 141.655 9.24456 143.162 9.28569V9.27198Z" fill="#006D77" stroke="#006D77" stroke-width="4.81" stroke-miterlimit="10"/>
<path d="M94.7674 21.8444C95.2513 21.8444 95.7491 21.721 96.1915 21.4469C102.164 17.8139 108.621 14.935 115.367 12.8923C116.805 12.4536 117.621 10.9456 117.179 9.51979C116.736 8.09402 115.215 7.28517 113.778 7.72387C106.574 9.90365 99.7032 12.9608 93.3296 16.8405C92.0438 17.622 91.6429 19.2808 92.4309 20.5558C92.9425 21.392 93.8411 21.8444 94.7536 21.8444H94.7674Z" fill="#006D77" stroke="#006D77" stroke-width="4.81" stroke-miterlimit="10"/>
<path d="M276.341 145.694C274.862 145.941 273.852 147.339 274.101 148.806C274.627 151.891 274.889 155.044 274.889 158.211C274.889 161.953 274.516 165.682 273.797 169.315C273.507 170.782 274.461 172.194 275.94 172.496C276.12 172.537 276.3 172.551 276.479 172.551C277.751 172.551 278.885 171.66 279.148 170.385C279.95 166.409 280.35 162.324 280.35 158.238C280.35 154.783 280.06 151.315 279.493 147.942C279.244 146.476 277.834 145.489 276.355 145.722L276.341 145.694Z" fill="#006D77" stroke="#006D77" stroke-width="4.81" stroke-miterlimit="10"/>
<path d="M266.968 192.06C265.779 191.156 264.065 191.375 263.152 192.554C258.908 198.051 253.737 202.671 247.806 206.304C246.52 207.086 246.133 208.745 246.921 210.02C247.433 210.842 248.331 211.294 249.244 211.294C249.728 211.294 250.225 211.171 250.668 210.897C257.166 206.921 262.82 201.862 267.466 195.844C268.378 194.665 268.157 192.965 266.968 192.06Z" fill="#006D77" stroke="#006D77" stroke-width="4.81" stroke-miterlimit="10"/>
<path d="M223.403 214.431C216.476 215.089 209.425 214.486 202.803 212.677C201.365 212.279 199.858 213.115 199.457 214.555C199.056 215.994 199.9 217.475 201.351 217.872C206.716 219.339 212.287 220.093 217.928 220.093C219.919 220.093 221.937 219.997 223.915 219.805C225.408 219.668 226.514 218.352 226.362 216.858C226.223 215.377 224.855 214.267 223.389 214.431H223.403Z" fill="#006D77" stroke="#006D77" stroke-width="4.81" stroke-miterlimit="10"/>
<path d="M212.871 7.33936C235.559 7.33936 254.017 25.6413 254.017 48.1382C254.017 58.1597 247.463 73.4734 236.485 89.1294C225.287 105.1 215.774 112.544 212.871 112.544C209.967 112.544 200.456 105.1 189.258 89.1294C178.28 73.4734 171.727 58.146 171.727 48.1382C171.727 25.6413 190.184 7.33952 212.871 7.33936ZM212.871 22.6118C198.672 22.612 187.128 34.0588 187.128 48.1382C187.128 62.2175 198.672 73.6644 212.871 73.6646C227.07 73.6646 238.614 62.2176 238.614 48.1382C238.614 34.0587 227.07 22.6118 212.871 22.6118Z" fill="#E8FDF8"/>
<path d="M212.871 7.33936C235.559 7.33936 254.017 25.6413 254.017 48.1382C254.017 58.1597 247.463 73.4734 236.485 89.1294C225.287 105.1 215.774 112.544 212.871 112.544C209.967 112.544 200.456 105.1 189.258 89.1294C178.28 73.4734 171.727 58.146 171.727 48.1382C171.727 25.6413 190.184 7.33952 212.871 7.33936ZM212.871 22.6118C198.672 22.612 187.128 34.0588 187.128 48.1382C187.128 62.2175 198.672 73.6644 212.871 73.6646C227.07 73.6646 238.614 62.2176 238.614 48.1382C238.614 34.0587 227.07 22.6118 212.871 22.6118Z" stroke="#006D77"/>
<path d="M238.609 48.1375C238.609 34.0581 227.065 22.6108 212.866 22.6108C198.667 22.6108 187.123 34.0581 187.123 48.1375C187.123 62.217 198.667 73.6642 212.866 73.6642C227.065 73.6642 238.609 62.217 238.609 48.1375ZM212.866 68.7289C201.419 68.7289 192.1 59.4888 192.1 48.1375C192.1 36.7862 201.419 27.5462 212.866 27.5462C224.314 27.5462 233.632 36.7862 233.632 48.1375C233.632 59.4888 224.314 68.7289 212.866 68.7289Z" fill="#006D77" stroke="#006D77" stroke-width="4.81" stroke-miterlimit="10"/>
<path d="M105.497 163.38C94.2019 156.773 77.625 152.057 64.9608 158.719C64.9332 158.719 64.9055 158.747 64.8917 158.76C60.8546 161.05 56.7208 164.614 58.8638 178.091C60.0251 185.37 63.3709 188.016 66.3296 190.347C69.703 193.006 72.6202 195.309 72.5096 206.441C72.3298 225.031 78.3025 241.14 84.0124 246.856C85.713 248.556 87.4412 249.406 89.1832 249.406C90.704 249.406 91.9345 248.926 92.847 247.98C94.506 246.253 94.3954 243.785 94.2433 240.673C94.0636 237.04 93.8286 232.078 96.4278 226.841C98.2389 223.194 101.488 217.943 104.944 212.391C114.083 197.681 120.54 186.769 120.443 180.407C120.346 174.238 112.673 167.562 105.525 163.38H105.497ZM100.285 209.553C96.7596 215.215 93.4414 220.576 91.5197 224.455C88.3122 230.94 88.6025 236.958 88.7961 240.934C88.8375 241.894 88.9067 243.127 88.8514 243.881C85.6024 242.346 77.7633 227.334 77.9568 206.482C78.0813 192.718 73.6433 189.209 69.7168 186.11C67.1176 184.068 65.0714 182.45 64.2419 177.241C62.5137 166.383 65.4032 164.683 67.5462 163.463C78.2334 157.883 93.1788 162.421 102.732 168.028C110.71 172.703 114.94 177.844 114.982 180.49C115.065 185.768 106.534 199.518 100.299 209.553H100.285Z" fill="#006D77" stroke="#006D77" stroke-width="4.81" stroke-miterlimit="10"/>
</svg>
