<svg width="262" height="250" viewBox="0 0 262 250" fill="none" xmlns="http://www.w3.org/2000/svg">
<path d="M128.171 115.476C129.767 114.243 132.017 114.243 133.629 115.476L171.668 144.481H158.532C157.058 144.481 155.856 145.669 155.856 147.127V243.871L155.872 243.885C155.872 245.344 157.073 246.532 158.548 246.532H105.138C105.122 246.276 105.122 246.035 105.122 245.78C105.624 245.299 105.943 244.622 105.943 243.871V147.127C105.943 145.669 104.742 144.481 103.268 144.481H90.1318L128.171 115.476Z" fill="#E8FDF8"/>
<path d="M128.171 115.476C129.767 114.243 132.017 114.243 133.629 115.476L171.668 144.481H158.532C157.058 144.481 155.856 145.669 155.856 147.127V243.871L155.872 243.885C155.872 245.344 157.073 246.532 158.548 246.532H105.138C105.122 246.276 105.122 246.035 105.122 245.78C105.624 245.299 105.943 244.622 105.943 243.871V147.127C105.943 145.669 104.742 144.481 103.268 144.481H90.1318L128.171 115.476Z" stroke="#006D77"/>
<path d="M230.263 48.9259C229.32 47.7982 227.633 47.6328 226.492 48.5651C225.352 49.4973 225.185 51.1663 226.128 52.2941C244.128 73.9763 254.041 101.402 254.041 129.505C254.041 179.26 223.969 223.527 177.431 242.292C176.062 242.848 175.409 244.397 175.956 245.75C176.382 246.773 177.385 247.404 178.434 247.404C178.769 247.404 179.118 247.344 179.453 247.209C228.013 227.632 259.408 181.425 259.408 129.505C259.408 100.169 249.07 71.5555 230.278 48.9259H230.263Z" fill="#006D77" stroke="#006D77" stroke-width="4.81" stroke-miterlimit="10"/>
<path d="M178.251 146.694C178.89 144.814 178.282 142.829 176.7 141.626L136.898 111.283C133.37 108.592 128.429 108.592 124.887 111.283L85.0841 141.626C83.5029 142.829 82.8947 144.829 83.5333 146.694C84.1718 148.558 85.8898 149.776 87.8815 149.776H100.561V243.873C100.561 245.331 101.762 246.519 103.237 246.519C103.967 246.519 104.621 246.233 105.092 245.767C105.594 245.286 105.913 244.61 105.913 243.858V147.115C105.913 145.656 104.712 144.468 103.237 144.468H90.1012L128.14 115.463C129.752 114.23 132.002 114.23 133.598 115.463L171.638 144.468H158.502C157.027 144.468 155.826 145.656 155.826 147.115V243.858C155.826 245.316 157.027 246.504 158.502 246.504C159.976 246.504 161.178 245.316 161.178 243.858V149.761H173.857C175.864 149.761 177.567 148.558 178.205 146.679L178.251 146.694Z" fill="#006D77" stroke="#006D77" stroke-width="4.81" stroke-miterlimit="10"/>
<path d="M84.3673 242.293C57.3659 231.407 35.2448 211.423 21.7593 185.877C32.7514 182.494 44.3821 179.607 56.4385 177.276C61.1668 195.695 68.6013 212.265 78.0427 225.317C78.5596 226.039 79.3958 226.43 80.232 226.43C80.7641 226.43 81.3115 226.264 81.7828 225.933C82.9839 225.076 83.2575 223.422 82.4061 222.234C73.3904 209.784 66.2752 193.936 61.7141 176.284C68.9358 174.991 76.3095 173.908 83.6832 173.051C85.158 172.886 86.207 171.562 86.0397 170.104C85.8725 168.645 84.5346 167.608 83.0598 167.773C75.4733 168.645 67.902 169.773 60.4827 171.111C57.5028 157.744 55.9672 143.76 55.9672 129.491C55.9672 115.222 57.5636 100.862 60.4827 87.8707C83.0599 91.9004 106.838 93.9904 130.921 93.9904C155.003 93.9904 178.766 91.9455 201.343 87.9158C204.293 101.073 205.874 115.101 205.874 129.491C205.874 143.881 204.338 157.729 201.358 171.111C194.045 169.803 186.474 168.66 178.781 167.758C177.306 167.578 175.984 168.615 175.801 170.074C175.619 171.532 176.668 172.84 178.143 173.021C185.638 173.908 192.996 175.006 200.127 176.269C195.566 193.936 188.435 209.769 179.42 222.234C178.553 223.422 178.842 225.076 180.043 225.933C180.514 226.264 181.062 226.43 181.594 226.43C182.43 226.43 183.251 226.039 183.768 225.317C193.224 212.25 200.659 195.68 205.387 177.246C210.906 178.299 216.577 179.532 222.324 180.93C222.537 180.99 222.75 181.005 222.962 181.005C224.164 181.005 225.258 180.193 225.562 178.99C225.912 177.577 225.045 176.133 223.601 175.788C217.839 174.389 212.153 173.141 206.603 172.089C209.644 158.391 211.21 144.091 211.21 129.506C211.21 114.921 209.599 100.411 206.573 86.9084C212.305 85.7957 217.991 84.5928 223.586 83.2245C225.03 82.8787 225.897 81.4352 225.547 80.0218C225.182 78.6084 223.738 77.7363 222.309 78.0821C216.744 79.4504 211.073 80.6383 205.372 81.751C200.507 62.7001 192.753 45.6189 182.552 32.0713C181.67 30.8984 179.982 30.6579 178.796 31.53C177.61 32.4021 177.367 34.0711 178.249 35.2439C187.994 48.1751 195.414 64.5345 200.096 82.7734C177.915 86.7279 154.744 88.7278 130.905 88.7278C107.066 88.7278 83.896 86.6828 61.7141 82.7433C72.6911 40.0104 98.2481 9.57707 128.214 7.8479V72.3232C128.214 73.7818 129.415 74.9696 130.89 74.9696C132.365 74.9696 133.566 73.7818 133.566 72.3232V7.77272C162.133 8.3892 189.652 18.7792 211.286 37.2588C212.411 38.2211 214.099 38.0858 215.072 36.9881C216.045 35.8754 215.908 34.2064 214.798 33.2441C191.506 13.3662 161.708 2.40479 130.89 2.40479C80.4905 2.40479 36.7956 31.2743 15.754 73.1502C15.5868 73.3758 15.4347 73.6314 15.3435 73.9171C15.3435 73.9321 15.3435 73.9472 15.3435 73.9772C7.07276 90.7577 2.40527 109.598 2.40527 129.491C2.40527 149.384 6.81427 167.909 15.4955 185.426C29.4067 213.483 53.1546 235.406 82.3605 247.195C82.695 247.33 83.0294 247.39 83.3639 247.39C84.4129 247.39 85.4164 246.774 85.8421 245.736C86.4046 244.383 85.7356 242.834 84.3673 242.278V242.293ZM101.562 11.2461C81.129 23.9818 64.7701 49.6035 56.4994 81.766C44.5038 79.4504 32.8883 76.5785 21.7897 73.1653C37.9815 42.5966 66.9137 19.6513 101.578 11.2461H101.562ZM19.3572 77.9769C30.8207 81.5405 42.8314 84.5327 55.2374 86.9234C52.2271 100.246 50.5852 114.575 50.5852 129.506C50.5852 144.437 52.1511 158.406 55.1918 172.119C42.7097 174.524 30.6838 177.532 19.3116 181.08C11.649 164.886 7.74172 147.549 7.74172 129.521C7.74172 111.493 11.9227 93.6446 19.342 77.9919L19.3572 77.9769Z" fill="#006D77" stroke="#006D77" stroke-width="4.81" stroke-miterlimit="10"/>
</svg>
