<svg width="313" height="250" viewBox="0 0 313 250" fill="none" xmlns="http://www.w3.org/2000/svg">
<path d="M212.58 65.2607V87.4795H188.202V65.2607H212.58Z" fill="#E8FDF8"/>
<path d="M212.58 65.2607V87.4795H188.202V65.2607H212.58Z" stroke="#006D77"/>
<path d="M122.708 7.06738C144.165 7.06738 161.627 24.3816 161.627 45.6572C161.627 55.1294 155.431 69.614 145.049 84.4219C134.45 99.5263 125.453 106.561 122.708 106.561C119.963 106.56 110.967 99.5255 100.368 84.4219C89.9864 69.614 83.79 55.1294 83.79 45.6572C83.79 24.3818 101.251 7.06762 122.708 7.06738ZM122.708 21.5117C109.282 21.512 98.3574 32.345 98.3574 45.6572C98.3574 58.9695 109.282 69.8025 122.708 69.8027C136.134 69.8027 147.06 58.9696 147.06 45.6572C147.06 32.3448 136.134 21.5117 122.708 21.5117Z" fill="#E8FDF8"/>
<path d="M122.708 7.06738C144.165 7.06738 161.627 24.3816 161.627 45.6572C161.627 55.1294 155.431 69.614 145.049 84.4219C134.45 99.5263 125.453 106.561 122.708 106.561C119.963 106.56 110.967 99.5255 100.368 84.4219C89.9864 69.614 83.79 55.1294 83.79 45.6572C83.79 24.3818 101.251 7.06762 122.708 7.06738ZM122.708 21.5117C109.282 21.512 98.3574 32.345 98.3574 45.6572C98.3574 58.9695 109.282 69.8025 122.708 69.8027C136.134 69.8027 147.06 58.9696 147.06 45.6572C147.06 32.3448 136.134 21.5117 122.708 21.5117Z" stroke="#006D77"/>
<path d="M306.971 130.544C309.023 127.431 311.36 123.901 310.001 118.848C308.072 111.68 302.201 111.235 297.472 110.885C296.399 110.804 295.38 110.723 294.388 110.589L293.885 110.521C290.664 110.063 286.493 109.457 282.348 108.54C282.09 110.077 281.804 111.586 281.505 113.081C285.65 113.984 289.808 114.59 293.219 115.075L293.722 115.143C294.863 115.304 296.018 115.399 297.119 115.48C301.916 115.83 304.471 116.194 305.503 120.034C306.291 122.958 305.096 124.965 303.085 128.024C301.78 129.991 300.312 132.214 299.755 134.95C299.348 136.957 299.647 139.989 300.013 143.843C300.584 149.69 301.44 158.516 298.6 161.13C298.301 161.399 297.404 162.235 294.904 161.804C292.703 161.426 290.556 161.049 288.449 160.577C283.354 159.446 279.399 165.725 275.581 171.801C273.936 174.415 272.251 177.11 271.001 178.202C264.207 184.144 256.869 185.585 248.362 187.256C245.359 187.849 242.261 188.455 239.081 189.291C238.904 189.331 221.524 194.047 218.467 203.25C217.774 205.338 217.556 208.586 220.437 212.143C220.627 212.385 220.831 212.561 221.022 212.709C224.256 217.91 229.12 220.578 234.379 220.025C234.828 219.985 235.426 219.89 236.105 219.796C238.157 219.5 244.408 218.61 245.59 220.12C245.848 220.456 245.876 221.386 245.196 223.043C244.381 225.011 241.894 226.062 239.842 226.385C238.279 226.641 236.649 226.628 234.909 226.628C233.659 226.628 232.382 226.628 231.077 226.708C224.446 227.193 219.54 231.397 214.798 235.467C211.523 238.269 208.425 240.924 204.932 242.271C202.459 243.228 198.654 243.767 194.306 237.488C190.379 231.815 186.275 226.156 182.293 220.685L180.948 218.839C180.418 218.112 179.875 217.371 179.711 216.697C179.48 215.687 180.785 215.053 181.6 214.757C182.361 214.474 183.231 214.326 184.155 214.15C184.984 214.002 185.84 213.841 186.71 213.585C190.229 212.561 192.58 209.529 192.308 206.389C192.145 204.503 191.031 202.805 189.21 201.606C188.001 200.825 186.71 200.555 185.392 200.555C183.856 200.555 182.32 200.919 180.866 201.269C179.263 201.647 177.605 202.051 176.586 201.741C173.855 200.932 171.558 198.83 169.112 196.607C167.726 195.341 166.299 194.034 164.737 192.942C162.399 191.298 159.913 190.732 157.371 191.258C150.876 192.592 145.875 200.744 141.853 207.292C140.426 209.623 139.067 211.819 138.102 212.897C134.909 216.414 129.691 220.888 122.978 222.168C118.63 223.003 113.058 222.734 110.408 220.268C106.726 216.832 111.061 209.232 113.384 205.136L113.507 204.934C113.874 204.301 114.24 203.587 114.635 202.859C115.885 200.528 117.284 197.887 118.82 196.446C120.111 195.233 121.157 195.206 123.209 195.273C125.016 195.327 127.259 195.408 129.65 194.02C132.789 192.215 133.387 188.051 132.164 185.073C130.955 182.15 128.889 179.886 126.878 177.703C124.948 175.601 123.114 173.607 122.122 171.128C121.66 169.969 121.443 168.527 121.212 167.018C120.817 164.431 120.383 161.521 118.521 159.109C113.887 150.485 106.209 146.133 96.8603 146.874C89.4816 147.454 83.122 151.186 76.9799 154.797C71.1774 158.206 65.6875 161.426 59.5453 162.073C54.3001 162.626 49.245 161.265 43.9046 159.836C40.6025 158.961 37.1917 158.044 33.6994 157.6C31.4029 157.303 29.1743 157.182 27.0137 157.047C20.6133 156.683 15.0963 156.36 9.87817 151.994C5.71998 148.505 6.50812 146.43 9.64714 140.38L10.1364 139.45C12.6503 134.559 13.1395 129.641 13.6151 124.871C13.9956 121.071 14.3489 117.487 15.7078 114.105C17.2026 110.359 20.5318 107.234 23.7524 104.202C25.5053 102.545 27.3263 100.847 28.8754 99.0143C31.0496 96.4408 33.1287 95.2011 35.5883 94.9721C37.7081 94.7834 38.7681 93.7729 39.2844 92.9644C39.8144 92.129 40.2764 90.6873 39.5018 88.5988C38.9854 87.2245 38.0614 85.8366 36.7433 84.4892C32.7482 80.3796 30.3022 75.1921 29.0656 68.1856C28.8482 66.9325 28.7395 65.2347 29.5412 64.2781C30.3022 63.3484 31.9057 63.1328 33.1151 63.1058C37.6945 63.0115 41.5401 61.4755 44.8966 58.4438C51.7318 52.2457 60.4694 51.7472 69.3293 53.5931L69.1663 48.9176C59.4774 47.0986 49.6663 47.8801 41.7712 55.0483C39.2436 57.3389 36.4715 58.4303 33.02 58.5112C29.8538 58.5785 27.4757 59.5352 25.9673 61.3677C24.4318 63.2271 23.9426 65.7872 24.4998 68.994C25.8858 76.8494 28.8074 82.9666 33.4004 87.6961C34.2565 88.5719 34.8545 89.4477 35.1534 90.2157C35.1806 90.2831 35.1942 90.337 35.2213 90.3909C35.2213 90.3909 35.1942 90.3909 35.1806 90.3909C30.275 90.8355 27.2175 93.8402 25.3423 96.05C23.9698 97.6669 22.3255 99.2164 20.5862 100.847C16.9987 104.215 13.289 107.705 11.4137 112.394C9.82382 116.382 9.41614 120.465 9.02206 124.413C8.57363 128.954 8.1524 133.239 6.03254 137.348L5.55693 138.264C2.56738 144.031 -0.259097 149.475 6.91581 155.498C13.3026 160.86 20.1513 161.251 26.7691 161.642C28.8482 161.763 30.9952 161.884 33.1286 162.154C36.3084 162.558 39.4203 163.394 42.7088 164.269C48.2395 165.752 53.9468 167.274 60.0482 166.641C67.1959 165.9 73.3788 162.262 79.3715 158.745C85.3234 155.242 90.9492 151.941 97.2544 151.442C104.769 150.836 110.775 154.299 114.526 161.413L114.77 161.777C115.966 163.259 116.292 165.415 116.632 167.678C116.89 169.39 117.162 171.155 117.814 172.812C119.119 176.073 121.32 178.471 123.454 180.789C125.261 182.756 126.973 184.615 127.87 186.798C128.373 188.024 128.115 189.56 127.313 190.018C126.076 190.732 124.881 190.692 123.359 190.638C121.144 190.557 118.371 190.477 115.613 193.077C113.534 195.031 111.944 198.035 110.531 200.676C110.164 201.377 109.797 202.037 109.457 202.644L109.335 202.846C106.386 208.033 100.896 217.681 107.229 223.596C111.319 227.409 118.494 227.679 123.848 226.654C131.824 225.132 137.871 219.985 141.54 215.943C142.791 214.555 144.19 212.291 145.807 209.664C149.177 204.18 153.784 196.675 158.309 195.745C159.573 195.489 160.769 195.785 162.06 196.688C163.364 197.604 164.628 198.763 165.96 199.976C168.677 202.468 171.49 205.029 175.254 206.147C177.469 206.794 179.834 206.228 181.94 205.729C183.788 205.285 185.704 204.826 186.655 205.446C187.09 205.729 187.634 206.201 187.688 206.78C187.756 207.589 186.914 208.72 185.405 209.152C184.767 209.34 184.06 209.462 183.312 209.596C182.239 209.798 181.138 209.987 179.997 210.405C176.287 211.752 174.439 214.541 175.186 217.708C175.553 219.284 176.45 220.51 177.17 221.494L178.516 223.34C182.484 228.797 186.574 234.429 190.46 240.048C194.374 245.707 198.491 247.405 202.065 247.405C203.723 247.405 205.258 247.027 206.604 246.515C210.843 244.871 214.39 241.84 217.815 238.902C222.177 235.157 226.308 231.626 231.403 231.263C232.531 231.182 233.673 231.182 234.882 231.195C236.717 231.195 238.619 231.209 240.562 230.899C244.816 230.225 248.145 227.935 249.463 224.768C250.767 221.642 250.7 219.109 249.232 217.263C246.392 213.638 239.788 214.582 235.412 215.215C234.801 215.296 234.284 215.377 233.877 215.417C229.379 215.875 226.471 212.776 224.84 210.095C224.568 209.65 224.228 209.354 223.97 209.152C222.34 207.077 222.557 205.594 222.87 204.651C224.432 199.908 234.176 195.314 240.263 193.697C243.294 192.888 246.31 192.296 249.246 191.73C258.024 190.005 266.327 188.388 274.059 181.611C275.825 180.061 277.619 177.218 279.508 174.186C281.614 170.831 285.501 164.593 287.417 165.024C289.632 165.522 291.847 165.9 294.102 166.29C297.268 166.829 299.837 166.21 301.739 164.445C306.264 160.281 305.34 150.89 304.606 143.344C304.308 140.299 304.009 137.146 304.28 135.812C304.661 133.953 305.775 132.268 306.944 130.49L306.971 130.544Z" fill="#006D77" stroke="#006D77" stroke-width="4.81" stroke-miterlimit="10"/>
<path d="M219.419 144.987H244.939C246.244 144.987 247.29 143.936 247.29 142.656C247.29 141.376 246.23 140.325 244.939 140.325H219.419C218.115 140.325 217.068 141.376 217.068 142.656C217.068 143.936 218.128 144.987 219.419 144.987Z" fill="#006D77" stroke="#006D77" stroke-width="4.81" stroke-miterlimit="10"/>
<path d="M122.709 111.222C125.006 111.222 127.832 109.739 130.862 107.368V164.781C130.862 166.075 131.922 167.112 133.213 167.112H267.593C268.898 167.112 269.944 166.061 269.944 164.781V62.9305C269.944 61.6369 268.884 60.5994 267.593 60.5994H163.204C165.229 54.9942 166.329 49.901 166.329 45.6567C166.329 38.7983 164.699 32.3038 161.818 26.5369C154.684 12.2544 139.831 2.40479 122.709 2.40479C101.497 2.40479 83.777 17.4958 79.8906 37.424C79.3742 40.0919 79.0889 42.8406 79.0889 45.6567C79.0889 56.0452 85.5979 71.5269 96.5098 87.0895C104.323 98.2326 115.874 111.235 122.709 111.235V111.222ZM188.221 65.2615H212.599V87.4803H188.221V65.2615ZM183.519 65.2615V89.8113C183.519 91.1048 184.579 92.1423 185.87 92.1423H214.964C216.268 92.1423 217.315 91.0913 217.315 89.8113V65.2615H265.256V162.464H135.591V103.205C140.266 98.5829 145.063 92.6004 148.935 87.076C154.181 79.5979 158.393 72.1467 161.369 65.2615H183.533H183.519ZM122.709 7.06682C144.166 7.06682 161.628 24.381 161.628 45.6567C161.628 55.1289 155.431 69.6136 145.049 84.4217C134.45 99.5261 125.454 106.56 122.709 106.56C119.964 106.56 110.968 99.5261 100.369 84.4217C89.9871 69.6136 83.7906 55.1289 83.7906 45.6567C83.7906 24.381 101.252 7.06682 122.709 7.06682Z" fill="#006D77" stroke="#006D77" stroke-width="4.81" stroke-miterlimit="10"/>
<path d="M122.704 69.7887C136.13 69.7887 147.055 58.9556 147.055 45.6432C147.055 32.3307 136.13 21.4976 122.704 21.4976C109.278 21.4976 98.3525 32.3307 98.3525 45.6432C98.3525 58.9556 109.278 69.7887 122.704 69.7887ZM122.704 26.1731C133.534 26.1731 142.34 34.9043 142.34 45.6432C142.34 56.382 133.534 65.1132 122.704 65.1132C111.873 65.1132 103.068 56.382 103.068 45.6432C103.068 34.9043 111.873 26.1731 122.704 26.1731Z" fill="#006D77" stroke="#006D77" stroke-width="4.81" stroke-miterlimit="10"/>
</svg>
