<svg width="256" height="258" viewBox="0 0 256 258" fill="none" xmlns="http://www.w3.org/2000/svg">
<path d="M209.925 238.002H215.528C216.98 238.002 218.168 236.815 218.168 235.364C218.168 233.913 216.98 232.726 215.528 232.726H209.925C208.473 232.726 207.285 233.913 207.285 235.364C207.285 236.815 208.473 238.002 209.925 238.002Z" fill="#006D77" stroke="#006D77" stroke-width="4.25928" stroke-miterlimit="10"/>
<path d="M178.14 198.447H200.844C202.296 198.447 203.484 197.26 203.484 195.809C203.484 194.358 202.296 193.171 200.844 193.171H178.14C176.688 193.171 175.5 194.358 175.5 195.809C175.5 197.26 176.688 198.447 178.14 198.447Z" fill="#006D77" stroke="#006D77" stroke-width="4.25928" stroke-miterlimit="10"/>
<path d="M55.8209 60.2964C71.5144 60.2964 84.2891 47.3112 84.2891 31.3508C84.2891 15.3905 71.5144 2.40527 55.8209 2.40527C40.1274 2.40527 27.3525 15.3905 27.3525 31.3508C27.3525 47.3112 40.1274 60.2964 55.8209 60.2964ZM55.8209 7.68143C68.6104 7.68143 79.009 18.307 79.009 31.3508C79.009 44.3947 68.6104 55.0203 55.8209 55.0203C43.0314 55.0203 32.6326 44.3947 32.6326 31.3508C32.6326 18.307 43.0314 7.68143 55.8209 7.68143Z" fill="#006D77" stroke="#006D77" stroke-width="4.81" stroke-miterlimit="10"/>
<path d="M148.281 146.14C148.897 142.242 147.944 137.845 145.685 134.108C145.612 133.976 145.524 133.859 145.421 133.756L108.27 90.7113C101.128 82.1229 91.9169 76.6709 82.3394 75.3518C80.5941 75.1173 43.4871 75.2785 32.1643 75.3225C15.4735 75.3225 2.40527 88.5862 2.40527 105.528V165.442C2.40527 169.458 3.95991 173.224 6.76128 176.053C9.5333 178.882 13.3614 180.508 17.2481 180.508C20.8561 180.508 24.2002 179.16 26.7962 176.918V237.623C26.7962 247.061 34.4815 254.741 43.9269 254.741C50.0283 254.741 55.3817 251.546 58.4178 246.739C61.4538 251.546 66.8219 254.741 72.9086 254.741C82.354 254.741 90.0395 247.061 90.0395 237.608L89.6435 115.832L122.483 154.098C122.483 154.098 122.6 154.23 122.659 154.289C128.569 159.961 137.78 160.225 143.617 154.861C146.111 152.545 147.768 149.452 148.281 146.155V146.14ZM143.06 145.319C142.723 147.489 141.667 149.452 140.024 150.977C136.269 154.421 130.3 154.23 126.399 150.552L88.9836 106.95C88.2649 106.115 87.1062 105.807 86.0649 106.188C85.0235 106.569 84.3488 107.566 84.3488 108.665L84.7742 237.594C84.7742 244.13 79.45 249.436 72.9233 249.436C66.3965 249.436 61.0726 244.115 61.0726 237.594V175.892C61.0726 174.441 59.8845 173.254 58.4325 173.254C56.9804 173.254 55.7925 174.441 55.7925 175.892V237.594C55.7925 244.13 50.4684 249.436 43.9416 249.436C37.4149 249.436 32.0909 244.115 32.0909 237.594V165.984C32.1056 165.794 32.1203 165.603 32.1203 165.413L32.0909 110.541C32.0909 109.09 30.9028 107.903 29.4508 107.903C27.9988 107.903 26.8109 109.09 26.8109 110.541V165.794C26.6202 170.982 22.3522 175.203 17.2628 175.203C14.7401 175.203 12.3494 174.177 10.5307 172.316C8.6974 170.469 7.69997 168.022 7.69997 165.413V105.499C7.69997 91.2829 18.2307 80.5693 32.1935 80.5693C51.0697 80.4814 79.8314 80.3935 81.6355 80.54C89.9075 81.6832 97.9449 86.4757 104.266 94.0822L141.3 136.995C142.855 139.648 143.515 142.667 143.089 145.29L143.06 145.319Z" fill="#006D77" stroke="#006D77" stroke-width="4.81" stroke-miterlimit="10"/>
<path d="M145.803 249.449H233.188V182.677H145.803V249.449ZM209.926 232.727H215.529C216.981 232.727 218.169 233.914 218.169 235.365C218.169 236.816 216.981 238.003 215.529 238.003H209.926C208.474 238.003 207.286 236.816 207.286 235.365C207.286 233.914 208.474 232.727 209.926 232.727ZM178.143 193.17H200.847C202.299 193.17 203.487 194.358 203.487 195.809C203.487 197.259 202.299 198.447 200.847 198.447H178.143C176.691 198.447 175.503 197.259 175.503 195.809C175.503 194.358 176.691 193.17 178.143 193.17Z" fill="#E8FDF8"/>
<path d="M235.825 177.382H143.16C141.708 177.382 140.521 178.569 140.521 180.02V252.069C140.521 253.52 141.708 254.707 143.16 254.707H235.825C237.277 254.707 238.465 253.52 238.465 252.069V180.02C238.465 178.569 237.277 177.382 235.825 177.382ZM233.185 249.431H145.801V182.658H233.185V249.431Z" fill="#006D77" stroke="#006D77" stroke-width="4.81" stroke-miterlimit="10"/>
<path d="M225.78 111.654C225.78 113.105 224.592 114.292 223.14 114.292H200.45C198.998 114.292 197.81 113.105 197.81 111.654V95.4736H176.147V163.331H247.428V95.4736H225.78V111.654Z" fill="#E8FDF8"/>
<path d="M250.069 90.1924H223.141C221.689 90.1924 220.501 91.3795 220.501 92.8305V109.011H203.091V92.8305C203.091 91.3795 201.903 90.1924 200.451 90.1924H173.508C172.056 90.1924 170.868 91.3795 170.868 92.8305V165.964C170.868 167.415 172.056 168.602 173.508 168.602H250.069C251.521 168.602 252.709 167.415 252.709 165.964V92.8305C252.709 91.3795 251.521 90.1924 250.069 90.1924ZM247.429 163.326H176.148V95.4685H197.811V111.649C197.811 113.1 198.999 114.287 200.451 114.287H223.141C224.593 114.287 225.781 113.1 225.781 111.649V95.4685H247.429V163.326Z" fill="#006D77" stroke="#006D77" stroke-width="4.81" stroke-miterlimit="10"/>
</svg>
