<svg width="224" height="257" viewBox="0 0 224 257" fill="none" xmlns="http://www.w3.org/2000/svg">
<path d="M76.8417 65.3181L100.23 57.1905C100.783 57.0008 101.395 57.0008 101.948 57.1905L125.337 65.3181V7.66602H76.8271V65.3181H76.8417Z" fill="#E8FDF8"/>
<path d="M197.171 2.40527H128.011C128.011 2.40527 127.982 2.40527 127.968 2.40527H74.2156C74.2156 2.40527 74.1865 2.40527 74.1719 2.40527H5.0266C3.58486 2.40527 2.40527 3.58721 2.40527 5.03179V188.421C2.40527 189.866 3.58486 191.048 5.0266 191.048H97.4728C98.9146 191.048 100.094 189.866 100.094 188.421C100.094 186.977 98.9146 185.795 97.4728 185.795H7.64798V7.65831H71.5943V69.0021C71.5943 69.8484 72.002 70.651 72.7011 71.1471C73.3855 71.6432 74.2739 71.76 75.0748 71.4827L82.2253 69.0021L101.099 62.4504L119.958 69.0021L127.109 71.4827C127.385 71.5849 127.677 71.6286 127.968 71.6286C128.507 71.6286 129.031 71.4681 129.482 71.1471C130.167 70.651 130.589 69.863 130.589 69.0021V7.65831H194.55V102.242C194.55 103.687 195.73 104.869 197.171 104.869C198.613 104.869 199.793 103.687 199.793 102.242V5.03179C199.793 3.58721 198.613 2.40527 197.171 2.40527ZM125.346 65.3104L101.958 57.1828C101.405 56.9931 100.793 56.9931 100.24 57.1828L76.8516 65.3104V7.65831H125.361V65.3104H125.346Z" fill="#006D77" stroke="#006D77" stroke-width="4.81" stroke-miterlimit="10"/>
<path d="M73.4754 148.911C73.4754 147.466 72.2958 146.284 70.854 146.284H31.4319C29.9901 146.284 28.8105 147.466 28.8105 148.911C28.8105 150.355 29.9901 151.537 31.4319 151.537H70.854C72.2958 151.537 73.4754 150.355 73.4754 148.911Z" fill="#006D77" stroke="#006D77" stroke-width="4.81" stroke-miterlimit="10"/>
<path d="M31.4133 164.337C29.9716 164.337 28.792 165.519 28.792 166.963C28.792 168.408 29.9716 169.59 31.4133 169.59H53.4472C54.889 169.59 56.0686 168.408 56.0686 166.963C56.0686 165.519 54.889 164.337 53.4472 164.337H31.4133Z" fill="#006D77" stroke="#006D77" stroke-width="4.81" stroke-miterlimit="10"/>
<path d="M206.901 254.405C202.634 254.405 198.454 252.231 196.095 248.305L184.109 228.388C182.376 225.513 181.867 222.128 182.682 218.845C183.498 215.561 185.522 212.804 188.391 211.067L190.328 209.9C196.284 206.31 204.032 208.236 207.614 214.19L219.599 234.108C221.332 236.982 221.842 240.367 221.027 243.651C220.211 246.934 218.187 249.692 215.318 251.428L213.381 252.595C211.357 253.821 209.114 254.405 206.901 254.405ZM196.794 213.343C195.469 213.343 194.187 213.694 193.022 214.394L191.085 215.561C189.41 216.568 188.231 218.188 187.75 220.099C187.284 222.011 187.575 223.995 188.58 225.674L200.566 245.591C202.663 249.064 207.177 250.188 210.658 248.086L212.595 246.919C214.269 245.912 215.449 244.293 215.915 242.381C216.396 240.47 216.09 238.485 215.085 236.807L203.099 216.889C202.095 215.211 200.478 214.029 198.57 213.562C197.973 213.416 197.376 213.343 196.779 213.343H196.794Z" fill="#006D77" stroke="#006D77" stroke-width="4.81" stroke-miterlimit="10"/>
<path d="M156.672 207.508C139.254 207.508 122.245 198.651 112.618 182.643C97.9972 158.348 105.817 126.669 130.065 112.005C154.312 97.34 185.929 105.19 200.565 129.486C215.186 153.781 207.366 185.46 183.118 200.124C174.846 205.129 165.701 207.508 156.672 207.508ZM156.511 109.845C148.225 109.845 140.055 112.107 132.774 116.499C122.23 122.876 114.788 132.988 111.832 144.968C108.876 156.947 110.754 169.365 117.104 179.929C130.24 201.744 158.638 208.777 180.409 195.616C202.181 182.454 209.201 154 196.065 132.185C189.701 121.621 179.608 114.164 167.652 111.202C163.953 110.283 160.21 109.831 156.497 109.831L156.511 109.845Z" fill="#006D77" stroke="#006D77" stroke-width="4.81" stroke-miterlimit="10"/>
</svg>
