<svg width="110" height="111" viewBox="0 0 110 111" fill="none" xmlns="http://www.w3.org/2000/svg">
<path d="M62.3402 102.045L53.4715 106.074C52.8295 106.365 52.1606 106.554 51.4784 106.649V66.5275C51.4784 65.8573 50.9367 65.3089 50.2745 65.3089C49.6124 65.3089 49.0706 65.8573 49.0706 66.5275V106.608C48.4018 106.487 47.7397 106.283 47.111 105.972L6.20539 85.918C4.39956 85.0311 3.28261 83.2234 3.28261 81.1991V33.19C3.28261 30.1907 5.02826 27.4622 7.73032 26.23L57.1902 3.77929C58.5814 3.14287 60.1732 3.16318 61.5577 3.84699L76.5461 11.1997L87.02 16.3316L32.0556 41.2942C32.0556 41.2942 32.0356 41.3077 32.0222 41.3145C31.9352 41.3551 31.855 41.4093 31.7747 41.4702C31.7747 41.4702 31.7614 41.477 31.7614 41.4838C31.6878 41.5515 31.6209 41.6327 31.5607 41.714C31.5473 41.7343 31.5339 41.7546 31.5206 41.7817C31.5005 41.8155 31.4804 41.8426 31.4671 41.8697C31.447 41.9171 31.4336 41.9645 31.4136 42.0186C31.4136 42.0389 31.4002 42.0525 31.3935 42.0728C31.3667 42.1811 31.3467 42.2827 31.3467 42.391C31.3467 42.391 31.3467 42.3978 31.3467 42.4045V54.5642L26.3572 49.0463C25.9894 48.6401 25.4075 48.5318 24.9259 48.7823L20.9999 50.7931V36.934L69.5836 14.8692C69.9649 14.6932 70.2123 14.3479 70.2792 13.9552C70.3193 13.725 70.2926 13.4813 70.1923 13.2579C69.9181 12.6418 69.2091 12.371 68.6005 12.6485L19.8094 34.8081L11.0009 30.4954C10.4056 30.2042 9.6833 30.4547 9.39571 31.0641C9.10811 31.6734 9.35558 32.3979 9.95753 32.689L18.5921 36.9205V52.7836C18.5921 53.2101 18.8061 53.6028 19.1673 53.8195C19.5218 54.0429 19.9699 54.0564 20.3444 53.8669L25.2001 51.3753L31.6677 58.5249C31.9018 58.7822 32.2228 58.9176 32.5573 58.9176C32.7044 58.9176 32.8515 58.8905 32.992 58.8363C33.4535 58.6535 33.7612 58.1999 33.7612 57.6989V44.3476L46.489 50.59C47.7263 51.1993 49.0573 51.4972 50.3949 51.4972C51.639 51.4972 52.8897 51.2332 54.0534 50.7051L63.29 46.5142C63.8986 46.2366 64.1661 45.5189 63.8986 44.9028C63.6244 44.2867 62.9154 44.0159 62.3068 44.2867L53.0636 48.4776C51.2979 49.2833 49.2847 49.2494 47.5323 48.3964L35.3998 42.4452L89.8558 17.7128L102.129 23.7317C102.911 24.1176 103.607 24.6322 104.202 25.2483L70.6538 40.4885C70.0451 40.7661 69.7776 41.4838 70.0518 42.0999C70.2525 42.5535 70.6872 42.8175 71.1487 42.8175C71.3159 42.8175 71.4831 42.7837 71.6436 42.7092L105.62 27.2794C106.108 28.3018 106.383 29.4324 106.383 30.5969V62.1132C106.383 62.7835 106.924 63.3319 107.586 63.3319C108.249 63.3319 108.79 62.7835 108.79 62.1132V30.5969C108.79 28.647 108.215 26.7649 107.205 25.167C107.158 25.0723 107.105 24.991 107.038 24.9165C106.075 23.4948 104.764 22.3167 103.186 21.5381L62.6077 1.65338C60.5812 0.658126 58.247 0.624273 56.2004 1.55859L6.74715 24.0093C3.18229 25.6274 0.881516 29.2361 0.881516 33.19V81.1991C0.881516 84.1239 2.56028 86.8388 5.16202 88.1116L46.0609 108.166C47.3584 108.809 48.7563 109.134 50.1608 109.168C50.201 109.168 50.2344 109.181 50.2745 109.181C50.2879 109.181 50.2946 109.181 50.308 109.181C50.3347 109.181 50.3615 109.181 50.3949 109.181C51.7794 109.181 53.1639 108.883 54.4614 108.294L63.3301 104.266C63.9387 103.988 64.2062 103.271 63.932 102.655C63.6578 102.038 62.9488 101.768 62.3402 102.045Z" fill="#006D77" stroke="#006D77" stroke-width="1.76302" stroke-miterlimit="10"/>
</svg>
