<svg width="107" height="113" viewBox="0 0 107 113" fill="none" xmlns="http://www.w3.org/2000/svg">
<path d="M51.0105 72.951H51.1074C51.1074 72.951 51.0451 72.8888 51.0105 72.8611V72.951Z" fill="#E8FDF8"/>
<path d="M78.8872 71.7202H100.531C101.919 71.7202 103.054 70.5934 103.054 69.1986V29.4317C103.054 28.0438 101.926 26.9102 100.531 26.9102H69.629V37.7726C69.629 38.6726 70.3576 39.4009 71.258 39.4009H83.5267C84.4271 39.4009 85.1556 38.6726 85.1556 37.7726V32.5784C85.1556 31.9257 85.6849 31.3898 86.3447 31.3898C87.0045 31.3898 87.5338 31.9188 87.5338 32.5784V37.7726C87.5338 39.978 85.7399 41.7713 83.5335 41.7713H71.2648C69.0585 41.7713 67.2646 39.978 67.2646 37.7726V26.9102H54.2605C52.8721 26.9102 51.738 28.0369 51.738 29.4317V69.1986C51.738 70.5865 52.8652 71.7202 54.2605 71.7202H67.842C68.4949 71.7202 69.031 72.2492 69.031 72.9088C69.031 72.9225 69.031 72.9363 69.031 72.95H77.7188C77.7188 72.95 77.7188 72.9225 77.7188 72.9088C77.7188 72.2561 78.248 71.7202 78.9079 71.7202H78.8872ZM86.1935 58.1576H95.8916C96.5446 58.1576 97.0807 58.6867 97.0807 59.3462C97.0807 60.0058 96.5515 60.5348 95.8916 60.5348H86.1935C85.5405 60.5348 85.0044 60.0058 85.0044 59.3462C85.0044 58.6867 85.5337 58.1576 86.1935 58.1576Z" fill="#E8FDF8"/>
<path d="M47.7249 8.16016H65.2928C69.3206 8.16016 72.5922 11.4306 72.5922 15.4567C72.5922 16.1094 73.1215 16.6453 73.7813 16.6453C74.4411 16.6453 74.9704 16.1163 74.9704 15.4567C74.9704 10.1251 70.6333 5.78979 65.2997 5.78979H47.7317C47.0788 5.78979 46.5427 6.31882 46.5427 6.97839C46.5427 7.63797 47.0719 8.16704 47.7317 8.16704L47.7249 8.16016Z" fill="#006D77" stroke="#006D77" stroke-width="2.01488" stroke-miterlimit="10"/>
<path d="M73.7808 81.6619C73.1279 81.6619 72.5918 82.1909 72.5918 82.8505V96.0214C72.5918 100.048 69.3201 103.318 65.2924 103.318H47.7244C47.0715 103.318 46.5353 103.847 46.5353 104.507C46.5353 105.166 47.0646 105.695 47.7244 105.695H65.2924C70.626 105.695 74.963 101.36 74.963 96.0283V82.8573C74.963 82.2046 74.4338 81.6687 73.774 81.6687L73.7808 81.6619Z" fill="#006D77" stroke="#006D77" stroke-width="2.01488" stroke-miterlimit="10"/>
<path d="M34.975 1.94945C33.4491 0.925731 31.5246 0.726492 29.8269 1.39981L4.56778 9.04678L4.45781 9.08801C2.36147 9.94683 1.00745 11.9668 1.00745 14.2272V98.6874C1.00745 100.948 2.36147 102.968 4.45781 103.827L29.82 111.515C30.4867 111.783 31.1809 111.913 31.8751 111.913C32.9611 111.913 34.0402 111.597 34.9681 110.972C36.5077 109.941 37.4287 108.21 37.4287 106.355V64.8566C37.4287 64.2039 36.8995 63.668 36.2396 63.668C35.5798 63.668 35.0506 64.197 35.0506 64.8566V106.355C35.0506 107.434 34.5351 108.402 33.6347 109C32.7412 109.598 31.6483 109.715 30.6517 109.302L5.29634 101.614C4.12102 101.113 3.36497 99.9654 3.36497 98.6874V14.2272C3.36497 12.9493 4.12102 11.8019 5.29634 11.3004L30.5486 3.65339L30.6586 3.61216C31.6621 3.19993 32.748 3.30986 33.6416 3.91447C34.5419 4.51908 35.0574 5.48095 35.0574 6.55963V27.302C35.0574 27.9547 35.5867 28.4906 36.2465 28.4906C36.9063 28.4906 37.4356 27.9615 37.4356 27.302V6.55963C37.4356 4.70457 36.5146 2.98007 34.975 1.94261V1.94945Z" fill="#006D77" stroke="#006D77" stroke-width="2.01488" stroke-miterlimit="10"/>
<path d="M36.2545 53.4993C35.6015 53.4993 35.0654 54.0283 35.0654 54.6879V57.072C35.0654 57.7247 35.5947 58.2606 36.2545 58.2606C36.9143 58.2606 37.4436 57.7316 37.4436 57.072V54.6879C37.4436 54.0352 36.9143 53.4993 36.2545 53.4993Z" fill="#006D77" stroke="#006D77" stroke-width="2.01488" stroke-miterlimit="10"/>
<path d="M36.2545 43.9561C35.6015 43.9561 35.0654 44.4851 35.0654 45.1447V47.3364C35.0654 47.9891 35.5947 48.525 36.2545 48.525C36.9143 48.525 37.4436 47.996 37.4436 47.3364V45.1447C37.4436 44.4919 36.9143 43.9561 36.2545 43.9561Z" fill="#006D77" stroke="#006D77" stroke-width="2.01488" stroke-miterlimit="10"/>
<path d="M36.2545 32.7776C35.6015 32.7776 35.0654 33.3067 35.0654 33.9662V36.9824C35.0654 37.6351 35.5947 38.171 36.2545 38.171C36.9143 38.171 37.4436 37.642 37.4436 36.9824V33.9662C37.4436 33.3135 36.9143 32.7776 36.2545 32.7776Z" fill="#006D77" stroke="#006D77" stroke-width="2.01488" stroke-miterlimit="10"/>
<path d="M25.5391 47.4186V65.502C25.5391 66.1547 26.0684 66.6906 26.7282 66.6906C27.388 66.6906 27.9173 66.1616 27.9173 65.502V47.4186C27.9173 46.7659 27.388 46.23 26.7282 46.23C26.0684 46.23 25.5391 46.759 25.5391 47.4186Z" fill="#006D77" stroke="#006D77" stroke-width="2.01488" stroke-miterlimit="10"/>
<path d="M100.526 24.5398H54.2481C51.5538 24.5398 49.3544 26.7315 49.3544 29.4317V69.1986C49.3544 70.6552 50.0005 71.9606 51.0108 72.8538C51.0452 72.8813 51.0727 72.9156 51.107 72.9431C51.9593 73.6577 53.0522 74.0905 54.2481 74.0905H67.8296C68.4688 74.0905 68.9912 73.5821 69.0118 72.9431C69.0118 72.9294 69.0118 72.9156 69.0118 72.9019C69.0118 72.2492 68.4826 71.7133 67.8227 71.7133H54.2412C52.8528 71.7133 51.7188 70.5865 51.7188 69.1918V29.4248C51.7188 28.037 52.846 26.9033 54.2412 26.9033H67.2454V37.7657C67.2454 39.9711 69.0393 41.7644 71.2456 41.7644H83.5143C85.7206 41.7644 87.5146 39.9711 87.5146 37.7657V32.5715C87.5146 31.9188 86.9853 31.3829 86.3255 31.3829C85.6657 31.3829 85.1364 31.9119 85.1364 32.5715V37.7657C85.1364 38.6657 84.4079 39.394 83.5075 39.394H71.2387C70.3384 39.394 69.6098 38.6657 69.6098 37.7657V26.9033H100.512C101.9 26.9033 103.034 28.0301 103.034 29.4248V69.1918C103.034 70.5796 101.907 71.7133 100.512 71.7133H78.868C78.2151 71.7133 77.679 72.2423 77.679 72.9019C77.679 72.9156 77.679 72.9294 77.679 72.9431C77.6996 73.5752 78.2219 74.0905 78.8612 74.0905H100.505C101.701 74.0905 102.794 73.6577 103.646 72.9431C104.718 72.0431 105.399 70.7033 105.399 69.1986V29.4317C105.399 26.7384 103.206 24.5398 100.505 24.5398H100.526Z" fill="#006D77" stroke="#006D77" stroke-width="2.01488" stroke-miterlimit="10"/>
<path d="M86.1868 60.535H95.8849C96.5379 60.535 97.074 60.0059 97.074 59.3464C97.074 58.6868 96.5448 58.1577 95.8849 58.1577H86.1868C85.5339 58.1577 84.9977 58.6868 84.9977 59.3464C84.9977 60.0059 85.527 60.535 86.1868 60.535Z" fill="#006D77" stroke="#006D77" stroke-width="2.01488" stroke-miterlimit="10"/>
</svg>
