<svg width="254" height="252" viewBox="0 0 254 252" fill="none" xmlns="http://www.w3.org/2000/svg">
<path d="M190.716 68.4075C189.289 68.6256 188.314 69.9633 188.532 71.4028L195.329 114.733C195.533 116.027 196.639 116.943 197.92 116.943C198.051 116.943 198.197 116.943 198.328 116.914C199.754 116.696 200.729 115.358 200.511 113.918L193.714 70.5885C193.496 69.1636 192.157 68.1894 190.716 68.4075Z" fill="#006D77" stroke="#006D77" stroke-width="4.81" stroke-miterlimit="10"/>
<path d="M217.573 222.593L216.714 217.184C216.481 215.759 215.142 214.784 213.716 215.003C212.289 215.235 211.314 216.573 211.532 217.998L212.391 223.407C212.668 225.123 212.231 226.838 211.169 228.234C210.106 229.63 208.549 230.517 206.802 230.706L83.411 244.112C80.0198 244.49 76.9779 242.149 76.4394 238.79L50.0525 70.7487C52.0755 71.1122 54.1277 71.1413 56.1217 70.8505C56.1217 70.8505 56.1362 70.8505 56.1507 70.8505L185.087 57.4007C192.99 56.1212 198.535 46.8445 199.19 33.7147C199.205 33.1912 199.234 32.6532 199.234 32.1443C199.234 15.0886 186.863 3.44185 167.695 2.45312C165.876 2.36588 164.202 2.39496 162.586 2.5549L70.8506 12.1224C69.4097 12.2678 68.3618 13.5619 68.5219 15.0014C68.6674 16.4408 69.9774 17.4877 71.4037 17.3278L163.11 7.76031C164.464 7.62945 165.89 7.61491 167.447 7.67307C183.821 8.5164 193.995 17.8949 193.995 32.1443C193.995 32.5951 193.98 33.0749 193.965 33.5111C193.456 43.7038 189.454 51.4101 184.403 52.2244L65.2909 64.6418C68.4637 60.0034 70.1811 53.4603 70.5013 47.1499C70.5159 46.6264 70.5449 46.0884 70.5449 45.565C70.5449 28.5093 58.1738 16.8625 39.0204 15.8738C37.4339 15.8011 35.8766 15.8156 34.4066 15.9465C34.4066 15.9465 34.4067 15.9465 34.3921 15.9465C34.3776 15.9465 34.3484 15.9465 34.3338 15.9465C34.3338 15.9465 34.3048 15.9465 34.2902 15.9465C33.5625 15.9901 32.8638 16.0773 32.0488 16.1791L31.7868 16.2227C15.5588 18.6073 3.23133 31.6063 2.4454 47.1499C2.35808 48.8511 2.41626 50.5232 2.59091 52.0935C2.59091 52.1517 2.60549 52.2099 2.62005 52.2826L23.7674 187.071C24.5533 192.087 28.9196 195.708 33.8681 195.708C34.3629 195.708 34.8724 195.664 35.3672 195.591L48.2623 193.672C49.6886 193.454 50.6784 192.131 50.4746 190.691C50.2563 189.266 48.9319 188.292 47.491 188.481L34.5958 190.4C31.9033 190.808 29.3563 188.932 28.9342 186.242L7.80137 51.5119V51.4102C7.64128 50.1306 7.61213 48.7784 7.67035 47.3825C8.32529 34.3399 18.7753 23.4056 32.5291 21.3845L32.8057 21.3409C33.4315 21.2537 34.0428 21.181 34.6686 21.1519C34.6832 21.1519 34.6977 21.1519 34.7123 21.1519C34.7268 21.1519 34.7414 21.1519 34.756 21.1519C36.0222 21.0356 37.3757 21.021 38.7584 21.0792C55.132 21.9225 65.3054 31.301 65.3054 45.5504C65.3054 46.0157 65.2908 46.481 65.2763 46.9172C64.7669 57.1245 60.7354 64.8308 55.4958 65.6741C52.978 66.0667 50.3436 65.7178 47.8548 64.6854C46.9816 64.3219 45.9773 64.4528 45.2205 65.0344C44.4782 65.616 44.0998 66.5611 44.2453 67.5062L71.2727 239.619C72.175 245.319 77.0653 249.405 82.6978 249.405C83.1199 249.405 83.5565 249.376 83.9931 249.332L207.385 235.926C210.572 235.577 213.395 233.978 215.346 231.433C217.281 228.903 218.067 225.762 217.573 222.622V222.593Z" fill="#006D77" stroke="#006D77" stroke-width="4.81" stroke-miterlimit="10"/>
<path d="M103.206 121.713C103.308 121.713 103.41 121.713 103.511 121.698L152.981 115.867C154.422 115.693 155.441 114.399 155.281 112.959C155.106 111.52 153.797 110.502 152.37 110.662L102.9 116.493C101.459 116.667 100.44 117.961 100.601 119.401C100.761 120.738 101.896 121.713 103.206 121.713Z" fill="#006D77" stroke="#006D77" stroke-width="4.81" stroke-miterlimit="10"/>
<path d="M85.8242 155.373C85.9843 156.711 87.1196 157.685 88.4294 157.685C88.5313 157.685 88.6331 157.685 88.735 157.67L175.712 147.419C177.152 147.245 178.171 145.951 178.011 144.511C177.836 143.072 176.527 142.04 175.1 142.214L88.1238 152.465C86.6829 152.639 85.6641 153.933 85.8242 155.373Z" fill="#006D77" stroke="#006D77" stroke-width="4.81" stroke-miterlimit="10"/>
<path d="M143.984 218.433C144.363 218.622 144.77 218.724 145.178 218.724C146.124 218.724 147.055 218.201 147.507 217.299C148.627 215.104 150.214 213.751 152.339 213.184C155.773 212.268 159.98 213.562 162.629 215.264C167.955 218.681 174.417 216.805 178.158 213.591C179.264 212.646 179.381 211.003 178.449 209.898C177.503 208.793 175.858 208.677 174.752 209.607C173.093 211.032 169.003 213.126 165.467 210.843C162.105 208.691 156.297 206.67 150.971 208.11C147.434 209.055 144.625 211.41 142.849 214.9C142.194 216.194 142.704 217.764 143.984 218.419V218.433Z" fill="#006D77" stroke="#006D77" stroke-width="4.81" stroke-miterlimit="10"/>
<path d="M228.591 103.579C229.26 103.579 229.93 103.71 230.585 103.986L243.146 109.424L243.131 109.438C244.368 109.976 245.314 110.951 245.809 112.201C246.303 113.452 246.289 114.819 245.75 116.04L215.783 185.15C213.615 190.152 210.165 194.528 205.813 197.8L196.95 204.474C195.859 205.288 194.767 204.954 194.345 204.779C193.923 204.59 192.933 204.023 192.787 202.656L191.594 191.635C191.012 186.211 191.841 180.715 194.01 175.713L223.978 106.604C224.793 104.713 226.655 103.579 228.591 103.579Z" fill="#E8FDF8"/>
<path d="M228.591 103.579C229.26 103.579 229.93 103.71 230.585 103.986L243.146 109.424L243.131 109.438C244.368 109.976 245.314 110.951 245.809 112.201C246.303 113.452 246.289 114.819 245.75 116.04L215.783 185.15C213.615 190.152 210.165 194.528 205.813 197.8L196.95 204.474C195.859 205.288 194.767 204.954 194.345 204.779C193.923 204.59 192.933 204.023 192.787 202.656L191.594 191.635C191.012 186.211 191.841 180.715 194.01 175.713L223.978 106.604C224.793 104.713 226.655 103.579 228.591 103.579Z" stroke="#006D77"/>
<path d="M245.226 104.612L232.666 99.174C227.47 96.9202 221.43 99.3194 219.174 104.51L189.207 173.62C186.674 179.451 185.699 185.863 186.383 192.173L187.577 203.195C187.882 206.045 189.629 208.415 192.263 209.549C193.282 209.985 194.345 210.203 195.407 210.203C197.066 210.203 198.711 209.665 200.108 208.604L208.972 201.93C214.051 198.106 218.068 193.002 220.586 187.186L250.553 118.076C251.645 115.561 251.688 112.784 250.684 110.239C249.68 107.695 247.73 105.688 245.226 104.597V104.612ZM245.75 116.012L215.783 185.121C213.614 190.123 210.165 194.485 205.813 197.771L196.95 204.445C195.858 205.274 194.752 204.94 194.344 204.751C193.922 204.576 192.933 203.995 192.787 202.628L191.594 191.606C191.012 186.197 191.841 180.687 194.01 175.685L223.977 106.575C224.792 104.685 226.641 103.551 228.591 103.551C229.26 103.551 229.93 103.681 230.585 103.958L243.145 109.396C244.368 109.934 245.328 110.908 245.823 112.158C246.318 113.409 246.289 114.761 245.765 115.997L245.75 116.012Z" fill="#006D77" stroke="#006D77" stroke-width="4.81" stroke-miterlimit="10"/>
</svg>
