<svg width="227" height="251" viewBox="0 0 227 251" fill="none" xmlns="http://www.w3.org/2000/svg">
<path d="M58.1751 248.406H26.5921C13.2587 248.406 2.40527 237.59 2.40527 224.304V181.814C2.40527 168.528 13.2587 157.713 26.5921 157.713H60.4218C61.866 157.713 63.0477 158.89 63.0477 160.329C63.0477 161.769 61.866 162.946 60.4218 162.946H26.5921C16.1471 162.946 7.65692 171.406 7.65692 181.814V224.304C7.65692 234.712 16.1471 243.172 26.5921 243.172H58.1751C65.1774 243.172 70.8668 237.503 70.8668 230.526C70.8668 227.139 69.5538 223.97 67.1468 221.586C64.7544 219.202 61.5596 217.879 58.1751 217.879H39.1671C37.7229 217.879 36.5412 216.702 36.5412 215.263C36.5412 213.823 37.7229 212.646 39.1671 212.646H58.1751C62.9746 212.646 67.4824 214.507 70.8668 217.879C74.2512 221.252 76.1185 225.743 76.1185 230.526C76.1185 240.381 68.0658 248.406 58.1751 248.406Z" fill="#006D77" stroke="#006D77" stroke-width="4.81" stroke-miterlimit="10"/>
<path d="M66.3322 146.519C50.4896 146.519 37.5938 133.669 37.5938 117.882C37.5938 102.096 50.4896 89.2456 66.3322 89.2456C82.1748 89.2456 95.0705 102.096 95.0705 117.882C95.0705 133.669 82.1748 146.519 66.3322 146.519ZM66.3322 94.4642C53.3781 94.4642 42.8454 104.959 42.8454 117.868C42.8454 130.776 53.3781 141.271 66.3322 141.271C79.2864 141.271 89.8188 130.776 89.8188 117.868C89.8188 104.959 79.2864 94.4642 66.3322 94.4642Z" fill="#006D77" stroke="#006D77" stroke-width="4.81" stroke-miterlimit="10"/>
<path d="M113.729 176.464V191.8L105.315 188.573C105.006 188.457 104.682 188.399 104.358 188.399C104.034 188.399 103.71 188.457 103.4 188.573L94.9863 191.8H94.9717V176.464H113.729Z" fill="#E8FDF8"/>
<path d="M113.729 176.464V191.8L105.315 188.573C105.006 188.457 104.682 188.399 104.358 188.399C104.034 188.399 103.71 188.457 103.4 188.573L94.9863 191.8H94.9717V176.464H113.729Z" stroke="#006D77"/>
<path d="M89.7041 176.48V195.639C89.7042 196.511 90.1316 197.311 90.8535 197.805C91.3102 198.096 91.8261 198.255 92.3564 198.255C92.6805 198.255 93.0051 198.198 93.3145 198.082L104.381 193.836L115.446 198.082C116.271 198.401 117.185 198.285 117.907 197.805C118.629 197.311 119.057 196.497 119.057 195.639V176.48H137.137C140.85 176.48 143.871 179.46 143.871 183.137V236.515C143.871 240.178 140.85 243.173 137.137 243.173H85.0928C83.7077 243.173 82.5876 244.22 82.4697 245.557H75.7354C78.977 241.734 80.9521 236.734 80.9521 231.253C80.9521 220.235 73.0242 211.164 62.7686 209.768V201.367C63.0191 200.974 63.166 200.508 63.166 200V183.137C63.1662 181.03 64.1834 179.039 65.9219 177.789C67.0712 176.931 68.4564 176.48 69.9004 176.48H89.7041ZM117.539 229.538C116.08 229.538 114.887 230.716 114.887 232.155C114.887 233.594 116.08 234.771 117.539 234.771H126.365C127.824 234.771 129.017 233.594 129.018 232.155C129.018 230.716 127.824 229.538 126.365 229.538H117.539Z" fill="#E8FDF8"/>
<path d="M89.7041 176.48V195.639C89.7042 196.511 90.1316 197.311 90.8535 197.805C91.3102 198.096 91.8261 198.255 92.3564 198.255C92.6805 198.255 93.0051 198.198 93.3145 198.082L104.381 193.836L115.446 198.082C116.271 198.401 117.185 198.285 117.907 197.805C118.629 197.311 119.057 196.497 119.057 195.639V176.48H137.137C140.85 176.48 143.871 179.46 143.871 183.137V236.515C143.871 240.178 140.85 243.173 137.137 243.173H85.0928C83.7077 243.173 82.5876 244.22 82.4697 245.557H75.7354C78.977 241.734 80.9521 236.734 80.9521 231.253C80.9521 220.235 73.0242 211.164 62.7686 209.768V201.367C63.0191 200.974 63.166 200.508 63.166 200V183.137C63.1662 181.03 64.1834 179.039 65.9219 177.789C67.0712 176.931 68.4564 176.48 69.9004 176.48H89.7041ZM117.539 229.538C116.08 229.538 114.887 230.716 114.887 232.155C114.887 233.594 116.08 234.771 117.539 234.771H126.365C127.824 234.771 129.017 233.594 129.018 232.155C129.018 230.716 127.824 229.538 126.365 229.538H117.539Z" stroke="#006D77"/>
<path d="M137.132 171.231H69.8961C67.288 171.231 64.8123 172.045 62.7642 173.557C59.6992 175.767 57.8574 179.343 57.8574 183.122V199.984C57.8574 201.424 59.051 202.601 60.5098 202.601C61.4676 202.601 62.2926 202.107 62.7642 201.351C63.0147 200.944 63.162 200.479 63.162 199.984V183.122C63.162 181.014 64.1787 179.023 65.9175 177.773C67.0668 176.915 68.452 176.465 69.8961 176.465H89.7V195.624C89.7 196.481 90.1274 197.295 90.8494 197.789C91.2915 198.095 91.8219 198.24 92.3524 198.24C92.6766 198.24 93.0008 198.182 93.3102 198.066L104.376 193.821L115.442 198.066C116.267 198.385 117.181 198.269 117.903 197.789C118.625 197.295 119.052 196.496 119.052 195.624V176.465H137.132C140.846 176.465 143.866 179.459 143.866 183.122V236.5C143.866 240.178 140.846 243.158 137.132 243.158H85.0879C83.7028 243.158 82.5829 244.204 82.465 245.542C82.465 245.614 82.4357 245.687 82.4357 245.774C82.4357 247.213 83.6291 248.391 85.0879 248.391H137.132C143.778 248.391 149.171 243.056 149.171 236.5V183.122C149.171 176.566 143.763 171.231 137.132 171.231ZM113.748 191.8L105.334 188.573C105.025 188.457 104.7 188.399 104.376 188.399C104.052 188.399 103.728 188.457 103.419 188.573L95.0046 191.8V176.465H113.763V191.8H113.748Z" fill="#006D77" stroke="#006D77" stroke-width="4.81" stroke-miterlimit="10"/>
<path d="M117.536 234.771H126.363C127.821 234.771 129.015 233.593 129.015 232.154C129.015 230.715 127.821 229.538 126.363 229.538H117.536C116.077 229.538 114.884 230.715 114.884 232.154C114.884 233.593 116.077 234.771 117.536 234.771Z" fill="#006D77" stroke="#006D77" stroke-width="4.81" stroke-miterlimit="10"/>
<path d="M144.052 128.712C119.968 128.712 100.376 109.19 100.376 85.19C100.376 61.1904 119.968 41.668 144.052 41.668C168.137 41.668 187.729 61.1904 187.729 85.19C187.729 109.19 168.137 128.712 144.052 128.712ZM144.052 46.9156C122.871 46.9156 105.628 64.0831 105.628 85.2045C105.628 106.326 122.856 123.493 144.052 123.493C165.249 123.493 182.477 106.326 182.477 85.2045C182.477 64.0831 165.249 46.9156 144.052 46.9156Z" fill="#006D77" stroke="#006D77" stroke-width="4.81" stroke-miterlimit="10"/>
<path d="M67.3988 77.4546C67.2821 77.4546 66.7651 77.4999 66.6484 77.4708C65.2042 77.2818 64.1976 75.9736 64.3872 74.5345C69.6972 34.0942 104.694 2.40479 144.038 2.40479C162.112 2.40479 179.953 9.01885 194.25 21.0114C195.358 21.9417 195.504 23.5989 194.57 24.7036C193.637 25.8084 191.974 25.9538 190.865 25.0234C177.503 13.8159 160.872 7.63789 144.038 7.63789C107.261 7.63789 74.5697 37.3213 69.5952 75.2031C69.4202 76.526 68.2968 77.4854 66.9985 77.4854L67.3988 77.4546Z" fill="#006D77" stroke="#006D77" stroke-width="4.81" stroke-miterlimit="10"/>
<path d="M162.669 193.385C161.94 193.385 161.225 193.094 160.7 192.498C159.737 191.422 159.839 189.765 160.933 188.806C182.553 169.748 219.154 126.488 219.154 85.1756C219.154 82.9224 219.052 80.6693 218.862 78.4598C218.731 77.0207 219.796 75.756 221.24 75.6252C222.67 75.4943 223.953 76.5555 224.085 77.9946C224.289 80.364 224.406 82.7771 224.406 85.1756C224.406 128.349 186.696 173.092 164.405 192.716C163.909 193.152 163.282 193.37 162.669 193.37V193.385Z" fill="#006D77" stroke="#006D77" stroke-width="4.81" stroke-miterlimit="10"/>
<path d="M214.686 55.3324C213.679 55.3324 212.906 54.7655 212.468 53.7915C210.762 49.9248 208.719 46.1599 206.4 42.5985C205.612 41.392 205.962 39.7639 207.173 38.9789C208.384 38.1939 210.018 38.5428 210.805 39.7493C213.271 43.5433 215.444 47.5554 217.268 51.6692C217.852 52.992 217.268 54.5329 215.926 55.1143C215.576 55.2597 215.226 55.3324 214.861 55.3324H214.686Z" fill="#006D77" stroke="#006D77" stroke-width="4.81" stroke-miterlimit="10"/>
</svg>
