<svg width="232" height="248" viewBox="0 0 232 248" fill="none" xmlns="http://www.w3.org/2000/svg">
<path d="M97.7583 245.405C97.6707 245.405 97.583 245.405 97.4953 245.405C43.2896 239.863 2.40527 195.188 2.40527 141.512V27.2968C2.40527 25.8452 3.5884 24.6576 5.03447 24.6576C42.0626 24.6576 76.1841 16.5057 96.2976 2.85563C97.1887 2.2545 98.3571 2.2545 99.2482 2.85563C119.347 16.5057 153.454 24.6576 190.497 24.6576C191.943 24.6576 193.126 25.8452 193.126 27.2968V124.211C193.126 125.662 191.943 126.85 190.497 126.85C189.051 126.85 187.867 125.662 187.867 124.211V29.9212C151.701 29.5547 118.368 21.5054 97.7729 8.20717C77.1627 21.52 43.8154 29.5547 7.66368 29.9212V141.497C7.66368 192.373 46.3717 234.731 97.7583 240.112C107.224 239.115 116.455 236.842 125.204 233.367C126.548 232.825 128.082 233.485 128.622 234.848C129.163 236.197 128.491 237.737 127.147 238.279C117.872 241.974 108.071 244.378 98.0359 245.405C97.9482 245.405 97.8605 245.405 97.7729 245.405H97.7583Z" fill="#006D77" stroke="#006D77" stroke-width="4.81" stroke-miterlimit="10"/>
<path d="M38.2933 192.828C37.4754 192.828 36.672 192.447 36.1607 191.743C25.5416 177.023 19.9326 159.649 19.9326 141.498C19.9326 140.046 21.1157 138.858 22.5618 138.858C24.0079 138.858 25.191 140.046 25.191 141.498C25.191 158.534 30.4495 174.838 40.4113 188.65C41.2585 189.837 40.9956 191.479 39.827 192.33C39.3596 192.667 38.8192 192.828 38.2933 192.828Z" fill="#006D77" stroke="#006D77" stroke-width="4.81" stroke-miterlimit="10"/>
<path d="M112.102 125.032C115.665 122.847 120.34 123.976 122.517 127.553L143.186 161.481C143.872 162.595 145.274 163.05 146.472 162.522L185.764 145.47C192.337 142.802 199.802 145.265 203.512 151.35L203.497 151.306L218.221 175.468C229.511 194.001 224.136 218.236 206.229 229.497C196.135 235.845 183.909 237.194 172.677 233.192C172.399 233.104 172.107 233.044 171.829 233.044L115.651 209.455C111.824 208.018 109.868 203.707 111.299 199.851C112.73 195.995 117.025 194.045 120.866 195.482L146.53 205.129C147.582 205.525 148.765 205.202 149.48 204.337C150.196 203.472 150.284 202.255 149.7 201.288L109.59 135.471C107.413 131.908 108.538 127.216 112.102 125.032Z" fill="#E8FDF8"/>
<path d="M112.102 125.032C115.665 122.847 120.34 123.976 122.517 127.553L143.186 161.481C143.872 162.595 145.274 163.05 146.472 162.522L185.764 145.47C192.337 142.802 199.802 145.265 203.512 151.35L203.497 151.306L218.221 175.468C229.511 194.001 224.136 218.236 206.229 229.497C196.135 235.845 183.909 237.194 172.677 233.192C172.399 233.104 172.107 233.044 171.829 233.044L115.651 209.455C111.824 208.018 109.868 203.707 111.299 199.851C112.73 195.995 117.025 194.045 120.866 195.482L146.53 205.129C147.582 205.525 148.765 205.202 149.48 204.337C150.196 203.472 150.284 202.255 149.7 201.288L109.59 135.471C107.413 131.908 108.538 127.216 112.102 125.032Z" stroke="#006D77"/>
<path d="M207.996 148.593C202.942 140.309 192.761 136.937 183.734 140.602L146.487 156.76L127.001 124.797C123.306 118.742 115.404 116.821 109.371 120.53C103.338 124.24 101.425 132.172 105.121 138.227L141.258 197.505L122.736 190.54C116.178 188.077 108.86 191.42 106.391 198.003C103.937 204.586 107.282 211.946 113.739 214.366L170.749 238.308C171.114 238.469 171.523 238.543 171.917 238.513C176.445 240.009 181.105 240.757 185.735 240.757C193.871 240.757 201.934 238.469 209.048 233.998C229.38 221.198 235.515 193.736 222.734 172.756L208.011 148.593H207.996ZM206.243 229.526C196.15 235.874 183.924 237.223 172.691 233.221C172.414 233.118 172.122 233.074 171.844 233.074L115.667 209.483C111.825 208.046 109.868 203.736 111.314 199.88C112.745 196.024 117.04 194.074 120.881 195.511L146.545 205.158C147.597 205.554 148.78 205.231 149.496 204.366C150.212 203.501 150.299 202.27 149.715 201.317L109.605 135.5C107.428 131.923 108.553 127.245 112.117 125.061C115.681 122.876 120.355 124.005 122.532 127.583L143.2 161.51C143.887 162.639 145.289 163.079 146.487 162.551L185.779 145.499C192.352 142.816 199.831 145.294 203.526 151.379L218.25 175.541C229.541 194.059 224.166 218.295 206.258 229.57L206.243 229.526Z" fill="#006D77" stroke="#006D77" stroke-width="4.81" stroke-miterlimit="10"/>
<path d="M100.197 108.728C100.665 108.728 101.147 108.596 101.571 108.332C102.812 107.57 103.192 105.943 102.432 104.696L95.4795 93.3188C94.72 92.0725 93.0986 91.6913 91.857 92.4537C90.6154 93.2161 90.2357 94.8436 90.9952 96.0898L97.9481 107.467C98.4447 108.274 99.3065 108.728 100.197 108.728Z" fill="#006D77" stroke="#006D77" stroke-width="4.82525" stroke-miterlimit="10"/>
<path d="M87.9447 121.337L75.0031 118.228C73.5863 117.891 72.1694 118.771 71.8335 120.178C71.4975 121.6 72.3739 123.023 73.7761 123.36L86.7178 126.468C86.9223 126.512 87.1268 126.541 87.3313 126.541C88.5144 126.541 89.5953 125.72 89.8874 124.518C90.2234 123.096 89.347 121.674 87.9447 121.337Z" fill="#006D77" stroke="#006D77" stroke-width="4.82525" stroke-miterlimit="10"/>
<path d="M121.249 105.194C121.453 105.238 121.658 105.268 121.862 105.268C123.045 105.268 124.126 104.447 124.419 103.244L127.515 90.2541C127.851 88.8319 126.975 87.4097 125.572 87.0725C124.156 86.7353 122.739 87.615 122.403 89.0225L119.306 102.013C118.97 103.435 119.847 104.857 121.249 105.194Z" fill="#006D77" stroke="#006D77" stroke-width="4.82525" stroke-miterlimit="10"/>
</svg>
