<svg width="249" height="250" viewBox="0 0 249 250" fill="none" xmlns="http://www.w3.org/2000/svg">
<path d="M219.44 110.126C220.631 109.652 221.912 109.774 222.981 110.494C224.036 111.214 224.669 112.363 224.684 113.665H224.699L225.904 189.603C219.756 193.784 213.427 197.399 207.038 200.646L175.831 214.538C175.861 208.733 175.906 202.943 175.937 197.138C176.072 197.169 176.208 197.184 176.358 197.184C177.835 197.184 179.025 195.959 179.025 194.458V129.348C179.025 127.755 179.975 126.346 181.422 125.749L219.44 110.126Z" fill="#E8FDF8"/>
<path d="M219.44 110.126C220.631 109.652 221.912 109.774 222.981 110.494C224.036 111.214 224.669 112.363 224.684 113.665H224.699L225.904 189.603C219.756 193.784 213.427 197.399 207.038 200.646L175.831 214.538C175.861 208.733 175.906 202.943 175.937 197.138C176.072 197.169 176.208 197.184 176.358 197.184C177.835 197.184 179.025 195.959 179.025 194.458V129.348C179.025 127.755 179.975 126.346 181.422 125.749L219.44 110.126Z" stroke="#006D77"/>
<path d="M196.464 37.373L72.6289 93.8447C72.5988 93.86 72.5829 93.8906 72.5527 93.8906C72.3569 93.9825 72.1608 94.1054 71.9951 94.2432C71.9949 94.2574 71.9694 94.2715 71.9658 94.2734C71.8002 94.4112 71.6492 94.595 71.5137 94.7939C71.4836 94.8398 71.453 94.9013 71.4229 94.9473C71.3928 95.0085 71.3329 95.07 71.3027 95.1465C71.2425 95.2536 71.2118 95.3762 71.1816 95.4834C71.1666 95.5294 71.1367 95.5605 71.1367 95.6064C71.0614 95.8361 71.0312 96.0812 71.0312 96.3262V123.865L59.79 111.382C58.9764 110.463 57.6503 110.218 56.5654 110.784L47.7197 115.334V83.9814L157.194 34.0498L157.18 34.0957C158.038 33.6975 158.595 32.9011 158.746 32.0283C163.448 29.93 168.165 27.8467 172.866 25.7637L196.464 37.373Z" fill="#E8FDF8"/>
<path d="M196.464 37.373L72.6289 93.8447C72.5988 93.86 72.5829 93.8906 72.5527 93.8906C72.3569 93.9825 72.1608 94.1054 71.9951 94.2432C71.9949 94.2574 71.9694 94.2715 71.9658 94.2734C71.8002 94.4112 71.6492 94.595 71.5137 94.7939C71.4836 94.8398 71.453 94.9013 71.4229 94.9473C71.3928 95.0085 71.3329 95.07 71.3027 95.1465C71.2425 95.2536 71.2118 95.3762 71.1816 95.4834C71.1666 95.5294 71.1367 95.5605 71.1367 95.6064C71.0614 95.8361 71.0312 96.0812 71.0312 96.3262V123.865L59.79 111.382C58.9764 110.463 57.6503 110.218 56.5654 110.784L47.7197 115.334V83.9814L157.194 34.0498L157.18 34.0957C158.038 33.6975 158.595 32.9011 158.746 32.0283C163.448 29.93 168.165 27.8467 172.866 25.7637L196.464 37.373Z" stroke="#006D77"/>
<path d="M140.874 231.264L120.893 240.377C119.446 241.036 117.94 241.465 116.403 241.679V150.914C116.403 149.398 115.182 148.157 113.69 148.157C112.198 148.157 110.978 149.398 110.978 150.914V241.587C109.471 241.311 107.979 240.852 106.563 240.147L14.402 194.78C10.3334 192.774 7.81692 188.684 7.81692 184.105V75.4967C7.81692 68.7115 11.7499 62.5391 17.8377 59.7515L129.271 8.96252C132.406 7.52279 135.992 7.56874 139.111 9.11569L172.88 25.7492L196.478 37.359L72.6428 93.8303C72.6428 93.8303 72.5976 93.861 72.5675 93.8763C72.3716 93.9682 72.1908 94.0907 72.0099 94.2286C72.0099 94.2286 71.9798 94.2439 71.9798 94.2592C71.814 94.4124 71.6633 94.5962 71.5277 94.78C71.4976 94.8259 71.4674 94.8719 71.4373 94.9331C71.3921 95.0097 71.3469 95.071 71.3168 95.1322C71.2716 95.2394 71.2414 95.3467 71.1962 95.4692C71.1962 95.5151 71.1661 95.5458 71.151 95.5917C71.0907 95.8368 71.0455 96.0665 71.0455 96.3116C71.0455 96.3116 71.0455 96.3269 71.0455 96.3422V123.85L59.8042 111.368C58.9754 110.449 57.6644 110.203 56.5795 110.77L47.7341 115.319V83.9666L157.194 34.0507C158.053 33.6525 158.61 32.8713 158.761 31.983C158.851 31.4622 158.791 30.9108 158.565 30.4054C157.947 29.0116 156.35 28.399 154.979 29.0269L45.0519 79.1573L25.2063 69.4008C23.8652 68.7422 22.2377 69.3089 21.5898 70.6874C20.9418 72.0658 21.4994 73.7047 22.8556 74.3633L42.3094 83.936V119.822C42.3094 120.787 42.7916 121.675 43.6053 122.166C44.4039 122.671 45.4135 122.702 46.2574 122.273L57.1973 116.636L71.7688 132.81C72.2962 133.392 73.0195 133.699 73.773 133.699C74.1045 133.699 74.436 133.637 74.7524 133.515C75.7922 133.101 76.4854 132.075 76.4854 130.942V100.738L105.161 114.86C107.949 116.238 110.948 116.912 113.961 116.912C116.764 116.912 119.582 116.315 122.204 115.12L143.014 105.639C144.385 105.011 144.988 103.388 144.385 101.994C143.767 100.6 142.17 99.9875 140.799 100.6L119.974 110.081C115.996 111.904 111.46 111.827 107.512 109.897L80.1772 96.4341L202.867 40.4835L230.518 54.0998C232.281 54.9728 233.849 56.1368 235.19 57.5306L159.605 92.0077C158.233 92.6357 157.631 94.2592 158.249 95.653C158.701 96.6792 159.68 97.2765 160.72 97.2765C161.097 97.2765 161.473 97.1999 161.835 97.0315L238.384 62.1255C239.484 64.4383 240.102 66.9961 240.102 69.6305V140.928C240.102 142.444 241.323 143.685 242.815 143.685C244.306 143.685 245.527 142.444 245.527 140.928V69.6305C245.527 65.2194 244.231 60.9615 241.956 57.3468C241.85 57.1324 241.73 56.9486 241.579 56.7801C239.409 53.5637 236.456 50.8987 232.899 49.1373L141.477 4.15319C136.911 1.90169 131.652 1.82511 127.041 3.93876L15.6225 54.7277C7.59089 58.3883 2.40723 66.5519 2.40723 75.4967V184.105C2.40723 190.721 6.18949 196.863 12.0512 199.743L104.197 245.11C107.12 246.565 110.27 247.3 113.434 247.377C113.524 247.377 113.6 247.407 113.69 247.407C113.72 247.407 113.735 247.407 113.766 247.407C113.826 247.407 113.886 247.407 113.961 247.407C117.081 247.407 120.2 246.733 123.123 245.401L143.104 236.288C144.476 235.66 145.078 234.036 144.461 232.642C143.843 231.249 142.246 230.636 140.874 231.264Z" fill="#006D77" stroke="#006D77" stroke-width="4.81446" stroke-miterlimit="10"/>
<path d="M54.5321 190.477C53.1909 189.818 51.5635 190.385 50.9155 191.748C50.2676 193.126 50.8251 194.765 52.1663 195.424L57.5307 198.074C57.9075 198.257 58.3143 198.349 58.7061 198.349C59.7157 198.349 60.6801 197.783 61.1472 196.802C61.7952 195.424 61.2377 193.785 59.8965 193.126L54.5321 190.477Z" fill="#006D77" stroke="#006D77" stroke-width="4.81446" stroke-miterlimit="10"/>
<path d="M24.9969 175.925C23.6558 175.266 22.0283 175.833 21.3804 177.196C20.7324 178.575 21.29 180.213 22.6311 180.872L38.2876 188.576C38.6643 188.76 39.0711 188.852 39.4629 188.852C40.4725 188.852 41.4369 188.285 41.9041 187.305C42.552 185.926 41.9945 184.288 40.6534 183.629L24.9969 175.925Z" fill="#006D77" stroke="#006D77" stroke-width="4.81446" stroke-miterlimit="10"/>
<path d="M246.371 154.59C246.371 153.089 245.165 151.879 243.704 151.879C242.227 151.879 241.036 153.104 241.036 154.605C241.067 164.3 241.127 177.595 233.08 184.41C232.447 184.901 231.814 185.36 231.197 185.835L230.051 113.588C230.006 110.509 228.469 107.66 225.953 105.976C223.436 104.275 220.257 103.954 217.454 105.102L179.435 120.725C175.954 122.165 173.709 125.55 173.709 129.364V194.473C173.709 195.821 174.689 196.939 175.954 197.154C176.09 197.184 176.241 197.2 176.376 197.2C177.853 197.2 179.043 195.99 179.043 194.473V129.364C179.043 127.771 179.978 126.362 181.439 125.764L219.458 110.142C220.648 109.651 221.929 109.789 222.999 110.509C224.069 111.229 224.687 112.378 224.702 113.68L225.907 189.618C219.759 193.784 213.43 197.399 207.041 200.661C198.075 205.225 188.959 209.1 180.008 212.914C170.936 216.774 161.564 220.771 152.522 225.397C151.196 226.071 150.669 227.71 151.332 229.042C151.799 229.992 152.748 230.543 153.728 230.543C154.135 230.543 154.542 230.451 154.933 230.252C163.809 225.719 173.106 221.752 182.087 217.938C200.26 210.203 219.036 202.208 236.44 188.668C246.506 180.153 246.446 165.372 246.401 154.59H246.371Z" fill="#006D77" stroke="#006D77" stroke-width="4.81446" stroke-miterlimit="10"/>
</svg>
