<svg width="267" height="254" viewBox="0 0 267 254" fill="none" xmlns="http://www.w3.org/2000/svg">
<path d="M60.9941 99.3657C62.0716 99.3657 63.1499 99.7824 63.9688 100.602L152.792 189.523C153.596 190.314 154.028 191.378 154.028 192.5C154.028 193.621 153.582 194.685 152.792 195.476L103.575 244.74L103.59 244.754C101.995 246.35 99.2362 246.35 97.6416 244.754L8.80371 155.833C7.16612 154.193 7.16614 151.52 8.80371 149.88L58.0205 100.602C58.8392 99.7826 59.9169 99.3658 60.9941 99.3657ZM80.791 147.867C74.1684 147.867 67.9479 150.441 63.2646 155.128C58.5814 159.816 56.0098 166.043 56.0098 172.671C56.0099 179.3 58.5815 185.526 63.2646 190.213C67.9479 194.901 74.1684 197.475 80.791 197.475V197.46C87.4135 197.46 93.6342 194.887 98.3174 190.2C107.986 180.537 107.985 164.806 98.3174 155.128C93.6342 150.441 87.4136 147.867 80.791 147.867Z" fill="#E8FDF8"/>
<path d="M60.9941 99.3657C62.0716 99.3657 63.1499 99.7824 63.9688 100.602L152.792 189.523C153.596 190.314 154.028 191.378 154.028 192.5C154.028 193.621 153.582 194.685 152.792 195.476L103.575 244.74L103.59 244.754C101.995 246.35 99.2362 246.35 97.6416 244.754L8.80371 155.833C7.16612 154.193 7.16614 151.52 8.80371 149.88L58.0205 100.602C58.8392 99.7826 59.9169 99.3658 60.9941 99.3657ZM80.791 147.867C74.1684 147.867 67.9479 150.441 63.2646 155.128C58.5814 159.816 56.0098 166.043 56.0098 172.671C56.0099 179.3 58.5815 185.526 63.2646 190.213C67.9479 194.901 74.1684 197.475 80.791 197.475V197.46C87.4135 197.46 93.6342 194.887 98.3174 190.2C107.986 180.537 107.985 164.806 98.3174 155.128C93.6342 150.441 87.4136 147.867 80.791 147.867Z" stroke="#006D77"/>
<mask id="path-2-inside-1_2420_851" fill="white">
<path d="M237.772 21.3276C237.542 21.3276 237.327 21.3132 237.097 21.2988C237.327 21.3563 237.542 21.4139 237.772 21.457V21.3132V21.3276Z"/>
</mask>
<path d="M237.772 21.3276V26.1398H242.584V21.3276H237.772ZM237.097 21.2988L237.397 16.496L235.929 25.9671L237.097 21.2988ZM237.772 21.457L236.884 26.1867L242.584 27.2564V21.457H237.772ZM237.772 21.3276V16.5153C237.722 16.5153 237.667 16.5129 237.397 16.496L237.097 21.2988L236.796 26.1017C236.986 26.1136 237.362 26.1398 237.772 26.1398V21.3276ZM237.097 21.2988L235.929 25.9671C236.061 26.0004 236.472 26.1094 236.884 26.1867L237.772 21.457L238.66 16.7273C238.656 16.7267 238.633 16.7222 238.567 16.7062C238.534 16.6982 238.495 16.6887 238.444 16.6756C238.4 16.6645 238.328 16.6462 238.265 16.6305L237.097 21.2988ZM237.772 21.457H242.584V21.3132H237.772H232.96V21.457H237.772ZM237.772 21.3132H232.96V21.3276H237.772H242.584V21.3132H237.772Z" fill="#006D77" mask="url(#path-2-inside-1_2420_851)"/>
<path d="M194.198 10.8154C204.312 17.0416 220.014 20.8811 237.095 21.3125C237.325 21.3556 237.541 21.4132 237.771 21.4707V75.4502C237.77 99.7079 219.87 118.516 194.198 121.233H194.185C168.527 118.516 150.627 99.7222 150.627 75.4502V21.3408C167.966 20.9813 183.941 17.1278 194.198 10.8154Z" fill="#E8FDF8"/>
<path d="M194.198 10.8154C204.312 17.0416 220.014 20.8811 237.095 21.3125C237.325 21.3556 237.541 21.4132 237.771 21.4707V75.4502C237.77 99.7079 219.87 118.516 194.198 121.233H194.185C168.527 118.516 150.627 99.7222 150.627 75.4502V21.3408C167.966 20.9813 183.941 17.1278 194.198 10.8154Z" stroke="#006D77"/>
<path d="M240.354 16.1798C222.167 16.1798 205.46 12.2255 195.662 5.5823C194.786 4.99275 193.636 4.99275 192.76 5.5823C182.948 12.2111 166.226 16.1798 148.054 16.1798C146.631 16.1798 145.468 17.3445 145.468 18.768V75.4509C145.468 102.556 165.408 123.506 193.938 126.411C194.024 126.411 194.111 126.411 194.197 126.411C194.283 126.411 194.369 126.411 194.455 126.411C223 123.506 242.94 102.556 242.94 75.4509V18.768C242.94 17.3445 241.776 16.1798 240.354 16.1798ZM194.211 10.802C204.31 17.0282 220.012 20.8674 237.108 21.2988C237.337 21.2988 237.553 21.3132 237.783 21.3275V75.4365C237.783 99.7087 219.883 118.502 194.211 121.22C168.554 118.488 150.654 99.6943 150.654 75.4365V21.3275C167.993 20.9824 183.968 17.1144 194.225 10.802H194.211Z" fill="#006D77" stroke="#006D77" stroke-width="4.81224" stroke-miterlimit="10"/>
<path d="M193.821 109.012C193.95 109.026 194.079 109.04 194.194 109.04C195.458 109.04 196.564 108.106 196.751 106.826C196.952 105.417 195.975 104.094 194.568 103.893C182.256 102.095 167.876 93.5828 167.876 75.4506C167.876 74.027 166.712 72.8623 165.29 72.8623C163.868 72.8623 162.704 74.027 162.704 75.4506C162.704 88.852 170.85 105.676 193.821 109.026V109.012Z" fill="#006D77" stroke="#006D77" stroke-width="4.81224" stroke-miterlimit="10"/>
<path d="M159.202 192.513C159.202 190.011 158.225 187.653 156.458 185.884L67.6344 96.9629C63.9855 93.3106 58.038 93.2962 54.3747 96.9629L5.14294 146.212C1.49402 149.864 1.49402 155.817 5.14294 159.484L93.9814 248.405C95.8058 250.231 98.2049 251.151 100.604 251.151C103.003 251.151 105.402 250.231 107.227 248.405L156.444 199.142C158.211 197.373 159.188 195.015 159.188 192.513H159.202ZM8.80624 155.831C7.16853 154.192 7.16853 151.518 8.80624 149.878L58.0236 100.615C58.8425 99.7956 59.9199 99.3786 60.9974 99.3786C62.0748 99.3786 63.1522 99.7956 63.9711 100.615L152.795 189.536C153.585 190.327 154.031 191.391 154.031 192.513C154.031 193.634 153.6 194.698 152.795 195.489L103.578 244.753C101.997 246.349 99.2249 246.349 97.6303 244.753L8.80624 155.831Z" fill="#006D77" stroke="#006D77" stroke-width="4.81224" stroke-miterlimit="10"/>
<path d="M98.3221 155.14C93.6388 150.453 87.4184 147.879 80.7957 147.879C74.1731 147.879 67.9527 150.453 63.2694 155.14C58.5861 159.828 56.0146 166.054 56.0146 172.683C56.0146 179.312 58.5861 185.538 63.2694 190.226C67.9527 194.913 74.1731 197.487 80.7957 197.487C87.4184 197.487 93.6388 194.913 98.3221 190.226C107.99 180.549 107.99 164.818 98.3221 155.155V155.14ZM94.6588 186.559C90.9524 190.269 86.0249 192.311 80.7957 192.311C75.5666 192.311 70.6391 190.269 66.9327 186.559C63.2263 182.849 61.1864 177.917 61.1864 172.683C61.1864 167.449 63.2263 162.517 66.9327 158.807C70.6391 155.097 75.5666 153.055 80.7957 153.055C86.0249 153.055 90.9524 155.097 94.6588 158.807C102.301 166.457 102.301 178.909 94.6588 186.559Z" fill="#006D77" stroke="#006D77" stroke-width="4.81224" stroke-miterlimit="10"/>
<path d="M23.1218 109.276C23.2511 109.291 23.6748 109.386 23.8041 109.386C25.0682 109.386 26.1744 108.452 26.3612 107.158C30.0245 81.4331 42.4509 57.3335 61.342 39.3164C80.2906 21.2417 105.043 9.96836 131.045 7.58141C132.467 7.452 133.516 6.18663 133.387 4.76309C133.257 3.33954 131.993 2.27548 130.571 2.41927C103.42 4.90688 77.5754 16.6691 57.7793 35.549C38.0406 54.3714 25.0682 79.535 21.2469 106.41C21.0458 107.819 22.0227 109.142 23.4449 109.343L23.1218 109.276Z" fill="#006D77" stroke="#006D77" stroke-width="4.81224" stroke-miterlimit="10"/>
<path d="M130.514 25.7983C97.7594 29.5369 69.1857 49.3515 54.0728 78.8001C53.4263 80.0655 53.9148 81.6328 55.1933 82.2799C55.5668 82.4668 55.9691 82.5675 56.3713 82.5675C57.3051 82.5675 58.2102 82.0498 58.6699 81.1583C72.9926 53.2482 100.072 34.4834 131.103 30.9317C132.525 30.7735 133.545 29.4938 133.372 28.0702C133.214 26.6467 131.936 25.6258 130.514 25.7983Z" fill="#006D77" stroke="#006D77" stroke-width="4.81224" stroke-miterlimit="10"/>
<path d="M179.838 208C210.509 195.911 232.98 169.376 239.956 137.02C240.253 135.63 239.376 134.243 237.973 133.948C237.564 133.865 237.15 133.871 236.761 133.976C235.859 134.217 235.119 134.952 234.906 135.932C228.294 166.598 206.994 191.732 177.941 203.194C176.608 203.715 175.954 205.215 176.489 206.545C177.01 207.879 178.509 208.535 179.838 208Z" fill="#006D77" stroke="#006D77" stroke-width="4.81224" stroke-miterlimit="10"/>
<path d="M258.581 89.0402C258.322 87.8899 257.288 87.0415 256.066 87.0415C254.644 87.0415 253.481 88.2062 253.481 89.6441C253.481 89.8886 253.524 90.1474 253.596 90.3919C256.828 101.205 258.466 112.464 258.466 123.852C258.466 188.242 206.145 240.612 141.829 240.612C139.157 240.612 136.399 240.511 133.641 240.324C132.219 240.223 130.983 241.302 130.882 242.725C130.782 244.149 131.859 245.385 133.282 245.486C136.155 245.687 139.028 245.788 141.815 245.788C208.975 245.788 263.623 191.09 263.623 123.852C263.623 112.018 261.928 100.299 258.581 89.0546V89.0402Z" fill="#006D77" stroke="#006D77" stroke-width="4.81224" stroke-miterlimit="10"/>
</svg>
