<svg width="225" height="257" viewBox="0 0 225 257" fill="none" xmlns="http://www.w3.org/2000/svg">
<path d="M125.896 7.6582V65.3105L102.4 57.1826C101.844 56.9929 101.23 56.993 100.674 57.1826L77.1787 65.3105H77.1641V7.6582H125.896Z" fill="#E8FDF8"/>
<path d="M125.896 7.6582V65.3105L102.4 57.1826C101.844 56.9929 101.23 56.993 100.674 57.1826L77.1787 65.3105H77.1641V7.6582H125.896Z" stroke="#006D77"/>
<path d="M198.061 2.40479H128.585C128.585 2.40479 128.556 2.40479 128.541 2.40479H74.5435C74.5435 2.40479 74.5143 2.40479 74.4996 2.40479H5.03857C3.59025 2.40479 2.40527 3.58672 2.40527 5.0313V188.421C2.40527 189.865 3.59025 191.047 5.03857 191.047H97.9069C99.3552 191.047 100.54 189.865 100.54 188.421C100.54 186.976 99.3552 185.794 97.9069 185.794H7.67192V7.65782H71.9102V69.0016C71.9102 69.848 72.3198 70.6505 73.022 71.1466C73.7096 71.6428 74.602 71.7595 75.4067 71.4822L82.5897 69.0016L101.55 62.4499L120.495 69.0016L127.678 71.4822C127.956 71.5844 128.249 71.6282 128.541 71.6282C129.082 71.6282 129.609 71.4677 130.063 71.1466C130.75 70.6505 131.174 69.8626 131.174 69.0016V7.65782H195.427V102.242C195.427 103.686 196.612 104.868 198.061 104.868C199.509 104.868 200.694 103.686 200.694 102.242V5.0313C200.694 3.58672 199.509 2.40479 198.061 2.40479ZM125.908 65.3099L102.413 57.1823C101.857 56.9926 101.242 56.9926 100.687 57.1823L77.1915 65.3099V7.65782H125.923V65.3099H125.908Z" fill="#006D77" stroke="#006D77" stroke-width="4.81" stroke-miterlimit="10"/>
<path d="M73.7985 148.907C73.7985 147.462 72.6135 146.28 71.1652 146.28H31.563C30.1147 146.28 28.9297 147.462 28.9297 148.907C28.9297 150.351 30.1147 151.533 31.563 151.533H71.1652C72.6135 151.533 73.7985 150.351 73.7985 148.907Z" fill="#006D77" stroke="#006D77" stroke-width="4.81" stroke-miterlimit="10"/>
<path d="M31.5444 164.329C30.0961 164.329 28.9111 165.511 28.9111 166.956C28.9111 168.4 30.0961 169.582 31.5444 169.582H53.6789C55.1273 169.582 56.3123 168.4 56.3123 166.956C56.3123 165.511 55.1273 164.329 53.6789 164.329H31.5444Z" fill="#006D77" stroke="#006D77" stroke-width="4.81" stroke-miterlimit="10"/>
<path d="M207.835 254.406C203.549 254.406 199.35 252.232 196.98 248.306L184.94 228.389C183.199 225.514 182.687 222.129 183.506 218.846C184.325 215.562 186.359 212.805 189.241 211.068L191.187 209.901C197.17 206.311 204.953 208.237 208.552 214.191L220.592 234.109C222.333 236.983 222.845 240.368 222.026 243.652C221.207 246.935 219.173 249.693 216.291 251.429L214.345 252.596C212.312 253.822 210.059 254.406 207.835 254.406ZM197.682 213.344C196.351 213.344 195.063 213.695 193.893 214.395L191.947 215.562C190.265 216.569 189.08 218.189 188.597 220.1C188.129 222.012 188.422 223.996 189.431 225.674L201.471 245.592C203.578 249.065 208.113 250.189 211.609 248.087L213.555 246.92C215.238 245.913 216.423 244.294 216.891 242.382C217.374 240.471 217.066 238.486 216.057 236.808L204.017 216.89C203.007 215.212 201.383 214.03 199.467 213.563C198.867 213.417 198.267 213.344 197.668 213.344H197.682Z" fill="#006D77" stroke="#006D77" stroke-width="4.81" stroke-miterlimit="10"/>
<path d="M157.377 207.507C139.88 207.507 122.793 198.65 113.123 182.643C98.4347 158.347 106.291 126.668 130.649 112.004C155.007 97.339 186.768 105.189 201.471 129.485C216.159 153.78 208.303 185.459 183.944 200.123C175.635 205.128 166.447 207.507 157.377 207.507ZM157.216 109.844C148.892 109.844 140.685 112.106 133.37 116.498C122.778 122.875 115.303 132.987 112.333 144.967C109.363 156.946 111.25 169.364 117.629 179.928C130.824 201.743 159.352 208.776 181.223 195.615C203.094 182.453 210.146 153.999 196.95 132.184C190.557 121.62 180.419 114.163 168.408 111.201C164.692 110.282 160.932 109.83 157.202 109.83L157.216 109.844Z" fill="#006D77" stroke="#006D77" stroke-width="4.81" stroke-miterlimit="10"/>
<path d="M156.765 172.852C156.765 172.852 156.707 172.852 156.677 172.852C155.244 172.808 154.117 171.597 154.176 170.167L154.658 156.523L156.677 156.129C161.959 155.108 166.479 152 169.083 147.608C171.19 144.062 171.775 140.137 170.722 136.839C169.625 133.41 166.582 130.229 162.778 128.536C159.311 126.99 155.741 126.888 152.713 128.245C147.812 130.433 144.74 136.285 145.252 142.472C145.369 143.902 144.301 145.142 142.882 145.259C141.448 145.404 140.205 144.31 140.088 142.895C139.385 134.417 143.613 126.639 150.606 123.517C154.995 121.562 160.071 121.664 164.899 123.809C170.078 126.114 174.116 130.404 175.667 135.263C177.173 139.976 176.413 145.434 173.56 150.249C170.546 155.327 165.572 159.077 159.706 160.74L159.355 170.356C159.311 171.757 158.155 172.852 156.765 172.852Z" fill="#006D77" stroke="#006D77" stroke-width="4.81" stroke-miterlimit="10"/>
<path d="M157.337 187.751C159.494 187.751 161.243 186.006 161.243 183.854C161.243 181.703 159.494 179.958 157.337 179.958C155.179 179.958 153.431 181.703 153.431 183.854C153.431 186.006 155.179 187.751 157.337 187.751Z" fill="#006D77" stroke="#006D77" stroke-width="4.81" stroke-miterlimit="10"/>
</svg>
