<svg width="257" height="257" viewBox="0 0 257 257" fill="none" xmlns="http://www.w3.org/2000/svg">
<path d="M198.885 165.907L130.59 199.093V127.615L198.885 94.4272V165.907Z" fill="#E8FDF8"/>
<path d="M198.885 165.907L130.59 199.093V127.615L198.885 94.4272V165.907Z" stroke="#006D77"/>
<path d="M158.832 72.4551L91.2695 105.269L60.4551 90.2998L128.003 57.4717L158.832 72.4551Z" fill="#E8FDF8"/>
<path d="M158.832 72.4551L91.2695 105.269L60.4551 90.2998L128.003 57.4717L158.832 72.4551Z" stroke="#006D77"/>
<path d="M195.549 90.2993L128.001 123.113L97.2002 108.144L164.748 75.3306L195.549 90.2993Z" fill="#E8FDF8"/>
<path d="M195.549 90.2993L128.001 123.113L97.2002 108.144L164.748 75.3306L195.549 90.2993Z" stroke="#006D77"/>
<path d="M125.416 127.615V199.093L57.1211 165.907V94.4272L125.416 127.615Z" fill="#E8FDF8"/>
<path d="M125.416 127.615V199.093L57.1211 165.907V94.4272L125.416 127.615Z" stroke="#006D77"/>
<path d="M128.691 205.708C128.82 205.665 128.949 205.622 129.079 205.579C129.093 205.579 129.122 205.579 129.136 205.565L202.603 169.861C203.494 169.43 204.054 168.524 204.054 167.532V90.3009C204.054 90.0708 204.011 89.8551 203.968 89.6538C203.954 89.5963 203.939 89.5531 203.925 89.4956C203.867 89.3231 203.796 89.1649 203.709 89.0067C203.695 88.978 203.681 88.9348 203.652 88.9061C203.537 88.7335 203.408 88.561 203.25 88.4172C203.207 88.3884 203.178 88.3597 203.135 88.3165C203.005 88.2015 202.847 88.1008 202.689 88.0146C202.661 88.0002 202.632 87.9714 202.603 87.9571L129.136 52.2535C128.418 51.9084 127.585 51.9084 126.881 52.2535L53.4138 87.9571C53.4138 87.9571 53.3564 88.0002 53.3276 88.0146C53.1696 88.1008 53.026 88.2015 52.8823 88.3165C52.8392 88.3453 52.8105 88.3741 52.7674 88.4172C52.6094 88.561 52.4801 88.7192 52.3651 88.9061C52.3508 88.9348 52.322 88.978 52.3077 89.0067C52.2215 89.1649 52.1496 89.3231 52.0922 89.4956C52.0778 89.5531 52.0634 89.5963 52.0491 89.6538C51.9916 89.8695 51.9629 90.0708 51.9629 90.3009V167.532C51.9629 168.524 52.5232 169.43 53.4138 169.861L126.881 205.565C126.881 205.565 126.924 205.565 126.938 205.579C127.068 205.637 127.197 205.68 127.326 205.708C127.369 205.708 127.412 205.737 127.455 205.752C127.628 205.795 127.815 205.809 128.016 205.809C128.217 205.809 128.389 205.78 128.576 205.752C128.619 205.752 128.894 205.641 128.937 205.626L128.691 205.708ZM130.587 199.094V127.629L198.882 94.4421V165.907L130.587 199.094ZM128.001 123.129L97.2009 108.16L164.749 75.3321L195.55 90.3009L128.001 123.129ZM128.001 57.4731L158.83 72.4563L91.2822 105.284L60.4531 90.3009L128.001 57.4731ZM57.1202 94.4277L125.415 127.615V199.08L57.1202 165.892V94.4277Z" fill="#006D77" stroke="#006D77" stroke-width="4.81224" stroke-miterlimit="10"/>
<path d="M234.48 61.3961C233.719 60.1883 231.924 59.5319 230.717 60.294C229.511 61.0561 229.152 62.6522 229.913 63.86C260.642 112.462 252.568 176.421 210.706 215.949C187.304 238.05 156.705 249.683 124.525 248.762C92.36 247.828 62.479 234.398 40.3843 210.959C-5.19852 162.588 -2.97182 86.119 45.3549 40.4938C82.821 5.1209 138.575 -2.52884 184.1 21.4701C194.056 26.7041 203.178 33.3042 211.338 41.1265L186.614 41.2271C185.192 41.2271 184.028 42.3918 184.043 43.8298C184.043 45.2533 185.206 46.4036 186.629 46.4036L217.544 46.2742C217.544 46.2742 217.673 46.2742 217.731 46.2598C217.817 46.2598 217.903 46.2598 217.989 46.2311C218.09 46.2167 218.19 46.188 218.291 46.1448C218.348 46.1304 218.406 46.1161 218.449 46.1017C218.578 46.0442 218.708 45.9866 218.837 45.9147C218.851 45.9147 218.866 45.9004 218.88 45.886C219.57 45.4546 220.044 44.7213 220.101 43.8441L222.04 12.9576C222.127 11.534 221.049 10.2974 219.627 10.2111C218.219 10.1249 216.969 11.2033 216.883 12.6269L215.303 37.7617C206.698 29.4362 197.03 22.4047 186.485 16.8687C139.006 -8.15112 80.8529 -0.185032 41.7778 36.712C-8.61759 84.2929 -10.9449 164.054 36.5917 214.497C59.6202 238.941 90.7941 252.932 124.338 253.91C125.603 253.953 126.852 253.968 128.102 253.968C160.267 253.968 190.723 241.875 214.225 219.688C257.898 178.462 266.316 111.743 234.266 61.0561L234.48 61.3961Z" fill="#006D77" stroke="#006D77" stroke-width="4.81224" stroke-miterlimit="10"/>
</svg>
